G04 #@! TF.FileFunction,Legend,Bot*
%FSLAX46Y46*%
G04 Gerber Fmt 4.6, Leading zero omitted, Abs format (unit mm)*
G04 Created by KiCad (PCBNEW 4.0.2+dfsg1-stable) date Thu 01 Sep 2016 08:28:52 AM JST*
%MOMM*%
G01*
G04 APERTURE LIST*
%ADD10C,0.150000*%
%ADD11C,0.304800*%
%ADD12C,0.200660*%
%ADD13C,0.250000*%
%ADD14C,0.750000*%
%ADD15C,0.457200*%
%ADD16C,0.762000*%
%ADD17C,0.010000*%
%ADD18C,0.152400*%
G04 APERTURE END LIST*
D10*
D11*
X-2545143Y3195429D02*
X-2545143Y3703429D01*
X-1480762Y3703429D02*
X-3512762Y3703429D01*
X-3512762Y2977715D01*
X-1577524Y2469714D02*
X-1480762Y2252000D01*
X-1480762Y1889143D01*
X-1577524Y1744000D01*
X-1674286Y1671429D01*
X-1867810Y1598857D01*
X-2061333Y1598857D01*
X-2254857Y1671429D01*
X-2351619Y1744000D01*
X-2448381Y1889143D01*
X-2545143Y2179429D01*
X-2641905Y2324571D01*
X-2738667Y2397143D01*
X-2932190Y2469714D01*
X-3125714Y2469714D01*
X-3319238Y2397143D01*
X-3416000Y2324571D01*
X-3512762Y2179429D01*
X-3512762Y1816571D01*
X-3416000Y1598857D01*
X-3512762Y1163428D02*
X-3512762Y292571D01*
X-1480762Y728000D02*
X-3512762Y728000D01*
X-2254857Y-215429D02*
X-2254857Y-1376572D01*
X-3512762Y-2392572D02*
X-3512762Y-2537715D01*
X-3416000Y-2682858D01*
X-3319238Y-2755429D01*
X-3125714Y-2828000D01*
X-2738667Y-2900572D01*
X-2254857Y-2900572D01*
X-1867810Y-2828000D01*
X-1674286Y-2755429D01*
X-1577524Y-2682858D01*
X-1480762Y-2537715D01*
X-1480762Y-2392572D01*
X-1577524Y-2247429D01*
X-1674286Y-2174858D01*
X-1867810Y-2102286D01*
X-2254857Y-2029715D01*
X-2738667Y-2029715D01*
X-3125714Y-2102286D01*
X-3319238Y-2174858D01*
X-3416000Y-2247429D01*
X-3512762Y-2392572D01*
X-1480762Y-4352001D02*
X-1480762Y-3481144D01*
X-1480762Y-3916572D02*
X-3512762Y-3916572D01*
X-3222476Y-3771429D01*
X-3028952Y-3626287D01*
X-2932190Y-3481144D01*
X-3416000Y-5803430D02*
X-3512762Y-5658287D01*
X-3512762Y-5440573D01*
X-3416000Y-5222858D01*
X-3222476Y-5077716D01*
X-3028952Y-5005144D01*
X-2641905Y-4932573D01*
X-2351619Y-4932573D01*
X-1964571Y-5005144D01*
X-1771048Y-5077716D01*
X-1577524Y-5222858D01*
X-1480762Y-5440573D01*
X-1480762Y-5585716D01*
X-1577524Y-5803430D01*
X-1674286Y-5876001D01*
X-2351619Y-5876001D01*
X-2351619Y-5585716D01*
D12*
X1951325Y331046D02*
X2666153Y331046D01*
X2809119Y378702D01*
X2904430Y474012D01*
X2952085Y616978D01*
X2952085Y712288D01*
X2952085Y-669714D02*
X2952085Y-97851D01*
X2952085Y-383782D02*
X1951325Y-383782D01*
X2094290Y-288472D01*
X2189601Y-193161D01*
X2237256Y-97851D01*
D13*
X-18287500Y1725000D02*
X-18412500Y1725000D01*
X-18412500Y1725000D02*
X-18412500Y1225000D01*
X-18412500Y1225000D02*
X-18287500Y1225000D01*
X-18287500Y5975000D02*
X-18412500Y5975000D01*
X-18412500Y5975000D02*
X-18412500Y5475000D01*
X-18412500Y5475000D02*
X-18287500Y5475000D01*
X-17662500Y3350000D02*
X-17787500Y3350000D01*
X-17787500Y3850000D02*
X-17662500Y3850000D01*
X-17787500Y3850000D02*
X-17912500Y3850000D01*
X-17912500Y3850000D02*
X-17912500Y3350000D01*
X-17912500Y3350000D02*
X-17787500Y3350000D01*
X-14037500Y1725000D02*
X-14162500Y1725000D01*
X-14162500Y1725000D02*
X-14162500Y1225000D01*
X-14162500Y1225000D02*
X-14037500Y1225000D01*
X-14162500Y5975000D02*
X-14037500Y5975000D01*
X-14162500Y5975000D02*
X-14162500Y5475000D01*
X-14162500Y5475000D02*
X-14037500Y5475000D01*
D14*
X-13668498Y5692715D02*
G75*
G02X-13668498Y1507284I-369002J-2092715D01*
G01*
D13*
X-14037500Y5975000D02*
G75*
G02X-14037500Y1225000I0J-2375000D01*
G01*
X-14037500Y5475000D02*
G75*
G02X-14037500Y1725000I0J-1875000D01*
G01*
X-14037500Y5975000D02*
X-14037500Y5475000D01*
X-14037500Y1725000D02*
X-14037500Y1225000D01*
X-18287500Y1725000D02*
X-18287500Y1225000D01*
X-18287500Y5975000D02*
X-18287500Y5475000D01*
X-18287500Y5475000D02*
G75*
G02X-18287500Y1725000I0J-1875000D01*
G01*
X-18287500Y5975000D02*
G75*
G02X-18287500Y1225000I0J-2375000D01*
G01*
D14*
X-17662500Y3600000D02*
X-16162500Y3600000D01*
X-17918498Y5692715D02*
G75*
G02X-17918498Y1507284I-369002J-2092715D01*
G01*
D15*
X-17983200Y-3962400D02*
X-19761200Y-3962400D01*
X-18237200Y-3073400D02*
X-20523200Y-3073400D01*
X-17729200Y-4851400D02*
X-18745200Y-4851400D01*
D16*
X-14300200Y-2946400D02*
X-16840200Y-2946400D01*
X-16840200Y-2946400D02*
X-16840200Y-5359400D01*
X-16840200Y-5359400D02*
X-14300200Y-5359400D01*
X-14300200Y-5359400D02*
X-14300200Y-2946400D01*
X-16840200Y-4597400D02*
X-16078200Y-5359400D01*
X-15062200Y-2946400D02*
X-14300200Y-3708400D01*
D17*
G36*
X-10510822Y-4541822D02*
X-6990029Y-4541822D01*
X-6990029Y-3674198D01*
X-10510822Y-3674198D01*
X-10510822Y-4541822D01*
X-10510822Y-4541822D01*
G37*
X-10510822Y-4541822D02*
X-6990029Y-4541822D01*
X-6990029Y-3674198D01*
X-10510822Y-3674198D01*
X-10510822Y-4541822D01*
G36*
X-10887430Y1411152D02*
X-10886811Y1324069D01*
X-10435086Y865109D01*
X-9983361Y406148D01*
X-9983032Y195529D01*
X-9982703Y-15089D01*
X-9707610Y-15089D01*
X-9700522Y-68530D01*
X-9697838Y-92888D01*
X-9693313Y-138759D01*
X-9687191Y-203405D01*
X-9679712Y-284091D01*
X-9671119Y-378081D01*
X-9661654Y-482637D01*
X-9651558Y-595025D01*
X-9641074Y-712507D01*
X-9630444Y-832348D01*
X-9619909Y-951811D01*
X-9609713Y-1068159D01*
X-9600095Y-1178657D01*
X-9591300Y-1280569D01*
X-9583568Y-1371158D01*
X-9577142Y-1447687D01*
X-9572263Y-1507421D01*
X-9569175Y-1547624D01*
X-9568117Y-1565559D01*
X-9568118Y-1565644D01*
X-9575827Y-1580035D01*
X-9598981Y-1609748D01*
X-9637895Y-1655131D01*
X-9692884Y-1716529D01*
X-9764264Y-1794288D01*
X-9852349Y-1888754D01*
X-9957454Y-2000272D01*
X-10079895Y-2129188D01*
X-10114310Y-2165287D01*
X-10660137Y-2737416D01*
X-10571881Y-2825436D01*
X-10500485Y-2747758D01*
X-10474366Y-2719686D01*
X-10433566Y-2676274D01*
X-10380777Y-2620366D01*
X-10318691Y-2554808D01*
X-10250000Y-2482441D01*
X-10177396Y-2406112D01*
X-10133960Y-2360524D01*
X-10052416Y-2275119D01*
X-9986504Y-2206710D01*
X-9934544Y-2154053D01*
X-9894855Y-2115905D01*
X-9865757Y-2091020D01*
X-9845569Y-2078156D01*
X-9832610Y-2076068D01*
X-9825200Y-2083513D01*
X-9821658Y-2099246D01*
X-9820303Y-2122023D01*
X-9820121Y-2128239D01*
X-9810703Y-2171061D01*
X-9787497Y-2222819D01*
X-9755136Y-2275328D01*
X-9718252Y-2320403D01*
X-9703493Y-2334328D01*
X-9627767Y-2383047D01*
X-9539308Y-2410306D01*
X-9461100Y-2416773D01*
X-9372468Y-2404576D01*
X-9290612Y-2368813D01*
X-9218164Y-2310722D01*
X-9204797Y-2296262D01*
X-9155918Y-2240733D01*
X-8310326Y-2240733D01*
X-8310326Y-2416773D01*
X-8083990Y-2416773D01*
X-8083990Y-2334531D01*
X-8081150Y-2278386D01*
X-8071607Y-2239416D01*
X-8060009Y-2218219D01*
X-8051723Y-2203052D01*
X-8044627Y-2181062D01*
X-8038252Y-2148987D01*
X-8032128Y-2103569D01*
X-8025784Y-2041548D01*
X-8018750Y-1959662D01*
X-8013934Y-1898746D01*
X-7991839Y-1613343D01*
X-7449435Y-2162805D01*
X-7351363Y-2262228D01*
X-7257216Y-2357815D01*
X-7168715Y-2447810D01*
X-7087580Y-2530457D01*
X-7015531Y-2604001D01*
X-6954288Y-2666684D01*
X-6905573Y-2716752D01*
X-6871104Y-2752448D01*
X-6852621Y-2771995D01*
X-6822257Y-2802944D01*
X-6796929Y-2824530D01*
X-6783305Y-2831723D01*
X-6765905Y-2823297D01*
X-6740540Y-2802245D01*
X-6731942Y-2793671D01*
X-6695486Y-2755620D01*
X-6896198Y-2551658D01*
X-6947404Y-2499699D01*
X-7013431Y-2432820D01*
X-7091382Y-2353950D01*
X-7178362Y-2266014D01*
X-7271474Y-2171941D01*
X-7367821Y-2074658D01*
X-7464508Y-1977093D01*
X-7533866Y-1907145D01*
X-7639297Y-1800550D01*
X-7727871Y-1710307D01*
X-7800719Y-1635192D01*
X-7858977Y-1573986D01*
X-7903775Y-1525466D01*
X-7925979Y-1500129D01*
X-8104276Y-1500129D01*
X-8126599Y-1785555D01*
X-8133331Y-1869219D01*
X-8139843Y-1945727D01*
X-8145766Y-2011081D01*
X-8150732Y-2061281D01*
X-8154371Y-2092329D01*
X-8155542Y-2099273D01*
X-8162162Y-2127565D01*
X-9111636Y-2127565D01*
X-9117974Y-2048606D01*
X-9137110Y-1955315D01*
X-9177154Y-1872791D01*
X-9235582Y-1804038D01*
X-9309871Y-1752063D01*
X-9393252Y-1720863D01*
X-9420302Y-1706228D01*
X-9433844Y-1674819D01*
X-9434128Y-1673434D01*
X-9435753Y-1660174D01*
X-9433744Y-1646595D01*
X-9426142Y-1630181D01*
X-9410984Y-1608411D01*
X-9386312Y-1578767D01*
X-9350164Y-1538732D01*
X-9300580Y-1485785D01*
X-9235599Y-1417409D01*
X-9231401Y-1413005D01*
X-9161507Y-1339611D01*
X-9087200Y-1261437D01*
X-9013586Y-1183864D01*
X-8945771Y-1112275D01*
X-8888860Y-1052051D01*
X-8876168Y-1038587D01*
X-8827513Y-987820D01*
X-8784291Y-944375D01*
X-8749605Y-911241D01*
X-8726556Y-891405D01*
X-8718818Y-887046D01*
X-8707278Y-896170D01*
X-8680290Y-921200D01*
X-8639979Y-960052D01*
X-8588471Y-1010643D01*
X-8527891Y-1070888D01*
X-8460364Y-1138704D01*
X-8405174Y-1194565D01*
X-8104276Y-1500129D01*
X-7925979Y-1500129D01*
X-7936249Y-1488411D01*
X-7957529Y-1461599D01*
X-7968749Y-1443808D01*
X-7971246Y-1435570D01*
X-7970300Y-1417590D01*
X-7967427Y-1376892D01*
X-7962813Y-1315819D01*
X-7956642Y-1236713D01*
X-7949102Y-1141914D01*
X-7940379Y-1033767D01*
X-7930657Y-914612D01*
X-7920124Y-786791D01*
X-7911635Y-684635D01*
X-7863604Y-108674D01*
X-7987195Y-108674D01*
X-7987727Y-121104D01*
X-7990231Y-156110D01*
X-7994504Y-211215D01*
X-8000347Y-283943D01*
X-8007557Y-371814D01*
X-8015934Y-472351D01*
X-8025277Y-583077D01*
X-8034242Y-688205D01*
X-8044398Y-807483D01*
X-8053858Y-920080D01*
X-8062404Y-1023305D01*
X-8069821Y-1114473D01*
X-8075892Y-1190895D01*
X-8080399Y-1249883D01*
X-8083127Y-1288749D01*
X-8083884Y-1303844D01*
X-8085065Y-1313238D01*
X-8089744Y-1316966D01*
X-8099724Y-1313471D01*
X-8116810Y-1301199D01*
X-8142804Y-1278594D01*
X-8179510Y-1244100D01*
X-8228733Y-1196162D01*
X-8292274Y-1133224D01*
X-8359695Y-1065968D01*
X-8635399Y-790477D01*
X-8633467Y-788406D01*
X-8815710Y-788406D01*
X-8824016Y-799780D01*
X-8847267Y-826563D01*
X-8883135Y-866292D01*
X-8929287Y-916507D01*
X-8983394Y-974746D01*
X-9043126Y-1038547D01*
X-9106152Y-1105449D01*
X-9170142Y-1172990D01*
X-9232764Y-1238710D01*
X-9291690Y-1300146D01*
X-9344588Y-1354837D01*
X-9389128Y-1400322D01*
X-9422980Y-1434138D01*
X-9443812Y-1453826D01*
X-9449494Y-1457837D01*
X-9451366Y-1444891D01*
X-9455254Y-1409134D01*
X-9460943Y-1352804D01*
X-9468219Y-1278140D01*
X-9476869Y-1187380D01*
X-9486678Y-1082762D01*
X-9497434Y-966526D01*
X-9508921Y-840908D01*
X-9518093Y-739618D01*
X-9529826Y-608279D01*
X-9540665Y-484552D01*
X-9550430Y-370681D01*
X-9558937Y-268911D01*
X-9566005Y-181487D01*
X-9571451Y-110653D01*
X-9575092Y-58653D01*
X-9576747Y-27732D01*
X-9576558Y-19703D01*
X-9566666Y-26854D01*
X-9541476Y-49841D01*
X-9503190Y-86439D01*
X-9454011Y-134422D01*
X-9396139Y-191566D01*
X-9331778Y-255647D01*
X-9263129Y-324438D01*
X-9192395Y-395716D01*
X-9121778Y-467255D01*
X-9053480Y-536830D01*
X-8989704Y-602217D01*
X-8932650Y-661191D01*
X-8884522Y-711527D01*
X-8847522Y-750999D01*
X-8823852Y-777383D01*
X-8815710Y-788406D01*
X-8633467Y-788406D01*
X-8532591Y-680295D01*
X-8480232Y-624377D01*
X-8421465Y-561948D01*
X-8358615Y-495443D01*
X-8294005Y-427298D01*
X-8229958Y-359948D01*
X-8168797Y-295828D01*
X-8112847Y-237372D01*
X-8064430Y-187018D01*
X-8025870Y-147198D01*
X-7999491Y-120350D01*
X-7987616Y-108908D01*
X-7987195Y-108674D01*
X-7863604Y-108674D01*
X-7851599Y35274D01*
X-7251062Y666842D01*
X-6650525Y1298411D01*
X-6650966Y1386685D01*
X-6651408Y1474960D01*
X-6748417Y1371334D01*
X-6802709Y1313537D01*
X-6866808Y1245632D01*
X-6938984Y1169428D01*
X-7017508Y1086731D01*
X-7100651Y999347D01*
X-7186681Y909085D01*
X-7273870Y817750D01*
X-7360487Y727151D01*
X-7444803Y639093D01*
X-7525088Y555385D01*
X-7599613Y477833D01*
X-7666646Y408243D01*
X-7724459Y348424D01*
X-7771321Y300182D01*
X-7805504Y265324D01*
X-7825276Y245657D01*
X-7829610Y241884D01*
X-7829908Y255008D01*
X-7828269Y288611D01*
X-7824977Y338120D01*
X-7820318Y398963D01*
X-7818318Y423268D01*
X-7803423Y601049D01*
X-7920045Y601049D01*
X-7926066Y572757D01*
X-7929137Y550382D01*
X-7933452Y508283D01*
X-7938512Y451822D01*
X-7943819Y386365D01*
X-7945656Y362138D01*
X-7951073Y292579D01*
X-7956541Y227982D01*
X-7961512Y174452D01*
X-7965439Y138090D01*
X-7966325Y131491D01*
X-7969666Y117944D01*
X-7976899Y102086D01*
X-7989560Y82139D01*
X-8009189Y56327D01*
X-8037322Y22871D01*
X-8075498Y-20007D01*
X-8125254Y-74083D01*
X-8188129Y-141136D01*
X-8265659Y-222943D01*
X-8344749Y-305950D01*
X-8423436Y-388094D01*
X-8496888Y-464169D01*
X-8563276Y-532325D01*
X-8620773Y-590712D01*
X-8667549Y-637481D01*
X-8701776Y-670782D01*
X-8721627Y-688767D01*
X-8725860Y-691442D01*
X-8736997Y-681741D01*
X-8763029Y-656441D01*
X-8801430Y-618082D01*
X-8849672Y-569200D01*
X-8905230Y-512334D01*
X-8945408Y-470906D01*
X-9155169Y-254000D01*
X-8536663Y-254000D01*
X-8536663Y-15089D01*
X-9291119Y-15089D01*
X-9291119Y-121542D01*
X-9429435Y16346D01*
X-9527553Y114160D01*
X-9718643Y114160D01*
X-9720471Y98730D01*
X-9729723Y90133D01*
X-9752050Y86387D01*
X-9793105Y85511D01*
X-9800376Y85505D01*
X-9882109Y85505D01*
X-9882109Y304828D01*
X-9800376Y223821D01*
X-9754270Y174572D01*
X-9726694Y136841D01*
X-9718643Y114160D01*
X-9527553Y114160D01*
X-9567752Y154234D01*
X-9567752Y277048D01*
X-9568137Y333550D01*
X-9569900Y369495D01*
X-9573950Y389470D01*
X-9581199Y398063D01*
X-9592130Y399861D01*
X-9604288Y402502D01*
X-9613273Y413088D01*
X-9620174Y435619D01*
X-9626076Y474091D01*
X-9632065Y532502D01*
X-9633987Y553896D01*
X-9638148Y601049D01*
X-7920045Y601049D01*
X-7803423Y601049D01*
X-7643891Y601049D01*
X-7643891Y714218D01*
X-7711686Y714218D01*
X-7751338Y715304D01*
X-7772884Y720546D01*
X-7775520Y723666D01*
X-7914384Y723666D01*
X-7921692Y716538D01*
X-7947007Y714338D01*
X-7964092Y714218D01*
X-8021119Y714218D01*
X-8233779Y714218D01*
X-9648302Y714218D01*
X-9600458Y763214D01*
X-9526150Y823676D01*
X-9434184Y870309D01*
X-9323002Y903751D01*
X-9212529Y922247D01*
X-9140227Y930878D01*
X-9140227Y839960D01*
X-8561812Y839960D01*
X-8561812Y943107D01*
X-8476935Y934504D01*
X-8417632Y927244D01*
X-8354449Y917621D01*
X-8316614Y910748D01*
X-8241168Y895593D01*
X-8237474Y804905D01*
X-8233779Y714218D01*
X-8021119Y714218D01*
X-8021119Y764515D01*
X-8019456Y796024D01*
X-8015303Y813537D01*
X-8013629Y814812D01*
X-7995013Y806746D01*
X-7967817Y787180D01*
X-7940552Y763056D01*
X-7921733Y741318D01*
X-7920057Y738492D01*
X-7914384Y723666D01*
X-7775520Y723666D01*
X-7783338Y732919D01*
X-7787558Y746396D01*
X-7804781Y781373D01*
X-7837862Y823421D01*
X-7881107Y866644D01*
X-7928826Y905146D01*
X-7960170Y925199D01*
X-7995877Y947149D01*
X-8014181Y965589D01*
X-8020612Y987332D01*
X-8021106Y1000282D01*
X-8021106Y1003425D01*
X-8662406Y1003425D01*
X-8662406Y940554D01*
X-9039633Y940554D01*
X-9039633Y1003425D01*
X-8662406Y1003425D01*
X-8021106Y1003425D01*
X-8021119Y1041148D01*
X-8126952Y1041148D01*
X-8175645Y1039971D01*
X-8213595Y1036835D01*
X-8234692Y1032329D01*
X-8236977Y1030505D01*
X-8250359Y1027705D01*
X-8282926Y1028852D01*
X-8329084Y1033607D01*
X-8360624Y1037997D01*
X-8417812Y1046622D01*
X-8470114Y1054409D01*
X-8509418Y1060153D01*
X-8520945Y1061785D01*
X-8551063Y1071112D01*
X-8561812Y1085728D01*
X-8565080Y1091680D01*
X-8576770Y1096222D01*
X-8599712Y1099530D01*
X-8636735Y1101785D01*
X-8690668Y1103166D01*
X-8764340Y1103850D01*
X-8851020Y1104020D01*
X-8943529Y1103923D01*
X-9013906Y1103470D01*
X-9065164Y1102410D01*
X-9100320Y1100497D01*
X-9122389Y1097481D01*
X-9134385Y1093115D01*
X-9139324Y1087151D01*
X-9140227Y1080216D01*
X-9147921Y1058205D01*
X-9173121Y1045679D01*
X-9219009Y1041212D01*
X-9227264Y1041148D01*
X-9304973Y1033132D01*
X-9393233Y1011064D01*
X-9484085Y977916D01*
X-9569570Y936661D01*
X-9641726Y890269D01*
X-9651072Y882918D01*
X-9681533Y859002D01*
X-9699572Y849424D01*
X-9712169Y852520D01*
X-9725100Y865296D01*
X-9763293Y890322D01*
X-9812998Y899929D01*
X-9866524Y894933D01*
X-9916178Y876149D01*
X-9954267Y844394D01*
X-9957025Y840703D01*
X-9985526Y781425D01*
X-9990828Y720066D01*
X-9973518Y661573D01*
X-9934180Y610896D01*
X-9929370Y606711D01*
X-9901440Y586833D01*
X-9873102Y578079D01*
X-9833263Y577447D01*
X-9823311Y578008D01*
X-9784332Y579438D01*
X-9764254Y576161D01*
X-9756985Y566272D01*
X-9756240Y557039D01*
X-9754716Y530256D01*
X-9750935Y489975D01*
X-9748218Y465876D01*
X-9744277Y427599D01*
X-9745916Y408004D01*
X-9755421Y400842D01*
X-9772351Y399861D01*
X-9782392Y403099D01*
X-9798590Y413580D01*
X-9822145Y432452D01*
X-9854257Y460865D01*
X-9896128Y499965D01*
X-9948957Y550903D01*
X-10013945Y614827D01*
X-10092291Y692886D01*
X-10185197Y786228D01*
X-10293863Y896002D01*
X-10346231Y949048D01*
X-10888049Y1498233D01*
X-10887430Y1411152D01*
X-10887430Y1411152D01*
G37*
X-10887430Y1411152D02*
X-10886811Y1324069D01*
X-10435086Y865109D01*
X-9983361Y406148D01*
X-9983032Y195529D01*
X-9982703Y-15089D01*
X-9707610Y-15089D01*
X-9700522Y-68530D01*
X-9697838Y-92888D01*
X-9693313Y-138759D01*
X-9687191Y-203405D01*
X-9679712Y-284091D01*
X-9671119Y-378081D01*
X-9661654Y-482637D01*
X-9651558Y-595025D01*
X-9641074Y-712507D01*
X-9630444Y-832348D01*
X-9619909Y-951811D01*
X-9609713Y-1068159D01*
X-9600095Y-1178657D01*
X-9591300Y-1280569D01*
X-9583568Y-1371158D01*
X-9577142Y-1447687D01*
X-9572263Y-1507421D01*
X-9569175Y-1547624D01*
X-9568117Y-1565559D01*
X-9568118Y-1565644D01*
X-9575827Y-1580035D01*
X-9598981Y-1609748D01*
X-9637895Y-1655131D01*
X-9692884Y-1716529D01*
X-9764264Y-1794288D01*
X-9852349Y-1888754D01*
X-9957454Y-2000272D01*
X-10079895Y-2129188D01*
X-10114310Y-2165287D01*
X-10660137Y-2737416D01*
X-10571881Y-2825436D01*
X-10500485Y-2747758D01*
X-10474366Y-2719686D01*
X-10433566Y-2676274D01*
X-10380777Y-2620366D01*
X-10318691Y-2554808D01*
X-10250000Y-2482441D01*
X-10177396Y-2406112D01*
X-10133960Y-2360524D01*
X-10052416Y-2275119D01*
X-9986504Y-2206710D01*
X-9934544Y-2154053D01*
X-9894855Y-2115905D01*
X-9865757Y-2091020D01*
X-9845569Y-2078156D01*
X-9832610Y-2076068D01*
X-9825200Y-2083513D01*
X-9821658Y-2099246D01*
X-9820303Y-2122023D01*
X-9820121Y-2128239D01*
X-9810703Y-2171061D01*
X-9787497Y-2222819D01*
X-9755136Y-2275328D01*
X-9718252Y-2320403D01*
X-9703493Y-2334328D01*
X-9627767Y-2383047D01*
X-9539308Y-2410306D01*
X-9461100Y-2416773D01*
X-9372468Y-2404576D01*
X-9290612Y-2368813D01*
X-9218164Y-2310722D01*
X-9204797Y-2296262D01*
X-9155918Y-2240733D01*
X-8310326Y-2240733D01*
X-8310326Y-2416773D01*
X-8083990Y-2416773D01*
X-8083990Y-2334531D01*
X-8081150Y-2278386D01*
X-8071607Y-2239416D01*
X-8060009Y-2218219D01*
X-8051723Y-2203052D01*
X-8044627Y-2181062D01*
X-8038252Y-2148987D01*
X-8032128Y-2103569D01*
X-8025784Y-2041548D01*
X-8018750Y-1959662D01*
X-8013934Y-1898746D01*
X-7991839Y-1613343D01*
X-7449435Y-2162805D01*
X-7351363Y-2262228D01*
X-7257216Y-2357815D01*
X-7168715Y-2447810D01*
X-7087580Y-2530457D01*
X-7015531Y-2604001D01*
X-6954288Y-2666684D01*
X-6905573Y-2716752D01*
X-6871104Y-2752448D01*
X-6852621Y-2771995D01*
X-6822257Y-2802944D01*
X-6796929Y-2824530D01*
X-6783305Y-2831723D01*
X-6765905Y-2823297D01*
X-6740540Y-2802245D01*
X-6731942Y-2793671D01*
X-6695486Y-2755620D01*
X-6896198Y-2551658D01*
X-6947404Y-2499699D01*
X-7013431Y-2432820D01*
X-7091382Y-2353950D01*
X-7178362Y-2266014D01*
X-7271474Y-2171941D01*
X-7367821Y-2074658D01*
X-7464508Y-1977093D01*
X-7533866Y-1907145D01*
X-7639297Y-1800550D01*
X-7727871Y-1710307D01*
X-7800719Y-1635192D01*
X-7858977Y-1573986D01*
X-7903775Y-1525466D01*
X-7925979Y-1500129D01*
X-8104276Y-1500129D01*
X-8126599Y-1785555D01*
X-8133331Y-1869219D01*
X-8139843Y-1945727D01*
X-8145766Y-2011081D01*
X-8150732Y-2061281D01*
X-8154371Y-2092329D01*
X-8155542Y-2099273D01*
X-8162162Y-2127565D01*
X-9111636Y-2127565D01*
X-9117974Y-2048606D01*
X-9137110Y-1955315D01*
X-9177154Y-1872791D01*
X-9235582Y-1804038D01*
X-9309871Y-1752063D01*
X-9393252Y-1720863D01*
X-9420302Y-1706228D01*
X-9433844Y-1674819D01*
X-9434128Y-1673434D01*
X-9435753Y-1660174D01*
X-9433744Y-1646595D01*
X-9426142Y-1630181D01*
X-9410984Y-1608411D01*
X-9386312Y-1578767D01*
X-9350164Y-1538732D01*
X-9300580Y-1485785D01*
X-9235599Y-1417409D01*
X-9231401Y-1413005D01*
X-9161507Y-1339611D01*
X-9087200Y-1261437D01*
X-9013586Y-1183864D01*
X-8945771Y-1112275D01*
X-8888860Y-1052051D01*
X-8876168Y-1038587D01*
X-8827513Y-987820D01*
X-8784291Y-944375D01*
X-8749605Y-911241D01*
X-8726556Y-891405D01*
X-8718818Y-887046D01*
X-8707278Y-896170D01*
X-8680290Y-921200D01*
X-8639979Y-960052D01*
X-8588471Y-1010643D01*
X-8527891Y-1070888D01*
X-8460364Y-1138704D01*
X-8405174Y-1194565D01*
X-8104276Y-1500129D01*
X-7925979Y-1500129D01*
X-7936249Y-1488411D01*
X-7957529Y-1461599D01*
X-7968749Y-1443808D01*
X-7971246Y-1435570D01*
X-7970300Y-1417590D01*
X-7967427Y-1376892D01*
X-7962813Y-1315819D01*
X-7956642Y-1236713D01*
X-7949102Y-1141914D01*
X-7940379Y-1033767D01*
X-7930657Y-914612D01*
X-7920124Y-786791D01*
X-7911635Y-684635D01*
X-7863604Y-108674D01*
X-7987195Y-108674D01*
X-7987727Y-121104D01*
X-7990231Y-156110D01*
X-7994504Y-211215D01*
X-8000347Y-283943D01*
X-8007557Y-371814D01*
X-8015934Y-472351D01*
X-8025277Y-583077D01*
X-8034242Y-688205D01*
X-8044398Y-807483D01*
X-8053858Y-920080D01*
X-8062404Y-1023305D01*
X-8069821Y-1114473D01*
X-8075892Y-1190895D01*
X-8080399Y-1249883D01*
X-8083127Y-1288749D01*
X-8083884Y-1303844D01*
X-8085065Y-1313238D01*
X-8089744Y-1316966D01*
X-8099724Y-1313471D01*
X-8116810Y-1301199D01*
X-8142804Y-1278594D01*
X-8179510Y-1244100D01*
X-8228733Y-1196162D01*
X-8292274Y-1133224D01*
X-8359695Y-1065968D01*
X-8635399Y-790477D01*
X-8633467Y-788406D01*
X-8815710Y-788406D01*
X-8824016Y-799780D01*
X-8847267Y-826563D01*
X-8883135Y-866292D01*
X-8929287Y-916507D01*
X-8983394Y-974746D01*
X-9043126Y-1038547D01*
X-9106152Y-1105449D01*
X-9170142Y-1172990D01*
X-9232764Y-1238710D01*
X-9291690Y-1300146D01*
X-9344588Y-1354837D01*
X-9389128Y-1400322D01*
X-9422980Y-1434138D01*
X-9443812Y-1453826D01*
X-9449494Y-1457837D01*
X-9451366Y-1444891D01*
X-9455254Y-1409134D01*
X-9460943Y-1352804D01*
X-9468219Y-1278140D01*
X-9476869Y-1187380D01*
X-9486678Y-1082762D01*
X-9497434Y-966526D01*
X-9508921Y-840908D01*
X-9518093Y-739618D01*
X-9529826Y-608279D01*
X-9540665Y-484552D01*
X-9550430Y-370681D01*
X-9558937Y-268911D01*
X-9566005Y-181487D01*
X-9571451Y-110653D01*
X-9575092Y-58653D01*
X-9576747Y-27732D01*
X-9576558Y-19703D01*
X-9566666Y-26854D01*
X-9541476Y-49841D01*
X-9503190Y-86439D01*
X-9454011Y-134422D01*
X-9396139Y-191566D01*
X-9331778Y-255647D01*
X-9263129Y-324438D01*
X-9192395Y-395716D01*
X-9121778Y-467255D01*
X-9053480Y-536830D01*
X-8989704Y-602217D01*
X-8932650Y-661191D01*
X-8884522Y-711527D01*
X-8847522Y-750999D01*
X-8823852Y-777383D01*
X-8815710Y-788406D01*
X-8633467Y-788406D01*
X-8532591Y-680295D01*
X-8480232Y-624377D01*
X-8421465Y-561948D01*
X-8358615Y-495443D01*
X-8294005Y-427298D01*
X-8229958Y-359948D01*
X-8168797Y-295828D01*
X-8112847Y-237372D01*
X-8064430Y-187018D01*
X-8025870Y-147198D01*
X-7999491Y-120350D01*
X-7987616Y-108908D01*
X-7987195Y-108674D01*
X-7863604Y-108674D01*
X-7851599Y35274D01*
X-7251062Y666842D01*
X-6650525Y1298411D01*
X-6650966Y1386685D01*
X-6651408Y1474960D01*
X-6748417Y1371334D01*
X-6802709Y1313537D01*
X-6866808Y1245632D01*
X-6938984Y1169428D01*
X-7017508Y1086731D01*
X-7100651Y999347D01*
X-7186681Y909085D01*
X-7273870Y817750D01*
X-7360487Y727151D01*
X-7444803Y639093D01*
X-7525088Y555385D01*
X-7599613Y477833D01*
X-7666646Y408243D01*
X-7724459Y348424D01*
X-7771321Y300182D01*
X-7805504Y265324D01*
X-7825276Y245657D01*
X-7829610Y241884D01*
X-7829908Y255008D01*
X-7828269Y288611D01*
X-7824977Y338120D01*
X-7820318Y398963D01*
X-7818318Y423268D01*
X-7803423Y601049D01*
X-7920045Y601049D01*
X-7926066Y572757D01*
X-7929137Y550382D01*
X-7933452Y508283D01*
X-7938512Y451822D01*
X-7943819Y386365D01*
X-7945656Y362138D01*
X-7951073Y292579D01*
X-7956541Y227982D01*
X-7961512Y174452D01*
X-7965439Y138090D01*
X-7966325Y131491D01*
X-7969666Y117944D01*
X-7976899Y102086D01*
X-7989560Y82139D01*
X-8009189Y56327D01*
X-8037322Y22871D01*
X-8075498Y-20007D01*
X-8125254Y-74083D01*
X-8188129Y-141136D01*
X-8265659Y-222943D01*
X-8344749Y-305950D01*
X-8423436Y-388094D01*
X-8496888Y-464169D01*
X-8563276Y-532325D01*
X-8620773Y-590712D01*
X-8667549Y-637481D01*
X-8701776Y-670782D01*
X-8721627Y-688767D01*
X-8725860Y-691442D01*
X-8736997Y-681741D01*
X-8763029Y-656441D01*
X-8801430Y-618082D01*
X-8849672Y-569200D01*
X-8905230Y-512334D01*
X-8945408Y-470906D01*
X-9155169Y-254000D01*
X-8536663Y-254000D01*
X-8536663Y-15089D01*
X-9291119Y-15089D01*
X-9291119Y-121542D01*
X-9429435Y16346D01*
X-9527553Y114160D01*
X-9718643Y114160D01*
X-9720471Y98730D01*
X-9729723Y90133D01*
X-9752050Y86387D01*
X-9793105Y85511D01*
X-9800376Y85505D01*
X-9882109Y85505D01*
X-9882109Y304828D01*
X-9800376Y223821D01*
X-9754270Y174572D01*
X-9726694Y136841D01*
X-9718643Y114160D01*
X-9527553Y114160D01*
X-9567752Y154234D01*
X-9567752Y277048D01*
X-9568137Y333550D01*
X-9569900Y369495D01*
X-9573950Y389470D01*
X-9581199Y398063D01*
X-9592130Y399861D01*
X-9604288Y402502D01*
X-9613273Y413088D01*
X-9620174Y435619D01*
X-9626076Y474091D01*
X-9632065Y532502D01*
X-9633987Y553896D01*
X-9638148Y601049D01*
X-7920045Y601049D01*
X-7803423Y601049D01*
X-7643891Y601049D01*
X-7643891Y714218D01*
X-7711686Y714218D01*
X-7751338Y715304D01*
X-7772884Y720546D01*
X-7775520Y723666D01*
X-7914384Y723666D01*
X-7921692Y716538D01*
X-7947007Y714338D01*
X-7964092Y714218D01*
X-8021119Y714218D01*
X-8233779Y714218D01*
X-9648302Y714218D01*
X-9600458Y763214D01*
X-9526150Y823676D01*
X-9434184Y870309D01*
X-9323002Y903751D01*
X-9212529Y922247D01*
X-9140227Y930878D01*
X-9140227Y839960D01*
X-8561812Y839960D01*
X-8561812Y943107D01*
X-8476935Y934504D01*
X-8417632Y927244D01*
X-8354449Y917621D01*
X-8316614Y910748D01*
X-8241168Y895593D01*
X-8237474Y804905D01*
X-8233779Y714218D01*
X-8021119Y714218D01*
X-8021119Y764515D01*
X-8019456Y796024D01*
X-8015303Y813537D01*
X-8013629Y814812D01*
X-7995013Y806746D01*
X-7967817Y787180D01*
X-7940552Y763056D01*
X-7921733Y741318D01*
X-7920057Y738492D01*
X-7914384Y723666D01*
X-7775520Y723666D01*
X-7783338Y732919D01*
X-7787558Y746396D01*
X-7804781Y781373D01*
X-7837862Y823421D01*
X-7881107Y866644D01*
X-7928826Y905146D01*
X-7960170Y925199D01*
X-7995877Y947149D01*
X-8014181Y965589D01*
X-8020612Y987332D01*
X-8021106Y1000282D01*
X-8021106Y1003425D01*
X-8662406Y1003425D01*
X-8662406Y940554D01*
X-9039633Y940554D01*
X-9039633Y1003425D01*
X-8662406Y1003425D01*
X-8021106Y1003425D01*
X-8021119Y1041148D01*
X-8126952Y1041148D01*
X-8175645Y1039971D01*
X-8213595Y1036835D01*
X-8234692Y1032329D01*
X-8236977Y1030505D01*
X-8250359Y1027705D01*
X-8282926Y1028852D01*
X-8329084Y1033607D01*
X-8360624Y1037997D01*
X-8417812Y1046622D01*
X-8470114Y1054409D01*
X-8509418Y1060153D01*
X-8520945Y1061785D01*
X-8551063Y1071112D01*
X-8561812Y1085728D01*
X-8565080Y1091680D01*
X-8576770Y1096222D01*
X-8599712Y1099530D01*
X-8636735Y1101785D01*
X-8690668Y1103166D01*
X-8764340Y1103850D01*
X-8851020Y1104020D01*
X-8943529Y1103923D01*
X-9013906Y1103470D01*
X-9065164Y1102410D01*
X-9100320Y1100497D01*
X-9122389Y1097481D01*
X-9134385Y1093115D01*
X-9139324Y1087151D01*
X-9140227Y1080216D01*
X-9147921Y1058205D01*
X-9173121Y1045679D01*
X-9219009Y1041212D01*
X-9227264Y1041148D01*
X-9304973Y1033132D01*
X-9393233Y1011064D01*
X-9484085Y977916D01*
X-9569570Y936661D01*
X-9641726Y890269D01*
X-9651072Y882918D01*
X-9681533Y859002D01*
X-9699572Y849424D01*
X-9712169Y852520D01*
X-9725100Y865296D01*
X-9763293Y890322D01*
X-9812998Y899929D01*
X-9866524Y894933D01*
X-9916178Y876149D01*
X-9954267Y844394D01*
X-9957025Y840703D01*
X-9985526Y781425D01*
X-9990828Y720066D01*
X-9973518Y661573D01*
X-9934180Y610896D01*
X-9929370Y606711D01*
X-9901440Y586833D01*
X-9873102Y578079D01*
X-9833263Y577447D01*
X-9823311Y578008D01*
X-9784332Y579438D01*
X-9764254Y576161D01*
X-9756985Y566272D01*
X-9756240Y557039D01*
X-9754716Y530256D01*
X-9750935Y489975D01*
X-9748218Y465876D01*
X-9744277Y427599D01*
X-9745916Y408004D01*
X-9755421Y400842D01*
X-9772351Y399861D01*
X-9782392Y403099D01*
X-9798590Y413580D01*
X-9822145Y432452D01*
X-9854257Y460865D01*
X-9896128Y499965D01*
X-9948957Y550903D01*
X-10013945Y614827D01*
X-10092291Y692886D01*
X-10185197Y786228D01*
X-10293863Y896002D01*
X-10346231Y949048D01*
X-10888049Y1498233D01*
X-10887430Y1411152D01*
D18*
X-19362057Y-4688114D02*
X-19797486Y-4688114D01*
X-19579772Y-5450114D02*
X-19579772Y-4688114D01*
X-20051486Y-5450114D02*
X-20051486Y-4688114D01*
X-20305486Y-5232400D01*
X-20559486Y-4688114D01*
X-20559486Y-5450114D01*
M02*
