G04 #@! TF.GenerationSoftware,KiCad,Pcbnew,(5.1.10-1-10_14)*
G04 #@! TF.CreationDate,2021-07-01T15:51:22+08:00*
G04 #@! TF.ProjectId,fst-01,6673742d-3031-42e6-9b69-6361645f7063,1.3*
G04 #@! TF.SameCoordinates,PX791ddc0PY5e69114*
G04 #@! TF.FileFunction,Copper,L1,Top*
G04 #@! TF.FilePolarity,Positive*
%FSLAX45Y45*%
G04 Gerber Fmt 4.5, Leading zero omitted, Abs format (unit mm)*
G04 Created by KiCad (PCBNEW (5.1.10-1-10_14)) date 2021-07-01 15:51:22*
%MOMM*%
%LPD*%
G01*
G04 APERTURE LIST*
G04 #@! TA.AperFunction,SMDPad,CuDef*
%ADD10R,0.800100X0.698500*%
G04 #@! TD*
G04 #@! TA.AperFunction,ComponentPad*
%ADD11R,1.524000X1.524000*%
G04 #@! TD*
G04 #@! TA.AperFunction,ComponentPad*
%ADD12C,1.524000*%
G04 #@! TD*
G04 #@! TA.AperFunction,SMDPad,CuDef*
%ADD13R,0.500380X0.398780*%
G04 #@! TD*
G04 #@! TA.AperFunction,SMDPad,CuDef*
%ADD14R,1.905000X1.905000*%
G04 #@! TD*
G04 #@! TA.AperFunction,SMDPad,CuDef*
%ADD15R,0.749300X0.299720*%
G04 #@! TD*
G04 #@! TA.AperFunction,SMDPad,CuDef*
%ADD16R,0.299720X0.749300*%
G04 #@! TD*
G04 #@! TA.AperFunction,SMDPad,CuDef*
%ADD17R,0.749300X0.500380*%
G04 #@! TD*
G04 #@! TA.AperFunction,SMDPad,CuDef*
%ADD18R,1.198880X0.548640*%
G04 #@! TD*
G04 #@! TA.AperFunction,SMDPad,CuDef*
%ADD19R,0.797560X0.797560*%
G04 #@! TD*
G04 #@! TA.AperFunction,SMDPad,CuDef*
%ADD20R,1.397000X1.193800*%
G04 #@! TD*
G04 #@! TA.AperFunction,SMDPad,CuDef*
%ADD21R,0.698500X0.800100*%
G04 #@! TD*
G04 #@! TA.AperFunction,SMDPad,CuDef*
%ADD22R,0.899160X1.000760*%
G04 #@! TD*
G04 #@! TA.AperFunction,ComponentPad*
%ADD23O,3.500120X1.501140*%
G04 #@! TD*
G04 #@! TA.AperFunction,ComponentPad*
%ADD24C,1.399540*%
G04 #@! TD*
G04 #@! TA.AperFunction,ComponentPad*
%ADD25C,1.518920*%
G04 #@! TD*
G04 #@! TA.AperFunction,ComponentPad*
%ADD26C,1.099820*%
G04 #@! TD*
G04 #@! TA.AperFunction,ViaPad*
%ADD27C,0.800100*%
G04 #@! TD*
G04 #@! TA.AperFunction,ViaPad*
%ADD28C,1.600000*%
G04 #@! TD*
G04 #@! TA.AperFunction,Conductor*
%ADD29C,0.200660*%
G04 #@! TD*
G04 #@! TA.AperFunction,Conductor*
%ADD30C,0.599440*%
G04 #@! TD*
G04 #@! TA.AperFunction,Conductor*
%ADD31C,0.400000*%
G04 #@! TD*
G04 #@! TA.AperFunction,Conductor*
%ADD32C,0.294640*%
G04 #@! TD*
G04 #@! TA.AperFunction,Conductor*
%ADD33C,0.500000*%
G04 #@! TD*
G04 #@! TA.AperFunction,Conductor*
%ADD34C,0.300000*%
G04 #@! TD*
G04 #@! TA.AperFunction,Conductor*
%ADD35C,0.248920*%
G04 #@! TD*
G04 #@! TA.AperFunction,Conductor*
%ADD36C,0.150000*%
G04 #@! TD*
G04 #@! TA.AperFunction,Conductor*
%ADD37C,0.254000*%
G04 #@! TD*
G04 APERTURE END LIST*
D10*
G04 #@! TO.P,R3,1*
G04 #@! TO.N,GND*
X-112535Y507875D03*
G04 #@! TO.P,R3,2*
G04 #@! TO.N,/BOOT0*
X-2807Y507875D03*
G04 #@! TD*
D11*
G04 #@! TO.P,K1,1*
G04 #@! TO.N,/BOOT0*
X177953Y507811D03*
D12*
G04 #@! TO.P,K1,2*
G04 #@! TO.N,/SWCLK*
X431953Y507811D03*
G04 #@! TO.P,K1,3*
G04 #@! TO.N,/SWDIO*
X685953Y507811D03*
G04 #@! TD*
D10*
G04 #@! TO.P,R2,1*
G04 #@! TO.N,/NRST*
X-456887Y145004D03*
G04 #@! TO.P,R2,2*
G04 #@! TO.N,+3V3*
X-566615Y145004D03*
G04 #@! TD*
D12*
G04 #@! TO.P,K3,1*
G04 #@! TO.N,/NRST*
X-840220Y-1121D03*
G04 #@! TO.P,K3,2*
G04 #@! TO.N,/PA2*
X-1094220Y-1121D03*
G04 #@! TD*
D13*
G04 #@! TO.P,U3,1*
G04 #@! TO.N,/D+*
X555244Y146304D03*
G04 #@! TO.P,U3,2*
G04 #@! TO.N,GND*
X555244Y81280D03*
G04 #@! TO.P,U3,3*
G04 #@! TO.N,/D-*
X555244Y16256D03*
G04 #@! TO.P,U3,4*
G04 #@! TO.N,/D-_PLUG*
X745236Y16256D03*
G04 #@! TO.P,U3,5*
G04 #@! TO.N,+3V3*
X745236Y81280D03*
G04 #@! TO.P,U3,6*
G04 #@! TO.N,/D+_PLUG*
X745236Y146304D03*
G04 #@! TD*
D14*
G04 #@! TO.P,U1,37*
G04 #@! TO.N,GND*
X-93980Y-66040D03*
X114300Y-66040D03*
X114300Y142240D03*
D15*
G04 #@! TO.P,U1,1*
G04 #@! TO.N,+3V3*
X-267462Y238252D03*
G04 #@! TO.P,U1,2*
G04 #@! TO.N,/OSC_IN*
X-267462Y188214D03*
G04 #@! TO.P,U1,3*
G04 #@! TO.N,/OSC_OUT*
X-267462Y138176D03*
G04 #@! TO.P,U1,4*
G04 #@! TO.N,/NRST*
X-267462Y88138D03*
G04 #@! TO.P,U1,5*
G04 #@! TO.N,GND*
X-267462Y38100D03*
G04 #@! TO.P,U1,6*
G04 #@! TO.N,+3V3*
X-267462Y-11938D03*
G04 #@! TO.P,U1,7*
G04 #@! TO.N,Net-(U1-Pad7)*
X-267462Y-61976D03*
G04 #@! TO.P,U1,8*
G04 #@! TO.N,Net-(U1-Pad8)*
X-267462Y-112014D03*
G04 #@! TO.P,U1,9*
G04 #@! TO.N,/PA2*
X-267462Y-162052D03*
D16*
G04 #@! TO.P,U1,10*
G04 #@! TO.N,Net-(U1-Pad10)*
X-189992Y-239522D03*
G04 #@! TO.P,U1,11*
G04 #@! TO.N,/NSS*
X-139954Y-239522D03*
G04 #@! TO.P,U1,12*
G04 #@! TO.N,/CLK*
X-89916Y-239522D03*
G04 #@! TO.P,U1,13*
G04 #@! TO.N,/MISO*
X-39878Y-239522D03*
G04 #@! TO.P,U1,14*
G04 #@! TO.N,/MOSI*
X10160Y-239522D03*
G04 #@! TO.P,U1,15*
G04 #@! TO.N,/LED*
X60198Y-239522D03*
G04 #@! TO.P,U1,16*
G04 #@! TO.N,Net-(U1-Pad16)*
X110236Y-239522D03*
G04 #@! TO.P,U1,17*
G04 #@! TO.N,GND*
X160274Y-239522D03*
G04 #@! TO.P,U1,18*
X210312Y-239522D03*
D15*
G04 #@! TO.P,U1,19*
G04 #@! TO.N,+3V3*
X287782Y-162052D03*
G04 #@! TO.P,U1,20*
G04 #@! TO.N,Net-(U1-Pad20)*
X287782Y-112014D03*
G04 #@! TO.P,U1,21*
G04 #@! TO.N,Net-(U1-Pad21)*
X287782Y-61976D03*
G04 #@! TO.P,U1,22*
G04 #@! TO.N,Net-(U1-Pad22)*
X287782Y-11938D03*
G04 #@! TO.P,U1,23*
G04 #@! TO.N,/D-*
X287782Y38100D03*
G04 #@! TO.P,U1,24*
G04 #@! TO.N,/D+*
X287782Y88138D03*
G04 #@! TO.P,U1,25*
G04 #@! TO.N,/SWDIO*
X287782Y138176D03*
G04 #@! TO.P,U1,26*
G04 #@! TO.N,GND*
X287782Y188214D03*
G04 #@! TO.P,U1,27*
G04 #@! TO.N,+3V3*
X287782Y238252D03*
D16*
G04 #@! TO.P,U1,28*
G04 #@! TO.N,/SWCLK*
X210312Y315722D03*
G04 #@! TO.P,U1,29*
G04 #@! TO.N,Net-(U1-Pad29)*
X160274Y315722D03*
G04 #@! TO.P,U1,30*
G04 #@! TO.N,Net-(U1-Pad30)*
X110236Y315722D03*
G04 #@! TO.P,U1,31*
G04 #@! TO.N,Net-(U1-Pad31)*
X60198Y315722D03*
G04 #@! TO.P,U1,32*
G04 #@! TO.N,Net-(U1-Pad32)*
X10160Y315722D03*
G04 #@! TO.P,U1,33*
G04 #@! TO.N,Net-(U1-Pad33)*
X-39878Y315722D03*
G04 #@! TO.P,U1,34*
G04 #@! TO.N,Net-(U1-Pad34)*
X-89916Y315722D03*
G04 #@! TO.P,U1,35*
G04 #@! TO.N,/BOOT0*
X-139954Y315722D03*
G04 #@! TO.P,U1,36*
G04 #@! TO.N,GND*
X-189992Y315722D03*
D14*
G04 #@! TO.P,U1,37*
X-93980Y142240D03*
G04 #@! TD*
D17*
G04 #@! TO.P,U4,7*
G04 #@! TO.N,+3V3*
X-486918Y-317500D03*
G04 #@! TO.P,U4,8*
X-486918Y-190500D03*
G04 #@! TO.P,U4,6*
G04 #@! TO.N,/CLK*
X-486918Y-444500D03*
G04 #@! TO.P,U4,1*
G04 #@! TO.N,/NSS*
X-1011682Y-190500D03*
G04 #@! TO.P,U4,2*
G04 #@! TO.N,/MISO*
X-1011682Y-317500D03*
G04 #@! TO.P,U4,3*
G04 #@! TO.N,GND*
X-1011682Y-444500D03*
G04 #@! TO.P,U4,4*
X-1011682Y-571500D03*
G04 #@! TO.P,U4,5*
G04 #@! TO.N,/MOSI*
X-486918Y-571500D03*
G04 #@! TD*
D18*
G04 #@! TO.P,U2,1*
G04 #@! TO.N,/VBUS*
X703834Y-412496D03*
G04 #@! TO.P,U2,2*
G04 #@! TO.N,GND*
X703834Y-317500D03*
G04 #@! TO.P,U2,3*
G04 #@! TO.N,/VBUS*
X703834Y-222504D03*
G04 #@! TO.P,U2,4*
G04 #@! TO.N,Net-(C9-Pad1)*
X444246Y-222504D03*
G04 #@! TO.P,U2,5*
G04 #@! TO.N,+3V3*
X444040Y-412500D03*
G04 #@! TD*
D19*
G04 #@! TO.P,D1,2*
G04 #@! TO.N,Net-(D1-Pad2)*
X77470Y-568960D03*
G04 #@! TO.P,D1,1*
G04 #@! TO.N,GND*
X227330Y-568960D03*
G04 #@! TD*
D20*
G04 #@! TO.P,X1,2*
G04 #@! TO.N,/OSC_OUT*
X-732282Y372110D03*
G04 #@! TO.P,X1,3*
G04 #@! TO.N,GND*
X-732282Y542290D03*
G04 #@! TO.P,X1,1*
G04 #@! TO.N,/OSC_IN*
X-512318Y542290D03*
G04 #@! TO.P,X1,3*
G04 #@! TO.N,GND*
X-512318Y372110D03*
G04 #@! TD*
D21*
G04 #@! TO.P,C11,1*
G04 #@! TO.N,GND*
X-1143000Y-567944D03*
G04 #@! TO.P,C11,2*
G04 #@! TO.N,+3V3*
X-1143000Y-458216D03*
G04 #@! TD*
D10*
G04 #@! TO.P,C9,1*
G04 #@! TO.N,Net-(C9-Pad1)*
X453136Y-116840D03*
G04 #@! TO.P,C9,2*
G04 #@! TO.N,GND*
X562864Y-116840D03*
G04 #@! TD*
D21*
G04 #@! TO.P,C2,1*
G04 #@! TO.N,/OSC_OUT*
X-873760Y402336D03*
G04 #@! TO.P,C2,2*
G04 #@! TO.N,GND*
X-873760Y512064D03*
G04 #@! TD*
D10*
G04 #@! TO.P,C4,1*
G04 #@! TO.N,GND*
X-567944Y0D03*
G04 #@! TO.P,C4,2*
G04 #@! TO.N,+3V3*
X-458216Y0D03*
G04 #@! TD*
G04 #@! TO.P,C5,1*
G04 #@! TO.N,GND*
X-232485Y444890D03*
G04 #@! TO.P,C5,2*
G04 #@! TO.N,+3V3*
X-342213Y444890D03*
G04 #@! TD*
G04 #@! TO.P,C6,1*
G04 #@! TO.N,GND*
X186436Y-355600D03*
G04 #@! TO.P,C6,2*
G04 #@! TO.N,+3V3*
X296164Y-355600D03*
G04 #@! TD*
D21*
G04 #@! TO.P,C7,1*
G04 #@! TO.N,GND*
X408940Y209296D03*
G04 #@! TO.P,C7,2*
G04 #@! TO.N,+3V3*
X408940Y319024D03*
G04 #@! TD*
D10*
G04 #@! TO.P,C1,1*
G04 #@! TO.N,/OSC_IN*
X-342213Y575329D03*
G04 #@! TO.P,C1,2*
G04 #@! TO.N,GND*
X-232485Y575329D03*
G04 #@! TD*
G04 #@! TO.P,R1,1*
G04 #@! TO.N,Net-(D1-Pad2)*
X-49276Y-574040D03*
G04 #@! TO.P,R1,2*
G04 #@! TO.N,/LED*
X-159004Y-574040D03*
G04 #@! TD*
D22*
G04 #@! TO.P,C8,1*
G04 #@! TO.N,+3V3*
X356616Y-558800D03*
G04 #@! TO.P,C8,2*
G04 #@! TO.N,GND*
X506984Y-558800D03*
G04 #@! TD*
G04 #@! TO.P,C10,1*
G04 #@! TO.N,/VBUS*
X786384Y-558800D03*
G04 #@! TO.P,C10,2*
G04 #@! TO.N,GND*
X636016Y-558800D03*
G04 #@! TD*
D23*
G04 #@! TO.P,J1,5*
G04 #@! TO.N,GND*
X1099058Y569976D03*
X1099058Y-569976D03*
D24*
G04 #@! TO.P,J1,3*
G04 #@! TO.N,/D+_PLUG*
X889000Y-100076D03*
G04 #@! TO.P,J1,2*
G04 #@! TO.N,/D-_PLUG*
X889000Y100076D03*
D25*
G04 #@! TO.P,J1,4*
G04 #@! TO.N,GND*
X889000Y-350012D03*
G04 #@! TO.P,J1,1*
G04 #@! TO.N,/VBUS*
X889000Y350012D03*
D26*
G04 #@! TO.P,J1,7*
G04 #@! TO.N,N/C*
X1099058Y-225044D03*
G04 #@! TO.P,J1,8*
X1099058Y225044D03*
G04 #@! TD*
D11*
G04 #@! TO.P,K2,1*
G04 #@! TO.N,GND*
X-1092979Y254000D03*
G04 #@! TO.P,K2,2*
G04 #@! TO.N,+3V3*
X-1092979Y508000D03*
G04 #@! TD*
D27*
G04 #@! TO.N,/NRST*
X-718059Y234541D03*
G04 #@! TO.N,GND*
X-868594Y-450302D03*
X111760Y139700D03*
X111760Y-63500D03*
X-91440Y-63500D03*
X-91440Y139700D03*
X153333Y-478158D03*
D28*
X-1397520Y-508000D03*
X-1397000Y508000D03*
D27*
X635000Y254000D03*
G04 #@! TO.N,+3V3*
X297180Y320040D03*
X436880Y-314960D03*
X-614680Y-203200D03*
X320040Y-452120D03*
X-283211Y321902D03*
X-365252Y-32512D03*
G04 #@! TD*
D29*
G04 #@! TO.N,/CLK*
X-89916Y-358394D02*
X-116840Y-385318D01*
X-116840Y-385318D02*
X-232918Y-385318D01*
X-232918Y-385318D02*
X-292100Y-444500D01*
X-292100Y-444500D02*
X-486918Y-444500D01*
X-89916Y-239522D02*
X-89916Y-358394D01*
G04 #@! TO.N,/D+*
X532384Y146304D02*
X474218Y88138D01*
X474218Y88138D02*
X287782Y88138D01*
X555244Y146304D02*
X532384Y146304D01*
G04 #@! TO.N,/D+_PLUG*
X781304Y146304D02*
X840740Y205740D01*
X840740Y205740D02*
X934720Y205740D01*
X934720Y205740D02*
X993140Y147320D01*
X993140Y147320D02*
X993140Y4064D01*
X993140Y4064D02*
X889000Y-100076D01*
X745236Y146304D02*
X781304Y146304D01*
G04 #@! TO.N,/D-*
X485140Y38100D02*
X506984Y16256D01*
X506984Y16256D02*
X555244Y16256D01*
X287782Y38100D02*
X485140Y38100D01*
G04 #@! TO.N,/D-_PLUG*
X805180Y16256D02*
X889000Y100076D01*
X745236Y16256D02*
X805180Y16256D01*
G04 #@! TO.N,/LED*
X60198Y-447802D02*
X0Y-508000D01*
X0Y-508000D02*
X-139700Y-508000D01*
X-139700Y-508000D02*
X-159004Y-527304D01*
X-159004Y-527304D02*
X-159004Y-574040D01*
X60198Y-239522D02*
X60198Y-447802D01*
G04 #@! TO.N,/MISO*
X-39878Y-420370D02*
X-45720Y-426212D01*
X-45720Y-426212D02*
X-212852Y-426212D01*
X-212852Y-426212D02*
X-294640Y-508000D01*
X-294640Y-508000D02*
X-553720Y-508000D01*
X-553720Y-508000D02*
X-744220Y-317500D01*
X-744220Y-317500D02*
X-1011682Y-317500D01*
X-39878Y-239522D02*
X-39878Y-420370D01*
G04 #@! TO.N,/MOSI*
X10160Y-434340D02*
X-22606Y-467106D01*
X-22606Y-467106D02*
X-182626Y-467106D01*
X-182626Y-467106D02*
X-287020Y-571500D01*
X-287020Y-571500D02*
X-486918Y-571500D01*
X10160Y-239522D02*
X10160Y-434340D01*
G04 #@! TO.N,/NRST*
X-352298Y88138D02*
X-406400Y142240D01*
X-406400Y142240D02*
X-448056Y142240D01*
X-448056Y142240D02*
X-458216Y152400D01*
X-267462Y88138D02*
X-352298Y88138D01*
X-456887Y199995D02*
X-473315Y216423D01*
X-456887Y145004D02*
X-456887Y199995D01*
X-699941Y216423D02*
X-718059Y234541D01*
X-473315Y216423D02*
X-699941Y216423D01*
G04 #@! TO.N,/NSS*
X-139954Y-306578D02*
X-173736Y-340360D01*
X-173736Y-340360D02*
X-365760Y-340360D01*
X-365760Y-340360D02*
X-406400Y-381000D01*
X-406400Y-381000D02*
X-619760Y-381000D01*
X-619760Y-381000D02*
X-810260Y-190500D01*
X-810260Y-190500D02*
X-1011682Y-190500D01*
X-139954Y-239522D02*
X-139954Y-306578D01*
G04 #@! TO.N,/OSC_IN*
X-512318Y542290D02*
X-491490Y542290D01*
X-498780Y542290D02*
X-512318Y542290D01*
X-314232Y188214D02*
X-267462Y188214D01*
X-422402Y542290D02*
X-412317Y532205D01*
X-412317Y286300D02*
X-314232Y188214D01*
X-412317Y532205D02*
X-412317Y286300D01*
X-512318Y542290D02*
X-422402Y542290D01*
X-369193Y575329D02*
X-412317Y532205D01*
X-342213Y575329D02*
X-369193Y575329D01*
G04 #@! TO.N,/OSC_OUT*
X-715010Y372110D02*
X-728980Y386080D01*
X-728980Y386080D02*
X-728980Y365760D01*
X-732282Y372110D02*
X-715010Y372110D01*
X-759968Y402336D02*
X-732282Y372110D01*
X-873760Y402336D02*
X-759968Y402336D01*
X-439331Y256556D02*
X-616728Y256556D01*
X-386783Y204008D02*
X-439331Y256556D01*
X-616728Y256556D02*
X-732282Y372110D01*
X-341376Y138176D02*
X-267462Y138176D01*
X-386783Y183583D02*
X-386783Y204008D01*
X-341376Y138176D02*
X-386783Y183583D01*
G04 #@! TO.N,/PA2*
X-267462Y-162052D02*
X-335788Y-162052D01*
X-979170Y113030D02*
X-1092200Y0D01*
X-791210Y113030D02*
X-979170Y113030D01*
X-725170Y46990D02*
X-791210Y113030D01*
X-725170Y-39370D02*
X-725170Y46990D01*
X-395224Y-102616D02*
X-335788Y-162052D01*
X-661924Y-102616D02*
X-395224Y-102616D01*
X-725170Y-39370D02*
X-661924Y-102616D01*
D30*
G04 #@! TO.N,/VBUS*
X768096Y-412496D02*
X833120Y-477520D01*
X833120Y-477520D02*
X904240Y-477520D01*
X705866Y-412496D02*
X768096Y-412496D01*
X792480Y-558800D02*
X828040Y-523240D01*
X828040Y-523240D02*
X878840Y-523240D01*
X786384Y-558800D02*
X792480Y-558800D01*
X768096Y-412496D02*
X705866Y-412496D01*
X786384Y-430784D02*
X768096Y-412496D01*
X786384Y-558800D02*
X786384Y-430784D01*
D29*
X768096Y-412496D02*
X705866Y-412496D01*
X942594Y-222504D02*
X1018540Y-298450D01*
X1018540Y-298450D02*
X1018540Y-429260D01*
X1018540Y-429260D02*
X985520Y-462280D01*
X985520Y-462280D02*
X817880Y-462280D01*
X817880Y-462280D02*
X768096Y-412496D01*
X705866Y-222504D02*
X942594Y-222504D01*
G04 #@! TO.N,GND*
X-267462Y38100D02*
X-208120Y38100D01*
X-208120Y38100D02*
X-103980Y-66040D01*
D30*
X565230Y-313770D02*
X565230Y-456230D01*
X565230Y-456230D02*
X636016Y-527016D01*
X636016Y-527016D02*
X636016Y-558800D01*
D29*
X-1015238Y-567944D02*
X-1011682Y-564388D01*
D31*
X-1011682Y-564388D02*
X-1011682Y-444500D01*
D29*
X-1143000Y-567944D02*
X-1015238Y-567944D01*
X-363220Y38100D02*
X-396240Y71120D01*
X-396240Y71120D02*
X-568960Y71120D01*
X-568960Y71120D02*
X-567944Y72136D01*
X-267462Y38100D02*
X-363220Y38100D01*
X-567944Y0D02*
X-567944Y72136D01*
X160274Y-329438D02*
X186436Y-355600D01*
X160274Y-239522D02*
X160274Y-329438D01*
X210312Y-331724D02*
X186436Y-355600D01*
X210312Y-239522D02*
X210312Y-331724D01*
X-759968Y512064D02*
X-732282Y542290D01*
X-873760Y512064D02*
X-759968Y512064D01*
X-720090Y542290D02*
X-635000Y457200D01*
X-635000Y457200D02*
X-609600Y457200D01*
X-609600Y457200D02*
X-524510Y372110D01*
X-524510Y372110D02*
X-512318Y372110D01*
X-732282Y542290D02*
X-707390Y542290D01*
D30*
X856488Y-317500D02*
X889000Y-350012D01*
X705866Y-317500D02*
X856488Y-317500D01*
X562864Y-311404D02*
X565230Y-313770D01*
X565230Y-313770D02*
X568960Y-317500D01*
X568960Y-317500D02*
X705866Y-317500D01*
X562864Y-116840D02*
X562864Y-311404D01*
D32*
X387858Y188214D02*
X408940Y209296D01*
X287782Y188214D02*
X387858Y188214D01*
X287782Y188214D02*
X160274Y188214D01*
X-68580Y210820D02*
X-26000Y210000D01*
X-190500Y210820D02*
X-68580Y210820D01*
X-139954Y188214D02*
X-141000Y70000D01*
X160274Y-239522D02*
X160274Y-112014D01*
X210000Y-130000D02*
X54000Y-130000D01*
X210312Y-162052D02*
X210000Y-130000D01*
X210312Y-239522D02*
X210312Y-162052D01*
X177800Y619760D02*
X187960Y619760D01*
X187960Y619760D02*
X741680Y619760D01*
X741680Y619760D02*
X797560Y563880D01*
X797560Y563880D02*
X797560Y436880D01*
X797560Y436880D02*
X619760Y259080D01*
X619760Y259080D02*
X619760Y86360D01*
X619760Y86360D02*
X614680Y81280D01*
X614680Y81280D02*
X555244Y81280D01*
X40640Y619760D02*
X177800Y619760D01*
X1092962Y563880D02*
X1099058Y569976D01*
D33*
X797560Y563880D02*
X1092962Y563880D01*
D32*
X-189992Y315722D02*
X-190500Y210820D01*
D34*
X-97012Y619760D02*
X40640Y619760D01*
D29*
X-97851Y486048D02*
X-97477Y486422D01*
D32*
X-214893Y573371D02*
X-216529Y575007D01*
D34*
X-127984Y619760D02*
X-97012Y619760D01*
X-172414Y575329D02*
X-127984Y619760D01*
X-232485Y575329D02*
X-172414Y575329D01*
D29*
X-172414Y575329D02*
X-164806Y575329D01*
D34*
X-232485Y575329D02*
X-232485Y444890D01*
D32*
X-189992Y402397D02*
X-232485Y444890D01*
X-189992Y315722D02*
X-189992Y402397D01*
X-175520Y444890D02*
X-112535Y507875D01*
X-232485Y444890D02*
X-175520Y444890D01*
X-112535Y515450D02*
X-172414Y575329D01*
X-112535Y507875D02*
X-112535Y515450D01*
D31*
X-874397Y-444500D02*
X-868594Y-450302D01*
X-1011682Y-444500D02*
X-874397Y-444500D01*
X186436Y-528066D02*
X227330Y-568960D01*
X186436Y-355600D02*
X186436Y-448564D01*
X186436Y-448564D02*
X186436Y-528066D01*
D29*
G04 #@! TO.N,+3V3*
X745236Y81280D02*
X680280Y81280D01*
X376948Y-162052D02*
X287782Y-162052D01*
X379000Y-160000D02*
X376948Y-162052D01*
X379000Y-60000D02*
X379000Y-160000D01*
X399000Y-40000D02*
X379000Y-60000D01*
X639000Y-40000D02*
X399000Y-40000D01*
X649000Y-30000D02*
X639000Y-40000D01*
X649000Y50000D02*
X649000Y-30000D01*
X680280Y81280D02*
X649000Y50000D01*
D32*
X-486918Y-317500D02*
X-486918Y-190500D01*
X271272Y-330708D02*
X296164Y-355600D01*
X271272Y-163322D02*
X271272Y-330708D01*
X332232Y-162052D02*
X345440Y-175260D01*
X345440Y-175260D02*
X345440Y-276860D01*
X345440Y-276860D02*
X375920Y-307340D01*
X375920Y-307340D02*
X415798Y-307340D01*
X415798Y-307340D02*
X442214Y-334518D01*
X442214Y-334518D02*
X442214Y-412496D01*
X287782Y-162052D02*
X332232Y-162052D01*
D30*
X303276Y-412496D02*
X296164Y-405384D01*
X296164Y-405384D02*
X296164Y-355600D01*
X442214Y-412496D02*
X303276Y-412496D01*
X356616Y-416052D02*
X360172Y-412496D01*
X360172Y-412496D02*
X442214Y-412496D01*
X356616Y-558800D02*
X356616Y-416052D01*
X280162Y319532D02*
X408940Y319024D01*
X442214Y-355854D02*
X436880Y-314960D01*
X442214Y-412496D02*
X442214Y-355854D01*
X-614680Y-203200D02*
X-601980Y-190500D01*
X356616Y-448564D02*
X320040Y-452120D01*
X-601980Y-190500D02*
X-486918Y-190500D01*
X356616Y-558800D02*
X356616Y-448564D01*
D32*
X327406Y238252D02*
X329692Y240284D01*
X329692Y240284D02*
X329692Y308864D01*
X329692Y308864D02*
X339852Y319024D01*
X339852Y319024D02*
X408940Y319024D01*
X287782Y238252D02*
X327406Y238252D01*
X286512Y238252D02*
X264922Y238252D01*
X264922Y238252D02*
X264922Y322072D01*
X264922Y322072D02*
X267970Y322580D01*
X267970Y322580D02*
X297180Y320040D01*
X287782Y238252D02*
X286512Y238252D01*
X356616Y-448564D02*
X356616Y-558800D01*
D30*
X-364744Y-32512D02*
X-365252Y-32512D01*
D29*
X-344170Y-11938D02*
X-364744Y-32512D01*
X-267462Y-11938D02*
X-344170Y-11938D01*
D32*
X-446278Y-11938D02*
X-458216Y0D01*
X-267462Y-11938D02*
X-446278Y-11938D01*
X-1122680Y-426720D02*
X-1143000Y-458216D01*
X-1122680Y-152400D02*
X-1122680Y-426720D01*
X-1092200Y-121920D02*
X-1122680Y-152400D01*
X-787400Y-121920D02*
X-1092200Y-121920D01*
X-486918Y-190500D02*
X-718820Y-190500D01*
X-718820Y-190500D02*
X-787400Y-121920D01*
D34*
X-342213Y380904D02*
X-283211Y321902D01*
D29*
X-283211Y254001D02*
X-267462Y238252D01*
D34*
X-283211Y321902D02*
X-283211Y254001D01*
X-342213Y380904D02*
X-342213Y444890D01*
D29*
X-745536Y145004D02*
X-570536Y145004D01*
X-570536Y145004D02*
X-566615Y145004D01*
X-1092979Y492447D02*
X-745536Y145004D01*
X-1092979Y508000D02*
X-1092979Y492447D01*
G04 #@! TO.N,Net-(C9-Pad1)*
X453136Y-211582D02*
X442214Y-222504D01*
X453136Y-116840D02*
X453136Y-211582D01*
G04 #@! TO.N,Net-(D1-Pad2)*
X72390Y-574040D02*
X77470Y-568960D01*
X-49276Y-574040D02*
X72390Y-574040D01*
G04 #@! TO.N,/SWCLK*
X210312Y388112D02*
X215900Y393700D01*
X215900Y393700D02*
X317500Y393700D01*
X317500Y393700D02*
X431800Y508000D01*
X210312Y315722D02*
X210312Y388112D01*
G04 #@! TO.N,/SWDIO*
X460756Y138176D02*
X476250Y153670D01*
X476250Y153670D02*
X476250Y384810D01*
X476250Y384810D02*
X599440Y508000D01*
X599440Y508000D02*
X685800Y508000D01*
X287782Y138176D02*
X460756Y138176D01*
G04 #@! TO.N,/BOOT0*
X156563Y486422D02*
X177953Y507811D01*
X-70356Y442851D02*
X-48451Y442851D01*
X-48451Y442851D02*
X-2807Y488494D01*
X-139954Y373253D02*
X-70356Y442851D01*
X-2807Y488494D02*
X-2807Y507875D01*
X-139954Y315722D02*
X-139954Y373253D01*
X177889Y507875D02*
X177953Y507811D01*
X-2807Y507875D02*
X177889Y507875D01*
G04 #@! TD*
D35*
G04 #@! TO.N,GND*
X-864463Y614378D02*
X-865684Y601980D01*
X-865378Y571056D01*
X-860806Y566484D01*
X-860806Y525018D01*
X-858806Y525018D01*
X-858806Y520096D01*
X-865378Y513524D01*
X-865540Y497110D01*
X-886714Y497110D01*
X-886714Y499110D01*
X-956119Y499110D01*
X-971931Y483298D01*
X-972237Y472059D01*
X-971016Y459661D01*
X-967399Y447739D01*
X-961527Y436751D01*
X-953623Y427121D01*
X-943993Y419217D01*
X-941354Y417807D01*
X-941354Y400990D01*
X-984110Y443745D01*
X-984110Y552069D01*
X-972237Y552069D01*
X-971931Y540830D01*
X-956119Y525018D01*
X-886714Y525018D01*
X-886714Y599504D01*
X-902525Y615315D01*
X-908685Y615621D01*
X-921083Y614400D01*
X-933005Y610783D01*
X-943993Y604911D01*
X-953623Y597007D01*
X-961527Y587377D01*
X-967399Y576389D01*
X-971016Y564467D01*
X-972237Y552069D01*
X-984110Y552069D01*
X-984110Y584200D01*
X-984737Y590574D01*
X-986596Y596702D01*
X-989615Y602350D01*
X-993678Y607301D01*
X-998629Y611364D01*
X-1004277Y614383D01*
X-1010405Y616242D01*
X-1016779Y616869D01*
X-1169179Y616869D01*
X-1175553Y616242D01*
X-1181681Y614383D01*
X-1187329Y611364D01*
X-1192280Y607301D01*
X-1196343Y602350D01*
X-1199362Y596702D01*
X-1201221Y590574D01*
X-1201848Y584200D01*
X-1201848Y431800D01*
X-1201221Y425426D01*
X-1199362Y419298D01*
X-1196343Y413650D01*
X-1192280Y408699D01*
X-1187329Y404636D01*
X-1181681Y401617D01*
X-1175553Y399758D01*
X-1169179Y399131D01*
X-1059831Y399131D01*
X-1054211Y393510D01*
X-1064214Y393446D01*
X-1080025Y377634D01*
X-1080025Y266954D01*
X-969344Y266954D01*
X-953533Y282766D01*
X-953468Y292768D01*
X-816275Y155575D01*
X-957429Y155575D01*
X-954448Y165402D01*
X-953227Y177800D01*
X-953533Y225234D01*
X-969344Y241046D01*
X-1080025Y241046D01*
X-1080025Y130365D01*
X-1064214Y114554D01*
X-1037983Y114385D01*
X-1052925Y99443D01*
X-1062510Y103413D01*
X-1083513Y107591D01*
X-1104928Y107591D01*
X-1125930Y103413D01*
X-1145715Y95218D01*
X-1163520Y83321D01*
X-1178662Y68179D01*
X-1190560Y50373D01*
X-1198755Y30589D01*
X-1202932Y9586D01*
X-1202932Y-11828D01*
X-1198755Y-32831D01*
X-1190560Y-52615D01*
X-1178662Y-70421D01*
X-1163520Y-85563D01*
X-1145715Y-97460D01*
X-1137822Y-100729D01*
X-1154446Y-117353D01*
X-1156248Y-118832D01*
X-1162152Y-126026D01*
X-1166539Y-134233D01*
X-1169240Y-143139D01*
X-1169924Y-150080D01*
X-1169924Y-150081D01*
X-1170152Y-152400D01*
X-1169924Y-154719D01*
X-1169924Y-385542D01*
X-1177925Y-385542D01*
X-1184299Y-386169D01*
X-1190427Y-388028D01*
X-1196075Y-391047D01*
X-1201026Y-395110D01*
X-1205089Y-400061D01*
X-1208108Y-405709D01*
X-1209967Y-411837D01*
X-1210594Y-418211D01*
X-1210594Y-473687D01*
X-1213233Y-475097D01*
X-1222863Y-483001D01*
X-1230767Y-492631D01*
X-1236639Y-503619D01*
X-1240256Y-515541D01*
X-1241477Y-527939D01*
X-1241171Y-539179D01*
X-1225360Y-554990D01*
X-1155954Y-554990D01*
X-1155954Y-552990D01*
X-1130046Y-552990D01*
X-1130046Y-554990D01*
X-1100519Y-554990D01*
X-1096582Y-558927D01*
X-1024636Y-558927D01*
X-1024636Y-457073D01*
X-998728Y-457073D01*
X-998728Y-558927D01*
X-926782Y-558927D01*
X-910971Y-543116D01*
X-912206Y-532569D01*
X-916112Y-520738D01*
X-922251Y-509897D01*
X-923887Y-508000D01*
X-922251Y-506103D01*
X-916112Y-495262D01*
X-912206Y-483431D01*
X-910971Y-472884D01*
X-926782Y-457073D01*
X-998728Y-457073D01*
X-1024636Y-457073D01*
X-1026636Y-457073D01*
X-1026636Y-431927D01*
X-1024636Y-431927D01*
X-1024636Y-429546D01*
X-998728Y-429546D01*
X-998728Y-431927D01*
X-926782Y-431927D01*
X-910971Y-416115D01*
X-912206Y-405569D01*
X-916112Y-393738D01*
X-922251Y-382897D01*
X-930386Y-373462D01*
X-940206Y-365795D01*
X-948028Y-361856D01*
X-947053Y-360669D01*
X-946720Y-360045D01*
X-761843Y-360045D01*
X-585282Y-536606D01*
X-583949Y-538229D01*
X-577471Y-543546D01*
X-570080Y-547497D01*
X-562060Y-549929D01*
X-557052Y-550423D01*
X-557052Y-596519D01*
X-556425Y-602893D01*
X-554566Y-609021D01*
X-551547Y-614669D01*
X-547484Y-619620D01*
X-546539Y-620395D01*
X-915496Y-620395D01*
X-912206Y-610431D01*
X-910971Y-599885D01*
X-926782Y-584073D01*
X-998728Y-584073D01*
X-998728Y-586454D01*
X-1024636Y-586454D01*
X-1024636Y-584073D01*
X-1057466Y-584073D01*
X-1060641Y-580898D01*
X-1130046Y-580898D01*
X-1130046Y-582898D01*
X-1155954Y-582898D01*
X-1155954Y-580898D01*
X-1225360Y-580898D01*
X-1241171Y-596710D01*
X-1241477Y-607949D01*
X-1240256Y-620347D01*
X-1240242Y-620395D01*
X-1486535Y-620395D01*
X-1486535Y-418465D01*
X-1271840Y-418465D01*
X-1270000Y-418646D01*
X-1262656Y-417923D01*
X-1255593Y-415781D01*
X-1249085Y-412302D01*
X-1243380Y-407620D01*
X-1238698Y-401915D01*
X-1235219Y-395407D01*
X-1233077Y-388344D01*
X-1232535Y-382840D01*
X-1232354Y-381000D01*
X-1232535Y-379160D01*
X-1232535Y175810D01*
X-1231510Y165402D01*
X-1227893Y153480D01*
X-1222021Y142492D01*
X-1214117Y132862D01*
X-1204487Y124958D01*
X-1193499Y119086D01*
X-1181577Y115469D01*
X-1169179Y114248D01*
X-1121745Y114554D01*
X-1105933Y130365D01*
X-1105933Y241046D01*
X-1216614Y241046D01*
X-1232425Y225234D01*
X-1232535Y208183D01*
X-1232535Y299821D01*
X-1232425Y282766D01*
X-1216614Y266954D01*
X-1105933Y266954D01*
X-1105933Y377634D01*
X-1121745Y393446D01*
X-1169179Y393752D01*
X-1181577Y392531D01*
X-1193499Y388914D01*
X-1204487Y383042D01*
X-1214117Y375138D01*
X-1222021Y365508D01*
X-1227893Y354520D01*
X-1231510Y342598D01*
X-1232535Y332190D01*
X-1232535Y379160D01*
X-1232354Y381000D01*
X-1233077Y388344D01*
X-1235219Y395407D01*
X-1238698Y401915D01*
X-1243380Y407620D01*
X-1249085Y412302D01*
X-1255593Y415781D01*
X-1262656Y417923D01*
X-1268160Y418465D01*
X-1268160Y418465D01*
X-1270000Y418646D01*
X-1271840Y418465D01*
X-1486535Y418465D01*
X-1486535Y619633D01*
X-862869Y619633D01*
X-864463Y614378D01*
G04 #@! TA.AperFunction,Conductor*
D36*
G36*
X-864463Y614378D02*
G01*
X-865684Y601980D01*
X-865378Y571056D01*
X-860806Y566484D01*
X-860806Y525018D01*
X-858806Y525018D01*
X-858806Y520096D01*
X-865378Y513524D01*
X-865540Y497110D01*
X-886714Y497110D01*
X-886714Y499110D01*
X-956119Y499110D01*
X-971931Y483298D01*
X-972237Y472059D01*
X-971016Y459661D01*
X-967399Y447739D01*
X-961527Y436751D01*
X-953623Y427121D01*
X-943993Y419217D01*
X-941354Y417807D01*
X-941354Y400990D01*
X-984110Y443745D01*
X-984110Y552069D01*
X-972237Y552069D01*
X-971931Y540830D01*
X-956119Y525018D01*
X-886714Y525018D01*
X-886714Y599504D01*
X-902525Y615315D01*
X-908685Y615621D01*
X-921083Y614400D01*
X-933005Y610783D01*
X-943993Y604911D01*
X-953623Y597007D01*
X-961527Y587377D01*
X-967399Y576389D01*
X-971016Y564467D01*
X-972237Y552069D01*
X-984110Y552069D01*
X-984110Y584200D01*
X-984737Y590574D01*
X-986596Y596702D01*
X-989615Y602350D01*
X-993678Y607301D01*
X-998629Y611364D01*
X-1004277Y614383D01*
X-1010405Y616242D01*
X-1016779Y616869D01*
X-1169179Y616869D01*
X-1175553Y616242D01*
X-1181681Y614383D01*
X-1187329Y611364D01*
X-1192280Y607301D01*
X-1196343Y602350D01*
X-1199362Y596702D01*
X-1201221Y590574D01*
X-1201848Y584200D01*
X-1201848Y431800D01*
X-1201221Y425426D01*
X-1199362Y419298D01*
X-1196343Y413650D01*
X-1192280Y408699D01*
X-1187329Y404636D01*
X-1181681Y401617D01*
X-1175553Y399758D01*
X-1169179Y399131D01*
X-1059831Y399131D01*
X-1054211Y393510D01*
X-1064214Y393446D01*
X-1080025Y377634D01*
X-1080025Y266954D01*
X-969344Y266954D01*
X-953533Y282766D01*
X-953468Y292768D01*
X-816275Y155575D01*
X-957429Y155575D01*
X-954448Y165402D01*
X-953227Y177800D01*
X-953533Y225234D01*
X-969344Y241046D01*
X-1080025Y241046D01*
X-1080025Y130365D01*
X-1064214Y114554D01*
X-1037983Y114385D01*
X-1052925Y99443D01*
X-1062510Y103413D01*
X-1083513Y107591D01*
X-1104928Y107591D01*
X-1125930Y103413D01*
X-1145715Y95218D01*
X-1163520Y83321D01*
X-1178662Y68179D01*
X-1190560Y50373D01*
X-1198755Y30589D01*
X-1202932Y9586D01*
X-1202932Y-11828D01*
X-1198755Y-32831D01*
X-1190560Y-52615D01*
X-1178662Y-70421D01*
X-1163520Y-85563D01*
X-1145715Y-97460D01*
X-1137822Y-100729D01*
X-1154446Y-117353D01*
X-1156248Y-118832D01*
X-1162152Y-126026D01*
X-1166539Y-134233D01*
X-1169240Y-143139D01*
X-1169924Y-150080D01*
X-1169924Y-150081D01*
X-1170152Y-152400D01*
X-1169924Y-154719D01*
X-1169924Y-385542D01*
X-1177925Y-385542D01*
X-1184299Y-386169D01*
X-1190427Y-388028D01*
X-1196075Y-391047D01*
X-1201026Y-395110D01*
X-1205089Y-400061D01*
X-1208108Y-405709D01*
X-1209967Y-411837D01*
X-1210594Y-418211D01*
X-1210594Y-473687D01*
X-1213233Y-475097D01*
X-1222863Y-483001D01*
X-1230767Y-492631D01*
X-1236639Y-503619D01*
X-1240256Y-515541D01*
X-1241477Y-527939D01*
X-1241171Y-539179D01*
X-1225360Y-554990D01*
X-1155954Y-554990D01*
X-1155954Y-552990D01*
X-1130046Y-552990D01*
X-1130046Y-554990D01*
X-1100519Y-554990D01*
X-1096582Y-558927D01*
X-1024636Y-558927D01*
X-1024636Y-457073D01*
X-998728Y-457073D01*
X-998728Y-558927D01*
X-926782Y-558927D01*
X-910971Y-543116D01*
X-912206Y-532569D01*
X-916112Y-520738D01*
X-922251Y-509897D01*
X-923887Y-508000D01*
X-922251Y-506103D01*
X-916112Y-495262D01*
X-912206Y-483431D01*
X-910971Y-472884D01*
X-926782Y-457073D01*
X-998728Y-457073D01*
X-1024636Y-457073D01*
X-1026636Y-457073D01*
X-1026636Y-431927D01*
X-1024636Y-431927D01*
X-1024636Y-429546D01*
X-998728Y-429546D01*
X-998728Y-431927D01*
X-926782Y-431927D01*
X-910971Y-416115D01*
X-912206Y-405569D01*
X-916112Y-393738D01*
X-922251Y-382897D01*
X-930386Y-373462D01*
X-940206Y-365795D01*
X-948028Y-361856D01*
X-947053Y-360669D01*
X-946720Y-360045D01*
X-761843Y-360045D01*
X-585282Y-536606D01*
X-583949Y-538229D01*
X-577471Y-543546D01*
X-570080Y-547497D01*
X-562060Y-549929D01*
X-557052Y-550423D01*
X-557052Y-596519D01*
X-556425Y-602893D01*
X-554566Y-609021D01*
X-551547Y-614669D01*
X-547484Y-619620D01*
X-546539Y-620395D01*
X-915496Y-620395D01*
X-912206Y-610431D01*
X-910971Y-599885D01*
X-926782Y-584073D01*
X-998728Y-584073D01*
X-998728Y-586454D01*
X-1024636Y-586454D01*
X-1024636Y-584073D01*
X-1057466Y-584073D01*
X-1060641Y-580898D01*
X-1130046Y-580898D01*
X-1130046Y-582898D01*
X-1155954Y-582898D01*
X-1155954Y-580898D01*
X-1225360Y-580898D01*
X-1241171Y-596710D01*
X-1241477Y-607949D01*
X-1240256Y-620347D01*
X-1240242Y-620395D01*
X-1486535Y-620395D01*
X-1486535Y-418465D01*
X-1271840Y-418465D01*
X-1270000Y-418646D01*
X-1262656Y-417923D01*
X-1255593Y-415781D01*
X-1249085Y-412302D01*
X-1243380Y-407620D01*
X-1238698Y-401915D01*
X-1235219Y-395407D01*
X-1233077Y-388344D01*
X-1232535Y-382840D01*
X-1232354Y-381000D01*
X-1232535Y-379160D01*
X-1232535Y175810D01*
X-1231510Y165402D01*
X-1227893Y153480D01*
X-1222021Y142492D01*
X-1214117Y132862D01*
X-1204487Y124958D01*
X-1193499Y119086D01*
X-1181577Y115469D01*
X-1169179Y114248D01*
X-1121745Y114554D01*
X-1105933Y130365D01*
X-1105933Y241046D01*
X-1216614Y241046D01*
X-1232425Y225234D01*
X-1232535Y208183D01*
X-1232535Y299821D01*
X-1232425Y282766D01*
X-1216614Y266954D01*
X-1105933Y266954D01*
X-1105933Y377634D01*
X-1121745Y393446D01*
X-1169179Y393752D01*
X-1181577Y392531D01*
X-1193499Y388914D01*
X-1204487Y383042D01*
X-1214117Y375138D01*
X-1222021Y365508D01*
X-1227893Y354520D01*
X-1231510Y342598D01*
X-1232535Y332190D01*
X-1232535Y379160D01*
X-1232354Y381000D01*
X-1233077Y388344D01*
X-1235219Y395407D01*
X-1238698Y401915D01*
X-1243380Y407620D01*
X-1249085Y412302D01*
X-1255593Y415781D01*
X-1262656Y417923D01*
X-1268160Y418465D01*
X-1268160Y418465D01*
X-1270000Y418646D01*
X-1271840Y418465D01*
X-1486535Y418465D01*
X-1486535Y619633D01*
X-862869Y619633D01*
X-864463Y614378D01*
G37*
G04 #@! TD.AperFunction*
D35*
X199390Y-342646D02*
X201390Y-342646D01*
X201390Y-368554D01*
X199390Y-368554D01*
X199390Y-437959D01*
X215201Y-453771D01*
X226441Y-454077D01*
X238839Y-452856D01*
X247523Y-450222D01*
X247523Y-459262D01*
X250036Y-471896D01*
X240284Y-481647D01*
X240284Y-556006D01*
X242284Y-556006D01*
X242284Y-581914D01*
X240284Y-581914D01*
X240284Y-583914D01*
X214376Y-583914D01*
X214376Y-581914D01*
X212376Y-581914D01*
X212376Y-556006D01*
X214376Y-556006D01*
X214376Y-481647D01*
X198564Y-465836D01*
X187452Y-465530D01*
X175054Y-466751D01*
X163132Y-470368D01*
X152144Y-476240D01*
X142514Y-484144D01*
X134610Y-493774D01*
X131422Y-499740D01*
X129850Y-498899D01*
X123721Y-497040D01*
X117348Y-496413D01*
X71755Y-496413D01*
X88805Y-479363D01*
X90427Y-478031D01*
X91759Y-476408D01*
X95744Y-471553D01*
X97856Y-467603D01*
X99695Y-464162D01*
X102127Y-456142D01*
X102743Y-449892D01*
X102743Y-449891D01*
X102949Y-447802D01*
X102743Y-445713D01*
X102743Y-436489D01*
X111123Y-443367D01*
X122111Y-449239D01*
X134033Y-452856D01*
X146431Y-454077D01*
X157671Y-453771D01*
X173482Y-437959D01*
X173482Y-368554D01*
X171482Y-368554D01*
X171482Y-342646D01*
X173482Y-342646D01*
X173482Y-340646D01*
X199390Y-340646D01*
X199390Y-342646D01*
G04 #@! TA.AperFunction,Conductor*
D36*
G36*
X199390Y-342646D02*
G01*
X201390Y-342646D01*
X201390Y-368554D01*
X199390Y-368554D01*
X199390Y-437959D01*
X215201Y-453771D01*
X226441Y-454077D01*
X238839Y-452856D01*
X247523Y-450222D01*
X247523Y-459262D01*
X250036Y-471896D01*
X240284Y-481647D01*
X240284Y-556006D01*
X242284Y-556006D01*
X242284Y-581914D01*
X240284Y-581914D01*
X240284Y-583914D01*
X214376Y-583914D01*
X214376Y-581914D01*
X212376Y-581914D01*
X212376Y-556006D01*
X214376Y-556006D01*
X214376Y-481647D01*
X198564Y-465836D01*
X187452Y-465530D01*
X175054Y-466751D01*
X163132Y-470368D01*
X152144Y-476240D01*
X142514Y-484144D01*
X134610Y-493774D01*
X131422Y-499740D01*
X129850Y-498899D01*
X123721Y-497040D01*
X117348Y-496413D01*
X71755Y-496413D01*
X88805Y-479363D01*
X90427Y-478031D01*
X91759Y-476408D01*
X95744Y-471553D01*
X97856Y-467603D01*
X99695Y-464162D01*
X102127Y-456142D01*
X102743Y-449892D01*
X102743Y-449891D01*
X102949Y-447802D01*
X102743Y-445713D01*
X102743Y-436489D01*
X111123Y-443367D01*
X122111Y-449239D01*
X134033Y-452856D01*
X146431Y-454077D01*
X157671Y-453771D01*
X173482Y-437959D01*
X173482Y-368554D01*
X171482Y-368554D01*
X171482Y-342646D01*
X173482Y-342646D01*
X173482Y-340646D01*
X199390Y-340646D01*
X199390Y-342646D01*
G37*
G04 #@! TD.AperFunction*
D35*
X519938Y-545846D02*
X623062Y-545846D01*
X623062Y-543846D01*
X648970Y-543846D01*
X648970Y-545846D01*
X650970Y-545846D01*
X650970Y-571754D01*
X648970Y-571754D01*
X648970Y-573754D01*
X623062Y-573754D01*
X623062Y-571754D01*
X519938Y-571754D01*
X519938Y-573754D01*
X494030Y-573754D01*
X494030Y-571754D01*
X492030Y-571754D01*
X492030Y-545846D01*
X494030Y-545846D01*
X494030Y-543846D01*
X519938Y-543846D01*
X519938Y-545846D01*
G04 #@! TA.AperFunction,Conductor*
D36*
G36*
X519938Y-545846D02*
G01*
X623062Y-545846D01*
X623062Y-543846D01*
X648970Y-543846D01*
X648970Y-545846D01*
X650970Y-545846D01*
X650970Y-571754D01*
X648970Y-571754D01*
X648970Y-573754D01*
X623062Y-573754D01*
X623062Y-571754D01*
X519938Y-571754D01*
X519938Y-573754D01*
X494030Y-573754D01*
X494030Y-571754D01*
X492030Y-571754D01*
X492030Y-545846D01*
X494030Y-545846D01*
X494030Y-543846D01*
X519938Y-543846D01*
X519938Y-545846D01*
G37*
G04 #@! TD.AperFunction*
D35*
X693054Y-21833D02*
X697116Y-26784D01*
X702067Y-30846D01*
X707715Y-33866D01*
X713843Y-35725D01*
X720217Y-36352D01*
X770255Y-36352D01*
X776628Y-35725D01*
X780034Y-34692D01*
X780034Y-145034D01*
X690880Y-145034D01*
X688452Y-145273D01*
X686117Y-145981D01*
X683965Y-147132D01*
X682079Y-148679D01*
X680532Y-150565D01*
X679381Y-152717D01*
X678673Y-155052D01*
X678434Y-157474D01*
X678432Y-162403D01*
X665373Y-162403D01*
X666421Y-151765D01*
X666115Y-145606D01*
X650304Y-129794D01*
X575818Y-129794D01*
X575818Y-199199D01*
X591630Y-215011D01*
X602869Y-215317D01*
X611221Y-214494D01*
X611221Y-235788D01*
X608968Y-236971D01*
X599280Y-244804D01*
X591307Y-254377D01*
X585354Y-265321D01*
X581651Y-277216D01*
X580644Y-288735D01*
X596456Y-304546D01*
X678361Y-304546D01*
X678348Y-330454D01*
X596456Y-330454D01*
X580644Y-346266D01*
X581651Y-357784D01*
X585354Y-369679D01*
X591307Y-380623D01*
X599280Y-390196D01*
X608968Y-398029D01*
X611221Y-399212D01*
X611221Y-439928D01*
X611848Y-446301D01*
X613509Y-451774D01*
X607251Y-445516D01*
X591058Y-445210D01*
X578660Y-446431D01*
X571500Y-448603D01*
X564340Y-446431D01*
X551942Y-445210D01*
X536104Y-445509D01*
X536653Y-439932D01*
X536653Y-385068D01*
X536026Y-378694D01*
X534167Y-372566D01*
X531148Y-366918D01*
X527085Y-361967D01*
X522134Y-357904D01*
X516486Y-354885D01*
X510357Y-353026D01*
X504667Y-352466D01*
X504601Y-351802D01*
X504570Y-350816D01*
X504301Y-348750D01*
X503794Y-343605D01*
X503672Y-343205D01*
X506610Y-336112D01*
X509397Y-322102D01*
X509397Y-307818D01*
X506610Y-293808D01*
X501970Y-282605D01*
X504190Y-282605D01*
X510563Y-281978D01*
X516692Y-280119D01*
X522340Y-277100D01*
X527291Y-273037D01*
X531354Y-268086D01*
X534373Y-262438D01*
X536232Y-256309D01*
X536859Y-249936D01*
X536859Y-212250D01*
X549910Y-199199D01*
X549910Y-129794D01*
X547910Y-129794D01*
X547910Y-103886D01*
X549910Y-103886D01*
X549910Y-101886D01*
X575818Y-101886D01*
X575818Y-103886D01*
X650304Y-103886D01*
X666115Y-88074D01*
X666421Y-81915D01*
X665566Y-73236D01*
X669229Y-70229D01*
X670562Y-68606D01*
X677606Y-61562D01*
X679229Y-60229D01*
X684546Y-53751D01*
X688497Y-46360D01*
X690929Y-38340D01*
X691545Y-32090D01*
X691545Y-32089D01*
X691751Y-30000D01*
X691545Y-27911D01*
X691545Y-19011D01*
X693054Y-21833D01*
G04 #@! TA.AperFunction,Conductor*
D36*
G36*
X693054Y-21833D02*
G01*
X697116Y-26784D01*
X702067Y-30846D01*
X707715Y-33866D01*
X713843Y-35725D01*
X720217Y-36352D01*
X770255Y-36352D01*
X776628Y-35725D01*
X780034Y-34692D01*
X780034Y-145034D01*
X690880Y-145034D01*
X688452Y-145273D01*
X686117Y-145981D01*
X683965Y-147132D01*
X682079Y-148679D01*
X680532Y-150565D01*
X679381Y-152717D01*
X678673Y-155052D01*
X678434Y-157474D01*
X678432Y-162403D01*
X665373Y-162403D01*
X666421Y-151765D01*
X666115Y-145606D01*
X650304Y-129794D01*
X575818Y-129794D01*
X575818Y-199199D01*
X591630Y-215011D01*
X602869Y-215317D01*
X611221Y-214494D01*
X611221Y-235788D01*
X608968Y-236971D01*
X599280Y-244804D01*
X591307Y-254377D01*
X585354Y-265321D01*
X581651Y-277216D01*
X580644Y-288735D01*
X596456Y-304546D01*
X678361Y-304546D01*
X678348Y-330454D01*
X596456Y-330454D01*
X580644Y-346266D01*
X581651Y-357784D01*
X585354Y-369679D01*
X591307Y-380623D01*
X599280Y-390196D01*
X608968Y-398029D01*
X611221Y-399212D01*
X611221Y-439928D01*
X611848Y-446301D01*
X613509Y-451774D01*
X607251Y-445516D01*
X591058Y-445210D01*
X578660Y-446431D01*
X571500Y-448603D01*
X564340Y-446431D01*
X551942Y-445210D01*
X536104Y-445509D01*
X536653Y-439932D01*
X536653Y-385068D01*
X536026Y-378694D01*
X534167Y-372566D01*
X531148Y-366918D01*
X527085Y-361967D01*
X522134Y-357904D01*
X516486Y-354885D01*
X510357Y-353026D01*
X504667Y-352466D01*
X504601Y-351802D01*
X504570Y-350816D01*
X504301Y-348750D01*
X503794Y-343605D01*
X503672Y-343205D01*
X506610Y-336112D01*
X509397Y-322102D01*
X509397Y-307818D01*
X506610Y-293808D01*
X501970Y-282605D01*
X504190Y-282605D01*
X510563Y-281978D01*
X516692Y-280119D01*
X522340Y-277100D01*
X527291Y-273037D01*
X531354Y-268086D01*
X534373Y-262438D01*
X536232Y-256309D01*
X536859Y-249936D01*
X536859Y-212250D01*
X549910Y-199199D01*
X549910Y-129794D01*
X547910Y-129794D01*
X547910Y-103886D01*
X549910Y-103886D01*
X549910Y-101886D01*
X575818Y-101886D01*
X575818Y-103886D01*
X650304Y-103886D01*
X666115Y-88074D01*
X666421Y-81915D01*
X665566Y-73236D01*
X669229Y-70229D01*
X670562Y-68606D01*
X677606Y-61562D01*
X679229Y-60229D01*
X684546Y-53751D01*
X688497Y-46360D01*
X690929Y-38340D01*
X691545Y-32090D01*
X691545Y-32089D01*
X691751Y-30000D01*
X691545Y-27911D01*
X691545Y-19011D01*
X693054Y-21833D01*
G37*
G04 #@! TD.AperFunction*
D35*
X-636802Y97577D02*
X-634158Y92630D01*
X-643257Y87767D01*
X-652887Y79863D01*
X-660791Y70233D01*
X-666663Y59245D01*
X-670280Y47323D01*
X-671501Y34925D01*
X-671195Y28765D01*
X-655384Y12954D01*
X-580898Y12954D01*
X-580898Y14954D01*
X-554990Y14954D01*
X-554990Y12954D01*
X-552990Y12954D01*
X-552990Y-12954D01*
X-554990Y-12954D01*
X-554990Y-14954D01*
X-580898Y-14954D01*
X-580898Y-12954D01*
X-655384Y-12954D01*
X-671195Y-28765D01*
X-671404Y-32969D01*
X-682625Y-21747D01*
X-682625Y44900D01*
X-682419Y46990D01*
X-683241Y55330D01*
X-685673Y63350D01*
X-689624Y70741D01*
X-690030Y71236D01*
X-694941Y77219D01*
X-696564Y78552D01*
X-720471Y102459D01*
X-638283Y102459D01*
X-636802Y97577D01*
G04 #@! TA.AperFunction,Conductor*
D36*
G36*
X-636802Y97577D02*
G01*
X-634158Y92630D01*
X-643257Y87767D01*
X-652887Y79863D01*
X-660791Y70233D01*
X-666663Y59245D01*
X-670280Y47323D01*
X-671501Y34925D01*
X-671195Y28765D01*
X-655384Y12954D01*
X-580898Y12954D01*
X-580898Y14954D01*
X-554990Y14954D01*
X-554990Y12954D01*
X-552990Y12954D01*
X-552990Y-12954D01*
X-554990Y-12954D01*
X-554990Y-14954D01*
X-580898Y-14954D01*
X-580898Y-12954D01*
X-655384Y-12954D01*
X-671195Y-28765D01*
X-671404Y-32969D01*
X-682625Y-21747D01*
X-682625Y44900D01*
X-682419Y46990D01*
X-683241Y55330D01*
X-685673Y63350D01*
X-689624Y70741D01*
X-690030Y71236D01*
X-694941Y77219D01*
X-696564Y78552D01*
X-720471Y102459D01*
X-638283Y102459D01*
X-636802Y97577D01*
G37*
G04 #@! TD.AperFunction*
D35*
X-252508Y35717D02*
X-282416Y35717D01*
X-282416Y40483D01*
X-252508Y40483D01*
X-252508Y35717D01*
G04 #@! TA.AperFunction,Conductor*
D36*
G36*
X-252508Y35717D02*
G01*
X-282416Y35717D01*
X-282416Y40483D01*
X-252508Y40483D01*
X-252508Y35717D01*
G37*
G04 #@! TD.AperFunction*
D35*
X-383860Y59532D02*
X-382527Y57909D01*
X-376049Y52592D01*
X-368658Y48641D01*
X-368173Y48494D01*
X-368173Y40005D01*
X-372394Y40005D01*
X-385780Y37342D01*
X-386169Y41299D01*
X-388028Y47427D01*
X-391047Y53075D01*
X-395110Y58026D01*
X-400061Y62088D01*
X-405709Y65107D01*
X-411837Y66967D01*
X-418211Y67594D01*
X-473687Y67594D01*
X-475097Y70233D01*
X-480987Y77410D01*
X-416882Y77410D01*
X-410508Y78037D01*
X-404380Y79897D01*
X-404278Y79951D01*
X-383860Y59532D01*
G04 #@! TA.AperFunction,Conductor*
D36*
G36*
X-383860Y59532D02*
G01*
X-382527Y57909D01*
X-376049Y52592D01*
X-368658Y48641D01*
X-368173Y48494D01*
X-368173Y40005D01*
X-372394Y40005D01*
X-385780Y37342D01*
X-386169Y41299D01*
X-388028Y47427D01*
X-391047Y53075D01*
X-395110Y58026D01*
X-400061Y62088D01*
X-405709Y65107D01*
X-411837Y66967D01*
X-418211Y67594D01*
X-473687Y67594D01*
X-475097Y70233D01*
X-480987Y77410D01*
X-416882Y77410D01*
X-410508Y78037D01*
X-404380Y79897D01*
X-404278Y79951D01*
X-383860Y59532D01*
G37*
G04 #@! TD.AperFunction*
D35*
X567817Y88773D02*
X570198Y88773D01*
X570198Y73787D01*
X567817Y73787D01*
X567817Y68864D01*
X542671Y68864D01*
X542671Y73787D01*
X540290Y73787D01*
X540290Y88773D01*
X542671Y88773D01*
X542671Y93696D01*
X567817Y93696D01*
X567817Y88773D01*
G04 #@! TA.AperFunction,Conductor*
D36*
G36*
X567817Y88773D02*
G01*
X570198Y88773D01*
X570198Y73787D01*
X567817Y73787D01*
X567817Y68864D01*
X542671Y68864D01*
X542671Y73787D01*
X540290Y73787D01*
X540290Y88773D01*
X542671Y88773D01*
X542671Y93696D01*
X567817Y93696D01*
X567817Y88773D01*
G37*
G04 #@! TD.AperFunction*
D35*
X810514Y424909D02*
X804755Y419150D01*
X792886Y401386D01*
X784710Y381648D01*
X780542Y360694D01*
X780542Y348755D01*
X780273Y347868D01*
X780034Y345440D01*
X780034Y205202D01*
X773432Y198599D01*
X770255Y198912D01*
X720217Y198912D01*
X713843Y198285D01*
X707715Y196425D01*
X702067Y193406D01*
X697116Y189344D01*
X693054Y184393D01*
X690035Y178745D01*
X688175Y172617D01*
X687548Y166243D01*
X687548Y126365D01*
X687798Y123825D01*
X682369Y123825D01*
X680280Y124031D01*
X678191Y123825D01*
X678190Y123825D01*
X671940Y123209D01*
X663920Y120777D01*
X656529Y116826D01*
X650051Y111509D01*
X648718Y109886D01*
X643499Y104667D01*
X642198Y115463D01*
X638229Y127272D01*
X632033Y138080D01*
X623847Y147472D01*
X613986Y155086D01*
X612932Y155609D01*
X612932Y166243D01*
X612305Y172617D01*
X610446Y178745D01*
X607427Y184393D01*
X603364Y189344D01*
X598413Y193406D01*
X592765Y196425D01*
X586637Y198285D01*
X580263Y198912D01*
X530225Y198912D01*
X523851Y198285D01*
X518795Y196751D01*
X518795Y367187D01*
X596948Y445340D01*
X601511Y438511D01*
X616653Y423369D01*
X634458Y411472D01*
X654243Y403277D01*
X675246Y399099D01*
X696660Y399099D01*
X717663Y403277D01*
X737447Y411472D01*
X755253Y423369D01*
X770395Y438511D01*
X782292Y456317D01*
X790487Y476101D01*
X794665Y497104D01*
X794665Y518519D01*
X790487Y539522D01*
X782292Y559306D01*
X770395Y577111D01*
X755253Y592254D01*
X737447Y604151D01*
X717663Y612346D01*
X696660Y616523D01*
X675246Y616523D01*
X654243Y612346D01*
X634458Y604151D01*
X616653Y592254D01*
X601511Y577111D01*
X589613Y559306D01*
X584958Y548066D01*
X583080Y547497D01*
X575689Y543546D01*
X569211Y538229D01*
X567878Y536606D01*
X540665Y509392D01*
X540665Y518519D01*
X536487Y539522D01*
X528292Y559306D01*
X516395Y577111D01*
X501253Y592254D01*
X483447Y604151D01*
X463663Y612346D01*
X442660Y616523D01*
X421245Y616523D01*
X400243Y612346D01*
X380458Y604151D01*
X362653Y592254D01*
X347511Y577111D01*
X335613Y559306D01*
X327419Y539522D01*
X323241Y518519D01*
X323241Y497104D01*
X327419Y476101D01*
X331026Y467393D01*
X299877Y436245D01*
X286822Y436245D01*
X286822Y584011D01*
X286194Y590385D01*
X284335Y596513D01*
X281316Y602162D01*
X277253Y607112D01*
X272303Y611175D01*
X266655Y614194D01*
X260526Y616053D01*
X254153Y616681D01*
X101753Y616681D01*
X95379Y616053D01*
X89251Y614194D01*
X83603Y611175D01*
X78652Y607112D01*
X74589Y602162D01*
X71570Y596513D01*
X69711Y590385D01*
X69083Y584011D01*
X69083Y550420D01*
X68861Y550420D01*
X67380Y555302D01*
X64361Y560950D01*
X60298Y565901D01*
X55348Y569963D01*
X49700Y572982D01*
X43571Y574841D01*
X37198Y575469D01*
X-18278Y575469D01*
X-19689Y578107D01*
X-27592Y587738D01*
X-37223Y595641D01*
X-48210Y601514D01*
X-60132Y605131D01*
X-72530Y606352D01*
X-83770Y606046D01*
X-99581Y590234D01*
X-99581Y520829D01*
X-97581Y520829D01*
X-97581Y494921D01*
X-99581Y494921D01*
X-99581Y492921D01*
X-125489Y492921D01*
X-125489Y494921D01*
X-127489Y494921D01*
X-127489Y520829D01*
X-125489Y520829D01*
X-125489Y590234D01*
X-134292Y599037D01*
X-129234Y604095D01*
X-128928Y610254D01*
X-129852Y619633D01*
X810514Y619633D01*
X810514Y424909D01*
G04 #@! TA.AperFunction,Conductor*
D36*
G36*
X810514Y424909D02*
G01*
X804755Y419150D01*
X792886Y401386D01*
X784710Y381648D01*
X780542Y360694D01*
X780542Y348755D01*
X780273Y347868D01*
X780034Y345440D01*
X780034Y205202D01*
X773432Y198599D01*
X770255Y198912D01*
X720217Y198912D01*
X713843Y198285D01*
X707715Y196425D01*
X702067Y193406D01*
X697116Y189344D01*
X693054Y184393D01*
X690035Y178745D01*
X688175Y172617D01*
X687548Y166243D01*
X687548Y126365D01*
X687798Y123825D01*
X682369Y123825D01*
X680280Y124031D01*
X678191Y123825D01*
X678190Y123825D01*
X671940Y123209D01*
X663920Y120777D01*
X656529Y116826D01*
X650051Y111509D01*
X648718Y109886D01*
X643499Y104667D01*
X642198Y115463D01*
X638229Y127272D01*
X632033Y138080D01*
X623847Y147472D01*
X613986Y155086D01*
X612932Y155609D01*
X612932Y166243D01*
X612305Y172617D01*
X610446Y178745D01*
X607427Y184393D01*
X603364Y189344D01*
X598413Y193406D01*
X592765Y196425D01*
X586637Y198285D01*
X580263Y198912D01*
X530225Y198912D01*
X523851Y198285D01*
X518795Y196751D01*
X518795Y367187D01*
X596948Y445340D01*
X601511Y438511D01*
X616653Y423369D01*
X634458Y411472D01*
X654243Y403277D01*
X675246Y399099D01*
X696660Y399099D01*
X717663Y403277D01*
X737447Y411472D01*
X755253Y423369D01*
X770395Y438511D01*
X782292Y456317D01*
X790487Y476101D01*
X794665Y497104D01*
X794665Y518519D01*
X790487Y539522D01*
X782292Y559306D01*
X770395Y577111D01*
X755253Y592254D01*
X737447Y604151D01*
X717663Y612346D01*
X696660Y616523D01*
X675246Y616523D01*
X654243Y612346D01*
X634458Y604151D01*
X616653Y592254D01*
X601511Y577111D01*
X589613Y559306D01*
X584958Y548066D01*
X583080Y547497D01*
X575689Y543546D01*
X569211Y538229D01*
X567878Y536606D01*
X540665Y509392D01*
X540665Y518519D01*
X536487Y539522D01*
X528292Y559306D01*
X516395Y577111D01*
X501253Y592254D01*
X483447Y604151D01*
X463663Y612346D01*
X442660Y616523D01*
X421245Y616523D01*
X400243Y612346D01*
X380458Y604151D01*
X362653Y592254D01*
X347511Y577111D01*
X335613Y559306D01*
X327419Y539522D01*
X323241Y518519D01*
X323241Y497104D01*
X327419Y476101D01*
X331026Y467393D01*
X299877Y436245D01*
X286822Y436245D01*
X286822Y584011D01*
X286194Y590385D01*
X284335Y596513D01*
X281316Y602162D01*
X277253Y607112D01*
X272303Y611175D01*
X266655Y614194D01*
X260526Y616053D01*
X254153Y616681D01*
X101753Y616681D01*
X95379Y616053D01*
X89251Y614194D01*
X83603Y611175D01*
X78652Y607112D01*
X74589Y602162D01*
X71570Y596513D01*
X69711Y590385D01*
X69083Y584011D01*
X69083Y550420D01*
X68861Y550420D01*
X67380Y555302D01*
X64361Y560950D01*
X60298Y565901D01*
X55348Y569963D01*
X49700Y572982D01*
X43571Y574841D01*
X37198Y575469D01*
X-18278Y575469D01*
X-19689Y578107D01*
X-27592Y587738D01*
X-37223Y595641D01*
X-48210Y601514D01*
X-60132Y605131D01*
X-72530Y606352D01*
X-83770Y606046D01*
X-99581Y590234D01*
X-99581Y520829D01*
X-97581Y520829D01*
X-97581Y494921D01*
X-99581Y494921D01*
X-99581Y492921D01*
X-125489Y492921D01*
X-125489Y494921D01*
X-127489Y494921D01*
X-127489Y520829D01*
X-125489Y520829D01*
X-125489Y590234D01*
X-134292Y599037D01*
X-129234Y604095D01*
X-128928Y610254D01*
X-129852Y619633D01*
X810514Y619633D01*
X810514Y424909D01*
G37*
G04 #@! TD.AperFunction*
D35*
X302736Y185831D02*
X272864Y185831D01*
X272886Y190597D01*
X302736Y190597D01*
X302736Y185831D01*
G04 #@! TA.AperFunction,Conductor*
D36*
G36*
X302736Y185831D02*
G01*
X272864Y185831D01*
X272886Y190597D01*
X302736Y190597D01*
X302736Y185831D01*
G37*
G04 #@! TD.AperFunction*
D35*
X421894Y222250D02*
X423894Y222250D01*
X423894Y196342D01*
X421894Y196342D01*
X421894Y194342D01*
X395986Y194342D01*
X395986Y196342D01*
X393986Y196342D01*
X393986Y222250D01*
X395986Y222250D01*
X395986Y224250D01*
X421894Y224250D01*
X421894Y222250D01*
G04 #@! TA.AperFunction,Conductor*
D36*
G36*
X421894Y222250D02*
G01*
X423894Y222250D01*
X423894Y196342D01*
X421894Y196342D01*
X421894Y194342D01*
X395986Y194342D01*
X395986Y196342D01*
X393986Y196342D01*
X393986Y222250D01*
X395986Y222250D01*
X395986Y224250D01*
X421894Y224250D01*
X421894Y222250D01*
G37*
G04 #@! TD.AperFunction*
D35*
X-187609Y301035D02*
X-189230Y301042D01*
X-192012Y300768D01*
X-192532Y300768D01*
X-192532Y302768D01*
X-204946Y302768D01*
X-204946Y328676D01*
X-192532Y328676D01*
X-192532Y330676D01*
X-187609Y330676D01*
X-187609Y301035D01*
G04 #@! TA.AperFunction,Conductor*
D36*
G36*
X-187609Y301035D02*
G01*
X-189230Y301042D01*
X-192012Y300768D01*
X-192532Y300768D01*
X-192532Y302768D01*
X-204946Y302768D01*
X-204946Y328676D01*
X-192532Y328676D01*
X-192532Y330676D01*
X-187609Y330676D01*
X-187609Y301035D01*
G37*
G04 #@! TD.AperFunction*
D35*
X-499364Y385064D02*
X-497364Y385064D01*
X-497364Y359156D01*
X-499364Y359156D01*
X-499364Y357156D01*
X-525272Y357156D01*
X-525272Y359156D01*
X-527272Y359156D01*
X-527272Y385064D01*
X-525272Y385064D01*
X-525272Y387064D01*
X-499364Y387064D01*
X-499364Y385064D01*
G04 #@! TA.AperFunction,Conductor*
D36*
G36*
X-499364Y385064D02*
G01*
X-497364Y385064D01*
X-497364Y359156D01*
X-499364Y359156D01*
X-499364Y357156D01*
X-525272Y357156D01*
X-525272Y359156D01*
X-527272Y359156D01*
X-527272Y385064D01*
X-525272Y385064D01*
X-525272Y387064D01*
X-499364Y387064D01*
X-499364Y385064D01*
G37*
G04 #@! TD.AperFunction*
D35*
X-219531Y588283D02*
X-217531Y588283D01*
X-217531Y562375D01*
X-219531Y562375D01*
X-219531Y457844D01*
X-217531Y457844D01*
X-217531Y431936D01*
X-219531Y431936D01*
X-219531Y429936D01*
X-245439Y429936D01*
X-245439Y431936D01*
X-247439Y431936D01*
X-247439Y457844D01*
X-245439Y457844D01*
X-245439Y562375D01*
X-247439Y562375D01*
X-247439Y588283D01*
X-245439Y588283D01*
X-245439Y590283D01*
X-219531Y590283D01*
X-219531Y588283D01*
G04 #@! TA.AperFunction,Conductor*
D36*
G36*
X-219531Y588283D02*
G01*
X-217531Y588283D01*
X-217531Y562375D01*
X-219531Y562375D01*
X-219531Y457844D01*
X-217531Y457844D01*
X-217531Y431936D01*
X-219531Y431936D01*
X-219531Y429936D01*
X-245439Y429936D01*
X-245439Y431936D01*
X-247439Y431936D01*
X-247439Y457844D01*
X-245439Y457844D01*
X-245439Y562375D01*
X-247439Y562375D01*
X-247439Y588283D01*
X-245439Y588283D01*
X-245439Y590283D01*
X-219531Y590283D01*
X-219531Y588283D01*
G37*
G04 #@! TD.AperFunction*
D35*
X-719328Y555244D02*
X-717328Y555244D01*
X-717328Y529336D01*
X-719328Y529336D01*
X-719328Y527336D01*
X-745236Y527336D01*
X-745236Y529336D01*
X-787082Y529336D01*
X-775589Y540830D01*
X-775283Y552069D01*
X-775596Y555244D01*
X-745236Y555244D01*
X-745236Y557244D01*
X-719328Y557244D01*
X-719328Y555244D01*
G04 #@! TA.AperFunction,Conductor*
D36*
G36*
X-719328Y555244D02*
G01*
X-717328Y555244D01*
X-717328Y529336D01*
X-719328Y529336D01*
X-719328Y527336D01*
X-745236Y527336D01*
X-745236Y529336D01*
X-787082Y529336D01*
X-775589Y540830D01*
X-775283Y552069D01*
X-775596Y555244D01*
X-745236Y555244D01*
X-745236Y557244D01*
X-719328Y557244D01*
X-719328Y555244D01*
G37*
G04 #@! TD.AperFunction*
G04 #@! TD*
D37*
G04 #@! TO.N,/VBUS*
X1331341Y-620141D02*
X1294453Y-620141D01*
X1299105Y-611438D01*
X1305270Y-591113D01*
X1307352Y-569976D01*
X1305270Y-548839D01*
X1299105Y-528514D01*
X1289092Y-509783D01*
X1275618Y-493365D01*
X1259200Y-479891D01*
X1240469Y-469878D01*
X1220144Y-463713D01*
X1204304Y-462153D01*
X993812Y-462153D01*
X977972Y-463713D01*
X957647Y-469878D01*
X938916Y-479891D01*
X922498Y-493365D01*
X909024Y-509783D01*
X899011Y-528514D01*
X893677Y-546100D01*
X878967Y-546100D01*
X894842Y-530225D01*
X895149Y-508762D01*
X893923Y-496314D01*
X890292Y-484344D01*
X884396Y-473313D01*
X876460Y-463643D01*
X867962Y-456669D01*
X878293Y-458724D01*
X899707Y-458724D01*
X920710Y-454546D01*
X940494Y-446351D01*
X958300Y-434454D01*
X973442Y-419312D01*
X985339Y-401506D01*
X993534Y-381722D01*
X997712Y-360719D01*
X997712Y-339305D01*
X993534Y-318302D01*
X985339Y-298518D01*
X973442Y-280712D01*
X958300Y-265570D01*
X940494Y-253673D01*
X920710Y-245478D01*
X899707Y-241300D01*
X878293Y-241300D01*
X857290Y-245478D01*
X837506Y-253673D01*
X835875Y-254762D01*
X826964Y-254762D01*
X827278Y-251079D01*
X811403Y-235204D01*
X744220Y-235204D01*
X744220Y-216401D01*
X1011301Y-216401D01*
X1011301Y-233687D01*
X1014673Y-250642D01*
X1021289Y-266613D01*
X1030893Y-280986D01*
X1043116Y-293209D01*
X1057490Y-302813D01*
X1073460Y-309429D01*
X1090415Y-312801D01*
X1107701Y-312801D01*
X1124656Y-309429D01*
X1140627Y-302813D01*
X1155000Y-293209D01*
X1167223Y-280986D01*
X1176827Y-266613D01*
X1183443Y-250642D01*
X1186815Y-233687D01*
X1186815Y-216401D01*
X1183443Y-199446D01*
X1176827Y-183475D01*
X1167223Y-169102D01*
X1155000Y-156879D01*
X1140627Y-147275D01*
X1124656Y-140660D01*
X1107701Y-137287D01*
X1090415Y-137287D01*
X1073460Y-140660D01*
X1057490Y-147275D01*
X1043116Y-156879D01*
X1030893Y-169102D01*
X1021289Y-183475D01*
X1014673Y-199446D01*
X1011301Y-216401D01*
X744220Y-216401D01*
X744220Y-209804D01*
X811403Y-209804D01*
X826060Y-195147D01*
X827820Y-194613D01*
X830016Y-193440D01*
X831940Y-191860D01*
X833520Y-189936D01*
X834693Y-187740D01*
X834790Y-187422D01*
X840333Y-191126D01*
X859031Y-198871D01*
X878881Y-202819D01*
X899119Y-202819D01*
X918969Y-198871D01*
X937667Y-191126D01*
X954495Y-179882D01*
X968806Y-165571D01*
X980050Y-148743D01*
X987795Y-130045D01*
X991743Y-110195D01*
X991743Y-89957D01*
X987795Y-70107D01*
X985364Y-64239D01*
X1021917Y-27685D01*
X1023550Y-26346D01*
X1028898Y-19829D01*
X1032872Y-12394D01*
X1035320Y-4326D01*
X1035939Y1962D01*
X1035939Y1963D01*
X1036146Y4064D01*
X1035939Y6165D01*
X1035939Y145219D01*
X1036146Y147320D01*
X1035939Y149421D01*
X1035939Y149422D01*
X1035320Y155710D01*
X1032872Y163778D01*
X1028898Y171213D01*
X1025723Y175081D01*
X1024890Y176097D01*
X1024889Y176097D01*
X1023550Y177730D01*
X1021917Y179069D01*
X967300Y233687D01*
X1011301Y233687D01*
X1011301Y216401D01*
X1014673Y199446D01*
X1021289Y183475D01*
X1030893Y169102D01*
X1043116Y156879D01*
X1057490Y147275D01*
X1073460Y140660D01*
X1090415Y137287D01*
X1107701Y137287D01*
X1124656Y140660D01*
X1140627Y147275D01*
X1155000Y156879D01*
X1167223Y169102D01*
X1176827Y183475D01*
X1183443Y199446D01*
X1186815Y216401D01*
X1186815Y233687D01*
X1183443Y250642D01*
X1176827Y266613D01*
X1167223Y280986D01*
X1155000Y293209D01*
X1140627Y302813D01*
X1124656Y309429D01*
X1107701Y312801D01*
X1090415Y312801D01*
X1073460Y309429D01*
X1057490Y302813D01*
X1043116Y293209D01*
X1030893Y280986D01*
X1021289Y266613D01*
X1014673Y250642D01*
X1011301Y233687D01*
X967300Y233687D01*
X966470Y234517D01*
X965130Y236150D01*
X963032Y237872D01*
X967414Y253637D01*
X889000Y332052D01*
X887586Y330637D01*
X869625Y348598D01*
X871039Y350012D01*
X906960Y350012D01*
X985375Y271598D01*
X1009358Y278265D01*
X1021043Y303124D01*
X1027653Y329785D01*
X1028935Y357224D01*
X1024839Y384385D01*
X1015523Y410226D01*
X1009358Y421759D01*
X985375Y428426D01*
X906960Y350012D01*
X871039Y350012D01*
X869625Y351426D01*
X887586Y369387D01*
X889000Y367972D01*
X967414Y446387D01*
X961182Y468806D01*
X977972Y463713D01*
X993812Y462153D01*
X1204304Y462153D01*
X1220144Y463713D01*
X1240469Y469878D01*
X1259200Y479891D01*
X1275618Y493365D01*
X1289092Y509783D01*
X1299105Y528514D01*
X1305270Y548839D01*
X1307352Y569976D01*
X1305270Y591113D01*
X1299105Y611438D01*
X1294860Y619379D01*
X1331341Y619379D01*
X1331341Y-620141D01*
G04 #@! TA.AperFunction,Conductor*
D36*
G36*
X1331341Y-620141D02*
G01*
X1294453Y-620141D01*
X1299105Y-611438D01*
X1305270Y-591113D01*
X1307352Y-569976D01*
X1305270Y-548839D01*
X1299105Y-528514D01*
X1289092Y-509783D01*
X1275618Y-493365D01*
X1259200Y-479891D01*
X1240469Y-469878D01*
X1220144Y-463713D01*
X1204304Y-462153D01*
X993812Y-462153D01*
X977972Y-463713D01*
X957647Y-469878D01*
X938916Y-479891D01*
X922498Y-493365D01*
X909024Y-509783D01*
X899011Y-528514D01*
X893677Y-546100D01*
X878967Y-546100D01*
X894842Y-530225D01*
X895149Y-508762D01*
X893923Y-496314D01*
X890292Y-484344D01*
X884396Y-473313D01*
X876460Y-463643D01*
X867962Y-456669D01*
X878293Y-458724D01*
X899707Y-458724D01*
X920710Y-454546D01*
X940494Y-446351D01*
X958300Y-434454D01*
X973442Y-419312D01*
X985339Y-401506D01*
X993534Y-381722D01*
X997712Y-360719D01*
X997712Y-339305D01*
X993534Y-318302D01*
X985339Y-298518D01*
X973442Y-280712D01*
X958300Y-265570D01*
X940494Y-253673D01*
X920710Y-245478D01*
X899707Y-241300D01*
X878293Y-241300D01*
X857290Y-245478D01*
X837506Y-253673D01*
X835875Y-254762D01*
X826964Y-254762D01*
X827278Y-251079D01*
X811403Y-235204D01*
X744220Y-235204D01*
X744220Y-216401D01*
X1011301Y-216401D01*
X1011301Y-233687D01*
X1014673Y-250642D01*
X1021289Y-266613D01*
X1030893Y-280986D01*
X1043116Y-293209D01*
X1057490Y-302813D01*
X1073460Y-309429D01*
X1090415Y-312801D01*
X1107701Y-312801D01*
X1124656Y-309429D01*
X1140627Y-302813D01*
X1155000Y-293209D01*
X1167223Y-280986D01*
X1176827Y-266613D01*
X1183443Y-250642D01*
X1186815Y-233687D01*
X1186815Y-216401D01*
X1183443Y-199446D01*
X1176827Y-183475D01*
X1167223Y-169102D01*
X1155000Y-156879D01*
X1140627Y-147275D01*
X1124656Y-140660D01*
X1107701Y-137287D01*
X1090415Y-137287D01*
X1073460Y-140660D01*
X1057490Y-147275D01*
X1043116Y-156879D01*
X1030893Y-169102D01*
X1021289Y-183475D01*
X1014673Y-199446D01*
X1011301Y-216401D01*
X744220Y-216401D01*
X744220Y-209804D01*
X811403Y-209804D01*
X826060Y-195147D01*
X827820Y-194613D01*
X830016Y-193440D01*
X831940Y-191860D01*
X833520Y-189936D01*
X834693Y-187740D01*
X834790Y-187422D01*
X840333Y-191126D01*
X859031Y-198871D01*
X878881Y-202819D01*
X899119Y-202819D01*
X918969Y-198871D01*
X937667Y-191126D01*
X954495Y-179882D01*
X968806Y-165571D01*
X980050Y-148743D01*
X987795Y-130045D01*
X991743Y-110195D01*
X991743Y-89957D01*
X987795Y-70107D01*
X985364Y-64239D01*
X1021917Y-27685D01*
X1023550Y-26346D01*
X1028898Y-19829D01*
X1032872Y-12394D01*
X1035320Y-4326D01*
X1035939Y1962D01*
X1035939Y1963D01*
X1036146Y4064D01*
X1035939Y6165D01*
X1035939Y145219D01*
X1036146Y147320D01*
X1035939Y149421D01*
X1035939Y149422D01*
X1035320Y155710D01*
X1032872Y163778D01*
X1028898Y171213D01*
X1025723Y175081D01*
X1024890Y176097D01*
X1024889Y176097D01*
X1023550Y177730D01*
X1021917Y179069D01*
X967300Y233687D01*
X1011301Y233687D01*
X1011301Y216401D01*
X1014673Y199446D01*
X1021289Y183475D01*
X1030893Y169102D01*
X1043116Y156879D01*
X1057490Y147275D01*
X1073460Y140660D01*
X1090415Y137287D01*
X1107701Y137287D01*
X1124656Y140660D01*
X1140627Y147275D01*
X1155000Y156879D01*
X1167223Y169102D01*
X1176827Y183475D01*
X1183443Y199446D01*
X1186815Y216401D01*
X1186815Y233687D01*
X1183443Y250642D01*
X1176827Y266613D01*
X1167223Y280986D01*
X1155000Y293209D01*
X1140627Y302813D01*
X1124656Y309429D01*
X1107701Y312801D01*
X1090415Y312801D01*
X1073460Y309429D01*
X1057490Y302813D01*
X1043116Y293209D01*
X1030893Y280986D01*
X1021289Y266613D01*
X1014673Y250642D01*
X1011301Y233687D01*
X967300Y233687D01*
X966470Y234517D01*
X965130Y236150D01*
X963032Y237872D01*
X967414Y253637D01*
X889000Y332052D01*
X887586Y330637D01*
X869625Y348598D01*
X871039Y350012D01*
X906960Y350012D01*
X985375Y271598D01*
X1009358Y278265D01*
X1021043Y303124D01*
X1027653Y329785D01*
X1028935Y357224D01*
X1024839Y384385D01*
X1015523Y410226D01*
X1009358Y421759D01*
X985375Y428426D01*
X906960Y350012D01*
X871039Y350012D01*
X869625Y351426D01*
X887586Y369387D01*
X889000Y367972D01*
X967414Y446387D01*
X961182Y468806D01*
X977972Y463713D01*
X993812Y462153D01*
X1204304Y462153D01*
X1220144Y463713D01*
X1240469Y469878D01*
X1259200Y479891D01*
X1275618Y493365D01*
X1289092Y509783D01*
X1299105Y528514D01*
X1305270Y548839D01*
X1307352Y569976D01*
X1305270Y591113D01*
X1299105Y611438D01*
X1294860Y619379D01*
X1331341Y619379D01*
X1331341Y-620141D01*
G37*
G04 #@! TD.AperFunction*
D37*
X799084Y-546100D02*
X801084Y-546100D01*
X801084Y-571500D01*
X799084Y-571500D01*
X799084Y-573500D01*
X773684Y-573500D01*
X773684Y-571500D01*
X771684Y-571500D01*
X771684Y-546100D01*
X773684Y-546100D01*
X773684Y-544100D01*
X799084Y-544100D01*
X799084Y-546100D01*
G04 #@! TA.AperFunction,Conductor*
D36*
G36*
X799084Y-546100D02*
G01*
X801084Y-546100D01*
X801084Y-571500D01*
X799084Y-571500D01*
X799084Y-573500D01*
X773684Y-573500D01*
X773684Y-571500D01*
X771684Y-571500D01*
X771684Y-546100D01*
X773684Y-546100D01*
X773684Y-544100D01*
X799084Y-544100D01*
X799084Y-546100D01*
G37*
G04 #@! TD.AperFunction*
G04 #@! TD*
M02*
