G04 #@! TF.GenerationSoftware,KiCad,Pcbnew,5.0.0-rc3+dfsg1-2*
G04 #@! TF.CreationDate,2018-08-08T10:48:40+09:00*
G04 #@! TF.ProjectId,fst-01,6673742D30312E6B696361645F706362,rev?*
G04 #@! TF.SameCoordinates,PX791ddc0PY5e69114*
G04 #@! TF.FileFunction,Soldermask,Bot*
G04 #@! TF.FilePolarity,Negative*
%FSLAX46Y46*%
G04 Gerber Fmt 4.6, Leading zero omitted, Abs format (unit mm)*
G04 Created by KiCad (PCBNEW 5.0.0-rc3+dfsg1-2) date Wed Aug  8 10:48:40 2018*
%MOMM*%
%LPD*%
G01*
G04 APERTURE LIST*
%ADD10C,0.150000*%
G04 APERTURE END LIST*
D10*
G36*
X1368071Y-4695943D02*
X1472933Y-4739378D01*
X1567306Y-4802436D01*
X1647564Y-4882694D01*
X1710622Y-4977067D01*
X1754057Y-5081929D01*
X1776200Y-5193249D01*
X1776200Y-5306751D01*
X1754057Y-5418071D01*
X1710622Y-5522933D01*
X1647564Y-5617306D01*
X1567306Y-5697564D01*
X1472933Y-5760622D01*
X1368071Y-5804057D01*
X1256751Y-5826200D01*
X1143249Y-5826200D01*
X1031929Y-5804057D01*
X927067Y-5760622D01*
X832694Y-5697564D01*
X752436Y-5617306D01*
X689378Y-5522933D01*
X645943Y-5418071D01*
X623800Y-5306751D01*
X623800Y-5193249D01*
X645943Y-5081929D01*
X689378Y-4977067D01*
X752436Y-4882694D01*
X832694Y-4802436D01*
X927067Y-4739378D01*
X1031929Y-4695943D01*
X1143249Y-4673800D01*
X1256751Y-4673800D01*
X1368071Y-4695943D01*
X1368071Y-4695943D01*
G37*
G36*
X-11207800Y-4654500D02*
X-12160200Y-4654500D01*
X-12160200Y-3702100D01*
X-11207800Y-3702100D01*
X-11207800Y-4654500D01*
X-11207800Y-4654500D01*
G37*
G36*
X1368071Y5804057D02*
X1472933Y5760622D01*
X1567306Y5697564D01*
X1647564Y5617306D01*
X1710622Y5522933D01*
X1754057Y5418071D01*
X1776200Y5306751D01*
X1776200Y5193249D01*
X1754057Y5081929D01*
X1710622Y4977067D01*
X1647564Y4882694D01*
X1567306Y4802436D01*
X1472933Y4739378D01*
X1368071Y4695943D01*
X1256751Y4673800D01*
X1143249Y4673800D01*
X1031929Y4695943D01*
X927067Y4739378D01*
X832694Y4802436D01*
X752436Y4882694D01*
X689378Y4977067D01*
X645943Y5081929D01*
X623800Y5193249D01*
X623800Y5306751D01*
X645943Y5418071D01*
X689378Y5522933D01*
X752436Y5617306D01*
X832694Y5697564D01*
X927067Y5760622D01*
X1031929Y5804057D01*
X1143249Y5826200D01*
X1256751Y5826200D01*
X1368071Y5804057D01*
X1368071Y5804057D01*
G37*
M02*
