G04 #@! TF.GenerationSoftware,KiCad,Pcbnew,5.0.0-rc3+dfsg1-2*
G04 #@! TF.CreationDate,2018-08-10T14:47:19+09:00*
G04 #@! TF.ProjectId,fst-01,6673742D30312E6B696361645F706362,rev?*
G04 #@! TF.SameCoordinates,PX791ddc0PY5e69114*
G04 #@! TF.FileFunction,Copper,L1,Top,Signal*
G04 #@! TF.FilePolarity,Positive*
%FSLAX46Y46*%
G04 Gerber Fmt 4.6, Leading zero omitted, Abs format (unit mm)*
G04 Created by KiCad (PCBNEW 5.0.0-rc3+dfsg1-2) date Fri Aug 10 14:47:19 2018*
%MOMM*%
%LPD*%
G01*
G04 APERTURE LIST*
G04 #@! TA.AperFunction,SMDPad,CuDef*
%ADD10R,0.700000X0.700000*%
G04 #@! TD*
G04 #@! TA.AperFunction,SMDPad,CuDef*
%ADD11R,1.200000X1.400000*%
G04 #@! TD*
G04 #@! TA.AperFunction,ComponentPad*
%ADD12C,0.800000*%
G04 #@! TD*
G04 #@! TA.AperFunction,ComponentPad*
%ADD13R,0.800000X0.800000*%
G04 #@! TD*
G04 #@! TA.AperFunction,ViaPad*
%ADD14C,0.700000*%
G04 #@! TD*
G04 #@! TA.AperFunction,Conductor*
%ADD15C,0.150000*%
G04 #@! TD*
G04 #@! TA.AperFunction,SMDPad,CuDef*
%ADD16C,1.200000*%
G04 #@! TD*
G04 #@! TA.AperFunction,SMDPad,CuDef*
%ADD17R,0.900000X0.600000*%
G04 #@! TD*
G04 #@! TA.AperFunction,SMDPad,CuDef*
%ADD18R,0.280000X0.750000*%
G04 #@! TD*
G04 #@! TA.AperFunction,SMDPad,CuDef*
%ADD19R,0.750000X0.280000*%
G04 #@! TD*
G04 #@! TA.AperFunction,SMDPad,CuDef*
%ADD20R,2.000000X2.000000*%
G04 #@! TD*
G04 #@! TA.AperFunction,SMDPad,CuDef*
%ADD21R,0.400000X0.500000*%
G04 #@! TD*
G04 #@! TA.AperFunction,SMDPad,CuDef*
%ADD22C,0.220000*%
G04 #@! TD*
G04 #@! TA.AperFunction,SMDPad,CuDef*
%ADD23C,0.600000*%
G04 #@! TD*
G04 #@! TA.AperFunction,SMDPad,CuDef*
%ADD24R,0.698500X0.762000*%
G04 #@! TD*
G04 #@! TA.AperFunction,SMDPad,CuDef*
%ADD25R,0.899160X1.000760*%
G04 #@! TD*
G04 #@! TA.AperFunction,SMDPad,CuDef*
%ADD26R,0.762000X0.698500*%
G04 #@! TD*
G04 #@! TA.AperFunction,SMDPad,CuDef*
%ADD27R,1.000760X0.899160*%
G04 #@! TD*
G04 #@! TA.AperFunction,ViaPad*
%ADD28C,0.800000*%
G04 #@! TD*
G04 #@! TA.AperFunction,Conductor*
%ADD29C,0.200660*%
G04 #@! TD*
G04 #@! TA.AperFunction,Conductor*
%ADD30C,0.500000*%
G04 #@! TD*
G04 #@! TA.AperFunction,Conductor*
%ADD31C,0.599440*%
G04 #@! TD*
G04 #@! TA.AperFunction,Conductor*
%ADD32C,0.254000*%
G04 #@! TD*
G04 #@! TA.AperFunction,Conductor*
%ADD33C,0.300000*%
G04 #@! TD*
G04 #@! TA.AperFunction,Conductor*
%ADD34C,0.381000*%
G04 #@! TD*
G04 #@! TA.AperFunction,Conductor*
%ADD35C,0.400000*%
G04 #@! TD*
G04 #@! TA.AperFunction,Conductor*
%ADD36C,0.279400*%
G04 #@! TD*
G04 #@! TA.AperFunction,Conductor*
%ADD37C,0.380000*%
G04 #@! TD*
G04 #@! TA.AperFunction,Conductor*
%ADD38C,0.202000*%
G04 #@! TD*
G04 #@! TA.AperFunction,Conductor*
%ADD39C,0.508000*%
G04 #@! TD*
G04 #@! TA.AperFunction,Conductor*
%ADD40C,0.250000*%
G04 #@! TD*
G04 #@! TA.AperFunction,Conductor*
%ADD41C,0.200000*%
G04 #@! TD*
G04 APERTURE END LIST*
D10*
G04 #@! TO.P,D1,1*
G04 #@! TO.N,Net-(D1-Pad1)*
X-17250000Y-2402800D03*
G04 #@! TO.P,D1,2*
G04 #@! TO.N,/LED*
X-17250000Y-904200D03*
G04 #@! TD*
D11*
G04 #@! TO.P,X1,2*
G04 #@! TO.N,/OSC_OUT*
X-3050000Y-1903500D03*
G04 #@! TO.P,X1,3*
G04 #@! TO.N,GND*
X-1350000Y-1903500D03*
G04 #@! TO.P,X1,1*
G04 #@! TO.N,/OSC_IN*
X-1350000Y-4103500D03*
G04 #@! TO.P,X1,3*
G04 #@! TO.N,GND*
X-3050000Y-4103500D03*
G04 #@! TD*
D12*
G04 #@! TO.P,K1,2*
G04 #@! TO.N,/SWDIO*
X-14732000Y-4178300D03*
G04 #@! TO.P,K1,1*
G04 #@! TO.N,+3V3*
X-16002000Y-4178300D03*
G04 #@! TO.P,K1,3*
G04 #@! TO.N,/SWCLK*
X-13462000Y-4178300D03*
G04 #@! TO.P,K1,4*
G04 #@! TO.N,/NRST*
X-12192000Y-4178300D03*
D13*
G04 #@! TO.P,K1,5*
G04 #@! TO.N,GND*
X-10922000Y-4178300D03*
G04 #@! TD*
D14*
G04 #@! TO.N,GND*
G04 #@! TO.C,J1*
X1200000Y5250000D03*
X1200000Y-5250000D03*
D15*
G04 #@! TO.N,/VBUS*
G36*
X1229405Y4098675D02*
X1258527Y4094356D01*
X1287085Y4087202D01*
X1314805Y4077284D01*
X1341419Y4064696D01*
X1366671Y4049561D01*
X1390318Y4032023D01*
X1412132Y4012252D01*
X1431903Y3990438D01*
X1449441Y3966791D01*
X1464576Y3941539D01*
X1477164Y3914925D01*
X1487082Y3887205D01*
X1494236Y3858647D01*
X1498555Y3829525D01*
X1500000Y3800120D01*
X1500000Y3200120D01*
X1498555Y3170715D01*
X1494236Y3141593D01*
X1487082Y3113035D01*
X1477164Y3085315D01*
X1464576Y3058701D01*
X1449441Y3033449D01*
X1431903Y3009802D01*
X1412132Y2987988D01*
X1390318Y2968217D01*
X1366671Y2950679D01*
X1341419Y2935544D01*
X1314805Y2922956D01*
X1287085Y2913038D01*
X1258527Y2905884D01*
X1229405Y2901565D01*
X1200000Y2900120D01*
X300000Y2900120D01*
X270595Y2901565D01*
X241473Y2905884D01*
X212915Y2913038D01*
X185195Y2922956D01*
X158581Y2935544D01*
X133329Y2950679D01*
X109682Y2968217D01*
X87868Y2987988D01*
X68097Y3009802D01*
X50559Y3033449D01*
X35424Y3058701D01*
X22836Y3085315D01*
X12918Y3113035D01*
X5764Y3141593D01*
X1445Y3170715D01*
X0Y3200120D01*
X0Y3800120D01*
X1445Y3829525D01*
X5764Y3858647D01*
X12918Y3887205D01*
X22836Y3914925D01*
X35424Y3941539D01*
X50559Y3966791D01*
X68097Y3990438D01*
X87868Y4012252D01*
X109682Y4032023D01*
X133329Y4049561D01*
X158581Y4064696D01*
X185195Y4077284D01*
X212915Y4087202D01*
X241473Y4094356D01*
X270595Y4098675D01*
X300000Y4100120D01*
X1200000Y4100120D01*
X1229405Y4098675D01*
X1229405Y4098675D01*
G37*
D16*
G04 #@! TD*
G04 #@! TO.P,J1,1*
G04 #@! TO.N,/VBUS*
X750000Y3500120D03*
D15*
G04 #@! TO.N,GND*
G04 #@! TO.C,J1*
G36*
X1229405Y-2901445D02*
X1258527Y-2905764D01*
X1287085Y-2912918D01*
X1314805Y-2922836D01*
X1341419Y-2935424D01*
X1366671Y-2950559D01*
X1390318Y-2968097D01*
X1412132Y-2987868D01*
X1431903Y-3009682D01*
X1449441Y-3033329D01*
X1464576Y-3058581D01*
X1477164Y-3085195D01*
X1487082Y-3112915D01*
X1494236Y-3141473D01*
X1498555Y-3170595D01*
X1500000Y-3200000D01*
X1500000Y-3800000D01*
X1498555Y-3829405D01*
X1494236Y-3858527D01*
X1487082Y-3887085D01*
X1477164Y-3914805D01*
X1464576Y-3941419D01*
X1449441Y-3966671D01*
X1431903Y-3990318D01*
X1412132Y-4012132D01*
X1390318Y-4031903D01*
X1366671Y-4049441D01*
X1341419Y-4064576D01*
X1314805Y-4077164D01*
X1287085Y-4087082D01*
X1258527Y-4094236D01*
X1229405Y-4098555D01*
X1200000Y-4100000D01*
X300000Y-4100000D01*
X270595Y-4098555D01*
X241473Y-4094236D01*
X212915Y-4087082D01*
X185195Y-4077164D01*
X158581Y-4064576D01*
X133329Y-4049441D01*
X109682Y-4031903D01*
X87868Y-4012132D01*
X68097Y-3990318D01*
X50559Y-3966671D01*
X35424Y-3941419D01*
X22836Y-3914805D01*
X12918Y-3887085D01*
X5764Y-3858527D01*
X1445Y-3829405D01*
X0Y-3800000D01*
X0Y-3200000D01*
X1445Y-3170595D01*
X5764Y-3141473D01*
X12918Y-3112915D01*
X22836Y-3085195D01*
X35424Y-3058581D01*
X50559Y-3033329D01*
X68097Y-3009682D01*
X87868Y-2987868D01*
X109682Y-2968097D01*
X133329Y-2950559D01*
X158581Y-2935424D01*
X185195Y-2922836D01*
X212915Y-2912918D01*
X241473Y-2905764D01*
X270595Y-2901445D01*
X300000Y-2900000D01*
X1200000Y-2900000D01*
X1229405Y-2901445D01*
X1229405Y-2901445D01*
G37*
D16*
G04 #@! TD*
G04 #@! TO.P,J1,4*
G04 #@! TO.N,GND*
X750000Y-3500000D03*
D15*
G04 #@! TO.N,/D-_PLUG*
G04 #@! TO.C,J1*
G36*
X1229405Y1598555D02*
X1258527Y1594236D01*
X1287085Y1587082D01*
X1314805Y1577164D01*
X1341419Y1564576D01*
X1366671Y1549441D01*
X1390318Y1531903D01*
X1412132Y1512132D01*
X1431903Y1490318D01*
X1449441Y1466671D01*
X1464576Y1441419D01*
X1477164Y1414805D01*
X1487082Y1387085D01*
X1494236Y1358527D01*
X1498555Y1329405D01*
X1500000Y1300000D01*
X1500000Y700000D01*
X1498555Y670595D01*
X1494236Y641473D01*
X1487082Y612915D01*
X1477164Y585195D01*
X1464576Y558581D01*
X1449441Y533329D01*
X1431903Y509682D01*
X1412132Y487868D01*
X1390318Y468097D01*
X1366671Y450559D01*
X1341419Y435424D01*
X1314805Y422836D01*
X1287085Y412918D01*
X1258527Y405764D01*
X1229405Y401445D01*
X1200000Y400000D01*
X300000Y400000D01*
X270595Y401445D01*
X241473Y405764D01*
X212915Y412918D01*
X185195Y422836D01*
X158581Y435424D01*
X133329Y450559D01*
X109682Y468097D01*
X87868Y487868D01*
X68097Y509682D01*
X50559Y533329D01*
X35424Y558581D01*
X22836Y585195D01*
X12918Y612915D01*
X5764Y641473D01*
X1445Y670595D01*
X0Y700000D01*
X0Y1300000D01*
X1445Y1329405D01*
X5764Y1358527D01*
X12918Y1387085D01*
X22836Y1414805D01*
X35424Y1441419D01*
X50559Y1466671D01*
X68097Y1490318D01*
X87868Y1512132D01*
X109682Y1531903D01*
X133329Y1549441D01*
X158581Y1564576D01*
X185195Y1577164D01*
X212915Y1587082D01*
X241473Y1594236D01*
X270595Y1598555D01*
X300000Y1600000D01*
X1200000Y1600000D01*
X1229405Y1598555D01*
X1229405Y1598555D01*
G37*
D16*
G04 #@! TD*
G04 #@! TO.P,J1,2*
G04 #@! TO.N,/D-_PLUG*
X750000Y1000000D03*
D15*
G04 #@! TO.N,/D+_PLUG*
G04 #@! TO.C,J1*
G36*
X1229405Y-401445D02*
X1258527Y-405764D01*
X1287085Y-412918D01*
X1314805Y-422836D01*
X1341419Y-435424D01*
X1366671Y-450559D01*
X1390318Y-468097D01*
X1412132Y-487868D01*
X1431903Y-509682D01*
X1449441Y-533329D01*
X1464576Y-558581D01*
X1477164Y-585195D01*
X1487082Y-612915D01*
X1494236Y-641473D01*
X1498555Y-670595D01*
X1500000Y-700000D01*
X1500000Y-1300000D01*
X1498555Y-1329405D01*
X1494236Y-1358527D01*
X1487082Y-1387085D01*
X1477164Y-1414805D01*
X1464576Y-1441419D01*
X1449441Y-1466671D01*
X1431903Y-1490318D01*
X1412132Y-1512132D01*
X1390318Y-1531903D01*
X1366671Y-1549441D01*
X1341419Y-1564576D01*
X1314805Y-1577164D01*
X1287085Y-1587082D01*
X1258527Y-1594236D01*
X1229405Y-1598555D01*
X1200000Y-1600000D01*
X300000Y-1600000D01*
X270595Y-1598555D01*
X241473Y-1594236D01*
X212915Y-1587082D01*
X185195Y-1577164D01*
X158581Y-1564576D01*
X133329Y-1549441D01*
X109682Y-1531903D01*
X87868Y-1512132D01*
X68097Y-1490318D01*
X50559Y-1466671D01*
X35424Y-1441419D01*
X22836Y-1414805D01*
X12918Y-1387085D01*
X5764Y-1358527D01*
X1445Y-1329405D01*
X0Y-1300000D01*
X0Y-700000D01*
X1445Y-670595D01*
X5764Y-641473D01*
X12918Y-612915D01*
X22836Y-585195D01*
X35424Y-558581D01*
X50559Y-533329D01*
X68097Y-509682D01*
X87868Y-487868D01*
X109682Y-468097D01*
X133329Y-450559D01*
X158581Y-435424D01*
X185195Y-422836D01*
X212915Y-412918D01*
X241473Y-405764D01*
X270595Y-401445D01*
X300000Y-400000D01*
X1200000Y-400000D01*
X1229405Y-401445D01*
X1229405Y-401445D01*
G37*
D16*
G04 #@! TD*
G04 #@! TO.P,J1,3*
G04 #@! TO.N,/D+_PLUG*
X750000Y-1000000D03*
D17*
G04 #@! TO.P,U2,1*
G04 #@! TO.N,GND*
X-3080400Y3388400D03*
G04 #@! TO.P,U2,2*
G04 #@! TO.N,+3V3*
X-3080400Y1488400D03*
G04 #@! TO.P,U2,3*
G04 #@! TO.N,/VBUS*
X-780400Y2438400D03*
G04 #@! TD*
D18*
G04 #@! TO.P,U1,36*
G04 #@! TO.N,GND*
X-6700000Y-2278500D03*
G04 #@! TO.P,U1,35*
X-7200000Y-2278500D03*
G04 #@! TO.P,U1,34*
G04 #@! TO.N,Net-(U1-Pad34)*
X-7700000Y-2278500D03*
G04 #@! TO.P,U1,33*
G04 #@! TO.N,Net-(U1-Pad33)*
X-8200000Y-2278500D03*
G04 #@! TO.P,U1,32*
G04 #@! TO.N,Net-(U1-Pad32)*
X-8700000Y-2278500D03*
G04 #@! TO.P,U1,31*
G04 #@! TO.N,Net-(U1-Pad31)*
X-9200000Y-2278500D03*
G04 #@! TO.P,U1,30*
G04 #@! TO.N,Net-(U1-Pad30)*
X-9700000Y-2278500D03*
G04 #@! TO.P,U1,29*
G04 #@! TO.N,Net-(U1-Pad29)*
X-10200000Y-2278500D03*
G04 #@! TO.P,U1,28*
G04 #@! TO.N,/SWCLK*
X-10700000Y-2278500D03*
D19*
G04 #@! TO.P,U1,27*
G04 #@! TO.N,+3V3*
X-11475000Y-1503500D03*
G04 #@! TO.P,U1,26*
G04 #@! TO.N,GND*
X-11475000Y-1003500D03*
G04 #@! TO.P,U1,25*
G04 #@! TO.N,/SWDIO*
X-11475000Y-503500D03*
G04 #@! TO.P,U1,24*
G04 #@! TO.N,/D+*
X-11475000Y-3500D03*
G04 #@! TO.P,U1,23*
G04 #@! TO.N,/D-*
X-11475000Y496500D03*
G04 #@! TO.P,U1,22*
G04 #@! TO.N,Net-(U1-Pad22)*
X-11475000Y996500D03*
G04 #@! TO.P,U1,21*
G04 #@! TO.N,Net-(U1-Pad21)*
X-11475000Y1496500D03*
G04 #@! TO.P,U1,20*
G04 #@! TO.N,/LED*
X-11475000Y1996500D03*
G04 #@! TO.P,U1,19*
G04 #@! TO.N,+3V3*
X-11475000Y2496500D03*
D18*
G04 #@! TO.P,U1,18*
G04 #@! TO.N,GND*
X-10700000Y3271500D03*
G04 #@! TO.P,U1,17*
X-10200000Y3271500D03*
G04 #@! TO.P,U1,16*
G04 #@! TO.N,Net-(U1-Pad16)*
X-9700000Y3271500D03*
G04 #@! TO.P,U1,15*
G04 #@! TO.N,Net-(U1-Pad15)*
X-9200000Y3271500D03*
G04 #@! TO.P,U1,14*
G04 #@! TO.N,Net-(U1-Pad14)*
X-8700000Y3271500D03*
G04 #@! TO.P,U1,13*
G04 #@! TO.N,Net-(U1-Pad13)*
X-8200000Y3271500D03*
G04 #@! TO.P,U1,12*
G04 #@! TO.N,Net-(U1-Pad12)*
X-7700000Y3271500D03*
G04 #@! TO.P,U1,11*
G04 #@! TO.N,Net-(U1-Pad11)*
X-7200000Y3271500D03*
G04 #@! TO.P,U1,10*
G04 #@! TO.N,/PA3*
X-6700000Y3271500D03*
D19*
G04 #@! TO.P,U1,9*
G04 #@! TO.N,Net-(U1-Pad9)*
X-5925000Y2496500D03*
G04 #@! TO.P,U1,8*
G04 #@! TO.N,Net-(U1-Pad8)*
X-5925000Y1996500D03*
G04 #@! TO.P,U1,7*
G04 #@! TO.N,Net-(U1-Pad7)*
X-5925000Y1496500D03*
G04 #@! TO.P,U1,6*
G04 #@! TO.N,+3V3*
X-5925000Y996500D03*
G04 #@! TO.P,U1,5*
G04 #@! TO.N,GND*
X-5925000Y496500D03*
G04 #@! TO.P,U1,4*
G04 #@! TO.N,/NRST*
X-5925000Y-3500D03*
G04 #@! TO.P,U1,3*
G04 #@! TO.N,/OSC_OUT*
X-5925000Y-503500D03*
G04 #@! TO.P,U1,2*
G04 #@! TO.N,/OSC_IN*
X-5925000Y-1003500D03*
G04 #@! TO.P,U1,1*
G04 #@! TO.N,+3V3*
X-5925000Y-1503500D03*
D20*
G04 #@! TO.P,U1,37*
G04 #@! TO.N,GND*
X-7700000Y-503500D03*
X-9700000Y1496500D03*
X-9700000Y-503500D03*
X-7700000Y1496500D03*
G04 #@! TD*
D21*
G04 #@! TO.P,U3,1*
G04 #@! TO.N,/D+*
X-14650000Y1286500D03*
G04 #@! TO.P,U3,2*
G04 #@! TO.N,GND*
X-14000000Y1286500D03*
G04 #@! TO.P,U3,3*
G04 #@! TO.N,/D-*
X-13350000Y1286500D03*
G04 #@! TO.P,U3,4*
G04 #@! TO.N,/D-_PLUG*
X-13350000Y3186500D03*
G04 #@! TO.P,U3,5*
G04 #@! TO.N,+3V3*
X-14000000Y3186500D03*
G04 #@! TO.P,U3,6*
G04 #@! TO.N,/D+_PLUG*
X-14650000Y3186500D03*
G04 #@! TD*
D15*
G04 #@! TO.N,N/C*
G04 #@! TO.C,U4*
G36*
X-16939609Y566235D02*
X-16934270Y565443D01*
X-16929034Y564132D01*
X-16923952Y562313D01*
X-16919073Y560006D01*
X-16914444Y557231D01*
X-16910108Y554016D01*
X-16906109Y550391D01*
X-16902484Y546392D01*
X-16899269Y542056D01*
X-16896494Y537427D01*
X-16894187Y532548D01*
X-16892368Y527466D01*
X-16891057Y522230D01*
X-16890265Y516891D01*
X-16890000Y511500D01*
X-16890000Y221500D01*
X-16890265Y216109D01*
X-16891057Y210770D01*
X-16892368Y205534D01*
X-16894187Y200452D01*
X-16896494Y195573D01*
X-16899269Y190944D01*
X-16902484Y186608D01*
X-16906109Y182609D01*
X-16910108Y178984D01*
X-16914444Y175769D01*
X-16919073Y172994D01*
X-16923952Y170687D01*
X-16929034Y168868D01*
X-16934270Y167557D01*
X-16939609Y166765D01*
X-16945000Y166500D01*
X-17055000Y166500D01*
X-17060391Y166765D01*
X-17065730Y167557D01*
X-17070966Y168868D01*
X-17076048Y170687D01*
X-17080927Y172994D01*
X-17085556Y175769D01*
X-17089892Y178984D01*
X-17093891Y182609D01*
X-17097516Y186608D01*
X-17100731Y190944D01*
X-17103506Y195573D01*
X-17105813Y200452D01*
X-17107632Y205534D01*
X-17108943Y210770D01*
X-17109735Y216109D01*
X-17110000Y221500D01*
X-17110000Y511500D01*
X-17109735Y516891D01*
X-17108943Y522230D01*
X-17107632Y527466D01*
X-17105813Y532548D01*
X-17103506Y537427D01*
X-17100731Y542056D01*
X-17097516Y546392D01*
X-17093891Y550391D01*
X-17089892Y554016D01*
X-17085556Y557231D01*
X-17080927Y560006D01*
X-17076048Y562313D01*
X-17070966Y564132D01*
X-17065730Y565443D01*
X-17060391Y566235D01*
X-17055000Y566500D01*
X-16945000Y566500D01*
X-16939609Y566235D01*
X-16939609Y566235D01*
G37*
D22*
G04 #@! TD*
G04 #@! TO.P,U4,3*
G04 #@! TO.N,N/C*
X-17000000Y366500D03*
D15*
G04 #@! TO.N,GND*
G04 #@! TO.C,U4*
G36*
X-17439609Y566235D02*
X-17434270Y565443D01*
X-17429034Y564132D01*
X-17423952Y562313D01*
X-17419073Y560006D01*
X-17414444Y557231D01*
X-17410108Y554016D01*
X-17406109Y550391D01*
X-17402484Y546392D01*
X-17399269Y542056D01*
X-17396494Y537427D01*
X-17394187Y532548D01*
X-17392368Y527466D01*
X-17391057Y522230D01*
X-17390265Y516891D01*
X-17390000Y511500D01*
X-17390000Y221500D01*
X-17390265Y216109D01*
X-17391057Y210770D01*
X-17392368Y205534D01*
X-17394187Y200452D01*
X-17396494Y195573D01*
X-17399269Y190944D01*
X-17402484Y186608D01*
X-17406109Y182609D01*
X-17410108Y178984D01*
X-17414444Y175769D01*
X-17419073Y172994D01*
X-17423952Y170687D01*
X-17429034Y168868D01*
X-17434270Y167557D01*
X-17439609Y166765D01*
X-17445000Y166500D01*
X-17555000Y166500D01*
X-17560391Y166765D01*
X-17565730Y167557D01*
X-17570966Y168868D01*
X-17576048Y170687D01*
X-17580927Y172994D01*
X-17585556Y175769D01*
X-17589892Y178984D01*
X-17593891Y182609D01*
X-17597516Y186608D01*
X-17600731Y190944D01*
X-17603506Y195573D01*
X-17605813Y200452D01*
X-17607632Y205534D01*
X-17608943Y210770D01*
X-17609735Y216109D01*
X-17610000Y221500D01*
X-17610000Y511500D01*
X-17609735Y516891D01*
X-17608943Y522230D01*
X-17607632Y527466D01*
X-17605813Y532548D01*
X-17603506Y537427D01*
X-17600731Y542056D01*
X-17597516Y546392D01*
X-17593891Y550391D01*
X-17589892Y554016D01*
X-17585556Y557231D01*
X-17580927Y560006D01*
X-17576048Y562313D01*
X-17570966Y564132D01*
X-17565730Y565443D01*
X-17560391Y566235D01*
X-17555000Y566500D01*
X-17445000Y566500D01*
X-17439609Y566235D01*
X-17439609Y566235D01*
G37*
D22*
G04 #@! TD*
G04 #@! TO.P,U4,2*
G04 #@! TO.N,GND*
X-17500000Y366500D03*
D15*
G04 #@! TO.N,/PA3*
G04 #@! TO.C,U4*
G36*
X-16939609Y1966235D02*
X-16934270Y1965443D01*
X-16929034Y1964132D01*
X-16923952Y1962313D01*
X-16919073Y1960006D01*
X-16914444Y1957231D01*
X-16910108Y1954016D01*
X-16906109Y1950391D01*
X-16902484Y1946392D01*
X-16899269Y1942056D01*
X-16896494Y1937427D01*
X-16894187Y1932548D01*
X-16892368Y1927466D01*
X-16891057Y1922230D01*
X-16890265Y1916891D01*
X-16890000Y1911500D01*
X-16890000Y1621500D01*
X-16890265Y1616109D01*
X-16891057Y1610770D01*
X-16892368Y1605534D01*
X-16894187Y1600452D01*
X-16896494Y1595573D01*
X-16899269Y1590944D01*
X-16902484Y1586608D01*
X-16906109Y1582609D01*
X-16910108Y1578984D01*
X-16914444Y1575769D01*
X-16919073Y1572994D01*
X-16923952Y1570687D01*
X-16929034Y1568868D01*
X-16934270Y1567557D01*
X-16939609Y1566765D01*
X-16945000Y1566500D01*
X-17055000Y1566500D01*
X-17060391Y1566765D01*
X-17065730Y1567557D01*
X-17070966Y1568868D01*
X-17076048Y1570687D01*
X-17080927Y1572994D01*
X-17085556Y1575769D01*
X-17089892Y1578984D01*
X-17093891Y1582609D01*
X-17097516Y1586608D01*
X-17100731Y1590944D01*
X-17103506Y1595573D01*
X-17105813Y1600452D01*
X-17107632Y1605534D01*
X-17108943Y1610770D01*
X-17109735Y1616109D01*
X-17110000Y1621500D01*
X-17110000Y1911500D01*
X-17109735Y1916891D01*
X-17108943Y1922230D01*
X-17107632Y1927466D01*
X-17105813Y1932548D01*
X-17103506Y1937427D01*
X-17100731Y1942056D01*
X-17097516Y1946392D01*
X-17093891Y1950391D01*
X-17089892Y1954016D01*
X-17085556Y1957231D01*
X-17080927Y1960006D01*
X-17076048Y1962313D01*
X-17070966Y1964132D01*
X-17065730Y1965443D01*
X-17060391Y1966235D01*
X-17055000Y1966500D01*
X-16945000Y1966500D01*
X-16939609Y1966235D01*
X-16939609Y1966235D01*
G37*
D22*
G04 #@! TD*
G04 #@! TO.P,U4,4*
G04 #@! TO.N,/PA3*
X-17000000Y1766500D03*
D15*
G04 #@! TO.N,+3V3*
G04 #@! TO.C,U4*
G36*
X-17439609Y1966235D02*
X-17434270Y1965443D01*
X-17429034Y1964132D01*
X-17423952Y1962313D01*
X-17419073Y1960006D01*
X-17414444Y1957231D01*
X-17410108Y1954016D01*
X-17406109Y1950391D01*
X-17402484Y1946392D01*
X-17399269Y1942056D01*
X-17396494Y1937427D01*
X-17394187Y1932548D01*
X-17392368Y1927466D01*
X-17391057Y1922230D01*
X-17390265Y1916891D01*
X-17390000Y1911500D01*
X-17390000Y1621500D01*
X-17390265Y1616109D01*
X-17391057Y1610770D01*
X-17392368Y1605534D01*
X-17394187Y1600452D01*
X-17396494Y1595573D01*
X-17399269Y1590944D01*
X-17402484Y1586608D01*
X-17406109Y1582609D01*
X-17410108Y1578984D01*
X-17414444Y1575769D01*
X-17419073Y1572994D01*
X-17423952Y1570687D01*
X-17429034Y1568868D01*
X-17434270Y1567557D01*
X-17439609Y1566765D01*
X-17445000Y1566500D01*
X-17555000Y1566500D01*
X-17560391Y1566765D01*
X-17565730Y1567557D01*
X-17570966Y1568868D01*
X-17576048Y1570687D01*
X-17580927Y1572994D01*
X-17585556Y1575769D01*
X-17589892Y1578984D01*
X-17593891Y1582609D01*
X-17597516Y1586608D01*
X-17600731Y1590944D01*
X-17603506Y1595573D01*
X-17605813Y1600452D01*
X-17607632Y1605534D01*
X-17608943Y1610770D01*
X-17609735Y1616109D01*
X-17610000Y1621500D01*
X-17610000Y1911500D01*
X-17609735Y1916891D01*
X-17608943Y1922230D01*
X-17607632Y1927466D01*
X-17605813Y1932548D01*
X-17603506Y1937427D01*
X-17600731Y1942056D01*
X-17597516Y1946392D01*
X-17593891Y1950391D01*
X-17589892Y1954016D01*
X-17585556Y1957231D01*
X-17580927Y1960006D01*
X-17576048Y1962313D01*
X-17570966Y1964132D01*
X-17565730Y1965443D01*
X-17560391Y1966235D01*
X-17555000Y1966500D01*
X-17445000Y1966500D01*
X-17439609Y1966235D01*
X-17439609Y1966235D01*
G37*
D22*
G04 #@! TD*
G04 #@! TO.P,U4,1*
G04 #@! TO.N,+3V3*
X-17500000Y1766500D03*
D15*
G04 #@! TO.N,N/C*
G04 #@! TO.C,U4*
G36*
X-16985297Y1365778D02*
X-16970736Y1363618D01*
X-16956457Y1360041D01*
X-16942597Y1355082D01*
X-16929290Y1348788D01*
X-16916664Y1341220D01*
X-16904841Y1332452D01*
X-16893934Y1322566D01*
X-16884048Y1311659D01*
X-16875280Y1299836D01*
X-16867712Y1287210D01*
X-16861418Y1273903D01*
X-16856459Y1260043D01*
X-16852882Y1245764D01*
X-16850722Y1231203D01*
X-16850000Y1216500D01*
X-16850000Y916500D01*
X-16850722Y901797D01*
X-16852882Y887236D01*
X-16856459Y872957D01*
X-16861418Y859097D01*
X-16867712Y845790D01*
X-16875280Y833164D01*
X-16884048Y821341D01*
X-16893934Y810434D01*
X-16904841Y800548D01*
X-16916664Y791780D01*
X-16929290Y784212D01*
X-16942597Y777918D01*
X-16956457Y772959D01*
X-16970736Y769382D01*
X-16985297Y767222D01*
X-17000000Y766500D01*
X-17500000Y766500D01*
X-17514703Y767222D01*
X-17529264Y769382D01*
X-17543543Y772959D01*
X-17557403Y777918D01*
X-17570710Y784212D01*
X-17583336Y791780D01*
X-17595159Y800548D01*
X-17606066Y810434D01*
X-17615952Y821341D01*
X-17624720Y833164D01*
X-17632288Y845790D01*
X-17638582Y859097D01*
X-17643541Y872957D01*
X-17647118Y887236D01*
X-17649278Y901797D01*
X-17650000Y916500D01*
X-17650000Y1216500D01*
X-17649278Y1231203D01*
X-17647118Y1245764D01*
X-17643541Y1260043D01*
X-17638582Y1273903D01*
X-17632288Y1287210D01*
X-17624720Y1299836D01*
X-17615952Y1311659D01*
X-17606066Y1322566D01*
X-17595159Y1332452D01*
X-17583336Y1341220D01*
X-17570710Y1348788D01*
X-17557403Y1355082D01*
X-17543543Y1360041D01*
X-17529264Y1363618D01*
X-17514703Y1365778D01*
X-17500000Y1366500D01*
X-17000000Y1366500D01*
X-16985297Y1365778D01*
X-16985297Y1365778D01*
G37*
D23*
G04 #@! TD*
G04 #@! TO.P,U4,5*
G04 #@! TO.N,N/C*
X-17250000Y1066500D03*
D24*
G04 #@! TO.P,R1,1*
G04 #@! TO.N,Net-(D1-Pad1)*
X-15750000Y-2402140D03*
G04 #@! TO.P,R1,2*
G04 #@! TO.N,GND*
X-15750000Y-1304860D03*
G04 #@! TD*
D25*
G04 #@! TO.P,C9,2*
G04 #@! TO.N,GND*
X-2851840Y4896500D03*
G04 #@! TO.P,C9,1*
G04 #@! TO.N,/VBUS*
X-1348160Y4896500D03*
G04 #@! TD*
D26*
G04 #@! TO.P,C2,2*
G04 #@! TO.N,GND*
X-2101360Y-303500D03*
G04 #@! TO.P,C2,1*
G04 #@! TO.N,/OSC_OUT*
X-3198640Y-303500D03*
G04 #@! TD*
D24*
G04 #@! TO.P,C1,2*
G04 #@! TO.N,+3V3*
X-4400000Y2009140D03*
G04 #@! TO.P,C1,1*
G04 #@! TO.N,GND*
X-4400000Y911860D03*
G04 #@! TD*
D26*
G04 #@! TO.P,C4,2*
G04 #@! TO.N,+3V3*
X-5751360Y-3753500D03*
G04 #@! TO.P,C4,1*
G04 #@! TO.N,GND*
X-6848640Y-3753500D03*
G04 #@! TD*
G04 #@! TO.P,C7,2*
G04 #@! TO.N,+3V3*
X-11548640Y4796500D03*
G04 #@! TO.P,C7,1*
G04 #@! TO.N,GND*
X-10451360Y4796500D03*
G04 #@! TD*
D24*
G04 #@! TO.P,C6,2*
G04 #@! TO.N,+3V3*
X-13000000Y-2326640D03*
G04 #@! TO.P,C6,1*
G04 #@! TO.N,GND*
X-13000000Y-1229360D03*
G04 #@! TD*
G04 #@! TO.P,C3,2*
G04 #@! TO.N,GND*
X-4550000Y-4352140D03*
G04 #@! TO.P,C3,1*
G04 #@! TO.N,/OSC_IN*
X-4550000Y-3254860D03*
G04 #@! TD*
D26*
G04 #@! TO.P,C5,2*
G04 #@! TO.N,GND*
X-8151360Y-3753500D03*
G04 #@! TO.P,C5,1*
G04 #@! TO.N,/NRST*
X-9248640Y-3753500D03*
G04 #@! TD*
D27*
G04 #@! TO.P,C8,2*
G04 #@! TO.N,GND*
X-4250000Y4828340D03*
G04 #@! TO.P,C8,1*
G04 #@! TO.N,+3V3*
X-4250000Y3324660D03*
G04 #@! TD*
D28*
G04 #@! TO.N,/D+_PLUG*
X396240Y-1203960D03*
X-15138660Y3353060D03*
G04 #@! TO.N,/D-_PLUG*
X1097280Y1198882D03*
X-12788222Y4023400D03*
G04 #@! TO.N,/NRST*
X-4368109Y-558109D03*
X-9822180Y-3497580D03*
G04 #@! TO.N,GND*
X-8699500Y419100D03*
X-13700000Y-1253500D03*
G04 #@! TO.N,+3V3*
X-3302000Y2362260D03*
X-11658600Y3098800D03*
X-5613400Y-2204720D03*
X-13700000Y-2503500D03*
G04 #@! TO.N,/PA3*
X-6756400Y5054600D03*
X-16789400Y2552700D03*
G04 #@! TD*
D29*
G04 #@! TO.N,/D+*
X-14610080Y855980D02*
X-14610080Y1330960D01*
X-13634720Y-25400D02*
X-13728700Y-25400D01*
X-13728700Y-25400D02*
X-14610080Y855980D01*
X-11511632Y-4951D02*
X-11709400Y-25400D01*
X-11709400Y-25400D02*
X-13639800Y-25400D01*
G04 #@! TO.N,/D+_PLUG*
X-14950442Y3177542D02*
X-15113000Y3340100D01*
X-14579600Y3175000D02*
X-14950442Y3175000D01*
G04 #@! TO.N,/D-*
X-13347700Y1231900D02*
X-13322300Y1257300D01*
X-13347700Y1117600D02*
X-13347700Y1231900D01*
X-11511632Y495429D02*
X-12725529Y495429D01*
X-12725529Y495429D02*
X-13347700Y1117600D01*
G04 #@! TO.N,/D-_PLUG*
X203954Y1198882D02*
X531595Y1198882D01*
X531595Y1198882D02*
X1097280Y1198882D01*
X201418Y1201418D02*
X203954Y1198882D01*
X-12750800Y3708400D02*
X-12750800Y3985978D01*
X-12750800Y3985978D02*
X-12788222Y4023400D01*
X-13258800Y3797300D02*
X-12903200Y4152900D01*
X-13258800Y3124200D02*
X-13258800Y3797300D01*
G04 #@! TO.N,/LED*
X-17018000Y-952500D02*
X-17145000Y-825500D01*
X-13782169Y1996569D02*
X-11511632Y1996569D01*
X-15887700Y2286000D02*
X-14071600Y2286000D01*
X-16535400Y128200D02*
X-16535400Y1638300D01*
X-14071600Y2286000D02*
X-13782169Y1996569D01*
X-16535400Y1638300D02*
X-15887700Y2286000D01*
X-16535400Y76200D02*
X-16535400Y114300D01*
X-17005300Y-393700D02*
X-16535400Y76200D01*
X-17183100Y-876300D02*
X-17005300Y-698500D01*
X-17005300Y-698500D02*
X-17005300Y-393700D01*
G04 #@! TO.N,/NRST*
X-5959192Y-4951D02*
X-5909663Y-54480D01*
X-4920109Y-4951D02*
X-4909820Y-15240D01*
X-5959192Y-4951D02*
X-4920109Y-4951D01*
X-10043160Y-3261360D02*
X-9789160Y-3515360D01*
X-9789160Y-3515360D02*
X-9098280Y-3515360D01*
X-11506200Y-3261360D02*
X-10043160Y-3261360D01*
X-12209780Y-4236720D02*
X-12209780Y-3964940D01*
X-12209780Y-3964940D02*
X-11506200Y-3261360D01*
X-4356100Y-570118D02*
X-4356100Y-571500D01*
X-4926218Y0D02*
X-4356100Y-570118D01*
G04 #@! TO.N,/OSC_IN*
X-1689986Y-3542413D02*
X-1346200Y-3886200D01*
X-4572000Y-3022600D02*
X-4533900Y-3060700D01*
X-4572000Y-1913221D02*
X-4572000Y-3022600D01*
X-5959192Y-1005711D02*
X-5479510Y-1005711D01*
X-5479510Y-1005711D02*
X-4572000Y-1913221D01*
X-1371600Y-3594100D02*
X-1371600Y-4013200D01*
X-4343400Y-3035300D02*
X-1930400Y-3035300D01*
X-1930400Y-3035300D02*
X-1371600Y-3594100D01*
G04 #@! TO.N,/OSC_OUT*
X-2998963Y-1682094D02*
X-2859263Y-1542394D01*
X-2859263Y-1542394D02*
X-3062463Y-1542394D01*
X-2998963Y-1509374D02*
X-2998963Y-1682094D01*
X-3124200Y-1549400D02*
X-2717800Y-1549400D01*
X-3251200Y-279400D02*
X-3251200Y-1422400D01*
X-3251200Y-1422400D02*
X-3124200Y-1549400D01*
X-3225800Y-1828800D02*
X-2921000Y-1524000D01*
X-4088854Y-1828800D02*
X-3225800Y-1828800D01*
X-5173550Y-744104D02*
X-4088854Y-1828800D01*
X-5918200Y-520700D02*
X-5380942Y-520700D01*
X-5380942Y-520700D02*
X-5173550Y-744104D01*
G04 #@! TO.N,/SWCLK*
X-10736932Y-2505581D02*
X-10736932Y-2280791D01*
X-12278360Y-3271520D02*
X-11483340Y-2476500D01*
X-12748260Y-3271520D02*
X-12278360Y-3271520D01*
X-13451840Y-4165600D02*
X-13451840Y-3975100D01*
X-10795000Y-2476500D02*
X-10731500Y-2540000D01*
X-11483340Y-2476500D02*
X-10795000Y-2476500D01*
X-13451840Y-3975100D02*
X-12748260Y-3271520D01*
G04 #@! TO.N,/SWDIO*
X-14052300Y-505331D02*
X-14516100Y-969131D01*
X-11511632Y-505331D02*
X-14052300Y-505331D01*
X-14516100Y-969131D02*
X-14516100Y-3942080D01*
X-14732000Y-4165600D02*
X-14516100Y-3949700D01*
X-14732000Y-4178300D02*
X-14732000Y-4165600D01*
D30*
G04 #@! TO.N,/VBUS*
X-905000Y2413000D02*
X-905000Y3329180D01*
X-855980Y3495040D02*
X317500Y3495040D01*
X-1409700Y5029200D02*
X-1407160Y5029200D01*
X-906780Y3403600D02*
X-906780Y4526280D01*
X-906780Y4526280D02*
X-1409700Y5029200D01*
D29*
G04 #@! TO.N,GND*
X1200000Y5000000D02*
X1200000Y5023000D01*
X1200000Y5023000D02*
X1016000Y5207000D01*
D31*
X-7694012Y1536829D02*
X-7694012Y1500788D01*
X-9776812Y1536829D02*
X-9776812Y1496412D01*
X-9776812Y1496412D02*
X-7772400Y-508000D01*
X-7694012Y1536829D02*
X-7694012Y1475388D01*
X-8699500Y469900D02*
X-8699500Y419100D01*
X-8699500Y419100D02*
X-7785100Y-495300D01*
D29*
X-8737600Y457200D02*
X-8699500Y419100D01*
D31*
X-7694012Y1500788D02*
X-8737600Y457200D01*
D32*
X-5959192Y495429D02*
X-4546471Y495429D01*
D29*
X-1981200Y-203200D02*
X-1930400Y-254000D01*
X-1930400Y-254000D02*
X-1651000Y-254000D01*
X-3656330Y762000D02*
X-1981200Y762000D01*
X-1981200Y762000D02*
X-1981200Y-203200D01*
X-4368800Y924560D02*
X-3818890Y924560D01*
D33*
X-1320800Y-1270000D02*
X-1543050Y-1270000D01*
D34*
X-1320800Y-543560D02*
X-1320800Y-1270000D01*
X-2143760Y-279400D02*
X-1584960Y-279400D01*
X-1584960Y-279400D02*
X-1320800Y-543560D01*
D35*
X-3505200Y-4318000D02*
X-4394200Y-4318000D01*
D29*
X-4445000Y591820D02*
X-4445000Y889000D01*
D32*
X-4544060Y492760D02*
X-4445000Y591820D01*
D36*
X-11511632Y-1005711D02*
X-11986282Y-1005711D01*
D29*
X-15021560Y-3089910D02*
X-15281910Y-3350260D01*
X1200000Y-5000000D02*
X1079340Y-4879340D01*
X1079340Y-4879340D02*
X391160Y-4879340D01*
D31*
X-7719412Y1511429D02*
X-7719412Y1115412D01*
X-7719412Y1115412D02*
X-7768024Y1066800D01*
X-7768024Y1066800D02*
X-9372600Y1066800D01*
X-9779000Y1473200D02*
X-9779000Y1447800D01*
X-9779000Y1447800D02*
X-9372600Y1041400D01*
X-9372600Y1041400D02*
X-8102600Y1041400D01*
X-7719412Y-520571D02*
X-7861429Y-520571D01*
X-9751412Y1511429D02*
X-9690229Y1511429D01*
X-9690229Y1409829D02*
X-9296400Y1016000D01*
X-9690229Y1511429D02*
X-9690229Y1409829D01*
X-9690229Y1511429D02*
X-9271000Y1092200D01*
X-7719412Y-520571D02*
X-7785229Y-520571D01*
X-7785229Y-495171D02*
X-8229600Y-50800D01*
X-7785229Y-520571D02*
X-7785229Y-495171D01*
D33*
X-7167880Y-2280920D02*
X-6845300Y-2280920D01*
D37*
X-10414000Y4508500D02*
X-10414000Y3411220D01*
X-10629900Y3390900D02*
X-10309860Y3390900D01*
D36*
X-12158571Y-1015870D02*
X-12257632Y-1114931D01*
X-12257632Y-1114931D02*
X-12672412Y-1114931D01*
X-11976100Y-1005840D02*
X-11986130Y-1015870D01*
X-11986130Y-1015870D02*
X-12158571Y-1015870D01*
D29*
X-18084800Y3810000D02*
X-16560800Y5334000D01*
X-18084800Y355600D02*
X-18084800Y3810000D01*
X-18097500Y342900D02*
X-18084800Y355600D01*
X-18097500Y-3035300D02*
X-18097500Y342900D01*
X-15265400Y-3352800D02*
X-17780000Y-3352800D01*
X-17780000Y-3352800D02*
X-18097500Y-3035300D01*
D38*
X-14500860Y1844040D02*
X-14404340Y1844040D01*
X-15618460Y1844040D02*
X-14500860Y1844040D01*
X-15659100Y1803400D02*
X-15618460Y1844040D01*
X-15659100Y1473200D02*
X-15659100Y1803400D01*
D29*
X-13163017Y-1257300D02*
X-13728702Y-1257300D01*
X-12672412Y-1114931D02*
X-12814781Y-1257300D01*
X-12814781Y-1257300D02*
X-13163017Y-1257300D01*
X-10414000Y4419600D02*
X-10414000Y4953000D01*
D38*
X-13954760Y1483360D02*
X-13954760Y1285240D01*
X-14411960Y1844040D02*
X-14315440Y1844040D01*
X-14315440Y1844040D02*
X-13954760Y1483360D01*
X-15659100Y992951D02*
X-15659100Y1460500D01*
X-15163800Y497651D02*
X-15659100Y992951D01*
X-15163800Y-1054100D02*
X-15163800Y497651D01*
X-15024100Y-1193800D02*
X-15163800Y-1054100D01*
X-15011400Y-3098800D02*
X-15024100Y-3086100D01*
X-15024100Y-3086100D02*
X-15024100Y-1193800D01*
D29*
X-15064740Y-1280160D02*
X-15049500Y-1295400D01*
X-15697200Y-1280160D02*
X-15064740Y-1280160D01*
D39*
X-4610100Y4823460D02*
X-2959100Y4826000D01*
D34*
X-2910840Y3436620D02*
X-2819400Y3436620D01*
X-2921000Y3446780D02*
X-2910840Y3436620D01*
X-2921000Y4429760D02*
X-2921000Y3446780D01*
D40*
X-6692900Y-3581400D02*
X-6731000Y-3619500D01*
X-6756400Y-2260600D02*
X-6692900Y-2324100D01*
X-6692900Y-2324100D02*
X-6692900Y-3581400D01*
D29*
X-7112000Y-4508500D02*
X-6788150Y-4184650D01*
X-6788150Y-3543300D02*
X-7042150Y-3797300D01*
X-10198100Y-4508500D02*
X-7112000Y-4508500D01*
X-6788150Y-4184650D02*
X-6788150Y-3543300D01*
X-10876280Y-4163060D02*
X-10543540Y-4163060D01*
X-10543540Y-4163060D02*
X-10198100Y-4508500D01*
X393700Y5829300D02*
X1143000Y5080000D01*
X-2425700Y5829300D02*
X393700Y5829300D01*
D35*
X-3719830Y825500D02*
X-3656330Y762000D01*
X-4127500Y825500D02*
X-3719830Y825500D01*
D38*
X-16258540Y5638800D02*
X-16550640Y5346700D01*
X-12179580Y5638800D02*
X-16258540Y5638800D01*
X-12170969Y5647411D02*
X-12179580Y5638800D01*
X-10401300Y5003800D02*
X-10401300Y5308600D01*
X-10740111Y5647411D02*
X-12170969Y5647411D01*
X-10401300Y5308600D02*
X-10740111Y5647411D01*
D29*
X-2730500Y5816600D02*
X-2425700Y5816600D01*
X-2933700Y5613400D02*
X-2730500Y5816600D01*
X-3180080Y4968240D02*
X-2933700Y5130800D01*
X-2933700Y5130800D02*
X-2933700Y5613400D01*
X-8128000Y-3759200D02*
X-7042150Y-3759200D01*
X-8153400Y-3733800D02*
X-8128000Y-3759200D01*
X-18084800Y406400D02*
X-18084800Y355600D01*
X-17449800Y368300D02*
X-18046700Y368300D01*
X-18046700Y368300D02*
X-18084800Y406400D01*
D36*
G04 #@! TO.N,+3V3*
X-11633200Y2654300D02*
X-11480800Y2501900D01*
D34*
X-11633200Y3797300D02*
X-11633200Y2654300D01*
D36*
X-11511632Y2496949D02*
X-12961749Y2496949D01*
D37*
X-5651500Y-1549400D02*
X-5638800Y-1562100D01*
D36*
X-5189091Y995809D02*
X-5179060Y1005840D01*
X-5959192Y995809D02*
X-5189091Y995809D01*
D35*
X-3614420Y1496060D02*
X-2816860Y1496060D01*
X-4140200Y2021840D02*
X-3614420Y1496060D01*
X-4307840Y2021840D02*
X-4140200Y2021840D01*
D34*
X-4470400Y3098800D02*
X-4470400Y2184400D01*
X-4470400Y2184400D02*
X-4307840Y2021840D01*
X-2976940Y2362260D02*
X-3302000Y2362260D01*
X-2847340Y1574800D02*
X-2847340Y2232660D01*
X-2847340Y2232660D02*
X-2976940Y2362260D01*
X-12264871Y-2354580D02*
X-11480800Y-1570509D01*
X-12585700Y-2354580D02*
X-12264871Y-2354580D01*
X-13528040Y-2537460D02*
X-12768580Y-2537460D01*
X-12768580Y-2537460D02*
X-12585700Y-2354580D01*
X-11633200Y3266440D02*
X-11549380Y3182620D01*
X-11633200Y3740756D02*
X-11633200Y3266440D01*
D36*
X-13944600Y2804160D02*
X-13944600Y3111500D01*
X-12903200Y2489200D02*
X-13637389Y2496949D01*
X-13637389Y2496949D02*
X-13944600Y2804160D01*
D34*
X-11635740Y3850640D02*
X-11633200Y3848100D01*
X-11633200Y4902200D02*
X-11635740Y4378960D01*
X-11635740Y4378960D02*
X-11635740Y3850640D01*
D37*
X-5143500Y1092200D02*
X-5143500Y1930400D01*
X-5194300Y1041400D02*
X-5143500Y1092200D01*
D35*
X-5054600Y2006600D02*
X-4577844Y2006600D01*
X-5143500Y1917700D02*
X-5054600Y2006600D01*
X-5613400Y-4470400D02*
X-5613400Y-1600200D01*
X-6248400Y-5105400D02*
X-5613400Y-4470400D01*
X-16002000Y-4191000D02*
X-16002000Y-4572000D01*
X-15468600Y-5105400D02*
X-6248400Y-5105400D01*
X-16002000Y-4572000D02*
X-15468600Y-5105400D01*
D29*
X-17500600Y2844800D02*
X-17500600Y1778000D01*
X-16979900Y3365500D02*
X-17500600Y2844800D01*
X-13186988Y4749800D02*
X-13860088Y4076700D01*
X-13860088Y4076700D02*
X-15455900Y4076700D01*
X-16167100Y3365500D02*
X-16979900Y3365500D01*
X-11747500Y4749800D02*
X-13186988Y4749800D01*
X-11734800Y4762500D02*
X-11747500Y4749800D01*
X-15455900Y4076700D02*
X-16167100Y3365500D01*
G04 #@! TO.N,Net-(D1-Pad1)*
X-15786100Y-2387600D02*
X-15735300Y-2336800D01*
X-17094200Y-2387600D02*
X-15786100Y-2387600D01*
G04 #@! TO.N,/PA3*
X-6733892Y3271649D02*
X-6731000Y3274541D01*
X-6731000Y4978400D02*
X-6756400Y5003800D01*
X-6731000Y3238500D02*
X-6731000Y4978400D01*
X-16992600Y2311400D02*
X-16827500Y2476500D01*
X-16992600Y1866900D02*
X-16992600Y2311400D01*
G04 #@! TD*
D41*
G04 #@! TO.N,GND*
G36*
X220093Y4827824D02*
X228947Y4789823D01*
X251669Y4758104D01*
X298814Y4733359D01*
X910026Y4600598D01*
X912506Y4592297D01*
X1186082Y4532342D01*
X1207026Y4536087D01*
X2263471Y4306618D01*
X2263470Y-4620159D01*
X1490171Y-4601258D01*
X1487494Y-4592297D01*
X1213918Y-4532342D01*
X938223Y-4581645D01*
X912506Y-4592297D01*
X903471Y-4622543D01*
X358136Y-4678258D01*
X320840Y-4689720D01*
X290769Y-4714582D01*
X270572Y-4756546D01*
X20779Y-5908370D01*
X-18138470Y-5908370D01*
X-18138470Y-2052800D01*
X-17960935Y-2052800D01*
X-17960935Y-2752800D01*
X-17933460Y-2890924D01*
X-17855220Y-3008020D01*
X-17738124Y-3086260D01*
X-17600000Y-3113735D01*
X-16900000Y-3113735D01*
X-16761876Y-3086260D01*
X-16644780Y-3008020D01*
X-16566540Y-2890924D01*
X-16556794Y-2841930D01*
X-16448491Y-2841930D01*
X-16432710Y-2921264D01*
X-16354470Y-3038360D01*
X-16237374Y-3116600D01*
X-16099250Y-3144075D01*
X-15400750Y-3144075D01*
X-15262626Y-3116600D01*
X-15145530Y-3038360D01*
X-15067290Y-2921264D01*
X-15039815Y-2783140D01*
X-15039815Y-2021140D01*
X-15067290Y-1883016D01*
X-15087018Y-1853491D01*
X-15046750Y-1756275D01*
X-15046750Y-1547360D01*
X-15135250Y-1458860D01*
X-15596000Y-1458860D01*
X-15596000Y-1478860D01*
X-15904000Y-1478860D01*
X-15904000Y-1458860D01*
X-16364750Y-1458860D01*
X-16453250Y-1547360D01*
X-16453250Y-1756275D01*
X-16412982Y-1853491D01*
X-16432710Y-1883016D01*
X-16442706Y-1933270D01*
X-16562841Y-1933270D01*
X-16566540Y-1914676D01*
X-16644780Y-1797580D01*
X-16761876Y-1719340D01*
X-16900000Y-1691865D01*
X-17600000Y-1691865D01*
X-17738124Y-1719340D01*
X-17855220Y-1797580D01*
X-17933460Y-1914676D01*
X-17960935Y-2052800D01*
X-18138470Y-2052800D01*
X-18138470Y178000D01*
X-17964000Y178000D01*
X-17964000Y96085D01*
X-17910107Y-34025D01*
X-17810525Y-133607D01*
X-17680415Y-187500D01*
X-17643500Y-187500D01*
X-17555000Y-99000D01*
X-17555000Y266500D01*
X-17875500Y266500D01*
X-17964000Y178000D01*
X-18138470Y178000D01*
X-18138470Y1216500D01*
X-18010935Y1216500D01*
X-18010935Y916500D01*
X-17972042Y720974D01*
X-17945584Y681376D01*
X-17964000Y636915D01*
X-17964000Y555000D01*
X-17875500Y466500D01*
X-17728515Y466500D01*
X-17695526Y444458D01*
X-17500000Y405565D01*
X-17470935Y405565D01*
X-17470935Y221500D01*
X-17445000Y91116D01*
X-17445000Y-99000D01*
X-17390932Y-153068D01*
X-17417790Y-193265D01*
X-17600000Y-193265D01*
X-17738124Y-220740D01*
X-17855220Y-298980D01*
X-17933460Y-416076D01*
X-17960935Y-554200D01*
X-17960935Y-1254200D01*
X-17933460Y-1392324D01*
X-17855220Y-1509420D01*
X-17738124Y-1587660D01*
X-17600000Y-1615135D01*
X-16900000Y-1615135D01*
X-16761876Y-1587660D01*
X-16644780Y-1509420D01*
X-16566540Y-1392324D01*
X-16539065Y-1254200D01*
X-16539065Y-853445D01*
X-16453250Y-853445D01*
X-16453250Y-1062360D01*
X-16364750Y-1150860D01*
X-15904000Y-1150860D01*
X-15904000Y-658360D01*
X-15596000Y-658360D01*
X-15596000Y-1150860D01*
X-15135250Y-1150860D01*
X-15046750Y-1062360D01*
X-15046750Y-853445D01*
X-15100643Y-723335D01*
X-15200225Y-623753D01*
X-15330335Y-569860D01*
X-15507500Y-569860D01*
X-15596000Y-658360D01*
X-15904000Y-658360D01*
X-15992500Y-569860D01*
X-16169665Y-569860D01*
X-16299775Y-623753D01*
X-16399357Y-723335D01*
X-16453250Y-853445D01*
X-16539065Y-853445D01*
X-16539065Y-569984D01*
X-16245777Y-276697D01*
X-16207847Y-251353D01*
X-16175318Y-202671D01*
X-16112249Y-108280D01*
X-16107431Y-101070D01*
X-16081070Y31456D01*
X-16081070Y31461D01*
X-16072171Y76200D01*
X-16081070Y120939D01*
X-16081070Y1450111D01*
X-15699510Y1831670D01*
X-15045430Y1831670D01*
X-15105220Y1791720D01*
X-15183460Y1674624D01*
X-15210935Y1536500D01*
X-15210935Y1036500D01*
X-15183460Y898376D01*
X-15105220Y781280D01*
X-15051283Y745241D01*
X-15038049Y678711D01*
X-14937633Y528427D01*
X-14899700Y503081D01*
X-14283334Y-113285D01*
X-14337532Y-149500D01*
X-14379853Y-177778D01*
X-14405197Y-215708D01*
X-14805720Y-616232D01*
X-14843653Y-641578D01*
X-14944069Y-791862D01*
X-14970430Y-924388D01*
X-14970430Y-924392D01*
X-14979329Y-969131D01*
X-14970430Y-1013870D01*
X-14970429Y-3460937D01*
X-15159107Y-3539089D01*
X-15367000Y-3746982D01*
X-15574893Y-3539089D01*
X-15852020Y-3424300D01*
X-16151980Y-3424300D01*
X-16429107Y-3539089D01*
X-16641211Y-3751193D01*
X-16756000Y-4028320D01*
X-16756000Y-4328280D01*
X-16641211Y-4605407D01*
X-16540094Y-4706524D01*
X-16523856Y-4788159D01*
X-16432318Y-4925155D01*
X-16432316Y-4925157D01*
X-16401410Y-4971411D01*
X-16355156Y-5002317D01*
X-15898918Y-5458556D01*
X-15868011Y-5504811D01*
X-15684760Y-5627256D01*
X-15523162Y-5659400D01*
X-15523158Y-5659400D01*
X-15468600Y-5670252D01*
X-15414042Y-5659400D01*
X-6302958Y-5659400D01*
X-6248400Y-5670252D01*
X-6193842Y-5659400D01*
X-6193838Y-5659400D01*
X-6032240Y-5627256D01*
X-5848989Y-5504811D01*
X-5818081Y-5458554D01*
X-5260243Y-4900717D01*
X-5223244Y-4875995D01*
X-5199357Y-4933665D01*
X-5099775Y-5033247D01*
X-4969665Y-5087140D01*
X-4792500Y-5087140D01*
X-4704000Y-4998640D01*
X-4704000Y-4506140D01*
X-4724000Y-4506140D01*
X-4724000Y-4198140D01*
X-4704000Y-4198140D01*
X-4704000Y-4178140D01*
X-4396000Y-4178140D01*
X-4396000Y-4198140D01*
X-4376000Y-4198140D01*
X-4376000Y-4506140D01*
X-4396000Y-4506140D01*
X-4396000Y-4998640D01*
X-4307500Y-5087140D01*
X-4130335Y-5087140D01*
X-4000225Y-5033247D01*
X-3956227Y-4989249D01*
X-3950107Y-5004025D01*
X-3850525Y-5103607D01*
X-3720415Y-5157500D01*
X-3292500Y-5157500D01*
X-3204000Y-5069000D01*
X-3204000Y-4257500D01*
X-3224000Y-4257500D01*
X-3224000Y-3949500D01*
X-3204000Y-3949500D01*
X-3204000Y-3929500D01*
X-2896000Y-3929500D01*
X-2896000Y-3949500D01*
X-2876000Y-3949500D01*
X-2876000Y-4257500D01*
X-2896000Y-4257500D01*
X-2896000Y-5069000D01*
X-2807500Y-5157500D01*
X-2379585Y-5157500D01*
X-2249475Y-5103607D01*
X-2204841Y-5058973D01*
X-2088124Y-5136960D01*
X-1950000Y-5164435D01*
X-750000Y-5164435D01*
X-611876Y-5136960D01*
X-494780Y-5058720D01*
X-416540Y-4941624D01*
X-389065Y-4803500D01*
X-389065Y-3742500D01*
X-354000Y-3742500D01*
X-354000Y-4170415D01*
X-300107Y-4300525D01*
X-200525Y-4400107D01*
X-70415Y-4454000D01*
X507500Y-4454000D01*
X596000Y-4365500D01*
X596000Y-3654000D01*
X904000Y-3654000D01*
X904000Y-4365500D01*
X992500Y-4454000D01*
X1570415Y-4454000D01*
X1700525Y-4400107D01*
X1800107Y-4300525D01*
X1854000Y-4170415D01*
X1854000Y-3742500D01*
X1765500Y-3654000D01*
X904000Y-3654000D01*
X596000Y-3654000D01*
X-265500Y-3654000D01*
X-354000Y-3742500D01*
X-389065Y-3742500D01*
X-389065Y-3403500D01*
X-416540Y-3265376D01*
X-494780Y-3148280D01*
X-611876Y-3070040D01*
X-750000Y-3042565D01*
X-1280616Y-3042565D01*
X-1504000Y-2819181D01*
X-1504000Y-2057500D01*
X-1196000Y-2057500D01*
X-1196000Y-2869000D01*
X-1107500Y-2957500D01*
X-679585Y-2957500D01*
X-549475Y-2903607D01*
X-475453Y-2829585D01*
X-354000Y-2829585D01*
X-354000Y-3257500D01*
X-265500Y-3346000D01*
X596000Y-3346000D01*
X596000Y-2634500D01*
X904000Y-2634500D01*
X904000Y-3346000D01*
X1765500Y-3346000D01*
X1854000Y-3257500D01*
X1854000Y-2829585D01*
X1800107Y-2699475D01*
X1700525Y-2599893D01*
X1570415Y-2546000D01*
X992500Y-2546000D01*
X904000Y-2634500D01*
X596000Y-2634500D01*
X507500Y-2546000D01*
X-70415Y-2546000D01*
X-200525Y-2599893D01*
X-300107Y-2699475D01*
X-354000Y-2829585D01*
X-475453Y-2829585D01*
X-449893Y-2804025D01*
X-396000Y-2673915D01*
X-396000Y-2146000D01*
X-484500Y-2057500D01*
X-1196000Y-2057500D01*
X-1504000Y-2057500D01*
X-1524000Y-2057500D01*
X-1524000Y-1749500D01*
X-1504000Y-1749500D01*
X-1504000Y-938000D01*
X-1196000Y-938000D01*
X-1196000Y-1749500D01*
X-484500Y-1749500D01*
X-396000Y-1661000D01*
X-396000Y-1133085D01*
X-449893Y-1002975D01*
X-549475Y-903393D01*
X-679585Y-849500D01*
X-1107500Y-849500D01*
X-1196000Y-938000D01*
X-1504000Y-938000D01*
X-1504489Y-937511D01*
X-1420253Y-853275D01*
X-1366360Y-723165D01*
X-1366360Y-700000D01*
X-360935Y-700000D01*
X-360935Y-1300000D01*
X-357760Y-1315962D01*
X-357760Y-1353940D01*
X-343226Y-1389028D01*
X-310624Y-1552929D01*
X-167352Y-1767352D01*
X47071Y-1910624D01*
X210428Y-1943118D01*
X246260Y-1957960D01*
X285044Y-1957960D01*
X300000Y-1960935D01*
X1200000Y-1960935D01*
X1452929Y-1910624D01*
X1667352Y-1767352D01*
X1810624Y-1552929D01*
X1860935Y-1300000D01*
X1860935Y-700000D01*
X1810624Y-447071D01*
X1667352Y-232648D01*
X1452929Y-89376D01*
X1200000Y-39065D01*
X300000Y-39065D01*
X47071Y-89376D01*
X-167352Y-232648D01*
X-310624Y-447071D01*
X-360935Y-700000D01*
X-1366360Y-700000D01*
X-1366360Y-546000D01*
X-1454860Y-457500D01*
X-1947360Y-457500D01*
X-1947360Y-477500D01*
X-2255360Y-477500D01*
X-2255360Y-457500D01*
X-2275360Y-457500D01*
X-2275360Y-149500D01*
X-2255360Y-149500D01*
X-2255360Y311250D01*
X-1947360Y311250D01*
X-1947360Y-149500D01*
X-1454860Y-149500D01*
X-1366360Y-61000D01*
X-1366360Y116165D01*
X-1420253Y246275D01*
X-1519835Y345857D01*
X-1649945Y399750D01*
X-1858860Y399750D01*
X-1947360Y311250D01*
X-2255360Y311250D01*
X-2343860Y399750D01*
X-2552775Y399750D01*
X-2649991Y359482D01*
X-2679516Y379210D01*
X-2817640Y406685D01*
X-3579640Y406685D01*
X-3717764Y379210D01*
X-3735233Y367538D01*
X-3696750Y460445D01*
X-3696750Y669360D01*
X-3785248Y757858D01*
X-3696750Y757858D01*
X-3696750Y873800D01*
X-3668524Y854940D01*
X-3530400Y827465D01*
X-2630400Y827465D01*
X-2492276Y854940D01*
X-2375180Y933180D01*
X-2296940Y1050276D01*
X-2269465Y1188400D01*
X-2269465Y1300000D01*
X-360935Y1300000D01*
X-360935Y700000D01*
X-310624Y447071D01*
X-167352Y232648D01*
X47071Y89376D01*
X300000Y39065D01*
X1200000Y39065D01*
X1452929Y89376D01*
X1667352Y232648D01*
X1810624Y447071D01*
X1860935Y700000D01*
X1860935Y1300000D01*
X1851280Y1348539D01*
X1851280Y1348862D01*
X1851156Y1349161D01*
X1810624Y1552929D01*
X1667352Y1767352D01*
X1452929Y1910624D01*
X1253520Y1950289D01*
X1247260Y1952882D01*
X1240485Y1952882D01*
X1200000Y1960935D01*
X300000Y1960935D01*
X47071Y1910624D01*
X-167352Y1767352D01*
X-310624Y1552929D01*
X-360935Y1300000D01*
X-2269465Y1300000D01*
X-2269465Y1408293D01*
X-2252007Y1496060D01*
X-2269465Y1583827D01*
X-2269465Y1788400D01*
X-2296940Y1926524D01*
X-2302840Y1935354D01*
X-2302840Y2179040D01*
X-2292174Y2232661D01*
X-2302840Y2286282D01*
X-2302840Y2286286D01*
X-2334433Y2445113D01*
X-2454778Y2625222D01*
X-2500242Y2655600D01*
X-2554000Y2709358D01*
X-2570732Y2734400D01*
X-2559985Y2734400D01*
X-2429875Y2788293D01*
X-2330293Y2887875D01*
X-2276400Y3017985D01*
X-2276400Y3149900D01*
X-2364900Y3238400D01*
X-2926400Y3238400D01*
X-2926400Y3214400D01*
X-3221434Y3214400D01*
X-3234400Y3672374D01*
X-3234400Y3953900D01*
X-2926400Y3953900D01*
X-2926400Y3538400D01*
X-2364900Y3538400D01*
X-2276400Y3626900D01*
X-2276400Y3758815D01*
X-2330293Y3888925D01*
X-2429875Y3988507D01*
X-2559309Y4042120D01*
X-2331845Y4042120D01*
X-2201735Y4096013D01*
X-2102153Y4195595D01*
X-2097313Y4207280D01*
X-2052960Y4140900D01*
X-1935864Y4062660D01*
X-1797740Y4035185D01*
X-1510779Y4035185D01*
X-1510780Y3344112D01*
X-1508999Y3335158D01*
X-1508999Y2958630D01*
X-1563860Y2876524D01*
X-1591335Y2738400D01*
X-1591335Y2138400D01*
X-1563860Y2000276D01*
X-1485620Y1883180D01*
X-1368524Y1804940D01*
X-1230400Y1777465D01*
X-330400Y1777465D01*
X-192276Y1804940D01*
X-75180Y1883180D01*
X3060Y2000276D01*
X30535Y2138400D01*
X30535Y2600545D01*
X47071Y2589496D01*
X300000Y2539185D01*
X1200000Y2539185D01*
X1452929Y2589496D01*
X1667352Y2732768D01*
X1810624Y2947191D01*
X1860935Y3200120D01*
X1860935Y3800120D01*
X1810624Y4053049D01*
X1667352Y4267472D01*
X1452929Y4410744D01*
X1200000Y4461055D01*
X300000Y4461055D01*
X47071Y4410744D01*
X-167352Y4267472D01*
X-279894Y4099040D01*
X-302780Y4099040D01*
X-302780Y4466793D01*
X-290947Y4526281D01*
X-302794Y4585840D01*
X-337824Y4761949D01*
X-471320Y4961740D01*
X-521754Y4995439D01*
X-537645Y5011330D01*
X-537645Y5396880D01*
X-565120Y5535004D01*
X-643360Y5652100D01*
X-760456Y5730340D01*
X-898580Y5757815D01*
X-1797740Y5757815D01*
X-1935864Y5730340D01*
X-2052960Y5652100D01*
X-2097313Y5585720D01*
X-2102153Y5597405D01*
X-2201735Y5696987D01*
X-2331845Y5750880D01*
X-2609340Y5750880D01*
X-2697840Y5662380D01*
X-2697840Y5050500D01*
X-2677840Y5050500D01*
X-2677840Y4742500D01*
X-2697840Y4742500D01*
X-2697840Y4130620D01*
X-2609620Y4042400D01*
X-2837900Y4042400D01*
X-2926400Y3953900D01*
X-3234400Y3953900D01*
X-3242603Y3962103D01*
X-3244868Y4042120D01*
X-3094340Y4042120D01*
X-3005840Y4130620D01*
X-3005840Y4742500D01*
X-3025840Y4742500D01*
X-3025840Y5050500D01*
X-3005840Y5050500D01*
X-3005840Y5662380D01*
X-3094340Y5750880D01*
X-3371835Y5750880D01*
X-3501945Y5696987D01*
X-3599872Y5599060D01*
X-3679205Y5631920D01*
X-4007500Y5631920D01*
X-4096000Y5543420D01*
X-4096000Y5268235D01*
X-4116539Y5252369D01*
X-4135937Y5218515D01*
X-4140904Y5179814D01*
X-4104740Y4654340D01*
X-4404000Y4654340D01*
X-4404000Y4674340D01*
X-5015880Y4674340D01*
X-5104380Y4585840D01*
X-5104380Y4308345D01*
X-5050487Y4178235D01*
X-4950905Y4078653D01*
X-4939220Y4073813D01*
X-5005600Y4029460D01*
X-5083840Y3912364D01*
X-5111315Y3774240D01*
X-5111315Y2875080D01*
X-5083840Y2736956D01*
X-5014899Y2633778D01*
X-5014899Y2629751D01*
X-5053941Y2571321D01*
X-5054600Y2571452D01*
X-5109158Y2560600D01*
X-5109162Y2560600D01*
X-5189065Y2544706D01*
X-5189065Y2636500D01*
X-5216540Y2774624D01*
X-5294780Y2891720D01*
X-5411876Y2969960D01*
X-5550000Y2997435D01*
X-6199065Y2997435D01*
X-6199065Y3646500D01*
X-6226540Y3784624D01*
X-6276670Y3859650D01*
X-6276670Y4468012D01*
X-6117189Y4627493D01*
X-6002400Y4904620D01*
X-6002400Y5204580D01*
X-6061944Y5348335D01*
X-5104380Y5348335D01*
X-5104380Y5070840D01*
X-5015880Y4982340D01*
X-4404000Y4982340D01*
X-4404000Y5543420D01*
X-4492500Y5631920D01*
X-4820795Y5631920D01*
X-4950905Y5578027D01*
X-5050487Y5478445D01*
X-5104380Y5348335D01*
X-6061944Y5348335D01*
X-6117189Y5481707D01*
X-6329293Y5693811D01*
X-6606420Y5808600D01*
X-6906380Y5808600D01*
X-7183507Y5693811D01*
X-7395611Y5481707D01*
X-7510400Y5204580D01*
X-7510400Y4904620D01*
X-7395611Y4627493D01*
X-7185329Y4417211D01*
X-7185330Y4007435D01*
X-7340000Y4007435D01*
X-7450000Y3985554D01*
X-7560000Y4007435D01*
X-7840000Y4007435D01*
X-7950000Y3985554D01*
X-8060000Y4007435D01*
X-8340000Y4007435D01*
X-8450000Y3985554D01*
X-8560000Y4007435D01*
X-8840000Y4007435D01*
X-8950000Y3985554D01*
X-9060000Y4007435D01*
X-9340000Y4007435D01*
X-9450000Y3985554D01*
X-9560000Y4007435D01*
X-9840000Y4007435D01*
X-9952366Y3985084D01*
X-9989585Y4000500D01*
X-10041500Y4000500D01*
X-10071810Y3970190D01*
X-10321147Y3963147D01*
X-10358500Y4000500D01*
X-10410415Y4000500D01*
X-10450000Y3984103D01*
X-10489585Y4000500D01*
X-10541500Y4000500D01*
X-10586344Y3955656D01*
X-10807411Y3949411D01*
X-10858500Y4000500D01*
X-10910415Y4000500D01*
X-11040525Y3946607D01*
X-11088154Y3898978D01*
X-11091240Y3914491D01*
X-11091240Y4101512D01*
X-11029516Y4113790D01*
X-10999991Y4133518D01*
X-10902775Y4093250D01*
X-10693860Y4093250D01*
X-10605360Y4181750D01*
X-10605360Y4642500D01*
X-10297360Y4642500D01*
X-10297360Y4181750D01*
X-10208860Y4093250D01*
X-9999945Y4093250D01*
X-9869835Y4147143D01*
X-9770253Y4246725D01*
X-9716360Y4376835D01*
X-9716360Y4554000D01*
X-9804860Y4642500D01*
X-10297360Y4642500D01*
X-10605360Y4642500D01*
X-10625360Y4642500D01*
X-10625360Y4950500D01*
X-10605360Y4950500D01*
X-10605360Y5411250D01*
X-10297360Y5411250D01*
X-10297360Y4950500D01*
X-9804860Y4950500D01*
X-9716360Y5039000D01*
X-9716360Y5216165D01*
X-9770253Y5346275D01*
X-9869835Y5445857D01*
X-9999945Y5499750D01*
X-10208860Y5499750D01*
X-10297360Y5411250D01*
X-10605360Y5411250D01*
X-10693860Y5499750D01*
X-10902775Y5499750D01*
X-10999991Y5459482D01*
X-11029516Y5479210D01*
X-11167640Y5506685D01*
X-11929640Y5506685D01*
X-12067764Y5479210D01*
X-12184860Y5400970D01*
X-12263100Y5283874D01*
X-12278962Y5204130D01*
X-13142250Y5204130D01*
X-13186989Y5213029D01*
X-13231728Y5204130D01*
X-13231732Y5204130D01*
X-13364258Y5177769D01*
X-13364259Y5177768D01*
X-13364260Y5177768D01*
X-13412178Y5145750D01*
X-13514541Y5077353D01*
X-13539885Y5039423D01*
X-14048277Y4531030D01*
X-15411157Y4531030D01*
X-15455900Y4539930D01*
X-15500643Y4531030D01*
X-15500644Y4531030D01*
X-15633170Y4504669D01*
X-15783453Y4404253D01*
X-15808798Y4366321D01*
X-16355289Y3819830D01*
X-16935162Y3819830D01*
X-16979901Y3828729D01*
X-17024640Y3819830D01*
X-17024644Y3819830D01*
X-17157170Y3793469D01*
X-17209033Y3758815D01*
X-17246502Y3733779D01*
X-17307453Y3693053D01*
X-17332797Y3655123D01*
X-17790220Y3197699D01*
X-17828153Y3172353D01*
X-17928569Y3022069D01*
X-17954930Y2889543D01*
X-17954930Y2889539D01*
X-17963829Y2844800D01*
X-17954930Y2800061D01*
X-17954929Y1991967D01*
X-17970935Y1911500D01*
X-17970935Y1621500D01*
X-17939274Y1462329D01*
X-17938852Y1461698D01*
X-17972042Y1412026D01*
X-18010935Y1216500D01*
X-18138470Y1216500D01*
X-18138470Y5908370D01*
X184887Y5908370D01*
X220093Y4827824D01*
X220093Y4827824D01*
G37*
X220093Y4827824D02*
X228947Y4789823D01*
X251669Y4758104D01*
X298814Y4733359D01*
X910026Y4600598D01*
X912506Y4592297D01*
X1186082Y4532342D01*
X1207026Y4536087D01*
X2263471Y4306618D01*
X2263470Y-4620159D01*
X1490171Y-4601258D01*
X1487494Y-4592297D01*
X1213918Y-4532342D01*
X938223Y-4581645D01*
X912506Y-4592297D01*
X903471Y-4622543D01*
X358136Y-4678258D01*
X320840Y-4689720D01*
X290769Y-4714582D01*
X270572Y-4756546D01*
X20779Y-5908370D01*
X-18138470Y-5908370D01*
X-18138470Y-2052800D01*
X-17960935Y-2052800D01*
X-17960935Y-2752800D01*
X-17933460Y-2890924D01*
X-17855220Y-3008020D01*
X-17738124Y-3086260D01*
X-17600000Y-3113735D01*
X-16900000Y-3113735D01*
X-16761876Y-3086260D01*
X-16644780Y-3008020D01*
X-16566540Y-2890924D01*
X-16556794Y-2841930D01*
X-16448491Y-2841930D01*
X-16432710Y-2921264D01*
X-16354470Y-3038360D01*
X-16237374Y-3116600D01*
X-16099250Y-3144075D01*
X-15400750Y-3144075D01*
X-15262626Y-3116600D01*
X-15145530Y-3038360D01*
X-15067290Y-2921264D01*
X-15039815Y-2783140D01*
X-15039815Y-2021140D01*
X-15067290Y-1883016D01*
X-15087018Y-1853491D01*
X-15046750Y-1756275D01*
X-15046750Y-1547360D01*
X-15135250Y-1458860D01*
X-15596000Y-1458860D01*
X-15596000Y-1478860D01*
X-15904000Y-1478860D01*
X-15904000Y-1458860D01*
X-16364750Y-1458860D01*
X-16453250Y-1547360D01*
X-16453250Y-1756275D01*
X-16412982Y-1853491D01*
X-16432710Y-1883016D01*
X-16442706Y-1933270D01*
X-16562841Y-1933270D01*
X-16566540Y-1914676D01*
X-16644780Y-1797580D01*
X-16761876Y-1719340D01*
X-16900000Y-1691865D01*
X-17600000Y-1691865D01*
X-17738124Y-1719340D01*
X-17855220Y-1797580D01*
X-17933460Y-1914676D01*
X-17960935Y-2052800D01*
X-18138470Y-2052800D01*
X-18138470Y178000D01*
X-17964000Y178000D01*
X-17964000Y96085D01*
X-17910107Y-34025D01*
X-17810525Y-133607D01*
X-17680415Y-187500D01*
X-17643500Y-187500D01*
X-17555000Y-99000D01*
X-17555000Y266500D01*
X-17875500Y266500D01*
X-17964000Y178000D01*
X-18138470Y178000D01*
X-18138470Y1216500D01*
X-18010935Y1216500D01*
X-18010935Y916500D01*
X-17972042Y720974D01*
X-17945584Y681376D01*
X-17964000Y636915D01*
X-17964000Y555000D01*
X-17875500Y466500D01*
X-17728515Y466500D01*
X-17695526Y444458D01*
X-17500000Y405565D01*
X-17470935Y405565D01*
X-17470935Y221500D01*
X-17445000Y91116D01*
X-17445000Y-99000D01*
X-17390932Y-153068D01*
X-17417790Y-193265D01*
X-17600000Y-193265D01*
X-17738124Y-220740D01*
X-17855220Y-298980D01*
X-17933460Y-416076D01*
X-17960935Y-554200D01*
X-17960935Y-1254200D01*
X-17933460Y-1392324D01*
X-17855220Y-1509420D01*
X-17738124Y-1587660D01*
X-17600000Y-1615135D01*
X-16900000Y-1615135D01*
X-16761876Y-1587660D01*
X-16644780Y-1509420D01*
X-16566540Y-1392324D01*
X-16539065Y-1254200D01*
X-16539065Y-853445D01*
X-16453250Y-853445D01*
X-16453250Y-1062360D01*
X-16364750Y-1150860D01*
X-15904000Y-1150860D01*
X-15904000Y-658360D01*
X-15596000Y-658360D01*
X-15596000Y-1150860D01*
X-15135250Y-1150860D01*
X-15046750Y-1062360D01*
X-15046750Y-853445D01*
X-15100643Y-723335D01*
X-15200225Y-623753D01*
X-15330335Y-569860D01*
X-15507500Y-569860D01*
X-15596000Y-658360D01*
X-15904000Y-658360D01*
X-15992500Y-569860D01*
X-16169665Y-569860D01*
X-16299775Y-623753D01*
X-16399357Y-723335D01*
X-16453250Y-853445D01*
X-16539065Y-853445D01*
X-16539065Y-569984D01*
X-16245777Y-276697D01*
X-16207847Y-251353D01*
X-16175318Y-202671D01*
X-16112249Y-108280D01*
X-16107431Y-101070D01*
X-16081070Y31456D01*
X-16081070Y31461D01*
X-16072171Y76200D01*
X-16081070Y120939D01*
X-16081070Y1450111D01*
X-15699510Y1831670D01*
X-15045430Y1831670D01*
X-15105220Y1791720D01*
X-15183460Y1674624D01*
X-15210935Y1536500D01*
X-15210935Y1036500D01*
X-15183460Y898376D01*
X-15105220Y781280D01*
X-15051283Y745241D01*
X-15038049Y678711D01*
X-14937633Y528427D01*
X-14899700Y503081D01*
X-14283334Y-113285D01*
X-14337532Y-149500D01*
X-14379853Y-177778D01*
X-14405197Y-215708D01*
X-14805720Y-616232D01*
X-14843653Y-641578D01*
X-14944069Y-791862D01*
X-14970430Y-924388D01*
X-14970430Y-924392D01*
X-14979329Y-969131D01*
X-14970430Y-1013870D01*
X-14970429Y-3460937D01*
X-15159107Y-3539089D01*
X-15367000Y-3746982D01*
X-15574893Y-3539089D01*
X-15852020Y-3424300D01*
X-16151980Y-3424300D01*
X-16429107Y-3539089D01*
X-16641211Y-3751193D01*
X-16756000Y-4028320D01*
X-16756000Y-4328280D01*
X-16641211Y-4605407D01*
X-16540094Y-4706524D01*
X-16523856Y-4788159D01*
X-16432318Y-4925155D01*
X-16432316Y-4925157D01*
X-16401410Y-4971411D01*
X-16355156Y-5002317D01*
X-15898918Y-5458556D01*
X-15868011Y-5504811D01*
X-15684760Y-5627256D01*
X-15523162Y-5659400D01*
X-15523158Y-5659400D01*
X-15468600Y-5670252D01*
X-15414042Y-5659400D01*
X-6302958Y-5659400D01*
X-6248400Y-5670252D01*
X-6193842Y-5659400D01*
X-6193838Y-5659400D01*
X-6032240Y-5627256D01*
X-5848989Y-5504811D01*
X-5818081Y-5458554D01*
X-5260243Y-4900717D01*
X-5223244Y-4875995D01*
X-5199357Y-4933665D01*
X-5099775Y-5033247D01*
X-4969665Y-5087140D01*
X-4792500Y-5087140D01*
X-4704000Y-4998640D01*
X-4704000Y-4506140D01*
X-4724000Y-4506140D01*
X-4724000Y-4198140D01*
X-4704000Y-4198140D01*
X-4704000Y-4178140D01*
X-4396000Y-4178140D01*
X-4396000Y-4198140D01*
X-4376000Y-4198140D01*
X-4376000Y-4506140D01*
X-4396000Y-4506140D01*
X-4396000Y-4998640D01*
X-4307500Y-5087140D01*
X-4130335Y-5087140D01*
X-4000225Y-5033247D01*
X-3956227Y-4989249D01*
X-3950107Y-5004025D01*
X-3850525Y-5103607D01*
X-3720415Y-5157500D01*
X-3292500Y-5157500D01*
X-3204000Y-5069000D01*
X-3204000Y-4257500D01*
X-3224000Y-4257500D01*
X-3224000Y-3949500D01*
X-3204000Y-3949500D01*
X-3204000Y-3929500D01*
X-2896000Y-3929500D01*
X-2896000Y-3949500D01*
X-2876000Y-3949500D01*
X-2876000Y-4257500D01*
X-2896000Y-4257500D01*
X-2896000Y-5069000D01*
X-2807500Y-5157500D01*
X-2379585Y-5157500D01*
X-2249475Y-5103607D01*
X-2204841Y-5058973D01*
X-2088124Y-5136960D01*
X-1950000Y-5164435D01*
X-750000Y-5164435D01*
X-611876Y-5136960D01*
X-494780Y-5058720D01*
X-416540Y-4941624D01*
X-389065Y-4803500D01*
X-389065Y-3742500D01*
X-354000Y-3742500D01*
X-354000Y-4170415D01*
X-300107Y-4300525D01*
X-200525Y-4400107D01*
X-70415Y-4454000D01*
X507500Y-4454000D01*
X596000Y-4365500D01*
X596000Y-3654000D01*
X904000Y-3654000D01*
X904000Y-4365500D01*
X992500Y-4454000D01*
X1570415Y-4454000D01*
X1700525Y-4400107D01*
X1800107Y-4300525D01*
X1854000Y-4170415D01*
X1854000Y-3742500D01*
X1765500Y-3654000D01*
X904000Y-3654000D01*
X596000Y-3654000D01*
X-265500Y-3654000D01*
X-354000Y-3742500D01*
X-389065Y-3742500D01*
X-389065Y-3403500D01*
X-416540Y-3265376D01*
X-494780Y-3148280D01*
X-611876Y-3070040D01*
X-750000Y-3042565D01*
X-1280616Y-3042565D01*
X-1504000Y-2819181D01*
X-1504000Y-2057500D01*
X-1196000Y-2057500D01*
X-1196000Y-2869000D01*
X-1107500Y-2957500D01*
X-679585Y-2957500D01*
X-549475Y-2903607D01*
X-475453Y-2829585D01*
X-354000Y-2829585D01*
X-354000Y-3257500D01*
X-265500Y-3346000D01*
X596000Y-3346000D01*
X596000Y-2634500D01*
X904000Y-2634500D01*
X904000Y-3346000D01*
X1765500Y-3346000D01*
X1854000Y-3257500D01*
X1854000Y-2829585D01*
X1800107Y-2699475D01*
X1700525Y-2599893D01*
X1570415Y-2546000D01*
X992500Y-2546000D01*
X904000Y-2634500D01*
X596000Y-2634500D01*
X507500Y-2546000D01*
X-70415Y-2546000D01*
X-200525Y-2599893D01*
X-300107Y-2699475D01*
X-354000Y-2829585D01*
X-475453Y-2829585D01*
X-449893Y-2804025D01*
X-396000Y-2673915D01*
X-396000Y-2146000D01*
X-484500Y-2057500D01*
X-1196000Y-2057500D01*
X-1504000Y-2057500D01*
X-1524000Y-2057500D01*
X-1524000Y-1749500D01*
X-1504000Y-1749500D01*
X-1504000Y-938000D01*
X-1196000Y-938000D01*
X-1196000Y-1749500D01*
X-484500Y-1749500D01*
X-396000Y-1661000D01*
X-396000Y-1133085D01*
X-449893Y-1002975D01*
X-549475Y-903393D01*
X-679585Y-849500D01*
X-1107500Y-849500D01*
X-1196000Y-938000D01*
X-1504000Y-938000D01*
X-1504489Y-937511D01*
X-1420253Y-853275D01*
X-1366360Y-723165D01*
X-1366360Y-700000D01*
X-360935Y-700000D01*
X-360935Y-1300000D01*
X-357760Y-1315962D01*
X-357760Y-1353940D01*
X-343226Y-1389028D01*
X-310624Y-1552929D01*
X-167352Y-1767352D01*
X47071Y-1910624D01*
X210428Y-1943118D01*
X246260Y-1957960D01*
X285044Y-1957960D01*
X300000Y-1960935D01*
X1200000Y-1960935D01*
X1452929Y-1910624D01*
X1667352Y-1767352D01*
X1810624Y-1552929D01*
X1860935Y-1300000D01*
X1860935Y-700000D01*
X1810624Y-447071D01*
X1667352Y-232648D01*
X1452929Y-89376D01*
X1200000Y-39065D01*
X300000Y-39065D01*
X47071Y-89376D01*
X-167352Y-232648D01*
X-310624Y-447071D01*
X-360935Y-700000D01*
X-1366360Y-700000D01*
X-1366360Y-546000D01*
X-1454860Y-457500D01*
X-1947360Y-457500D01*
X-1947360Y-477500D01*
X-2255360Y-477500D01*
X-2255360Y-457500D01*
X-2275360Y-457500D01*
X-2275360Y-149500D01*
X-2255360Y-149500D01*
X-2255360Y311250D01*
X-1947360Y311250D01*
X-1947360Y-149500D01*
X-1454860Y-149500D01*
X-1366360Y-61000D01*
X-1366360Y116165D01*
X-1420253Y246275D01*
X-1519835Y345857D01*
X-1649945Y399750D01*
X-1858860Y399750D01*
X-1947360Y311250D01*
X-2255360Y311250D01*
X-2343860Y399750D01*
X-2552775Y399750D01*
X-2649991Y359482D01*
X-2679516Y379210D01*
X-2817640Y406685D01*
X-3579640Y406685D01*
X-3717764Y379210D01*
X-3735233Y367538D01*
X-3696750Y460445D01*
X-3696750Y669360D01*
X-3785248Y757858D01*
X-3696750Y757858D01*
X-3696750Y873800D01*
X-3668524Y854940D01*
X-3530400Y827465D01*
X-2630400Y827465D01*
X-2492276Y854940D01*
X-2375180Y933180D01*
X-2296940Y1050276D01*
X-2269465Y1188400D01*
X-2269465Y1300000D01*
X-360935Y1300000D01*
X-360935Y700000D01*
X-310624Y447071D01*
X-167352Y232648D01*
X47071Y89376D01*
X300000Y39065D01*
X1200000Y39065D01*
X1452929Y89376D01*
X1667352Y232648D01*
X1810624Y447071D01*
X1860935Y700000D01*
X1860935Y1300000D01*
X1851280Y1348539D01*
X1851280Y1348862D01*
X1851156Y1349161D01*
X1810624Y1552929D01*
X1667352Y1767352D01*
X1452929Y1910624D01*
X1253520Y1950289D01*
X1247260Y1952882D01*
X1240485Y1952882D01*
X1200000Y1960935D01*
X300000Y1960935D01*
X47071Y1910624D01*
X-167352Y1767352D01*
X-310624Y1552929D01*
X-360935Y1300000D01*
X-2269465Y1300000D01*
X-2269465Y1408293D01*
X-2252007Y1496060D01*
X-2269465Y1583827D01*
X-2269465Y1788400D01*
X-2296940Y1926524D01*
X-2302840Y1935354D01*
X-2302840Y2179040D01*
X-2292174Y2232661D01*
X-2302840Y2286282D01*
X-2302840Y2286286D01*
X-2334433Y2445113D01*
X-2454778Y2625222D01*
X-2500242Y2655600D01*
X-2554000Y2709358D01*
X-2570732Y2734400D01*
X-2559985Y2734400D01*
X-2429875Y2788293D01*
X-2330293Y2887875D01*
X-2276400Y3017985D01*
X-2276400Y3149900D01*
X-2364900Y3238400D01*
X-2926400Y3238400D01*
X-2926400Y3214400D01*
X-3221434Y3214400D01*
X-3234400Y3672374D01*
X-3234400Y3953900D01*
X-2926400Y3953900D01*
X-2926400Y3538400D01*
X-2364900Y3538400D01*
X-2276400Y3626900D01*
X-2276400Y3758815D01*
X-2330293Y3888925D01*
X-2429875Y3988507D01*
X-2559309Y4042120D01*
X-2331845Y4042120D01*
X-2201735Y4096013D01*
X-2102153Y4195595D01*
X-2097313Y4207280D01*
X-2052960Y4140900D01*
X-1935864Y4062660D01*
X-1797740Y4035185D01*
X-1510779Y4035185D01*
X-1510780Y3344112D01*
X-1508999Y3335158D01*
X-1508999Y2958630D01*
X-1563860Y2876524D01*
X-1591335Y2738400D01*
X-1591335Y2138400D01*
X-1563860Y2000276D01*
X-1485620Y1883180D01*
X-1368524Y1804940D01*
X-1230400Y1777465D01*
X-330400Y1777465D01*
X-192276Y1804940D01*
X-75180Y1883180D01*
X3060Y2000276D01*
X30535Y2138400D01*
X30535Y2600545D01*
X47071Y2589496D01*
X300000Y2539185D01*
X1200000Y2539185D01*
X1452929Y2589496D01*
X1667352Y2732768D01*
X1810624Y2947191D01*
X1860935Y3200120D01*
X1860935Y3800120D01*
X1810624Y4053049D01*
X1667352Y4267472D01*
X1452929Y4410744D01*
X1200000Y4461055D01*
X300000Y4461055D01*
X47071Y4410744D01*
X-167352Y4267472D01*
X-279894Y4099040D01*
X-302780Y4099040D01*
X-302780Y4466793D01*
X-290947Y4526281D01*
X-302794Y4585840D01*
X-337824Y4761949D01*
X-471320Y4961740D01*
X-521754Y4995439D01*
X-537645Y5011330D01*
X-537645Y5396880D01*
X-565120Y5535004D01*
X-643360Y5652100D01*
X-760456Y5730340D01*
X-898580Y5757815D01*
X-1797740Y5757815D01*
X-1935864Y5730340D01*
X-2052960Y5652100D01*
X-2097313Y5585720D01*
X-2102153Y5597405D01*
X-2201735Y5696987D01*
X-2331845Y5750880D01*
X-2609340Y5750880D01*
X-2697840Y5662380D01*
X-2697840Y5050500D01*
X-2677840Y5050500D01*
X-2677840Y4742500D01*
X-2697840Y4742500D01*
X-2697840Y4130620D01*
X-2609620Y4042400D01*
X-2837900Y4042400D01*
X-2926400Y3953900D01*
X-3234400Y3953900D01*
X-3242603Y3962103D01*
X-3244868Y4042120D01*
X-3094340Y4042120D01*
X-3005840Y4130620D01*
X-3005840Y4742500D01*
X-3025840Y4742500D01*
X-3025840Y5050500D01*
X-3005840Y5050500D01*
X-3005840Y5662380D01*
X-3094340Y5750880D01*
X-3371835Y5750880D01*
X-3501945Y5696987D01*
X-3599872Y5599060D01*
X-3679205Y5631920D01*
X-4007500Y5631920D01*
X-4096000Y5543420D01*
X-4096000Y5268235D01*
X-4116539Y5252369D01*
X-4135937Y5218515D01*
X-4140904Y5179814D01*
X-4104740Y4654340D01*
X-4404000Y4654340D01*
X-4404000Y4674340D01*
X-5015880Y4674340D01*
X-5104380Y4585840D01*
X-5104380Y4308345D01*
X-5050487Y4178235D01*
X-4950905Y4078653D01*
X-4939220Y4073813D01*
X-5005600Y4029460D01*
X-5083840Y3912364D01*
X-5111315Y3774240D01*
X-5111315Y2875080D01*
X-5083840Y2736956D01*
X-5014899Y2633778D01*
X-5014899Y2629751D01*
X-5053941Y2571321D01*
X-5054600Y2571452D01*
X-5109158Y2560600D01*
X-5109162Y2560600D01*
X-5189065Y2544706D01*
X-5189065Y2636500D01*
X-5216540Y2774624D01*
X-5294780Y2891720D01*
X-5411876Y2969960D01*
X-5550000Y2997435D01*
X-6199065Y2997435D01*
X-6199065Y3646500D01*
X-6226540Y3784624D01*
X-6276670Y3859650D01*
X-6276670Y4468012D01*
X-6117189Y4627493D01*
X-6002400Y4904620D01*
X-6002400Y5204580D01*
X-6061944Y5348335D01*
X-5104380Y5348335D01*
X-5104380Y5070840D01*
X-5015880Y4982340D01*
X-4404000Y4982340D01*
X-4404000Y5543420D01*
X-4492500Y5631920D01*
X-4820795Y5631920D01*
X-4950905Y5578027D01*
X-5050487Y5478445D01*
X-5104380Y5348335D01*
X-6061944Y5348335D01*
X-6117189Y5481707D01*
X-6329293Y5693811D01*
X-6606420Y5808600D01*
X-6906380Y5808600D01*
X-7183507Y5693811D01*
X-7395611Y5481707D01*
X-7510400Y5204580D01*
X-7510400Y4904620D01*
X-7395611Y4627493D01*
X-7185329Y4417211D01*
X-7185330Y4007435D01*
X-7340000Y4007435D01*
X-7450000Y3985554D01*
X-7560000Y4007435D01*
X-7840000Y4007435D01*
X-7950000Y3985554D01*
X-8060000Y4007435D01*
X-8340000Y4007435D01*
X-8450000Y3985554D01*
X-8560000Y4007435D01*
X-8840000Y4007435D01*
X-8950000Y3985554D01*
X-9060000Y4007435D01*
X-9340000Y4007435D01*
X-9450000Y3985554D01*
X-9560000Y4007435D01*
X-9840000Y4007435D01*
X-9952366Y3985084D01*
X-9989585Y4000500D01*
X-10041500Y4000500D01*
X-10071810Y3970190D01*
X-10321147Y3963147D01*
X-10358500Y4000500D01*
X-10410415Y4000500D01*
X-10450000Y3984103D01*
X-10489585Y4000500D01*
X-10541500Y4000500D01*
X-10586344Y3955656D01*
X-10807411Y3949411D01*
X-10858500Y4000500D01*
X-10910415Y4000500D01*
X-11040525Y3946607D01*
X-11088154Y3898978D01*
X-11091240Y3914491D01*
X-11091240Y4101512D01*
X-11029516Y4113790D01*
X-10999991Y4133518D01*
X-10902775Y4093250D01*
X-10693860Y4093250D01*
X-10605360Y4181750D01*
X-10605360Y4642500D01*
X-10297360Y4642500D01*
X-10297360Y4181750D01*
X-10208860Y4093250D01*
X-9999945Y4093250D01*
X-9869835Y4147143D01*
X-9770253Y4246725D01*
X-9716360Y4376835D01*
X-9716360Y4554000D01*
X-9804860Y4642500D01*
X-10297360Y4642500D01*
X-10605360Y4642500D01*
X-10625360Y4642500D01*
X-10625360Y4950500D01*
X-10605360Y4950500D01*
X-10605360Y5411250D01*
X-10297360Y5411250D01*
X-10297360Y4950500D01*
X-9804860Y4950500D01*
X-9716360Y5039000D01*
X-9716360Y5216165D01*
X-9770253Y5346275D01*
X-9869835Y5445857D01*
X-9999945Y5499750D01*
X-10208860Y5499750D01*
X-10297360Y5411250D01*
X-10605360Y5411250D01*
X-10693860Y5499750D01*
X-10902775Y5499750D01*
X-10999991Y5459482D01*
X-11029516Y5479210D01*
X-11167640Y5506685D01*
X-11929640Y5506685D01*
X-12067764Y5479210D01*
X-12184860Y5400970D01*
X-12263100Y5283874D01*
X-12278962Y5204130D01*
X-13142250Y5204130D01*
X-13186989Y5213029D01*
X-13231728Y5204130D01*
X-13231732Y5204130D01*
X-13364258Y5177769D01*
X-13364259Y5177768D01*
X-13364260Y5177768D01*
X-13412178Y5145750D01*
X-13514541Y5077353D01*
X-13539885Y5039423D01*
X-14048277Y4531030D01*
X-15411157Y4531030D01*
X-15455900Y4539930D01*
X-15500643Y4531030D01*
X-15500644Y4531030D01*
X-15633170Y4504669D01*
X-15783453Y4404253D01*
X-15808798Y4366321D01*
X-16355289Y3819830D01*
X-16935162Y3819830D01*
X-16979901Y3828729D01*
X-17024640Y3819830D01*
X-17024644Y3819830D01*
X-17157170Y3793469D01*
X-17209033Y3758815D01*
X-17246502Y3733779D01*
X-17307453Y3693053D01*
X-17332797Y3655123D01*
X-17790220Y3197699D01*
X-17828153Y3172353D01*
X-17928569Y3022069D01*
X-17954930Y2889543D01*
X-17954930Y2889539D01*
X-17963829Y2844800D01*
X-17954930Y2800061D01*
X-17954929Y1991967D01*
X-17970935Y1911500D01*
X-17970935Y1621500D01*
X-17939274Y1462329D01*
X-17938852Y1461698D01*
X-17972042Y1412026D01*
X-18010935Y1216500D01*
X-18138470Y1216500D01*
X-18138470Y5908370D01*
X184887Y5908370D01*
X220093Y4827824D01*
G36*
X-6167399Y-2717039D02*
X-6167400Y-3050285D01*
X-6270484Y-3070790D01*
X-6300009Y-3090518D01*
X-6397225Y-3050250D01*
X-6606140Y-3050250D01*
X-6694640Y-3138750D01*
X-6694640Y-3599500D01*
X-6674640Y-3599500D01*
X-6674640Y-3907500D01*
X-6694640Y-3907500D01*
X-6694640Y-4368250D01*
X-6606140Y-4456750D01*
X-6397225Y-4456750D01*
X-6373323Y-4446849D01*
X-6477873Y-4551400D01*
X-10168000Y-4551400D01*
X-10168000Y-4420800D01*
X-10256500Y-4332300D01*
X-10768000Y-4332300D01*
X-10768000Y-4352300D01*
X-11076000Y-4352300D01*
X-11076000Y-4332300D01*
X-11096000Y-4332300D01*
X-11096000Y-4024300D01*
X-11076000Y-4024300D01*
X-11076000Y-4004300D01*
X-10768000Y-4004300D01*
X-10768000Y-4024300D01*
X-10361778Y-4024300D01*
X-10249287Y-4136791D01*
X-9972160Y-4251580D01*
X-9955947Y-4251580D01*
X-9884860Y-4357970D01*
X-9767764Y-4436210D01*
X-9629640Y-4463685D01*
X-8867640Y-4463685D01*
X-8729516Y-4436210D01*
X-8699991Y-4416482D01*
X-8602775Y-4456750D01*
X-8393860Y-4456750D01*
X-8305360Y-4368250D01*
X-8305360Y-3907500D01*
X-7997360Y-3907500D01*
X-7997360Y-4368250D01*
X-7908860Y-4456750D01*
X-7699945Y-4456750D01*
X-7569835Y-4402857D01*
X-7500000Y-4333022D01*
X-7430165Y-4402857D01*
X-7300055Y-4456750D01*
X-7091140Y-4456750D01*
X-7002640Y-4368250D01*
X-7002640Y-3907500D01*
X-7495140Y-3907500D01*
X-7500000Y-3912360D01*
X-7504860Y-3907500D01*
X-7997360Y-3907500D01*
X-8305360Y-3907500D01*
X-8325360Y-3907500D01*
X-8325360Y-3599500D01*
X-8305360Y-3599500D01*
X-8305360Y-3138750D01*
X-7997360Y-3138750D01*
X-7997360Y-3599500D01*
X-7504860Y-3599500D01*
X-7500000Y-3594640D01*
X-7495140Y-3599500D01*
X-7002640Y-3599500D01*
X-7002640Y-3138750D01*
X-7091140Y-3050250D01*
X-7300055Y-3050250D01*
X-7430165Y-3104143D01*
X-7500000Y-3173978D01*
X-7569835Y-3104143D01*
X-7699945Y-3050250D01*
X-7908860Y-3050250D01*
X-7997360Y-3138750D01*
X-8305360Y-3138750D01*
X-8393860Y-3050250D01*
X-8602775Y-3050250D01*
X-8699991Y-3090518D01*
X-8729516Y-3070790D01*
X-8867640Y-3043315D01*
X-9210127Y-3043315D01*
X-9239007Y-3014435D01*
X-9060000Y-3014435D01*
X-8950000Y-2992554D01*
X-8840000Y-3014435D01*
X-8560000Y-3014435D01*
X-8450000Y-2992554D01*
X-8340000Y-3014435D01*
X-8060000Y-3014435D01*
X-7950000Y-2992554D01*
X-7840000Y-3014435D01*
X-7564637Y-3014435D01*
X-7560091Y-3020554D01*
X-7526607Y-3040584D01*
X-7488006Y-3046275D01*
X-6549643Y-2999357D01*
X-6541500Y-3007500D01*
X-6489585Y-3007500D01*
X-6445318Y-2989164D01*
X-6436733Y-2987134D01*
X-6431395Y-2983397D01*
X-6359475Y-2953607D01*
X-6259893Y-2854025D01*
X-6206000Y-2723915D01*
X-6206000Y-2678438D01*
X-6167399Y-2717039D01*
X-6167399Y-2717039D01*
G37*
X-6167399Y-2717039D02*
X-6167400Y-3050285D01*
X-6270484Y-3070790D01*
X-6300009Y-3090518D01*
X-6397225Y-3050250D01*
X-6606140Y-3050250D01*
X-6694640Y-3138750D01*
X-6694640Y-3599500D01*
X-6674640Y-3599500D01*
X-6674640Y-3907500D01*
X-6694640Y-3907500D01*
X-6694640Y-4368250D01*
X-6606140Y-4456750D01*
X-6397225Y-4456750D01*
X-6373323Y-4446849D01*
X-6477873Y-4551400D01*
X-10168000Y-4551400D01*
X-10168000Y-4420800D01*
X-10256500Y-4332300D01*
X-10768000Y-4332300D01*
X-10768000Y-4352300D01*
X-11076000Y-4352300D01*
X-11076000Y-4332300D01*
X-11096000Y-4332300D01*
X-11096000Y-4024300D01*
X-11076000Y-4024300D01*
X-11076000Y-4004300D01*
X-10768000Y-4004300D01*
X-10768000Y-4024300D01*
X-10361778Y-4024300D01*
X-10249287Y-4136791D01*
X-9972160Y-4251580D01*
X-9955947Y-4251580D01*
X-9884860Y-4357970D01*
X-9767764Y-4436210D01*
X-9629640Y-4463685D01*
X-8867640Y-4463685D01*
X-8729516Y-4436210D01*
X-8699991Y-4416482D01*
X-8602775Y-4456750D01*
X-8393860Y-4456750D01*
X-8305360Y-4368250D01*
X-8305360Y-3907500D01*
X-7997360Y-3907500D01*
X-7997360Y-4368250D01*
X-7908860Y-4456750D01*
X-7699945Y-4456750D01*
X-7569835Y-4402857D01*
X-7500000Y-4333022D01*
X-7430165Y-4402857D01*
X-7300055Y-4456750D01*
X-7091140Y-4456750D01*
X-7002640Y-4368250D01*
X-7002640Y-3907500D01*
X-7495140Y-3907500D01*
X-7500000Y-3912360D01*
X-7504860Y-3907500D01*
X-7997360Y-3907500D01*
X-8305360Y-3907500D01*
X-8325360Y-3907500D01*
X-8325360Y-3599500D01*
X-8305360Y-3599500D01*
X-8305360Y-3138750D01*
X-7997360Y-3138750D01*
X-7997360Y-3599500D01*
X-7504860Y-3599500D01*
X-7500000Y-3594640D01*
X-7495140Y-3599500D01*
X-7002640Y-3599500D01*
X-7002640Y-3138750D01*
X-7091140Y-3050250D01*
X-7300055Y-3050250D01*
X-7430165Y-3104143D01*
X-7500000Y-3173978D01*
X-7569835Y-3104143D01*
X-7699945Y-3050250D01*
X-7908860Y-3050250D01*
X-7997360Y-3138750D01*
X-8305360Y-3138750D01*
X-8393860Y-3050250D01*
X-8602775Y-3050250D01*
X-8699991Y-3090518D01*
X-8729516Y-3070790D01*
X-8867640Y-3043315D01*
X-9210127Y-3043315D01*
X-9239007Y-3014435D01*
X-9060000Y-3014435D01*
X-8950000Y-2992554D01*
X-8840000Y-3014435D01*
X-8560000Y-3014435D01*
X-8450000Y-2992554D01*
X-8340000Y-3014435D01*
X-8060000Y-3014435D01*
X-7950000Y-2992554D01*
X-7840000Y-3014435D01*
X-7564637Y-3014435D01*
X-7560091Y-3020554D01*
X-7526607Y-3040584D01*
X-7488006Y-3046275D01*
X-6549643Y-2999357D01*
X-6541500Y-3007500D01*
X-6489585Y-3007500D01*
X-6445318Y-2989164D01*
X-6436733Y-2987134D01*
X-6431395Y-2983397D01*
X-6359475Y-2953607D01*
X-6259893Y-2854025D01*
X-6206000Y-2723915D01*
X-6206000Y-2678438D01*
X-6167399Y-2717039D01*
G36*
X-13703250Y-986860D02*
X-13614750Y-1075360D01*
X-13154000Y-1075360D01*
X-13154000Y-1055360D01*
X-12846000Y-1055360D01*
X-12846000Y-1075360D01*
X-12385250Y-1075360D01*
X-12296750Y-986860D01*
X-12296750Y-959661D01*
X-12014014Y-959661D01*
X-11988124Y-976960D01*
X-11854700Y-1003500D01*
X-11988124Y-1030040D01*
X-12053167Y-1073500D01*
X-12115500Y-1073500D01*
X-12204000Y-1162000D01*
X-12204000Y-1213915D01*
X-12188584Y-1251134D01*
X-12210935Y-1363500D01*
X-12210935Y-1530605D01*
X-12296750Y-1616420D01*
X-12296750Y-1471860D01*
X-12385250Y-1383360D01*
X-12846000Y-1383360D01*
X-12846000Y-1403360D01*
X-13154000Y-1403360D01*
X-13154000Y-1383360D01*
X-13614750Y-1383360D01*
X-13703250Y-1471860D01*
X-13703250Y-1680775D01*
X-13674783Y-1749500D01*
X-13849980Y-1749500D01*
X-14061770Y-1837226D01*
X-14061770Y-1157320D01*
X-13864110Y-959661D01*
X-13703250Y-959661D01*
X-13703250Y-986860D01*
X-13703250Y-986860D01*
G37*
X-13703250Y-986860D02*
X-13614750Y-1075360D01*
X-13154000Y-1075360D01*
X-13154000Y-1055360D01*
X-12846000Y-1055360D01*
X-12846000Y-1075360D01*
X-12385250Y-1075360D01*
X-12296750Y-986860D01*
X-12296750Y-959661D01*
X-12014014Y-959661D01*
X-11988124Y-976960D01*
X-11854700Y-1003500D01*
X-11988124Y-1030040D01*
X-12053167Y-1073500D01*
X-12115500Y-1073500D01*
X-12204000Y-1162000D01*
X-12204000Y-1213915D01*
X-12188584Y-1251134D01*
X-12210935Y-1363500D01*
X-12210935Y-1530605D01*
X-12296750Y-1616420D01*
X-12296750Y-1471860D01*
X-12385250Y-1383360D01*
X-12846000Y-1383360D01*
X-12846000Y-1403360D01*
X-13154000Y-1403360D01*
X-13154000Y-1383360D01*
X-13614750Y-1383360D01*
X-13703250Y-1471860D01*
X-13703250Y-1680775D01*
X-13674783Y-1749500D01*
X-13849980Y-1749500D01*
X-14061770Y-1837226D01*
X-14061770Y-1157320D01*
X-13864110Y-959661D01*
X-13703250Y-959661D01*
X-13703250Y-986860D01*
G36*
X-4246000Y1065860D02*
X-4226000Y1065860D01*
X-4226000Y757860D01*
X-4246000Y757860D01*
X-4246000Y737860D01*
X-4554000Y737860D01*
X-4554000Y757860D01*
X-4574000Y757860D01*
X-4574000Y1065860D01*
X-4554000Y1065860D01*
X-4554000Y1085860D01*
X-4246000Y1085860D01*
X-4246000Y1065860D01*
X-4246000Y1065860D01*
G37*
X-4246000Y1065860D02*
X-4226000Y1065860D01*
X-4226000Y757860D01*
X-4246000Y757860D01*
X-4246000Y737860D01*
X-4554000Y737860D01*
X-4554000Y757860D01*
X-4574000Y757860D01*
X-4574000Y1065860D01*
X-4554000Y1065860D01*
X-4554000Y1085860D01*
X-4246000Y1085860D01*
X-4246000Y1065860D01*
G36*
X-13910935Y1112500D02*
X-14089065Y1112500D01*
X-14089065Y1460500D01*
X-13910935Y1460500D01*
X-13910935Y1112500D01*
X-13910935Y1112500D01*
G37*
X-13910935Y1112500D02*
X-14089065Y1112500D01*
X-14089065Y1460500D01*
X-13910935Y1460500D01*
X-13910935Y1112500D01*
G36*
X2263470Y-5908370D02*
X-184737Y-5908370D01*
X45492Y-4686348D01*
X2263470Y-4412255D01*
X2263470Y-5908370D01*
X2263470Y-5908370D01*
G37*
X2263470Y-5908370D02*
X-184737Y-5908370D01*
X45492Y-4686348D01*
X2263470Y-4412255D01*
X2263470Y-5908370D01*
G36*
X2263471Y3739404D02*
X1822621Y3992739D01*
X1810624Y4053049D01*
X1667352Y4267472D01*
X1452929Y4410744D01*
X1200000Y4461055D01*
X1007663Y4461055D01*
X2752Y5038528D01*
X-128938Y5908370D01*
X2263471Y5908370D01*
X2263471Y3739404D01*
X2263471Y3739404D01*
G37*
X2263471Y3739404D02*
X1822621Y3992739D01*
X1810624Y4053049D01*
X1667352Y4267472D01*
X1452929Y4410744D01*
X1200000Y4461055D01*
X1007663Y4461055D01*
X2752Y5038528D01*
X-128938Y5908370D01*
X2263471Y5908370D01*
X2263471Y3739404D01*
G04 #@! TD*
M02*
