G04 #@! TF.GenerationSoftware,KiCad,Pcbnew,5.0.0-rc3+dfsg1-2*
G04 #@! TF.CreationDate,2018-08-10T14:32:52+09:00*
G04 #@! TF.ProjectId,fst-01,6673742D30312E6B696361645F706362,rev?*
G04 #@! TF.SameCoordinates,Original*
G04 #@! TF.FileFunction,Drawing*
%FSLAX46Y46*%
G04 Gerber Fmt 4.6, Leading zero omitted, Abs format (unit mm)*
G04 Created by KiCad (PCBNEW 5.0.0-rc3+dfsg1-2) date Fri Aug 10 14:32:52 2018*
%MOMM*%
%LPD*%
G01*
G04 APERTURE LIST*
%ADD10C,0.100000*%
%ADD11C,0.070000*%
%ADD12C,0.150000*%
%ADD13C,0.050000*%
%ADD14C,0.127000*%
G04 APERTURE END LIST*
D10*
G04 #@! TO.C,D1*
X109351220Y-100200420D02*
X109750000Y-101000520D01*
X110148780Y-100200420D02*
X109750000Y-101000520D01*
D11*
X110199580Y-101250000D02*
X109950000Y-101498360D01*
D10*
X109351220Y-101099580D02*
X109351220Y-100200420D01*
X110148780Y-101099580D02*
X110148780Y-100200420D01*
D11*
X110199580Y-99801640D02*
X110199580Y-100200420D01*
X110199580Y-100200420D02*
X109300420Y-100200420D01*
X109300420Y-99801640D02*
X109300420Y-100200420D01*
X110199580Y-99801640D02*
X109300420Y-99801640D01*
X110199580Y-101099580D02*
X110199580Y-101498360D01*
X110199580Y-101498360D02*
X109300420Y-101498360D01*
X109300420Y-101099580D02*
X109300420Y-101498360D01*
X110199580Y-101099580D02*
X109300420Y-101099580D01*
D10*
X110125920Y-101000520D02*
X109374080Y-101000520D01*
D12*
G04 #@! TO.C,X1*
X125550000Y-103600000D02*
X126050000Y-103100000D01*
X123550000Y-103600000D02*
X123550000Y-100400000D01*
X123550000Y-100400000D02*
X126050000Y-100400000D01*
X126050000Y-100400000D02*
X126050000Y-103600000D01*
X126050000Y-103600000D02*
X123550000Y-103600000D01*
D13*
X124100000Y-102600000D02*
X125400000Y-102600000D01*
X124100000Y-101400000D02*
X125400000Y-101400000D01*
X125400000Y-101700000D02*
X125400000Y-102300000D01*
X125400000Y-102300000D02*
X124100000Y-102300000D01*
X124100000Y-102300000D02*
X124100000Y-101700000D01*
X124100000Y-101700000D02*
X125400000Y-101700000D01*
X125600000Y-103100000D02*
X124800000Y-103100000D01*
X124800000Y-103100000D02*
X124800000Y-102600000D01*
X124800000Y-101400000D02*
X124800000Y-100800000D01*
X124800000Y-100800000D02*
X123900000Y-100800000D01*
D10*
G04 #@! TO.C,J1*
X129350000Y-94516500D02*
X129350000Y-103476500D01*
X127749300Y-94516500D02*
X129350000Y-94516500D01*
X127750000Y-103476500D02*
X129350000Y-103476500D01*
X127750000Y-103476500D02*
X127750000Y-104676500D01*
X127750000Y-93316500D02*
X127750000Y-94516500D01*
X129800000Y-93316500D02*
X129800000Y-104676500D01*
X139800000Y-93316500D02*
X127750000Y-93316500D01*
X139800000Y-104676500D02*
X139800000Y-93316500D01*
X127750000Y-104676500D02*
X139800000Y-104676500D01*
X131200000Y-104676500D02*
X131200000Y-93316500D01*
D12*
G04 #@! TO.C,U2*
X124369600Y-95058100D02*
X124369600Y-98058100D01*
X124369600Y-95058100D02*
X125769600Y-95058100D01*
X124369600Y-95608100D02*
X124919600Y-95058100D01*
X125769600Y-95058100D02*
X125769600Y-98058100D01*
X124369600Y-98058100D02*
X125769600Y-98058100D01*
G04 #@! TO.C,U1*
X120300000Y-101500000D02*
X121300000Y-100500000D01*
X121300000Y-101500000D02*
X115300000Y-101500000D01*
X121300000Y-95500000D02*
X121300000Y-101500000D01*
X115300000Y-95500000D02*
X121300000Y-95500000D01*
X115300000Y-101500000D02*
X115300000Y-95500000D01*
G04 #@! TO.C,U3*
X112000000Y-96135000D02*
X114000000Y-96135000D01*
X112000000Y-97385000D02*
X114000000Y-97385000D01*
X112000000Y-96135000D02*
X112000000Y-97385000D01*
X114000000Y-96135000D02*
X114000000Y-97385000D01*
X112000000Y-96860000D02*
X112475000Y-97385000D01*
G04 #@! TO.C,U4*
X110300000Y-97230000D02*
X110300000Y-98630000D01*
X109200000Y-97230000D02*
X109200000Y-98630000D01*
X109200000Y-98630000D02*
X110300000Y-98630000D01*
X109200000Y-97230000D02*
X110300000Y-97230000D01*
X109200000Y-97680000D02*
X109650000Y-97230000D01*
D14*
G04 #@! TO.C,R1*
X111529400Y-101180200D02*
X110970600Y-101180200D01*
X111529400Y-100519800D02*
X110970600Y-100519800D01*
X111529400Y-100316600D02*
X110970600Y-100316600D01*
X110970600Y-100316600D02*
X110970600Y-101383400D01*
X110970600Y-101383400D02*
X111529400Y-101383400D01*
X111529400Y-101383400D02*
X111529400Y-100316600D01*
G04 #@! TO.C,C9*
X124087200Y-94506400D02*
X124087200Y-93693600D01*
X125712800Y-94506400D02*
X124087200Y-94506400D01*
X125712800Y-93693600D02*
X125712800Y-94506400D01*
X124087200Y-93693600D02*
X125712800Y-93693600D01*
X124341200Y-93719000D02*
X124341200Y-94506400D01*
X125458800Y-94506400D02*
X125458800Y-93693600D01*
G04 #@! TO.C,C2*
X123816600Y-99579400D02*
X124883400Y-99579400D01*
X123816600Y-99020600D02*
X123816600Y-99579400D01*
X124883400Y-99020600D02*
X123816600Y-99020600D01*
X124883400Y-99579400D02*
X124883400Y-99020600D01*
X124680200Y-99579400D02*
X124680200Y-99020600D01*
X124019800Y-99579400D02*
X124019800Y-99020600D01*
G04 #@! TO.C,C1*
X122879400Y-98069400D02*
X122879400Y-97002600D01*
X122320600Y-98069400D02*
X122879400Y-98069400D01*
X122320600Y-97002600D02*
X122320600Y-98069400D01*
X122879400Y-97002600D02*
X122320600Y-97002600D01*
X122879400Y-97205800D02*
X122320600Y-97205800D01*
X122879400Y-97866200D02*
X122320600Y-97866200D01*
G04 #@! TO.C,C4*
X120166600Y-103029400D02*
X121233400Y-103029400D01*
X120166600Y-102470600D02*
X120166600Y-103029400D01*
X121233400Y-102470600D02*
X120166600Y-102470600D01*
X121233400Y-103029400D02*
X121233400Y-102470600D01*
X121030200Y-103029400D02*
X121030200Y-102470600D01*
X120369800Y-103029400D02*
X120369800Y-102470600D01*
G04 #@! TO.C,C7*
X116533400Y-93920600D02*
X115466600Y-93920600D01*
X116533400Y-94479400D02*
X116533400Y-93920600D01*
X115466600Y-94479400D02*
X116533400Y-94479400D01*
X115466600Y-93920600D02*
X115466600Y-94479400D01*
X115669800Y-93920600D02*
X115669800Y-94479400D01*
X116330200Y-93920600D02*
X116330200Y-94479400D01*
G04 #@! TO.C,C6*
X113720600Y-100241100D02*
X113720600Y-101307900D01*
X114279400Y-100241100D02*
X113720600Y-100241100D01*
X114279400Y-101307900D02*
X114279400Y-100241100D01*
X113720600Y-101307900D02*
X114279400Y-101307900D01*
X113720600Y-101104700D02*
X114279400Y-101104700D01*
X113720600Y-100444300D02*
X114279400Y-100444300D01*
G04 #@! TO.C,C3*
X122170600Y-102266600D02*
X122170600Y-103333400D01*
X122729400Y-102266600D02*
X122170600Y-102266600D01*
X122729400Y-103333400D02*
X122729400Y-102266600D01*
X122170600Y-103333400D02*
X122729400Y-103333400D01*
X122170600Y-103130200D02*
X122729400Y-103130200D01*
X122170600Y-102469800D02*
X122729400Y-102469800D01*
G04 #@! TO.C,C5*
X117766600Y-103029400D02*
X118833400Y-103029400D01*
X117766600Y-102470600D02*
X117766600Y-103029400D01*
X118833400Y-102470600D02*
X117766600Y-102470600D01*
X118833400Y-103029400D02*
X118833400Y-102470600D01*
X118630200Y-103029400D02*
X118630200Y-102470600D01*
X117969800Y-103029400D02*
X117969800Y-102470600D01*
G04 #@! TO.C,C8*
X122343600Y-94107200D02*
X123156400Y-94107200D01*
X122343600Y-95732800D02*
X122343600Y-94107200D01*
X123156400Y-95732800D02*
X122343600Y-95732800D01*
X123156400Y-94107200D02*
X123156400Y-95732800D01*
X123131000Y-94361200D02*
X122343600Y-94361200D01*
X122343600Y-95478800D02*
X123156400Y-95478800D01*
G04 #@! TD*
M02*
