G04 #@! TF.GenerationSoftware,KiCad,Pcbnew,5.0.0-rc3+dfsg1-2*
G04 #@! TF.CreationDate,2018-08-08T10:48:40+09:00*
G04 #@! TF.ProjectId,fst-01,6673742D30312E6B696361645F706362,rev?*
G04 #@! TF.SameCoordinates,PX791ddc0PY5e69114*
G04 #@! TF.FileFunction,Paste,Top*
G04 #@! TF.FilePolarity,Positive*
%FSLAX46Y46*%
G04 Gerber Fmt 4.6, Leading zero omitted, Abs format (unit mm)*
G04 Created by KiCad (PCBNEW 5.0.0-rc3+dfsg1-2) date Wed Aug  8 10:48:40 2018*
%MOMM*%
%LPD*%
G01*
G04 APERTURE LIST*
%ADD10R,0.800000X0.800000*%
%ADD11C,0.150000*%
%ADD12C,1.200000*%
%ADD13R,0.762000X0.698500*%
%ADD14R,0.398780X0.500380*%
%ADD15R,0.870360X0.870360*%
%ADD16R,0.749300X0.299720*%
%ADD17R,0.299720X0.749300*%
%ADD18R,0.700000X0.700000*%
%ADD19C,0.800000*%
%ADD20R,0.899160X1.000760*%
%ADD21R,0.900000X0.800000*%
%ADD22R,1.193800X1.397000*%
%ADD23R,0.698500X0.762000*%
%ADD24R,1.000760X0.899160*%
%ADD25C,1.000000*%
G04 APERTURE END LIST*
D10*
G04 #@! TO.C,REF\002A\002A*
X-16568420Y5392420D03*
G04 #@! TD*
D11*
G04 #@! TO.C,J1*
G36*
X479405Y4098675D02*
X508527Y4094356D01*
X537085Y4087202D01*
X564805Y4077284D01*
X591419Y4064696D01*
X616671Y4049561D01*
X640318Y4032023D01*
X662132Y4012252D01*
X681903Y3990438D01*
X699441Y3966791D01*
X714576Y3941539D01*
X727164Y3914925D01*
X737082Y3887205D01*
X744236Y3858647D01*
X748555Y3829525D01*
X750000Y3800120D01*
X750000Y3200120D01*
X748555Y3170715D01*
X744236Y3141593D01*
X737082Y3113035D01*
X727164Y3085315D01*
X714576Y3058701D01*
X699441Y3033449D01*
X681903Y3009802D01*
X662132Y2987988D01*
X640318Y2968217D01*
X616671Y2950679D01*
X591419Y2935544D01*
X564805Y2922956D01*
X537085Y2913038D01*
X508527Y2905884D01*
X479405Y2901565D01*
X450000Y2900120D01*
X-450000Y2900120D01*
X-479405Y2901565D01*
X-508527Y2905884D01*
X-537085Y2913038D01*
X-564805Y2922956D01*
X-591419Y2935544D01*
X-616671Y2950679D01*
X-640318Y2968217D01*
X-662132Y2987988D01*
X-681903Y3009802D01*
X-699441Y3033449D01*
X-714576Y3058701D01*
X-727164Y3085315D01*
X-737082Y3113035D01*
X-744236Y3141593D01*
X-748555Y3170715D01*
X-750000Y3200120D01*
X-750000Y3800120D01*
X-748555Y3829525D01*
X-744236Y3858647D01*
X-737082Y3887205D01*
X-727164Y3914925D01*
X-714576Y3941539D01*
X-699441Y3966791D01*
X-681903Y3990438D01*
X-662132Y4012252D01*
X-640318Y4032023D01*
X-616671Y4049561D01*
X-591419Y4064696D01*
X-564805Y4077284D01*
X-537085Y4087202D01*
X-508527Y4094356D01*
X-479405Y4098675D01*
X-450000Y4100120D01*
X450000Y4100120D01*
X479405Y4098675D01*
X479405Y4098675D01*
G37*
D12*
X0Y3500120D03*
D11*
G36*
X479405Y-2901445D02*
X508527Y-2905764D01*
X537085Y-2912918D01*
X564805Y-2922836D01*
X591419Y-2935424D01*
X616671Y-2950559D01*
X640318Y-2968097D01*
X662132Y-2987868D01*
X681903Y-3009682D01*
X699441Y-3033329D01*
X714576Y-3058581D01*
X727164Y-3085195D01*
X737082Y-3112915D01*
X744236Y-3141473D01*
X748555Y-3170595D01*
X750000Y-3200000D01*
X750000Y-3800000D01*
X748555Y-3829405D01*
X744236Y-3858527D01*
X737082Y-3887085D01*
X727164Y-3914805D01*
X714576Y-3941419D01*
X699441Y-3966671D01*
X681903Y-3990318D01*
X662132Y-4012132D01*
X640318Y-4031903D01*
X616671Y-4049441D01*
X591419Y-4064576D01*
X564805Y-4077164D01*
X537085Y-4087082D01*
X508527Y-4094236D01*
X479405Y-4098555D01*
X450000Y-4100000D01*
X-450000Y-4100000D01*
X-479405Y-4098555D01*
X-508527Y-4094236D01*
X-537085Y-4087082D01*
X-564805Y-4077164D01*
X-591419Y-4064576D01*
X-616671Y-4049441D01*
X-640318Y-4031903D01*
X-662132Y-4012132D01*
X-681903Y-3990318D01*
X-699441Y-3966671D01*
X-714576Y-3941419D01*
X-727164Y-3914805D01*
X-737082Y-3887085D01*
X-744236Y-3858527D01*
X-748555Y-3829405D01*
X-750000Y-3800000D01*
X-750000Y-3200000D01*
X-748555Y-3170595D01*
X-744236Y-3141473D01*
X-737082Y-3112915D01*
X-727164Y-3085195D01*
X-714576Y-3058581D01*
X-699441Y-3033329D01*
X-681903Y-3009682D01*
X-662132Y-2987868D01*
X-640318Y-2968097D01*
X-616671Y-2950559D01*
X-591419Y-2935424D01*
X-564805Y-2922836D01*
X-537085Y-2912918D01*
X-508527Y-2905764D01*
X-479405Y-2901445D01*
X-450000Y-2900000D01*
X450000Y-2900000D01*
X479405Y-2901445D01*
X479405Y-2901445D01*
G37*
D12*
X0Y-3500000D03*
D11*
G36*
X479405Y1598555D02*
X508527Y1594236D01*
X537085Y1587082D01*
X564805Y1577164D01*
X591419Y1564576D01*
X616671Y1549441D01*
X640318Y1531903D01*
X662132Y1512132D01*
X681903Y1490318D01*
X699441Y1466671D01*
X714576Y1441419D01*
X727164Y1414805D01*
X737082Y1387085D01*
X744236Y1358527D01*
X748555Y1329405D01*
X750000Y1300000D01*
X750000Y700000D01*
X748555Y670595D01*
X744236Y641473D01*
X737082Y612915D01*
X727164Y585195D01*
X714576Y558581D01*
X699441Y533329D01*
X681903Y509682D01*
X662132Y487868D01*
X640318Y468097D01*
X616671Y450559D01*
X591419Y435424D01*
X564805Y422836D01*
X537085Y412918D01*
X508527Y405764D01*
X479405Y401445D01*
X450000Y400000D01*
X-450000Y400000D01*
X-479405Y401445D01*
X-508527Y405764D01*
X-537085Y412918D01*
X-564805Y422836D01*
X-591419Y435424D01*
X-616671Y450559D01*
X-640318Y468097D01*
X-662132Y487868D01*
X-681903Y509682D01*
X-699441Y533329D01*
X-714576Y558581D01*
X-727164Y585195D01*
X-737082Y612915D01*
X-744236Y641473D01*
X-748555Y670595D01*
X-750000Y700000D01*
X-750000Y1300000D01*
X-748555Y1329405D01*
X-744236Y1358527D01*
X-737082Y1387085D01*
X-727164Y1414805D01*
X-714576Y1441419D01*
X-699441Y1466671D01*
X-681903Y1490318D01*
X-662132Y1512132D01*
X-640318Y1531903D01*
X-616671Y1549441D01*
X-591419Y1564576D01*
X-564805Y1577164D01*
X-537085Y1587082D01*
X-508527Y1594236D01*
X-479405Y1598555D01*
X-450000Y1600000D01*
X450000Y1600000D01*
X479405Y1598555D01*
X479405Y1598555D01*
G37*
D12*
X0Y1000000D03*
D11*
G36*
X479405Y-401445D02*
X508527Y-405764D01*
X537085Y-412918D01*
X564805Y-422836D01*
X591419Y-435424D01*
X616671Y-450559D01*
X640318Y-468097D01*
X662132Y-487868D01*
X681903Y-509682D01*
X699441Y-533329D01*
X714576Y-558581D01*
X727164Y-585195D01*
X737082Y-612915D01*
X744236Y-641473D01*
X748555Y-670595D01*
X750000Y-700000D01*
X750000Y-1300000D01*
X748555Y-1329405D01*
X744236Y-1358527D01*
X737082Y-1387085D01*
X727164Y-1414805D01*
X714576Y-1441419D01*
X699441Y-1466671D01*
X681903Y-1490318D01*
X662132Y-1512132D01*
X640318Y-1531903D01*
X616671Y-1549441D01*
X591419Y-1564576D01*
X564805Y-1577164D01*
X537085Y-1587082D01*
X508527Y-1594236D01*
X479405Y-1598555D01*
X450000Y-1600000D01*
X-450000Y-1600000D01*
X-479405Y-1598555D01*
X-508527Y-1594236D01*
X-537085Y-1587082D01*
X-564805Y-1577164D01*
X-591419Y-1564576D01*
X-616671Y-1549441D01*
X-640318Y-1531903D01*
X-662132Y-1512132D01*
X-681903Y-1490318D01*
X-699441Y-1466671D01*
X-714576Y-1441419D01*
X-727164Y-1414805D01*
X-737082Y-1387085D01*
X-744236Y-1358527D01*
X-748555Y-1329405D01*
X-750000Y-1300000D01*
X-750000Y-700000D01*
X-748555Y-670595D01*
X-744236Y-641473D01*
X-737082Y-612915D01*
X-727164Y-585195D01*
X-714576Y-558581D01*
X-699441Y-533329D01*
X-681903Y-509682D01*
X-662132Y-487868D01*
X-640318Y-468097D01*
X-616671Y-450559D01*
X-591419Y-435424D01*
X-564805Y-422836D01*
X-537085Y-412918D01*
X-508527Y-405764D01*
X-479405Y-401445D01*
X-450000Y-400000D01*
X450000Y-400000D01*
X479405Y-401445D01*
X479405Y-401445D01*
G37*
D12*
X0Y-1000000D03*
G04 #@! TD*
D13*
G04 #@! TO.C,R1*
X-16880840Y-2540000D03*
X-15783560Y-2540000D03*
G04 #@! TD*
D14*
G04 #@! TO.C,U3*
X-14810740Y3185160D03*
X-14160500Y3185160D03*
X-13510260Y3185160D03*
X-13510260Y1285240D03*
X-14160500Y1285240D03*
X-14810740Y1285240D03*
G04 #@! TD*
D15*
G04 #@! TO.C,U1*
X-8456012Y1536829D03*
X-10538812Y1536829D03*
X-10538812Y-545971D03*
D16*
X-6721192Y-1506091D03*
X-6721192Y-1005711D03*
X-6721192Y-505331D03*
X-6721192Y-4951D03*
X-6721192Y495429D03*
X-6721192Y995809D03*
X-6721192Y1496189D03*
X-6721192Y1996569D03*
X-6721192Y2496949D03*
D17*
X-7495892Y3271649D03*
X-7996272Y3271649D03*
X-8496652Y3271649D03*
X-8997032Y3271649D03*
X-9497412Y3271649D03*
X-9997792Y3271649D03*
X-10498172Y3271649D03*
X-10998552Y3271649D03*
X-11498932Y3271649D03*
D16*
X-12273632Y2496949D03*
X-12273632Y1996569D03*
X-12273632Y1496189D03*
X-12273632Y995809D03*
X-12273632Y495429D03*
X-12273632Y-4951D03*
X-12273632Y-505331D03*
X-12273632Y-1005711D03*
X-12273632Y-1506091D03*
D17*
X-11498932Y-2280791D03*
X-10998552Y-2280791D03*
X-10498172Y-2280791D03*
X-9997792Y-2280791D03*
X-9497412Y-2280791D03*
X-8997032Y-2280791D03*
X-8496652Y-2280791D03*
X-7996272Y-2280791D03*
X-7495892Y-2280791D03*
D15*
X-8456012Y-545971D03*
G04 #@! TD*
D18*
G04 #@! TO.C,D1*
X-16929100Y-749300D03*
X-16929100Y749300D03*
G04 #@! TD*
D19*
G04 #@! TO.C,K1*
X-12954000Y-4178300D03*
X-14224000Y-4178300D03*
X-15494000Y-4178300D03*
G04 #@! TD*
D20*
G04 #@! TO.C,C9*
X-3926840Y4762500D03*
X-2423160Y4762500D03*
G04 #@! TD*
D21*
G04 #@! TO.C,U2*
X-1692400Y2438400D03*
X-3692400Y1488400D03*
X-3692400Y3388400D03*
G04 #@! TD*
D22*
G04 #@! TO.C,X1*
X-3811763Y-3988414D03*
X-2109963Y-3988414D03*
X-2109963Y-1788774D03*
X-3811763Y-1788774D03*
G04 #@! TD*
D13*
G04 #@! TO.C,C2*
X-2905760Y-279400D03*
X-4003040Y-279400D03*
G04 #@! TD*
D23*
G04 #@! TO.C,C4*
X-5219700Y2009140D03*
X-5219700Y911860D03*
G04 #@! TD*
D13*
G04 #@! TO.C,C5*
X-6436360Y-3492500D03*
X-7533640Y-3492500D03*
G04 #@! TD*
G04 #@! TO.C,C6*
X-12270740Y4470400D03*
X-11173460Y4470400D03*
G04 #@! TD*
D23*
G04 #@! TO.C,C7*
X-13474700Y-2326640D03*
X-13474700Y-1229360D03*
G04 #@! TD*
G04 #@! TO.C,C1*
X-5207000Y-4307840D03*
X-5207000Y-3210560D03*
G04 #@! TD*
D13*
G04 #@! TO.C,C3*
X-8785860Y-3492500D03*
X-9883140Y-3492500D03*
G04 #@! TD*
D24*
G04 #@! TO.C,C8*
X-5372100Y4823460D03*
X-5372100Y3319780D03*
G04 #@! TD*
D25*
G04 #@! TO.C,REF\002A\002A*
X-8173720Y4782820D03*
G04 #@! TD*
M02*
