G04 #@! TF.GenerationSoftware,KiCad,Pcbnew,5.0.0-rc3+dfsg1-2*
G04 #@! TF.CreationDate,2018-08-09T17:57:03+09:00*
G04 #@! TF.ProjectId,fst-01,6673742D30312E6B696361645F706362,rev?*
G04 #@! TF.SameCoordinates,PX791ddc0PY5e69114*
G04 #@! TF.FileFunction,Legend,Bot*
G04 #@! TF.FilePolarity,Positive*
%FSLAX46Y46*%
G04 Gerber Fmt 4.6, Leading zero omitted, Abs format (unit mm)*
G04 Created by KiCad (PCBNEW 5.0.0-rc3+dfsg1-2) date Thu Aug  9 17:57:03 2018*
%MOMM*%
%LPD*%
G01*
G04 APERTURE LIST*
%ADD10C,0.304800*%
%ADD11C,0.200660*%
%ADD12C,0.762000*%
%ADD13C,0.457200*%
%ADD14C,0.152400*%
G04 APERTURE END LIST*
D10*
X1404257Y-3085737D02*
X1912257Y-3085737D01*
X1912257Y-4150118D02*
X1912257Y-2118118D01*
X1186542Y-2118118D01*
X678542Y-4053356D02*
X460828Y-4150118D01*
X97971Y-4150118D01*
X-47172Y-4053356D01*
X-119743Y-3956594D01*
X-192315Y-3763070D01*
X-192315Y-3569546D01*
X-119743Y-3376022D01*
X-47172Y-3279260D01*
X97971Y-3182499D01*
X388257Y-3085737D01*
X533400Y-2988975D01*
X605971Y-2892213D01*
X678542Y-2698689D01*
X678542Y-2505165D01*
X605971Y-2311641D01*
X533400Y-2214880D01*
X388257Y-2118118D01*
X25400Y-2118118D01*
X-192315Y-2214880D01*
X-627743Y-2118118D02*
X-1498600Y-2118118D01*
X-1063172Y-4150118D02*
X-1063172Y-2118118D01*
X-2006600Y-3376022D02*
X-3167743Y-3376022D01*
X-4183743Y-2118118D02*
X-4328886Y-2118118D01*
X-4474029Y-2214880D01*
X-4546600Y-2311641D01*
X-4619172Y-2505165D01*
X-4691743Y-2892213D01*
X-4691743Y-3376022D01*
X-4619172Y-3763070D01*
X-4546600Y-3956594D01*
X-4474029Y-4053356D01*
X-4328886Y-4150118D01*
X-4183743Y-4150118D01*
X-4038600Y-4053356D01*
X-3966029Y-3956594D01*
X-3893458Y-3763070D01*
X-3820886Y-3376022D01*
X-3820886Y-2892213D01*
X-3893458Y-2505165D01*
X-3966029Y-2311641D01*
X-4038600Y-2214880D01*
X-4183743Y-2118118D01*
X-6143172Y-4150118D02*
X-5272315Y-4150118D01*
X-5707743Y-4150118D02*
X-5707743Y-2118118D01*
X-5562600Y-2408403D01*
X-5417458Y-2601927D01*
X-5272315Y-2698689D01*
X-6723743Y-4053356D02*
X-6941458Y-4150118D01*
X-7304315Y-4150118D01*
X-7449458Y-4053356D01*
X-7522029Y-3956594D01*
X-7594600Y-3763070D01*
X-7594600Y-3569546D01*
X-7522029Y-3376022D01*
X-7449458Y-3279260D01*
X-7304315Y-3182499D01*
X-7014029Y-3085737D01*
X-6868886Y-2988975D01*
X-6796315Y-2892213D01*
X-6723743Y-2698689D01*
X-6723743Y-2505165D01*
X-6796315Y-2311641D01*
X-6868886Y-2214880D01*
X-7014029Y-2118118D01*
X-7376886Y-2118118D01*
X-7594600Y-2214880D01*
X-8102600Y-2118118D02*
X-9118600Y-2118118D01*
X-8102600Y-4150118D01*
X-9118600Y-4150118D01*
D11*
X1204564Y130387D02*
X1919393Y130387D01*
X2062359Y178042D01*
X2157669Y273353D01*
X2205324Y416319D01*
X2205324Y511629D01*
X2205324Y-870373D02*
X2205324Y-298510D01*
X2205324Y-584441D02*
X1204564Y-584441D01*
X1347530Y-489131D01*
X1442840Y-393820D01*
X1490496Y-298510D01*
D12*
G04 #@! TO.C,FST-LOGO*
X-8178800Y1574800D02*
X-7416800Y812800D01*
X-9956800Y-76200D02*
X-9194800Y-838200D01*
X-7416800Y-838200D02*
X-7416800Y1574800D01*
X-9956800Y-838200D02*
X-7416800Y-838200D01*
X-9956800Y1574800D02*
X-9956800Y-838200D01*
X-7416800Y1574800D02*
X-9956800Y1574800D01*
D13*
X-10845800Y-330200D02*
X-11861800Y-330200D01*
X-11353800Y1447800D02*
X-13639800Y1447800D01*
X-11099800Y558800D02*
X-12877800Y558800D01*
D14*
X-12478658Y-166914D02*
X-12914086Y-166914D01*
X-12696372Y-928914D02*
X-12696372Y-166914D01*
X-13168086Y-928914D02*
X-13168086Y-166914D01*
X-13422086Y-711200D01*
X-13676086Y-166914D01*
X-13676086Y-928914D01*
G04 #@! TD*
M02*
