G04 #@! TF.GenerationSoftware,KiCad,Pcbnew,5.0.0-rc3+dfsg1-2*
G04 #@! TF.CreationDate,2018-08-10T14:32:52+09:00*
G04 #@! TF.ProjectId,fst-01,6673742D30312E6B696361645F706362,rev?*
G04 #@! TF.SameCoordinates,Original*
G04 #@! TF.FileFunction,Copper,L1,Top,Signal*
G04 #@! TF.FilePolarity,Positive*
%FSLAX46Y46*%
G04 Gerber Fmt 4.6, Leading zero omitted, Abs format (unit mm)*
G04 Created by KiCad (PCBNEW 5.0.0-rc3+dfsg1-2) date Fri Aug 10 14:32:52 2018*
%MOMM*%
%LPD*%
G01*
G04 APERTURE LIST*
G04 #@! TA.AperFunction,SMDPad,CuDef*
%ADD10R,0.700000X0.700000*%
G04 #@! TD*
G04 #@! TA.AperFunction,SMDPad,CuDef*
%ADD11R,1.200000X1.400000*%
G04 #@! TD*
G04 #@! TA.AperFunction,ComponentPad*
%ADD12C,0.800000*%
G04 #@! TD*
G04 #@! TA.AperFunction,ComponentPad*
%ADD13R,0.800000X0.800000*%
G04 #@! TD*
G04 #@! TA.AperFunction,ViaPad*
%ADD14C,0.700000*%
G04 #@! TD*
G04 #@! TA.AperFunction,Conductor*
%ADD15C,0.150000*%
G04 #@! TD*
G04 #@! TA.AperFunction,SMDPad,CuDef*
%ADD16C,1.200000*%
G04 #@! TD*
G04 #@! TA.AperFunction,SMDPad,CuDef*
%ADD17R,0.900000X0.600000*%
G04 #@! TD*
G04 #@! TA.AperFunction,SMDPad,CuDef*
%ADD18R,0.280000X0.750000*%
G04 #@! TD*
G04 #@! TA.AperFunction,SMDPad,CuDef*
%ADD19R,0.750000X0.280000*%
G04 #@! TD*
G04 #@! TA.AperFunction,SMDPad,CuDef*
%ADD20R,2.000000X2.000000*%
G04 #@! TD*
G04 #@! TA.AperFunction,SMDPad,CuDef*
%ADD21R,0.400000X0.500000*%
G04 #@! TD*
G04 #@! TA.AperFunction,SMDPad,CuDef*
%ADD22C,0.220000*%
G04 #@! TD*
G04 #@! TA.AperFunction,SMDPad,CuDef*
%ADD23C,0.600000*%
G04 #@! TD*
G04 #@! TA.AperFunction,SMDPad,CuDef*
%ADD24R,0.698500X0.762000*%
G04 #@! TD*
G04 #@! TA.AperFunction,SMDPad,CuDef*
%ADD25R,0.899160X1.000760*%
G04 #@! TD*
G04 #@! TA.AperFunction,SMDPad,CuDef*
%ADD26R,0.762000X0.698500*%
G04 #@! TD*
G04 #@! TA.AperFunction,SMDPad,CuDef*
%ADD27R,1.000760X0.899160*%
G04 #@! TD*
G04 #@! TA.AperFunction,ViaPad*
%ADD28C,0.800000*%
G04 #@! TD*
G04 #@! TA.AperFunction,Conductor*
%ADD29C,0.200660*%
G04 #@! TD*
G04 #@! TA.AperFunction,Conductor*
%ADD30C,0.500000*%
G04 #@! TD*
G04 #@! TA.AperFunction,Conductor*
%ADD31C,0.599440*%
G04 #@! TD*
G04 #@! TA.AperFunction,Conductor*
%ADD32C,0.254000*%
G04 #@! TD*
G04 #@! TA.AperFunction,Conductor*
%ADD33C,0.300000*%
G04 #@! TD*
G04 #@! TA.AperFunction,Conductor*
%ADD34C,0.381000*%
G04 #@! TD*
G04 #@! TA.AperFunction,Conductor*
%ADD35C,0.400000*%
G04 #@! TD*
G04 #@! TA.AperFunction,Conductor*
%ADD36C,0.279400*%
G04 #@! TD*
G04 #@! TA.AperFunction,Conductor*
%ADD37C,0.380000*%
G04 #@! TD*
G04 #@! TA.AperFunction,Conductor*
%ADD38C,0.202000*%
G04 #@! TD*
G04 #@! TA.AperFunction,Conductor*
%ADD39C,0.508000*%
G04 #@! TD*
G04 #@! TA.AperFunction,Conductor*
%ADD40C,0.250000*%
G04 #@! TD*
G04 #@! TA.AperFunction,Conductor*
%ADD41C,0.200000*%
G04 #@! TD*
G04 APERTURE END LIST*
D10*
G04 #@! TO.P,D1,1*
G04 #@! TO.N,Net-(D1-Pad1)*
X109750000Y-101399300D03*
G04 #@! TO.P,D1,2*
G04 #@! TO.N,/LED*
X109750000Y-99900700D03*
G04 #@! TD*
D11*
G04 #@! TO.P,X1,2*
G04 #@! TO.N,/OSC_OUT*
X123950000Y-100900000D03*
G04 #@! TO.P,X1,3*
G04 #@! TO.N,GND*
X125650000Y-100900000D03*
G04 #@! TO.P,X1,1*
G04 #@! TO.N,/OSC_IN*
X125650000Y-103100000D03*
G04 #@! TO.P,X1,3*
G04 #@! TO.N,GND*
X123950000Y-103100000D03*
G04 #@! TD*
D12*
G04 #@! TO.P,K1,2*
G04 #@! TO.N,/SWDIO*
X112268000Y-103174800D03*
G04 #@! TO.P,K1,1*
G04 #@! TO.N,+3V3*
X110998000Y-103174800D03*
G04 #@! TO.P,K1,3*
G04 #@! TO.N,/SWCLK*
X113538000Y-103174800D03*
G04 #@! TO.P,K1,4*
G04 #@! TO.N,/NRST*
X114808000Y-103174800D03*
D13*
G04 #@! TO.P,K1,5*
G04 #@! TO.N,GND*
X116078000Y-103174800D03*
G04 #@! TD*
D14*
G04 #@! TO.N,GND*
G04 #@! TO.C,J1*
X128200000Y-93746500D03*
X128200000Y-104246500D03*
D15*
G04 #@! TO.N,/VBUS*
G36*
X128229405Y-94897825D02*
X128258527Y-94902144D01*
X128287085Y-94909298D01*
X128314805Y-94919216D01*
X128341419Y-94931804D01*
X128366671Y-94946939D01*
X128390318Y-94964477D01*
X128412132Y-94984248D01*
X128431903Y-95006062D01*
X128449441Y-95029709D01*
X128464576Y-95054961D01*
X128477164Y-95081575D01*
X128487082Y-95109295D01*
X128494236Y-95137853D01*
X128498555Y-95166975D01*
X128500000Y-95196380D01*
X128500000Y-95796380D01*
X128498555Y-95825785D01*
X128494236Y-95854907D01*
X128487082Y-95883465D01*
X128477164Y-95911185D01*
X128464576Y-95937799D01*
X128449441Y-95963051D01*
X128431903Y-95986698D01*
X128412132Y-96008512D01*
X128390318Y-96028283D01*
X128366671Y-96045821D01*
X128341419Y-96060956D01*
X128314805Y-96073544D01*
X128287085Y-96083462D01*
X128258527Y-96090616D01*
X128229405Y-96094935D01*
X128200000Y-96096380D01*
X127300000Y-96096380D01*
X127270595Y-96094935D01*
X127241473Y-96090616D01*
X127212915Y-96083462D01*
X127185195Y-96073544D01*
X127158581Y-96060956D01*
X127133329Y-96045821D01*
X127109682Y-96028283D01*
X127087868Y-96008512D01*
X127068097Y-95986698D01*
X127050559Y-95963051D01*
X127035424Y-95937799D01*
X127022836Y-95911185D01*
X127012918Y-95883465D01*
X127005764Y-95854907D01*
X127001445Y-95825785D01*
X127000000Y-95796380D01*
X127000000Y-95196380D01*
X127001445Y-95166975D01*
X127005764Y-95137853D01*
X127012918Y-95109295D01*
X127022836Y-95081575D01*
X127035424Y-95054961D01*
X127050559Y-95029709D01*
X127068097Y-95006062D01*
X127087868Y-94984248D01*
X127109682Y-94964477D01*
X127133329Y-94946939D01*
X127158581Y-94931804D01*
X127185195Y-94919216D01*
X127212915Y-94909298D01*
X127241473Y-94902144D01*
X127270595Y-94897825D01*
X127300000Y-94896380D01*
X128200000Y-94896380D01*
X128229405Y-94897825D01*
X128229405Y-94897825D01*
G37*
D16*
G04 #@! TD*
G04 #@! TO.P,J1,1*
G04 #@! TO.N,/VBUS*
X127750000Y-95496380D03*
D15*
G04 #@! TO.N,GND*
G04 #@! TO.C,J1*
G36*
X128229405Y-101897945D02*
X128258527Y-101902264D01*
X128287085Y-101909418D01*
X128314805Y-101919336D01*
X128341419Y-101931924D01*
X128366671Y-101947059D01*
X128390318Y-101964597D01*
X128412132Y-101984368D01*
X128431903Y-102006182D01*
X128449441Y-102029829D01*
X128464576Y-102055081D01*
X128477164Y-102081695D01*
X128487082Y-102109415D01*
X128494236Y-102137973D01*
X128498555Y-102167095D01*
X128500000Y-102196500D01*
X128500000Y-102796500D01*
X128498555Y-102825905D01*
X128494236Y-102855027D01*
X128487082Y-102883585D01*
X128477164Y-102911305D01*
X128464576Y-102937919D01*
X128449441Y-102963171D01*
X128431903Y-102986818D01*
X128412132Y-103008632D01*
X128390318Y-103028403D01*
X128366671Y-103045941D01*
X128341419Y-103061076D01*
X128314805Y-103073664D01*
X128287085Y-103083582D01*
X128258527Y-103090736D01*
X128229405Y-103095055D01*
X128200000Y-103096500D01*
X127300000Y-103096500D01*
X127270595Y-103095055D01*
X127241473Y-103090736D01*
X127212915Y-103083582D01*
X127185195Y-103073664D01*
X127158581Y-103061076D01*
X127133329Y-103045941D01*
X127109682Y-103028403D01*
X127087868Y-103008632D01*
X127068097Y-102986818D01*
X127050559Y-102963171D01*
X127035424Y-102937919D01*
X127022836Y-102911305D01*
X127012918Y-102883585D01*
X127005764Y-102855027D01*
X127001445Y-102825905D01*
X127000000Y-102796500D01*
X127000000Y-102196500D01*
X127001445Y-102167095D01*
X127005764Y-102137973D01*
X127012918Y-102109415D01*
X127022836Y-102081695D01*
X127035424Y-102055081D01*
X127050559Y-102029829D01*
X127068097Y-102006182D01*
X127087868Y-101984368D01*
X127109682Y-101964597D01*
X127133329Y-101947059D01*
X127158581Y-101931924D01*
X127185195Y-101919336D01*
X127212915Y-101909418D01*
X127241473Y-101902264D01*
X127270595Y-101897945D01*
X127300000Y-101896500D01*
X128200000Y-101896500D01*
X128229405Y-101897945D01*
X128229405Y-101897945D01*
G37*
D16*
G04 #@! TD*
G04 #@! TO.P,J1,4*
G04 #@! TO.N,GND*
X127750000Y-102496500D03*
D15*
G04 #@! TO.N,/D-_PLUG*
G04 #@! TO.C,J1*
G36*
X128229405Y-97397945D02*
X128258527Y-97402264D01*
X128287085Y-97409418D01*
X128314805Y-97419336D01*
X128341419Y-97431924D01*
X128366671Y-97447059D01*
X128390318Y-97464597D01*
X128412132Y-97484368D01*
X128431903Y-97506182D01*
X128449441Y-97529829D01*
X128464576Y-97555081D01*
X128477164Y-97581695D01*
X128487082Y-97609415D01*
X128494236Y-97637973D01*
X128498555Y-97667095D01*
X128500000Y-97696500D01*
X128500000Y-98296500D01*
X128498555Y-98325905D01*
X128494236Y-98355027D01*
X128487082Y-98383585D01*
X128477164Y-98411305D01*
X128464576Y-98437919D01*
X128449441Y-98463171D01*
X128431903Y-98486818D01*
X128412132Y-98508632D01*
X128390318Y-98528403D01*
X128366671Y-98545941D01*
X128341419Y-98561076D01*
X128314805Y-98573664D01*
X128287085Y-98583582D01*
X128258527Y-98590736D01*
X128229405Y-98595055D01*
X128200000Y-98596500D01*
X127300000Y-98596500D01*
X127270595Y-98595055D01*
X127241473Y-98590736D01*
X127212915Y-98583582D01*
X127185195Y-98573664D01*
X127158581Y-98561076D01*
X127133329Y-98545941D01*
X127109682Y-98528403D01*
X127087868Y-98508632D01*
X127068097Y-98486818D01*
X127050559Y-98463171D01*
X127035424Y-98437919D01*
X127022836Y-98411305D01*
X127012918Y-98383585D01*
X127005764Y-98355027D01*
X127001445Y-98325905D01*
X127000000Y-98296500D01*
X127000000Y-97696500D01*
X127001445Y-97667095D01*
X127005764Y-97637973D01*
X127012918Y-97609415D01*
X127022836Y-97581695D01*
X127035424Y-97555081D01*
X127050559Y-97529829D01*
X127068097Y-97506182D01*
X127087868Y-97484368D01*
X127109682Y-97464597D01*
X127133329Y-97447059D01*
X127158581Y-97431924D01*
X127185195Y-97419336D01*
X127212915Y-97409418D01*
X127241473Y-97402264D01*
X127270595Y-97397945D01*
X127300000Y-97396500D01*
X128200000Y-97396500D01*
X128229405Y-97397945D01*
X128229405Y-97397945D01*
G37*
D16*
G04 #@! TD*
G04 #@! TO.P,J1,2*
G04 #@! TO.N,/D-_PLUG*
X127750000Y-97996500D03*
D15*
G04 #@! TO.N,/D+_PLUG*
G04 #@! TO.C,J1*
G36*
X128229405Y-99397945D02*
X128258527Y-99402264D01*
X128287085Y-99409418D01*
X128314805Y-99419336D01*
X128341419Y-99431924D01*
X128366671Y-99447059D01*
X128390318Y-99464597D01*
X128412132Y-99484368D01*
X128431903Y-99506182D01*
X128449441Y-99529829D01*
X128464576Y-99555081D01*
X128477164Y-99581695D01*
X128487082Y-99609415D01*
X128494236Y-99637973D01*
X128498555Y-99667095D01*
X128500000Y-99696500D01*
X128500000Y-100296500D01*
X128498555Y-100325905D01*
X128494236Y-100355027D01*
X128487082Y-100383585D01*
X128477164Y-100411305D01*
X128464576Y-100437919D01*
X128449441Y-100463171D01*
X128431903Y-100486818D01*
X128412132Y-100508632D01*
X128390318Y-100528403D01*
X128366671Y-100545941D01*
X128341419Y-100561076D01*
X128314805Y-100573664D01*
X128287085Y-100583582D01*
X128258527Y-100590736D01*
X128229405Y-100595055D01*
X128200000Y-100596500D01*
X127300000Y-100596500D01*
X127270595Y-100595055D01*
X127241473Y-100590736D01*
X127212915Y-100583582D01*
X127185195Y-100573664D01*
X127158581Y-100561076D01*
X127133329Y-100545941D01*
X127109682Y-100528403D01*
X127087868Y-100508632D01*
X127068097Y-100486818D01*
X127050559Y-100463171D01*
X127035424Y-100437919D01*
X127022836Y-100411305D01*
X127012918Y-100383585D01*
X127005764Y-100355027D01*
X127001445Y-100325905D01*
X127000000Y-100296500D01*
X127000000Y-99696500D01*
X127001445Y-99667095D01*
X127005764Y-99637973D01*
X127012918Y-99609415D01*
X127022836Y-99581695D01*
X127035424Y-99555081D01*
X127050559Y-99529829D01*
X127068097Y-99506182D01*
X127087868Y-99484368D01*
X127109682Y-99464597D01*
X127133329Y-99447059D01*
X127158581Y-99431924D01*
X127185195Y-99419336D01*
X127212915Y-99409418D01*
X127241473Y-99402264D01*
X127270595Y-99397945D01*
X127300000Y-99396500D01*
X128200000Y-99396500D01*
X128229405Y-99397945D01*
X128229405Y-99397945D01*
G37*
D16*
G04 #@! TD*
G04 #@! TO.P,J1,3*
G04 #@! TO.N,/D+_PLUG*
X127750000Y-99996500D03*
D17*
G04 #@! TO.P,U2,1*
G04 #@! TO.N,GND*
X123919600Y-95608100D03*
G04 #@! TO.P,U2,2*
G04 #@! TO.N,+3V3*
X123919600Y-97508100D03*
G04 #@! TO.P,U2,3*
G04 #@! TO.N,/VBUS*
X126219600Y-96558100D03*
G04 #@! TD*
D18*
G04 #@! TO.P,U1,36*
G04 #@! TO.N,GND*
X120300000Y-101275000D03*
G04 #@! TO.P,U1,35*
X119800000Y-101275000D03*
G04 #@! TO.P,U1,34*
G04 #@! TO.N,Net-(U1-Pad34)*
X119300000Y-101275000D03*
G04 #@! TO.P,U1,33*
G04 #@! TO.N,Net-(U1-Pad33)*
X118800000Y-101275000D03*
G04 #@! TO.P,U1,32*
G04 #@! TO.N,Net-(U1-Pad32)*
X118300000Y-101275000D03*
G04 #@! TO.P,U1,31*
G04 #@! TO.N,Net-(U1-Pad31)*
X117800000Y-101275000D03*
G04 #@! TO.P,U1,30*
G04 #@! TO.N,Net-(U1-Pad30)*
X117300000Y-101275000D03*
G04 #@! TO.P,U1,29*
G04 #@! TO.N,Net-(U1-Pad29)*
X116800000Y-101275000D03*
G04 #@! TO.P,U1,28*
G04 #@! TO.N,/SWCLK*
X116300000Y-101275000D03*
D19*
G04 #@! TO.P,U1,27*
G04 #@! TO.N,+3V3*
X115525000Y-100500000D03*
G04 #@! TO.P,U1,26*
G04 #@! TO.N,GND*
X115525000Y-100000000D03*
G04 #@! TO.P,U1,25*
G04 #@! TO.N,/SWDIO*
X115525000Y-99500000D03*
G04 #@! TO.P,U1,24*
G04 #@! TO.N,/D+*
X115525000Y-99000000D03*
G04 #@! TO.P,U1,23*
G04 #@! TO.N,/D-*
X115525000Y-98500000D03*
G04 #@! TO.P,U1,22*
G04 #@! TO.N,Net-(U1-Pad22)*
X115525000Y-98000000D03*
G04 #@! TO.P,U1,21*
G04 #@! TO.N,Net-(U1-Pad21)*
X115525000Y-97500000D03*
G04 #@! TO.P,U1,20*
G04 #@! TO.N,/LED*
X115525000Y-97000000D03*
G04 #@! TO.P,U1,19*
G04 #@! TO.N,+3V3*
X115525000Y-96500000D03*
D18*
G04 #@! TO.P,U1,18*
G04 #@! TO.N,GND*
X116300000Y-95725000D03*
G04 #@! TO.P,U1,17*
X116800000Y-95725000D03*
G04 #@! TO.P,U1,16*
G04 #@! TO.N,Net-(U1-Pad16)*
X117300000Y-95725000D03*
G04 #@! TO.P,U1,15*
G04 #@! TO.N,Net-(U1-Pad15)*
X117800000Y-95725000D03*
G04 #@! TO.P,U1,14*
G04 #@! TO.N,Net-(U1-Pad14)*
X118300000Y-95725000D03*
G04 #@! TO.P,U1,13*
G04 #@! TO.N,Net-(U1-Pad13)*
X118800000Y-95725000D03*
G04 #@! TO.P,U1,12*
G04 #@! TO.N,Net-(U1-Pad12)*
X119300000Y-95725000D03*
G04 #@! TO.P,U1,11*
G04 #@! TO.N,Net-(U1-Pad11)*
X119800000Y-95725000D03*
G04 #@! TO.P,U1,10*
G04 #@! TO.N,/PA3*
X120300000Y-95725000D03*
D19*
G04 #@! TO.P,U1,9*
G04 #@! TO.N,Net-(U1-Pad9)*
X121075000Y-96500000D03*
G04 #@! TO.P,U1,8*
G04 #@! TO.N,Net-(U1-Pad8)*
X121075000Y-97000000D03*
G04 #@! TO.P,U1,7*
G04 #@! TO.N,Net-(U1-Pad7)*
X121075000Y-97500000D03*
G04 #@! TO.P,U1,6*
G04 #@! TO.N,+3V3*
X121075000Y-98000000D03*
G04 #@! TO.P,U1,5*
G04 #@! TO.N,GND*
X121075000Y-98500000D03*
G04 #@! TO.P,U1,4*
G04 #@! TO.N,/NRST*
X121075000Y-99000000D03*
G04 #@! TO.P,U1,3*
G04 #@! TO.N,/OSC_OUT*
X121075000Y-99500000D03*
G04 #@! TO.P,U1,2*
G04 #@! TO.N,/OSC_IN*
X121075000Y-100000000D03*
G04 #@! TO.P,U1,1*
G04 #@! TO.N,+3V3*
X121075000Y-100500000D03*
D20*
G04 #@! TO.P,U1,37*
G04 #@! TO.N,GND*
X119300000Y-99500000D03*
X117300000Y-97500000D03*
X117300000Y-99500000D03*
X119300000Y-97500000D03*
G04 #@! TD*
D21*
G04 #@! TO.P,U3,1*
G04 #@! TO.N,/D+*
X112350000Y-97710000D03*
G04 #@! TO.P,U3,2*
G04 #@! TO.N,GND*
X113000000Y-97710000D03*
G04 #@! TO.P,U3,3*
G04 #@! TO.N,/D-*
X113650000Y-97710000D03*
G04 #@! TO.P,U3,4*
G04 #@! TO.N,/D-_PLUG*
X113650000Y-95810000D03*
G04 #@! TO.P,U3,5*
G04 #@! TO.N,+3V3*
X113000000Y-95810000D03*
G04 #@! TO.P,U3,6*
G04 #@! TO.N,/D+_PLUG*
X112350000Y-95810000D03*
G04 #@! TD*
D15*
G04 #@! TO.N,N/C*
G04 #@! TO.C,U4*
G36*
X110060391Y-98430265D02*
X110065730Y-98431057D01*
X110070966Y-98432368D01*
X110076048Y-98434187D01*
X110080927Y-98436494D01*
X110085556Y-98439269D01*
X110089892Y-98442484D01*
X110093891Y-98446109D01*
X110097516Y-98450108D01*
X110100731Y-98454444D01*
X110103506Y-98459073D01*
X110105813Y-98463952D01*
X110107632Y-98469034D01*
X110108943Y-98474270D01*
X110109735Y-98479609D01*
X110110000Y-98485000D01*
X110110000Y-98775000D01*
X110109735Y-98780391D01*
X110108943Y-98785730D01*
X110107632Y-98790966D01*
X110105813Y-98796048D01*
X110103506Y-98800927D01*
X110100731Y-98805556D01*
X110097516Y-98809892D01*
X110093891Y-98813891D01*
X110089892Y-98817516D01*
X110085556Y-98820731D01*
X110080927Y-98823506D01*
X110076048Y-98825813D01*
X110070966Y-98827632D01*
X110065730Y-98828943D01*
X110060391Y-98829735D01*
X110055000Y-98830000D01*
X109945000Y-98830000D01*
X109939609Y-98829735D01*
X109934270Y-98828943D01*
X109929034Y-98827632D01*
X109923952Y-98825813D01*
X109919073Y-98823506D01*
X109914444Y-98820731D01*
X109910108Y-98817516D01*
X109906109Y-98813891D01*
X109902484Y-98809892D01*
X109899269Y-98805556D01*
X109896494Y-98800927D01*
X109894187Y-98796048D01*
X109892368Y-98790966D01*
X109891057Y-98785730D01*
X109890265Y-98780391D01*
X109890000Y-98775000D01*
X109890000Y-98485000D01*
X109890265Y-98479609D01*
X109891057Y-98474270D01*
X109892368Y-98469034D01*
X109894187Y-98463952D01*
X109896494Y-98459073D01*
X109899269Y-98454444D01*
X109902484Y-98450108D01*
X109906109Y-98446109D01*
X109910108Y-98442484D01*
X109914444Y-98439269D01*
X109919073Y-98436494D01*
X109923952Y-98434187D01*
X109929034Y-98432368D01*
X109934270Y-98431057D01*
X109939609Y-98430265D01*
X109945000Y-98430000D01*
X110055000Y-98430000D01*
X110060391Y-98430265D01*
X110060391Y-98430265D01*
G37*
D22*
G04 #@! TD*
G04 #@! TO.P,U4,3*
G04 #@! TO.N,N/C*
X110000000Y-98630000D03*
D15*
G04 #@! TO.N,GND*
G04 #@! TO.C,U4*
G36*
X109560391Y-98430265D02*
X109565730Y-98431057D01*
X109570966Y-98432368D01*
X109576048Y-98434187D01*
X109580927Y-98436494D01*
X109585556Y-98439269D01*
X109589892Y-98442484D01*
X109593891Y-98446109D01*
X109597516Y-98450108D01*
X109600731Y-98454444D01*
X109603506Y-98459073D01*
X109605813Y-98463952D01*
X109607632Y-98469034D01*
X109608943Y-98474270D01*
X109609735Y-98479609D01*
X109610000Y-98485000D01*
X109610000Y-98775000D01*
X109609735Y-98780391D01*
X109608943Y-98785730D01*
X109607632Y-98790966D01*
X109605813Y-98796048D01*
X109603506Y-98800927D01*
X109600731Y-98805556D01*
X109597516Y-98809892D01*
X109593891Y-98813891D01*
X109589892Y-98817516D01*
X109585556Y-98820731D01*
X109580927Y-98823506D01*
X109576048Y-98825813D01*
X109570966Y-98827632D01*
X109565730Y-98828943D01*
X109560391Y-98829735D01*
X109555000Y-98830000D01*
X109445000Y-98830000D01*
X109439609Y-98829735D01*
X109434270Y-98828943D01*
X109429034Y-98827632D01*
X109423952Y-98825813D01*
X109419073Y-98823506D01*
X109414444Y-98820731D01*
X109410108Y-98817516D01*
X109406109Y-98813891D01*
X109402484Y-98809892D01*
X109399269Y-98805556D01*
X109396494Y-98800927D01*
X109394187Y-98796048D01*
X109392368Y-98790966D01*
X109391057Y-98785730D01*
X109390265Y-98780391D01*
X109390000Y-98775000D01*
X109390000Y-98485000D01*
X109390265Y-98479609D01*
X109391057Y-98474270D01*
X109392368Y-98469034D01*
X109394187Y-98463952D01*
X109396494Y-98459073D01*
X109399269Y-98454444D01*
X109402484Y-98450108D01*
X109406109Y-98446109D01*
X109410108Y-98442484D01*
X109414444Y-98439269D01*
X109419073Y-98436494D01*
X109423952Y-98434187D01*
X109429034Y-98432368D01*
X109434270Y-98431057D01*
X109439609Y-98430265D01*
X109445000Y-98430000D01*
X109555000Y-98430000D01*
X109560391Y-98430265D01*
X109560391Y-98430265D01*
G37*
D22*
G04 #@! TD*
G04 #@! TO.P,U4,2*
G04 #@! TO.N,GND*
X109500000Y-98630000D03*
D15*
G04 #@! TO.N,/PA3*
G04 #@! TO.C,U4*
G36*
X110060391Y-97030265D02*
X110065730Y-97031057D01*
X110070966Y-97032368D01*
X110076048Y-97034187D01*
X110080927Y-97036494D01*
X110085556Y-97039269D01*
X110089892Y-97042484D01*
X110093891Y-97046109D01*
X110097516Y-97050108D01*
X110100731Y-97054444D01*
X110103506Y-97059073D01*
X110105813Y-97063952D01*
X110107632Y-97069034D01*
X110108943Y-97074270D01*
X110109735Y-97079609D01*
X110110000Y-97085000D01*
X110110000Y-97375000D01*
X110109735Y-97380391D01*
X110108943Y-97385730D01*
X110107632Y-97390966D01*
X110105813Y-97396048D01*
X110103506Y-97400927D01*
X110100731Y-97405556D01*
X110097516Y-97409892D01*
X110093891Y-97413891D01*
X110089892Y-97417516D01*
X110085556Y-97420731D01*
X110080927Y-97423506D01*
X110076048Y-97425813D01*
X110070966Y-97427632D01*
X110065730Y-97428943D01*
X110060391Y-97429735D01*
X110055000Y-97430000D01*
X109945000Y-97430000D01*
X109939609Y-97429735D01*
X109934270Y-97428943D01*
X109929034Y-97427632D01*
X109923952Y-97425813D01*
X109919073Y-97423506D01*
X109914444Y-97420731D01*
X109910108Y-97417516D01*
X109906109Y-97413891D01*
X109902484Y-97409892D01*
X109899269Y-97405556D01*
X109896494Y-97400927D01*
X109894187Y-97396048D01*
X109892368Y-97390966D01*
X109891057Y-97385730D01*
X109890265Y-97380391D01*
X109890000Y-97375000D01*
X109890000Y-97085000D01*
X109890265Y-97079609D01*
X109891057Y-97074270D01*
X109892368Y-97069034D01*
X109894187Y-97063952D01*
X109896494Y-97059073D01*
X109899269Y-97054444D01*
X109902484Y-97050108D01*
X109906109Y-97046109D01*
X109910108Y-97042484D01*
X109914444Y-97039269D01*
X109919073Y-97036494D01*
X109923952Y-97034187D01*
X109929034Y-97032368D01*
X109934270Y-97031057D01*
X109939609Y-97030265D01*
X109945000Y-97030000D01*
X110055000Y-97030000D01*
X110060391Y-97030265D01*
X110060391Y-97030265D01*
G37*
D22*
G04 #@! TD*
G04 #@! TO.P,U4,4*
G04 #@! TO.N,/PA3*
X110000000Y-97230000D03*
D15*
G04 #@! TO.N,+3V3*
G04 #@! TO.C,U4*
G36*
X109560391Y-97030265D02*
X109565730Y-97031057D01*
X109570966Y-97032368D01*
X109576048Y-97034187D01*
X109580927Y-97036494D01*
X109585556Y-97039269D01*
X109589892Y-97042484D01*
X109593891Y-97046109D01*
X109597516Y-97050108D01*
X109600731Y-97054444D01*
X109603506Y-97059073D01*
X109605813Y-97063952D01*
X109607632Y-97069034D01*
X109608943Y-97074270D01*
X109609735Y-97079609D01*
X109610000Y-97085000D01*
X109610000Y-97375000D01*
X109609735Y-97380391D01*
X109608943Y-97385730D01*
X109607632Y-97390966D01*
X109605813Y-97396048D01*
X109603506Y-97400927D01*
X109600731Y-97405556D01*
X109597516Y-97409892D01*
X109593891Y-97413891D01*
X109589892Y-97417516D01*
X109585556Y-97420731D01*
X109580927Y-97423506D01*
X109576048Y-97425813D01*
X109570966Y-97427632D01*
X109565730Y-97428943D01*
X109560391Y-97429735D01*
X109555000Y-97430000D01*
X109445000Y-97430000D01*
X109439609Y-97429735D01*
X109434270Y-97428943D01*
X109429034Y-97427632D01*
X109423952Y-97425813D01*
X109419073Y-97423506D01*
X109414444Y-97420731D01*
X109410108Y-97417516D01*
X109406109Y-97413891D01*
X109402484Y-97409892D01*
X109399269Y-97405556D01*
X109396494Y-97400927D01*
X109394187Y-97396048D01*
X109392368Y-97390966D01*
X109391057Y-97385730D01*
X109390265Y-97380391D01*
X109390000Y-97375000D01*
X109390000Y-97085000D01*
X109390265Y-97079609D01*
X109391057Y-97074270D01*
X109392368Y-97069034D01*
X109394187Y-97063952D01*
X109396494Y-97059073D01*
X109399269Y-97054444D01*
X109402484Y-97050108D01*
X109406109Y-97046109D01*
X109410108Y-97042484D01*
X109414444Y-97039269D01*
X109419073Y-97036494D01*
X109423952Y-97034187D01*
X109429034Y-97032368D01*
X109434270Y-97031057D01*
X109439609Y-97030265D01*
X109445000Y-97030000D01*
X109555000Y-97030000D01*
X109560391Y-97030265D01*
X109560391Y-97030265D01*
G37*
D22*
G04 #@! TD*
G04 #@! TO.P,U4,1*
G04 #@! TO.N,+3V3*
X109500000Y-97230000D03*
D15*
G04 #@! TO.N,N/C*
G04 #@! TO.C,U4*
G36*
X110014703Y-97630722D02*
X110029264Y-97632882D01*
X110043543Y-97636459D01*
X110057403Y-97641418D01*
X110070710Y-97647712D01*
X110083336Y-97655280D01*
X110095159Y-97664048D01*
X110106066Y-97673934D01*
X110115952Y-97684841D01*
X110124720Y-97696664D01*
X110132288Y-97709290D01*
X110138582Y-97722597D01*
X110143541Y-97736457D01*
X110147118Y-97750736D01*
X110149278Y-97765297D01*
X110150000Y-97780000D01*
X110150000Y-98080000D01*
X110149278Y-98094703D01*
X110147118Y-98109264D01*
X110143541Y-98123543D01*
X110138582Y-98137403D01*
X110132288Y-98150710D01*
X110124720Y-98163336D01*
X110115952Y-98175159D01*
X110106066Y-98186066D01*
X110095159Y-98195952D01*
X110083336Y-98204720D01*
X110070710Y-98212288D01*
X110057403Y-98218582D01*
X110043543Y-98223541D01*
X110029264Y-98227118D01*
X110014703Y-98229278D01*
X110000000Y-98230000D01*
X109500000Y-98230000D01*
X109485297Y-98229278D01*
X109470736Y-98227118D01*
X109456457Y-98223541D01*
X109442597Y-98218582D01*
X109429290Y-98212288D01*
X109416664Y-98204720D01*
X109404841Y-98195952D01*
X109393934Y-98186066D01*
X109384048Y-98175159D01*
X109375280Y-98163336D01*
X109367712Y-98150710D01*
X109361418Y-98137403D01*
X109356459Y-98123543D01*
X109352882Y-98109264D01*
X109350722Y-98094703D01*
X109350000Y-98080000D01*
X109350000Y-97780000D01*
X109350722Y-97765297D01*
X109352882Y-97750736D01*
X109356459Y-97736457D01*
X109361418Y-97722597D01*
X109367712Y-97709290D01*
X109375280Y-97696664D01*
X109384048Y-97684841D01*
X109393934Y-97673934D01*
X109404841Y-97664048D01*
X109416664Y-97655280D01*
X109429290Y-97647712D01*
X109442597Y-97641418D01*
X109456457Y-97636459D01*
X109470736Y-97632882D01*
X109485297Y-97630722D01*
X109500000Y-97630000D01*
X110000000Y-97630000D01*
X110014703Y-97630722D01*
X110014703Y-97630722D01*
G37*
D23*
G04 #@! TD*
G04 #@! TO.P,U4,5*
G04 #@! TO.N,N/C*
X109750000Y-97930000D03*
D24*
G04 #@! TO.P,R1,1*
G04 #@! TO.N,Net-(D1-Pad1)*
X111250000Y-101398640D03*
G04 #@! TO.P,R1,2*
G04 #@! TO.N,GND*
X111250000Y-100301360D03*
G04 #@! TD*
D25*
G04 #@! TO.P,C9,2*
G04 #@! TO.N,GND*
X124148160Y-94100000D03*
G04 #@! TO.P,C9,1*
G04 #@! TO.N,/VBUS*
X125651840Y-94100000D03*
G04 #@! TD*
D26*
G04 #@! TO.P,C2,2*
G04 #@! TO.N,GND*
X124898640Y-99300000D03*
G04 #@! TO.P,C2,1*
G04 #@! TO.N,/OSC_OUT*
X123801360Y-99300000D03*
G04 #@! TD*
D24*
G04 #@! TO.P,C1,2*
G04 #@! TO.N,+3V3*
X122600000Y-96987360D03*
G04 #@! TO.P,C1,1*
G04 #@! TO.N,GND*
X122600000Y-98084640D03*
G04 #@! TD*
D26*
G04 #@! TO.P,C4,2*
G04 #@! TO.N,+3V3*
X121248640Y-102750000D03*
G04 #@! TO.P,C4,1*
G04 #@! TO.N,GND*
X120151360Y-102750000D03*
G04 #@! TD*
G04 #@! TO.P,C7,2*
G04 #@! TO.N,+3V3*
X115451360Y-94200000D03*
G04 #@! TO.P,C7,1*
G04 #@! TO.N,GND*
X116548640Y-94200000D03*
G04 #@! TD*
D24*
G04 #@! TO.P,C6,2*
G04 #@! TO.N,+3V3*
X114000000Y-101323140D03*
G04 #@! TO.P,C6,1*
G04 #@! TO.N,GND*
X114000000Y-100225860D03*
G04 #@! TD*
G04 #@! TO.P,C3,2*
G04 #@! TO.N,GND*
X122450000Y-103348640D03*
G04 #@! TO.P,C3,1*
G04 #@! TO.N,/OSC_IN*
X122450000Y-102251360D03*
G04 #@! TD*
D26*
G04 #@! TO.P,C5,2*
G04 #@! TO.N,GND*
X118848640Y-102750000D03*
G04 #@! TO.P,C5,1*
G04 #@! TO.N,/NRST*
X117751360Y-102750000D03*
G04 #@! TD*
D27*
G04 #@! TO.P,C8,2*
G04 #@! TO.N,GND*
X122750000Y-94168160D03*
G04 #@! TO.P,C8,1*
G04 #@! TO.N,+3V3*
X122750000Y-95671840D03*
G04 #@! TD*
D28*
G04 #@! TO.N,/D+_PLUG*
X127396240Y-100200460D03*
X111861340Y-95643440D03*
G04 #@! TO.N,/D-_PLUG*
X128097280Y-97797618D03*
X114211778Y-94973100D03*
G04 #@! TO.N,/NRST*
X122631891Y-99554609D03*
X117177820Y-102494080D03*
G04 #@! TO.N,GND*
X118300500Y-98577400D03*
X113300000Y-100250000D03*
G04 #@! TO.N,+3V3*
X123698000Y-96634240D03*
X115341400Y-95897700D03*
X121386600Y-101201220D03*
X113300000Y-101500000D03*
G04 #@! TO.N,/PA3*
X120243600Y-93941900D03*
X110210600Y-96443800D03*
G04 #@! TD*
D29*
G04 #@! TO.N,/D+*
X112389920Y-98140520D02*
X112389920Y-97665540D01*
X113365280Y-99021900D02*
X113271300Y-99021900D01*
X113271300Y-99021900D02*
X112389920Y-98140520D01*
X115488368Y-99001451D02*
X115290600Y-99021900D01*
X115290600Y-99021900D02*
X113360200Y-99021900D01*
G04 #@! TO.N,/D+_PLUG*
X112049558Y-95818958D02*
X111887000Y-95656400D01*
X112420400Y-95821500D02*
X112049558Y-95821500D01*
G04 #@! TO.N,/D-*
X113652300Y-97764600D02*
X113677700Y-97739200D01*
X113652300Y-97878900D02*
X113652300Y-97764600D01*
X115488368Y-98501071D02*
X114274471Y-98501071D01*
X114274471Y-98501071D02*
X113652300Y-97878900D01*
G04 #@! TO.N,/D-_PLUG*
X127203954Y-97797618D02*
X127531595Y-97797618D01*
X127531595Y-97797618D02*
X128097280Y-97797618D01*
X127201418Y-97795082D02*
X127203954Y-97797618D01*
X114249200Y-95288100D02*
X114249200Y-95010522D01*
X114249200Y-95010522D02*
X114211778Y-94973100D01*
X113741200Y-95199200D02*
X114096800Y-94843600D01*
X113741200Y-95872300D02*
X113741200Y-95199200D01*
G04 #@! TO.N,/LED*
X109982000Y-99949000D02*
X109855000Y-99822000D01*
X113217831Y-96999931D02*
X115488368Y-96999931D01*
X111112300Y-96710500D02*
X112928400Y-96710500D01*
X110464600Y-98868300D02*
X110464600Y-97358200D01*
X112928400Y-96710500D02*
X113217831Y-96999931D01*
X110464600Y-97358200D02*
X111112300Y-96710500D01*
X110464600Y-98920300D02*
X110464600Y-98882200D01*
X109994700Y-99390200D02*
X110464600Y-98920300D01*
X109816900Y-99872800D02*
X109994700Y-99695000D01*
X109994700Y-99695000D02*
X109994700Y-99390200D01*
G04 #@! TO.N,/NRST*
X121040808Y-99001451D02*
X121090337Y-99050980D01*
X122079891Y-99001451D02*
X122090180Y-99011740D01*
X121040808Y-99001451D02*
X122079891Y-99001451D01*
X116956840Y-102257860D02*
X117210840Y-102511860D01*
X117210840Y-102511860D02*
X117901720Y-102511860D01*
X115493800Y-102257860D02*
X116956840Y-102257860D01*
X114790220Y-103233220D02*
X114790220Y-102961440D01*
X114790220Y-102961440D02*
X115493800Y-102257860D01*
X122643900Y-99566618D02*
X122643900Y-99568000D01*
X122073782Y-98996500D02*
X122643900Y-99566618D01*
G04 #@! TO.N,/OSC_IN*
X125310014Y-102538913D02*
X125653800Y-102882700D01*
X122428000Y-102019100D02*
X122466100Y-102057200D01*
X122428000Y-100909721D02*
X122428000Y-102019100D01*
X121040808Y-100002211D02*
X121520490Y-100002211D01*
X121520490Y-100002211D02*
X122428000Y-100909721D01*
X125628400Y-102590600D02*
X125628400Y-103009700D01*
X122656600Y-102031800D02*
X125069600Y-102031800D01*
X125069600Y-102031800D02*
X125628400Y-102590600D01*
G04 #@! TO.N,/OSC_OUT*
X124001037Y-100678594D02*
X124140737Y-100538894D01*
X124140737Y-100538894D02*
X123937537Y-100538894D01*
X124001037Y-100505874D02*
X124001037Y-100678594D01*
X123875800Y-100545900D02*
X124282200Y-100545900D01*
X123748800Y-99275900D02*
X123748800Y-100418900D01*
X123748800Y-100418900D02*
X123875800Y-100545900D01*
X123774200Y-100825300D02*
X124079000Y-100520500D01*
X122911146Y-100825300D02*
X123774200Y-100825300D01*
X121826450Y-99740604D02*
X122911146Y-100825300D01*
X121081800Y-99517200D02*
X121619058Y-99517200D01*
X121619058Y-99517200D02*
X121826450Y-99740604D01*
G04 #@! TO.N,/SWCLK*
X116263068Y-101502081D02*
X116263068Y-101277291D01*
X114721640Y-102268020D02*
X115516660Y-101473000D01*
X114251740Y-102268020D02*
X114721640Y-102268020D01*
X113548160Y-103162100D02*
X113548160Y-102971600D01*
X116205000Y-101473000D02*
X116268500Y-101536500D01*
X115516660Y-101473000D02*
X116205000Y-101473000D01*
X113548160Y-102971600D02*
X114251740Y-102268020D01*
G04 #@! TO.N,/SWDIO*
X112947700Y-99501831D02*
X112483900Y-99965631D01*
X115488368Y-99501831D02*
X112947700Y-99501831D01*
X112483900Y-99965631D02*
X112483900Y-102938580D01*
X112268000Y-103162100D02*
X112483900Y-102946200D01*
X112268000Y-103174800D02*
X112268000Y-103162100D01*
D30*
G04 #@! TO.N,/VBUS*
X126095000Y-96583500D02*
X126095000Y-95667320D01*
X126144020Y-95501460D02*
X127317500Y-95501460D01*
X125590300Y-93967300D02*
X125592840Y-93967300D01*
X126093220Y-95592900D02*
X126093220Y-94470220D01*
X126093220Y-94470220D02*
X125590300Y-93967300D01*
D29*
G04 #@! TO.N,GND*
X128200000Y-93996500D02*
X128200000Y-93973500D01*
X128200000Y-93973500D02*
X128016000Y-93789500D01*
D31*
X119305988Y-97459671D02*
X119305988Y-97495712D01*
X117223188Y-97459671D02*
X117223188Y-97500088D01*
X117223188Y-97500088D02*
X119227600Y-99504500D01*
X119305988Y-97459671D02*
X119305988Y-97521112D01*
X118300500Y-98526600D02*
X118300500Y-98577400D01*
X118300500Y-98577400D02*
X119214900Y-99491800D01*
D29*
X118262400Y-98539300D02*
X118300500Y-98577400D01*
D31*
X119305988Y-97495712D02*
X118262400Y-98539300D01*
D32*
X121040808Y-98501071D02*
X122453529Y-98501071D01*
D29*
X125018800Y-99199700D02*
X125069600Y-99250500D01*
X125069600Y-99250500D02*
X125349000Y-99250500D01*
X123343670Y-98234500D02*
X125018800Y-98234500D01*
X125018800Y-98234500D02*
X125018800Y-99199700D01*
X122631200Y-98071940D02*
X123181110Y-98071940D01*
D33*
X125679200Y-100266500D02*
X125456950Y-100266500D01*
D34*
X125679200Y-99540060D02*
X125679200Y-100266500D01*
X124856240Y-99275900D02*
X125415040Y-99275900D01*
X125415040Y-99275900D02*
X125679200Y-99540060D01*
D35*
X123494800Y-103314500D02*
X122605800Y-103314500D01*
D29*
X122555000Y-98404680D02*
X122555000Y-98107500D01*
D32*
X122455940Y-98503740D02*
X122555000Y-98404680D01*
D36*
X115488368Y-100002211D02*
X115013718Y-100002211D01*
D29*
X111978440Y-102086410D02*
X111718090Y-102346760D01*
X128200000Y-103996500D02*
X128079340Y-103875840D01*
X128079340Y-103875840D02*
X127391160Y-103875840D01*
D31*
X119280588Y-97485071D02*
X119280588Y-97881088D01*
X119280588Y-97881088D02*
X119231976Y-97929700D01*
X119231976Y-97929700D02*
X117627400Y-97929700D01*
X117221000Y-97523300D02*
X117221000Y-97548700D01*
X117221000Y-97548700D02*
X117627400Y-97955100D01*
X117627400Y-97955100D02*
X118897400Y-97955100D01*
X119280588Y-99517071D02*
X119138571Y-99517071D01*
X117248588Y-97485071D02*
X117309771Y-97485071D01*
X117309771Y-97586671D02*
X117703600Y-97980500D01*
X117309771Y-97485071D02*
X117309771Y-97586671D01*
X117309771Y-97485071D02*
X117729000Y-97904300D01*
X119280588Y-99517071D02*
X119214771Y-99517071D01*
X119214771Y-99491671D02*
X118770400Y-99047300D01*
X119214771Y-99517071D02*
X119214771Y-99491671D01*
D33*
X119832120Y-101277420D02*
X120154700Y-101277420D01*
D37*
X116586000Y-94488000D02*
X116586000Y-95585280D01*
X116370100Y-95605600D02*
X116690140Y-95605600D01*
D36*
X114841429Y-100012370D02*
X114742368Y-100111431D01*
X114742368Y-100111431D02*
X114327588Y-100111431D01*
X115023900Y-100002340D02*
X115013870Y-100012370D01*
X115013870Y-100012370D02*
X114841429Y-100012370D01*
D29*
X108915200Y-95186500D02*
X110439200Y-93662500D01*
X108915200Y-98640900D02*
X108915200Y-95186500D01*
X108902500Y-98653600D02*
X108915200Y-98640900D01*
X108902500Y-102031800D02*
X108902500Y-98653600D01*
X111734600Y-102349300D02*
X109220000Y-102349300D01*
X109220000Y-102349300D02*
X108902500Y-102031800D01*
D38*
X112499140Y-97152460D02*
X112595660Y-97152460D01*
X111381540Y-97152460D02*
X112499140Y-97152460D01*
X111340900Y-97193100D02*
X111381540Y-97152460D01*
X111340900Y-97523300D02*
X111340900Y-97193100D01*
D29*
X113836983Y-100253800D02*
X113271298Y-100253800D01*
X114327588Y-100111431D02*
X114185219Y-100253800D01*
X114185219Y-100253800D02*
X113836983Y-100253800D01*
X116586000Y-94576900D02*
X116586000Y-94043500D01*
D38*
X113045240Y-97513140D02*
X113045240Y-97711260D01*
X112588040Y-97152460D02*
X112684560Y-97152460D01*
X112684560Y-97152460D02*
X113045240Y-97513140D01*
X111340900Y-98003549D02*
X111340900Y-97536000D01*
X111836200Y-98498849D02*
X111340900Y-98003549D01*
X111836200Y-100050600D02*
X111836200Y-98498849D01*
X111975900Y-100190300D02*
X111836200Y-100050600D01*
X111988600Y-102095300D02*
X111975900Y-102082600D01*
X111975900Y-102082600D02*
X111975900Y-100190300D01*
D29*
X111935260Y-100276660D02*
X111950500Y-100291900D01*
X111302800Y-100276660D02*
X111935260Y-100276660D01*
D39*
X122389900Y-94173040D02*
X124040900Y-94170500D01*
D34*
X124089160Y-95559880D02*
X124180600Y-95559880D01*
X124079000Y-95549720D02*
X124089160Y-95559880D01*
X124079000Y-94566740D02*
X124079000Y-95549720D01*
D40*
X120307100Y-102577900D02*
X120269000Y-102616000D01*
X120243600Y-101257100D02*
X120307100Y-101320600D01*
X120307100Y-101320600D02*
X120307100Y-102577900D01*
D29*
X119888000Y-103505000D02*
X120211850Y-103181150D01*
X120211850Y-102539800D02*
X119957850Y-102793800D01*
X116801900Y-103505000D02*
X119888000Y-103505000D01*
X120211850Y-103181150D02*
X120211850Y-102539800D01*
X116123720Y-103159560D02*
X116456460Y-103159560D01*
X116456460Y-103159560D02*
X116801900Y-103505000D01*
X127393700Y-93167200D02*
X128143000Y-93916500D01*
X124574300Y-93167200D02*
X127393700Y-93167200D01*
D35*
X123280170Y-98171000D02*
X123343670Y-98234500D01*
X122872500Y-98171000D02*
X123280170Y-98171000D01*
D38*
X110741460Y-93357700D02*
X110449360Y-93649800D01*
X114820420Y-93357700D02*
X110741460Y-93357700D01*
X114829031Y-93349089D02*
X114820420Y-93357700D01*
X116598700Y-93992700D02*
X116598700Y-93687900D01*
X116259889Y-93349089D02*
X114829031Y-93349089D01*
X116598700Y-93687900D02*
X116259889Y-93349089D01*
D29*
X124269500Y-93179900D02*
X124574300Y-93179900D01*
X124066300Y-93383100D02*
X124269500Y-93179900D01*
X123819920Y-94028260D02*
X124066300Y-93865700D01*
X124066300Y-93865700D02*
X124066300Y-93383100D01*
X118872000Y-102755700D02*
X119957850Y-102755700D01*
X118846600Y-102730300D02*
X118872000Y-102755700D01*
X108915200Y-98590100D02*
X108915200Y-98640900D01*
X109550200Y-98628200D02*
X108953300Y-98628200D01*
X108953300Y-98628200D02*
X108915200Y-98590100D01*
D36*
G04 #@! TO.N,+3V3*
X115366800Y-96342200D02*
X115519200Y-96494600D01*
D34*
X115366800Y-95199200D02*
X115366800Y-96342200D01*
D36*
X115488368Y-96499551D02*
X114038251Y-96499551D01*
D37*
X121348500Y-100545900D02*
X121361200Y-100558600D01*
D36*
X121810909Y-98000691D02*
X121820940Y-97990660D01*
X121040808Y-98000691D02*
X121810909Y-98000691D01*
D35*
X123385580Y-97500440D02*
X124183140Y-97500440D01*
X122859800Y-96974660D02*
X123385580Y-97500440D01*
X122692160Y-96974660D02*
X122859800Y-96974660D01*
D34*
X122529600Y-95897700D02*
X122529600Y-96812100D01*
X122529600Y-96812100D02*
X122692160Y-96974660D01*
X124023060Y-96634240D02*
X123698000Y-96634240D01*
X124152660Y-97421700D02*
X124152660Y-96763840D01*
X124152660Y-96763840D02*
X124023060Y-96634240D01*
X114735129Y-101351080D02*
X115519200Y-100567009D01*
X114414300Y-101351080D02*
X114735129Y-101351080D01*
X113471960Y-101533960D02*
X114231420Y-101533960D01*
X114231420Y-101533960D02*
X114414300Y-101351080D01*
X115366800Y-95730060D02*
X115450620Y-95813880D01*
X115366800Y-95255744D02*
X115366800Y-95730060D01*
D36*
X113055400Y-96192340D02*
X113055400Y-95885000D01*
X114096800Y-96507300D02*
X113362611Y-96499551D01*
X113362611Y-96499551D02*
X113055400Y-96192340D01*
D34*
X115364260Y-95145860D02*
X115366800Y-95148400D01*
X115366800Y-94094300D02*
X115364260Y-94617540D01*
X115364260Y-94617540D02*
X115364260Y-95145860D01*
D37*
X121856500Y-97904300D02*
X121856500Y-97066100D01*
X121805700Y-97955100D02*
X121856500Y-97904300D01*
D35*
X121945400Y-96989900D02*
X122422156Y-96989900D01*
X121856500Y-97078800D02*
X121945400Y-96989900D01*
X121386600Y-103466900D02*
X121386600Y-100596700D01*
X120751600Y-104101900D02*
X121386600Y-103466900D01*
X110998000Y-103187500D02*
X110998000Y-103568500D01*
X111531400Y-104101900D02*
X120751600Y-104101900D01*
X110998000Y-103568500D02*
X111531400Y-104101900D01*
D29*
X109499400Y-96151700D02*
X109499400Y-97218500D01*
X110020100Y-95631000D02*
X109499400Y-96151700D01*
X113813012Y-94246700D02*
X113139912Y-94919800D01*
X113139912Y-94919800D02*
X111544100Y-94919800D01*
X110832900Y-95631000D02*
X110020100Y-95631000D01*
X115252500Y-94246700D02*
X113813012Y-94246700D01*
X115265200Y-94234000D02*
X115252500Y-94246700D01*
X111544100Y-94919800D02*
X110832900Y-95631000D01*
G04 #@! TO.N,Net-(D1-Pad1)*
X111213900Y-101384100D02*
X111264700Y-101333300D01*
X109905800Y-101384100D02*
X111213900Y-101384100D01*
G04 #@! TO.N,/PA3*
X120266108Y-95724851D02*
X120269000Y-95721959D01*
X120269000Y-94018100D02*
X120243600Y-93992700D01*
X120269000Y-95758000D02*
X120269000Y-94018100D01*
X110007400Y-96685100D02*
X110172500Y-96520000D01*
X110007400Y-97129600D02*
X110007400Y-96685100D01*
G04 #@! TD*
D41*
G04 #@! TO.N,GND*
G36*
X127220093Y-94168676D02*
X127228947Y-94206677D01*
X127251669Y-94238396D01*
X127298814Y-94263141D01*
X127910026Y-94395902D01*
X127912506Y-94404203D01*
X128186082Y-94464158D01*
X128207026Y-94460413D01*
X129263471Y-94689882D01*
X129263470Y-103616659D01*
X128490171Y-103597758D01*
X128487494Y-103588797D01*
X128213918Y-103528842D01*
X127938223Y-103578145D01*
X127912506Y-103588797D01*
X127903471Y-103619043D01*
X127358136Y-103674758D01*
X127320840Y-103686220D01*
X127290769Y-103711082D01*
X127270572Y-103753046D01*
X127020779Y-104904870D01*
X108861530Y-104904870D01*
X108861530Y-101049300D01*
X109039065Y-101049300D01*
X109039065Y-101749300D01*
X109066540Y-101887424D01*
X109144780Y-102004520D01*
X109261876Y-102082760D01*
X109400000Y-102110235D01*
X110100000Y-102110235D01*
X110238124Y-102082760D01*
X110355220Y-102004520D01*
X110433460Y-101887424D01*
X110443206Y-101838430D01*
X110551509Y-101838430D01*
X110567290Y-101917764D01*
X110645530Y-102034860D01*
X110762626Y-102113100D01*
X110900750Y-102140575D01*
X111599250Y-102140575D01*
X111737374Y-102113100D01*
X111854470Y-102034860D01*
X111932710Y-101917764D01*
X111960185Y-101779640D01*
X111960185Y-101017640D01*
X111932710Y-100879516D01*
X111912982Y-100849991D01*
X111953250Y-100752775D01*
X111953250Y-100543860D01*
X111864750Y-100455360D01*
X111404000Y-100455360D01*
X111404000Y-100475360D01*
X111096000Y-100475360D01*
X111096000Y-100455360D01*
X110635250Y-100455360D01*
X110546750Y-100543860D01*
X110546750Y-100752775D01*
X110587018Y-100849991D01*
X110567290Y-100879516D01*
X110557294Y-100929770D01*
X110437159Y-100929770D01*
X110433460Y-100911176D01*
X110355220Y-100794080D01*
X110238124Y-100715840D01*
X110100000Y-100688365D01*
X109400000Y-100688365D01*
X109261876Y-100715840D01*
X109144780Y-100794080D01*
X109066540Y-100911176D01*
X109039065Y-101049300D01*
X108861530Y-101049300D01*
X108861530Y-98818500D01*
X109036000Y-98818500D01*
X109036000Y-98900415D01*
X109089893Y-99030525D01*
X109189475Y-99130107D01*
X109319585Y-99184000D01*
X109356500Y-99184000D01*
X109445000Y-99095500D01*
X109445000Y-98730000D01*
X109124500Y-98730000D01*
X109036000Y-98818500D01*
X108861530Y-98818500D01*
X108861530Y-97780000D01*
X108989065Y-97780000D01*
X108989065Y-98080000D01*
X109027958Y-98275526D01*
X109054416Y-98315124D01*
X109036000Y-98359585D01*
X109036000Y-98441500D01*
X109124500Y-98530000D01*
X109271485Y-98530000D01*
X109304474Y-98552042D01*
X109500000Y-98590935D01*
X109529065Y-98590935D01*
X109529065Y-98775000D01*
X109555000Y-98905384D01*
X109555000Y-99095500D01*
X109609068Y-99149568D01*
X109582210Y-99189765D01*
X109400000Y-99189765D01*
X109261876Y-99217240D01*
X109144780Y-99295480D01*
X109066540Y-99412576D01*
X109039065Y-99550700D01*
X109039065Y-100250700D01*
X109066540Y-100388824D01*
X109144780Y-100505920D01*
X109261876Y-100584160D01*
X109400000Y-100611635D01*
X110100000Y-100611635D01*
X110238124Y-100584160D01*
X110355220Y-100505920D01*
X110433460Y-100388824D01*
X110460935Y-100250700D01*
X110460935Y-99849945D01*
X110546750Y-99849945D01*
X110546750Y-100058860D01*
X110635250Y-100147360D01*
X111096000Y-100147360D01*
X111096000Y-99654860D01*
X111404000Y-99654860D01*
X111404000Y-100147360D01*
X111864750Y-100147360D01*
X111953250Y-100058860D01*
X111953250Y-99849945D01*
X111899357Y-99719835D01*
X111799775Y-99620253D01*
X111669665Y-99566360D01*
X111492500Y-99566360D01*
X111404000Y-99654860D01*
X111096000Y-99654860D01*
X111007500Y-99566360D01*
X110830335Y-99566360D01*
X110700225Y-99620253D01*
X110600643Y-99719835D01*
X110546750Y-99849945D01*
X110460935Y-99849945D01*
X110460935Y-99566484D01*
X110754223Y-99273197D01*
X110792153Y-99247853D01*
X110824682Y-99199171D01*
X110887751Y-99104780D01*
X110892569Y-99097570D01*
X110918930Y-98965044D01*
X110918930Y-98965039D01*
X110927829Y-98920300D01*
X110918930Y-98875561D01*
X110918930Y-97546389D01*
X111300490Y-97164830D01*
X111954570Y-97164830D01*
X111894780Y-97204780D01*
X111816540Y-97321876D01*
X111789065Y-97460000D01*
X111789065Y-97960000D01*
X111816540Y-98098124D01*
X111894780Y-98215220D01*
X111948717Y-98251259D01*
X111961951Y-98317789D01*
X112062367Y-98468073D01*
X112100300Y-98493419D01*
X112716666Y-99109785D01*
X112662468Y-99146000D01*
X112620147Y-99174278D01*
X112594803Y-99212208D01*
X112194280Y-99612732D01*
X112156347Y-99638078D01*
X112055931Y-99788362D01*
X112029570Y-99920888D01*
X112029570Y-99920892D01*
X112020671Y-99965631D01*
X112029570Y-100010370D01*
X112029571Y-102457437D01*
X111840893Y-102535589D01*
X111633000Y-102743482D01*
X111425107Y-102535589D01*
X111147980Y-102420800D01*
X110848020Y-102420800D01*
X110570893Y-102535589D01*
X110358789Y-102747693D01*
X110244000Y-103024820D01*
X110244000Y-103324780D01*
X110358789Y-103601907D01*
X110459906Y-103703024D01*
X110476144Y-103784659D01*
X110567682Y-103921655D01*
X110567684Y-103921657D01*
X110598590Y-103967911D01*
X110644844Y-103998817D01*
X111101082Y-104455056D01*
X111131989Y-104501311D01*
X111315240Y-104623756D01*
X111476838Y-104655900D01*
X111476842Y-104655900D01*
X111531400Y-104666752D01*
X111585958Y-104655900D01*
X120697042Y-104655900D01*
X120751600Y-104666752D01*
X120806158Y-104655900D01*
X120806162Y-104655900D01*
X120967760Y-104623756D01*
X121151011Y-104501311D01*
X121181919Y-104455054D01*
X121739757Y-103897217D01*
X121776756Y-103872495D01*
X121800643Y-103930165D01*
X121900225Y-104029747D01*
X122030335Y-104083640D01*
X122207500Y-104083640D01*
X122296000Y-103995140D01*
X122296000Y-103502640D01*
X122276000Y-103502640D01*
X122276000Y-103194640D01*
X122296000Y-103194640D01*
X122296000Y-103174640D01*
X122604000Y-103174640D01*
X122604000Y-103194640D01*
X122624000Y-103194640D01*
X122624000Y-103502640D01*
X122604000Y-103502640D01*
X122604000Y-103995140D01*
X122692500Y-104083640D01*
X122869665Y-104083640D01*
X122999775Y-104029747D01*
X123043773Y-103985749D01*
X123049893Y-104000525D01*
X123149475Y-104100107D01*
X123279585Y-104154000D01*
X123707500Y-104154000D01*
X123796000Y-104065500D01*
X123796000Y-103254000D01*
X123776000Y-103254000D01*
X123776000Y-102946000D01*
X123796000Y-102946000D01*
X123796000Y-102926000D01*
X124104000Y-102926000D01*
X124104000Y-102946000D01*
X124124000Y-102946000D01*
X124124000Y-103254000D01*
X124104000Y-103254000D01*
X124104000Y-104065500D01*
X124192500Y-104154000D01*
X124620415Y-104154000D01*
X124750525Y-104100107D01*
X124795159Y-104055473D01*
X124911876Y-104133460D01*
X125050000Y-104160935D01*
X126250000Y-104160935D01*
X126388124Y-104133460D01*
X126505220Y-104055220D01*
X126583460Y-103938124D01*
X126610935Y-103800000D01*
X126610935Y-102739000D01*
X126646000Y-102739000D01*
X126646000Y-103166915D01*
X126699893Y-103297025D01*
X126799475Y-103396607D01*
X126929585Y-103450500D01*
X127507500Y-103450500D01*
X127596000Y-103362000D01*
X127596000Y-102650500D01*
X127904000Y-102650500D01*
X127904000Y-103362000D01*
X127992500Y-103450500D01*
X128570415Y-103450500D01*
X128700525Y-103396607D01*
X128800107Y-103297025D01*
X128854000Y-103166915D01*
X128854000Y-102739000D01*
X128765500Y-102650500D01*
X127904000Y-102650500D01*
X127596000Y-102650500D01*
X126734500Y-102650500D01*
X126646000Y-102739000D01*
X126610935Y-102739000D01*
X126610935Y-102400000D01*
X126583460Y-102261876D01*
X126505220Y-102144780D01*
X126388124Y-102066540D01*
X126250000Y-102039065D01*
X125719384Y-102039065D01*
X125496000Y-101815681D01*
X125496000Y-101054000D01*
X125804000Y-101054000D01*
X125804000Y-101865500D01*
X125892500Y-101954000D01*
X126320415Y-101954000D01*
X126450525Y-101900107D01*
X126524547Y-101826085D01*
X126646000Y-101826085D01*
X126646000Y-102254000D01*
X126734500Y-102342500D01*
X127596000Y-102342500D01*
X127596000Y-101631000D01*
X127904000Y-101631000D01*
X127904000Y-102342500D01*
X128765500Y-102342500D01*
X128854000Y-102254000D01*
X128854000Y-101826085D01*
X128800107Y-101695975D01*
X128700525Y-101596393D01*
X128570415Y-101542500D01*
X127992500Y-101542500D01*
X127904000Y-101631000D01*
X127596000Y-101631000D01*
X127507500Y-101542500D01*
X126929585Y-101542500D01*
X126799475Y-101596393D01*
X126699893Y-101695975D01*
X126646000Y-101826085D01*
X126524547Y-101826085D01*
X126550107Y-101800525D01*
X126604000Y-101670415D01*
X126604000Y-101142500D01*
X126515500Y-101054000D01*
X125804000Y-101054000D01*
X125496000Y-101054000D01*
X125476000Y-101054000D01*
X125476000Y-100746000D01*
X125496000Y-100746000D01*
X125496000Y-99934500D01*
X125804000Y-99934500D01*
X125804000Y-100746000D01*
X126515500Y-100746000D01*
X126604000Y-100657500D01*
X126604000Y-100129585D01*
X126550107Y-99999475D01*
X126450525Y-99899893D01*
X126320415Y-99846000D01*
X125892500Y-99846000D01*
X125804000Y-99934500D01*
X125496000Y-99934500D01*
X125495511Y-99934011D01*
X125579747Y-99849775D01*
X125633640Y-99719665D01*
X125633640Y-99696500D01*
X126639065Y-99696500D01*
X126639065Y-100296500D01*
X126642240Y-100312462D01*
X126642240Y-100350440D01*
X126656774Y-100385528D01*
X126689376Y-100549429D01*
X126832648Y-100763852D01*
X127047071Y-100907124D01*
X127210428Y-100939618D01*
X127246260Y-100954460D01*
X127285044Y-100954460D01*
X127300000Y-100957435D01*
X128200000Y-100957435D01*
X128452929Y-100907124D01*
X128667352Y-100763852D01*
X128810624Y-100549429D01*
X128860935Y-100296500D01*
X128860935Y-99696500D01*
X128810624Y-99443571D01*
X128667352Y-99229148D01*
X128452929Y-99085876D01*
X128200000Y-99035565D01*
X127300000Y-99035565D01*
X127047071Y-99085876D01*
X126832648Y-99229148D01*
X126689376Y-99443571D01*
X126639065Y-99696500D01*
X125633640Y-99696500D01*
X125633640Y-99542500D01*
X125545140Y-99454000D01*
X125052640Y-99454000D01*
X125052640Y-99474000D01*
X124744640Y-99474000D01*
X124744640Y-99454000D01*
X124724640Y-99454000D01*
X124724640Y-99146000D01*
X124744640Y-99146000D01*
X124744640Y-98685250D01*
X125052640Y-98685250D01*
X125052640Y-99146000D01*
X125545140Y-99146000D01*
X125633640Y-99057500D01*
X125633640Y-98880335D01*
X125579747Y-98750225D01*
X125480165Y-98650643D01*
X125350055Y-98596750D01*
X125141140Y-98596750D01*
X125052640Y-98685250D01*
X124744640Y-98685250D01*
X124656140Y-98596750D01*
X124447225Y-98596750D01*
X124350009Y-98637018D01*
X124320484Y-98617290D01*
X124182360Y-98589815D01*
X123420360Y-98589815D01*
X123282236Y-98617290D01*
X123264767Y-98628962D01*
X123303250Y-98536055D01*
X123303250Y-98327140D01*
X123214752Y-98238642D01*
X123303250Y-98238642D01*
X123303250Y-98122700D01*
X123331476Y-98141560D01*
X123469600Y-98169035D01*
X124369600Y-98169035D01*
X124507724Y-98141560D01*
X124624820Y-98063320D01*
X124703060Y-97946224D01*
X124730535Y-97808100D01*
X124730535Y-97696500D01*
X126639065Y-97696500D01*
X126639065Y-98296500D01*
X126689376Y-98549429D01*
X126832648Y-98763852D01*
X127047071Y-98907124D01*
X127300000Y-98957435D01*
X128200000Y-98957435D01*
X128452929Y-98907124D01*
X128667352Y-98763852D01*
X128810624Y-98549429D01*
X128860935Y-98296500D01*
X128860935Y-97696500D01*
X128851280Y-97647961D01*
X128851280Y-97647638D01*
X128851156Y-97647339D01*
X128810624Y-97443571D01*
X128667352Y-97229148D01*
X128452929Y-97085876D01*
X128253520Y-97046211D01*
X128247260Y-97043618D01*
X128240485Y-97043618D01*
X128200000Y-97035565D01*
X127300000Y-97035565D01*
X127047071Y-97085876D01*
X126832648Y-97229148D01*
X126689376Y-97443571D01*
X126639065Y-97696500D01*
X124730535Y-97696500D01*
X124730535Y-97588207D01*
X124747993Y-97500440D01*
X124730535Y-97412673D01*
X124730535Y-97208100D01*
X124703060Y-97069976D01*
X124697160Y-97061146D01*
X124697160Y-96817460D01*
X124707826Y-96763839D01*
X124697160Y-96710218D01*
X124697160Y-96710214D01*
X124665567Y-96551387D01*
X124545222Y-96371278D01*
X124499758Y-96340900D01*
X124446000Y-96287142D01*
X124429268Y-96262100D01*
X124440015Y-96262100D01*
X124570125Y-96208207D01*
X124669707Y-96108625D01*
X124723600Y-95978515D01*
X124723600Y-95846600D01*
X124635100Y-95758100D01*
X124073600Y-95758100D01*
X124073600Y-95782100D01*
X123778566Y-95782100D01*
X123765600Y-95324126D01*
X123765600Y-95042600D01*
X124073600Y-95042600D01*
X124073600Y-95458100D01*
X124635100Y-95458100D01*
X124723600Y-95369600D01*
X124723600Y-95237685D01*
X124669707Y-95107575D01*
X124570125Y-95007993D01*
X124440691Y-94954380D01*
X124668155Y-94954380D01*
X124798265Y-94900487D01*
X124897847Y-94800905D01*
X124902687Y-94789220D01*
X124947040Y-94855600D01*
X125064136Y-94933840D01*
X125202260Y-94961315D01*
X125489221Y-94961315D01*
X125489220Y-95652388D01*
X125491001Y-95661342D01*
X125491001Y-96037870D01*
X125436140Y-96119976D01*
X125408665Y-96258100D01*
X125408665Y-96858100D01*
X125436140Y-96996224D01*
X125514380Y-97113320D01*
X125631476Y-97191560D01*
X125769600Y-97219035D01*
X126669600Y-97219035D01*
X126807724Y-97191560D01*
X126924820Y-97113320D01*
X127003060Y-96996224D01*
X127030535Y-96858100D01*
X127030535Y-96395955D01*
X127047071Y-96407004D01*
X127300000Y-96457315D01*
X128200000Y-96457315D01*
X128452929Y-96407004D01*
X128667352Y-96263732D01*
X128810624Y-96049309D01*
X128860935Y-95796380D01*
X128860935Y-95196380D01*
X128810624Y-94943451D01*
X128667352Y-94729028D01*
X128452929Y-94585756D01*
X128200000Y-94535445D01*
X127300000Y-94535445D01*
X127047071Y-94585756D01*
X126832648Y-94729028D01*
X126720106Y-94897460D01*
X126697220Y-94897460D01*
X126697220Y-94529707D01*
X126709053Y-94470219D01*
X126697206Y-94410660D01*
X126662176Y-94234551D01*
X126528680Y-94034760D01*
X126478246Y-94001061D01*
X126462355Y-93985170D01*
X126462355Y-93599620D01*
X126434880Y-93461496D01*
X126356640Y-93344400D01*
X126239544Y-93266160D01*
X126101420Y-93238685D01*
X125202260Y-93238685D01*
X125064136Y-93266160D01*
X124947040Y-93344400D01*
X124902687Y-93410780D01*
X124897847Y-93399095D01*
X124798265Y-93299513D01*
X124668155Y-93245620D01*
X124390660Y-93245620D01*
X124302160Y-93334120D01*
X124302160Y-93946000D01*
X124322160Y-93946000D01*
X124322160Y-94254000D01*
X124302160Y-94254000D01*
X124302160Y-94865880D01*
X124390380Y-94954100D01*
X124162100Y-94954100D01*
X124073600Y-95042600D01*
X123765600Y-95042600D01*
X123757397Y-95034397D01*
X123755132Y-94954380D01*
X123905660Y-94954380D01*
X123994160Y-94865880D01*
X123994160Y-94254000D01*
X123974160Y-94254000D01*
X123974160Y-93946000D01*
X123994160Y-93946000D01*
X123994160Y-93334120D01*
X123905660Y-93245620D01*
X123628165Y-93245620D01*
X123498055Y-93299513D01*
X123400128Y-93397440D01*
X123320795Y-93364580D01*
X122992500Y-93364580D01*
X122904000Y-93453080D01*
X122904000Y-93728265D01*
X122883461Y-93744131D01*
X122864063Y-93777985D01*
X122859096Y-93816686D01*
X122895260Y-94342160D01*
X122596000Y-94342160D01*
X122596000Y-94322160D01*
X121984120Y-94322160D01*
X121895620Y-94410660D01*
X121895620Y-94688155D01*
X121949513Y-94818265D01*
X122049095Y-94917847D01*
X122060780Y-94922687D01*
X121994400Y-94967040D01*
X121916160Y-95084136D01*
X121888685Y-95222260D01*
X121888685Y-96121420D01*
X121916160Y-96259544D01*
X121985101Y-96362722D01*
X121985101Y-96366749D01*
X121946059Y-96425179D01*
X121945400Y-96425048D01*
X121890842Y-96435900D01*
X121890838Y-96435900D01*
X121810935Y-96451794D01*
X121810935Y-96360000D01*
X121783460Y-96221876D01*
X121705220Y-96104780D01*
X121588124Y-96026540D01*
X121450000Y-95999065D01*
X120800935Y-95999065D01*
X120800935Y-95350000D01*
X120773460Y-95211876D01*
X120723330Y-95136850D01*
X120723330Y-94528488D01*
X120882811Y-94369007D01*
X120997600Y-94091880D01*
X120997600Y-93791920D01*
X120938056Y-93648165D01*
X121895620Y-93648165D01*
X121895620Y-93925660D01*
X121984120Y-94014160D01*
X122596000Y-94014160D01*
X122596000Y-93453080D01*
X122507500Y-93364580D01*
X122179205Y-93364580D01*
X122049095Y-93418473D01*
X121949513Y-93518055D01*
X121895620Y-93648165D01*
X120938056Y-93648165D01*
X120882811Y-93514793D01*
X120670707Y-93302689D01*
X120393580Y-93187900D01*
X120093620Y-93187900D01*
X119816493Y-93302689D01*
X119604389Y-93514793D01*
X119489600Y-93791920D01*
X119489600Y-94091880D01*
X119604389Y-94369007D01*
X119814671Y-94579289D01*
X119814670Y-94989065D01*
X119660000Y-94989065D01*
X119550000Y-95010946D01*
X119440000Y-94989065D01*
X119160000Y-94989065D01*
X119050000Y-95010946D01*
X118940000Y-94989065D01*
X118660000Y-94989065D01*
X118550000Y-95010946D01*
X118440000Y-94989065D01*
X118160000Y-94989065D01*
X118050000Y-95010946D01*
X117940000Y-94989065D01*
X117660000Y-94989065D01*
X117550000Y-95010946D01*
X117440000Y-94989065D01*
X117160000Y-94989065D01*
X117047634Y-95011416D01*
X117010415Y-94996000D01*
X116958500Y-94996000D01*
X116928190Y-95026310D01*
X116678853Y-95033353D01*
X116641500Y-94996000D01*
X116589585Y-94996000D01*
X116550000Y-95012397D01*
X116510415Y-94996000D01*
X116458500Y-94996000D01*
X116413656Y-95040844D01*
X116192589Y-95047089D01*
X116141500Y-94996000D01*
X116089585Y-94996000D01*
X115959475Y-95049893D01*
X115911846Y-95097522D01*
X115908760Y-95082009D01*
X115908760Y-94894988D01*
X115970484Y-94882710D01*
X116000009Y-94862982D01*
X116097225Y-94903250D01*
X116306140Y-94903250D01*
X116394640Y-94814750D01*
X116394640Y-94354000D01*
X116702640Y-94354000D01*
X116702640Y-94814750D01*
X116791140Y-94903250D01*
X117000055Y-94903250D01*
X117130165Y-94849357D01*
X117229747Y-94749775D01*
X117283640Y-94619665D01*
X117283640Y-94442500D01*
X117195140Y-94354000D01*
X116702640Y-94354000D01*
X116394640Y-94354000D01*
X116374640Y-94354000D01*
X116374640Y-94046000D01*
X116394640Y-94046000D01*
X116394640Y-93585250D01*
X116702640Y-93585250D01*
X116702640Y-94046000D01*
X117195140Y-94046000D01*
X117283640Y-93957500D01*
X117283640Y-93780335D01*
X117229747Y-93650225D01*
X117130165Y-93550643D01*
X117000055Y-93496750D01*
X116791140Y-93496750D01*
X116702640Y-93585250D01*
X116394640Y-93585250D01*
X116306140Y-93496750D01*
X116097225Y-93496750D01*
X116000009Y-93537018D01*
X115970484Y-93517290D01*
X115832360Y-93489815D01*
X115070360Y-93489815D01*
X114932236Y-93517290D01*
X114815140Y-93595530D01*
X114736900Y-93712626D01*
X114721038Y-93792370D01*
X113857750Y-93792370D01*
X113813011Y-93783471D01*
X113768272Y-93792370D01*
X113768268Y-93792370D01*
X113635742Y-93818731D01*
X113635741Y-93818732D01*
X113635740Y-93818732D01*
X113587822Y-93850750D01*
X113485459Y-93919147D01*
X113460115Y-93957077D01*
X112951723Y-94465470D01*
X111588843Y-94465470D01*
X111544100Y-94456570D01*
X111499357Y-94465470D01*
X111499356Y-94465470D01*
X111366830Y-94491831D01*
X111216547Y-94592247D01*
X111191202Y-94630179D01*
X110644711Y-95176670D01*
X110064838Y-95176670D01*
X110020099Y-95167771D01*
X109975360Y-95176670D01*
X109975356Y-95176670D01*
X109842830Y-95203031D01*
X109790967Y-95237685D01*
X109753498Y-95262721D01*
X109692547Y-95303447D01*
X109667203Y-95341377D01*
X109209780Y-95798801D01*
X109171847Y-95824147D01*
X109071431Y-95974431D01*
X109045070Y-96106957D01*
X109045070Y-96106961D01*
X109036171Y-96151700D01*
X109045070Y-96196439D01*
X109045071Y-97004533D01*
X109029065Y-97085000D01*
X109029065Y-97375000D01*
X109060726Y-97534171D01*
X109061148Y-97534802D01*
X109027958Y-97584474D01*
X108989065Y-97780000D01*
X108861530Y-97780000D01*
X108861530Y-93088130D01*
X127184887Y-93088130D01*
X127220093Y-94168676D01*
X127220093Y-94168676D01*
G37*
X127220093Y-94168676D02*
X127228947Y-94206677D01*
X127251669Y-94238396D01*
X127298814Y-94263141D01*
X127910026Y-94395902D01*
X127912506Y-94404203D01*
X128186082Y-94464158D01*
X128207026Y-94460413D01*
X129263471Y-94689882D01*
X129263470Y-103616659D01*
X128490171Y-103597758D01*
X128487494Y-103588797D01*
X128213918Y-103528842D01*
X127938223Y-103578145D01*
X127912506Y-103588797D01*
X127903471Y-103619043D01*
X127358136Y-103674758D01*
X127320840Y-103686220D01*
X127290769Y-103711082D01*
X127270572Y-103753046D01*
X127020779Y-104904870D01*
X108861530Y-104904870D01*
X108861530Y-101049300D01*
X109039065Y-101049300D01*
X109039065Y-101749300D01*
X109066540Y-101887424D01*
X109144780Y-102004520D01*
X109261876Y-102082760D01*
X109400000Y-102110235D01*
X110100000Y-102110235D01*
X110238124Y-102082760D01*
X110355220Y-102004520D01*
X110433460Y-101887424D01*
X110443206Y-101838430D01*
X110551509Y-101838430D01*
X110567290Y-101917764D01*
X110645530Y-102034860D01*
X110762626Y-102113100D01*
X110900750Y-102140575D01*
X111599250Y-102140575D01*
X111737374Y-102113100D01*
X111854470Y-102034860D01*
X111932710Y-101917764D01*
X111960185Y-101779640D01*
X111960185Y-101017640D01*
X111932710Y-100879516D01*
X111912982Y-100849991D01*
X111953250Y-100752775D01*
X111953250Y-100543860D01*
X111864750Y-100455360D01*
X111404000Y-100455360D01*
X111404000Y-100475360D01*
X111096000Y-100475360D01*
X111096000Y-100455360D01*
X110635250Y-100455360D01*
X110546750Y-100543860D01*
X110546750Y-100752775D01*
X110587018Y-100849991D01*
X110567290Y-100879516D01*
X110557294Y-100929770D01*
X110437159Y-100929770D01*
X110433460Y-100911176D01*
X110355220Y-100794080D01*
X110238124Y-100715840D01*
X110100000Y-100688365D01*
X109400000Y-100688365D01*
X109261876Y-100715840D01*
X109144780Y-100794080D01*
X109066540Y-100911176D01*
X109039065Y-101049300D01*
X108861530Y-101049300D01*
X108861530Y-98818500D01*
X109036000Y-98818500D01*
X109036000Y-98900415D01*
X109089893Y-99030525D01*
X109189475Y-99130107D01*
X109319585Y-99184000D01*
X109356500Y-99184000D01*
X109445000Y-99095500D01*
X109445000Y-98730000D01*
X109124500Y-98730000D01*
X109036000Y-98818500D01*
X108861530Y-98818500D01*
X108861530Y-97780000D01*
X108989065Y-97780000D01*
X108989065Y-98080000D01*
X109027958Y-98275526D01*
X109054416Y-98315124D01*
X109036000Y-98359585D01*
X109036000Y-98441500D01*
X109124500Y-98530000D01*
X109271485Y-98530000D01*
X109304474Y-98552042D01*
X109500000Y-98590935D01*
X109529065Y-98590935D01*
X109529065Y-98775000D01*
X109555000Y-98905384D01*
X109555000Y-99095500D01*
X109609068Y-99149568D01*
X109582210Y-99189765D01*
X109400000Y-99189765D01*
X109261876Y-99217240D01*
X109144780Y-99295480D01*
X109066540Y-99412576D01*
X109039065Y-99550700D01*
X109039065Y-100250700D01*
X109066540Y-100388824D01*
X109144780Y-100505920D01*
X109261876Y-100584160D01*
X109400000Y-100611635D01*
X110100000Y-100611635D01*
X110238124Y-100584160D01*
X110355220Y-100505920D01*
X110433460Y-100388824D01*
X110460935Y-100250700D01*
X110460935Y-99849945D01*
X110546750Y-99849945D01*
X110546750Y-100058860D01*
X110635250Y-100147360D01*
X111096000Y-100147360D01*
X111096000Y-99654860D01*
X111404000Y-99654860D01*
X111404000Y-100147360D01*
X111864750Y-100147360D01*
X111953250Y-100058860D01*
X111953250Y-99849945D01*
X111899357Y-99719835D01*
X111799775Y-99620253D01*
X111669665Y-99566360D01*
X111492500Y-99566360D01*
X111404000Y-99654860D01*
X111096000Y-99654860D01*
X111007500Y-99566360D01*
X110830335Y-99566360D01*
X110700225Y-99620253D01*
X110600643Y-99719835D01*
X110546750Y-99849945D01*
X110460935Y-99849945D01*
X110460935Y-99566484D01*
X110754223Y-99273197D01*
X110792153Y-99247853D01*
X110824682Y-99199171D01*
X110887751Y-99104780D01*
X110892569Y-99097570D01*
X110918930Y-98965044D01*
X110918930Y-98965039D01*
X110927829Y-98920300D01*
X110918930Y-98875561D01*
X110918930Y-97546389D01*
X111300490Y-97164830D01*
X111954570Y-97164830D01*
X111894780Y-97204780D01*
X111816540Y-97321876D01*
X111789065Y-97460000D01*
X111789065Y-97960000D01*
X111816540Y-98098124D01*
X111894780Y-98215220D01*
X111948717Y-98251259D01*
X111961951Y-98317789D01*
X112062367Y-98468073D01*
X112100300Y-98493419D01*
X112716666Y-99109785D01*
X112662468Y-99146000D01*
X112620147Y-99174278D01*
X112594803Y-99212208D01*
X112194280Y-99612732D01*
X112156347Y-99638078D01*
X112055931Y-99788362D01*
X112029570Y-99920888D01*
X112029570Y-99920892D01*
X112020671Y-99965631D01*
X112029570Y-100010370D01*
X112029571Y-102457437D01*
X111840893Y-102535589D01*
X111633000Y-102743482D01*
X111425107Y-102535589D01*
X111147980Y-102420800D01*
X110848020Y-102420800D01*
X110570893Y-102535589D01*
X110358789Y-102747693D01*
X110244000Y-103024820D01*
X110244000Y-103324780D01*
X110358789Y-103601907D01*
X110459906Y-103703024D01*
X110476144Y-103784659D01*
X110567682Y-103921655D01*
X110567684Y-103921657D01*
X110598590Y-103967911D01*
X110644844Y-103998817D01*
X111101082Y-104455056D01*
X111131989Y-104501311D01*
X111315240Y-104623756D01*
X111476838Y-104655900D01*
X111476842Y-104655900D01*
X111531400Y-104666752D01*
X111585958Y-104655900D01*
X120697042Y-104655900D01*
X120751600Y-104666752D01*
X120806158Y-104655900D01*
X120806162Y-104655900D01*
X120967760Y-104623756D01*
X121151011Y-104501311D01*
X121181919Y-104455054D01*
X121739757Y-103897217D01*
X121776756Y-103872495D01*
X121800643Y-103930165D01*
X121900225Y-104029747D01*
X122030335Y-104083640D01*
X122207500Y-104083640D01*
X122296000Y-103995140D01*
X122296000Y-103502640D01*
X122276000Y-103502640D01*
X122276000Y-103194640D01*
X122296000Y-103194640D01*
X122296000Y-103174640D01*
X122604000Y-103174640D01*
X122604000Y-103194640D01*
X122624000Y-103194640D01*
X122624000Y-103502640D01*
X122604000Y-103502640D01*
X122604000Y-103995140D01*
X122692500Y-104083640D01*
X122869665Y-104083640D01*
X122999775Y-104029747D01*
X123043773Y-103985749D01*
X123049893Y-104000525D01*
X123149475Y-104100107D01*
X123279585Y-104154000D01*
X123707500Y-104154000D01*
X123796000Y-104065500D01*
X123796000Y-103254000D01*
X123776000Y-103254000D01*
X123776000Y-102946000D01*
X123796000Y-102946000D01*
X123796000Y-102926000D01*
X124104000Y-102926000D01*
X124104000Y-102946000D01*
X124124000Y-102946000D01*
X124124000Y-103254000D01*
X124104000Y-103254000D01*
X124104000Y-104065500D01*
X124192500Y-104154000D01*
X124620415Y-104154000D01*
X124750525Y-104100107D01*
X124795159Y-104055473D01*
X124911876Y-104133460D01*
X125050000Y-104160935D01*
X126250000Y-104160935D01*
X126388124Y-104133460D01*
X126505220Y-104055220D01*
X126583460Y-103938124D01*
X126610935Y-103800000D01*
X126610935Y-102739000D01*
X126646000Y-102739000D01*
X126646000Y-103166915D01*
X126699893Y-103297025D01*
X126799475Y-103396607D01*
X126929585Y-103450500D01*
X127507500Y-103450500D01*
X127596000Y-103362000D01*
X127596000Y-102650500D01*
X127904000Y-102650500D01*
X127904000Y-103362000D01*
X127992500Y-103450500D01*
X128570415Y-103450500D01*
X128700525Y-103396607D01*
X128800107Y-103297025D01*
X128854000Y-103166915D01*
X128854000Y-102739000D01*
X128765500Y-102650500D01*
X127904000Y-102650500D01*
X127596000Y-102650500D01*
X126734500Y-102650500D01*
X126646000Y-102739000D01*
X126610935Y-102739000D01*
X126610935Y-102400000D01*
X126583460Y-102261876D01*
X126505220Y-102144780D01*
X126388124Y-102066540D01*
X126250000Y-102039065D01*
X125719384Y-102039065D01*
X125496000Y-101815681D01*
X125496000Y-101054000D01*
X125804000Y-101054000D01*
X125804000Y-101865500D01*
X125892500Y-101954000D01*
X126320415Y-101954000D01*
X126450525Y-101900107D01*
X126524547Y-101826085D01*
X126646000Y-101826085D01*
X126646000Y-102254000D01*
X126734500Y-102342500D01*
X127596000Y-102342500D01*
X127596000Y-101631000D01*
X127904000Y-101631000D01*
X127904000Y-102342500D01*
X128765500Y-102342500D01*
X128854000Y-102254000D01*
X128854000Y-101826085D01*
X128800107Y-101695975D01*
X128700525Y-101596393D01*
X128570415Y-101542500D01*
X127992500Y-101542500D01*
X127904000Y-101631000D01*
X127596000Y-101631000D01*
X127507500Y-101542500D01*
X126929585Y-101542500D01*
X126799475Y-101596393D01*
X126699893Y-101695975D01*
X126646000Y-101826085D01*
X126524547Y-101826085D01*
X126550107Y-101800525D01*
X126604000Y-101670415D01*
X126604000Y-101142500D01*
X126515500Y-101054000D01*
X125804000Y-101054000D01*
X125496000Y-101054000D01*
X125476000Y-101054000D01*
X125476000Y-100746000D01*
X125496000Y-100746000D01*
X125496000Y-99934500D01*
X125804000Y-99934500D01*
X125804000Y-100746000D01*
X126515500Y-100746000D01*
X126604000Y-100657500D01*
X126604000Y-100129585D01*
X126550107Y-99999475D01*
X126450525Y-99899893D01*
X126320415Y-99846000D01*
X125892500Y-99846000D01*
X125804000Y-99934500D01*
X125496000Y-99934500D01*
X125495511Y-99934011D01*
X125579747Y-99849775D01*
X125633640Y-99719665D01*
X125633640Y-99696500D01*
X126639065Y-99696500D01*
X126639065Y-100296500D01*
X126642240Y-100312462D01*
X126642240Y-100350440D01*
X126656774Y-100385528D01*
X126689376Y-100549429D01*
X126832648Y-100763852D01*
X127047071Y-100907124D01*
X127210428Y-100939618D01*
X127246260Y-100954460D01*
X127285044Y-100954460D01*
X127300000Y-100957435D01*
X128200000Y-100957435D01*
X128452929Y-100907124D01*
X128667352Y-100763852D01*
X128810624Y-100549429D01*
X128860935Y-100296500D01*
X128860935Y-99696500D01*
X128810624Y-99443571D01*
X128667352Y-99229148D01*
X128452929Y-99085876D01*
X128200000Y-99035565D01*
X127300000Y-99035565D01*
X127047071Y-99085876D01*
X126832648Y-99229148D01*
X126689376Y-99443571D01*
X126639065Y-99696500D01*
X125633640Y-99696500D01*
X125633640Y-99542500D01*
X125545140Y-99454000D01*
X125052640Y-99454000D01*
X125052640Y-99474000D01*
X124744640Y-99474000D01*
X124744640Y-99454000D01*
X124724640Y-99454000D01*
X124724640Y-99146000D01*
X124744640Y-99146000D01*
X124744640Y-98685250D01*
X125052640Y-98685250D01*
X125052640Y-99146000D01*
X125545140Y-99146000D01*
X125633640Y-99057500D01*
X125633640Y-98880335D01*
X125579747Y-98750225D01*
X125480165Y-98650643D01*
X125350055Y-98596750D01*
X125141140Y-98596750D01*
X125052640Y-98685250D01*
X124744640Y-98685250D01*
X124656140Y-98596750D01*
X124447225Y-98596750D01*
X124350009Y-98637018D01*
X124320484Y-98617290D01*
X124182360Y-98589815D01*
X123420360Y-98589815D01*
X123282236Y-98617290D01*
X123264767Y-98628962D01*
X123303250Y-98536055D01*
X123303250Y-98327140D01*
X123214752Y-98238642D01*
X123303250Y-98238642D01*
X123303250Y-98122700D01*
X123331476Y-98141560D01*
X123469600Y-98169035D01*
X124369600Y-98169035D01*
X124507724Y-98141560D01*
X124624820Y-98063320D01*
X124703060Y-97946224D01*
X124730535Y-97808100D01*
X124730535Y-97696500D01*
X126639065Y-97696500D01*
X126639065Y-98296500D01*
X126689376Y-98549429D01*
X126832648Y-98763852D01*
X127047071Y-98907124D01*
X127300000Y-98957435D01*
X128200000Y-98957435D01*
X128452929Y-98907124D01*
X128667352Y-98763852D01*
X128810624Y-98549429D01*
X128860935Y-98296500D01*
X128860935Y-97696500D01*
X128851280Y-97647961D01*
X128851280Y-97647638D01*
X128851156Y-97647339D01*
X128810624Y-97443571D01*
X128667352Y-97229148D01*
X128452929Y-97085876D01*
X128253520Y-97046211D01*
X128247260Y-97043618D01*
X128240485Y-97043618D01*
X128200000Y-97035565D01*
X127300000Y-97035565D01*
X127047071Y-97085876D01*
X126832648Y-97229148D01*
X126689376Y-97443571D01*
X126639065Y-97696500D01*
X124730535Y-97696500D01*
X124730535Y-97588207D01*
X124747993Y-97500440D01*
X124730535Y-97412673D01*
X124730535Y-97208100D01*
X124703060Y-97069976D01*
X124697160Y-97061146D01*
X124697160Y-96817460D01*
X124707826Y-96763839D01*
X124697160Y-96710218D01*
X124697160Y-96710214D01*
X124665567Y-96551387D01*
X124545222Y-96371278D01*
X124499758Y-96340900D01*
X124446000Y-96287142D01*
X124429268Y-96262100D01*
X124440015Y-96262100D01*
X124570125Y-96208207D01*
X124669707Y-96108625D01*
X124723600Y-95978515D01*
X124723600Y-95846600D01*
X124635100Y-95758100D01*
X124073600Y-95758100D01*
X124073600Y-95782100D01*
X123778566Y-95782100D01*
X123765600Y-95324126D01*
X123765600Y-95042600D01*
X124073600Y-95042600D01*
X124073600Y-95458100D01*
X124635100Y-95458100D01*
X124723600Y-95369600D01*
X124723600Y-95237685D01*
X124669707Y-95107575D01*
X124570125Y-95007993D01*
X124440691Y-94954380D01*
X124668155Y-94954380D01*
X124798265Y-94900487D01*
X124897847Y-94800905D01*
X124902687Y-94789220D01*
X124947040Y-94855600D01*
X125064136Y-94933840D01*
X125202260Y-94961315D01*
X125489221Y-94961315D01*
X125489220Y-95652388D01*
X125491001Y-95661342D01*
X125491001Y-96037870D01*
X125436140Y-96119976D01*
X125408665Y-96258100D01*
X125408665Y-96858100D01*
X125436140Y-96996224D01*
X125514380Y-97113320D01*
X125631476Y-97191560D01*
X125769600Y-97219035D01*
X126669600Y-97219035D01*
X126807724Y-97191560D01*
X126924820Y-97113320D01*
X127003060Y-96996224D01*
X127030535Y-96858100D01*
X127030535Y-96395955D01*
X127047071Y-96407004D01*
X127300000Y-96457315D01*
X128200000Y-96457315D01*
X128452929Y-96407004D01*
X128667352Y-96263732D01*
X128810624Y-96049309D01*
X128860935Y-95796380D01*
X128860935Y-95196380D01*
X128810624Y-94943451D01*
X128667352Y-94729028D01*
X128452929Y-94585756D01*
X128200000Y-94535445D01*
X127300000Y-94535445D01*
X127047071Y-94585756D01*
X126832648Y-94729028D01*
X126720106Y-94897460D01*
X126697220Y-94897460D01*
X126697220Y-94529707D01*
X126709053Y-94470219D01*
X126697206Y-94410660D01*
X126662176Y-94234551D01*
X126528680Y-94034760D01*
X126478246Y-94001061D01*
X126462355Y-93985170D01*
X126462355Y-93599620D01*
X126434880Y-93461496D01*
X126356640Y-93344400D01*
X126239544Y-93266160D01*
X126101420Y-93238685D01*
X125202260Y-93238685D01*
X125064136Y-93266160D01*
X124947040Y-93344400D01*
X124902687Y-93410780D01*
X124897847Y-93399095D01*
X124798265Y-93299513D01*
X124668155Y-93245620D01*
X124390660Y-93245620D01*
X124302160Y-93334120D01*
X124302160Y-93946000D01*
X124322160Y-93946000D01*
X124322160Y-94254000D01*
X124302160Y-94254000D01*
X124302160Y-94865880D01*
X124390380Y-94954100D01*
X124162100Y-94954100D01*
X124073600Y-95042600D01*
X123765600Y-95042600D01*
X123757397Y-95034397D01*
X123755132Y-94954380D01*
X123905660Y-94954380D01*
X123994160Y-94865880D01*
X123994160Y-94254000D01*
X123974160Y-94254000D01*
X123974160Y-93946000D01*
X123994160Y-93946000D01*
X123994160Y-93334120D01*
X123905660Y-93245620D01*
X123628165Y-93245620D01*
X123498055Y-93299513D01*
X123400128Y-93397440D01*
X123320795Y-93364580D01*
X122992500Y-93364580D01*
X122904000Y-93453080D01*
X122904000Y-93728265D01*
X122883461Y-93744131D01*
X122864063Y-93777985D01*
X122859096Y-93816686D01*
X122895260Y-94342160D01*
X122596000Y-94342160D01*
X122596000Y-94322160D01*
X121984120Y-94322160D01*
X121895620Y-94410660D01*
X121895620Y-94688155D01*
X121949513Y-94818265D01*
X122049095Y-94917847D01*
X122060780Y-94922687D01*
X121994400Y-94967040D01*
X121916160Y-95084136D01*
X121888685Y-95222260D01*
X121888685Y-96121420D01*
X121916160Y-96259544D01*
X121985101Y-96362722D01*
X121985101Y-96366749D01*
X121946059Y-96425179D01*
X121945400Y-96425048D01*
X121890842Y-96435900D01*
X121890838Y-96435900D01*
X121810935Y-96451794D01*
X121810935Y-96360000D01*
X121783460Y-96221876D01*
X121705220Y-96104780D01*
X121588124Y-96026540D01*
X121450000Y-95999065D01*
X120800935Y-95999065D01*
X120800935Y-95350000D01*
X120773460Y-95211876D01*
X120723330Y-95136850D01*
X120723330Y-94528488D01*
X120882811Y-94369007D01*
X120997600Y-94091880D01*
X120997600Y-93791920D01*
X120938056Y-93648165D01*
X121895620Y-93648165D01*
X121895620Y-93925660D01*
X121984120Y-94014160D01*
X122596000Y-94014160D01*
X122596000Y-93453080D01*
X122507500Y-93364580D01*
X122179205Y-93364580D01*
X122049095Y-93418473D01*
X121949513Y-93518055D01*
X121895620Y-93648165D01*
X120938056Y-93648165D01*
X120882811Y-93514793D01*
X120670707Y-93302689D01*
X120393580Y-93187900D01*
X120093620Y-93187900D01*
X119816493Y-93302689D01*
X119604389Y-93514793D01*
X119489600Y-93791920D01*
X119489600Y-94091880D01*
X119604389Y-94369007D01*
X119814671Y-94579289D01*
X119814670Y-94989065D01*
X119660000Y-94989065D01*
X119550000Y-95010946D01*
X119440000Y-94989065D01*
X119160000Y-94989065D01*
X119050000Y-95010946D01*
X118940000Y-94989065D01*
X118660000Y-94989065D01*
X118550000Y-95010946D01*
X118440000Y-94989065D01*
X118160000Y-94989065D01*
X118050000Y-95010946D01*
X117940000Y-94989065D01*
X117660000Y-94989065D01*
X117550000Y-95010946D01*
X117440000Y-94989065D01*
X117160000Y-94989065D01*
X117047634Y-95011416D01*
X117010415Y-94996000D01*
X116958500Y-94996000D01*
X116928190Y-95026310D01*
X116678853Y-95033353D01*
X116641500Y-94996000D01*
X116589585Y-94996000D01*
X116550000Y-95012397D01*
X116510415Y-94996000D01*
X116458500Y-94996000D01*
X116413656Y-95040844D01*
X116192589Y-95047089D01*
X116141500Y-94996000D01*
X116089585Y-94996000D01*
X115959475Y-95049893D01*
X115911846Y-95097522D01*
X115908760Y-95082009D01*
X115908760Y-94894988D01*
X115970484Y-94882710D01*
X116000009Y-94862982D01*
X116097225Y-94903250D01*
X116306140Y-94903250D01*
X116394640Y-94814750D01*
X116394640Y-94354000D01*
X116702640Y-94354000D01*
X116702640Y-94814750D01*
X116791140Y-94903250D01*
X117000055Y-94903250D01*
X117130165Y-94849357D01*
X117229747Y-94749775D01*
X117283640Y-94619665D01*
X117283640Y-94442500D01*
X117195140Y-94354000D01*
X116702640Y-94354000D01*
X116394640Y-94354000D01*
X116374640Y-94354000D01*
X116374640Y-94046000D01*
X116394640Y-94046000D01*
X116394640Y-93585250D01*
X116702640Y-93585250D01*
X116702640Y-94046000D01*
X117195140Y-94046000D01*
X117283640Y-93957500D01*
X117283640Y-93780335D01*
X117229747Y-93650225D01*
X117130165Y-93550643D01*
X117000055Y-93496750D01*
X116791140Y-93496750D01*
X116702640Y-93585250D01*
X116394640Y-93585250D01*
X116306140Y-93496750D01*
X116097225Y-93496750D01*
X116000009Y-93537018D01*
X115970484Y-93517290D01*
X115832360Y-93489815D01*
X115070360Y-93489815D01*
X114932236Y-93517290D01*
X114815140Y-93595530D01*
X114736900Y-93712626D01*
X114721038Y-93792370D01*
X113857750Y-93792370D01*
X113813011Y-93783471D01*
X113768272Y-93792370D01*
X113768268Y-93792370D01*
X113635742Y-93818731D01*
X113635741Y-93818732D01*
X113635740Y-93818732D01*
X113587822Y-93850750D01*
X113485459Y-93919147D01*
X113460115Y-93957077D01*
X112951723Y-94465470D01*
X111588843Y-94465470D01*
X111544100Y-94456570D01*
X111499357Y-94465470D01*
X111499356Y-94465470D01*
X111366830Y-94491831D01*
X111216547Y-94592247D01*
X111191202Y-94630179D01*
X110644711Y-95176670D01*
X110064838Y-95176670D01*
X110020099Y-95167771D01*
X109975360Y-95176670D01*
X109975356Y-95176670D01*
X109842830Y-95203031D01*
X109790967Y-95237685D01*
X109753498Y-95262721D01*
X109692547Y-95303447D01*
X109667203Y-95341377D01*
X109209780Y-95798801D01*
X109171847Y-95824147D01*
X109071431Y-95974431D01*
X109045070Y-96106957D01*
X109045070Y-96106961D01*
X109036171Y-96151700D01*
X109045070Y-96196439D01*
X109045071Y-97004533D01*
X109029065Y-97085000D01*
X109029065Y-97375000D01*
X109060726Y-97534171D01*
X109061148Y-97534802D01*
X109027958Y-97584474D01*
X108989065Y-97780000D01*
X108861530Y-97780000D01*
X108861530Y-93088130D01*
X127184887Y-93088130D01*
X127220093Y-94168676D01*
G36*
X120832601Y-101713539D02*
X120832600Y-102046785D01*
X120729516Y-102067290D01*
X120699991Y-102087018D01*
X120602775Y-102046750D01*
X120393860Y-102046750D01*
X120305360Y-102135250D01*
X120305360Y-102596000D01*
X120325360Y-102596000D01*
X120325360Y-102904000D01*
X120305360Y-102904000D01*
X120305360Y-103364750D01*
X120393860Y-103453250D01*
X120602775Y-103453250D01*
X120626677Y-103443349D01*
X120522127Y-103547900D01*
X116832000Y-103547900D01*
X116832000Y-103417300D01*
X116743500Y-103328800D01*
X116232000Y-103328800D01*
X116232000Y-103348800D01*
X115924000Y-103348800D01*
X115924000Y-103328800D01*
X115904000Y-103328800D01*
X115904000Y-103020800D01*
X115924000Y-103020800D01*
X115924000Y-103000800D01*
X116232000Y-103000800D01*
X116232000Y-103020800D01*
X116638222Y-103020800D01*
X116750713Y-103133291D01*
X117027840Y-103248080D01*
X117044053Y-103248080D01*
X117115140Y-103354470D01*
X117232236Y-103432710D01*
X117370360Y-103460185D01*
X118132360Y-103460185D01*
X118270484Y-103432710D01*
X118300009Y-103412982D01*
X118397225Y-103453250D01*
X118606140Y-103453250D01*
X118694640Y-103364750D01*
X118694640Y-102904000D01*
X119002640Y-102904000D01*
X119002640Y-103364750D01*
X119091140Y-103453250D01*
X119300055Y-103453250D01*
X119430165Y-103399357D01*
X119500000Y-103329522D01*
X119569835Y-103399357D01*
X119699945Y-103453250D01*
X119908860Y-103453250D01*
X119997360Y-103364750D01*
X119997360Y-102904000D01*
X119504860Y-102904000D01*
X119500000Y-102908860D01*
X119495140Y-102904000D01*
X119002640Y-102904000D01*
X118694640Y-102904000D01*
X118674640Y-102904000D01*
X118674640Y-102596000D01*
X118694640Y-102596000D01*
X118694640Y-102135250D01*
X119002640Y-102135250D01*
X119002640Y-102596000D01*
X119495140Y-102596000D01*
X119500000Y-102591140D01*
X119504860Y-102596000D01*
X119997360Y-102596000D01*
X119997360Y-102135250D01*
X119908860Y-102046750D01*
X119699945Y-102046750D01*
X119569835Y-102100643D01*
X119500000Y-102170478D01*
X119430165Y-102100643D01*
X119300055Y-102046750D01*
X119091140Y-102046750D01*
X119002640Y-102135250D01*
X118694640Y-102135250D01*
X118606140Y-102046750D01*
X118397225Y-102046750D01*
X118300009Y-102087018D01*
X118270484Y-102067290D01*
X118132360Y-102039815D01*
X117789873Y-102039815D01*
X117760993Y-102010935D01*
X117940000Y-102010935D01*
X118050000Y-101989054D01*
X118160000Y-102010935D01*
X118440000Y-102010935D01*
X118550000Y-101989054D01*
X118660000Y-102010935D01*
X118940000Y-102010935D01*
X119050000Y-101989054D01*
X119160000Y-102010935D01*
X119435363Y-102010935D01*
X119439909Y-102017054D01*
X119473393Y-102037084D01*
X119511994Y-102042775D01*
X120450357Y-101995857D01*
X120458500Y-102004000D01*
X120510415Y-102004000D01*
X120554682Y-101985664D01*
X120563267Y-101983634D01*
X120568605Y-101979897D01*
X120640525Y-101950107D01*
X120740107Y-101850525D01*
X120794000Y-101720415D01*
X120794000Y-101674938D01*
X120832601Y-101713539D01*
X120832601Y-101713539D01*
G37*
X120832601Y-101713539D02*
X120832600Y-102046785D01*
X120729516Y-102067290D01*
X120699991Y-102087018D01*
X120602775Y-102046750D01*
X120393860Y-102046750D01*
X120305360Y-102135250D01*
X120305360Y-102596000D01*
X120325360Y-102596000D01*
X120325360Y-102904000D01*
X120305360Y-102904000D01*
X120305360Y-103364750D01*
X120393860Y-103453250D01*
X120602775Y-103453250D01*
X120626677Y-103443349D01*
X120522127Y-103547900D01*
X116832000Y-103547900D01*
X116832000Y-103417300D01*
X116743500Y-103328800D01*
X116232000Y-103328800D01*
X116232000Y-103348800D01*
X115924000Y-103348800D01*
X115924000Y-103328800D01*
X115904000Y-103328800D01*
X115904000Y-103020800D01*
X115924000Y-103020800D01*
X115924000Y-103000800D01*
X116232000Y-103000800D01*
X116232000Y-103020800D01*
X116638222Y-103020800D01*
X116750713Y-103133291D01*
X117027840Y-103248080D01*
X117044053Y-103248080D01*
X117115140Y-103354470D01*
X117232236Y-103432710D01*
X117370360Y-103460185D01*
X118132360Y-103460185D01*
X118270484Y-103432710D01*
X118300009Y-103412982D01*
X118397225Y-103453250D01*
X118606140Y-103453250D01*
X118694640Y-103364750D01*
X118694640Y-102904000D01*
X119002640Y-102904000D01*
X119002640Y-103364750D01*
X119091140Y-103453250D01*
X119300055Y-103453250D01*
X119430165Y-103399357D01*
X119500000Y-103329522D01*
X119569835Y-103399357D01*
X119699945Y-103453250D01*
X119908860Y-103453250D01*
X119997360Y-103364750D01*
X119997360Y-102904000D01*
X119504860Y-102904000D01*
X119500000Y-102908860D01*
X119495140Y-102904000D01*
X119002640Y-102904000D01*
X118694640Y-102904000D01*
X118674640Y-102904000D01*
X118674640Y-102596000D01*
X118694640Y-102596000D01*
X118694640Y-102135250D01*
X119002640Y-102135250D01*
X119002640Y-102596000D01*
X119495140Y-102596000D01*
X119500000Y-102591140D01*
X119504860Y-102596000D01*
X119997360Y-102596000D01*
X119997360Y-102135250D01*
X119908860Y-102046750D01*
X119699945Y-102046750D01*
X119569835Y-102100643D01*
X119500000Y-102170478D01*
X119430165Y-102100643D01*
X119300055Y-102046750D01*
X119091140Y-102046750D01*
X119002640Y-102135250D01*
X118694640Y-102135250D01*
X118606140Y-102046750D01*
X118397225Y-102046750D01*
X118300009Y-102087018D01*
X118270484Y-102067290D01*
X118132360Y-102039815D01*
X117789873Y-102039815D01*
X117760993Y-102010935D01*
X117940000Y-102010935D01*
X118050000Y-101989054D01*
X118160000Y-102010935D01*
X118440000Y-102010935D01*
X118550000Y-101989054D01*
X118660000Y-102010935D01*
X118940000Y-102010935D01*
X119050000Y-101989054D01*
X119160000Y-102010935D01*
X119435363Y-102010935D01*
X119439909Y-102017054D01*
X119473393Y-102037084D01*
X119511994Y-102042775D01*
X120450357Y-101995857D01*
X120458500Y-102004000D01*
X120510415Y-102004000D01*
X120554682Y-101985664D01*
X120563267Y-101983634D01*
X120568605Y-101979897D01*
X120640525Y-101950107D01*
X120740107Y-101850525D01*
X120794000Y-101720415D01*
X120794000Y-101674938D01*
X120832601Y-101713539D01*
G36*
X113296750Y-99983360D02*
X113385250Y-100071860D01*
X113846000Y-100071860D01*
X113846000Y-100051860D01*
X114154000Y-100051860D01*
X114154000Y-100071860D01*
X114614750Y-100071860D01*
X114703250Y-99983360D01*
X114703250Y-99956161D01*
X114985986Y-99956161D01*
X115011876Y-99973460D01*
X115145300Y-100000000D01*
X115011876Y-100026540D01*
X114946833Y-100070000D01*
X114884500Y-100070000D01*
X114796000Y-100158500D01*
X114796000Y-100210415D01*
X114811416Y-100247634D01*
X114789065Y-100360000D01*
X114789065Y-100527105D01*
X114703250Y-100612920D01*
X114703250Y-100468360D01*
X114614750Y-100379860D01*
X114154000Y-100379860D01*
X114154000Y-100399860D01*
X113846000Y-100399860D01*
X113846000Y-100379860D01*
X113385250Y-100379860D01*
X113296750Y-100468360D01*
X113296750Y-100677275D01*
X113325217Y-100746000D01*
X113150020Y-100746000D01*
X112938230Y-100833726D01*
X112938230Y-100153820D01*
X113135890Y-99956161D01*
X113296750Y-99956161D01*
X113296750Y-99983360D01*
X113296750Y-99983360D01*
G37*
X113296750Y-99983360D02*
X113385250Y-100071860D01*
X113846000Y-100071860D01*
X113846000Y-100051860D01*
X114154000Y-100051860D01*
X114154000Y-100071860D01*
X114614750Y-100071860D01*
X114703250Y-99983360D01*
X114703250Y-99956161D01*
X114985986Y-99956161D01*
X115011876Y-99973460D01*
X115145300Y-100000000D01*
X115011876Y-100026540D01*
X114946833Y-100070000D01*
X114884500Y-100070000D01*
X114796000Y-100158500D01*
X114796000Y-100210415D01*
X114811416Y-100247634D01*
X114789065Y-100360000D01*
X114789065Y-100527105D01*
X114703250Y-100612920D01*
X114703250Y-100468360D01*
X114614750Y-100379860D01*
X114154000Y-100379860D01*
X114154000Y-100399860D01*
X113846000Y-100399860D01*
X113846000Y-100379860D01*
X113385250Y-100379860D01*
X113296750Y-100468360D01*
X113296750Y-100677275D01*
X113325217Y-100746000D01*
X113150020Y-100746000D01*
X112938230Y-100833726D01*
X112938230Y-100153820D01*
X113135890Y-99956161D01*
X113296750Y-99956161D01*
X113296750Y-99983360D01*
G36*
X122754000Y-97930640D02*
X122774000Y-97930640D01*
X122774000Y-98238640D01*
X122754000Y-98238640D01*
X122754000Y-98258640D01*
X122446000Y-98258640D01*
X122446000Y-98238640D01*
X122426000Y-98238640D01*
X122426000Y-97930640D01*
X122446000Y-97930640D01*
X122446000Y-97910640D01*
X122754000Y-97910640D01*
X122754000Y-97930640D01*
X122754000Y-97930640D01*
G37*
X122754000Y-97930640D02*
X122774000Y-97930640D01*
X122774000Y-98238640D01*
X122754000Y-98238640D01*
X122754000Y-98258640D01*
X122446000Y-98258640D01*
X122446000Y-98238640D01*
X122426000Y-98238640D01*
X122426000Y-97930640D01*
X122446000Y-97930640D01*
X122446000Y-97910640D01*
X122754000Y-97910640D01*
X122754000Y-97930640D01*
G36*
X113089065Y-97884000D02*
X112910935Y-97884000D01*
X112910935Y-97536000D01*
X113089065Y-97536000D01*
X113089065Y-97884000D01*
X113089065Y-97884000D01*
G37*
X113089065Y-97884000D02*
X112910935Y-97884000D01*
X112910935Y-97536000D01*
X113089065Y-97536000D01*
X113089065Y-97884000D01*
G36*
X129263470Y-104904870D02*
X126815263Y-104904870D01*
X127045492Y-103682848D01*
X129263470Y-103408755D01*
X129263470Y-104904870D01*
X129263470Y-104904870D01*
G37*
X129263470Y-104904870D02*
X126815263Y-104904870D01*
X127045492Y-103682848D01*
X129263470Y-103408755D01*
X129263470Y-104904870D01*
G36*
X129263471Y-95257096D02*
X128822621Y-95003761D01*
X128810624Y-94943451D01*
X128667352Y-94729028D01*
X128452929Y-94585756D01*
X128200000Y-94535445D01*
X128007663Y-94535445D01*
X127002752Y-93957972D01*
X126871062Y-93088130D01*
X129263471Y-93088130D01*
X129263471Y-95257096D01*
X129263471Y-95257096D01*
G37*
X129263471Y-95257096D02*
X128822621Y-95003761D01*
X128810624Y-94943451D01*
X128667352Y-94729028D01*
X128452929Y-94585756D01*
X128200000Y-94535445D01*
X128007663Y-94535445D01*
X127002752Y-93957972D01*
X126871062Y-93088130D01*
X129263471Y-93088130D01*
X129263471Y-95257096D01*
G04 #@! TD*
M02*
