G04 #@! TF.GenerationSoftware,KiCad,Pcbnew,(5.1.10-1-10_14)*
G04 #@! TF.CreationDate,2021-07-01T15:51:22+08:00*
G04 #@! TF.ProjectId,fst-01,6673742d-3031-42e6-9b69-6361645f7063,1.3*
G04 #@! TF.SameCoordinates,PX791ddc0PY5e69114*
G04 #@! TF.FileFunction,Copper,L2,Bot*
G04 #@! TF.FilePolarity,Positive*
%FSLAX45Y45*%
G04 Gerber Fmt 4.5, Leading zero omitted, Abs format (unit mm)*
G04 Created by KiCad (PCBNEW (5.1.10-1-10_14)) date 2021-07-01 15:51:22*
%MOMM*%
%LPD*%
G01*
G04 APERTURE LIST*
G04 #@! TA.AperFunction,SMDPad,CuDef*
%ADD10C,0.150000*%
G04 #@! TD*
G04 #@! TA.AperFunction,ComponentPad*
%ADD11R,1.524000X1.524000*%
G04 #@! TD*
G04 #@! TA.AperFunction,ComponentPad*
%ADD12C,1.524000*%
G04 #@! TD*
G04 #@! TA.AperFunction,ComponentPad*
%ADD13O,3.500120X1.501140*%
G04 #@! TD*
G04 #@! TA.AperFunction,ComponentPad*
%ADD14C,1.399540*%
G04 #@! TD*
G04 #@! TA.AperFunction,ComponentPad*
%ADD15C,1.518920*%
G04 #@! TD*
G04 #@! TA.AperFunction,ComponentPad*
%ADD16C,1.099820*%
G04 #@! TD*
G04 #@! TA.AperFunction,ViaPad*
%ADD17C,0.800100*%
G04 #@! TD*
G04 #@! TA.AperFunction,ViaPad*
%ADD18C,1.600000*%
G04 #@! TD*
G04 #@! TA.AperFunction,Conductor*
%ADD19C,0.200660*%
G04 #@! TD*
G04 #@! TA.AperFunction,Conductor*
%ADD20C,0.599440*%
G04 #@! TD*
G04 #@! TA.AperFunction,Conductor*
%ADD21C,0.400000*%
G04 #@! TD*
G04 #@! TA.AperFunction,Conductor*
%ADD22C,0.500000*%
G04 #@! TD*
G04 #@! TA.AperFunction,Conductor*
%ADD23C,0.600000*%
G04 #@! TD*
G04 #@! TA.AperFunction,Conductor*
%ADD24C,0.248920*%
G04 #@! TD*
G04 #@! TA.AperFunction,Conductor*
%ADD25C,0.150000*%
G04 #@! TD*
G04 APERTURE END LIST*
G04 #@! TA.AperFunction,SMDPad,CuDef*
D10*
G04 #@! TO.P,JP1,2*
G04 #@! TO.N,/BOOT0*
G36*
X-59000Y433000D02*
G01*
X-174000Y433000D01*
X-124000Y508000D01*
X-174000Y583000D01*
X-59000Y583000D01*
X-59000Y433000D01*
G37*
G04 #@! TD.AperFunction*
G04 #@! TA.AperFunction,SMDPad,CuDef*
G04 #@! TO.P,JP1,1*
G04 #@! TO.N,+3V3*
G36*
X-154000Y508000D02*
G01*
X-204000Y433000D01*
X-304000Y433000D01*
X-304000Y583000D01*
X-204000Y583000D01*
X-154000Y508000D01*
G37*
G04 #@! TD.AperFunction*
G04 #@! TD*
D11*
G04 #@! TO.P,K1,1*
G04 #@! TO.N,/BOOT0*
X177953Y507811D03*
D12*
G04 #@! TO.P,K1,2*
G04 #@! TO.N,/SWCLK*
X431953Y507811D03*
G04 #@! TO.P,K1,3*
G04 #@! TO.N,/SWDIO*
X685953Y507811D03*
G04 #@! TD*
G04 #@! TO.P,K3,1*
G04 #@! TO.N,/NRST*
X-840220Y-1121D03*
G04 #@! TO.P,K3,2*
G04 #@! TO.N,/PA2*
X-1094220Y-1121D03*
G04 #@! TD*
D13*
G04 #@! TO.P,J1,5*
G04 #@! TO.N,GND*
X1099058Y569976D03*
X1099058Y-569976D03*
D14*
G04 #@! TO.P,J1,3*
G04 #@! TO.N,/D+_PLUG*
X889000Y-100076D03*
G04 #@! TO.P,J1,2*
G04 #@! TO.N,/D-_PLUG*
X889000Y100076D03*
D15*
G04 #@! TO.P,J1,4*
G04 #@! TO.N,GND*
X889000Y-350012D03*
G04 #@! TO.P,J1,1*
G04 #@! TO.N,/VBUS*
X889000Y350012D03*
D16*
G04 #@! TO.P,J1,7*
G04 #@! TO.N,N/C*
X1099058Y-225044D03*
G04 #@! TO.P,J1,8*
X1099058Y225044D03*
G04 #@! TD*
D11*
G04 #@! TO.P,K2,1*
G04 #@! TO.N,GND*
X-1092979Y254000D03*
G04 #@! TO.P,K2,2*
G04 #@! TO.N,+3V3*
X-1092979Y508000D03*
G04 #@! TD*
D17*
G04 #@! TO.N,/NRST*
X-718059Y234541D03*
G04 #@! TO.N,GND*
X-868594Y-450302D03*
X111760Y139700D03*
X111760Y-63500D03*
X-91440Y-63500D03*
X-91440Y139700D03*
X153333Y-478158D03*
D18*
X-1397520Y-508000D03*
X-1397000Y508000D03*
D17*
X635000Y254000D03*
G04 #@! TO.N,+3V3*
X297180Y320040D03*
X436880Y-314960D03*
X-614680Y-203200D03*
X320040Y-452120D03*
X-283211Y321902D03*
X-365252Y-32512D03*
G04 #@! TD*
D19*
G04 #@! TO.N,/NRST*
X-840220Y112380D02*
X-718059Y234541D01*
X-840220Y-1121D02*
X-840220Y112380D01*
D20*
G04 #@! TO.N,GND*
X1099058Y-569976D02*
X1099058Y-560070D01*
X1099058Y-560070D02*
X889000Y-350012D01*
D21*
X-868594Y-450302D02*
X-857458Y-461439D01*
X99299Y-532191D02*
X153333Y-478158D01*
X-786706Y-532191D02*
X99299Y-532191D01*
X-868594Y-450302D02*
X-786706Y-532191D01*
D22*
X635000Y-96012D02*
X635000Y254000D01*
X889000Y-350012D02*
X635000Y-96012D01*
D20*
G04 #@! TO.N,+3V3*
X-850900Y508000D02*
X-840740Y497840D01*
X-462280Y320040D02*
X297180Y320040D01*
X-444500Y320040D02*
X-462280Y320040D01*
X-1092200Y508000D02*
X-850900Y508000D01*
X436880Y-314960D02*
X447040Y-309880D01*
X447040Y-309880D02*
X447040Y177800D01*
X447040Y177800D02*
X297180Y320040D01*
X238760Y-381000D02*
X-490220Y-381000D01*
X-490220Y-381000D02*
X-614680Y-256540D01*
X-614680Y-256540D02*
X-614680Y-203200D01*
X320040Y-452120D02*
X238760Y-381000D01*
X-614680Y-109220D02*
X-505460Y0D01*
X-505460Y0D02*
X-458216Y0D01*
X-614680Y-203200D02*
X-614680Y-109220D01*
X-459740Y297180D02*
X-459740Y320040D01*
X-459740Y12700D02*
X-459740Y297180D01*
X-459740Y12700D02*
X-458216Y0D01*
X-269240Y320040D02*
X-459740Y320040D01*
X-397764Y0D02*
X-458216Y0D01*
X-365252Y-32512D02*
X-397764Y0D01*
D23*
X-850900Y508000D02*
X-723900Y381000D01*
X-520700Y381000D02*
X-459740Y320040D01*
X-723900Y381000D02*
X-520700Y381000D01*
D19*
X-254000Y335280D02*
X-269240Y320040D01*
X-393700Y508000D02*
X-520700Y381000D01*
X-254000Y508000D02*
X-393700Y508000D01*
G04 #@! TO.N,/BOOT0*
X-108811Y507811D02*
X-109000Y508000D01*
X177953Y507811D02*
X-108811Y507811D01*
G04 #@! TD*
D24*
G04 #@! TO.N,GND*
X866376Y610934D02*
X865136Y604311D01*
X877304Y582930D01*
X1086104Y582930D01*
X1086104Y584930D01*
X1112012Y584930D01*
X1112012Y582930D01*
X1114012Y582930D01*
X1114012Y557022D01*
X1112012Y557022D01*
X1112012Y431673D01*
X1211961Y431673D01*
X1238694Y436858D01*
X1263901Y447158D01*
X1286615Y462178D01*
X1305962Y481341D01*
X1321199Y503910D01*
X1331595Y528674D01*
X1331595Y-528673D01*
X1321199Y-503910D01*
X1305962Y-481341D01*
X1286615Y-462178D01*
X1263901Y-447158D01*
X1238694Y-436858D01*
X1211961Y-431673D01*
X1112012Y-431673D01*
X1112012Y-557022D01*
X1114012Y-557022D01*
X1114012Y-582930D01*
X1112012Y-582930D01*
X1112012Y-584930D01*
X1086104Y-584930D01*
X1086104Y-582930D01*
X877304Y-582930D01*
X865136Y-604311D01*
X866376Y-610934D01*
X870348Y-620395D01*
X-1486535Y-620395D01*
X-1486535Y-418465D01*
X-1271840Y-418465D01*
X-1270000Y-418646D01*
X-1262656Y-417923D01*
X-1255593Y-415781D01*
X-1249085Y-412302D01*
X-1243380Y-407620D01*
X-1238698Y-401915D01*
X-1235219Y-395407D01*
X-1233077Y-388344D01*
X-1232535Y-382840D01*
X-1232354Y-381000D01*
X-1232535Y-379160D01*
X-1232535Y9586D01*
X-1202932Y9586D01*
X-1202932Y-11828D01*
X-1198755Y-32831D01*
X-1190560Y-52615D01*
X-1178662Y-70421D01*
X-1163520Y-85563D01*
X-1145715Y-97460D01*
X-1125930Y-105655D01*
X-1104928Y-109833D01*
X-1083513Y-109833D01*
X-1062510Y-105655D01*
X-1042726Y-97460D01*
X-1024920Y-85563D01*
X-1009778Y-70421D01*
X-997881Y-52615D01*
X-989686Y-32831D01*
X-985508Y-11828D01*
X-985508Y9586D01*
X-948932Y9586D01*
X-948932Y-11828D01*
X-944754Y-32831D01*
X-936560Y-52615D01*
X-924662Y-70421D01*
X-909520Y-85563D01*
X-891715Y-97460D01*
X-871930Y-105655D01*
X-850927Y-109833D01*
X-829513Y-109833D01*
X-808510Y-105655D01*
X-788726Y-97460D01*
X-770920Y-85563D01*
X-755778Y-70421D01*
X-743881Y-52615D01*
X-735686Y-32831D01*
X-731508Y-11828D01*
X-731508Y9586D01*
X-735686Y30589D01*
X-743881Y50373D01*
X-755778Y68179D01*
X-770920Y83321D01*
X-788726Y95218D01*
X-794728Y97704D01*
X-729545Y162888D01*
X-725201Y162024D01*
X-710917Y162024D01*
X-696907Y164811D01*
X-683710Y170277D01*
X-671832Y178213D01*
X-661732Y188314D01*
X-653795Y200191D01*
X-648329Y213389D01*
X-645542Y227399D01*
X-645542Y241683D01*
X-648329Y255693D01*
X-653795Y268891D01*
X-661732Y280768D01*
X-671832Y290869D01*
X-683710Y298805D01*
X-696907Y304271D01*
X-710917Y307058D01*
X-725201Y307058D01*
X-739212Y304271D01*
X-752409Y298805D01*
X-764286Y290869D01*
X-774387Y280768D01*
X-782323Y268891D01*
X-787789Y255693D01*
X-790576Y241683D01*
X-790576Y227399D01*
X-789712Y223056D01*
X-868826Y143942D01*
X-870450Y142609D01*
X-875766Y136131D01*
X-879717Y128740D01*
X-880864Y124958D01*
X-882150Y120720D01*
X-882971Y112380D01*
X-882765Y110290D01*
X-882765Y98925D01*
X-891715Y95218D01*
X-909520Y83321D01*
X-924662Y68179D01*
X-936560Y50373D01*
X-944754Y30589D01*
X-948932Y9586D01*
X-985508Y9586D01*
X-989686Y30589D01*
X-997881Y50373D01*
X-1009778Y68179D01*
X-1024920Y83321D01*
X-1042726Y95218D01*
X-1062510Y103413D01*
X-1083513Y107591D01*
X-1104928Y107591D01*
X-1125930Y103413D01*
X-1145715Y95218D01*
X-1163520Y83321D01*
X-1178662Y68179D01*
X-1190560Y50373D01*
X-1198755Y30589D01*
X-1202932Y9586D01*
X-1232535Y9586D01*
X-1232535Y175810D01*
X-1231510Y165402D01*
X-1227893Y153480D01*
X-1222021Y142492D01*
X-1214117Y132862D01*
X-1204487Y124958D01*
X-1193499Y119086D01*
X-1181577Y115469D01*
X-1169179Y114248D01*
X-1121745Y114554D01*
X-1105933Y130365D01*
X-1105933Y241046D01*
X-1080025Y241046D01*
X-1080025Y130365D01*
X-1064214Y114554D01*
X-1016779Y114248D01*
X-1004381Y115469D01*
X-992459Y119086D01*
X-981471Y124958D01*
X-971841Y132862D01*
X-963937Y142492D01*
X-958065Y153480D01*
X-954448Y165402D01*
X-953227Y177800D01*
X-953533Y225234D01*
X-969344Y241046D01*
X-1080025Y241046D01*
X-1105933Y241046D01*
X-1216614Y241046D01*
X-1232425Y225234D01*
X-1232535Y208183D01*
X-1232535Y299817D01*
X-1232425Y282766D01*
X-1216614Y266954D01*
X-1105933Y266954D01*
X-1105933Y377634D01*
X-1080025Y377634D01*
X-1080025Y266954D01*
X-969344Y266954D01*
X-953533Y282766D01*
X-953227Y330200D01*
X-954448Y342598D01*
X-958065Y354520D01*
X-963937Y365508D01*
X-971841Y375138D01*
X-981471Y383042D01*
X-992459Y388914D01*
X-1004381Y392531D01*
X-1016779Y393752D01*
X-1064214Y393446D01*
X-1080025Y377634D01*
X-1105933Y377634D01*
X-1121745Y393446D01*
X-1169179Y393752D01*
X-1181577Y392531D01*
X-1193499Y388914D01*
X-1204487Y383042D01*
X-1214117Y375138D01*
X-1222021Y365508D01*
X-1227893Y354520D01*
X-1231510Y342598D01*
X-1232535Y332190D01*
X-1232535Y379160D01*
X-1232354Y381000D01*
X-1233077Y388344D01*
X-1235219Y395407D01*
X-1238698Y401915D01*
X-1243380Y407620D01*
X-1249085Y412302D01*
X-1255593Y415781D01*
X-1262656Y417923D01*
X-1268160Y418465D01*
X-1268160Y418465D01*
X-1270000Y418646D01*
X-1271840Y418465D01*
X-1486535Y418465D01*
X-1486535Y584200D01*
X-1201848Y584200D01*
X-1201848Y431800D01*
X-1201221Y425426D01*
X-1199362Y419298D01*
X-1196343Y413650D01*
X-1192280Y408699D01*
X-1187329Y404636D01*
X-1181681Y401617D01*
X-1175553Y399758D01*
X-1169179Y399131D01*
X-1016779Y399131D01*
X-1010405Y399758D01*
X-1004277Y401617D01*
X-998629Y404636D01*
X-993678Y408699D01*
X-989615Y413650D01*
X-986596Y419298D01*
X-984737Y425426D01*
X-984110Y431800D01*
X-984110Y445516D01*
X-876821Y445516D01*
X-770273Y338968D01*
X-768316Y336584D01*
X-758798Y328772D01*
X-747938Y322967D01*
X-742137Y321207D01*
X-736155Y319393D01*
X-723900Y318186D01*
X-720830Y318488D01*
X-546593Y318488D01*
X-522224Y294119D01*
X-522224Y294111D01*
X-522224Y294110D01*
X-522224Y60210D01*
X-529487Y58007D01*
X-540342Y52205D01*
X-547473Y46353D01*
X-549857Y44397D01*
X-551813Y42013D01*
X-656693Y-62867D01*
X-659077Y-64823D01*
X-661033Y-67207D01*
X-661033Y-67208D01*
X-666885Y-74338D01*
X-672687Y-85193D01*
X-674303Y-90519D01*
X-675752Y-95298D01*
X-676260Y-96971D01*
X-677466Y-109220D01*
X-677164Y-112289D01*
X-677164Y-166187D01*
X-678944Y-168850D01*
X-684410Y-182048D01*
X-687197Y-196058D01*
X-687197Y-210342D01*
X-684410Y-224352D01*
X-678944Y-237550D01*
X-677164Y-240213D01*
X-677164Y-253472D01*
X-677466Y-256540D01*
X-677164Y-259608D01*
X-677164Y-259609D01*
X-676260Y-268789D01*
X-673273Y-278635D01*
X-672687Y-280567D01*
X-666885Y-291422D01*
X-664927Y-293808D01*
X-659077Y-300937D01*
X-656692Y-302894D01*
X-536573Y-423012D01*
X-534617Y-425397D01*
X-532233Y-427353D01*
X-532233Y-427353D01*
X-525102Y-433205D01*
X-521321Y-435226D01*
X-514247Y-439007D01*
X-502469Y-442580D01*
X-493289Y-443484D01*
X-493288Y-443484D01*
X-490220Y-443786D01*
X-487152Y-443484D01*
X215283Y-443484D01*
X250869Y-474622D01*
X255776Y-486470D01*
X263712Y-498347D01*
X273813Y-508448D01*
X285690Y-516384D01*
X298888Y-521850D01*
X312898Y-524637D01*
X327182Y-524637D01*
X341192Y-521850D01*
X354390Y-516384D01*
X366267Y-508448D01*
X376368Y-498347D01*
X384304Y-486470D01*
X389770Y-473272D01*
X392557Y-459262D01*
X392557Y-446412D01*
X810920Y-446412D01*
X817622Y-470293D01*
X842460Y-481907D01*
X869085Y-488452D01*
X886818Y-489245D01*
X876917Y-503910D01*
X866376Y-529018D01*
X865136Y-535641D01*
X877304Y-557022D01*
X1086104Y-557022D01*
X1086104Y-431673D01*
X988981Y-431673D01*
X985400Y-428092D01*
X1009281Y-421389D01*
X1020895Y-396552D01*
X1027440Y-369926D01*
X1028665Y-342536D01*
X1024523Y-315432D01*
X1015173Y-289657D01*
X1009281Y-278635D01*
X985400Y-271932D01*
X907320Y-350012D01*
X908734Y-351426D01*
X890414Y-369746D01*
X889000Y-368332D01*
X810920Y-446412D01*
X392557Y-446412D01*
X392557Y-444978D01*
X389770Y-430968D01*
X384304Y-417770D01*
X376368Y-405893D01*
X366267Y-395792D01*
X354390Y-387856D01*
X341192Y-382390D01*
X333484Y-380856D01*
X283788Y-337373D01*
X283157Y-336603D01*
X279163Y-333326D01*
X277596Y-331955D01*
X276791Y-331380D01*
X273642Y-328795D01*
X271796Y-327808D01*
X270092Y-326590D01*
X266380Y-324914D01*
X262787Y-322993D01*
X260783Y-322385D01*
X258875Y-321523D01*
X254908Y-320603D01*
X251009Y-319420D01*
X248925Y-319215D01*
X246886Y-318742D01*
X242815Y-318613D01*
X241829Y-318516D01*
X239745Y-318516D01*
X234584Y-318353D01*
X233602Y-318516D01*
X-464338Y-318516D01*
X-548919Y-233935D01*
X-544950Y-224352D01*
X-542163Y-210342D01*
X-542163Y-196058D01*
X-544950Y-182048D01*
X-550416Y-168850D01*
X-552196Y-166187D01*
X-552196Y-135102D01*
X-479578Y-62484D01*
X-463700Y-62484D01*
X-463041Y-62601D01*
X-457556Y-62484D01*
X-431329Y-62484D01*
X-429516Y-66862D01*
X-421580Y-78739D01*
X-411479Y-88840D01*
X-399602Y-96776D01*
X-386404Y-102242D01*
X-372394Y-105029D01*
X-358110Y-105029D01*
X-344100Y-102242D01*
X-330902Y-96776D01*
X-319025Y-88840D01*
X-308924Y-78739D01*
X-300988Y-66862D01*
X-295522Y-53664D01*
X-292735Y-39654D01*
X-292735Y-25370D01*
X-295522Y-11360D01*
X-300988Y1838D01*
X-308924Y13715D01*
X-319025Y23816D01*
X-330902Y31752D01*
X-344100Y37218D01*
X-347242Y37843D01*
X-351410Y42012D01*
X-353367Y44397D01*
X-362882Y52205D01*
X-373737Y58007D01*
X-385515Y61580D01*
X-394695Y62484D01*
X-394696Y62484D01*
X-397256Y62736D01*
X-397256Y257556D01*
X-317363Y257556D01*
X-304363Y252171D01*
X-290353Y249384D01*
X-276068Y249384D01*
X-262058Y252171D01*
X-249058Y257556D01*
X260167Y257556D01*
X262830Y255776D01*
X276028Y250310D01*
X280904Y249340D01*
X384556Y150958D01*
X384556Y-264730D01*
X380552Y-268733D01*
X372616Y-280610D01*
X367150Y-293808D01*
X364363Y-307818D01*
X364363Y-322102D01*
X367150Y-336112D01*
X372616Y-349310D01*
X380552Y-361187D01*
X390653Y-371288D01*
X402530Y-379224D01*
X415728Y-384690D01*
X429738Y-387477D01*
X444022Y-387477D01*
X458032Y-384690D01*
X471230Y-379224D01*
X483107Y-371288D01*
X493208Y-361187D01*
X495679Y-357488D01*
X749334Y-357488D01*
X753477Y-384592D01*
X762827Y-410367D01*
X768719Y-421389D01*
X792600Y-428092D01*
X870680Y-350012D01*
X792600Y-271932D01*
X768719Y-278635D01*
X757105Y-303472D01*
X750559Y-330098D01*
X749334Y-357488D01*
X495679Y-357488D01*
X501144Y-349310D01*
X506610Y-336112D01*
X509397Y-322102D01*
X509397Y-315390D01*
X509440Y-313799D01*
X509524Y-312949D01*
X509524Y-310727D01*
X509668Y-305429D01*
X509524Y-304584D01*
X509524Y-253612D01*
X810920Y-253612D01*
X889000Y-331692D01*
X967080Y-253612D01*
X960377Y-229731D01*
X935540Y-218117D01*
X928661Y-216426D01*
X1011555Y-216426D01*
X1011555Y-233662D01*
X1014918Y-250568D01*
X1021514Y-266492D01*
X1031090Y-280824D01*
X1043278Y-293012D01*
X1057610Y-302588D01*
X1073534Y-309184D01*
X1090440Y-312547D01*
X1107676Y-312547D01*
X1124582Y-309184D01*
X1140506Y-302588D01*
X1154838Y-293012D01*
X1167026Y-280824D01*
X1176602Y-266492D01*
X1183198Y-250568D01*
X1186561Y-233662D01*
X1186561Y-216426D01*
X1183198Y-199520D01*
X1176602Y-183596D01*
X1167026Y-169264D01*
X1154838Y-157076D01*
X1140506Y-147500D01*
X1124582Y-140904D01*
X1107676Y-137541D01*
X1090440Y-137541D01*
X1073534Y-140904D01*
X1057610Y-147500D01*
X1043278Y-157076D01*
X1031090Y-169264D01*
X1021514Y-183596D01*
X1014918Y-199520D01*
X1011555Y-216426D01*
X928661Y-216426D01*
X908914Y-211571D01*
X881523Y-210346D01*
X854420Y-214489D01*
X828645Y-223839D01*
X817622Y-229731D01*
X810920Y-253612D01*
X509524Y-253612D01*
X509524Y110170D01*
X786511Y110170D01*
X786511Y89982D01*
X790450Y70181D01*
X798175Y51529D01*
X809392Y34743D01*
X823667Y20468D01*
X840453Y9251D01*
X859105Y1526D01*
X866775Y0D01*
X859105Y-1526D01*
X840453Y-9251D01*
X823667Y-20468D01*
X809392Y-34743D01*
X798175Y-51529D01*
X790450Y-70181D01*
X786511Y-89982D01*
X786511Y-110170D01*
X790450Y-129971D01*
X798175Y-148623D01*
X809392Y-165409D01*
X823667Y-179684D01*
X840453Y-190901D01*
X859105Y-198626D01*
X878906Y-202565D01*
X899094Y-202565D01*
X918895Y-198626D01*
X937547Y-190901D01*
X954333Y-179684D01*
X968608Y-165409D01*
X979825Y-148623D01*
X987550Y-129971D01*
X991489Y-110170D01*
X991489Y-89982D01*
X987550Y-70181D01*
X979825Y-51529D01*
X968608Y-34743D01*
X954333Y-20468D01*
X937547Y-9251D01*
X918895Y-1526D01*
X911225Y0D01*
X918895Y1526D01*
X937547Y9251D01*
X954333Y20468D01*
X968608Y34743D01*
X979825Y51529D01*
X987550Y70181D01*
X991489Y89982D01*
X991489Y110170D01*
X987550Y129971D01*
X979825Y148623D01*
X968608Y165409D01*
X954333Y179684D01*
X937547Y190901D01*
X918895Y198626D01*
X899094Y202565D01*
X878906Y202565D01*
X859105Y198626D01*
X840453Y190901D01*
X823667Y179684D01*
X809392Y165409D01*
X798175Y148623D01*
X790450Y129971D01*
X786511Y110170D01*
X509524Y110170D01*
X509524Y175548D01*
X509805Y179437D01*
X509143Y184734D01*
X508620Y190049D01*
X508381Y190835D01*
X508279Y191651D01*
X506597Y196717D01*
X505047Y201827D01*
X504660Y202552D01*
X504401Y203332D01*
X501761Y207974D01*
X499245Y212682D01*
X498724Y213317D01*
X498317Y214032D01*
X494822Y218071D01*
X491437Y222197D01*
X488422Y224671D01*
X478949Y233662D01*
X1011555Y233662D01*
X1011555Y216426D01*
X1014918Y199520D01*
X1021514Y183596D01*
X1031090Y169264D01*
X1043278Y157076D01*
X1057610Y147500D01*
X1073534Y140904D01*
X1090440Y137541D01*
X1107676Y137541D01*
X1124582Y140904D01*
X1140506Y147500D01*
X1154838Y157076D01*
X1167026Y169264D01*
X1176602Y183596D01*
X1183198Y199520D01*
X1186561Y216426D01*
X1186561Y233662D01*
X1183198Y250568D01*
X1176602Y266492D01*
X1167026Y280824D01*
X1154838Y293012D01*
X1140506Y302588D01*
X1124582Y309184D01*
X1107676Y312547D01*
X1090440Y312547D01*
X1073534Y309184D01*
X1057610Y302588D01*
X1043278Y293012D01*
X1031090Y280824D01*
X1021514Y266492D01*
X1014918Y250568D01*
X1011555Y233662D01*
X478949Y233662D01*
X367202Y339727D01*
X366910Y341192D01*
X361444Y354390D01*
X357231Y360694D01*
X780542Y360694D01*
X780542Y339330D01*
X784710Y318376D01*
X792886Y298638D01*
X804755Y280874D01*
X819862Y265767D01*
X837626Y253898D01*
X857364Y245722D01*
X878318Y241554D01*
X899682Y241554D01*
X920636Y245722D01*
X940374Y253898D01*
X958138Y265767D01*
X973245Y280874D01*
X985114Y298638D01*
X993290Y318376D01*
X997458Y339330D01*
X997458Y360694D01*
X993290Y381648D01*
X985114Y401386D01*
X973245Y419150D01*
X958138Y434257D01*
X946095Y442303D01*
X959422Y436858D01*
X986155Y431673D01*
X1086104Y431673D01*
X1086104Y557022D01*
X877304Y557022D01*
X865136Y535641D01*
X866376Y529018D01*
X876917Y503910D01*
X892154Y481341D01*
X911501Y462178D01*
X928065Y451225D01*
X920636Y454302D01*
X899682Y458470D01*
X878318Y458470D01*
X857364Y454302D01*
X837626Y446126D01*
X819862Y434257D01*
X804755Y419150D01*
X792886Y401386D01*
X784710Y381648D01*
X780542Y360694D01*
X357231Y360694D01*
X353508Y366267D01*
X343407Y376368D01*
X331530Y384304D01*
X318332Y389770D01*
X304322Y392557D01*
X290038Y392557D01*
X276028Y389770D01*
X262830Y384304D01*
X260167Y382524D01*
X-243411Y382524D01*
X-248861Y386165D01*
X-262058Y391632D01*
X-276068Y394418D01*
X-290353Y394418D01*
X-304363Y391632D01*
X-317560Y386165D01*
X-323010Y382524D01*
X-433819Y382524D01*
X-446413Y395119D01*
X-376077Y465455D01*
X-336669Y465455D01*
X-336669Y433000D01*
X-336042Y426626D01*
X-334183Y420498D01*
X-331164Y414850D01*
X-327101Y409899D01*
X-322150Y405836D01*
X-316502Y402817D01*
X-310374Y400958D01*
X-304000Y400331D01*
X-204000Y400331D01*
X-197593Y400965D01*
X-191466Y402831D01*
X-189000Y404152D01*
X-186502Y402817D01*
X-180373Y400958D01*
X-174000Y400331D01*
X-59000Y400331D01*
X-52626Y400958D01*
X-46498Y402817D01*
X-40850Y405836D01*
X-35899Y409899D01*
X-31836Y414850D01*
X-28817Y420498D01*
X-26958Y426626D01*
X-26331Y433000D01*
X-26331Y465266D01*
X69083Y465266D01*
X69083Y431611D01*
X69711Y425238D01*
X71570Y419109D01*
X74589Y413461D01*
X78652Y408511D01*
X83603Y404448D01*
X89251Y401429D01*
X95379Y399570D01*
X101753Y398942D01*
X254153Y398942D01*
X260526Y399570D01*
X266655Y401429D01*
X272303Y404448D01*
X277253Y408511D01*
X281316Y413461D01*
X284335Y419109D01*
X286194Y425238D01*
X286822Y431611D01*
X286822Y518519D01*
X323241Y518519D01*
X323241Y497104D01*
X327419Y476101D01*
X335613Y456317D01*
X347511Y438511D01*
X362653Y423369D01*
X380458Y411472D01*
X400243Y403277D01*
X421245Y399099D01*
X442660Y399099D01*
X463663Y403277D01*
X483447Y411472D01*
X501253Y423369D01*
X516395Y438511D01*
X528292Y456317D01*
X536487Y476101D01*
X540665Y497104D01*
X540665Y518519D01*
X577241Y518519D01*
X577241Y497104D01*
X581419Y476101D01*
X589613Y456317D01*
X601511Y438511D01*
X616653Y423369D01*
X634458Y411472D01*
X654243Y403277D01*
X675246Y399099D01*
X696660Y399099D01*
X717663Y403277D01*
X737447Y411472D01*
X755253Y423369D01*
X770395Y438511D01*
X782292Y456317D01*
X790487Y476101D01*
X794665Y497104D01*
X794665Y518519D01*
X790487Y539522D01*
X782292Y559306D01*
X770395Y577111D01*
X755253Y592254D01*
X737447Y604151D01*
X717663Y612346D01*
X696660Y616523D01*
X675246Y616523D01*
X654243Y612346D01*
X634458Y604151D01*
X616653Y592254D01*
X601511Y577111D01*
X589613Y559306D01*
X581419Y539522D01*
X577241Y518519D01*
X540665Y518519D01*
X536487Y539522D01*
X528292Y559306D01*
X516395Y577111D01*
X501253Y592254D01*
X483447Y604151D01*
X463663Y612346D01*
X442660Y616523D01*
X421245Y616523D01*
X400243Y612346D01*
X380458Y604151D01*
X362653Y592254D01*
X347511Y577111D01*
X335613Y559306D01*
X327419Y539522D01*
X323241Y518519D01*
X286822Y518519D01*
X286822Y584011D01*
X286194Y590385D01*
X284335Y596513D01*
X281316Y602162D01*
X277253Y607112D01*
X272303Y611175D01*
X266655Y614194D01*
X260526Y616053D01*
X254153Y616681D01*
X101753Y616681D01*
X95379Y616053D01*
X89251Y614194D01*
X83603Y611175D01*
X78652Y607112D01*
X74589Y602162D01*
X71570Y596513D01*
X69711Y590385D01*
X69083Y584011D01*
X69083Y550356D01*
X-26331Y550356D01*
X-26331Y583000D01*
X-26958Y589374D01*
X-28817Y595502D01*
X-31836Y601150D01*
X-35899Y606101D01*
X-40850Y610164D01*
X-46498Y613183D01*
X-52626Y615042D01*
X-59000Y615669D01*
X-174000Y615669D01*
X-180340Y615048D01*
X-186470Y613196D01*
X-189000Y611847D01*
X-191498Y613183D01*
X-197626Y615042D01*
X-204000Y615669D01*
X-304000Y615669D01*
X-310374Y615042D01*
X-316502Y613183D01*
X-322150Y610164D01*
X-327101Y606101D01*
X-331164Y601150D01*
X-334183Y595502D01*
X-336042Y589374D01*
X-336669Y583000D01*
X-336669Y550545D01*
X-391611Y550545D01*
X-393700Y550751D01*
X-395789Y550545D01*
X-395790Y550545D01*
X-402040Y549929D01*
X-410060Y547497D01*
X-410413Y547308D01*
X-417451Y543546D01*
X-418260Y542882D01*
X-423929Y538229D01*
X-425261Y536607D01*
X-518291Y443577D01*
X-520700Y443814D01*
X-523770Y443512D01*
X-698007Y443512D01*
X-804728Y550233D01*
X-806503Y552397D01*
X-808667Y554172D01*
X-808868Y554374D01*
X-816002Y560228D01*
X-826862Y566033D01*
X-838645Y569607D01*
X-850900Y570814D01*
X-854254Y570484D01*
X-984110Y570484D01*
X-984110Y584200D01*
X-984737Y590574D01*
X-986596Y596702D01*
X-989615Y602350D01*
X-993678Y607301D01*
X-998629Y611364D01*
X-1004277Y614383D01*
X-1010405Y616242D01*
X-1016779Y616869D01*
X-1169179Y616869D01*
X-1175553Y616242D01*
X-1181681Y614383D01*
X-1187329Y611364D01*
X-1192280Y607301D01*
X-1196343Y602350D01*
X-1199362Y596702D01*
X-1201221Y590574D01*
X-1201848Y584200D01*
X-1486535Y584200D01*
X-1486535Y619633D01*
X870028Y619633D01*
X866376Y610934D01*
G04 #@! TA.AperFunction,Conductor*
D25*
G36*
X866376Y610934D02*
G01*
X865136Y604311D01*
X877304Y582930D01*
X1086104Y582930D01*
X1086104Y584930D01*
X1112012Y584930D01*
X1112012Y582930D01*
X1114012Y582930D01*
X1114012Y557022D01*
X1112012Y557022D01*
X1112012Y431673D01*
X1211961Y431673D01*
X1238694Y436858D01*
X1263901Y447158D01*
X1286615Y462178D01*
X1305962Y481341D01*
X1321199Y503910D01*
X1331595Y528674D01*
X1331595Y-528673D01*
X1321199Y-503910D01*
X1305962Y-481341D01*
X1286615Y-462178D01*
X1263901Y-447158D01*
X1238694Y-436858D01*
X1211961Y-431673D01*
X1112012Y-431673D01*
X1112012Y-557022D01*
X1114012Y-557022D01*
X1114012Y-582930D01*
X1112012Y-582930D01*
X1112012Y-584930D01*
X1086104Y-584930D01*
X1086104Y-582930D01*
X877304Y-582930D01*
X865136Y-604311D01*
X866376Y-610934D01*
X870348Y-620395D01*
X-1486535Y-620395D01*
X-1486535Y-418465D01*
X-1271840Y-418465D01*
X-1270000Y-418646D01*
X-1262656Y-417923D01*
X-1255593Y-415781D01*
X-1249085Y-412302D01*
X-1243380Y-407620D01*
X-1238698Y-401915D01*
X-1235219Y-395407D01*
X-1233077Y-388344D01*
X-1232535Y-382840D01*
X-1232354Y-381000D01*
X-1232535Y-379160D01*
X-1232535Y9586D01*
X-1202932Y9586D01*
X-1202932Y-11828D01*
X-1198755Y-32831D01*
X-1190560Y-52615D01*
X-1178662Y-70421D01*
X-1163520Y-85563D01*
X-1145715Y-97460D01*
X-1125930Y-105655D01*
X-1104928Y-109833D01*
X-1083513Y-109833D01*
X-1062510Y-105655D01*
X-1042726Y-97460D01*
X-1024920Y-85563D01*
X-1009778Y-70421D01*
X-997881Y-52615D01*
X-989686Y-32831D01*
X-985508Y-11828D01*
X-985508Y9586D01*
X-948932Y9586D01*
X-948932Y-11828D01*
X-944754Y-32831D01*
X-936560Y-52615D01*
X-924662Y-70421D01*
X-909520Y-85563D01*
X-891715Y-97460D01*
X-871930Y-105655D01*
X-850927Y-109833D01*
X-829513Y-109833D01*
X-808510Y-105655D01*
X-788726Y-97460D01*
X-770920Y-85563D01*
X-755778Y-70421D01*
X-743881Y-52615D01*
X-735686Y-32831D01*
X-731508Y-11828D01*
X-731508Y9586D01*
X-735686Y30589D01*
X-743881Y50373D01*
X-755778Y68179D01*
X-770920Y83321D01*
X-788726Y95218D01*
X-794728Y97704D01*
X-729545Y162888D01*
X-725201Y162024D01*
X-710917Y162024D01*
X-696907Y164811D01*
X-683710Y170277D01*
X-671832Y178213D01*
X-661732Y188314D01*
X-653795Y200191D01*
X-648329Y213389D01*
X-645542Y227399D01*
X-645542Y241683D01*
X-648329Y255693D01*
X-653795Y268891D01*
X-661732Y280768D01*
X-671832Y290869D01*
X-683710Y298805D01*
X-696907Y304271D01*
X-710917Y307058D01*
X-725201Y307058D01*
X-739212Y304271D01*
X-752409Y298805D01*
X-764286Y290869D01*
X-774387Y280768D01*
X-782323Y268891D01*
X-787789Y255693D01*
X-790576Y241683D01*
X-790576Y227399D01*
X-789712Y223056D01*
X-868826Y143942D01*
X-870450Y142609D01*
X-875766Y136131D01*
X-879717Y128740D01*
X-880864Y124958D01*
X-882150Y120720D01*
X-882971Y112380D01*
X-882765Y110290D01*
X-882765Y98925D01*
X-891715Y95218D01*
X-909520Y83321D01*
X-924662Y68179D01*
X-936560Y50373D01*
X-944754Y30589D01*
X-948932Y9586D01*
X-985508Y9586D01*
X-989686Y30589D01*
X-997881Y50373D01*
X-1009778Y68179D01*
X-1024920Y83321D01*
X-1042726Y95218D01*
X-1062510Y103413D01*
X-1083513Y107591D01*
X-1104928Y107591D01*
X-1125930Y103413D01*
X-1145715Y95218D01*
X-1163520Y83321D01*
X-1178662Y68179D01*
X-1190560Y50373D01*
X-1198755Y30589D01*
X-1202932Y9586D01*
X-1232535Y9586D01*
X-1232535Y175810D01*
X-1231510Y165402D01*
X-1227893Y153480D01*
X-1222021Y142492D01*
X-1214117Y132862D01*
X-1204487Y124958D01*
X-1193499Y119086D01*
X-1181577Y115469D01*
X-1169179Y114248D01*
X-1121745Y114554D01*
X-1105933Y130365D01*
X-1105933Y241046D01*
X-1080025Y241046D01*
X-1080025Y130365D01*
X-1064214Y114554D01*
X-1016779Y114248D01*
X-1004381Y115469D01*
X-992459Y119086D01*
X-981471Y124958D01*
X-971841Y132862D01*
X-963937Y142492D01*
X-958065Y153480D01*
X-954448Y165402D01*
X-953227Y177800D01*
X-953533Y225234D01*
X-969344Y241046D01*
X-1080025Y241046D01*
X-1105933Y241046D01*
X-1216614Y241046D01*
X-1232425Y225234D01*
X-1232535Y208183D01*
X-1232535Y299817D01*
X-1232425Y282766D01*
X-1216614Y266954D01*
X-1105933Y266954D01*
X-1105933Y377634D01*
X-1080025Y377634D01*
X-1080025Y266954D01*
X-969344Y266954D01*
X-953533Y282766D01*
X-953227Y330200D01*
X-954448Y342598D01*
X-958065Y354520D01*
X-963937Y365508D01*
X-971841Y375138D01*
X-981471Y383042D01*
X-992459Y388914D01*
X-1004381Y392531D01*
X-1016779Y393752D01*
X-1064214Y393446D01*
X-1080025Y377634D01*
X-1105933Y377634D01*
X-1121745Y393446D01*
X-1169179Y393752D01*
X-1181577Y392531D01*
X-1193499Y388914D01*
X-1204487Y383042D01*
X-1214117Y375138D01*
X-1222021Y365508D01*
X-1227893Y354520D01*
X-1231510Y342598D01*
X-1232535Y332190D01*
X-1232535Y379160D01*
X-1232354Y381000D01*
X-1233077Y388344D01*
X-1235219Y395407D01*
X-1238698Y401915D01*
X-1243380Y407620D01*
X-1249085Y412302D01*
X-1255593Y415781D01*
X-1262656Y417923D01*
X-1268160Y418465D01*
X-1268160Y418465D01*
X-1270000Y418646D01*
X-1271840Y418465D01*
X-1486535Y418465D01*
X-1486535Y584200D01*
X-1201848Y584200D01*
X-1201848Y431800D01*
X-1201221Y425426D01*
X-1199362Y419298D01*
X-1196343Y413650D01*
X-1192280Y408699D01*
X-1187329Y404636D01*
X-1181681Y401617D01*
X-1175553Y399758D01*
X-1169179Y399131D01*
X-1016779Y399131D01*
X-1010405Y399758D01*
X-1004277Y401617D01*
X-998629Y404636D01*
X-993678Y408699D01*
X-989615Y413650D01*
X-986596Y419298D01*
X-984737Y425426D01*
X-984110Y431800D01*
X-984110Y445516D01*
X-876821Y445516D01*
X-770273Y338968D01*
X-768316Y336584D01*
X-758798Y328772D01*
X-747938Y322967D01*
X-742137Y321207D01*
X-736155Y319393D01*
X-723900Y318186D01*
X-720830Y318488D01*
X-546593Y318488D01*
X-522224Y294119D01*
X-522224Y294111D01*
X-522224Y294110D01*
X-522224Y60210D01*
X-529487Y58007D01*
X-540342Y52205D01*
X-547473Y46353D01*
X-549857Y44397D01*
X-551813Y42013D01*
X-656693Y-62867D01*
X-659077Y-64823D01*
X-661033Y-67207D01*
X-661033Y-67208D01*
X-666885Y-74338D01*
X-672687Y-85193D01*
X-674303Y-90519D01*
X-675752Y-95298D01*
X-676260Y-96971D01*
X-677466Y-109220D01*
X-677164Y-112289D01*
X-677164Y-166187D01*
X-678944Y-168850D01*
X-684410Y-182048D01*
X-687197Y-196058D01*
X-687197Y-210342D01*
X-684410Y-224352D01*
X-678944Y-237550D01*
X-677164Y-240213D01*
X-677164Y-253472D01*
X-677466Y-256540D01*
X-677164Y-259608D01*
X-677164Y-259609D01*
X-676260Y-268789D01*
X-673273Y-278635D01*
X-672687Y-280567D01*
X-666885Y-291422D01*
X-664927Y-293808D01*
X-659077Y-300937D01*
X-656692Y-302894D01*
X-536573Y-423012D01*
X-534617Y-425397D01*
X-532233Y-427353D01*
X-532233Y-427353D01*
X-525102Y-433205D01*
X-521321Y-435226D01*
X-514247Y-439007D01*
X-502469Y-442580D01*
X-493289Y-443484D01*
X-493288Y-443484D01*
X-490220Y-443786D01*
X-487152Y-443484D01*
X215283Y-443484D01*
X250869Y-474622D01*
X255776Y-486470D01*
X263712Y-498347D01*
X273813Y-508448D01*
X285690Y-516384D01*
X298888Y-521850D01*
X312898Y-524637D01*
X327182Y-524637D01*
X341192Y-521850D01*
X354390Y-516384D01*
X366267Y-508448D01*
X376368Y-498347D01*
X384304Y-486470D01*
X389770Y-473272D01*
X392557Y-459262D01*
X392557Y-446412D01*
X810920Y-446412D01*
X817622Y-470293D01*
X842460Y-481907D01*
X869085Y-488452D01*
X886818Y-489245D01*
X876917Y-503910D01*
X866376Y-529018D01*
X865136Y-535641D01*
X877304Y-557022D01*
X1086104Y-557022D01*
X1086104Y-431673D01*
X988981Y-431673D01*
X985400Y-428092D01*
X1009281Y-421389D01*
X1020895Y-396552D01*
X1027440Y-369926D01*
X1028665Y-342536D01*
X1024523Y-315432D01*
X1015173Y-289657D01*
X1009281Y-278635D01*
X985400Y-271932D01*
X907320Y-350012D01*
X908734Y-351426D01*
X890414Y-369746D01*
X889000Y-368332D01*
X810920Y-446412D01*
X392557Y-446412D01*
X392557Y-444978D01*
X389770Y-430968D01*
X384304Y-417770D01*
X376368Y-405893D01*
X366267Y-395792D01*
X354390Y-387856D01*
X341192Y-382390D01*
X333484Y-380856D01*
X283788Y-337373D01*
X283157Y-336603D01*
X279163Y-333326D01*
X277596Y-331955D01*
X276791Y-331380D01*
X273642Y-328795D01*
X271796Y-327808D01*
X270092Y-326590D01*
X266380Y-324914D01*
X262787Y-322993D01*
X260783Y-322385D01*
X258875Y-321523D01*
X254908Y-320603D01*
X251009Y-319420D01*
X248925Y-319215D01*
X246886Y-318742D01*
X242815Y-318613D01*
X241829Y-318516D01*
X239745Y-318516D01*
X234584Y-318353D01*
X233602Y-318516D01*
X-464338Y-318516D01*
X-548919Y-233935D01*
X-544950Y-224352D01*
X-542163Y-210342D01*
X-542163Y-196058D01*
X-544950Y-182048D01*
X-550416Y-168850D01*
X-552196Y-166187D01*
X-552196Y-135102D01*
X-479578Y-62484D01*
X-463700Y-62484D01*
X-463041Y-62601D01*
X-457556Y-62484D01*
X-431329Y-62484D01*
X-429516Y-66862D01*
X-421580Y-78739D01*
X-411479Y-88840D01*
X-399602Y-96776D01*
X-386404Y-102242D01*
X-372394Y-105029D01*
X-358110Y-105029D01*
X-344100Y-102242D01*
X-330902Y-96776D01*
X-319025Y-88840D01*
X-308924Y-78739D01*
X-300988Y-66862D01*
X-295522Y-53664D01*
X-292735Y-39654D01*
X-292735Y-25370D01*
X-295522Y-11360D01*
X-300988Y1838D01*
X-308924Y13715D01*
X-319025Y23816D01*
X-330902Y31752D01*
X-344100Y37218D01*
X-347242Y37843D01*
X-351410Y42012D01*
X-353367Y44397D01*
X-362882Y52205D01*
X-373737Y58007D01*
X-385515Y61580D01*
X-394695Y62484D01*
X-394696Y62484D01*
X-397256Y62736D01*
X-397256Y257556D01*
X-317363Y257556D01*
X-304363Y252171D01*
X-290353Y249384D01*
X-276068Y249384D01*
X-262058Y252171D01*
X-249058Y257556D01*
X260167Y257556D01*
X262830Y255776D01*
X276028Y250310D01*
X280904Y249340D01*
X384556Y150958D01*
X384556Y-264730D01*
X380552Y-268733D01*
X372616Y-280610D01*
X367150Y-293808D01*
X364363Y-307818D01*
X364363Y-322102D01*
X367150Y-336112D01*
X372616Y-349310D01*
X380552Y-361187D01*
X390653Y-371288D01*
X402530Y-379224D01*
X415728Y-384690D01*
X429738Y-387477D01*
X444022Y-387477D01*
X458032Y-384690D01*
X471230Y-379224D01*
X483107Y-371288D01*
X493208Y-361187D01*
X495679Y-357488D01*
X749334Y-357488D01*
X753477Y-384592D01*
X762827Y-410367D01*
X768719Y-421389D01*
X792600Y-428092D01*
X870680Y-350012D01*
X792600Y-271932D01*
X768719Y-278635D01*
X757105Y-303472D01*
X750559Y-330098D01*
X749334Y-357488D01*
X495679Y-357488D01*
X501144Y-349310D01*
X506610Y-336112D01*
X509397Y-322102D01*
X509397Y-315390D01*
X509440Y-313799D01*
X509524Y-312949D01*
X509524Y-310727D01*
X509668Y-305429D01*
X509524Y-304584D01*
X509524Y-253612D01*
X810920Y-253612D01*
X889000Y-331692D01*
X967080Y-253612D01*
X960377Y-229731D01*
X935540Y-218117D01*
X928661Y-216426D01*
X1011555Y-216426D01*
X1011555Y-233662D01*
X1014918Y-250568D01*
X1021514Y-266492D01*
X1031090Y-280824D01*
X1043278Y-293012D01*
X1057610Y-302588D01*
X1073534Y-309184D01*
X1090440Y-312547D01*
X1107676Y-312547D01*
X1124582Y-309184D01*
X1140506Y-302588D01*
X1154838Y-293012D01*
X1167026Y-280824D01*
X1176602Y-266492D01*
X1183198Y-250568D01*
X1186561Y-233662D01*
X1186561Y-216426D01*
X1183198Y-199520D01*
X1176602Y-183596D01*
X1167026Y-169264D01*
X1154838Y-157076D01*
X1140506Y-147500D01*
X1124582Y-140904D01*
X1107676Y-137541D01*
X1090440Y-137541D01*
X1073534Y-140904D01*
X1057610Y-147500D01*
X1043278Y-157076D01*
X1031090Y-169264D01*
X1021514Y-183596D01*
X1014918Y-199520D01*
X1011555Y-216426D01*
X928661Y-216426D01*
X908914Y-211571D01*
X881523Y-210346D01*
X854420Y-214489D01*
X828645Y-223839D01*
X817622Y-229731D01*
X810920Y-253612D01*
X509524Y-253612D01*
X509524Y110170D01*
X786511Y110170D01*
X786511Y89982D01*
X790450Y70181D01*
X798175Y51529D01*
X809392Y34743D01*
X823667Y20468D01*
X840453Y9251D01*
X859105Y1526D01*
X866775Y0D01*
X859105Y-1526D01*
X840453Y-9251D01*
X823667Y-20468D01*
X809392Y-34743D01*
X798175Y-51529D01*
X790450Y-70181D01*
X786511Y-89982D01*
X786511Y-110170D01*
X790450Y-129971D01*
X798175Y-148623D01*
X809392Y-165409D01*
X823667Y-179684D01*
X840453Y-190901D01*
X859105Y-198626D01*
X878906Y-202565D01*
X899094Y-202565D01*
X918895Y-198626D01*
X937547Y-190901D01*
X954333Y-179684D01*
X968608Y-165409D01*
X979825Y-148623D01*
X987550Y-129971D01*
X991489Y-110170D01*
X991489Y-89982D01*
X987550Y-70181D01*
X979825Y-51529D01*
X968608Y-34743D01*
X954333Y-20468D01*
X937547Y-9251D01*
X918895Y-1526D01*
X911225Y0D01*
X918895Y1526D01*
X937547Y9251D01*
X954333Y20468D01*
X968608Y34743D01*
X979825Y51529D01*
X987550Y70181D01*
X991489Y89982D01*
X991489Y110170D01*
X987550Y129971D01*
X979825Y148623D01*
X968608Y165409D01*
X954333Y179684D01*
X937547Y190901D01*
X918895Y198626D01*
X899094Y202565D01*
X878906Y202565D01*
X859105Y198626D01*
X840453Y190901D01*
X823667Y179684D01*
X809392Y165409D01*
X798175Y148623D01*
X790450Y129971D01*
X786511Y110170D01*
X509524Y110170D01*
X509524Y175548D01*
X509805Y179437D01*
X509143Y184734D01*
X508620Y190049D01*
X508381Y190835D01*
X508279Y191651D01*
X506597Y196717D01*
X505047Y201827D01*
X504660Y202552D01*
X504401Y203332D01*
X501761Y207974D01*
X499245Y212682D01*
X498724Y213317D01*
X498317Y214032D01*
X494822Y218071D01*
X491437Y222197D01*
X488422Y224671D01*
X478949Y233662D01*
X1011555Y233662D01*
X1011555Y216426D01*
X1014918Y199520D01*
X1021514Y183596D01*
X1031090Y169264D01*
X1043278Y157076D01*
X1057610Y147500D01*
X1073534Y140904D01*
X1090440Y137541D01*
X1107676Y137541D01*
X1124582Y140904D01*
X1140506Y147500D01*
X1154838Y157076D01*
X1167026Y169264D01*
X1176602Y183596D01*
X1183198Y199520D01*
X1186561Y216426D01*
X1186561Y233662D01*
X1183198Y250568D01*
X1176602Y266492D01*
X1167026Y280824D01*
X1154838Y293012D01*
X1140506Y302588D01*
X1124582Y309184D01*
X1107676Y312547D01*
X1090440Y312547D01*
X1073534Y309184D01*
X1057610Y302588D01*
X1043278Y293012D01*
X1031090Y280824D01*
X1021514Y266492D01*
X1014918Y250568D01*
X1011555Y233662D01*
X478949Y233662D01*
X367202Y339727D01*
X366910Y341192D01*
X361444Y354390D01*
X357231Y360694D01*
X780542Y360694D01*
X780542Y339330D01*
X784710Y318376D01*
X792886Y298638D01*
X804755Y280874D01*
X819862Y265767D01*
X837626Y253898D01*
X857364Y245722D01*
X878318Y241554D01*
X899682Y241554D01*
X920636Y245722D01*
X940374Y253898D01*
X958138Y265767D01*
X973245Y280874D01*
X985114Y298638D01*
X993290Y318376D01*
X997458Y339330D01*
X997458Y360694D01*
X993290Y381648D01*
X985114Y401386D01*
X973245Y419150D01*
X958138Y434257D01*
X946095Y442303D01*
X959422Y436858D01*
X986155Y431673D01*
X1086104Y431673D01*
X1086104Y557022D01*
X877304Y557022D01*
X865136Y535641D01*
X866376Y529018D01*
X876917Y503910D01*
X892154Y481341D01*
X911501Y462178D01*
X928065Y451225D01*
X920636Y454302D01*
X899682Y458470D01*
X878318Y458470D01*
X857364Y454302D01*
X837626Y446126D01*
X819862Y434257D01*
X804755Y419150D01*
X792886Y401386D01*
X784710Y381648D01*
X780542Y360694D01*
X357231Y360694D01*
X353508Y366267D01*
X343407Y376368D01*
X331530Y384304D01*
X318332Y389770D01*
X304322Y392557D01*
X290038Y392557D01*
X276028Y389770D01*
X262830Y384304D01*
X260167Y382524D01*
X-243411Y382524D01*
X-248861Y386165D01*
X-262058Y391632D01*
X-276068Y394418D01*
X-290353Y394418D01*
X-304363Y391632D01*
X-317560Y386165D01*
X-323010Y382524D01*
X-433819Y382524D01*
X-446413Y395119D01*
X-376077Y465455D01*
X-336669Y465455D01*
X-336669Y433000D01*
X-336042Y426626D01*
X-334183Y420498D01*
X-331164Y414850D01*
X-327101Y409899D01*
X-322150Y405836D01*
X-316502Y402817D01*
X-310374Y400958D01*
X-304000Y400331D01*
X-204000Y400331D01*
X-197593Y400965D01*
X-191466Y402831D01*
X-189000Y404152D01*
X-186502Y402817D01*
X-180373Y400958D01*
X-174000Y400331D01*
X-59000Y400331D01*
X-52626Y400958D01*
X-46498Y402817D01*
X-40850Y405836D01*
X-35899Y409899D01*
X-31836Y414850D01*
X-28817Y420498D01*
X-26958Y426626D01*
X-26331Y433000D01*
X-26331Y465266D01*
X69083Y465266D01*
X69083Y431611D01*
X69711Y425238D01*
X71570Y419109D01*
X74589Y413461D01*
X78652Y408511D01*
X83603Y404448D01*
X89251Y401429D01*
X95379Y399570D01*
X101753Y398942D01*
X254153Y398942D01*
X260526Y399570D01*
X266655Y401429D01*
X272303Y404448D01*
X277253Y408511D01*
X281316Y413461D01*
X284335Y419109D01*
X286194Y425238D01*
X286822Y431611D01*
X286822Y518519D01*
X323241Y518519D01*
X323241Y497104D01*
X327419Y476101D01*
X335613Y456317D01*
X347511Y438511D01*
X362653Y423369D01*
X380458Y411472D01*
X400243Y403277D01*
X421245Y399099D01*
X442660Y399099D01*
X463663Y403277D01*
X483447Y411472D01*
X501253Y423369D01*
X516395Y438511D01*
X528292Y456317D01*
X536487Y476101D01*
X540665Y497104D01*
X540665Y518519D01*
X577241Y518519D01*
X577241Y497104D01*
X581419Y476101D01*
X589613Y456317D01*
X601511Y438511D01*
X616653Y423369D01*
X634458Y411472D01*
X654243Y403277D01*
X675246Y399099D01*
X696660Y399099D01*
X717663Y403277D01*
X737447Y411472D01*
X755253Y423369D01*
X770395Y438511D01*
X782292Y456317D01*
X790487Y476101D01*
X794665Y497104D01*
X794665Y518519D01*
X790487Y539522D01*
X782292Y559306D01*
X770395Y577111D01*
X755253Y592254D01*
X737447Y604151D01*
X717663Y612346D01*
X696660Y616523D01*
X675246Y616523D01*
X654243Y612346D01*
X634458Y604151D01*
X616653Y592254D01*
X601511Y577111D01*
X589613Y559306D01*
X581419Y539522D01*
X577241Y518519D01*
X540665Y518519D01*
X536487Y539522D01*
X528292Y559306D01*
X516395Y577111D01*
X501253Y592254D01*
X483447Y604151D01*
X463663Y612346D01*
X442660Y616523D01*
X421245Y616523D01*
X400243Y612346D01*
X380458Y604151D01*
X362653Y592254D01*
X347511Y577111D01*
X335613Y559306D01*
X327419Y539522D01*
X323241Y518519D01*
X286822Y518519D01*
X286822Y584011D01*
X286194Y590385D01*
X284335Y596513D01*
X281316Y602162D01*
X277253Y607112D01*
X272303Y611175D01*
X266655Y614194D01*
X260526Y616053D01*
X254153Y616681D01*
X101753Y616681D01*
X95379Y616053D01*
X89251Y614194D01*
X83603Y611175D01*
X78652Y607112D01*
X74589Y602162D01*
X71570Y596513D01*
X69711Y590385D01*
X69083Y584011D01*
X69083Y550356D01*
X-26331Y550356D01*
X-26331Y583000D01*
X-26958Y589374D01*
X-28817Y595502D01*
X-31836Y601150D01*
X-35899Y606101D01*
X-40850Y610164D01*
X-46498Y613183D01*
X-52626Y615042D01*
X-59000Y615669D01*
X-174000Y615669D01*
X-180340Y615048D01*
X-186470Y613196D01*
X-189000Y611847D01*
X-191498Y613183D01*
X-197626Y615042D01*
X-204000Y615669D01*
X-304000Y615669D01*
X-310374Y615042D01*
X-316502Y613183D01*
X-322150Y610164D01*
X-327101Y606101D01*
X-331164Y601150D01*
X-334183Y595502D01*
X-336042Y589374D01*
X-336669Y583000D01*
X-336669Y550545D01*
X-391611Y550545D01*
X-393700Y550751D01*
X-395789Y550545D01*
X-395790Y550545D01*
X-402040Y549929D01*
X-410060Y547497D01*
X-410413Y547308D01*
X-417451Y543546D01*
X-418260Y542882D01*
X-423929Y538229D01*
X-425261Y536607D01*
X-518291Y443577D01*
X-520700Y443814D01*
X-523770Y443512D01*
X-698007Y443512D01*
X-804728Y550233D01*
X-806503Y552397D01*
X-808667Y554172D01*
X-808868Y554374D01*
X-816002Y560228D01*
X-826862Y566033D01*
X-838645Y569607D01*
X-850900Y570814D01*
X-854254Y570484D01*
X-984110Y570484D01*
X-984110Y584200D01*
X-984737Y590574D01*
X-986596Y596702D01*
X-989615Y602350D01*
X-993678Y607301D01*
X-998629Y611364D01*
X-1004277Y614383D01*
X-1010405Y616242D01*
X-1016779Y616869D01*
X-1169179Y616869D01*
X-1175553Y616242D01*
X-1181681Y614383D01*
X-1187329Y611364D01*
X-1192280Y607301D01*
X-1196343Y602350D01*
X-1199362Y596702D01*
X-1201221Y590574D01*
X-1201848Y584200D01*
X-1486535Y584200D01*
X-1486535Y619633D01*
X870028Y619633D01*
X866376Y610934D01*
G37*
G04 #@! TD.AperFunction*
G04 #@! TD*
M02*
