G04 #@! TF.GenerationSoftware,KiCad,Pcbnew,5.0.0-rc3+dfsg1-2*
G04 #@! TF.CreationDate,2018-08-10T14:32:52+09:00*
G04 #@! TF.ProjectId,fst-01,6673742D30312E6B696361645F706362,rev?*
G04 #@! TF.SameCoordinates,Original*
G04 #@! TF.FileFunction,Legend,Top*
G04 #@! TF.FilePolarity,Positive*
%FSLAX46Y46*%
G04 Gerber Fmt 4.6, Leading zero omitted, Abs format (unit mm)*
G04 Created by KiCad (PCBNEW 5.0.0-rc3+dfsg1-2) date Fri Aug 10 14:32:52 2018*
%MOMM*%
%LPD*%
G01*
G04 APERTURE LIST*
%ADD10C,0.150000*%
%ADD11C,0.152400*%
%ADD12C,0.254000*%
%ADD13C,0.120000*%
%ADD14C,0.200000*%
%ADD15C,0.300000*%
%ADD16C,0.149860*%
G04 APERTURE END LIST*
D10*
G04 #@! TO.C,D1*
X109125160Y-99275860D02*
X109125160Y-102024140D01*
X110374840Y-99275860D02*
X109125160Y-99275860D01*
X110374840Y-102024140D02*
X110374840Y-99275860D01*
X109125160Y-102024140D02*
X110374840Y-102024140D01*
X109750000Y-100810000D02*
X109150000Y-100110000D01*
X110350000Y-100110000D02*
X109750000Y-100810000D01*
G04 #@! TO.C,X1*
X123130000Y-104000000D02*
X123130000Y-100000000D01*
X123130000Y-100000000D02*
X126470000Y-100000000D01*
X126470000Y-100000000D02*
X126470000Y-104000000D01*
X126470000Y-104000000D02*
X123130000Y-104000000D01*
G04 #@! TO.C,K1*
X111633000Y-102539800D02*
X111633000Y-103809800D01*
D11*
X110363000Y-103809800D02*
X110363000Y-102539800D01*
X110363000Y-102539800D02*
X116713000Y-102539800D01*
X116725700Y-102539800D02*
X116725700Y-103809800D01*
X116713000Y-103809800D02*
X110363000Y-103809800D01*
D12*
G04 #@! TO.C,J1*
X127000000Y-100696500D02*
X127000000Y-101896500D01*
X127000000Y-97396500D02*
X127000000Y-96196500D01*
D13*
G04 #@! TO.C,U2*
X126269600Y-98058100D02*
X126269600Y-97208100D01*
X126269600Y-95058100D02*
X126269600Y-95908100D01*
D14*
X124969600Y-95558100D02*
G75*
G03X124969600Y-95558100I-200000J0D01*
G01*
D10*
G04 #@! TO.C,U1*
X120700000Y-101900000D02*
X114900000Y-101900000D01*
X114900000Y-95100000D02*
X121700000Y-95100000D01*
X114900000Y-101900000D02*
X114900000Y-95100000D01*
X121700000Y-100900000D02*
X121700000Y-95100000D01*
X120700000Y-101900000D02*
X121700000Y-100900000D01*
D15*
X122080000Y-100500000D02*
G75*
G03X122080000Y-100500000I-180000J0D01*
G01*
D10*
G04 #@! TO.C,U3*
X111900000Y-95660000D02*
X111900000Y-97860000D01*
X114100000Y-95660000D02*
X114100000Y-97860000D01*
D15*
X111830000Y-97260000D02*
G75*
G03X111830000Y-97260000I-180000J0D01*
G01*
D10*
X111900000Y-95660000D02*
X114100000Y-95660000D01*
X114100000Y-97860000D02*
X111900000Y-97860000D01*
G04 #@! TO.C,U4*
X109050000Y-98930000D02*
X109050000Y-96930000D01*
X110450000Y-98930000D02*
X109050000Y-98930000D01*
X110450000Y-96930000D02*
X110450000Y-98930000D01*
X109050000Y-96930000D02*
X110450000Y-96930000D01*
D15*
X109150000Y-97130000D02*
G75*
G03X109150000Y-97130000I-100000J0D01*
G01*
D16*
G04 #@! TO.C,R1*
X111824040Y-102026020D02*
X110675960Y-102026020D01*
X110675960Y-102026020D02*
X110675960Y-99673980D01*
X110675960Y-99673980D02*
X111824040Y-99673980D01*
X111824040Y-99673980D02*
X111824040Y-102026020D01*
G04 #@! TO.C,C9*
X123500460Y-93376100D02*
X126324940Y-93376100D01*
X123500460Y-94823900D02*
X123500460Y-93376100D01*
X126324940Y-94823900D02*
X123500460Y-94823900D01*
X126324940Y-93376100D02*
X126324940Y-94823900D01*
G04 #@! TO.C,C2*
X125526020Y-98725960D02*
X125526020Y-99874040D01*
X123173980Y-98725960D02*
X125526020Y-98725960D01*
X123173980Y-99874040D02*
X123173980Y-98725960D01*
X125526020Y-99874040D02*
X123173980Y-99874040D01*
G04 #@! TO.C,C1*
X122025960Y-96359980D02*
X123174040Y-96359980D01*
X122025960Y-98712020D02*
X122025960Y-96359980D01*
X123174040Y-98712020D02*
X122025960Y-98712020D01*
X123174040Y-96359980D02*
X123174040Y-98712020D01*
G04 #@! TO.C,C4*
X121876020Y-102175960D02*
X121876020Y-103324040D01*
X119523980Y-102175960D02*
X121876020Y-102175960D01*
X119523980Y-103324040D02*
X119523980Y-102175960D01*
X121876020Y-103324040D02*
X119523980Y-103324040D01*
G04 #@! TO.C,C7*
X114823980Y-94774040D02*
X114823980Y-93625960D01*
X117176020Y-94774040D02*
X114823980Y-94774040D01*
X117176020Y-93625960D02*
X117176020Y-94774040D01*
X114823980Y-93625960D02*
X117176020Y-93625960D01*
G04 #@! TO.C,C6*
X114574040Y-101950520D02*
X113425960Y-101950520D01*
X114574040Y-99598480D02*
X114574040Y-101950520D01*
X113425960Y-99598480D02*
X114574040Y-99598480D01*
X113425960Y-101950520D02*
X113425960Y-99598480D01*
G04 #@! TO.C,C3*
X123024040Y-103976020D02*
X121875960Y-103976020D01*
X123024040Y-101623980D02*
X123024040Y-103976020D01*
X121875960Y-101623980D02*
X123024040Y-101623980D01*
X121875960Y-103976020D02*
X121875960Y-101623980D01*
G04 #@! TO.C,C5*
X119476020Y-102175960D02*
X119476020Y-103324040D01*
X117123980Y-102175960D02*
X119476020Y-102175960D01*
X117123980Y-103324040D02*
X117123980Y-102175960D01*
X119476020Y-103324040D02*
X117123980Y-103324040D01*
G04 #@! TO.C,C8*
X123473900Y-93520460D02*
X123473900Y-96344940D01*
X122026100Y-93520460D02*
X123473900Y-93520460D01*
X122026100Y-96344940D02*
X122026100Y-93520460D01*
X123473900Y-96344940D02*
X122026100Y-96344940D01*
G04 #@! TO.C,D1*
D10*
X108957342Y-102912828D02*
X108957342Y-102312828D01*
X109100200Y-102312828D01*
X109185914Y-102341400D01*
X109243057Y-102398542D01*
X109271628Y-102455685D01*
X109300200Y-102569971D01*
X109300200Y-102655685D01*
X109271628Y-102769971D01*
X109243057Y-102827114D01*
X109185914Y-102884257D01*
X109100200Y-102912828D01*
X108957342Y-102912828D01*
X109871628Y-102912828D02*
X109528771Y-102912828D01*
X109700200Y-102912828D02*
X109700200Y-102312828D01*
X109643057Y-102398542D01*
X109585914Y-102455685D01*
X109528771Y-102484257D01*
G04 #@! TO.C,X1*
X125614285Y-104271428D02*
X126014285Y-104871428D01*
X126014285Y-104271428D02*
X125614285Y-104871428D01*
X126557142Y-104871428D02*
X126214285Y-104871428D01*
X126385714Y-104871428D02*
X126385714Y-104271428D01*
X126328571Y-104357142D01*
X126271428Y-104414285D01*
X126214285Y-104442857D01*
G04 #@! TO.C,K1*
D16*
X110415856Y-104665175D02*
X110415856Y-104065735D01*
X110758393Y-104665175D02*
X110501490Y-104322638D01*
X110758393Y-104065735D02*
X110415856Y-104408272D01*
X111329288Y-104665175D02*
X110986751Y-104665175D01*
X111158020Y-104665175D02*
X111158020Y-104065735D01*
X111100930Y-104151369D01*
X111043840Y-104208459D01*
X110986751Y-104237003D01*
G04 #@! TO.C,U2*
D10*
X127825576Y-96310504D02*
X127825576Y-96958123D01*
X127863671Y-97034314D01*
X127901766Y-97072409D01*
X127977957Y-97110504D01*
X128130338Y-97110504D01*
X128206528Y-97072409D01*
X128244623Y-97034314D01*
X128282719Y-96958123D01*
X128282719Y-96310504D01*
X128625576Y-96386695D02*
X128663671Y-96348600D01*
X128739861Y-96310504D01*
X128930338Y-96310504D01*
X129006528Y-96348600D01*
X129044623Y-96386695D01*
X129082719Y-96462885D01*
X129082719Y-96539076D01*
X129044623Y-96653361D01*
X128587480Y-97110504D01*
X129082719Y-97110504D01*
G04 #@! TO.C,U1*
D11*
X117495172Y-94089419D02*
X117495172Y-94737119D01*
X117533272Y-94813319D01*
X117571372Y-94851419D01*
X117647572Y-94889519D01*
X117799972Y-94889519D01*
X117876172Y-94851419D01*
X117914272Y-94813319D01*
X117952372Y-94737119D01*
X117952372Y-94089419D01*
X118752472Y-94889519D02*
X118295272Y-94889519D01*
X118523872Y-94889519D02*
X118523872Y-94089419D01*
X118447672Y-94203719D01*
X118371472Y-94279919D01*
X118295272Y-94318019D01*
G04 #@! TO.C,U3*
X112395000Y-94443550D02*
X112395000Y-95091250D01*
X112433100Y-95167450D01*
X112471200Y-95205550D01*
X112547400Y-95243650D01*
X112699800Y-95243650D01*
X112776000Y-95205550D01*
X112814100Y-95167450D01*
X112852200Y-95091250D01*
X112852200Y-94443550D01*
X113157000Y-94443550D02*
X113652300Y-94443550D01*
X113385600Y-94748350D01*
X113499900Y-94748350D01*
X113576100Y-94786450D01*
X113614200Y-94824550D01*
X113652300Y-94900750D01*
X113652300Y-95091250D01*
X113614200Y-95167450D01*
X113576100Y-95205550D01*
X113499900Y-95243650D01*
X113271300Y-95243650D01*
X113195100Y-95205550D01*
X113157000Y-95167450D01*
G04 #@! TO.C,U4*
D10*
X110651776Y-98139604D02*
X110651776Y-98787223D01*
X110689871Y-98863414D01*
X110727966Y-98901509D01*
X110804157Y-98939604D01*
X110956538Y-98939604D01*
X111032728Y-98901509D01*
X111070823Y-98863414D01*
X111108919Y-98787223D01*
X111108919Y-98139604D01*
X111832728Y-98406271D02*
X111832728Y-98939604D01*
X111642252Y-98101509D02*
X111451776Y-98672938D01*
X111947014Y-98672938D01*
G04 #@! TO.C,R1*
X112408500Y-101998428D02*
X112208500Y-101712714D01*
X112065642Y-101998428D02*
X112065642Y-101398428D01*
X112294214Y-101398428D01*
X112351357Y-101427000D01*
X112379928Y-101455571D01*
X112408500Y-101512714D01*
X112408500Y-101598428D01*
X112379928Y-101655571D01*
X112351357Y-101684142D01*
X112294214Y-101712714D01*
X112065642Y-101712714D01*
X112979928Y-101998428D02*
X112637071Y-101998428D01*
X112808500Y-101998428D02*
X112808500Y-101398428D01*
X112751357Y-101484142D01*
X112694214Y-101541285D01*
X112637071Y-101569857D01*
G04 #@! TO.C,C9*
D16*
X126976293Y-94196485D02*
X126947748Y-94225030D01*
X126862114Y-94253575D01*
X126805024Y-94253575D01*
X126719390Y-94225030D01*
X126662300Y-94167940D01*
X126633756Y-94110851D01*
X126605211Y-93996672D01*
X126605211Y-93911038D01*
X126633756Y-93796859D01*
X126662300Y-93739769D01*
X126719390Y-93682680D01*
X126805024Y-93654135D01*
X126862114Y-93654135D01*
X126947748Y-93682680D01*
X126976293Y-93711224D01*
X127261740Y-94253575D02*
X127375920Y-94253575D01*
X127433009Y-94225030D01*
X127461554Y-94196485D01*
X127518643Y-94110851D01*
X127547188Y-93996672D01*
X127547188Y-93768314D01*
X127518643Y-93711224D01*
X127490099Y-93682680D01*
X127433009Y-93654135D01*
X127318830Y-93654135D01*
X127261740Y-93682680D01*
X127233196Y-93711224D01*
X127204651Y-93768314D01*
X127204651Y-93911038D01*
X127233196Y-93968127D01*
X127261740Y-93996672D01*
X127318830Y-94025217D01*
X127433009Y-94025217D01*
X127490099Y-93996672D01*
X127518643Y-93968127D01*
X127547188Y-93911038D01*
G04 #@! TO.C,C2*
X126049193Y-99731285D02*
X126020648Y-99759830D01*
X125935014Y-99788375D01*
X125877924Y-99788375D01*
X125792290Y-99759830D01*
X125735200Y-99702740D01*
X125706656Y-99645651D01*
X125678111Y-99531472D01*
X125678111Y-99445838D01*
X125706656Y-99331659D01*
X125735200Y-99274569D01*
X125792290Y-99217480D01*
X125877924Y-99188935D01*
X125935014Y-99188935D01*
X126020648Y-99217480D01*
X126049193Y-99246024D01*
X126277551Y-99246024D02*
X126306096Y-99217480D01*
X126363185Y-99188935D01*
X126505909Y-99188935D01*
X126562999Y-99217480D01*
X126591543Y-99246024D01*
X126620088Y-99303114D01*
X126620088Y-99360203D01*
X126591543Y-99445838D01*
X126249006Y-99788375D01*
X126620088Y-99788375D01*
G04 #@! TO.C,C1*
X123712393Y-98524785D02*
X123683848Y-98553330D01*
X123598214Y-98581875D01*
X123541124Y-98581875D01*
X123455490Y-98553330D01*
X123398400Y-98496240D01*
X123369856Y-98439151D01*
X123341311Y-98324972D01*
X123341311Y-98239338D01*
X123369856Y-98125159D01*
X123398400Y-98068069D01*
X123455490Y-98010980D01*
X123541124Y-97982435D01*
X123598214Y-97982435D01*
X123683848Y-98010980D01*
X123712393Y-98039524D01*
X124283288Y-98581875D02*
X123940751Y-98581875D01*
X124112020Y-98581875D02*
X124112020Y-97982435D01*
X124054930Y-98068069D01*
X123997840Y-98125159D01*
X123940751Y-98153703D01*
G04 #@! TO.C,C4*
X120600093Y-104043585D02*
X120571548Y-104072130D01*
X120485914Y-104100675D01*
X120428824Y-104100675D01*
X120343190Y-104072130D01*
X120286100Y-104015040D01*
X120257556Y-103957951D01*
X120229011Y-103843772D01*
X120229011Y-103758138D01*
X120257556Y-103643959D01*
X120286100Y-103586869D01*
X120343190Y-103529780D01*
X120428824Y-103501235D01*
X120485914Y-103501235D01*
X120571548Y-103529780D01*
X120600093Y-103558324D01*
X121113899Y-103701048D02*
X121113899Y-104100675D01*
X120971175Y-103472690D02*
X120828451Y-103900861D01*
X121199533Y-103900861D01*
G04 #@! TO.C,C7*
X113941753Y-93733365D02*
X113913208Y-93761910D01*
X113827574Y-93790455D01*
X113770484Y-93790455D01*
X113684850Y-93761910D01*
X113627760Y-93704820D01*
X113599216Y-93647731D01*
X113570671Y-93533552D01*
X113570671Y-93447918D01*
X113599216Y-93333739D01*
X113627760Y-93276649D01*
X113684850Y-93219560D01*
X113770484Y-93191015D01*
X113827574Y-93191015D01*
X113913208Y-93219560D01*
X113941753Y-93248104D01*
X114141566Y-93191015D02*
X114541193Y-93191015D01*
X114284290Y-93790455D01*
G04 #@! TO.C,C6*
X113895293Y-99312185D02*
X113866748Y-99340730D01*
X113781114Y-99369275D01*
X113724024Y-99369275D01*
X113638390Y-99340730D01*
X113581300Y-99283640D01*
X113552756Y-99226551D01*
X113524211Y-99112372D01*
X113524211Y-99026738D01*
X113552756Y-98912559D01*
X113581300Y-98855469D01*
X113638390Y-98798380D01*
X113724024Y-98769835D01*
X113781114Y-98769835D01*
X113866748Y-98798380D01*
X113895293Y-98826924D01*
X114409099Y-98769835D02*
X114294920Y-98769835D01*
X114237830Y-98798380D01*
X114209285Y-98826924D01*
X114152196Y-98912559D01*
X114123651Y-99026738D01*
X114123651Y-99255096D01*
X114152196Y-99312185D01*
X114180740Y-99340730D01*
X114237830Y-99369275D01*
X114352009Y-99369275D01*
X114409099Y-99340730D01*
X114437643Y-99312185D01*
X114466188Y-99255096D01*
X114466188Y-99112372D01*
X114437643Y-99055282D01*
X114409099Y-99026738D01*
X114352009Y-98998193D01*
X114237830Y-98998193D01*
X114180740Y-99026738D01*
X114152196Y-99055282D01*
X114123651Y-99112372D01*
G04 #@! TO.C,C3*
X122301833Y-104682865D02*
X122273288Y-104711410D01*
X122187654Y-104739955D01*
X122130564Y-104739955D01*
X122044930Y-104711410D01*
X121987840Y-104654320D01*
X121959296Y-104597231D01*
X121930751Y-104483052D01*
X121930751Y-104397418D01*
X121959296Y-104283239D01*
X121987840Y-104226149D01*
X122044930Y-104169060D01*
X122130564Y-104140515D01*
X122187654Y-104140515D01*
X122273288Y-104169060D01*
X122301833Y-104197604D01*
X122501646Y-104140515D02*
X122872728Y-104140515D01*
X122672915Y-104368873D01*
X122758549Y-104368873D01*
X122815639Y-104397418D01*
X122844183Y-104425962D01*
X122872728Y-104483052D01*
X122872728Y-104625776D01*
X122844183Y-104682865D01*
X122815639Y-104711410D01*
X122758549Y-104739955D01*
X122587280Y-104739955D01*
X122530191Y-104711410D01*
X122501646Y-104682865D01*
G04 #@! TO.C,C5*
X118200093Y-104043585D02*
X118171548Y-104072130D01*
X118085914Y-104100675D01*
X118028824Y-104100675D01*
X117943190Y-104072130D01*
X117886100Y-104015040D01*
X117857556Y-103957951D01*
X117829011Y-103843772D01*
X117829011Y-103758138D01*
X117857556Y-103643959D01*
X117886100Y-103586869D01*
X117943190Y-103529780D01*
X118028824Y-103501235D01*
X118085914Y-103501235D01*
X118171548Y-103529780D01*
X118200093Y-103558324D01*
X118742443Y-103501235D02*
X118456996Y-103501235D01*
X118428451Y-103786682D01*
X118456996Y-103758138D01*
X118514085Y-103729593D01*
X118656809Y-103729593D01*
X118713899Y-103758138D01*
X118742443Y-103786682D01*
X118770988Y-103843772D01*
X118770988Y-103986496D01*
X118742443Y-104043585D01*
X118713899Y-104072130D01*
X118656809Y-104100675D01*
X118514085Y-104100675D01*
X118456996Y-104072130D01*
X118428451Y-104043585D01*
G04 #@! TO.C,C8*
X121273993Y-94778285D02*
X121245448Y-94806830D01*
X121159814Y-94835375D01*
X121102724Y-94835375D01*
X121017090Y-94806830D01*
X120960000Y-94749740D01*
X120931456Y-94692651D01*
X120902911Y-94578472D01*
X120902911Y-94492838D01*
X120931456Y-94378659D01*
X120960000Y-94321569D01*
X121017090Y-94264480D01*
X121102724Y-94235935D01*
X121159814Y-94235935D01*
X121245448Y-94264480D01*
X121273993Y-94293024D01*
X121616530Y-94492838D02*
X121559440Y-94464293D01*
X121530896Y-94435748D01*
X121502351Y-94378659D01*
X121502351Y-94350114D01*
X121530896Y-94293024D01*
X121559440Y-94264480D01*
X121616530Y-94235935D01*
X121730709Y-94235935D01*
X121787799Y-94264480D01*
X121816343Y-94293024D01*
X121844888Y-94350114D01*
X121844888Y-94378659D01*
X121816343Y-94435748D01*
X121787799Y-94464293D01*
X121730709Y-94492838D01*
X121616530Y-94492838D01*
X121559440Y-94521382D01*
X121530896Y-94549927D01*
X121502351Y-94607017D01*
X121502351Y-94721196D01*
X121530896Y-94778285D01*
X121559440Y-94806830D01*
X121616530Y-94835375D01*
X121730709Y-94835375D01*
X121787799Y-94806830D01*
X121816343Y-94778285D01*
X121844888Y-94721196D01*
X121844888Y-94607017D01*
X121816343Y-94549927D01*
X121787799Y-94521382D01*
X121730709Y-94492838D01*
G04 #@! TD*
M02*
