M48
;DRILL file {KiCad 5.0.0-rc3+dfsg1-2} date Sat Aug 11 13:42:55 2018
;FORMAT={3:3/ absolute / metric / suppress leading zeros}
FMAT,2
METRIC,TZ
T1C0.500
%
G90
G05
M71
T1
X-16789Y2553
X-15139Y3353
X-13700Y-1253
X-13700Y-2503
X-12788Y4023
X-11659Y3099
X-9822Y-3498
X-8700Y419
X-6756Y5055
X-5613Y-2205
X-4360Y-550
X-3302Y2362
X396Y-1204
X1097Y1199
X-16002Y-4178
X-14732Y-4178
X-13462Y-4178
X-12192Y-4178
X-10922Y-4178
X1200Y5250
X1200Y-5250
T0
M30
