M48
; DRILL file {KiCad (5.1.10-1-10_14)} date Thursday, July 01, 2021 at 03:51:19 PM
; FORMAT={-:-/ absolute / metric / decimal}
; #@! TF.CreationDate,2021-07-01T15:51:19+08:00
; #@! TF.GenerationSoftware,Kicad,Pcbnew,(5.1.10-1-10_14)
FMAT,2
METRIC
T1C0.599
T2C0.889
T3C0.919
T4C1.001
T5C1.016
T6C1.100
T7C1.400
%
G90
G05
T1
X-8.686Y-4.503
X-7.181Y2.345
X-6.147Y-2.032
X-3.653Y-0.325
X-2.832Y3.219
X-0.914Y1.397
X-0.914Y-0.635
X1.118Y1.397
X1.118Y-0.635
X1.533Y-4.782
X2.972Y3.2
X3.2Y-4.521
X4.369Y-3.15
X6.35Y2.54
T2
X8.89Y1.001
X8.89Y-1.001
T3
X8.89Y3.5
X8.89Y-3.5
T5
X-10.942Y-0.011
X-10.93Y5.08
X-10.93Y2.54
X-8.402Y-0.011
X1.78Y5.078
X4.32Y5.078
X6.86Y5.078
T6
X10.991Y2.25
X10.991Y-2.25
T7
X-13.975Y-5.08
X-13.97Y5.08
T4
G00X11.74Y5.7
M15
G01X10.241Y5.7
M16
G05
G00X11.74Y-5.7
M15
G01X10.241Y-5.7
M16
G05
T0
M30
