G04 #@! TF.GenerationSoftware,KiCad,Pcbnew,5.0.0-rc3+dfsg1-2*
G04 #@! TF.CreationDate,2018-08-11T13:42:50+09:00*
G04 #@! TF.ProjectId,fst-01,6673742D30312E6B696361645F706362,rev?*
G04 #@! TF.SameCoordinates,PX791ddc0PY5e69114*
G04 #@! TF.FileFunction,Legend,Top*
G04 #@! TF.FilePolarity,Positive*
%FSLAX46Y46*%
G04 Gerber Fmt 4.6, Leading zero omitted, Abs format (unit mm)*
G04 Created by KiCad (PCBNEW 5.0.0-rc3+dfsg1-2) date Sat Aug 11 13:42:50 2018*
%MOMM*%
%LPD*%
G01*
G04 APERTURE LIST*
%ADD10C,0.120000*%
%ADD11C,0.200000*%
%ADD12C,0.150000*%
%ADD13C,0.300000*%
%ADD14C,0.152400*%
%ADD15C,0.254000*%
%ADD16C,0.149860*%
G04 APERTURE END LIST*
D10*
G04 #@! TO.C,U2*
X-3130400Y1138400D02*
X-3130400Y938400D01*
X-3130400Y3938400D02*
X-3130400Y3738400D01*
D11*
X-2930400Y4288400D02*
G75*
G03X-2930400Y4288400I-200000J0D01*
G01*
D10*
X-730400Y938400D02*
X-3130400Y938400D01*
X-730400Y3938400D02*
X-3130400Y3938400D01*
X-730400Y3938400D02*
X-730400Y3088400D01*
X-730400Y938400D02*
X-730400Y1788400D01*
D12*
G04 #@! TO.C,U3*
X-12700000Y936500D02*
X-15300000Y936500D01*
X-15300000Y3536500D02*
X-12700000Y3536500D01*
D13*
X-15170000Y1736500D02*
G75*
G03X-15170000Y1736500I-180000J0D01*
G01*
D12*
X-12700000Y3536500D02*
X-12700000Y936500D01*
X-15300000Y3536500D02*
X-15300000Y936500D01*
G04 #@! TO.C,X1*
X-4030780Y-4780740D02*
X-4030780Y-1980740D01*
X-830780Y-4780740D02*
X-4030780Y-4780740D01*
X-830780Y-1980740D02*
X-830780Y-4780740D01*
X-4030780Y-1980740D02*
X-830780Y-1980740D01*
G04 #@! TO.C,D1*
X-16650000Y-1113500D02*
X-17250000Y-1813500D01*
X-17250000Y-1813500D02*
X-17850000Y-1113500D01*
X-17874840Y-3027640D02*
X-16625160Y-3027640D01*
X-16625160Y-3027640D02*
X-16625160Y-279360D01*
X-16625160Y-279360D02*
X-17874840Y-279360D01*
X-17874840Y-279360D02*
X-17874840Y-3027640D01*
G04 #@! TO.C,K1*
X-15367000Y-3543300D02*
X-15367000Y-4813300D01*
D14*
X-16637000Y-4813300D02*
X-16637000Y-3543300D01*
X-16637000Y-3543300D02*
X-10287000Y-3543300D01*
X-10274300Y-3543300D02*
X-10274300Y-4813300D01*
X-10287000Y-4813300D02*
X-16637000Y-4813300D01*
D15*
G04 #@! TO.C,J1*
X0Y-1700000D02*
X0Y-2900000D01*
X0Y1600000D02*
X0Y2800000D01*
D12*
G04 #@! TO.C,U1*
X-6300000Y-2903500D02*
X-12100000Y-2903500D01*
X-12100000Y3896500D02*
X-5300000Y3896500D01*
X-12100000Y-2903500D02*
X-12100000Y3896500D01*
X-5300000Y-1903500D02*
X-5300000Y3896500D01*
X-6300000Y-2903500D02*
X-5300000Y-1903500D01*
D13*
X-4920000Y-1503500D02*
G75*
G03X-4920000Y-1503500I-180000J0D01*
G01*
D12*
G04 #@! TO.C,U4*
X-17950000Y66500D02*
X-17950000Y2066500D01*
X-16550000Y66500D02*
X-17950000Y66500D01*
X-16550000Y2066500D02*
X-16550000Y66500D01*
X-17950000Y2066500D02*
X-16550000Y2066500D01*
D13*
X-17850000Y1866500D02*
G75*
G03X-17850000Y1866500I-100000J0D01*
G01*
D16*
G04 #@! TO.C,R1*
X-15175960Y-3029520D02*
X-16324040Y-3029520D01*
X-16324040Y-3029520D02*
X-16324040Y-677480D01*
X-16324040Y-677480D02*
X-15175960Y-677480D01*
X-15175960Y-677480D02*
X-15175960Y-3029520D01*
G04 #@! TO.C,C7*
X-3499540Y63500D02*
X-675060Y63500D01*
X-3499540Y-1384300D02*
X-3499540Y63500D01*
X-675060Y-1384300D02*
X-3499540Y-1384300D01*
X-675060Y63500D02*
X-675060Y-1384300D01*
G04 #@! TO.C,C1*
X-4974040Y2636520D02*
X-3825960Y2636520D01*
X-4974040Y284480D02*
X-4974040Y2636520D01*
X-3825960Y284480D02*
X-4974040Y284480D01*
X-3825960Y2636520D02*
X-3825960Y284480D01*
G04 #@! TO.C,C2*
X-5123980Y-3179460D02*
X-5123980Y-4327540D01*
X-7476020Y-3179460D02*
X-5123980Y-3179460D01*
X-7476020Y-4327540D02*
X-7476020Y-3179460D01*
X-5123980Y-4327540D02*
X-7476020Y-4327540D01*
G04 #@! TO.C,C5*
X-12176020Y4222460D02*
X-12176020Y5370540D01*
X-9823980Y4222460D02*
X-12176020Y4222460D01*
X-9823980Y5370540D02*
X-9823980Y4222460D01*
X-12176020Y5370540D02*
X-9823980Y5370540D01*
G04 #@! TO.C,C4*
X-12425960Y-2954020D02*
X-13574040Y-2954020D01*
X-12425960Y-601980D02*
X-12425960Y-2954020D01*
X-13574040Y-601980D02*
X-12425960Y-601980D01*
X-13574040Y-2954020D02*
X-13574040Y-601980D01*
G04 #@! TO.C,C3*
X-7523980Y-3179460D02*
X-7523980Y-4327540D01*
X-9876020Y-3179460D02*
X-7523980Y-3179460D01*
X-9876020Y-4327540D02*
X-9876020Y-3179460D01*
X-7523980Y-4327540D02*
X-9876020Y-4327540D01*
G04 #@! TO.C,C6*
X-3526100Y5476040D02*
X-3526100Y2651560D01*
X-4973900Y5476040D02*
X-3526100Y5476040D01*
X-4973900Y2651560D02*
X-4973900Y5476040D01*
X-3526100Y2651560D02*
X-4973900Y2651560D01*
G04 #@! TO.C,U2*
D12*
X-2565324Y5314896D02*
X-2565324Y4667277D01*
X-2527229Y4591086D01*
X-2489134Y4552991D01*
X-2412943Y4514896D01*
X-2260562Y4514896D01*
X-2184372Y4552991D01*
X-2146277Y4591086D01*
X-2108181Y4667277D01*
X-2108181Y5314896D01*
X-1765324Y5238705D02*
X-1727229Y5276800D01*
X-1651039Y5314896D01*
X-1460562Y5314896D01*
X-1384372Y5276800D01*
X-1346277Y5238705D01*
X-1308181Y5162515D01*
X-1308181Y5086324D01*
X-1346277Y4972039D01*
X-1803420Y4514896D01*
X-1308181Y4514896D01*
G04 #@! TO.C,U3*
D14*
X-14605000Y4552950D02*
X-14605000Y3905250D01*
X-14566900Y3829050D01*
X-14528800Y3790950D01*
X-14452600Y3752850D01*
X-14300200Y3752850D01*
X-14224000Y3790950D01*
X-14185900Y3829050D01*
X-14147800Y3905250D01*
X-14147800Y4552950D01*
X-13843000Y4552950D02*
X-13347700Y4552950D01*
X-13614400Y4248150D01*
X-13500100Y4248150D01*
X-13423900Y4210050D01*
X-13385800Y4171950D01*
X-13347700Y4095750D01*
X-13347700Y3905250D01*
X-13385800Y3829050D01*
X-13423900Y3790950D01*
X-13500100Y3752850D01*
X-13728700Y3752850D01*
X-13804900Y3790950D01*
X-13843000Y3829050D01*
G04 #@! TO.C,X1*
D12*
X-2898715Y-5030828D02*
X-2498715Y-5630828D01*
X-2498715Y-5030828D02*
X-2898715Y-5630828D01*
X-1955858Y-5630828D02*
X-2298715Y-5630828D01*
X-2127286Y-5630828D02*
X-2127286Y-5030828D01*
X-2184429Y-5116542D01*
X-2241572Y-5173685D01*
X-2298715Y-5202257D01*
G04 #@! TO.C,D1*
X-18042658Y-3916328D02*
X-18042658Y-3316328D01*
X-17899800Y-3316328D01*
X-17814086Y-3344900D01*
X-17756943Y-3402042D01*
X-17728372Y-3459185D01*
X-17699800Y-3573471D01*
X-17699800Y-3659185D01*
X-17728372Y-3773471D01*
X-17756943Y-3830614D01*
X-17814086Y-3887757D01*
X-17899800Y-3916328D01*
X-18042658Y-3916328D01*
X-17128372Y-3916328D02*
X-17471229Y-3916328D01*
X-17299800Y-3916328D02*
X-17299800Y-3316328D01*
X-17356943Y-3402042D01*
X-17414086Y-3459185D01*
X-17471229Y-3487757D01*
G04 #@! TO.C,K1*
X-16584558Y-5668928D02*
X-16584558Y-5068928D01*
X-16241700Y-5668928D02*
X-16498843Y-5326071D01*
X-16241700Y-5068928D02*
X-16584558Y-5411785D01*
X-15670272Y-5668928D02*
X-16013129Y-5668928D01*
X-15841700Y-5668928D02*
X-15841700Y-5068928D01*
X-15898843Y-5154642D01*
X-15955986Y-5211785D01*
X-16013129Y-5240357D01*
G04 #@! TO.C,U1*
D14*
X-9504828Y4907081D02*
X-9504828Y4259381D01*
X-9466728Y4183181D01*
X-9428628Y4145081D01*
X-9352428Y4106981D01*
X-9200028Y4106981D01*
X-9123828Y4145081D01*
X-9085728Y4183181D01*
X-9047628Y4259381D01*
X-9047628Y4907081D01*
X-8247528Y4106981D02*
X-8704728Y4106981D01*
X-8476128Y4106981D02*
X-8476128Y4907081D01*
X-8552328Y4792781D01*
X-8628528Y4716581D01*
X-8704728Y4678481D01*
G04 #@! TO.C,U4*
D12*
X-16281324Y615896D02*
X-16281324Y-31723D01*
X-16243229Y-107914D01*
X-16205134Y-146009D01*
X-16128943Y-184104D01*
X-15976562Y-184104D01*
X-15900372Y-146009D01*
X-15862277Y-107914D01*
X-15824181Y-31723D01*
X-15824181Y615896D01*
X-15100372Y349229D02*
X-15100372Y-184104D01*
X-15290848Y653991D02*
X-15481324Y82562D01*
X-14986086Y82562D01*
G04 #@! TO.C,R1*
X-14591500Y-3001928D02*
X-14791500Y-2716214D01*
X-14934358Y-3001928D02*
X-14934358Y-2401928D01*
X-14705786Y-2401928D01*
X-14648643Y-2430500D01*
X-14620072Y-2459071D01*
X-14591500Y-2516214D01*
X-14591500Y-2601928D01*
X-14620072Y-2659071D01*
X-14648643Y-2687642D01*
X-14705786Y-2716214D01*
X-14934358Y-2716214D01*
X-14020072Y-3001928D02*
X-14362929Y-3001928D01*
X-14191500Y-3001928D02*
X-14191500Y-2401928D01*
X-14248643Y-2487642D01*
X-14305786Y-2544785D01*
X-14362929Y-2573357D01*
G04 #@! TO.C,C7*
X-1319200Y242915D02*
X-1347772Y214343D01*
X-1433486Y185772D01*
X-1490629Y185772D01*
X-1576343Y214343D01*
X-1633486Y271486D01*
X-1662058Y328629D01*
X-1690629Y442915D01*
X-1690629Y528629D01*
X-1662058Y642915D01*
X-1633486Y700058D01*
X-1576343Y757200D01*
X-1490629Y785772D01*
X-1433486Y785772D01*
X-1347772Y757200D01*
X-1319200Y728629D01*
X-1119200Y785772D02*
X-719200Y785772D01*
X-976343Y185772D01*
G04 #@! TO.C,C1*
X-3249600Y319115D02*
X-3278172Y290543D01*
X-3363886Y261972D01*
X-3421029Y261972D01*
X-3506743Y290543D01*
X-3563886Y347686D01*
X-3592458Y404829D01*
X-3621029Y519115D01*
X-3621029Y604829D01*
X-3592458Y719115D01*
X-3563886Y776258D01*
X-3506743Y833400D01*
X-3421029Y861972D01*
X-3363886Y861972D01*
X-3278172Y833400D01*
X-3249600Y804829D01*
X-2678172Y261972D02*
X-3021029Y261972D01*
X-2849600Y261972D02*
X-2849600Y861972D01*
X-2906743Y776258D01*
X-2963886Y719115D01*
X-3021029Y690543D01*
G04 #@! TO.C,C2*
X-6400000Y-5047285D02*
X-6428572Y-5075857D01*
X-6514286Y-5104428D01*
X-6571429Y-5104428D01*
X-6657143Y-5075857D01*
X-6714286Y-5018714D01*
X-6742858Y-4961571D01*
X-6771429Y-4847285D01*
X-6771429Y-4761571D01*
X-6742858Y-4647285D01*
X-6714286Y-4590142D01*
X-6657143Y-4533000D01*
X-6571429Y-4504428D01*
X-6514286Y-4504428D01*
X-6428572Y-4533000D01*
X-6400000Y-4561571D01*
X-6171429Y-4561571D02*
X-6142858Y-4533000D01*
X-6085715Y-4504428D01*
X-5942858Y-4504428D01*
X-5885715Y-4533000D01*
X-5857143Y-4561571D01*
X-5828572Y-4618714D01*
X-5828572Y-4675857D01*
X-5857143Y-4761571D01*
X-6200000Y-5104428D01*
X-5828572Y-5104428D01*
G04 #@! TO.C,C5*
X-13058340Y5262935D02*
X-13086912Y5234363D01*
X-13172626Y5205792D01*
X-13229769Y5205792D01*
X-13315483Y5234363D01*
X-13372626Y5291506D01*
X-13401198Y5348649D01*
X-13429769Y5462935D01*
X-13429769Y5548649D01*
X-13401198Y5662935D01*
X-13372626Y5720078D01*
X-13315483Y5777220D01*
X-13229769Y5805792D01*
X-13172626Y5805792D01*
X-13086912Y5777220D01*
X-13058340Y5748649D01*
X-12515483Y5805792D02*
X-12801198Y5805792D01*
X-12829769Y5520078D01*
X-12801198Y5548649D01*
X-12744055Y5577220D01*
X-12601198Y5577220D01*
X-12544055Y5548649D01*
X-12515483Y5520078D01*
X-12486912Y5462935D01*
X-12486912Y5320078D01*
X-12515483Y5262935D01*
X-12544055Y5234363D01*
X-12601198Y5205792D01*
X-12744055Y5205792D01*
X-12801198Y5234363D01*
X-12829769Y5262935D01*
G04 #@! TO.C,C4*
X-13104800Y-315885D02*
X-13133372Y-344457D01*
X-13219086Y-373028D01*
X-13276229Y-373028D01*
X-13361943Y-344457D01*
X-13419086Y-287314D01*
X-13447658Y-230171D01*
X-13476229Y-115885D01*
X-13476229Y-30171D01*
X-13447658Y84115D01*
X-13419086Y141258D01*
X-13361943Y198400D01*
X-13276229Y226972D01*
X-13219086Y226972D01*
X-13133372Y198400D01*
X-13104800Y169829D01*
X-12590515Y26972D02*
X-12590515Y-373028D01*
X-12733372Y255543D02*
X-12876229Y-173028D01*
X-12504800Y-173028D01*
G04 #@! TO.C,C3*
X-8800000Y-5047285D02*
X-8828572Y-5075857D01*
X-8914286Y-5104428D01*
X-8971429Y-5104428D01*
X-9057143Y-5075857D01*
X-9114286Y-5018714D01*
X-9142858Y-4961571D01*
X-9171429Y-4847285D01*
X-9171429Y-4761571D01*
X-9142858Y-4647285D01*
X-9114286Y-4590142D01*
X-9057143Y-4533000D01*
X-8971429Y-4504428D01*
X-8914286Y-4504428D01*
X-8828572Y-4533000D01*
X-8800000Y-4561571D01*
X-8600000Y-4504428D02*
X-8228572Y-4504428D01*
X-8428572Y-4733000D01*
X-8342858Y-4733000D01*
X-8285715Y-4761571D01*
X-8257143Y-4790142D01*
X-8228572Y-4847285D01*
X-8228572Y-4990142D01*
X-8257143Y-5047285D01*
X-8285715Y-5075857D01*
X-8342858Y-5104428D01*
X-8514286Y-5104428D01*
X-8571429Y-5075857D01*
X-8600000Y-5047285D01*
G04 #@! TO.C,C6*
X-5726100Y4218015D02*
X-5754672Y4189443D01*
X-5840386Y4160872D01*
X-5897529Y4160872D01*
X-5983243Y4189443D01*
X-6040386Y4246586D01*
X-6068958Y4303729D01*
X-6097529Y4418015D01*
X-6097529Y4503729D01*
X-6068958Y4618015D01*
X-6040386Y4675158D01*
X-5983243Y4732300D01*
X-5897529Y4760872D01*
X-5840386Y4760872D01*
X-5754672Y4732300D01*
X-5726100Y4703729D01*
X-5211815Y4760872D02*
X-5326100Y4760872D01*
X-5383243Y4732300D01*
X-5411815Y4703729D01*
X-5468958Y4618015D01*
X-5497529Y4503729D01*
X-5497529Y4275158D01*
X-5468958Y4218015D01*
X-5440386Y4189443D01*
X-5383243Y4160872D01*
X-5268958Y4160872D01*
X-5211815Y4189443D01*
X-5183243Y4218015D01*
X-5154672Y4275158D01*
X-5154672Y4418015D01*
X-5183243Y4475158D01*
X-5211815Y4503729D01*
X-5268958Y4532300D01*
X-5383243Y4532300D01*
X-5440386Y4503729D01*
X-5468958Y4475158D01*
X-5497529Y4418015D01*
G04 #@! TD*
M02*
