G04 #@! TF.GenerationSoftware,KiCad,Pcbnew,5.0.0+dfsg1-2*
G04 #@! TF.CreationDate,2018-09-26T11:41:40+09:00*
G04 #@! TF.ProjectId,fst-01,6673742D30312E6B696361645F706362,rev?*
G04 #@! TF.SameCoordinates,Original*
G04 #@! TF.FileFunction,Legend,Top*
G04 #@! TF.FilePolarity,Positive*
%FSLAX46Y46*%
G04 Gerber Fmt 4.6, Leading zero omitted, Abs format (unit mm)*
G04 Created by KiCad (PCBNEW 5.0.0+dfsg1-2) date Wed Sep 26 11:41:40 2018*
%MOMM*%
%LPD*%
G01*
G04 APERTURE LIST*
%ADD10C,0.150000*%
%ADD11C,0.152400*%
%ADD12C,0.120000*%
%ADD13C,0.200000*%
%ADD14C,0.300000*%
%ADD15C,0.254000*%
%ADD16C,0.149860*%
G04 APERTURE END LIST*
D10*
G04 #@! TO.C,K1*
X111633000Y-102539800D02*
X111633000Y-103809800D01*
D11*
X110363000Y-103809800D02*
X110363000Y-102539800D01*
X110363000Y-102539800D02*
X116713000Y-102539800D01*
X116725700Y-102539800D02*
X116725700Y-103809800D01*
X116713000Y-103809800D02*
X110363000Y-103809800D01*
D12*
G04 #@! TO.C,U2*
X126275000Y-96746500D02*
X126275000Y-95896500D01*
X126275000Y-93746500D02*
X126275000Y-94596500D01*
X126275000Y-93746500D02*
X123875000Y-93746500D01*
X126275000Y-96746500D02*
X123875000Y-96746500D01*
D13*
X124075000Y-93396500D02*
G75*
G03X124075000Y-93396500I-200000J0D01*
G01*
D12*
X123875000Y-93746500D02*
X123875000Y-93946500D01*
X123875000Y-96546500D02*
X123875000Y-96746500D01*
D14*
G04 #@! TO.C,U4*
X109150000Y-97196500D02*
G75*
G03X109150000Y-97196500I-100000J0D01*
G01*
D10*
X109050000Y-96996500D02*
X110450000Y-96996500D01*
X110450000Y-96996500D02*
X110450000Y-98996500D01*
X110450000Y-98996500D02*
X109050000Y-98996500D01*
X109050000Y-98996500D02*
X109050000Y-96996500D01*
D14*
G04 #@! TO.C,U1*
X122080000Y-100506500D02*
G75*
G03X122080000Y-100506500I-180000J0D01*
G01*
D10*
X120700000Y-101906500D02*
X121700000Y-100906500D01*
X121700000Y-100906500D02*
X121700000Y-95106500D01*
X114900000Y-101906500D02*
X114900000Y-95106500D01*
X114900000Y-95106500D02*
X121700000Y-95106500D01*
X120700000Y-101906500D02*
X114900000Y-101906500D01*
D15*
G04 #@! TO.C,J1*
X127000000Y-97296500D02*
X127000000Y-96246500D01*
X127000000Y-100696500D02*
X127000000Y-101746500D01*
D10*
G04 #@! TO.C,U3*
X114300000Y-98056500D02*
X111700000Y-98056500D01*
X111700000Y-95456500D02*
X114300000Y-95456500D01*
D14*
X111830000Y-97256500D02*
G75*
G03X111830000Y-97256500I-180000J0D01*
G01*
D10*
X114300000Y-95456500D02*
X114300000Y-98056500D01*
X111700000Y-95456500D02*
X111700000Y-98056500D01*
G04 #@! TO.C,X1*
X122775000Y-103571500D02*
X122775000Y-100771500D01*
X125975000Y-103571500D02*
X122775000Y-103571500D01*
X125975000Y-100771500D02*
X125975000Y-103571500D01*
X122775000Y-100771500D02*
X125975000Y-100771500D01*
G04 #@! TO.C,D1*
X110350000Y-100116500D02*
X109750000Y-100816500D01*
X109750000Y-100816500D02*
X109150000Y-100116500D01*
X109125160Y-102030640D02*
X110374840Y-102030640D01*
X110374840Y-102030640D02*
X110374840Y-99282360D01*
X110374840Y-99282360D02*
X109125160Y-99282360D01*
X109125160Y-99282360D02*
X109125160Y-102030640D01*
D16*
G04 #@! TO.C,R1*
X111824040Y-102032520D02*
X110675960Y-102032520D01*
X110675960Y-102032520D02*
X110675960Y-99680480D01*
X110675960Y-99680480D02*
X111824040Y-99680480D01*
X111824040Y-99680480D02*
X111824040Y-102032520D01*
G04 #@! TO.C,C7*
X124451100Y-100321040D02*
X124451100Y-97496560D01*
X125898900Y-100321040D02*
X124451100Y-100321040D01*
X125898900Y-97496560D02*
X125898900Y-100321040D01*
X124451100Y-97496560D02*
X125898900Y-97496560D01*
G04 #@! TO.C,C1*
X122025960Y-96360480D02*
X123174040Y-96360480D01*
X122025960Y-98712520D02*
X122025960Y-96360480D01*
X123174040Y-98712520D02*
X122025960Y-98712520D01*
X123174040Y-96360480D02*
X123174040Y-98712520D01*
G04 #@! TO.C,C2*
X121876020Y-102182460D02*
X121876020Y-103330540D01*
X119523980Y-102182460D02*
X121876020Y-102182460D01*
X119523980Y-103330540D02*
X119523980Y-102182460D01*
X121876020Y-103330540D02*
X119523980Y-103330540D01*
G04 #@! TO.C,C5*
X114823980Y-94780540D02*
X114823980Y-93632460D01*
X117176020Y-94780540D02*
X114823980Y-94780540D01*
X117176020Y-93632460D02*
X117176020Y-94780540D01*
X114823980Y-93632460D02*
X117176020Y-93632460D01*
G04 #@! TO.C,C4*
X114574040Y-101952520D02*
X113425960Y-101952520D01*
X114574040Y-99600480D02*
X114574040Y-101952520D01*
X113425960Y-99600480D02*
X114574040Y-99600480D01*
X113425960Y-101952520D02*
X113425960Y-99600480D01*
G04 #@! TO.C,C3*
X119476020Y-102182460D02*
X119476020Y-103330540D01*
X117123980Y-102182460D02*
X119476020Y-102182460D01*
X117123980Y-103330540D02*
X117123980Y-102182460D01*
X119476020Y-103330540D02*
X117123980Y-103330540D01*
G04 #@! TO.C,C6*
X123473900Y-93496960D02*
X123473900Y-96321440D01*
X122026100Y-93496960D02*
X123473900Y-93496960D01*
X122026100Y-96321440D02*
X122026100Y-93496960D01*
X123473900Y-96321440D02*
X122026100Y-96321440D01*
G04 #@! TO.C,K1*
D10*
X110415442Y-104665428D02*
X110415442Y-104065428D01*
X110758300Y-104665428D02*
X110501157Y-104322571D01*
X110758300Y-104065428D02*
X110415442Y-104408285D01*
X111329728Y-104665428D02*
X110986871Y-104665428D01*
X111158300Y-104665428D02*
X111158300Y-104065428D01*
X111101157Y-104151142D01*
X111044014Y-104208285D01*
X110986871Y-104236857D01*
G04 #@! TO.C,U2*
X126440476Y-93408404D02*
X126440476Y-94056023D01*
X126478571Y-94132214D01*
X126516666Y-94170309D01*
X126592857Y-94208404D01*
X126745238Y-94208404D01*
X126821428Y-94170309D01*
X126859523Y-94132214D01*
X126897619Y-94056023D01*
X126897619Y-93408404D01*
X127240476Y-93484595D02*
X127278571Y-93446500D01*
X127354761Y-93408404D01*
X127545238Y-93408404D01*
X127621428Y-93446500D01*
X127659523Y-93484595D01*
X127697619Y-93560785D01*
X127697619Y-93636976D01*
X127659523Y-93751261D01*
X127202380Y-94208404D01*
X127697619Y-94208404D01*
G04 #@! TO.C,U4*
X110718676Y-98447104D02*
X110718676Y-99094723D01*
X110756771Y-99170914D01*
X110794866Y-99209009D01*
X110871057Y-99247104D01*
X111023438Y-99247104D01*
X111099628Y-99209009D01*
X111137723Y-99170914D01*
X111175819Y-99094723D01*
X111175819Y-98447104D01*
X111899628Y-98713771D02*
X111899628Y-99247104D01*
X111709152Y-98409009D02*
X111518676Y-98980438D01*
X112013914Y-98980438D01*
G04 #@! TO.C,U1*
D11*
X117495172Y-94095919D02*
X117495172Y-94743619D01*
X117533272Y-94819819D01*
X117571372Y-94857919D01*
X117647572Y-94896019D01*
X117799972Y-94896019D01*
X117876172Y-94857919D01*
X117914272Y-94819819D01*
X117952372Y-94743619D01*
X117952372Y-94095919D01*
X118752472Y-94896019D02*
X118295272Y-94896019D01*
X118523872Y-94896019D02*
X118523872Y-94095919D01*
X118447672Y-94210219D01*
X118371472Y-94286419D01*
X118295272Y-94324519D01*
G04 #@! TO.C,U3*
X112395000Y-94440050D02*
X112395000Y-95087750D01*
X112433100Y-95163950D01*
X112471200Y-95202050D01*
X112547400Y-95240150D01*
X112699800Y-95240150D01*
X112776000Y-95202050D01*
X112814100Y-95163950D01*
X112852200Y-95087750D01*
X112852200Y-94440050D01*
X113157000Y-94440050D02*
X113652300Y-94440050D01*
X113385600Y-94744850D01*
X113499900Y-94744850D01*
X113576100Y-94782950D01*
X113614200Y-94821050D01*
X113652300Y-94897250D01*
X113652300Y-95087750D01*
X113614200Y-95163950D01*
X113576100Y-95202050D01*
X113499900Y-95240150D01*
X113271300Y-95240150D01*
X113195100Y-95202050D01*
X113157000Y-95163950D01*
G04 #@! TO.C,X1*
D10*
X123889285Y-103942928D02*
X124289285Y-104542928D01*
X124289285Y-103942928D02*
X123889285Y-104542928D01*
X124832142Y-104542928D02*
X124489285Y-104542928D01*
X124660714Y-104542928D02*
X124660714Y-103942928D01*
X124603571Y-104028642D01*
X124546428Y-104085785D01*
X124489285Y-104114357D01*
G04 #@! TO.C,D1*
X108957342Y-102919328D02*
X108957342Y-102319328D01*
X109100200Y-102319328D01*
X109185914Y-102347900D01*
X109243057Y-102405042D01*
X109271628Y-102462185D01*
X109300200Y-102576471D01*
X109300200Y-102662185D01*
X109271628Y-102776471D01*
X109243057Y-102833614D01*
X109185914Y-102890757D01*
X109100200Y-102919328D01*
X108957342Y-102919328D01*
X109871628Y-102919328D02*
X109528771Y-102919328D01*
X109700200Y-102919328D02*
X109700200Y-102319328D01*
X109643057Y-102405042D01*
X109585914Y-102462185D01*
X109528771Y-102490757D01*
G04 #@! TO.C,R1*
X112408500Y-102004928D02*
X112208500Y-101719214D01*
X112065642Y-102004928D02*
X112065642Y-101404928D01*
X112294214Y-101404928D01*
X112351357Y-101433500D01*
X112379928Y-101462071D01*
X112408500Y-101519214D01*
X112408500Y-101604928D01*
X112379928Y-101662071D01*
X112351357Y-101690642D01*
X112294214Y-101719214D01*
X112065642Y-101719214D01*
X112979928Y-102004928D02*
X112637071Y-102004928D01*
X112808500Y-102004928D02*
X112808500Y-101404928D01*
X112751357Y-101490642D01*
X112694214Y-101547785D01*
X112637071Y-101576357D01*
G04 #@! TO.C,C7*
X123750000Y-100035785D02*
X123721428Y-100064357D01*
X123635714Y-100092928D01*
X123578571Y-100092928D01*
X123492857Y-100064357D01*
X123435714Y-100007214D01*
X123407142Y-99950071D01*
X123378571Y-99835785D01*
X123378571Y-99750071D01*
X123407142Y-99635785D01*
X123435714Y-99578642D01*
X123492857Y-99521500D01*
X123578571Y-99492928D01*
X123635714Y-99492928D01*
X123721428Y-99521500D01*
X123750000Y-99550071D01*
X123950000Y-99492928D02*
X124350000Y-99492928D01*
X124092857Y-100092928D01*
G04 #@! TO.C,C1*
X123725000Y-98210785D02*
X123696428Y-98239357D01*
X123610714Y-98267928D01*
X123553571Y-98267928D01*
X123467857Y-98239357D01*
X123410714Y-98182214D01*
X123382142Y-98125071D01*
X123353571Y-98010785D01*
X123353571Y-97925071D01*
X123382142Y-97810785D01*
X123410714Y-97753642D01*
X123467857Y-97696500D01*
X123553571Y-97667928D01*
X123610714Y-97667928D01*
X123696428Y-97696500D01*
X123725000Y-97725071D01*
X124296428Y-98267928D02*
X123953571Y-98267928D01*
X124125000Y-98267928D02*
X124125000Y-97667928D01*
X124067857Y-97753642D01*
X124010714Y-97810785D01*
X123953571Y-97839357D01*
G04 #@! TO.C,C2*
X120600000Y-104160785D02*
X120571428Y-104189357D01*
X120485714Y-104217928D01*
X120428571Y-104217928D01*
X120342857Y-104189357D01*
X120285714Y-104132214D01*
X120257142Y-104075071D01*
X120228571Y-103960785D01*
X120228571Y-103875071D01*
X120257142Y-103760785D01*
X120285714Y-103703642D01*
X120342857Y-103646500D01*
X120428571Y-103617928D01*
X120485714Y-103617928D01*
X120571428Y-103646500D01*
X120600000Y-103675071D01*
X120828571Y-103675071D02*
X120857142Y-103646500D01*
X120914285Y-103617928D01*
X121057142Y-103617928D01*
X121114285Y-103646500D01*
X121142857Y-103675071D01*
X121171428Y-103732214D01*
X121171428Y-103789357D01*
X121142857Y-103875071D01*
X120800000Y-104217928D01*
X121171428Y-104217928D01*
G04 #@! TO.C,C5*
X113875000Y-93760785D02*
X113846428Y-93789357D01*
X113760714Y-93817928D01*
X113703571Y-93817928D01*
X113617857Y-93789357D01*
X113560714Y-93732214D01*
X113532142Y-93675071D01*
X113503571Y-93560785D01*
X113503571Y-93475071D01*
X113532142Y-93360785D01*
X113560714Y-93303642D01*
X113617857Y-93246500D01*
X113703571Y-93217928D01*
X113760714Y-93217928D01*
X113846428Y-93246500D01*
X113875000Y-93275071D01*
X114417857Y-93217928D02*
X114132142Y-93217928D01*
X114103571Y-93503642D01*
X114132142Y-93475071D01*
X114189285Y-93446500D01*
X114332142Y-93446500D01*
X114389285Y-93475071D01*
X114417857Y-93503642D01*
X114446428Y-93560785D01*
X114446428Y-93703642D01*
X114417857Y-93760785D01*
X114389285Y-93789357D01*
X114332142Y-93817928D01*
X114189285Y-93817928D01*
X114132142Y-93789357D01*
X114103571Y-93760785D01*
G04 #@! TO.C,C4*
X113895200Y-99314385D02*
X113866628Y-99342957D01*
X113780914Y-99371528D01*
X113723771Y-99371528D01*
X113638057Y-99342957D01*
X113580914Y-99285814D01*
X113552342Y-99228671D01*
X113523771Y-99114385D01*
X113523771Y-99028671D01*
X113552342Y-98914385D01*
X113580914Y-98857242D01*
X113638057Y-98800100D01*
X113723771Y-98771528D01*
X113780914Y-98771528D01*
X113866628Y-98800100D01*
X113895200Y-98828671D01*
X114409485Y-98971528D02*
X114409485Y-99371528D01*
X114266628Y-98742957D02*
X114123771Y-99171528D01*
X114495200Y-99171528D01*
G04 #@! TO.C,C3*
X118200000Y-104185785D02*
X118171428Y-104214357D01*
X118085714Y-104242928D01*
X118028571Y-104242928D01*
X117942857Y-104214357D01*
X117885714Y-104157214D01*
X117857142Y-104100071D01*
X117828571Y-103985785D01*
X117828571Y-103900071D01*
X117857142Y-103785785D01*
X117885714Y-103728642D01*
X117942857Y-103671500D01*
X118028571Y-103642928D01*
X118085714Y-103642928D01*
X118171428Y-103671500D01*
X118200000Y-103700071D01*
X118400000Y-103642928D02*
X118771428Y-103642928D01*
X118571428Y-103871500D01*
X118657142Y-103871500D01*
X118714285Y-103900071D01*
X118742857Y-103928642D01*
X118771428Y-103985785D01*
X118771428Y-104128642D01*
X118742857Y-104185785D01*
X118714285Y-104214357D01*
X118657142Y-104242928D01*
X118485714Y-104242928D01*
X118428571Y-104214357D01*
X118400000Y-104185785D01*
G04 #@! TO.C,C6*
X121225000Y-94754985D02*
X121196428Y-94783557D01*
X121110714Y-94812128D01*
X121053571Y-94812128D01*
X120967857Y-94783557D01*
X120910714Y-94726414D01*
X120882142Y-94669271D01*
X120853571Y-94554985D01*
X120853571Y-94469271D01*
X120882142Y-94354985D01*
X120910714Y-94297842D01*
X120967857Y-94240700D01*
X121053571Y-94212128D01*
X121110714Y-94212128D01*
X121196428Y-94240700D01*
X121225000Y-94269271D01*
X121739285Y-94212128D02*
X121625000Y-94212128D01*
X121567857Y-94240700D01*
X121539285Y-94269271D01*
X121482142Y-94354985D01*
X121453571Y-94469271D01*
X121453571Y-94697842D01*
X121482142Y-94754985D01*
X121510714Y-94783557D01*
X121567857Y-94812128D01*
X121682142Y-94812128D01*
X121739285Y-94783557D01*
X121767857Y-94754985D01*
X121796428Y-94697842D01*
X121796428Y-94554985D01*
X121767857Y-94497842D01*
X121739285Y-94469271D01*
X121682142Y-94440700D01*
X121567857Y-94440700D01*
X121510714Y-94469271D01*
X121482142Y-94497842D01*
X121453571Y-94554985D01*
G04 #@! TD*
M02*
