G04 #@! TF.GenerationSoftware,KiCad,Pcbnew,5.0.0-rc3+dfsg1-2*
G04 #@! TF.CreationDate,2018-08-09T17:57:03+09:00*
G04 #@! TF.ProjectId,fst-01,6673742D30312E6B696361645F706362,rev?*
G04 #@! TF.SameCoordinates,PX791ddc0PY5e69114*
G04 #@! TF.FileFunction,Paste,Top*
G04 #@! TF.FilePolarity,Positive*
%FSLAX46Y46*%
G04 Gerber Fmt 4.6, Leading zero omitted, Abs format (unit mm)*
G04 Created by KiCad (PCBNEW 5.0.0-rc3+dfsg1-2) date Thu Aug  9 17:57:03 2018*
%MOMM*%
%LPD*%
G01*
G04 APERTURE LIST*
%ADD10R,1.060200X1.060200*%
%ADD11R,1.200000X1.200000*%
%ADD12R,0.750000X0.270000*%
%ADD13R,0.270000X0.750000*%
%ADD14C,0.150000*%
%ADD15C,0.600000*%
%ADD16C,0.220000*%
%ADD17C,1.200000*%
%ADD18R,0.698500X0.762000*%
%ADD19R,0.398780X0.500380*%
%ADD20R,0.700000X0.700000*%
%ADD21R,0.899160X1.000760*%
%ADD22R,0.900000X0.800000*%
%ADD23R,1.193800X1.397000*%
%ADD24R,0.762000X0.698500*%
%ADD25R,1.000760X0.899160*%
G04 APERTURE END LIST*
D10*
G04 #@! TO.C,U1*
X-7700000Y1496500D03*
D11*
X-9700000Y-503500D03*
X-9700000Y1496500D03*
X-7700000Y-503500D03*
D12*
X-5925000Y-1503500D03*
X-5925000Y-1003500D03*
X-5925000Y-503500D03*
X-5925000Y-3500D03*
X-5925000Y496500D03*
X-5925000Y996500D03*
X-5925000Y1496500D03*
X-5925000Y1996500D03*
X-5925000Y2496500D03*
D13*
X-6700000Y3271500D03*
X-7200000Y3271500D03*
X-7700000Y3271500D03*
X-8200000Y3271500D03*
X-8700000Y3271500D03*
X-9200000Y3271500D03*
X-9700000Y3271500D03*
X-10200000Y3271500D03*
X-10700000Y3271500D03*
D12*
X-11475000Y2496500D03*
X-11475000Y1996500D03*
X-11475000Y1496500D03*
X-11475000Y996500D03*
X-11475000Y496500D03*
X-11475000Y-3500D03*
X-11475000Y-503500D03*
X-11475000Y-1003500D03*
X-11475000Y-1503500D03*
D13*
X-10700000Y-2278500D03*
X-10200000Y-2278500D03*
X-9700000Y-2278500D03*
X-9200000Y-2278500D03*
X-8700000Y-2278500D03*
X-8200000Y-2278500D03*
X-7700000Y-2278500D03*
X-7200000Y-2278500D03*
X-6700000Y-2278500D03*
G04 #@! TD*
D14*
G04 #@! TO.C,U4*
G36*
X-16880297Y1366078D02*
X-16865736Y1363918D01*
X-16851457Y1360341D01*
X-16837597Y1355382D01*
X-16824290Y1349088D01*
X-16811664Y1341520D01*
X-16799841Y1332752D01*
X-16788934Y1322866D01*
X-16779048Y1311959D01*
X-16770280Y1300136D01*
X-16762712Y1287510D01*
X-16756418Y1274203D01*
X-16751459Y1260343D01*
X-16747882Y1246064D01*
X-16745722Y1231503D01*
X-16745000Y1216800D01*
X-16745000Y916800D01*
X-16745722Y902097D01*
X-16747882Y887536D01*
X-16751459Y873257D01*
X-16756418Y859397D01*
X-16762712Y846090D01*
X-16770280Y833464D01*
X-16779048Y821641D01*
X-16788934Y810734D01*
X-16799841Y800848D01*
X-16811664Y792080D01*
X-16824290Y784512D01*
X-16837597Y778218D01*
X-16851457Y773259D01*
X-16865736Y769682D01*
X-16880297Y767522D01*
X-16895000Y766800D01*
X-17395000Y766800D01*
X-17409703Y767522D01*
X-17424264Y769682D01*
X-17438543Y773259D01*
X-17452403Y778218D01*
X-17465710Y784512D01*
X-17478336Y792080D01*
X-17490159Y800848D01*
X-17501066Y810734D01*
X-17510952Y821641D01*
X-17519720Y833464D01*
X-17527288Y846090D01*
X-17533582Y859397D01*
X-17538541Y873257D01*
X-17542118Y887536D01*
X-17544278Y902097D01*
X-17545000Y916800D01*
X-17545000Y1216800D01*
X-17544278Y1231503D01*
X-17542118Y1246064D01*
X-17538541Y1260343D01*
X-17533582Y1274203D01*
X-17527288Y1287510D01*
X-17519720Y1300136D01*
X-17510952Y1311959D01*
X-17501066Y1322866D01*
X-17490159Y1332752D01*
X-17478336Y1341520D01*
X-17465710Y1349088D01*
X-17452403Y1355382D01*
X-17438543Y1360341D01*
X-17424264Y1363918D01*
X-17409703Y1366078D01*
X-17395000Y1366800D01*
X-16895000Y1366800D01*
X-16880297Y1366078D01*
X-16880297Y1366078D01*
G37*
D15*
X-17145000Y1066800D03*
D14*
G36*
X-17334609Y1966535D02*
X-17329270Y1965743D01*
X-17324034Y1964432D01*
X-17318952Y1962613D01*
X-17314073Y1960306D01*
X-17309444Y1957531D01*
X-17305108Y1954316D01*
X-17301109Y1950691D01*
X-17297484Y1946692D01*
X-17294269Y1942356D01*
X-17291494Y1937727D01*
X-17289187Y1932848D01*
X-17287368Y1927766D01*
X-17286057Y1922530D01*
X-17285265Y1917191D01*
X-17285000Y1911800D01*
X-17285000Y1621800D01*
X-17285265Y1616409D01*
X-17286057Y1611070D01*
X-17287368Y1605834D01*
X-17289187Y1600752D01*
X-17291494Y1595873D01*
X-17294269Y1591244D01*
X-17297484Y1586908D01*
X-17301109Y1582909D01*
X-17305108Y1579284D01*
X-17309444Y1576069D01*
X-17314073Y1573294D01*
X-17318952Y1570987D01*
X-17324034Y1569168D01*
X-17329270Y1567857D01*
X-17334609Y1567065D01*
X-17340000Y1566800D01*
X-17450000Y1566800D01*
X-17455391Y1567065D01*
X-17460730Y1567857D01*
X-17465966Y1569168D01*
X-17471048Y1570987D01*
X-17475927Y1573294D01*
X-17480556Y1576069D01*
X-17484892Y1579284D01*
X-17488891Y1582909D01*
X-17492516Y1586908D01*
X-17495731Y1591244D01*
X-17498506Y1595873D01*
X-17500813Y1600752D01*
X-17502632Y1605834D01*
X-17503943Y1611070D01*
X-17504735Y1616409D01*
X-17505000Y1621800D01*
X-17505000Y1911800D01*
X-17504735Y1917191D01*
X-17503943Y1922530D01*
X-17502632Y1927766D01*
X-17500813Y1932848D01*
X-17498506Y1937727D01*
X-17495731Y1942356D01*
X-17492516Y1946692D01*
X-17488891Y1950691D01*
X-17484892Y1954316D01*
X-17480556Y1957531D01*
X-17475927Y1960306D01*
X-17471048Y1962613D01*
X-17465966Y1964432D01*
X-17460730Y1965743D01*
X-17455391Y1966535D01*
X-17450000Y1966800D01*
X-17340000Y1966800D01*
X-17334609Y1966535D01*
X-17334609Y1966535D01*
G37*
D16*
X-17395000Y1766800D03*
D14*
G36*
X-16834609Y1966535D02*
X-16829270Y1965743D01*
X-16824034Y1964432D01*
X-16818952Y1962613D01*
X-16814073Y1960306D01*
X-16809444Y1957531D01*
X-16805108Y1954316D01*
X-16801109Y1950691D01*
X-16797484Y1946692D01*
X-16794269Y1942356D01*
X-16791494Y1937727D01*
X-16789187Y1932848D01*
X-16787368Y1927766D01*
X-16786057Y1922530D01*
X-16785265Y1917191D01*
X-16785000Y1911800D01*
X-16785000Y1621800D01*
X-16785265Y1616409D01*
X-16786057Y1611070D01*
X-16787368Y1605834D01*
X-16789187Y1600752D01*
X-16791494Y1595873D01*
X-16794269Y1591244D01*
X-16797484Y1586908D01*
X-16801109Y1582909D01*
X-16805108Y1579284D01*
X-16809444Y1576069D01*
X-16814073Y1573294D01*
X-16818952Y1570987D01*
X-16824034Y1569168D01*
X-16829270Y1567857D01*
X-16834609Y1567065D01*
X-16840000Y1566800D01*
X-16950000Y1566800D01*
X-16955391Y1567065D01*
X-16960730Y1567857D01*
X-16965966Y1569168D01*
X-16971048Y1570987D01*
X-16975927Y1573294D01*
X-16980556Y1576069D01*
X-16984892Y1579284D01*
X-16988891Y1582909D01*
X-16992516Y1586908D01*
X-16995731Y1591244D01*
X-16998506Y1595873D01*
X-17000813Y1600752D01*
X-17002632Y1605834D01*
X-17003943Y1611070D01*
X-17004735Y1616409D01*
X-17005000Y1621800D01*
X-17005000Y1911800D01*
X-17004735Y1917191D01*
X-17003943Y1922530D01*
X-17002632Y1927766D01*
X-17000813Y1932848D01*
X-16998506Y1937727D01*
X-16995731Y1942356D01*
X-16992516Y1946692D01*
X-16988891Y1950691D01*
X-16984892Y1954316D01*
X-16980556Y1957531D01*
X-16975927Y1960306D01*
X-16971048Y1962613D01*
X-16965966Y1964432D01*
X-16960730Y1965743D01*
X-16955391Y1966535D01*
X-16950000Y1966800D01*
X-16840000Y1966800D01*
X-16834609Y1966535D01*
X-16834609Y1966535D01*
G37*
D16*
X-16895000Y1766800D03*
D14*
G36*
X-17334609Y566535D02*
X-17329270Y565743D01*
X-17324034Y564432D01*
X-17318952Y562613D01*
X-17314073Y560306D01*
X-17309444Y557531D01*
X-17305108Y554316D01*
X-17301109Y550691D01*
X-17297484Y546692D01*
X-17294269Y542356D01*
X-17291494Y537727D01*
X-17289187Y532848D01*
X-17287368Y527766D01*
X-17286057Y522530D01*
X-17285265Y517191D01*
X-17285000Y511800D01*
X-17285000Y221800D01*
X-17285265Y216409D01*
X-17286057Y211070D01*
X-17287368Y205834D01*
X-17289187Y200752D01*
X-17291494Y195873D01*
X-17294269Y191244D01*
X-17297484Y186908D01*
X-17301109Y182909D01*
X-17305108Y179284D01*
X-17309444Y176069D01*
X-17314073Y173294D01*
X-17318952Y170987D01*
X-17324034Y169168D01*
X-17329270Y167857D01*
X-17334609Y167065D01*
X-17340000Y166800D01*
X-17450000Y166800D01*
X-17455391Y167065D01*
X-17460730Y167857D01*
X-17465966Y169168D01*
X-17471048Y170987D01*
X-17475927Y173294D01*
X-17480556Y176069D01*
X-17484892Y179284D01*
X-17488891Y182909D01*
X-17492516Y186908D01*
X-17495731Y191244D01*
X-17498506Y195873D01*
X-17500813Y200752D01*
X-17502632Y205834D01*
X-17503943Y211070D01*
X-17504735Y216409D01*
X-17505000Y221800D01*
X-17505000Y511800D01*
X-17504735Y517191D01*
X-17503943Y522530D01*
X-17502632Y527766D01*
X-17500813Y532848D01*
X-17498506Y537727D01*
X-17495731Y542356D01*
X-17492516Y546692D01*
X-17488891Y550691D01*
X-17484892Y554316D01*
X-17480556Y557531D01*
X-17475927Y560306D01*
X-17471048Y562613D01*
X-17465966Y564432D01*
X-17460730Y565743D01*
X-17455391Y566535D01*
X-17450000Y566800D01*
X-17340000Y566800D01*
X-17334609Y566535D01*
X-17334609Y566535D01*
G37*
D16*
X-17395000Y366800D03*
D14*
G36*
X-16834609Y566535D02*
X-16829270Y565743D01*
X-16824034Y564432D01*
X-16818952Y562613D01*
X-16814073Y560306D01*
X-16809444Y557531D01*
X-16805108Y554316D01*
X-16801109Y550691D01*
X-16797484Y546692D01*
X-16794269Y542356D01*
X-16791494Y537727D01*
X-16789187Y532848D01*
X-16787368Y527766D01*
X-16786057Y522530D01*
X-16785265Y517191D01*
X-16785000Y511800D01*
X-16785000Y221800D01*
X-16785265Y216409D01*
X-16786057Y211070D01*
X-16787368Y205834D01*
X-16789187Y200752D01*
X-16791494Y195873D01*
X-16794269Y191244D01*
X-16797484Y186908D01*
X-16801109Y182909D01*
X-16805108Y179284D01*
X-16809444Y176069D01*
X-16814073Y173294D01*
X-16818952Y170987D01*
X-16824034Y169168D01*
X-16829270Y167857D01*
X-16834609Y167065D01*
X-16840000Y166800D01*
X-16950000Y166800D01*
X-16955391Y167065D01*
X-16960730Y167857D01*
X-16965966Y169168D01*
X-16971048Y170987D01*
X-16975927Y173294D01*
X-16980556Y176069D01*
X-16984892Y179284D01*
X-16988891Y182909D01*
X-16992516Y186908D01*
X-16995731Y191244D01*
X-16998506Y195873D01*
X-17000813Y200752D01*
X-17002632Y205834D01*
X-17003943Y211070D01*
X-17004735Y216409D01*
X-17005000Y221800D01*
X-17005000Y511800D01*
X-17004735Y517191D01*
X-17003943Y522530D01*
X-17002632Y527766D01*
X-17000813Y532848D01*
X-16998506Y537727D01*
X-16995731Y542356D01*
X-16992516Y546692D01*
X-16988891Y550691D01*
X-16984892Y554316D01*
X-16980556Y557531D01*
X-16975927Y560306D01*
X-16971048Y562613D01*
X-16965966Y564432D01*
X-16960730Y565743D01*
X-16955391Y566535D01*
X-16950000Y566800D01*
X-16840000Y566800D01*
X-16834609Y566535D01*
X-16834609Y566535D01*
G37*
D16*
X-16895000Y366800D03*
G04 #@! TD*
D14*
G04 #@! TO.C,J1*
G36*
X1229405Y-401445D02*
X1258527Y-405764D01*
X1287085Y-412918D01*
X1314805Y-422836D01*
X1341419Y-435424D01*
X1366671Y-450559D01*
X1390318Y-468097D01*
X1412132Y-487868D01*
X1431903Y-509682D01*
X1449441Y-533329D01*
X1464576Y-558581D01*
X1477164Y-585195D01*
X1487082Y-612915D01*
X1494236Y-641473D01*
X1498555Y-670595D01*
X1500000Y-700000D01*
X1500000Y-1300000D01*
X1498555Y-1329405D01*
X1494236Y-1358527D01*
X1487082Y-1387085D01*
X1477164Y-1414805D01*
X1464576Y-1441419D01*
X1449441Y-1466671D01*
X1431903Y-1490318D01*
X1412132Y-1512132D01*
X1390318Y-1531903D01*
X1366671Y-1549441D01*
X1341419Y-1564576D01*
X1314805Y-1577164D01*
X1287085Y-1587082D01*
X1258527Y-1594236D01*
X1229405Y-1598555D01*
X1200000Y-1600000D01*
X300000Y-1600000D01*
X270595Y-1598555D01*
X241473Y-1594236D01*
X212915Y-1587082D01*
X185195Y-1577164D01*
X158581Y-1564576D01*
X133329Y-1549441D01*
X109682Y-1531903D01*
X87868Y-1512132D01*
X68097Y-1490318D01*
X50559Y-1466671D01*
X35424Y-1441419D01*
X22836Y-1414805D01*
X12918Y-1387085D01*
X5764Y-1358527D01*
X1445Y-1329405D01*
X0Y-1300000D01*
X0Y-700000D01*
X1445Y-670595D01*
X5764Y-641473D01*
X12918Y-612915D01*
X22836Y-585195D01*
X35424Y-558581D01*
X50559Y-533329D01*
X68097Y-509682D01*
X87868Y-487868D01*
X109682Y-468097D01*
X133329Y-450559D01*
X158581Y-435424D01*
X185195Y-422836D01*
X212915Y-412918D01*
X241473Y-405764D01*
X270595Y-401445D01*
X300000Y-400000D01*
X1200000Y-400000D01*
X1229405Y-401445D01*
X1229405Y-401445D01*
G37*
D17*
X750000Y-1000000D03*
D14*
G36*
X1229405Y1598555D02*
X1258527Y1594236D01*
X1287085Y1587082D01*
X1314805Y1577164D01*
X1341419Y1564576D01*
X1366671Y1549441D01*
X1390318Y1531903D01*
X1412132Y1512132D01*
X1431903Y1490318D01*
X1449441Y1466671D01*
X1464576Y1441419D01*
X1477164Y1414805D01*
X1487082Y1387085D01*
X1494236Y1358527D01*
X1498555Y1329405D01*
X1500000Y1300000D01*
X1500000Y700000D01*
X1498555Y670595D01*
X1494236Y641473D01*
X1487082Y612915D01*
X1477164Y585195D01*
X1464576Y558581D01*
X1449441Y533329D01*
X1431903Y509682D01*
X1412132Y487868D01*
X1390318Y468097D01*
X1366671Y450559D01*
X1341419Y435424D01*
X1314805Y422836D01*
X1287085Y412918D01*
X1258527Y405764D01*
X1229405Y401445D01*
X1200000Y400000D01*
X300000Y400000D01*
X270595Y401445D01*
X241473Y405764D01*
X212915Y412918D01*
X185195Y422836D01*
X158581Y435424D01*
X133329Y450559D01*
X109682Y468097D01*
X87868Y487868D01*
X68097Y509682D01*
X50559Y533329D01*
X35424Y558581D01*
X22836Y585195D01*
X12918Y612915D01*
X5764Y641473D01*
X1445Y670595D01*
X0Y700000D01*
X0Y1300000D01*
X1445Y1329405D01*
X5764Y1358527D01*
X12918Y1387085D01*
X22836Y1414805D01*
X35424Y1441419D01*
X50559Y1466671D01*
X68097Y1490318D01*
X87868Y1512132D01*
X109682Y1531903D01*
X133329Y1549441D01*
X158581Y1564576D01*
X185195Y1577164D01*
X212915Y1587082D01*
X241473Y1594236D01*
X270595Y1598555D01*
X300000Y1600000D01*
X1200000Y1600000D01*
X1229405Y1598555D01*
X1229405Y1598555D01*
G37*
D17*
X750000Y1000000D03*
D14*
G36*
X1229405Y-2901445D02*
X1258527Y-2905764D01*
X1287085Y-2912918D01*
X1314805Y-2922836D01*
X1341419Y-2935424D01*
X1366671Y-2950559D01*
X1390318Y-2968097D01*
X1412132Y-2987868D01*
X1431903Y-3009682D01*
X1449441Y-3033329D01*
X1464576Y-3058581D01*
X1477164Y-3085195D01*
X1487082Y-3112915D01*
X1494236Y-3141473D01*
X1498555Y-3170595D01*
X1500000Y-3200000D01*
X1500000Y-3800000D01*
X1498555Y-3829405D01*
X1494236Y-3858527D01*
X1487082Y-3887085D01*
X1477164Y-3914805D01*
X1464576Y-3941419D01*
X1449441Y-3966671D01*
X1431903Y-3990318D01*
X1412132Y-4012132D01*
X1390318Y-4031903D01*
X1366671Y-4049441D01*
X1341419Y-4064576D01*
X1314805Y-4077164D01*
X1287085Y-4087082D01*
X1258527Y-4094236D01*
X1229405Y-4098555D01*
X1200000Y-4100000D01*
X300000Y-4100000D01*
X270595Y-4098555D01*
X241473Y-4094236D01*
X212915Y-4087082D01*
X185195Y-4077164D01*
X158581Y-4064576D01*
X133329Y-4049441D01*
X109682Y-4031903D01*
X87868Y-4012132D01*
X68097Y-3990318D01*
X50559Y-3966671D01*
X35424Y-3941419D01*
X22836Y-3914805D01*
X12918Y-3887085D01*
X5764Y-3858527D01*
X1445Y-3829405D01*
X0Y-3800000D01*
X0Y-3200000D01*
X1445Y-3170595D01*
X5764Y-3141473D01*
X12918Y-3112915D01*
X22836Y-3085195D01*
X35424Y-3058581D01*
X50559Y-3033329D01*
X68097Y-3009682D01*
X87868Y-2987868D01*
X109682Y-2968097D01*
X133329Y-2950559D01*
X158581Y-2935424D01*
X185195Y-2922836D01*
X212915Y-2912918D01*
X241473Y-2905764D01*
X270595Y-2901445D01*
X300000Y-2900000D01*
X1200000Y-2900000D01*
X1229405Y-2901445D01*
X1229405Y-2901445D01*
G37*
D17*
X750000Y-3500000D03*
D14*
G36*
X1229405Y4098675D02*
X1258527Y4094356D01*
X1287085Y4087202D01*
X1314805Y4077284D01*
X1341419Y4064696D01*
X1366671Y4049561D01*
X1390318Y4032023D01*
X1412132Y4012252D01*
X1431903Y3990438D01*
X1449441Y3966791D01*
X1464576Y3941539D01*
X1477164Y3914925D01*
X1487082Y3887205D01*
X1494236Y3858647D01*
X1498555Y3829525D01*
X1500000Y3800120D01*
X1500000Y3200120D01*
X1498555Y3170715D01*
X1494236Y3141593D01*
X1487082Y3113035D01*
X1477164Y3085315D01*
X1464576Y3058701D01*
X1449441Y3033449D01*
X1431903Y3009802D01*
X1412132Y2987988D01*
X1390318Y2968217D01*
X1366671Y2950679D01*
X1341419Y2935544D01*
X1314805Y2922956D01*
X1287085Y2913038D01*
X1258527Y2905884D01*
X1229405Y2901565D01*
X1200000Y2900120D01*
X300000Y2900120D01*
X270595Y2901565D01*
X241473Y2905884D01*
X212915Y2913038D01*
X185195Y2922956D01*
X158581Y2935544D01*
X133329Y2950679D01*
X109682Y2968217D01*
X87868Y2987988D01*
X68097Y3009802D01*
X50559Y3033449D01*
X35424Y3058701D01*
X22836Y3085315D01*
X12918Y3113035D01*
X5764Y3141593D01*
X1445Y3170715D01*
X0Y3200120D01*
X0Y3800120D01*
X1445Y3829525D01*
X5764Y3858647D01*
X12918Y3887205D01*
X22836Y3914925D01*
X35424Y3941539D01*
X50559Y3966791D01*
X68097Y3990438D01*
X87868Y4012252D01*
X109682Y4032023D01*
X133329Y4049561D01*
X158581Y4064696D01*
X185195Y4077284D01*
X212915Y4087202D01*
X241473Y4094356D01*
X270595Y4098675D01*
X300000Y4100120D01*
X1200000Y4100120D01*
X1229405Y4098675D01*
X1229405Y4098675D01*
G37*
D17*
X750000Y3500120D03*
G04 #@! TD*
D18*
G04 #@! TO.C,R1*
X-15800000Y-2402140D03*
X-15800000Y-1304860D03*
G04 #@! TD*
D19*
G04 #@! TO.C,U3*
X-14650240Y3186460D03*
X-14000000Y3186460D03*
X-13349760Y3186460D03*
X-13349760Y1286540D03*
X-14000000Y1286540D03*
X-14650240Y1286540D03*
G04 #@! TD*
D20*
G04 #@! TO.C,D1*
X-17100000Y-2402800D03*
X-17100000Y-904200D03*
G04 #@! TD*
D21*
G04 #@! TO.C,C9*
X-2851840Y4746500D03*
X-1348160Y4746500D03*
G04 #@! TD*
D22*
G04 #@! TO.C,U2*
X-930400Y2438400D03*
X-2930400Y1488400D03*
X-2930400Y3388400D03*
G04 #@! TD*
D23*
G04 #@! TO.C,X1*
X-3050900Y-4103320D03*
X-1349100Y-4103320D03*
X-1349100Y-1903680D03*
X-3050900Y-1903680D03*
G04 #@! TD*
D24*
G04 #@! TO.C,C2*
X-2101360Y-303500D03*
X-3198640Y-303500D03*
G04 #@! TD*
D18*
G04 #@! TO.C,C1*
X-4400000Y2009140D03*
X-4400000Y911860D03*
G04 #@! TD*
D24*
G04 #@! TO.C,C4*
X-5751360Y-3753500D03*
X-6848640Y-3753500D03*
G04 #@! TD*
G04 #@! TO.C,C7*
X-11548640Y4796500D03*
X-10451360Y4796500D03*
G04 #@! TD*
D18*
G04 #@! TO.C,C6*
X-13000000Y-2326640D03*
X-13000000Y-1229360D03*
G04 #@! TD*
G04 #@! TO.C,C3*
X-4550000Y-4352140D03*
X-4550000Y-3254860D03*
G04 #@! TD*
D24*
G04 #@! TO.C,C5*
X-8151360Y-3753500D03*
X-9248640Y-3753500D03*
G04 #@! TD*
D25*
G04 #@! TO.C,C8*
X-4250000Y4828340D03*
X-4250000Y3324660D03*
G04 #@! TD*
M02*
