G04 #@! TF.GenerationSoftware,KiCad,Pcbnew,5.0.0-rc3+dfsg1-2*
G04 #@! TF.CreationDate,2018-08-16T13:40:50+09:00*
G04 #@! TF.ProjectId,fst-01,6673742D30312E6B696361645F706362,rev?*
G04 #@! TF.SameCoordinates,PX791ddc0PY5e69114*
G04 #@! TF.FileFunction,Drawing*
%FSLAX46Y46*%
G04 Gerber Fmt 4.6, Leading zero omitted, Abs format (unit mm)*
G04 Created by KiCad (PCBNEW 5.0.0-rc3+dfsg1-2) date Thu Aug 16 13:40:50 2018*
%MOMM*%
%LPD*%
G01*
G04 APERTURE LIST*
%ADD10C,0.100000*%
%ADD11C,0.150000*%
%ADD12C,0.050000*%
%ADD13C,0.070000*%
%ADD14C,0.127000*%
G04 APERTURE END LIST*
D10*
G04 #@! TO.C,J1*
X4200000Y-5680000D02*
X4200000Y5680000D01*
X750000Y-5680000D02*
X12800000Y-5680000D01*
X12800000Y-5680000D02*
X12800000Y5680000D01*
X12800000Y5680000D02*
X750000Y5680000D01*
X2800000Y5680000D02*
X2800000Y-5680000D01*
X750000Y5680000D02*
X750000Y4480000D01*
X750000Y-4480000D02*
X750000Y-5680000D01*
X750000Y-4480000D02*
X2350000Y-4480000D01*
X749300Y4480000D02*
X2350000Y4480000D01*
X2350000Y4480000D02*
X2350000Y-4480000D01*
D11*
G04 #@! TO.C,U4*
X-17800000Y1250000D02*
X-17350000Y1700000D01*
X-17800000Y1700000D02*
X-16700000Y1700000D01*
X-17800000Y300000D02*
X-16700000Y300000D01*
X-17800000Y1700000D02*
X-17800000Y300000D01*
X-16700000Y1700000D02*
X-16700000Y300000D01*
G04 #@! TO.C,U2*
X-2630000Y940000D02*
X-1230000Y940000D01*
X-1230000Y3940000D02*
X-1230000Y940000D01*
X-2630000Y3390000D02*
X-2080000Y3940000D01*
X-2630000Y3940000D02*
X-1230000Y3940000D01*
X-2630000Y3940000D02*
X-2630000Y940000D01*
G04 #@! TO.C,U3*
X-15000000Y2140000D02*
X-14525000Y1615000D01*
X-13000000Y2865000D02*
X-13000000Y1615000D01*
X-15000000Y2865000D02*
X-15000000Y1615000D01*
X-15000000Y1615000D02*
X-13000000Y1615000D01*
X-15000000Y2865000D02*
X-13000000Y2865000D01*
D12*
G04 #@! TO.C,X1*
X-1430000Y-3380000D02*
X-1430000Y-2580000D01*
X-1830000Y-3380000D02*
X-1430000Y-3380000D01*
X-3430000Y-3380000D02*
X-3030000Y-3380000D01*
X-3430000Y-4180000D02*
X-3430000Y-3380000D01*
X-2130000Y-2680000D02*
X-2130000Y-3980000D01*
X-2730000Y-2680000D02*
X-2130000Y-2680000D01*
X-2730000Y-3980000D02*
X-2730000Y-2680000D01*
X-2130000Y-3980000D02*
X-2730000Y-3980000D01*
X-1830000Y-2680000D02*
X-1830000Y-3980000D01*
X-3030000Y-2680000D02*
X-3030000Y-3980000D01*
D11*
X-3680000Y-4380000D02*
X-3680000Y-2380000D01*
X-1180000Y-4380000D02*
X-3680000Y-4380000D01*
X-1180000Y-2380000D02*
X-1180000Y-4380000D01*
X-3680000Y-2380000D02*
X-1180000Y-2380000D01*
X-3680000Y-3880000D02*
X-3180000Y-4380000D01*
D10*
G04 #@! TO.C,D1*
X-16874080Y-2010520D02*
X-17625920Y-2010520D01*
D13*
X-16800420Y-2109580D02*
X-17699580Y-2109580D01*
X-17699580Y-2109580D02*
X-17699580Y-2508360D01*
X-16800420Y-2508360D02*
X-17699580Y-2508360D01*
X-16800420Y-2109580D02*
X-16800420Y-2508360D01*
X-16800420Y-811640D02*
X-17699580Y-811640D01*
X-17699580Y-811640D02*
X-17699580Y-1210420D01*
X-16800420Y-1210420D02*
X-17699580Y-1210420D01*
X-16800420Y-811640D02*
X-16800420Y-1210420D01*
D10*
X-16851220Y-2109580D02*
X-16851220Y-1210420D01*
X-17648780Y-2109580D02*
X-17648780Y-1210420D01*
D13*
X-16800420Y-2260000D02*
X-17050000Y-2508360D01*
D10*
X-16851220Y-1210420D02*
X-17250000Y-2010520D01*
X-17648780Y-1210420D02*
X-17250000Y-2010520D01*
D11*
G04 #@! TO.C,U1*
X-6700000Y-2510000D02*
X-5700000Y-1510000D01*
X-5700000Y-2510000D02*
X-11700000Y-2510000D01*
X-5700000Y3490000D02*
X-5700000Y-2510000D01*
X-11700000Y3490000D02*
X-5700000Y3490000D01*
X-11700000Y-2510000D02*
X-11700000Y3490000D01*
D14*
G04 #@! TO.C,R1*
X-15470600Y-2190200D02*
X-16029400Y-2190200D01*
X-15470600Y-1529800D02*
X-16029400Y-1529800D01*
X-15470600Y-1326600D02*
X-16029400Y-1326600D01*
X-16029400Y-1326600D02*
X-16029400Y-2393400D01*
X-16029400Y-2393400D02*
X-15470600Y-2393400D01*
X-15470600Y-2393400D02*
X-15470600Y-1326600D01*
G04 #@! TO.C,C7*
X-2912800Y-1066400D02*
X-2912800Y-253600D01*
X-1287200Y-1066400D02*
X-2912800Y-1066400D01*
X-1287200Y-253600D02*
X-1287200Y-1066400D01*
X-2912800Y-253600D02*
X-1287200Y-253600D01*
X-2658800Y-279000D02*
X-2658800Y-1066400D01*
X-1541200Y-1066400D02*
X-1541200Y-253600D01*
G04 #@! TO.C,C1*
X-4120600Y926600D02*
X-4120600Y1993400D01*
X-4679400Y926600D02*
X-4120600Y926600D01*
X-4679400Y1993400D02*
X-4679400Y926600D01*
X-4120600Y1993400D02*
X-4679400Y1993400D01*
X-4120600Y1790200D02*
X-4679400Y1790200D01*
X-4120600Y1129800D02*
X-4679400Y1129800D01*
G04 #@! TO.C,C2*
X-6833400Y-4039400D02*
X-5766600Y-4039400D01*
X-6833400Y-3480600D02*
X-6833400Y-4039400D01*
X-5766600Y-3480600D02*
X-6833400Y-3480600D01*
X-5766600Y-4039400D02*
X-5766600Y-3480600D01*
X-5969800Y-4039400D02*
X-5969800Y-3480600D01*
X-6630200Y-4039400D02*
X-6630200Y-3480600D01*
G04 #@! TO.C,C5*
X-10466600Y5069400D02*
X-11533400Y5069400D01*
X-10466600Y4510600D02*
X-10466600Y5069400D01*
X-11533400Y4510600D02*
X-10466600Y4510600D01*
X-11533400Y5069400D02*
X-11533400Y4510600D01*
X-11330200Y5069400D02*
X-11330200Y4510600D01*
X-10669800Y5069400D02*
X-10669800Y4510600D01*
G04 #@! TO.C,C4*
X-13279400Y-1246600D02*
X-13279400Y-2313400D01*
X-12720600Y-1246600D02*
X-13279400Y-1246600D01*
X-12720600Y-2313400D02*
X-12720600Y-1246600D01*
X-13279400Y-2313400D02*
X-12720600Y-2313400D01*
X-13279400Y-2110200D02*
X-12720600Y-2110200D01*
X-13279400Y-1449800D02*
X-12720600Y-1449800D01*
G04 #@! TO.C,C3*
X-9233400Y-4039400D02*
X-8166600Y-4039400D01*
X-9233400Y-3480600D02*
X-9233400Y-4039400D01*
X-8166600Y-3480600D02*
X-9233400Y-3480600D01*
X-8166600Y-4039400D02*
X-8166600Y-3480600D01*
X-8369800Y-4039400D02*
X-8369800Y-3480600D01*
X-9030200Y-4039400D02*
X-9030200Y-3480600D01*
G04 #@! TO.C,C6*
X-4656400Y4912800D02*
X-3843600Y4912800D01*
X-4656400Y3287200D02*
X-4656400Y4912800D01*
X-3843600Y3287200D02*
X-4656400Y3287200D01*
X-3843600Y4912800D02*
X-3843600Y3287200D01*
X-3869000Y4658800D02*
X-4656400Y4658800D01*
X-4656400Y3541200D02*
X-3843600Y3541200D01*
G04 #@! TD*
M02*
