G04 #@! TF.GenerationSoftware,KiCad,Pcbnew,5.0.0-rc3+dfsg1-2*
G04 #@! TF.CreationDate,2018-08-16T13:40:50+09:00*
G04 #@! TF.ProjectId,fst-01,6673742D30312E6B696361645F706362,rev?*
G04 #@! TF.SameCoordinates,PX791ddc0PY5e69114*
G04 #@! TF.FileFunction,Soldermask,Top*
G04 #@! TF.FilePolarity,Negative*
%FSLAX46Y46*%
G04 Gerber Fmt 4.6, Leading zero omitted, Abs format (unit mm)*
G04 Created by KiCad (PCBNEW 5.0.0-rc3+dfsg1-2) date Thu Aug 16 13:40:50 2018*
%MOMM*%
%LPD*%
G01*
G04 APERTURE LIST*
%ADD10C,0.150000*%
G04 APERTURE END LIST*
D10*
G36*
X-953800Y-4656200D02*
X-2206200Y-4656200D01*
X-2206200Y-3503800D01*
X-953800Y-3503800D01*
X-953800Y-4656200D01*
X-953800Y-4656200D01*
G37*
G36*
X-2653800Y-4656200D02*
X-3906200Y-4656200D01*
X-3906200Y-3503800D01*
X-2653800Y-3503800D01*
X-2653800Y-4656200D01*
X-2653800Y-4656200D01*
G37*
G36*
X-10445800Y-4654500D02*
X-11398200Y-4654500D01*
X-11398200Y-3702100D01*
X-10445800Y-3702100D01*
X-10445800Y-4654500D01*
X-10445800Y-4654500D01*
G37*
G36*
X-12053098Y-3720400D02*
X-12021083Y-3733661D01*
X-11966436Y-3756296D01*
X-11966435Y-3756297D01*
X-11888440Y-3808411D01*
X-11822111Y-3874740D01*
X-11785487Y-3929553D01*
X-11769996Y-3952736D01*
X-11763887Y-3967485D01*
X-11734100Y-4039398D01*
X-11715800Y-4131398D01*
X-11715800Y-4225202D01*
X-11734100Y-4317202D01*
X-11734102Y-4317206D01*
X-11769996Y-4403864D01*
X-11769997Y-4403865D01*
X-11822111Y-4481860D01*
X-11888440Y-4548189D01*
X-11947003Y-4587319D01*
X-11966436Y-4600304D01*
X-12021083Y-4622939D01*
X-12053098Y-4636200D01*
X-12145098Y-4654500D01*
X-12238902Y-4654500D01*
X-12330902Y-4636200D01*
X-12362917Y-4622939D01*
X-12417564Y-4600304D01*
X-12436997Y-4587319D01*
X-12495560Y-4548189D01*
X-12561889Y-4481860D01*
X-12614003Y-4403865D01*
X-12614004Y-4403864D01*
X-12649898Y-4317206D01*
X-12649900Y-4317202D01*
X-12668200Y-4225202D01*
X-12668200Y-4131398D01*
X-12649900Y-4039398D01*
X-12620113Y-3967485D01*
X-12614004Y-3952736D01*
X-12598513Y-3929553D01*
X-12561889Y-3874740D01*
X-12495560Y-3808411D01*
X-12417565Y-3756297D01*
X-12417564Y-3756296D01*
X-12362917Y-3733661D01*
X-12330902Y-3720400D01*
X-12238902Y-3702100D01*
X-12145098Y-3702100D01*
X-12053098Y-3720400D01*
X-12053098Y-3720400D01*
G37*
G36*
X-15863098Y-3720400D02*
X-15831083Y-3733661D01*
X-15776436Y-3756296D01*
X-15776435Y-3756297D01*
X-15698440Y-3808411D01*
X-15632111Y-3874740D01*
X-15595487Y-3929553D01*
X-15579996Y-3952736D01*
X-15573887Y-3967485D01*
X-15544100Y-4039398D01*
X-15525800Y-4131398D01*
X-15525800Y-4225202D01*
X-15544100Y-4317202D01*
X-15544102Y-4317206D01*
X-15579996Y-4403864D01*
X-15579997Y-4403865D01*
X-15632111Y-4481860D01*
X-15698440Y-4548189D01*
X-15757003Y-4587319D01*
X-15776436Y-4600304D01*
X-15831083Y-4622939D01*
X-15863098Y-4636200D01*
X-15955098Y-4654500D01*
X-16048902Y-4654500D01*
X-16140902Y-4636200D01*
X-16172917Y-4622939D01*
X-16227564Y-4600304D01*
X-16246997Y-4587319D01*
X-16305560Y-4548189D01*
X-16371889Y-4481860D01*
X-16424003Y-4403865D01*
X-16424004Y-4403864D01*
X-16459898Y-4317206D01*
X-16459900Y-4317202D01*
X-16478200Y-4225202D01*
X-16478200Y-4131398D01*
X-16459900Y-4039398D01*
X-16430113Y-3967485D01*
X-16424004Y-3952736D01*
X-16408513Y-3929553D01*
X-16371889Y-3874740D01*
X-16305560Y-3808411D01*
X-16227565Y-3756297D01*
X-16227564Y-3756296D01*
X-16172917Y-3733661D01*
X-16140902Y-3720400D01*
X-16048902Y-3702100D01*
X-15955098Y-3702100D01*
X-15863098Y-3720400D01*
X-15863098Y-3720400D01*
G37*
G36*
X-14593098Y-3720400D02*
X-14561083Y-3733661D01*
X-14506436Y-3756296D01*
X-14506435Y-3756297D01*
X-14428440Y-3808411D01*
X-14362111Y-3874740D01*
X-14325487Y-3929553D01*
X-14309996Y-3952736D01*
X-14303887Y-3967485D01*
X-14274100Y-4039398D01*
X-14255800Y-4131398D01*
X-14255800Y-4225202D01*
X-14274100Y-4317202D01*
X-14274102Y-4317206D01*
X-14309996Y-4403864D01*
X-14309997Y-4403865D01*
X-14362111Y-4481860D01*
X-14428440Y-4548189D01*
X-14487003Y-4587319D01*
X-14506436Y-4600304D01*
X-14561083Y-4622939D01*
X-14593098Y-4636200D01*
X-14685098Y-4654500D01*
X-14778902Y-4654500D01*
X-14870902Y-4636200D01*
X-14902917Y-4622939D01*
X-14957564Y-4600304D01*
X-14976997Y-4587319D01*
X-15035560Y-4548189D01*
X-15101889Y-4481860D01*
X-15154003Y-4403865D01*
X-15154004Y-4403864D01*
X-15189898Y-4317206D01*
X-15189900Y-4317202D01*
X-15208200Y-4225202D01*
X-15208200Y-4131398D01*
X-15189900Y-4039398D01*
X-15160113Y-3967485D01*
X-15154004Y-3952736D01*
X-15138513Y-3929553D01*
X-15101889Y-3874740D01*
X-15035560Y-3808411D01*
X-14957565Y-3756297D01*
X-14957564Y-3756296D01*
X-14902917Y-3733661D01*
X-14870902Y-3720400D01*
X-14778902Y-3702100D01*
X-14685098Y-3702100D01*
X-14593098Y-3720400D01*
X-14593098Y-3720400D01*
G37*
G36*
X-13323098Y-3720400D02*
X-13291083Y-3733661D01*
X-13236436Y-3756296D01*
X-13236435Y-3756297D01*
X-13158440Y-3808411D01*
X-13092111Y-3874740D01*
X-13055487Y-3929553D01*
X-13039996Y-3952736D01*
X-13033887Y-3967485D01*
X-13004100Y-4039398D01*
X-12985800Y-4131398D01*
X-12985800Y-4225202D01*
X-13004100Y-4317202D01*
X-13004102Y-4317206D01*
X-13039996Y-4403864D01*
X-13039997Y-4403865D01*
X-13092111Y-4481860D01*
X-13158440Y-4548189D01*
X-13217003Y-4587319D01*
X-13236436Y-4600304D01*
X-13291083Y-4622939D01*
X-13323098Y-4636200D01*
X-13415098Y-4654500D01*
X-13508902Y-4654500D01*
X-13600902Y-4636200D01*
X-13632917Y-4622939D01*
X-13687564Y-4600304D01*
X-13706997Y-4587319D01*
X-13765560Y-4548189D01*
X-13831889Y-4481860D01*
X-13884003Y-4403865D01*
X-13884004Y-4403864D01*
X-13919898Y-4317206D01*
X-13919900Y-4317202D01*
X-13938200Y-4225202D01*
X-13938200Y-4131398D01*
X-13919900Y-4039398D01*
X-13890113Y-3967485D01*
X-13884004Y-3952736D01*
X-13868513Y-3929553D01*
X-13831889Y-3874740D01*
X-13765560Y-3808411D01*
X-13687565Y-3756297D01*
X-13687564Y-3756296D01*
X-13632917Y-3733661D01*
X-13600902Y-3720400D01*
X-13508902Y-3702100D01*
X-13415098Y-3702100D01*
X-13323098Y-3720400D01*
X-13323098Y-3720400D01*
G37*
G36*
X-8791440Y-4185450D02*
X-9705840Y-4185450D01*
X-9705840Y-3334550D01*
X-8791440Y-3334550D01*
X-8791440Y-4185450D01*
X-8791440Y-4185450D01*
G37*
G36*
X-7694160Y-4185450D02*
X-8608560Y-4185450D01*
X-8608560Y-3334550D01*
X-7694160Y-3334550D01*
X-7694160Y-4185450D01*
X-7694160Y-4185450D01*
G37*
G36*
X-6391440Y-4185450D02*
X-7305840Y-4185450D01*
X-7305840Y-3334550D01*
X-6391440Y-3334550D01*
X-6391440Y-4185450D01*
X-6391440Y-4185450D01*
G37*
G36*
X-5294160Y-4185450D02*
X-6208560Y-4185450D01*
X-6208560Y-3334550D01*
X-5294160Y-3334550D01*
X-5294160Y-4185450D01*
X-5294160Y-4185450D01*
G37*
G36*
X1329553Y-2829988D02*
X1386968Y-2847404D01*
X1439877Y-2875684D01*
X1486254Y-2913746D01*
X1524316Y-2960123D01*
X1552596Y-3013032D01*
X1570012Y-3070447D01*
X1576200Y-3133267D01*
X1576200Y-3866733D01*
X1570012Y-3929553D01*
X1552596Y-3986968D01*
X1524316Y-4039877D01*
X1486254Y-4086254D01*
X1439877Y-4124316D01*
X1386968Y-4152596D01*
X1329553Y-4170012D01*
X1266733Y-4176200D01*
X233267Y-4176200D01*
X170447Y-4170012D01*
X113032Y-4152596D01*
X60123Y-4124316D01*
X13746Y-4086254D01*
X-24316Y-4039877D01*
X-52596Y-3986968D01*
X-70012Y-3929553D01*
X-76200Y-3866733D01*
X-76200Y-3133267D01*
X-70012Y-3070447D01*
X-52596Y-3013032D01*
X-24316Y-2960123D01*
X13746Y-2913746D01*
X60123Y-2875684D01*
X113032Y-2847404D01*
X170447Y-2829988D01*
X233267Y-2823800D01*
X1266733Y-2823800D01*
X1329553Y-2829988D01*
X1329553Y-2829988D01*
G37*
G36*
X-2653800Y-3256200D02*
X-3906200Y-3256200D01*
X-3906200Y-2103800D01*
X-2653800Y-2103800D01*
X-2653800Y-3256200D01*
X-2653800Y-3256200D01*
G37*
G36*
X-953800Y-3256200D02*
X-2206200Y-3256200D01*
X-2206200Y-2103800D01*
X-953800Y-2103800D01*
X-953800Y-3256200D01*
X-953800Y-3256200D01*
G37*
G36*
X-15324550Y-2865840D02*
X-16175450Y-2865840D01*
X-16175450Y-1951440D01*
X-15324550Y-1951440D01*
X-15324550Y-2865840D01*
X-15324550Y-2865840D01*
G37*
G36*
X-16823800Y-2836200D02*
X-17676200Y-2836200D01*
X-17676200Y-1983800D01*
X-16823800Y-1983800D01*
X-16823800Y-2836200D01*
X-16823800Y-2836200D01*
G37*
G36*
X-12574550Y-2785840D02*
X-13425450Y-2785840D01*
X-13425450Y-1871440D01*
X-12574550Y-1871440D01*
X-12574550Y-2785840D01*
X-12574550Y-2785840D01*
G37*
G36*
X-6510000Y-2710000D02*
X-10890000Y-2710000D01*
X-10890000Y-1860000D01*
X-6510000Y-1860000D01*
X-6510000Y-2710000D01*
X-6510000Y-2710000D01*
G37*
G36*
X-15324550Y-1768560D02*
X-16175450Y-1768560D01*
X-16175450Y-854160D01*
X-15324550Y-854160D01*
X-15324550Y-1768560D01*
X-15324550Y-1768560D01*
G37*
G36*
X-5500000Y-1700000D02*
X-6350000Y-1700000D01*
X-6350000Y2680000D01*
X-5500000Y2680000D01*
X-5500000Y-1700000D01*
X-5500000Y-1700000D01*
G37*
G36*
X-11050000Y-1700000D02*
X-11900000Y-1700000D01*
X-11900000Y2680000D01*
X-11050000Y2680000D01*
X-11050000Y-1700000D01*
X-11050000Y-1700000D01*
G37*
G36*
X-12574550Y-1688560D02*
X-13425450Y-1688560D01*
X-13425450Y-774160D01*
X-12574550Y-774160D01*
X-12574550Y-1688560D01*
X-12574550Y-1688560D01*
G37*
G36*
X1329553Y-329988D02*
X1386968Y-347404D01*
X1439877Y-375684D01*
X1486254Y-413746D01*
X1524316Y-460123D01*
X1552596Y-513032D01*
X1570012Y-570447D01*
X1576200Y-633267D01*
X1576200Y-1366733D01*
X1570012Y-1429553D01*
X1552596Y-1486968D01*
X1524316Y-1539877D01*
X1486254Y-1586254D01*
X1439877Y-1624316D01*
X1386968Y-1652596D01*
X1329553Y-1670012D01*
X1266733Y-1676200D01*
X233267Y-1676200D01*
X170447Y-1670012D01*
X113032Y-1652596D01*
X60123Y-1624316D01*
X13746Y-1586254D01*
X-24316Y-1539877D01*
X-52596Y-1486968D01*
X-70012Y-1429553D01*
X-76200Y-1366733D01*
X-76200Y-633267D01*
X-70012Y-570447D01*
X-52596Y-513032D01*
X-24316Y-460123D01*
X13746Y-413746D01*
X60123Y-375684D01*
X113032Y-347404D01*
X170447Y-329988D01*
X233267Y-323800D01*
X1266733Y-323800D01*
X1329553Y-329988D01*
X1329553Y-329988D01*
G37*
G36*
X-6650000Y-1560000D02*
X-10750000Y-1560000D01*
X-10750000Y2540000D01*
X-6650000Y2540000D01*
X-6650000Y-1560000D01*
X-6650000Y-1560000D01*
G37*
G36*
X-16823800Y-1336200D02*
X-17676200Y-1336200D01*
X-17676200Y-483800D01*
X-16823800Y-483800D01*
X-16823800Y-1336200D01*
X-16823800Y-1336200D01*
G37*
G36*
X-2326060Y-1236580D02*
X-3377620Y-1236580D01*
X-3377620Y-83420D01*
X-2326060Y-83420D01*
X-2326060Y-1236580D01*
X-2326060Y-1236580D01*
G37*
G36*
X-822380Y-1236580D02*
X-1873940Y-1236580D01*
X-1873940Y-83420D01*
X-822380Y-83420D01*
X-822380Y-1236580D01*
X-822380Y-1236580D01*
G37*
G36*
X-17378898Y1948772D02*
X-17369904Y1946044D01*
X-17361614Y1941613D01*
X-17354349Y1935651D01*
X-17348387Y1928386D01*
X-17343956Y1920096D01*
X-17341228Y1911102D01*
X-17340000Y1898634D01*
X-17340000Y1501366D01*
X-17341228Y1488898D01*
X-17343956Y1479904D01*
X-17348387Y1471614D01*
X-17354349Y1464349D01*
X-17356499Y1462585D01*
X-17365301Y1453783D01*
X-17372217Y1443433D01*
X-17376980Y1431932D01*
X-17379408Y1419723D01*
X-17379408Y1407275D01*
X-17376979Y1395066D01*
X-17372215Y1383565D01*
X-17365299Y1373215D01*
X-17356497Y1364413D01*
X-17346147Y1357497D01*
X-17334646Y1352734D01*
X-17316214Y1350000D01*
X-17183786Y1350000D01*
X-17171398Y1351220D01*
X-17159486Y1354834D01*
X-17148507Y1360702D01*
X-17138885Y1368599D01*
X-17130988Y1378221D01*
X-17125120Y1389200D01*
X-17121506Y1401112D01*
X-17120286Y1413500D01*
X-17121506Y1425888D01*
X-17125120Y1437800D01*
X-17130988Y1448779D01*
X-17143501Y1462585D01*
X-17145651Y1464349D01*
X-17151613Y1471614D01*
X-17156044Y1479904D01*
X-17158772Y1488898D01*
X-17160000Y1501366D01*
X-17160000Y1898634D01*
X-17158772Y1911102D01*
X-17156044Y1920096D01*
X-17151613Y1928386D01*
X-17145651Y1935651D01*
X-17138386Y1941613D01*
X-17130096Y1946044D01*
X-17121102Y1948772D01*
X-17108634Y1950000D01*
X-16891366Y1950000D01*
X-16878898Y1948772D01*
X-16869904Y1946044D01*
X-16861614Y1941613D01*
X-16854349Y1935651D01*
X-16848387Y1928386D01*
X-16843956Y1920096D01*
X-16841228Y1911102D01*
X-16840000Y1898634D01*
X-16840000Y1501366D01*
X-16841228Y1488898D01*
X-16843956Y1479904D01*
X-16848387Y1471614D01*
X-16854349Y1464349D01*
X-16861614Y1458387D01*
X-16869902Y1453957D01*
X-16872520Y1453163D01*
X-16884021Y1448400D01*
X-16894372Y1441485D01*
X-16903175Y1432683D01*
X-16910091Y1422333D01*
X-16914856Y1410833D01*
X-16917285Y1398624D01*
X-16917286Y1386176D01*
X-16914858Y1373967D01*
X-16910095Y1362466D01*
X-16903180Y1352115D01*
X-16894378Y1343312D01*
X-16884025Y1336394D01*
X-16863835Y1325602D01*
X-16842174Y1307826D01*
X-16824398Y1286165D01*
X-16811189Y1261452D01*
X-16803054Y1234635D01*
X-16800000Y1203632D01*
X-16800000Y796368D01*
X-16803054Y765365D01*
X-16811189Y738548D01*
X-16824398Y713835D01*
X-16842174Y692174D01*
X-16863835Y674398D01*
X-16884025Y663606D01*
X-16894376Y656690D01*
X-16903178Y647887D01*
X-16910093Y637537D01*
X-16914857Y626036D01*
X-16917285Y613827D01*
X-16917285Y601379D01*
X-16914856Y589170D01*
X-16910093Y577670D01*
X-16903177Y567319D01*
X-16894374Y558517D01*
X-16884024Y551602D01*
X-16872520Y546837D01*
X-16869902Y546043D01*
X-16861614Y541613D01*
X-16854349Y535651D01*
X-16848387Y528386D01*
X-16843956Y520096D01*
X-16841228Y511102D01*
X-16840000Y498634D01*
X-16840000Y101366D01*
X-16841228Y88898D01*
X-16843956Y79904D01*
X-16848387Y71614D01*
X-16854349Y64349D01*
X-16861614Y58387D01*
X-16869904Y53956D01*
X-16878898Y51228D01*
X-16891366Y50000D01*
X-17108634Y50000D01*
X-17121102Y51228D01*
X-17130096Y53956D01*
X-17138386Y58387D01*
X-17145651Y64349D01*
X-17151613Y71614D01*
X-17156044Y79904D01*
X-17158772Y88898D01*
X-17160000Y101366D01*
X-17160000Y498634D01*
X-17158772Y511102D01*
X-17156044Y520096D01*
X-17151613Y528386D01*
X-17145651Y535651D01*
X-17143501Y537415D01*
X-17134699Y546217D01*
X-17127783Y556567D01*
X-17123020Y568068D01*
X-17120592Y580277D01*
X-17120592Y592725D01*
X-17123021Y604934D01*
X-17127785Y616435D01*
X-17134701Y626785D01*
X-17143503Y635587D01*
X-17153853Y642503D01*
X-17165354Y647266D01*
X-17183786Y650000D01*
X-17316214Y650000D01*
X-17328602Y648780D01*
X-17340514Y645166D01*
X-17351493Y639298D01*
X-17361115Y631401D01*
X-17369012Y621779D01*
X-17374880Y610800D01*
X-17378494Y598888D01*
X-17379714Y586500D01*
X-17378494Y574112D01*
X-17374880Y562200D01*
X-17369012Y551221D01*
X-17356499Y537415D01*
X-17354349Y535651D01*
X-17348387Y528386D01*
X-17343956Y520096D01*
X-17341228Y511102D01*
X-17340000Y498634D01*
X-17340000Y101366D01*
X-17341228Y88898D01*
X-17343956Y79904D01*
X-17348387Y71614D01*
X-17354349Y64349D01*
X-17361614Y58387D01*
X-17369904Y53956D01*
X-17378898Y51228D01*
X-17391366Y50000D01*
X-17608634Y50000D01*
X-17621102Y51228D01*
X-17630096Y53956D01*
X-17638386Y58387D01*
X-17645651Y64349D01*
X-17651613Y71614D01*
X-17656044Y79904D01*
X-17658772Y88898D01*
X-17660000Y101366D01*
X-17660000Y498634D01*
X-17658772Y511102D01*
X-17656044Y520096D01*
X-17651613Y528386D01*
X-17645651Y535651D01*
X-17638386Y541613D01*
X-17630098Y546043D01*
X-17627480Y546837D01*
X-17615979Y551600D01*
X-17605628Y558515D01*
X-17596825Y567317D01*
X-17589909Y577667D01*
X-17585144Y589167D01*
X-17582715Y601376D01*
X-17582714Y613824D01*
X-17585142Y626033D01*
X-17589905Y637534D01*
X-17596820Y647885D01*
X-17605622Y656688D01*
X-17615975Y663606D01*
X-17636165Y674398D01*
X-17657826Y692174D01*
X-17675602Y713835D01*
X-17688811Y738548D01*
X-17696946Y765365D01*
X-17700000Y796368D01*
X-17700000Y1203632D01*
X-17696946Y1234635D01*
X-17688811Y1261452D01*
X-17675602Y1286165D01*
X-17657826Y1307826D01*
X-17636165Y1325602D01*
X-17615975Y1336394D01*
X-17605624Y1343310D01*
X-17596822Y1352113D01*
X-17589907Y1362463D01*
X-17585143Y1373964D01*
X-17582715Y1386173D01*
X-17582715Y1398621D01*
X-17585144Y1410830D01*
X-17589907Y1422330D01*
X-17596823Y1432681D01*
X-17605626Y1441483D01*
X-17615976Y1448398D01*
X-17627480Y1453163D01*
X-17630098Y1453957D01*
X-17638386Y1458387D01*
X-17645651Y1464349D01*
X-17651613Y1471614D01*
X-17656044Y1479904D01*
X-17658772Y1488898D01*
X-17660000Y1501366D01*
X-17660000Y1898634D01*
X-17658772Y1911102D01*
X-17656044Y1920096D01*
X-17651613Y1928386D01*
X-17645651Y1935651D01*
X-17638386Y1941613D01*
X-17630096Y1946044D01*
X-17621102Y1948772D01*
X-17608634Y1950000D01*
X-17391366Y1950000D01*
X-17378898Y1948772D01*
X-17378898Y1948772D01*
G37*
G36*
X1329553Y1670012D02*
X1386968Y1652596D01*
X1439877Y1624316D01*
X1486254Y1586254D01*
X1524316Y1539877D01*
X1552596Y1486968D01*
X1570012Y1429553D01*
X1576200Y1366733D01*
X1576200Y633267D01*
X1570012Y570447D01*
X1552596Y513032D01*
X1524316Y460123D01*
X1486254Y413746D01*
X1439877Y375684D01*
X1386968Y347404D01*
X1329553Y329988D01*
X1266733Y323800D01*
X233267Y323800D01*
X170447Y329988D01*
X113032Y347404D01*
X60123Y375684D01*
X13746Y413746D01*
X-24316Y460123D01*
X-52596Y513032D01*
X-70012Y570447D01*
X-76200Y633267D01*
X-76200Y1366733D01*
X-70012Y1429553D01*
X-52596Y1486968D01*
X-24316Y1539877D01*
X13746Y1586254D01*
X60123Y1624316D01*
X113032Y1652596D01*
X170447Y1670012D01*
X233267Y1676200D01*
X1266733Y1676200D01*
X1329553Y1670012D01*
X1329553Y1670012D01*
G37*
G36*
X-3974550Y454160D02*
X-4825450Y454160D01*
X-4825450Y1368560D01*
X-3974550Y1368560D01*
X-3974550Y454160D01*
X-3974550Y454160D01*
G37*
G36*
X-13100000Y990000D02*
X-13600000Y990000D01*
X-13600000Y1590000D01*
X-13100000Y1590000D01*
X-13100000Y990000D01*
X-13100000Y990000D01*
G37*
G36*
X-13750000Y990000D02*
X-14250000Y990000D01*
X-14250000Y1590000D01*
X-13750000Y1590000D01*
X-13750000Y990000D01*
X-13750000Y990000D01*
G37*
G36*
X-14400000Y990000D02*
X-14900000Y990000D01*
X-14900000Y1590000D01*
X-14400000Y1590000D01*
X-14400000Y990000D01*
X-14400000Y990000D01*
G37*
G36*
X-2553800Y1113800D02*
X-3606200Y1113800D01*
X-3606200Y1866200D01*
X-2553800Y1866200D01*
X-2553800Y1113800D01*
X-2553800Y1113800D01*
G37*
G36*
X-3974550Y1551440D02*
X-4825450Y1551440D01*
X-4825450Y2465840D01*
X-3974550Y2465840D01*
X-3974550Y1551440D01*
X-3974550Y1551440D01*
G37*
G36*
X-253800Y2063800D02*
X-1306200Y2063800D01*
X-1306200Y2816200D01*
X-253800Y2816200D01*
X-253800Y2063800D01*
X-253800Y2063800D01*
G37*
G36*
X-3673420Y3829700D02*
X-3672200Y3817312D01*
X-3668586Y3805400D01*
X-3662718Y3794421D01*
X-3654821Y3784799D01*
X-3645199Y3776902D01*
X-3634220Y3771034D01*
X-3622308Y3767420D01*
X-3609920Y3766200D01*
X-2553800Y3766200D01*
X-2553800Y3013800D01*
X-3609920Y3013800D01*
X-3622308Y3012580D01*
X-3634220Y3008966D01*
X-3645199Y3003098D01*
X-3654821Y2995201D01*
X-3662718Y2985579D01*
X-3668586Y2974600D01*
X-3672200Y2962688D01*
X-3673420Y2950300D01*
X-3673420Y2822380D01*
X-4826580Y2822380D01*
X-4826580Y3873940D01*
X-3673420Y3873940D01*
X-3673420Y3829700D01*
X-3673420Y3829700D01*
G37*
G36*
X1329553Y4170132D02*
X1386968Y4152716D01*
X1439877Y4124436D01*
X1486254Y4086374D01*
X1524316Y4039997D01*
X1552596Y3987088D01*
X1570012Y3929673D01*
X1576200Y3866853D01*
X1576200Y3133387D01*
X1570012Y3070567D01*
X1552596Y3013152D01*
X1524316Y2960243D01*
X1486254Y2913866D01*
X1439877Y2875804D01*
X1386968Y2847524D01*
X1329553Y2830108D01*
X1266733Y2823920D01*
X233267Y2823920D01*
X170447Y2830108D01*
X113032Y2847524D01*
X60123Y2875804D01*
X13746Y2913866D01*
X-24316Y2960243D01*
X-52596Y3013152D01*
X-70012Y3070567D01*
X-76200Y3133387D01*
X-76200Y3866853D01*
X-70012Y3929673D01*
X-52596Y3987088D01*
X-24316Y4039997D01*
X13746Y4086374D01*
X60123Y4124436D01*
X113032Y4152716D01*
X170447Y4170132D01*
X233267Y4176320D01*
X1266733Y4176320D01*
X1329553Y4170132D01*
X1329553Y4170132D01*
G37*
G36*
X-6510000Y2840000D02*
X-10890000Y2840000D01*
X-10890000Y3690000D01*
X-6510000Y3690000D01*
X-6510000Y2840000D01*
X-6510000Y2840000D01*
G37*
G36*
X-13100000Y2890000D02*
X-13600000Y2890000D01*
X-13600000Y3490000D01*
X-13100000Y3490000D01*
X-13100000Y2890000D01*
X-13100000Y2890000D01*
G37*
G36*
X-13750000Y2890000D02*
X-14250000Y2890000D01*
X-14250000Y3490000D01*
X-13750000Y3490000D01*
X-13750000Y2890000D01*
X-13750000Y2890000D01*
G37*
G36*
X-14400000Y2890000D02*
X-14900000Y2890000D01*
X-14900000Y3490000D01*
X-14400000Y3490000D01*
X-14400000Y2890000D01*
X-14400000Y2890000D01*
G37*
G36*
X-3673420Y4326060D02*
X-4826580Y4326060D01*
X-4826580Y5377620D01*
X-3673420Y5377620D01*
X-3673420Y4326060D01*
X-3673420Y4326060D01*
G37*
G36*
X-9994160Y4364550D02*
X-10908560Y4364550D01*
X-10908560Y5215450D01*
X-9994160Y5215450D01*
X-9994160Y4364550D01*
X-9994160Y4364550D01*
G37*
G36*
X-11091440Y4364550D02*
X-12005840Y4364550D01*
X-12005840Y5215450D01*
X-11091440Y5215450D01*
X-11091440Y4364550D01*
X-11091440Y4364550D01*
G37*
M02*
