G04 #@! TF.GenerationSoftware,KiCad,Pcbnew,5.0.0-rc3+dfsg1-2*
G04 #@! TF.CreationDate,2018-08-08T10:48:40+09:00*
G04 #@! TF.ProjectId,fst-01,6673742D30312E6B696361645F706362,rev?*
G04 #@! TF.SameCoordinates,PX791ddc0PY5e69114*
G04 #@! TF.FileFunction,Copper,L1,Top,Signal*
G04 #@! TF.FilePolarity,Positive*
%FSLAX46Y46*%
G04 Gerber Fmt 4.6, Leading zero omitted, Abs format (unit mm)*
G04 Created by KiCad (PCBNEW 5.0.0-rc3+dfsg1-2) date Wed Aug  8 10:48:40 2018*
%MOMM*%
%LPD*%
G01*
G04 APERTURE LIST*
G04 #@! TA.AperFunction,SMDPad,CuDef*
%ADD10R,0.800000X0.800000*%
G04 #@! TD*
G04 #@! TA.AperFunction,ComponentPad*
%ADD11C,1.000000*%
G04 #@! TD*
G04 #@! TA.AperFunction,Conductor*
%ADD12C,0.150000*%
G04 #@! TD*
G04 #@! TA.AperFunction,SMDPad,CuDef*
%ADD13C,1.200000*%
G04 #@! TD*
G04 #@! TA.AperFunction,SMDPad,CuDef*
%ADD14R,0.762000X0.698500*%
G04 #@! TD*
G04 #@! TA.AperFunction,SMDPad,CuDef*
%ADD15R,0.398780X0.500380*%
G04 #@! TD*
G04 #@! TA.AperFunction,SMDPad,CuDef*
%ADD16R,1.800000X1.800000*%
G04 #@! TD*
G04 #@! TA.AperFunction,SMDPad,CuDef*
%ADD17R,0.749300X0.299720*%
G04 #@! TD*
G04 #@! TA.AperFunction,SMDPad,CuDef*
%ADD18R,0.299720X0.749300*%
G04 #@! TD*
G04 #@! TA.AperFunction,SMDPad,CuDef*
%ADD19R,0.700000X0.700000*%
G04 #@! TD*
G04 #@! TA.AperFunction,ComponentPad*
%ADD20R,0.800000X0.800000*%
G04 #@! TD*
G04 #@! TA.AperFunction,BGAPad,CuDef*
%ADD21C,0.800000*%
G04 #@! TD*
G04 #@! TA.AperFunction,SMDPad,CuDef*
%ADD22R,0.899160X1.000760*%
G04 #@! TD*
G04 #@! TA.AperFunction,SMDPad,CuDef*
%ADD23R,0.900000X0.800000*%
G04 #@! TD*
G04 #@! TA.AperFunction,SMDPad,CuDef*
%ADD24R,1.193800X1.397000*%
G04 #@! TD*
G04 #@! TA.AperFunction,SMDPad,CuDef*
%ADD25R,0.698500X0.762000*%
G04 #@! TD*
G04 #@! TA.AperFunction,SMDPad,CuDef*
%ADD26R,1.000760X0.899160*%
G04 #@! TD*
G04 #@! TA.AperFunction,BGAPad,CuDef*
%ADD27C,1.000000*%
G04 #@! TD*
G04 #@! TA.AperFunction,ViaPad*
%ADD28C,0.800100*%
G04 #@! TD*
G04 #@! TA.AperFunction,Conductor*
%ADD29C,0.200660*%
G04 #@! TD*
G04 #@! TA.AperFunction,Conductor*
%ADD30C,0.381000*%
G04 #@! TD*
G04 #@! TA.AperFunction,Conductor*
%ADD31C,0.202000*%
G04 #@! TD*
G04 #@! TA.AperFunction,Conductor*
%ADD32C,0.599440*%
G04 #@! TD*
G04 #@! TA.AperFunction,Conductor*
%ADD33C,0.254000*%
G04 #@! TD*
G04 #@! TA.AperFunction,Conductor*
%ADD34C,0.300000*%
G04 #@! TD*
G04 #@! TA.AperFunction,Conductor*
%ADD35C,0.279400*%
G04 #@! TD*
G04 #@! TA.AperFunction,Conductor*
%ADD36C,0.508000*%
G04 #@! TD*
G04 #@! TA.AperFunction,Conductor*
%ADD37C,0.304800*%
G04 #@! TD*
G04 #@! TA.AperFunction,Conductor*
%ADD38C,0.330200*%
G04 #@! TD*
G04 #@! TA.AperFunction,Conductor*
%ADD39C,0.200000*%
G04 #@! TD*
G04 APERTURE END LIST*
D10*
G04 #@! TO.P,REF\002A\002A,1*
G04 #@! TO.N,GND*
X-16568420Y5392420D03*
G04 #@! TD*
D11*
G04 #@! TO.P,J1,5*
G04 #@! TO.N,GND*
X1200000Y5250000D03*
X1200000Y-5250000D03*
D12*
G04 #@! TD*
G04 #@! TO.N,/VBUS*
G04 #@! TO.C,J1*
G36*
X479405Y4098675D02*
X508527Y4094356D01*
X537085Y4087202D01*
X564805Y4077284D01*
X591419Y4064696D01*
X616671Y4049561D01*
X640318Y4032023D01*
X662132Y4012252D01*
X681903Y3990438D01*
X699441Y3966791D01*
X714576Y3941539D01*
X727164Y3914925D01*
X737082Y3887205D01*
X744236Y3858647D01*
X748555Y3829525D01*
X750000Y3800120D01*
X750000Y3200120D01*
X748555Y3170715D01*
X744236Y3141593D01*
X737082Y3113035D01*
X727164Y3085315D01*
X714576Y3058701D01*
X699441Y3033449D01*
X681903Y3009802D01*
X662132Y2987988D01*
X640318Y2968217D01*
X616671Y2950679D01*
X591419Y2935544D01*
X564805Y2922956D01*
X537085Y2913038D01*
X508527Y2905884D01*
X479405Y2901565D01*
X450000Y2900120D01*
X-450000Y2900120D01*
X-479405Y2901565D01*
X-508527Y2905884D01*
X-537085Y2913038D01*
X-564805Y2922956D01*
X-591419Y2935544D01*
X-616671Y2950679D01*
X-640318Y2968217D01*
X-662132Y2987988D01*
X-681903Y3009802D01*
X-699441Y3033449D01*
X-714576Y3058701D01*
X-727164Y3085315D01*
X-737082Y3113035D01*
X-744236Y3141593D01*
X-748555Y3170715D01*
X-750000Y3200120D01*
X-750000Y3800120D01*
X-748555Y3829525D01*
X-744236Y3858647D01*
X-737082Y3887205D01*
X-727164Y3914925D01*
X-714576Y3941539D01*
X-699441Y3966791D01*
X-681903Y3990438D01*
X-662132Y4012252D01*
X-640318Y4032023D01*
X-616671Y4049561D01*
X-591419Y4064696D01*
X-564805Y4077284D01*
X-537085Y4087202D01*
X-508527Y4094356D01*
X-479405Y4098675D01*
X-450000Y4100120D01*
X450000Y4100120D01*
X479405Y4098675D01*
X479405Y4098675D01*
G37*
D13*
G04 #@! TO.P,J1,1*
G04 #@! TO.N,/VBUS*
X0Y3500120D03*
D12*
G04 #@! TD*
G04 #@! TO.N,GND*
G04 #@! TO.C,J1*
G36*
X479405Y-2901445D02*
X508527Y-2905764D01*
X537085Y-2912918D01*
X564805Y-2922836D01*
X591419Y-2935424D01*
X616671Y-2950559D01*
X640318Y-2968097D01*
X662132Y-2987868D01*
X681903Y-3009682D01*
X699441Y-3033329D01*
X714576Y-3058581D01*
X727164Y-3085195D01*
X737082Y-3112915D01*
X744236Y-3141473D01*
X748555Y-3170595D01*
X750000Y-3200000D01*
X750000Y-3800000D01*
X748555Y-3829405D01*
X744236Y-3858527D01*
X737082Y-3887085D01*
X727164Y-3914805D01*
X714576Y-3941419D01*
X699441Y-3966671D01*
X681903Y-3990318D01*
X662132Y-4012132D01*
X640318Y-4031903D01*
X616671Y-4049441D01*
X591419Y-4064576D01*
X564805Y-4077164D01*
X537085Y-4087082D01*
X508527Y-4094236D01*
X479405Y-4098555D01*
X450000Y-4100000D01*
X-450000Y-4100000D01*
X-479405Y-4098555D01*
X-508527Y-4094236D01*
X-537085Y-4087082D01*
X-564805Y-4077164D01*
X-591419Y-4064576D01*
X-616671Y-4049441D01*
X-640318Y-4031903D01*
X-662132Y-4012132D01*
X-681903Y-3990318D01*
X-699441Y-3966671D01*
X-714576Y-3941419D01*
X-727164Y-3914805D01*
X-737082Y-3887085D01*
X-744236Y-3858527D01*
X-748555Y-3829405D01*
X-750000Y-3800000D01*
X-750000Y-3200000D01*
X-748555Y-3170595D01*
X-744236Y-3141473D01*
X-737082Y-3112915D01*
X-727164Y-3085195D01*
X-714576Y-3058581D01*
X-699441Y-3033329D01*
X-681903Y-3009682D01*
X-662132Y-2987868D01*
X-640318Y-2968097D01*
X-616671Y-2950559D01*
X-591419Y-2935424D01*
X-564805Y-2922836D01*
X-537085Y-2912918D01*
X-508527Y-2905764D01*
X-479405Y-2901445D01*
X-450000Y-2900000D01*
X450000Y-2900000D01*
X479405Y-2901445D01*
X479405Y-2901445D01*
G37*
D13*
G04 #@! TO.P,J1,4*
G04 #@! TO.N,GND*
X0Y-3500000D03*
D12*
G04 #@! TD*
G04 #@! TO.N,/D-_PLUG*
G04 #@! TO.C,J1*
G36*
X479405Y1598555D02*
X508527Y1594236D01*
X537085Y1587082D01*
X564805Y1577164D01*
X591419Y1564576D01*
X616671Y1549441D01*
X640318Y1531903D01*
X662132Y1512132D01*
X681903Y1490318D01*
X699441Y1466671D01*
X714576Y1441419D01*
X727164Y1414805D01*
X737082Y1387085D01*
X744236Y1358527D01*
X748555Y1329405D01*
X750000Y1300000D01*
X750000Y700000D01*
X748555Y670595D01*
X744236Y641473D01*
X737082Y612915D01*
X727164Y585195D01*
X714576Y558581D01*
X699441Y533329D01*
X681903Y509682D01*
X662132Y487868D01*
X640318Y468097D01*
X616671Y450559D01*
X591419Y435424D01*
X564805Y422836D01*
X537085Y412918D01*
X508527Y405764D01*
X479405Y401445D01*
X450000Y400000D01*
X-450000Y400000D01*
X-479405Y401445D01*
X-508527Y405764D01*
X-537085Y412918D01*
X-564805Y422836D01*
X-591419Y435424D01*
X-616671Y450559D01*
X-640318Y468097D01*
X-662132Y487868D01*
X-681903Y509682D01*
X-699441Y533329D01*
X-714576Y558581D01*
X-727164Y585195D01*
X-737082Y612915D01*
X-744236Y641473D01*
X-748555Y670595D01*
X-750000Y700000D01*
X-750000Y1300000D01*
X-748555Y1329405D01*
X-744236Y1358527D01*
X-737082Y1387085D01*
X-727164Y1414805D01*
X-714576Y1441419D01*
X-699441Y1466671D01*
X-681903Y1490318D01*
X-662132Y1512132D01*
X-640318Y1531903D01*
X-616671Y1549441D01*
X-591419Y1564576D01*
X-564805Y1577164D01*
X-537085Y1587082D01*
X-508527Y1594236D01*
X-479405Y1598555D01*
X-450000Y1600000D01*
X450000Y1600000D01*
X479405Y1598555D01*
X479405Y1598555D01*
G37*
D13*
G04 #@! TO.P,J1,2*
G04 #@! TO.N,/D-_PLUG*
X0Y1000000D03*
D12*
G04 #@! TD*
G04 #@! TO.N,/D+_PLUG*
G04 #@! TO.C,J1*
G36*
X479405Y-401445D02*
X508527Y-405764D01*
X537085Y-412918D01*
X564805Y-422836D01*
X591419Y-435424D01*
X616671Y-450559D01*
X640318Y-468097D01*
X662132Y-487868D01*
X681903Y-509682D01*
X699441Y-533329D01*
X714576Y-558581D01*
X727164Y-585195D01*
X737082Y-612915D01*
X744236Y-641473D01*
X748555Y-670595D01*
X750000Y-700000D01*
X750000Y-1300000D01*
X748555Y-1329405D01*
X744236Y-1358527D01*
X737082Y-1387085D01*
X727164Y-1414805D01*
X714576Y-1441419D01*
X699441Y-1466671D01*
X681903Y-1490318D01*
X662132Y-1512132D01*
X640318Y-1531903D01*
X616671Y-1549441D01*
X591419Y-1564576D01*
X564805Y-1577164D01*
X537085Y-1587082D01*
X508527Y-1594236D01*
X479405Y-1598555D01*
X450000Y-1600000D01*
X-450000Y-1600000D01*
X-479405Y-1598555D01*
X-508527Y-1594236D01*
X-537085Y-1587082D01*
X-564805Y-1577164D01*
X-591419Y-1564576D01*
X-616671Y-1549441D01*
X-640318Y-1531903D01*
X-662132Y-1512132D01*
X-681903Y-1490318D01*
X-699441Y-1466671D01*
X-714576Y-1441419D01*
X-727164Y-1414805D01*
X-737082Y-1387085D01*
X-744236Y-1358527D01*
X-748555Y-1329405D01*
X-750000Y-1300000D01*
X-750000Y-700000D01*
X-748555Y-670595D01*
X-744236Y-641473D01*
X-737082Y-612915D01*
X-727164Y-585195D01*
X-714576Y-558581D01*
X-699441Y-533329D01*
X-681903Y-509682D01*
X-662132Y-487868D01*
X-640318Y-468097D01*
X-616671Y-450559D01*
X-591419Y-435424D01*
X-564805Y-422836D01*
X-537085Y-412918D01*
X-508527Y-405764D01*
X-479405Y-401445D01*
X-450000Y-400000D01*
X450000Y-400000D01*
X479405Y-401445D01*
X479405Y-401445D01*
G37*
D13*
G04 #@! TO.P,J1,3*
G04 #@! TO.N,/D+_PLUG*
X0Y-1000000D03*
G04 #@! TD*
D14*
G04 #@! TO.P,R1,1*
G04 #@! TO.N,Net-(D1-Pad1)*
X-16880840Y-2540000D03*
G04 #@! TO.P,R1,2*
G04 #@! TO.N,GND*
X-15783560Y-2540000D03*
G04 #@! TD*
D15*
G04 #@! TO.P,U3,6*
G04 #@! TO.N,/D+_PLUG*
X-14810740Y3185160D03*
G04 #@! TO.P,U3,5*
G04 #@! TO.N,+3V3*
X-14160500Y3185160D03*
G04 #@! TO.P,U3,4*
G04 #@! TO.N,/D-_PLUG*
X-13510260Y3185160D03*
G04 #@! TO.P,U3,3*
G04 #@! TO.N,/D-*
X-13510260Y1285240D03*
G04 #@! TO.P,U3,2*
G04 #@! TO.N,GND*
X-14160500Y1285240D03*
G04 #@! TO.P,U3,1*
G04 #@! TO.N,/D+*
X-14810740Y1285240D03*
G04 #@! TD*
D16*
G04 #@! TO.P,U1,37*
G04 #@! TO.N,GND*
X-8456012Y1536829D03*
X-10538812Y1536829D03*
X-10538812Y-545971D03*
D17*
G04 #@! TO.P,U1,1*
G04 #@! TO.N,+3V3*
X-6721192Y-1506091D03*
G04 #@! TO.P,U1,2*
G04 #@! TO.N,/OSC_IN*
X-6721192Y-1005711D03*
G04 #@! TO.P,U1,3*
G04 #@! TO.N,/OSC_OUT*
X-6721192Y-505331D03*
G04 #@! TO.P,U1,4*
G04 #@! TO.N,/NRST*
X-6721192Y-4951D03*
G04 #@! TO.P,U1,5*
G04 #@! TO.N,GND*
X-6721192Y495429D03*
G04 #@! TO.P,U1,6*
G04 #@! TO.N,+3V3*
X-6721192Y995809D03*
G04 #@! TO.P,U1,7*
G04 #@! TO.N,Net-(U1-Pad7)*
X-6721192Y1496189D03*
G04 #@! TO.P,U1,8*
G04 #@! TO.N,Net-(U1-Pad8)*
X-6721192Y1996569D03*
G04 #@! TO.P,U1,9*
G04 #@! TO.N,Net-(U1-Pad9)*
X-6721192Y2496949D03*
D18*
G04 #@! TO.P,U1,10*
G04 #@! TO.N,Net-(U1-Pad10)*
X-7495892Y3271649D03*
G04 #@! TO.P,U1,11*
G04 #@! TO.N,Net-(U1-Pad11)*
X-7996272Y3271649D03*
G04 #@! TO.P,U1,12*
G04 #@! TO.N,Net-(U1-Pad12)*
X-8496652Y3271649D03*
G04 #@! TO.P,U1,13*
G04 #@! TO.N,Net-(U1-Pad13)*
X-8997032Y3271649D03*
G04 #@! TO.P,U1,14*
G04 #@! TO.N,Net-(U1-Pad14)*
X-9497412Y3271649D03*
G04 #@! TO.P,U1,15*
G04 #@! TO.N,Net-(U1-Pad15)*
X-9997792Y3271649D03*
G04 #@! TO.P,U1,16*
G04 #@! TO.N,Net-(U1-Pad16)*
X-10498172Y3271649D03*
G04 #@! TO.P,U1,17*
G04 #@! TO.N,GND*
X-10998552Y3271649D03*
G04 #@! TO.P,U1,18*
X-11498932Y3271649D03*
D17*
G04 #@! TO.P,U1,19*
G04 #@! TO.N,+3V3*
X-12273632Y2496949D03*
G04 #@! TO.P,U1,20*
G04 #@! TO.N,/LED*
X-12273632Y1996569D03*
G04 #@! TO.P,U1,21*
G04 #@! TO.N,Net-(U1-Pad21)*
X-12273632Y1496189D03*
G04 #@! TO.P,U1,22*
G04 #@! TO.N,Net-(U1-Pad22)*
X-12273632Y995809D03*
G04 #@! TO.P,U1,23*
G04 #@! TO.N,/D-*
X-12273632Y495429D03*
G04 #@! TO.P,U1,24*
G04 #@! TO.N,/D+*
X-12273632Y-4951D03*
G04 #@! TO.P,U1,25*
G04 #@! TO.N,/SWDIO*
X-12273632Y-505331D03*
G04 #@! TO.P,U1,26*
G04 #@! TO.N,GND*
X-12273632Y-1005711D03*
G04 #@! TO.P,U1,27*
G04 #@! TO.N,+3V3*
X-12273632Y-1506091D03*
D18*
G04 #@! TO.P,U1,28*
G04 #@! TO.N,/SWCLK*
X-11498932Y-2280791D03*
G04 #@! TO.P,U1,29*
G04 #@! TO.N,Net-(U1-Pad29)*
X-10998552Y-2280791D03*
G04 #@! TO.P,U1,30*
G04 #@! TO.N,Net-(U1-Pad30)*
X-10498172Y-2280791D03*
G04 #@! TO.P,U1,31*
G04 #@! TO.N,Net-(U1-Pad31)*
X-9997792Y-2280791D03*
G04 #@! TO.P,U1,32*
G04 #@! TO.N,Net-(U1-Pad32)*
X-9497412Y-2280791D03*
G04 #@! TO.P,U1,33*
G04 #@! TO.N,Net-(U1-Pad33)*
X-8997032Y-2280791D03*
G04 #@! TO.P,U1,34*
G04 #@! TO.N,Net-(U1-Pad34)*
X-8496652Y-2280791D03*
G04 #@! TO.P,U1,35*
G04 #@! TO.N,GND*
X-7996272Y-2280791D03*
G04 #@! TO.P,U1,36*
X-7495892Y-2280791D03*
D16*
G04 #@! TO.P,U1,37*
X-8456012Y-545971D03*
G04 #@! TD*
D19*
G04 #@! TO.P,D1,1*
G04 #@! TO.N,Net-(D1-Pad1)*
X-16929100Y-749300D03*
G04 #@! TO.P,D1,2*
G04 #@! TO.N,/LED*
X-16929100Y749300D03*
G04 #@! TD*
D20*
G04 #@! TO.P,K1,5*
G04 #@! TO.N,GND*
X-11684000Y-4178300D03*
D21*
G04 #@! TO.P,K1,4*
G04 #@! TO.N,/NRST*
X-12954000Y-4178300D03*
G04 #@! TO.P,K1,3*
G04 #@! TO.N,/SWCLK*
X-14224000Y-4178300D03*
D20*
G04 #@! TO.P,K1,1*
G04 #@! TO.N,+3V3*
X-16764000Y-4178300D03*
D21*
G04 #@! TO.P,K1,2*
G04 #@! TO.N,/SWDIO*
X-15494000Y-4178300D03*
G04 #@! TD*
D22*
G04 #@! TO.P,C9,2*
G04 #@! TO.N,GND*
X-3926840Y4762500D03*
G04 #@! TO.P,C9,1*
G04 #@! TO.N,/VBUS*
X-2423160Y4762500D03*
G04 #@! TD*
D23*
G04 #@! TO.P,U2,3*
G04 #@! TO.N,/VBUS*
X-1692400Y2438400D03*
G04 #@! TO.P,U2,2*
G04 #@! TO.N,+3V3*
X-3692400Y1488400D03*
G04 #@! TO.P,U2,1*
G04 #@! TO.N,GND*
X-3692400Y3388400D03*
G04 #@! TD*
D24*
G04 #@! TO.P,X1,3*
G04 #@! TO.N,GND*
X-3811763Y-3988414D03*
G04 #@! TO.P,X1,1*
G04 #@! TO.N,/OSC_IN*
X-2109963Y-3988414D03*
G04 #@! TO.P,X1,3*
G04 #@! TO.N,GND*
X-2109963Y-1788774D03*
G04 #@! TO.P,X1,2*
G04 #@! TO.N,/OSC_OUT*
X-3811763Y-1788774D03*
G04 #@! TD*
D14*
G04 #@! TO.P,C2,2*
G04 #@! TO.N,GND*
X-2905760Y-279400D03*
G04 #@! TO.P,C2,1*
G04 #@! TO.N,/OSC_OUT*
X-4003040Y-279400D03*
G04 #@! TD*
D25*
G04 #@! TO.P,C4,2*
G04 #@! TO.N,+3V3*
X-5219700Y2009140D03*
G04 #@! TO.P,C4,1*
G04 #@! TO.N,GND*
X-5219700Y911860D03*
G04 #@! TD*
D14*
G04 #@! TO.P,C5,2*
G04 #@! TO.N,+3V3*
X-6436360Y-3492500D03*
G04 #@! TO.P,C5,1*
G04 #@! TO.N,GND*
X-7533640Y-3492500D03*
G04 #@! TD*
G04 #@! TO.P,C6,2*
G04 #@! TO.N,+3V3*
X-12270740Y4470400D03*
G04 #@! TO.P,C6,1*
G04 #@! TO.N,GND*
X-11173460Y4470400D03*
G04 #@! TD*
D25*
G04 #@! TO.P,C7,2*
G04 #@! TO.N,+3V3*
X-13474700Y-2326640D03*
G04 #@! TO.P,C7,1*
G04 #@! TO.N,GND*
X-13474700Y-1229360D03*
G04 #@! TD*
G04 #@! TO.P,C1,2*
G04 #@! TO.N,GND*
X-5207000Y-4307840D03*
G04 #@! TO.P,C1,1*
G04 #@! TO.N,/OSC_IN*
X-5207000Y-3210560D03*
G04 #@! TD*
D14*
G04 #@! TO.P,C3,2*
G04 #@! TO.N,GND*
X-8785860Y-3492500D03*
G04 #@! TO.P,C3,1*
G04 #@! TO.N,/NRST*
X-9883140Y-3492500D03*
G04 #@! TD*
D26*
G04 #@! TO.P,C8,2*
G04 #@! TO.N,GND*
X-5372100Y4823460D03*
G04 #@! TO.P,C8,1*
G04 #@! TO.N,+3V3*
X-5372100Y3319780D03*
G04 #@! TD*
D27*
G04 #@! TO.P,REF\002A\002A,1*
G04 #@! TO.N,Net-(U1-Pad10)*
X-8173720Y4782820D03*
G04 #@! TD*
D28*
G04 #@! TO.N,/D+_PLUG*
X-15372080Y3350258D03*
X-1211580Y-276860D03*
G04 #@! TO.N,/D-_PLUG*
X1016000Y1524000D03*
X-13550222Y4026578D03*
G04 #@! TO.N,/NRST*
X-5130109Y-558109D03*
X-10584180Y-3497580D03*
G04 #@! TO.N,GND*
X-9461500Y419100D03*
X-14348460Y-1262380D03*
G04 #@! TO.N,+3V3*
X-4064000Y2362260D03*
X-14348460Y-2555240D03*
X-12280900Y3225800D03*
G04 #@! TD*
D29*
G04 #@! TO.N,/D+*
X-14813280Y1275080D02*
X-14833600Y1295400D01*
X-14813280Y944880D02*
X-14813280Y1275080D01*
X-13843000Y-25400D02*
X-14813280Y944880D01*
X-12273632Y-4951D02*
X-12471400Y-25400D01*
X-12471400Y-25400D02*
X-13843000Y-25400D01*
G04 #@! TO.N,/D+_PLUG*
X-15209522Y3187700D02*
X-15372080Y3350258D01*
X-14838680Y3187700D02*
X-15209522Y3187700D01*
X-995680Y-347980D02*
X-1140460Y-347980D01*
X0Y-1000000D02*
X-343660Y-1000000D01*
X-343660Y-1000000D02*
X-995680Y-347980D01*
G04 #@! TO.N,/D-*
X-13487400Y787400D02*
X-13487400Y1295400D01*
X-13208000Y508000D02*
X-13487400Y787400D01*
X-12273632Y495429D02*
X-13208000Y495429D01*
X-13208000Y495429D02*
X-13208000Y508000D01*
G04 #@! TO.N,/D-_PLUG*
X0Y1000760D02*
X0Y843280D01*
X-13512800Y3073400D02*
X-13512800Y3841144D01*
X-13512800Y3708400D02*
X-13512800Y3989156D01*
X-13512800Y3989156D02*
X-13550222Y4026578D01*
X0Y1000000D02*
X371600Y1371600D01*
X863600Y1371600D02*
X1016000Y1524000D01*
X371600Y1371600D02*
X863600Y1371600D01*
G04 #@! TO.N,/LED*
X-16827500Y762000D02*
X-16944340Y878840D01*
X-16944340Y878840D02*
X-16944340Y1432560D01*
X-16108682Y2268218D02*
X-14328138Y2268218D01*
X-16944340Y1432560D02*
X-16108682Y2268218D01*
X-14328138Y2268218D02*
X-14056489Y1996569D01*
X-12848942Y1996569D02*
X-12273632Y1996569D01*
X-14056489Y1996569D02*
X-12848942Y1996569D01*
G04 #@! TO.N,/NRST*
X-6721192Y-4951D02*
X-6671663Y-54480D01*
X-5688218Y0D02*
X-5530158Y-158060D01*
X-5530158Y-158060D02*
X-5130109Y-558109D01*
X-5682109Y-4951D02*
X-5671820Y-15240D01*
X-6721192Y-4951D02*
X-5682109Y-4951D01*
X-10805160Y-3261360D02*
X-10551160Y-3515360D01*
X-10551160Y-3515360D02*
X-9860280Y-3515360D01*
X-12268200Y-3261360D02*
X-10805160Y-3261360D01*
X-12971780Y-4236720D02*
X-12971780Y-3964940D01*
X-12971780Y-3964940D02*
X-12268200Y-3261360D01*
G04 #@! TO.N,/OSC_IN*
X-2298700Y-3416300D02*
X-2451986Y-3542413D01*
X-2451986Y-3542413D02*
X-2108200Y-3886200D01*
X-2133600Y-3741805D02*
X-2133600Y-4013200D01*
X-4648200Y-2844800D02*
X-3030605Y-2844800D01*
X-3030605Y-2844800D02*
X-2133600Y-3741805D01*
X-4648200Y-2844800D02*
X-5232400Y-2844800D01*
X-5189220Y-2058001D02*
X-5189220Y-2816860D01*
X-6721192Y-1005711D02*
X-6241510Y-1005711D01*
X-6241510Y-1005711D02*
X-5189220Y-2058001D01*
G04 #@! TO.N,/OSC_OUT*
X-3760963Y-1682094D02*
X-3621263Y-1542394D01*
X-3621263Y-1542394D02*
X-3824463Y-1542394D01*
X-3760963Y-1509374D02*
X-3760963Y-1682094D01*
X-3458703Y-1232514D02*
X-3760963Y-1509374D01*
X-3886200Y-1549400D02*
X-3479800Y-1549400D01*
X-4013200Y-279400D02*
X-4013200Y-1422400D01*
X-4013200Y-1422400D02*
X-3886200Y-1549400D01*
X-3987800Y-1828800D02*
X-3683000Y-1524000D01*
X-4850854Y-1828800D02*
X-3987800Y-1828800D01*
X-5935550Y-744104D02*
X-4850854Y-1828800D01*
X-6680200Y-520700D02*
X-6142942Y-520700D01*
X-6142942Y-520700D02*
X-5935550Y-744104D01*
G04 #@! TO.N,/SWCLK*
X-11498932Y-2505581D02*
X-11498932Y-2280791D01*
X-11557000Y-2476500D02*
X-11493500Y-2540000D01*
X-12245340Y-2476500D02*
X-11557000Y-2476500D01*
X-14213840Y-3967480D02*
X-13952220Y-3705860D01*
X-13952220Y-3705860D02*
X-13944600Y-3705860D01*
X-13510260Y-3271520D02*
X-13040360Y-3271520D01*
X-14213840Y-4165600D02*
X-14213840Y-3967480D01*
X-13944600Y-3705860D02*
X-13510260Y-3271520D01*
X-13040360Y-3271520D02*
X-12245340Y-2476500D01*
G04 #@! TO.N,/SWDIO*
X-15473680Y-4137660D02*
X-15473680Y-4150360D01*
X-15059660Y-797560D02*
X-15059660Y-3723640D01*
X-15059660Y-3723640D02*
X-15473680Y-4137660D01*
X-12273632Y-505331D02*
X-14767431Y-505331D01*
X-14767431Y-505331D02*
X-15059660Y-797560D01*
D30*
G04 #@! TO.N,/VBUS*
X-2262240Y4728580D02*
X-2407920Y4874260D01*
X-322920Y3497580D02*
X-127340Y3302000D01*
X-1661160Y3497580D02*
X-322920Y3497580D01*
X-1667000Y2413000D02*
X-1661160Y2413000D01*
X-1661160Y2413000D02*
X-1661160Y3497580D01*
X-2374900Y4709160D02*
X-2481580Y4815840D01*
X-2481580Y4815840D02*
X-2481580Y4820920D01*
X-1668780Y3403600D02*
X-2374900Y4109720D01*
X-2374900Y4109720D02*
X-2374900Y4709160D01*
X0Y3500120D02*
X-96520Y3403600D01*
X-96520Y3403600D02*
X-1668780Y3403600D01*
D29*
G04 #@! TO.N,GND*
X1200000Y5000000D02*
X1200000Y5023000D01*
X1200000Y5023000D02*
X1016000Y5207000D01*
D31*
X-11201400Y4406900D02*
X-11201400Y4958150D01*
D32*
X-8456012Y1536829D02*
X-8456012Y1500788D01*
X-10538812Y1536829D02*
X-10538812Y1496412D01*
X-10538812Y1496412D02*
X-8534400Y-508000D01*
X-8456012Y1536829D02*
X-8456012Y1475388D01*
X-8456012Y1475388D02*
X-9461500Y469900D01*
X-9461500Y469900D02*
X-9461500Y419100D01*
X-9461500Y419100D02*
X-8547100Y-495300D01*
D29*
X-7645752Y-2280791D02*
X-7640543Y-2286000D01*
X-9499600Y457200D02*
X-9461500Y419100D01*
D32*
X-9499600Y457200D02*
X-10528300Y-571500D01*
X-8456012Y1500788D02*
X-9499600Y457200D01*
D33*
X-6721192Y495429D02*
X-5308471Y495429D01*
D29*
X-2743200Y-203200D02*
X-2692400Y-254000D01*
X-2692400Y-254000D02*
X-2413000Y-254000D01*
X-4418330Y762000D02*
X-2743200Y762000D01*
X-2743200Y762000D02*
X-2743200Y-203200D01*
X-5130800Y924560D02*
X-4580890Y924560D01*
X-4580890Y924560D02*
X-4418330Y762000D01*
D34*
X-2082800Y-1270000D02*
X-2305050Y-1270000D01*
D30*
X-2082800Y-543560D02*
X-2082800Y-1270000D01*
X-2905760Y-279400D02*
X-2346960Y-279400D01*
X-2346960Y-279400D02*
X-2082800Y-543560D01*
D29*
X25400Y-4978400D02*
X25400Y-3429000D01*
X1200000Y-5000000D02*
X25400Y-4978400D01*
D32*
X-4267200Y-4318000D02*
X-5156200Y-4318000D01*
D29*
X-7550150Y-3543300D02*
X-7753350Y-3746500D01*
X-8699500Y-3556000D02*
X-7550150Y-3543300D01*
X-5207000Y591820D02*
X-5207000Y889000D01*
X-5306060Y492760D02*
X-5207000Y591820D01*
D30*
X-11176000Y4508500D02*
X-11262360Y4422140D01*
X-11262360Y4422140D02*
X-11254740Y3380740D01*
D35*
X-12273632Y-1005711D02*
X-12748282Y-1005711D01*
D31*
X-12748282Y-1005711D02*
X-12771271Y-1028700D01*
D35*
X-13436471Y-1114931D02*
X-13434412Y-1114931D01*
X-12748130Y-1015870D02*
X-12816840Y-1003300D01*
X-12988643Y-1160780D02*
X-13482320Y-1160780D01*
X-12738100Y-1005840D02*
X-12748130Y-1015870D01*
X-12804140Y-1000760D02*
X-12988643Y-1160780D01*
X-12816840Y-1003300D02*
X-12804140Y-1000760D01*
X-13482320Y-1160780D02*
X-13436471Y-1114931D01*
D32*
X-11257151Y3271649D02*
X-11148413Y3271649D01*
D31*
X-15798800Y-2311400D02*
X-15770860Y-2283460D01*
X-15770860Y-2283460D02*
X-15770860Y1285240D01*
X-14488160Y1844040D02*
X-14173200Y1529080D01*
X-14173200Y1529080D02*
X-14173200Y1308100D01*
X-15173960Y1844040D02*
X-14488160Y1844040D01*
X-15775940Y1275080D02*
X-15166340Y1844040D01*
D36*
X-4246880Y4823460D02*
X-4259580Y4810760D01*
X-5372100Y4823460D02*
X-4246880Y4823460D01*
D30*
X-3782060Y3545840D02*
X-3672840Y3436620D01*
X-4003040Y4749800D02*
X-3782060Y4528820D01*
X-3672840Y3436620D02*
X-3581400Y3436620D01*
X-3782060Y4528820D02*
X-3782060Y3545840D01*
D29*
X-13434412Y-1114931D02*
X-13581861Y-1262380D01*
X-13581861Y-1262380D02*
X-13782704Y-1262380D01*
X-13782704Y-1262380D02*
X-14348460Y-1262380D01*
X-7550150Y-4184650D02*
X-7550150Y-3543300D01*
X-7668260Y-4302760D02*
X-7550150Y-4184650D01*
X-11638280Y-4163060D02*
X-11498580Y-4302760D01*
X-11498580Y-4302760D02*
X-7668260Y-4302760D01*
D36*
X-7607300Y-2280920D02*
X-7790309Y-2280791D01*
X-7879080Y-2283460D02*
X-7607300Y-2280920D01*
D30*
X-7503160Y-3421380D02*
X-7559040Y-3477260D01*
X-7503160Y-2378487D02*
X-7503160Y-3421380D01*
D29*
X-3942080Y5092700D02*
X-3385820Y5648960D01*
X-3799840Y4826000D02*
X-3942080Y4968240D01*
X-3942080Y4968240D02*
X-3942080Y5092700D01*
X541020Y5681980D02*
X1143000Y5080000D01*
X-3454400Y5582920D02*
X-3355340Y5681980D01*
X-3355340Y5681980D02*
X541020Y5681980D01*
D31*
X-16540480Y5356860D02*
X-16550640Y5346700D01*
X-11188700Y4965700D02*
X-11579860Y5356860D01*
X-11579860Y5356860D02*
X-16540480Y5356860D01*
D29*
X-14729460Y5217160D02*
X-14729460Y5356860D01*
X-15783560Y-3089910D02*
X-16043910Y-3350260D01*
X-15783560Y-2540000D02*
X-15783560Y-3089910D01*
X-17805400Y2141220D02*
X-14729460Y5217160D01*
X-16043910Y-3350260D02*
X-17361664Y-3350260D01*
X-17361664Y-3350260D02*
X-17805400Y-2906524D01*
X-17805400Y-2906524D02*
X-17805400Y2141220D01*
D35*
G04 #@! TO.N,+3V3*
X-12395200Y2654300D02*
X-12242800Y2501900D01*
D30*
X-12395200Y3797300D02*
X-12395200Y2654300D01*
D29*
X-6273800Y-3822700D02*
X-6273800Y-3263900D01*
D35*
X-12273632Y2496949D02*
X-13723749Y2496949D01*
D30*
X-6400800Y-4495800D02*
X-6858000Y-4953000D01*
X-6413500Y-1549400D02*
X-6400800Y-1562100D01*
X-6400800Y-1562100D02*
X-6400800Y-4495800D01*
D37*
X-6451600Y-1549400D02*
X-6413500Y-1549400D01*
D30*
X-5953760Y1430020D02*
X-5953760Y1836420D01*
X-5783580Y2006600D02*
X-5339844Y2006600D01*
X-5953760Y1836420D02*
X-5783580Y2006600D01*
D38*
X-5953760Y1856740D02*
X-5941060Y1869440D01*
X-5953760Y1018540D02*
X-5953760Y1856740D01*
D35*
X-5951091Y995809D02*
X-5941060Y1005840D01*
X-6721192Y995809D02*
X-5951091Y995809D01*
D30*
X-4376420Y1496060D02*
X-3578860Y1496060D01*
X-4902200Y2021840D02*
X-4376420Y1496060D01*
X-5069840Y2021840D02*
X-4902200Y2021840D01*
X-5232400Y3098800D02*
X-5232400Y2184400D01*
X-5232400Y2184400D02*
X-5069840Y2021840D01*
X-3738940Y2362260D02*
X-4064000Y2362260D01*
X-3609340Y1574800D02*
X-3609340Y2232660D01*
X-3609340Y2232660D02*
X-3738940Y2362260D01*
X-12397740Y3850640D02*
X-12395200Y3848100D01*
X-12268200Y4508500D02*
X-12397740Y4378960D01*
X-12397740Y4378960D02*
X-12397740Y3850640D01*
D35*
X-14147800Y2867660D02*
X-14147800Y2997200D01*
X-13777089Y2496949D02*
X-14147800Y2867660D01*
D30*
X-16248380Y-5026660D02*
X-6957060Y-5026660D01*
X-6957060Y-5026660D02*
X-6883400Y-4953000D01*
X-16695420Y-4178300D02*
X-16657320Y-4617720D01*
X-16657320Y-4617720D02*
X-16248380Y-5026660D01*
X-13026871Y-2354580D02*
X-12242800Y-1570509D01*
X-13347700Y-2354580D02*
X-13026871Y-2354580D01*
X-14290040Y-2537460D02*
X-13530580Y-2537460D01*
X-13530580Y-2537460D02*
X-13347700Y-2354580D01*
X-12311380Y3182620D02*
X-12146280Y3182620D01*
X-12395200Y3740756D02*
X-12395200Y3266440D01*
X-12395200Y3266440D02*
X-12311380Y3182620D01*
D29*
G04 #@! TO.N,Net-(D1-Pad1)*
X-16906240Y-2313940D02*
X-16906240Y-904240D01*
G04 #@! TO.N,Net-(U1-Pad10)*
X-7503160Y3854931D02*
X-7495540Y3847311D01*
X-7495892Y4206592D02*
X-7599680Y4310380D01*
X-7495892Y3271649D02*
X-7495892Y4206592D01*
X-7503160Y4213860D02*
X-8107680Y4818380D01*
X-7503160Y4211320D02*
X-7503160Y4213860D01*
G04 #@! TD*
D39*
G04 #@! TO.N,GND*
G36*
X-17322420Y5634920D02*
X-17233920Y5546420D01*
X-16722420Y5546420D01*
X-16722420Y5566420D01*
X-16414420Y5566420D01*
X-16414420Y5546420D01*
X-15902920Y5546420D01*
X-15814420Y5634920D01*
X-15814420Y5692470D01*
X184434Y5692470D01*
X220125Y4826960D01*
X229307Y4789038D01*
X252303Y4757516D01*
X298814Y4733359D01*
X793663Y4625874D01*
X766599Y4598810D01*
X820854Y4466150D01*
X1149682Y4380725D01*
X1486170Y4427638D01*
X1561899Y4459006D01*
X2136471Y4334204D01*
X2136470Y-4522059D01*
X1581578Y-4472096D01*
X1579146Y-4466150D01*
X1250318Y-4380725D01*
X913830Y-4427638D01*
X820854Y-4466150D01*
X786908Y-4549152D01*
X732959Y-4565168D01*
X694581Y-4526790D01*
X623795Y-4597576D01*
X339840Y-4681875D01*
X305321Y-4700064D01*
X280389Y-4730078D01*
X270572Y-4756546D01*
X67601Y-5692470D01*
X-17884470Y-5692470D01*
X-17884470Y-399300D01*
X-17640035Y-399300D01*
X-17640035Y-1099300D01*
X-17612560Y-1237424D01*
X-17534320Y-1354520D01*
X-17417224Y-1432760D01*
X-17360569Y-1444029D01*
X-17360570Y-1849454D01*
X-17399964Y-1857290D01*
X-17517060Y-1935530D01*
X-17595300Y-2052626D01*
X-17622775Y-2190750D01*
X-17622775Y-2889250D01*
X-17595300Y-3027374D01*
X-17517060Y-3144470D01*
X-17399964Y-3222710D01*
X-17261840Y-3250185D01*
X-16499840Y-3250185D01*
X-16361716Y-3222710D01*
X-16332191Y-3202982D01*
X-16234975Y-3243250D01*
X-16026060Y-3243250D01*
X-15937560Y-3154750D01*
X-15937560Y-2694000D01*
X-15957560Y-2694000D01*
X-15957560Y-2386000D01*
X-15937560Y-2386000D01*
X-15937560Y-1925250D01*
X-16026060Y-1836750D01*
X-16234975Y-1836750D01*
X-16332191Y-1877018D01*
X-16361716Y-1857290D01*
X-16451910Y-1839349D01*
X-16451910Y-1434935D01*
X-16440976Y-1432760D01*
X-16323880Y-1354520D01*
X-16245640Y-1237424D01*
X-16218165Y-1099300D01*
X-16218165Y-399300D01*
X-16245640Y-261176D01*
X-16323880Y-144080D01*
X-16440976Y-65840D01*
X-16579100Y-38365D01*
X-17279100Y-38365D01*
X-17417224Y-65840D01*
X-17534320Y-144080D01*
X-17612560Y-261176D01*
X-17640035Y-399300D01*
X-17884470Y-399300D01*
X-17884470Y1099300D01*
X-17640035Y1099300D01*
X-17640035Y399300D01*
X-17612560Y261176D01*
X-17534320Y144080D01*
X-17417224Y65840D01*
X-17279100Y38365D01*
X-16579100Y38365D01*
X-16440976Y65840D01*
X-16323880Y144080D01*
X-16245640Y261176D01*
X-16218165Y399300D01*
X-16218165Y1099300D01*
X-16245640Y1237424D01*
X-16323880Y1354520D01*
X-16357438Y1376943D01*
X-15920493Y1813888D01*
X-15230571Y1813888D01*
X-15265350Y1790650D01*
X-15343590Y1673554D01*
X-15371065Y1535430D01*
X-15371065Y1035050D01*
X-15343590Y896926D01*
X-15265350Y779830D01*
X-15236560Y760593D01*
X-15140833Y617327D01*
X-15102900Y591981D01*
X-14459919Y-51001D01*
X-14722693Y-51001D01*
X-14767432Y-42102D01*
X-14812171Y-51001D01*
X-14812175Y-51001D01*
X-14944701Y-77362D01*
X-14944702Y-77363D01*
X-14944703Y-77363D01*
X-15057053Y-152433D01*
X-15094984Y-177778D01*
X-15120328Y-215709D01*
X-15349280Y-444661D01*
X-15387213Y-470007D01*
X-15487629Y-620291D01*
X-15513990Y-752817D01*
X-15513990Y-752821D01*
X-15522889Y-797560D01*
X-15513990Y-842299D01*
X-15513990Y-1836750D01*
X-15541060Y-1836750D01*
X-15629560Y-1925250D01*
X-15629560Y-2386000D01*
X-15609560Y-2386000D01*
X-15609560Y-2694000D01*
X-15629560Y-2694000D01*
X-15629560Y-3154750D01*
X-15541060Y-3243250D01*
X-15513989Y-3243250D01*
X-15513989Y-3424300D01*
X-15643980Y-3424300D01*
X-15921107Y-3539089D01*
X-16029155Y-3647137D01*
X-16030540Y-3640176D01*
X-16108780Y-3523080D01*
X-16225876Y-3444840D01*
X-16364000Y-3417365D01*
X-17164000Y-3417365D01*
X-17302124Y-3444840D01*
X-17419220Y-3523080D01*
X-17497460Y-3640176D01*
X-17524935Y-3778300D01*
X-17524935Y-4578300D01*
X-17497460Y-4716424D01*
X-17419220Y-4833520D01*
X-17302124Y-4911760D01*
X-17164000Y-4939235D01*
X-17097430Y-4939235D01*
X-17096966Y-4939815D01*
X-17080258Y-4964820D01*
X-17063504Y-4981574D01*
X-17014504Y-5042724D01*
X-16987526Y-5057552D01*
X-16671319Y-5373760D01*
X-16640942Y-5419222D01*
X-16460833Y-5539567D01*
X-16302006Y-5571160D01*
X-16302002Y-5571160D01*
X-16248381Y-5581826D01*
X-16194760Y-5571160D01*
X-7010681Y-5571160D01*
X-6957060Y-5581826D01*
X-6903439Y-5571160D01*
X-6903434Y-5571160D01*
X-6744607Y-5539567D01*
X-6564498Y-5419222D01*
X-6555480Y-5405725D01*
X-6510900Y-5375938D01*
X-6053700Y-4918739D01*
X-6008238Y-4888362D01*
X-5910250Y-4741713D01*
X-5910250Y-4759255D01*
X-5856357Y-4889365D01*
X-5756775Y-4988947D01*
X-5626665Y-5042840D01*
X-5449500Y-5042840D01*
X-5361000Y-4954340D01*
X-5361000Y-4461840D01*
X-5381000Y-4461840D01*
X-5381000Y-4153840D01*
X-5361000Y-4153840D01*
X-5361000Y-4133840D01*
X-5053000Y-4133840D01*
X-5053000Y-4153840D01*
X-5033000Y-4153840D01*
X-5033000Y-4461840D01*
X-5053000Y-4461840D01*
X-5053000Y-4954340D01*
X-4964500Y-5042840D01*
X-4787335Y-5042840D01*
X-4657225Y-4988947D01*
X-4632243Y-4963966D01*
X-4609188Y-4987021D01*
X-4479078Y-5040914D01*
X-4054263Y-5040914D01*
X-3965763Y-4952414D01*
X-3965763Y-4142414D01*
X-3985763Y-4142414D01*
X-3985763Y-3834414D01*
X-3965763Y-3834414D01*
X-3965763Y-3814414D01*
X-3657763Y-3814414D01*
X-3657763Y-3834414D01*
X-3637763Y-3834414D01*
X-3637763Y-4142414D01*
X-3657763Y-4142414D01*
X-3657763Y-4952414D01*
X-3569263Y-5040914D01*
X-3144448Y-5040914D01*
X-3014338Y-4987021D01*
X-2965034Y-4937717D01*
X-2962083Y-4942134D01*
X-2844987Y-5020374D01*
X-2706863Y-5047849D01*
X-1513063Y-5047849D01*
X-1374939Y-5020374D01*
X-1257843Y-4942134D01*
X-1179603Y-4825038D01*
X-1152128Y-4686914D01*
X-1152128Y-3742500D01*
X-1104000Y-3742500D01*
X-1104000Y-4170415D01*
X-1050107Y-4300525D01*
X-950525Y-4400107D01*
X-820415Y-4454000D01*
X-242500Y-4454000D01*
X-154000Y-4365500D01*
X-154000Y-3654000D01*
X154000Y-3654000D01*
X154000Y-4365500D01*
X242500Y-4454000D01*
X820415Y-4454000D01*
X950525Y-4400107D01*
X1050107Y-4300525D01*
X1104000Y-4170415D01*
X1104000Y-3742500D01*
X1015500Y-3654000D01*
X154000Y-3654000D01*
X-154000Y-3654000D01*
X-1015500Y-3654000D01*
X-1104000Y-3742500D01*
X-1152128Y-3742500D01*
X-1152128Y-3289914D01*
X-1179603Y-3151790D01*
X-1257843Y-3034694D01*
X-1374939Y-2956454D01*
X-1513063Y-2928979D01*
X-2303907Y-2928979D01*
X-2391612Y-2841274D01*
X-2352463Y-2841274D01*
X-2263963Y-2752774D01*
X-2263963Y-1942774D01*
X-1955963Y-1942774D01*
X-1955963Y-2752774D01*
X-1867463Y-2841274D01*
X-1442648Y-2841274D01*
X-1414429Y-2829585D01*
X-1104000Y-2829585D01*
X-1104000Y-3257500D01*
X-1015500Y-3346000D01*
X-154000Y-3346000D01*
X-154000Y-2634500D01*
X154000Y-2634500D01*
X154000Y-3346000D01*
X1015500Y-3346000D01*
X1104000Y-3257500D01*
X1104000Y-2829585D01*
X1050107Y-2699475D01*
X950525Y-2599893D01*
X820415Y-2546000D01*
X242500Y-2546000D01*
X154000Y-2634500D01*
X-154000Y-2634500D01*
X-242500Y-2546000D01*
X-820415Y-2546000D01*
X-950525Y-2599893D01*
X-1050107Y-2699475D01*
X-1104000Y-2829585D01*
X-1414429Y-2829585D01*
X-1312538Y-2787381D01*
X-1212956Y-2687799D01*
X-1159063Y-2557689D01*
X-1159063Y-2031274D01*
X-1247563Y-1942774D01*
X-1955963Y-1942774D01*
X-2263963Y-1942774D01*
X-2283963Y-1942774D01*
X-2283963Y-1634774D01*
X-2263963Y-1634774D01*
X-2263963Y-868485D01*
X-2224653Y-829175D01*
X-2170760Y-699065D01*
X-2170760Y-521900D01*
X-2259260Y-433400D01*
X-2751760Y-433400D01*
X-2751760Y-453400D01*
X-3059760Y-453400D01*
X-3059760Y-433400D01*
X-3079760Y-433400D01*
X-3079760Y-126870D01*
X-1965630Y-126870D01*
X-1965630Y-426850D01*
X-1850833Y-703995D01*
X-1818554Y-736274D01*
X-1867463Y-736274D01*
X-1955963Y-824774D01*
X-1955963Y-1634774D01*
X-1247563Y-1634774D01*
X-1159063Y-1546274D01*
X-1159063Y-1030910D01*
X-1110935Y-1030910D01*
X-1110935Y-1300000D01*
X-1060624Y-1552929D01*
X-917352Y-1767352D01*
X-702929Y-1910624D01*
X-450000Y-1960935D01*
X450000Y-1960935D01*
X702929Y-1910624D01*
X917352Y-1767352D01*
X1060624Y-1552929D01*
X1110935Y-1300000D01*
X1110935Y-700000D01*
X1060624Y-447071D01*
X917352Y-232648D01*
X702929Y-89376D01*
X450000Y-39065D01*
X-450000Y-39065D01*
X-490558Y-47133D01*
X-533110Y55597D01*
X-450000Y39065D01*
X450000Y39065D01*
X702929Y89376D01*
X917352Y232648D01*
X1060624Y447071D01*
X1110935Y700000D01*
X1110935Y769950D01*
X1165990Y769950D01*
X1443135Y884747D01*
X1655253Y1096865D01*
X1770050Y1374010D01*
X1770050Y1673990D01*
X1655253Y1951135D01*
X1443135Y2163253D01*
X1165990Y2278050D01*
X866010Y2278050D01*
X588865Y2163253D01*
X386547Y1960935D01*
X-450000Y1960935D01*
X-702929Y1910624D01*
X-917352Y1767352D01*
X-1060624Y1552929D01*
X-1110935Y1300000D01*
X-1110935Y700000D01*
X-1066615Y477190D01*
X-1361570Y477190D01*
X-1638715Y362393D01*
X-1850833Y150275D01*
X-1965630Y-126870D01*
X-3079760Y-126870D01*
X-3079760Y-125400D01*
X-3059760Y-125400D01*
X-3059760Y335350D01*
X-2751760Y335350D01*
X-2751760Y-125400D01*
X-2259260Y-125400D01*
X-2170760Y-36900D01*
X-2170760Y140265D01*
X-2224653Y270375D01*
X-2324235Y369957D01*
X-2454345Y423850D01*
X-2663260Y423850D01*
X-2751760Y335350D01*
X-3059760Y335350D01*
X-3148260Y423850D01*
X-3357175Y423850D01*
X-3454391Y383582D01*
X-3483916Y403310D01*
X-3622040Y430785D01*
X-4384040Y430785D01*
X-4522164Y403310D01*
X-4546986Y386725D01*
X-4516450Y460445D01*
X-4516450Y669360D01*
X-4604950Y757860D01*
X-5065700Y757860D01*
X-5065700Y737860D01*
X-5373700Y737860D01*
X-5373700Y757860D01*
X-5393700Y757860D01*
X-5393700Y1065860D01*
X-5373700Y1065860D01*
X-5373700Y1085860D01*
X-5065700Y1085860D01*
X-5065700Y1065860D01*
X-4712653Y1065860D01*
X-4588873Y983153D01*
X-4478013Y961101D01*
X-4475860Y950276D01*
X-4397620Y833180D01*
X-4280524Y754940D01*
X-4142400Y727465D01*
X-3242400Y727465D01*
X-3104276Y754940D01*
X-2987180Y833180D01*
X-2908940Y950276D01*
X-2881465Y1088400D01*
X-2881465Y1888400D01*
X-2908940Y2026524D01*
X-2987180Y2143620D01*
X-3061948Y2193578D01*
X-3054174Y2232661D01*
X-3064840Y2286282D01*
X-3064840Y2286286D01*
X-3096433Y2445113D01*
X-3216778Y2625222D01*
X-3230514Y2634400D01*
X-3171985Y2634400D01*
X-3041875Y2688293D01*
X-2942293Y2787875D01*
X-2888400Y2917985D01*
X-2888400Y3145900D01*
X-2976900Y3234400D01*
X-3538400Y3234400D01*
X-3538400Y3214400D01*
X-3846400Y3214400D01*
X-3846400Y3234400D01*
X-4407900Y3234400D01*
X-4496400Y3145900D01*
X-4496400Y2996248D01*
X-4510785Y2981863D01*
X-4510785Y3769360D01*
X-4538260Y3907484D01*
X-4573833Y3960724D01*
X-4471710Y3918423D01*
X-4496400Y3858815D01*
X-4496400Y3630900D01*
X-4407900Y3542400D01*
X-3846400Y3542400D01*
X-3846400Y3562400D01*
X-3538400Y3562400D01*
X-3538400Y3542400D01*
X-2976900Y3542400D01*
X-2888400Y3630900D01*
X-2888400Y3858815D01*
X-2908932Y3908384D01*
X-2889239Y3904467D01*
X-2887807Y3897268D01*
X-2767462Y3717158D01*
X-2721998Y3686780D01*
X-2219264Y3184046D01*
X-2280524Y3171860D01*
X-2397620Y3093620D01*
X-2475860Y2976524D01*
X-2503335Y2838400D01*
X-2503335Y2038400D01*
X-2475860Y1900276D01*
X-2397620Y1783180D01*
X-2280524Y1704940D01*
X-2142400Y1677465D01*
X-1242400Y1677465D01*
X-1104276Y1704940D01*
X-987180Y1783180D01*
X-908940Y1900276D01*
X-881465Y2038400D01*
X-881465Y2708789D01*
X-702929Y2589496D01*
X-450000Y2539185D01*
X450000Y2539185D01*
X702929Y2589496D01*
X917352Y2732768D01*
X1060624Y2947191D01*
X1110935Y3200120D01*
X1110935Y3800120D01*
X1060624Y4053049D01*
X917352Y4267472D01*
X702929Y4410744D01*
X450000Y4461055D01*
X-450000Y4461055D01*
X-702929Y4410744D01*
X-917352Y4267472D01*
X-1060624Y4053049D01*
X-1062806Y4042080D01*
X-1537221Y4042080D01*
X-1636639Y4141497D01*
X-1612645Y4262120D01*
X-1612645Y5262880D01*
X-1640120Y5401004D01*
X-1718360Y5518100D01*
X-1835456Y5596340D01*
X-1973580Y5623815D01*
X-2872740Y5623815D01*
X-3010864Y5596340D01*
X-3127960Y5518100D01*
X-3172313Y5451720D01*
X-3177153Y5463405D01*
X-3276735Y5562987D01*
X-3406845Y5616880D01*
X-3684340Y5616880D01*
X-3772840Y5528380D01*
X-3772840Y4916500D01*
X-3752840Y4916500D01*
X-3752840Y4608500D01*
X-3772840Y4608500D01*
X-3772840Y4588500D01*
X-4080840Y4588500D01*
X-4080840Y4608500D01*
X-4545260Y4608500D01*
X-4606220Y4669460D01*
X-5218100Y4669460D01*
X-5218100Y4649460D01*
X-5526100Y4649460D01*
X-5526100Y4669460D01*
X-6137980Y4669460D01*
X-6226480Y4580960D01*
X-6226480Y4303465D01*
X-6172587Y4173355D01*
X-6073005Y4073773D01*
X-6061320Y4068933D01*
X-6127700Y4024580D01*
X-6205940Y3907484D01*
X-6233415Y3769360D01*
X-6233415Y2985241D01*
X-6346542Y3007744D01*
X-6985097Y3007744D01*
X-6985097Y3646299D01*
X-7012572Y3784423D01*
X-7037422Y3821615D01*
X-7032311Y3847312D01*
X-7041562Y3893820D01*
X-7041562Y4161854D01*
X-7032663Y4206593D01*
X-7041562Y4251332D01*
X-7041562Y4251336D01*
X-7067923Y4383862D01*
X-7168339Y4534145D01*
X-7172696Y4537056D01*
X-7175607Y4541413D01*
X-7213537Y4566757D01*
X-7319720Y4672940D01*
X-7319720Y4952691D01*
X-7449734Y5266572D01*
X-7526617Y5343455D01*
X-6226480Y5343455D01*
X-6226480Y5065960D01*
X-6137980Y4977460D01*
X-5526100Y4977460D01*
X-5526100Y5538540D01*
X-5218100Y5538540D01*
X-5218100Y4977460D01*
X-4702880Y4977460D01*
X-4641920Y4916500D01*
X-4080840Y4916500D01*
X-4080840Y5528380D01*
X-4169340Y5616880D01*
X-4446835Y5616880D01*
X-4576945Y5562987D01*
X-4618990Y5520942D01*
X-4671195Y5573147D01*
X-4801305Y5627040D01*
X-5129600Y5627040D01*
X-5218100Y5538540D01*
X-5526100Y5538540D01*
X-5614600Y5627040D01*
X-5942895Y5627040D01*
X-6073005Y5573147D01*
X-6172587Y5473565D01*
X-6226480Y5343455D01*
X-7526617Y5343455D01*
X-7689968Y5506806D01*
X-8003849Y5636820D01*
X-8343591Y5636820D01*
X-8657472Y5506806D01*
X-8897706Y5266572D01*
X-9027720Y4952691D01*
X-9027720Y4612949D01*
X-8897706Y4299068D01*
X-8657472Y4058834D01*
X-8532899Y4007234D01*
X-8646512Y4007234D01*
X-8746842Y3987277D01*
X-8847172Y4007234D01*
X-9146892Y4007234D01*
X-9247222Y3987277D01*
X-9347552Y4007234D01*
X-9647272Y4007234D01*
X-9747602Y3987277D01*
X-9847932Y4007234D01*
X-10147652Y4007234D01*
X-10247982Y3987277D01*
X-10348312Y4007234D01*
X-10456479Y4007234D01*
X-10438460Y4050735D01*
X-10438460Y4227900D01*
X-10526960Y4316400D01*
X-11019460Y4316400D01*
X-11019460Y4296400D01*
X-11327460Y4296400D01*
X-11327460Y4316400D01*
X-11347460Y4316400D01*
X-11347460Y4624400D01*
X-11327460Y4624400D01*
X-11327460Y5085150D01*
X-11019460Y5085150D01*
X-11019460Y4624400D01*
X-10526960Y4624400D01*
X-10438460Y4712900D01*
X-10438460Y4890065D01*
X-10492353Y5020175D01*
X-10591935Y5119757D01*
X-10722045Y5173650D01*
X-10930960Y5173650D01*
X-11019460Y5085150D01*
X-11327460Y5085150D01*
X-11415960Y5173650D01*
X-11624875Y5173650D01*
X-11722091Y5133382D01*
X-11751616Y5153110D01*
X-11889740Y5180585D01*
X-12651740Y5180585D01*
X-12789864Y5153110D01*
X-12906960Y5074870D01*
X-12985200Y4957774D01*
X-13012675Y4819650D01*
X-13012675Y4555419D01*
X-13123087Y4665831D01*
X-13400232Y4780628D01*
X-13700212Y4780628D01*
X-13977357Y4665831D01*
X-14189475Y4453713D01*
X-14304272Y4176568D01*
X-14304272Y3876588D01*
X-14271009Y3796285D01*
X-14359890Y3796285D01*
X-14485620Y3771275D01*
X-14611350Y3796285D01*
X-14751719Y3796285D01*
X-14944945Y3989511D01*
X-15222090Y4104308D01*
X-15522070Y4104308D01*
X-15799215Y3989511D01*
X-16011333Y3777393D01*
X-16126130Y3500248D01*
X-16126130Y3200268D01*
X-16011333Y2923123D01*
X-15810758Y2722548D01*
X-16063943Y2722548D01*
X-16108682Y2731447D01*
X-16153421Y2722548D01*
X-16153426Y2722548D01*
X-16285952Y2696187D01*
X-16436235Y2595771D01*
X-16461581Y2557838D01*
X-17233962Y1785457D01*
X-17271892Y1760113D01*
X-17297236Y1722183D01*
X-17297238Y1722181D01*
X-17369496Y1614038D01*
X-17372308Y1609830D01*
X-17389942Y1521175D01*
X-17407130Y1434768D01*
X-17417224Y1432760D01*
X-17534320Y1354520D01*
X-17612560Y1237424D01*
X-17640035Y1099300D01*
X-17884470Y1099300D01*
X-17884470Y5149920D01*
X-17322420Y5149920D01*
X-17322420Y4922005D01*
X-17268527Y4791895D01*
X-17168945Y4692313D01*
X-17038835Y4638420D01*
X-16810920Y4638420D01*
X-16722420Y4726920D01*
X-16722420Y5238420D01*
X-16414420Y5238420D01*
X-16414420Y4726920D01*
X-16325920Y4638420D01*
X-16098005Y4638420D01*
X-15967895Y4692313D01*
X-15868313Y4791895D01*
X-15814420Y4922005D01*
X-15814420Y5149920D01*
X-15902920Y5238420D01*
X-16414420Y5238420D01*
X-16722420Y5238420D01*
X-17233920Y5238420D01*
X-17322420Y5149920D01*
X-17884470Y5149920D01*
X-17884470Y5692470D01*
X-17322420Y5692470D01*
X-17322420Y5634920D01*
X-17322420Y5634920D01*
G37*
X-17322420Y5634920D02*
X-17233920Y5546420D01*
X-16722420Y5546420D01*
X-16722420Y5566420D01*
X-16414420Y5566420D01*
X-16414420Y5546420D01*
X-15902920Y5546420D01*
X-15814420Y5634920D01*
X-15814420Y5692470D01*
X184434Y5692470D01*
X220125Y4826960D01*
X229307Y4789038D01*
X252303Y4757516D01*
X298814Y4733359D01*
X793663Y4625874D01*
X766599Y4598810D01*
X820854Y4466150D01*
X1149682Y4380725D01*
X1486170Y4427638D01*
X1561899Y4459006D01*
X2136471Y4334204D01*
X2136470Y-4522059D01*
X1581578Y-4472096D01*
X1579146Y-4466150D01*
X1250318Y-4380725D01*
X913830Y-4427638D01*
X820854Y-4466150D01*
X786908Y-4549152D01*
X732959Y-4565168D01*
X694581Y-4526790D01*
X623795Y-4597576D01*
X339840Y-4681875D01*
X305321Y-4700064D01*
X280389Y-4730078D01*
X270572Y-4756546D01*
X67601Y-5692470D01*
X-17884470Y-5692470D01*
X-17884470Y-399300D01*
X-17640035Y-399300D01*
X-17640035Y-1099300D01*
X-17612560Y-1237424D01*
X-17534320Y-1354520D01*
X-17417224Y-1432760D01*
X-17360569Y-1444029D01*
X-17360570Y-1849454D01*
X-17399964Y-1857290D01*
X-17517060Y-1935530D01*
X-17595300Y-2052626D01*
X-17622775Y-2190750D01*
X-17622775Y-2889250D01*
X-17595300Y-3027374D01*
X-17517060Y-3144470D01*
X-17399964Y-3222710D01*
X-17261840Y-3250185D01*
X-16499840Y-3250185D01*
X-16361716Y-3222710D01*
X-16332191Y-3202982D01*
X-16234975Y-3243250D01*
X-16026060Y-3243250D01*
X-15937560Y-3154750D01*
X-15937560Y-2694000D01*
X-15957560Y-2694000D01*
X-15957560Y-2386000D01*
X-15937560Y-2386000D01*
X-15937560Y-1925250D01*
X-16026060Y-1836750D01*
X-16234975Y-1836750D01*
X-16332191Y-1877018D01*
X-16361716Y-1857290D01*
X-16451910Y-1839349D01*
X-16451910Y-1434935D01*
X-16440976Y-1432760D01*
X-16323880Y-1354520D01*
X-16245640Y-1237424D01*
X-16218165Y-1099300D01*
X-16218165Y-399300D01*
X-16245640Y-261176D01*
X-16323880Y-144080D01*
X-16440976Y-65840D01*
X-16579100Y-38365D01*
X-17279100Y-38365D01*
X-17417224Y-65840D01*
X-17534320Y-144080D01*
X-17612560Y-261176D01*
X-17640035Y-399300D01*
X-17884470Y-399300D01*
X-17884470Y1099300D01*
X-17640035Y1099300D01*
X-17640035Y399300D01*
X-17612560Y261176D01*
X-17534320Y144080D01*
X-17417224Y65840D01*
X-17279100Y38365D01*
X-16579100Y38365D01*
X-16440976Y65840D01*
X-16323880Y144080D01*
X-16245640Y261176D01*
X-16218165Y399300D01*
X-16218165Y1099300D01*
X-16245640Y1237424D01*
X-16323880Y1354520D01*
X-16357438Y1376943D01*
X-15920493Y1813888D01*
X-15230571Y1813888D01*
X-15265350Y1790650D01*
X-15343590Y1673554D01*
X-15371065Y1535430D01*
X-15371065Y1035050D01*
X-15343590Y896926D01*
X-15265350Y779830D01*
X-15236560Y760593D01*
X-15140833Y617327D01*
X-15102900Y591981D01*
X-14459919Y-51001D01*
X-14722693Y-51001D01*
X-14767432Y-42102D01*
X-14812171Y-51001D01*
X-14812175Y-51001D01*
X-14944701Y-77362D01*
X-14944702Y-77363D01*
X-14944703Y-77363D01*
X-15057053Y-152433D01*
X-15094984Y-177778D01*
X-15120328Y-215709D01*
X-15349280Y-444661D01*
X-15387213Y-470007D01*
X-15487629Y-620291D01*
X-15513990Y-752817D01*
X-15513990Y-752821D01*
X-15522889Y-797560D01*
X-15513990Y-842299D01*
X-15513990Y-1836750D01*
X-15541060Y-1836750D01*
X-15629560Y-1925250D01*
X-15629560Y-2386000D01*
X-15609560Y-2386000D01*
X-15609560Y-2694000D01*
X-15629560Y-2694000D01*
X-15629560Y-3154750D01*
X-15541060Y-3243250D01*
X-15513989Y-3243250D01*
X-15513989Y-3424300D01*
X-15643980Y-3424300D01*
X-15921107Y-3539089D01*
X-16029155Y-3647137D01*
X-16030540Y-3640176D01*
X-16108780Y-3523080D01*
X-16225876Y-3444840D01*
X-16364000Y-3417365D01*
X-17164000Y-3417365D01*
X-17302124Y-3444840D01*
X-17419220Y-3523080D01*
X-17497460Y-3640176D01*
X-17524935Y-3778300D01*
X-17524935Y-4578300D01*
X-17497460Y-4716424D01*
X-17419220Y-4833520D01*
X-17302124Y-4911760D01*
X-17164000Y-4939235D01*
X-17097430Y-4939235D01*
X-17096966Y-4939815D01*
X-17080258Y-4964820D01*
X-17063504Y-4981574D01*
X-17014504Y-5042724D01*
X-16987526Y-5057552D01*
X-16671319Y-5373760D01*
X-16640942Y-5419222D01*
X-16460833Y-5539567D01*
X-16302006Y-5571160D01*
X-16302002Y-5571160D01*
X-16248381Y-5581826D01*
X-16194760Y-5571160D01*
X-7010681Y-5571160D01*
X-6957060Y-5581826D01*
X-6903439Y-5571160D01*
X-6903434Y-5571160D01*
X-6744607Y-5539567D01*
X-6564498Y-5419222D01*
X-6555480Y-5405725D01*
X-6510900Y-5375938D01*
X-6053700Y-4918739D01*
X-6008238Y-4888362D01*
X-5910250Y-4741713D01*
X-5910250Y-4759255D01*
X-5856357Y-4889365D01*
X-5756775Y-4988947D01*
X-5626665Y-5042840D01*
X-5449500Y-5042840D01*
X-5361000Y-4954340D01*
X-5361000Y-4461840D01*
X-5381000Y-4461840D01*
X-5381000Y-4153840D01*
X-5361000Y-4153840D01*
X-5361000Y-4133840D01*
X-5053000Y-4133840D01*
X-5053000Y-4153840D01*
X-5033000Y-4153840D01*
X-5033000Y-4461840D01*
X-5053000Y-4461840D01*
X-5053000Y-4954340D01*
X-4964500Y-5042840D01*
X-4787335Y-5042840D01*
X-4657225Y-4988947D01*
X-4632243Y-4963966D01*
X-4609188Y-4987021D01*
X-4479078Y-5040914D01*
X-4054263Y-5040914D01*
X-3965763Y-4952414D01*
X-3965763Y-4142414D01*
X-3985763Y-4142414D01*
X-3985763Y-3834414D01*
X-3965763Y-3834414D01*
X-3965763Y-3814414D01*
X-3657763Y-3814414D01*
X-3657763Y-3834414D01*
X-3637763Y-3834414D01*
X-3637763Y-4142414D01*
X-3657763Y-4142414D01*
X-3657763Y-4952414D01*
X-3569263Y-5040914D01*
X-3144448Y-5040914D01*
X-3014338Y-4987021D01*
X-2965034Y-4937717D01*
X-2962083Y-4942134D01*
X-2844987Y-5020374D01*
X-2706863Y-5047849D01*
X-1513063Y-5047849D01*
X-1374939Y-5020374D01*
X-1257843Y-4942134D01*
X-1179603Y-4825038D01*
X-1152128Y-4686914D01*
X-1152128Y-3742500D01*
X-1104000Y-3742500D01*
X-1104000Y-4170415D01*
X-1050107Y-4300525D01*
X-950525Y-4400107D01*
X-820415Y-4454000D01*
X-242500Y-4454000D01*
X-154000Y-4365500D01*
X-154000Y-3654000D01*
X154000Y-3654000D01*
X154000Y-4365500D01*
X242500Y-4454000D01*
X820415Y-4454000D01*
X950525Y-4400107D01*
X1050107Y-4300525D01*
X1104000Y-4170415D01*
X1104000Y-3742500D01*
X1015500Y-3654000D01*
X154000Y-3654000D01*
X-154000Y-3654000D01*
X-1015500Y-3654000D01*
X-1104000Y-3742500D01*
X-1152128Y-3742500D01*
X-1152128Y-3289914D01*
X-1179603Y-3151790D01*
X-1257843Y-3034694D01*
X-1374939Y-2956454D01*
X-1513063Y-2928979D01*
X-2303907Y-2928979D01*
X-2391612Y-2841274D01*
X-2352463Y-2841274D01*
X-2263963Y-2752774D01*
X-2263963Y-1942774D01*
X-1955963Y-1942774D01*
X-1955963Y-2752774D01*
X-1867463Y-2841274D01*
X-1442648Y-2841274D01*
X-1414429Y-2829585D01*
X-1104000Y-2829585D01*
X-1104000Y-3257500D01*
X-1015500Y-3346000D01*
X-154000Y-3346000D01*
X-154000Y-2634500D01*
X154000Y-2634500D01*
X154000Y-3346000D01*
X1015500Y-3346000D01*
X1104000Y-3257500D01*
X1104000Y-2829585D01*
X1050107Y-2699475D01*
X950525Y-2599893D01*
X820415Y-2546000D01*
X242500Y-2546000D01*
X154000Y-2634500D01*
X-154000Y-2634500D01*
X-242500Y-2546000D01*
X-820415Y-2546000D01*
X-950525Y-2599893D01*
X-1050107Y-2699475D01*
X-1104000Y-2829585D01*
X-1414429Y-2829585D01*
X-1312538Y-2787381D01*
X-1212956Y-2687799D01*
X-1159063Y-2557689D01*
X-1159063Y-2031274D01*
X-1247563Y-1942774D01*
X-1955963Y-1942774D01*
X-2263963Y-1942774D01*
X-2283963Y-1942774D01*
X-2283963Y-1634774D01*
X-2263963Y-1634774D01*
X-2263963Y-868485D01*
X-2224653Y-829175D01*
X-2170760Y-699065D01*
X-2170760Y-521900D01*
X-2259260Y-433400D01*
X-2751760Y-433400D01*
X-2751760Y-453400D01*
X-3059760Y-453400D01*
X-3059760Y-433400D01*
X-3079760Y-433400D01*
X-3079760Y-126870D01*
X-1965630Y-126870D01*
X-1965630Y-426850D01*
X-1850833Y-703995D01*
X-1818554Y-736274D01*
X-1867463Y-736274D01*
X-1955963Y-824774D01*
X-1955963Y-1634774D01*
X-1247563Y-1634774D01*
X-1159063Y-1546274D01*
X-1159063Y-1030910D01*
X-1110935Y-1030910D01*
X-1110935Y-1300000D01*
X-1060624Y-1552929D01*
X-917352Y-1767352D01*
X-702929Y-1910624D01*
X-450000Y-1960935D01*
X450000Y-1960935D01*
X702929Y-1910624D01*
X917352Y-1767352D01*
X1060624Y-1552929D01*
X1110935Y-1300000D01*
X1110935Y-700000D01*
X1060624Y-447071D01*
X917352Y-232648D01*
X702929Y-89376D01*
X450000Y-39065D01*
X-450000Y-39065D01*
X-490558Y-47133D01*
X-533110Y55597D01*
X-450000Y39065D01*
X450000Y39065D01*
X702929Y89376D01*
X917352Y232648D01*
X1060624Y447071D01*
X1110935Y700000D01*
X1110935Y769950D01*
X1165990Y769950D01*
X1443135Y884747D01*
X1655253Y1096865D01*
X1770050Y1374010D01*
X1770050Y1673990D01*
X1655253Y1951135D01*
X1443135Y2163253D01*
X1165990Y2278050D01*
X866010Y2278050D01*
X588865Y2163253D01*
X386547Y1960935D01*
X-450000Y1960935D01*
X-702929Y1910624D01*
X-917352Y1767352D01*
X-1060624Y1552929D01*
X-1110935Y1300000D01*
X-1110935Y700000D01*
X-1066615Y477190D01*
X-1361570Y477190D01*
X-1638715Y362393D01*
X-1850833Y150275D01*
X-1965630Y-126870D01*
X-3079760Y-126870D01*
X-3079760Y-125400D01*
X-3059760Y-125400D01*
X-3059760Y335350D01*
X-2751760Y335350D01*
X-2751760Y-125400D01*
X-2259260Y-125400D01*
X-2170760Y-36900D01*
X-2170760Y140265D01*
X-2224653Y270375D01*
X-2324235Y369957D01*
X-2454345Y423850D01*
X-2663260Y423850D01*
X-2751760Y335350D01*
X-3059760Y335350D01*
X-3148260Y423850D01*
X-3357175Y423850D01*
X-3454391Y383582D01*
X-3483916Y403310D01*
X-3622040Y430785D01*
X-4384040Y430785D01*
X-4522164Y403310D01*
X-4546986Y386725D01*
X-4516450Y460445D01*
X-4516450Y669360D01*
X-4604950Y757860D01*
X-5065700Y757860D01*
X-5065700Y737860D01*
X-5373700Y737860D01*
X-5373700Y757860D01*
X-5393700Y757860D01*
X-5393700Y1065860D01*
X-5373700Y1065860D01*
X-5373700Y1085860D01*
X-5065700Y1085860D01*
X-5065700Y1065860D01*
X-4712653Y1065860D01*
X-4588873Y983153D01*
X-4478013Y961101D01*
X-4475860Y950276D01*
X-4397620Y833180D01*
X-4280524Y754940D01*
X-4142400Y727465D01*
X-3242400Y727465D01*
X-3104276Y754940D01*
X-2987180Y833180D01*
X-2908940Y950276D01*
X-2881465Y1088400D01*
X-2881465Y1888400D01*
X-2908940Y2026524D01*
X-2987180Y2143620D01*
X-3061948Y2193578D01*
X-3054174Y2232661D01*
X-3064840Y2286282D01*
X-3064840Y2286286D01*
X-3096433Y2445113D01*
X-3216778Y2625222D01*
X-3230514Y2634400D01*
X-3171985Y2634400D01*
X-3041875Y2688293D01*
X-2942293Y2787875D01*
X-2888400Y2917985D01*
X-2888400Y3145900D01*
X-2976900Y3234400D01*
X-3538400Y3234400D01*
X-3538400Y3214400D01*
X-3846400Y3214400D01*
X-3846400Y3234400D01*
X-4407900Y3234400D01*
X-4496400Y3145900D01*
X-4496400Y2996248D01*
X-4510785Y2981863D01*
X-4510785Y3769360D01*
X-4538260Y3907484D01*
X-4573833Y3960724D01*
X-4471710Y3918423D01*
X-4496400Y3858815D01*
X-4496400Y3630900D01*
X-4407900Y3542400D01*
X-3846400Y3542400D01*
X-3846400Y3562400D01*
X-3538400Y3562400D01*
X-3538400Y3542400D01*
X-2976900Y3542400D01*
X-2888400Y3630900D01*
X-2888400Y3858815D01*
X-2908932Y3908384D01*
X-2889239Y3904467D01*
X-2887807Y3897268D01*
X-2767462Y3717158D01*
X-2721998Y3686780D01*
X-2219264Y3184046D01*
X-2280524Y3171860D01*
X-2397620Y3093620D01*
X-2475860Y2976524D01*
X-2503335Y2838400D01*
X-2503335Y2038400D01*
X-2475860Y1900276D01*
X-2397620Y1783180D01*
X-2280524Y1704940D01*
X-2142400Y1677465D01*
X-1242400Y1677465D01*
X-1104276Y1704940D01*
X-987180Y1783180D01*
X-908940Y1900276D01*
X-881465Y2038400D01*
X-881465Y2708789D01*
X-702929Y2589496D01*
X-450000Y2539185D01*
X450000Y2539185D01*
X702929Y2589496D01*
X917352Y2732768D01*
X1060624Y2947191D01*
X1110935Y3200120D01*
X1110935Y3800120D01*
X1060624Y4053049D01*
X917352Y4267472D01*
X702929Y4410744D01*
X450000Y4461055D01*
X-450000Y4461055D01*
X-702929Y4410744D01*
X-917352Y4267472D01*
X-1060624Y4053049D01*
X-1062806Y4042080D01*
X-1537221Y4042080D01*
X-1636639Y4141497D01*
X-1612645Y4262120D01*
X-1612645Y5262880D01*
X-1640120Y5401004D01*
X-1718360Y5518100D01*
X-1835456Y5596340D01*
X-1973580Y5623815D01*
X-2872740Y5623815D01*
X-3010864Y5596340D01*
X-3127960Y5518100D01*
X-3172313Y5451720D01*
X-3177153Y5463405D01*
X-3276735Y5562987D01*
X-3406845Y5616880D01*
X-3684340Y5616880D01*
X-3772840Y5528380D01*
X-3772840Y4916500D01*
X-3752840Y4916500D01*
X-3752840Y4608500D01*
X-3772840Y4608500D01*
X-3772840Y4588500D01*
X-4080840Y4588500D01*
X-4080840Y4608500D01*
X-4545260Y4608500D01*
X-4606220Y4669460D01*
X-5218100Y4669460D01*
X-5218100Y4649460D01*
X-5526100Y4649460D01*
X-5526100Y4669460D01*
X-6137980Y4669460D01*
X-6226480Y4580960D01*
X-6226480Y4303465D01*
X-6172587Y4173355D01*
X-6073005Y4073773D01*
X-6061320Y4068933D01*
X-6127700Y4024580D01*
X-6205940Y3907484D01*
X-6233415Y3769360D01*
X-6233415Y2985241D01*
X-6346542Y3007744D01*
X-6985097Y3007744D01*
X-6985097Y3646299D01*
X-7012572Y3784423D01*
X-7037422Y3821615D01*
X-7032311Y3847312D01*
X-7041562Y3893820D01*
X-7041562Y4161854D01*
X-7032663Y4206593D01*
X-7041562Y4251332D01*
X-7041562Y4251336D01*
X-7067923Y4383862D01*
X-7168339Y4534145D01*
X-7172696Y4537056D01*
X-7175607Y4541413D01*
X-7213537Y4566757D01*
X-7319720Y4672940D01*
X-7319720Y4952691D01*
X-7449734Y5266572D01*
X-7526617Y5343455D01*
X-6226480Y5343455D01*
X-6226480Y5065960D01*
X-6137980Y4977460D01*
X-5526100Y4977460D01*
X-5526100Y5538540D01*
X-5218100Y5538540D01*
X-5218100Y4977460D01*
X-4702880Y4977460D01*
X-4641920Y4916500D01*
X-4080840Y4916500D01*
X-4080840Y5528380D01*
X-4169340Y5616880D01*
X-4446835Y5616880D01*
X-4576945Y5562987D01*
X-4618990Y5520942D01*
X-4671195Y5573147D01*
X-4801305Y5627040D01*
X-5129600Y5627040D01*
X-5218100Y5538540D01*
X-5526100Y5538540D01*
X-5614600Y5627040D01*
X-5942895Y5627040D01*
X-6073005Y5573147D01*
X-6172587Y5473565D01*
X-6226480Y5343455D01*
X-7526617Y5343455D01*
X-7689968Y5506806D01*
X-8003849Y5636820D01*
X-8343591Y5636820D01*
X-8657472Y5506806D01*
X-8897706Y5266572D01*
X-9027720Y4952691D01*
X-9027720Y4612949D01*
X-8897706Y4299068D01*
X-8657472Y4058834D01*
X-8532899Y4007234D01*
X-8646512Y4007234D01*
X-8746842Y3987277D01*
X-8847172Y4007234D01*
X-9146892Y4007234D01*
X-9247222Y3987277D01*
X-9347552Y4007234D01*
X-9647272Y4007234D01*
X-9747602Y3987277D01*
X-9847932Y4007234D01*
X-10147652Y4007234D01*
X-10247982Y3987277D01*
X-10348312Y4007234D01*
X-10456479Y4007234D01*
X-10438460Y4050735D01*
X-10438460Y4227900D01*
X-10526960Y4316400D01*
X-11019460Y4316400D01*
X-11019460Y4296400D01*
X-11327460Y4296400D01*
X-11327460Y4316400D01*
X-11347460Y4316400D01*
X-11347460Y4624400D01*
X-11327460Y4624400D01*
X-11327460Y5085150D01*
X-11019460Y5085150D01*
X-11019460Y4624400D01*
X-10526960Y4624400D01*
X-10438460Y4712900D01*
X-10438460Y4890065D01*
X-10492353Y5020175D01*
X-10591935Y5119757D01*
X-10722045Y5173650D01*
X-10930960Y5173650D01*
X-11019460Y5085150D01*
X-11327460Y5085150D01*
X-11415960Y5173650D01*
X-11624875Y5173650D01*
X-11722091Y5133382D01*
X-11751616Y5153110D01*
X-11889740Y5180585D01*
X-12651740Y5180585D01*
X-12789864Y5153110D01*
X-12906960Y5074870D01*
X-12985200Y4957774D01*
X-13012675Y4819650D01*
X-13012675Y4555419D01*
X-13123087Y4665831D01*
X-13400232Y4780628D01*
X-13700212Y4780628D01*
X-13977357Y4665831D01*
X-14189475Y4453713D01*
X-14304272Y4176568D01*
X-14304272Y3876588D01*
X-14271009Y3796285D01*
X-14359890Y3796285D01*
X-14485620Y3771275D01*
X-14611350Y3796285D01*
X-14751719Y3796285D01*
X-14944945Y3989511D01*
X-15222090Y4104308D01*
X-15522070Y4104308D01*
X-15799215Y3989511D01*
X-16011333Y3777393D01*
X-16126130Y3500248D01*
X-16126130Y3200268D01*
X-16011333Y2923123D01*
X-15810758Y2722548D01*
X-16063943Y2722548D01*
X-16108682Y2731447D01*
X-16153421Y2722548D01*
X-16153426Y2722548D01*
X-16285952Y2696187D01*
X-16436235Y2595771D01*
X-16461581Y2557838D01*
X-17233962Y1785457D01*
X-17271892Y1760113D01*
X-17297236Y1722183D01*
X-17297238Y1722181D01*
X-17369496Y1614038D01*
X-17372308Y1609830D01*
X-17389942Y1521175D01*
X-17407130Y1434768D01*
X-17417224Y1432760D01*
X-17534320Y1354520D01*
X-17612560Y1237424D01*
X-17640035Y1099300D01*
X-17884470Y1099300D01*
X-17884470Y5149920D01*
X-17322420Y5149920D01*
X-17322420Y4922005D01*
X-17268527Y4791895D01*
X-17168945Y4692313D01*
X-17038835Y4638420D01*
X-16810920Y4638420D01*
X-16722420Y4726920D01*
X-16722420Y5238420D01*
X-16414420Y5238420D01*
X-16414420Y4726920D01*
X-16325920Y4638420D01*
X-16098005Y4638420D01*
X-15967895Y4692313D01*
X-15868313Y4791895D01*
X-15814420Y4922005D01*
X-15814420Y5149920D01*
X-15902920Y5238420D01*
X-16414420Y5238420D01*
X-16722420Y5238420D01*
X-17233920Y5238420D01*
X-17322420Y5149920D01*
X-17884470Y5149920D01*
X-17884470Y5692470D01*
X-17322420Y5692470D01*
X-17322420Y5634920D01*
G36*
X-8631860Y-3338500D02*
X-7687640Y-3338500D01*
X-7687640Y-3318500D01*
X-7379640Y-3318500D01*
X-7379640Y-3338500D01*
X-7359640Y-3338500D01*
X-7359640Y-3646500D01*
X-7379640Y-3646500D01*
X-7379640Y-4107250D01*
X-7291140Y-4195750D01*
X-7082225Y-4195750D01*
X-6985009Y-4155482D01*
X-6955484Y-4175210D01*
X-6945299Y-4177236D01*
X-6945299Y-4270260D01*
X-7153954Y-4478916D01*
X-7158809Y-4482160D01*
X-10930000Y-4482160D01*
X-10930000Y-4420800D01*
X-11018500Y-4332300D01*
X-11530000Y-4332300D01*
X-11530000Y-4352300D01*
X-11838000Y-4352300D01*
X-11838000Y-4332300D01*
X-11858000Y-4332300D01*
X-11858000Y-4024300D01*
X-11838000Y-4024300D01*
X-11838000Y-4004300D01*
X-11530000Y-4004300D01*
X-11530000Y-4024300D01*
X-11123848Y-4024300D01*
X-11011315Y-4136833D01*
X-10734170Y-4251630D01*
X-10434190Y-4251630D01*
X-10299193Y-4195712D01*
X-10264140Y-4202685D01*
X-9502140Y-4202685D01*
X-9364016Y-4175210D01*
X-9334491Y-4155482D01*
X-9237275Y-4195750D01*
X-9028360Y-4195750D01*
X-8939860Y-4107250D01*
X-8939860Y-3646500D01*
X-8631860Y-3646500D01*
X-8631860Y-4107250D01*
X-8543360Y-4195750D01*
X-8334445Y-4195750D01*
X-8204335Y-4141857D01*
X-8159750Y-4097272D01*
X-8115165Y-4141857D01*
X-7985055Y-4195750D01*
X-7776140Y-4195750D01*
X-7687640Y-4107250D01*
X-7687640Y-3646500D01*
X-8631860Y-3646500D01*
X-8939860Y-3646500D01*
X-8959860Y-3646500D01*
X-8959860Y-3338500D01*
X-8939860Y-3338500D01*
X-8939860Y-3318500D01*
X-8631860Y-3318500D01*
X-8631860Y-3338500D01*
X-8631860Y-3338500D01*
G37*
X-8631860Y-3338500D02*
X-7687640Y-3338500D01*
X-7687640Y-3318500D01*
X-7379640Y-3318500D01*
X-7379640Y-3338500D01*
X-7359640Y-3338500D01*
X-7359640Y-3646500D01*
X-7379640Y-3646500D01*
X-7379640Y-4107250D01*
X-7291140Y-4195750D01*
X-7082225Y-4195750D01*
X-6985009Y-4155482D01*
X-6955484Y-4175210D01*
X-6945299Y-4177236D01*
X-6945299Y-4270260D01*
X-7153954Y-4478916D01*
X-7158809Y-4482160D01*
X-10930000Y-4482160D01*
X-10930000Y-4420800D01*
X-11018500Y-4332300D01*
X-11530000Y-4332300D01*
X-11530000Y-4352300D01*
X-11838000Y-4352300D01*
X-11838000Y-4332300D01*
X-11858000Y-4332300D01*
X-11858000Y-4024300D01*
X-11838000Y-4024300D01*
X-11838000Y-4004300D01*
X-11530000Y-4004300D01*
X-11530000Y-4024300D01*
X-11123848Y-4024300D01*
X-11011315Y-4136833D01*
X-10734170Y-4251630D01*
X-10434190Y-4251630D01*
X-10299193Y-4195712D01*
X-10264140Y-4202685D01*
X-9502140Y-4202685D01*
X-9364016Y-4175210D01*
X-9334491Y-4155482D01*
X-9237275Y-4195750D01*
X-9028360Y-4195750D01*
X-8939860Y-4107250D01*
X-8939860Y-3646500D01*
X-8631860Y-3646500D01*
X-8631860Y-4107250D01*
X-8543360Y-4195750D01*
X-8334445Y-4195750D01*
X-8204335Y-4141857D01*
X-8159750Y-4097272D01*
X-8115165Y-4141857D01*
X-7985055Y-4195750D01*
X-7776140Y-4195750D01*
X-7687640Y-4107250D01*
X-7687640Y-3646500D01*
X-8631860Y-3646500D01*
X-8939860Y-3646500D01*
X-8959860Y-3646500D01*
X-8959860Y-3338500D01*
X-8939860Y-3338500D01*
X-8939860Y-3318500D01*
X-8631860Y-3318500D01*
X-8631860Y-3338500D01*
G36*
X-6945300Y-2807764D02*
X-6955484Y-2809790D01*
X-6985009Y-2829518D01*
X-7027653Y-2811854D01*
X-6992032Y-2725856D01*
X-6992032Y-2523291D01*
X-7080532Y-2434791D01*
X-7420962Y-2434791D01*
X-7420962Y-2789250D01*
X-7518670Y-2789250D01*
X-7492412Y-2725856D01*
X-7492412Y-2523291D01*
X-7570822Y-2444881D01*
X-7570822Y-2434791D01*
X-7645752Y-2434791D01*
X-7645752Y-2126791D01*
X-7570822Y-2126791D01*
X-7570822Y-2116701D01*
X-7560912Y-2106791D01*
X-7420962Y-2106791D01*
X-7420962Y-2126791D01*
X-7080532Y-2126791D01*
X-6992032Y-2038291D01*
X-6992032Y-2016886D01*
X-6945300Y-2016886D01*
X-6945300Y-2807764D01*
X-6945300Y-2807764D01*
G37*
X-6945300Y-2807764D02*
X-6955484Y-2809790D01*
X-6985009Y-2829518D01*
X-7027653Y-2811854D01*
X-6992032Y-2725856D01*
X-6992032Y-2523291D01*
X-7080532Y-2434791D01*
X-7420962Y-2434791D01*
X-7420962Y-2789250D01*
X-7518670Y-2789250D01*
X-7492412Y-2725856D01*
X-7492412Y-2523291D01*
X-7570822Y-2444881D01*
X-7570822Y-2434791D01*
X-7645752Y-2434791D01*
X-7645752Y-2126791D01*
X-7570822Y-2126791D01*
X-7570822Y-2116701D01*
X-7560912Y-2106791D01*
X-7420962Y-2106791D01*
X-7420962Y-2126791D01*
X-7080532Y-2126791D01*
X-6992032Y-2038291D01*
X-6992032Y-2016886D01*
X-6945300Y-2016886D01*
X-6945300Y-2807764D01*
G36*
X-7921342Y-2444881D02*
X-7931252Y-2454791D01*
X-7985857Y-2454791D01*
X-7985857Y-2434793D01*
X-7921342Y-2434793D01*
X-7921342Y-2444881D01*
X-7921342Y-2444881D01*
G37*
X-7921342Y-2444881D02*
X-7931252Y-2454791D01*
X-7985857Y-2454791D01*
X-7985857Y-2434793D01*
X-7921342Y-2434793D01*
X-7921342Y-2444881D01*
G36*
X-7921342Y-2116701D02*
X-7921342Y-2126789D01*
X-7985857Y-2126789D01*
X-7985857Y-2106791D01*
X-7931252Y-2106791D01*
X-7921342Y-2116701D01*
X-7921342Y-2116701D01*
G37*
X-7921342Y-2116701D02*
X-7921342Y-2126789D01*
X-7985857Y-2126789D01*
X-7985857Y-2106791D01*
X-7931252Y-2106791D01*
X-7921342Y-2116701D01*
G36*
X-14177950Y-986860D02*
X-14089450Y-1075360D01*
X-13628700Y-1075360D01*
X-13628700Y-1055360D01*
X-13320700Y-1055360D01*
X-13320700Y-1075360D01*
X-13300700Y-1075360D01*
X-13300700Y-1383360D01*
X-13320700Y-1383360D01*
X-13320700Y-1403360D01*
X-13628700Y-1403360D01*
X-13628700Y-1383360D01*
X-14089450Y-1383360D01*
X-14177950Y-1471860D01*
X-14177950Y-1680775D01*
X-14137682Y-1777991D01*
X-14157410Y-1807516D01*
X-14159373Y-1817384D01*
X-14198470Y-1801190D01*
X-14498450Y-1801190D01*
X-14605330Y-1845461D01*
X-14605330Y-985749D01*
X-14579241Y-959661D01*
X-14177950Y-959661D01*
X-14177950Y-986860D01*
X-14177950Y-986860D01*
G37*
X-14177950Y-986860D02*
X-14089450Y-1075360D01*
X-13628700Y-1075360D01*
X-13628700Y-1055360D01*
X-13320700Y-1055360D01*
X-13320700Y-1075360D01*
X-13300700Y-1075360D01*
X-13300700Y-1383360D01*
X-13320700Y-1383360D01*
X-13320700Y-1403360D01*
X-13628700Y-1403360D01*
X-13628700Y-1383360D01*
X-14089450Y-1383360D01*
X-14177950Y-1471860D01*
X-14177950Y-1680775D01*
X-14137682Y-1777991D01*
X-14157410Y-1807516D01*
X-14159373Y-1817384D01*
X-14198470Y-1801190D01*
X-14498450Y-1801190D01*
X-14605330Y-1845461D01*
X-14605330Y-985749D01*
X-14579241Y-959661D01*
X-14177950Y-959661D01*
X-14177950Y-986860D01*
G36*
X-14070585Y1111240D02*
X-14250415Y1111240D01*
X-14250415Y1459240D01*
X-14070585Y1459240D01*
X-14070585Y1111240D01*
X-14070585Y1111240D01*
G37*
X-14070585Y1111240D02*
X-14250415Y1111240D01*
X-14250415Y1459240D01*
X-14070585Y1459240D01*
X-14070585Y1111240D01*
G36*
X-11424002Y3435739D02*
X-11424002Y3425649D01*
X-11349072Y3425649D01*
X-11349072Y3117649D01*
X-11424002Y3117649D01*
X-11424002Y3107559D01*
X-11433912Y3097649D01*
X-11526850Y3097649D01*
X-11526850Y3375790D01*
X-11555787Y3445649D01*
X-11433912Y3445649D01*
X-11424002Y3435739D01*
X-11424002Y3435739D01*
G37*
X-11424002Y3435739D02*
X-11424002Y3425649D01*
X-11349072Y3425649D01*
X-11349072Y3117649D01*
X-11424002Y3117649D01*
X-11424002Y3107559D01*
X-11433912Y3097649D01*
X-11526850Y3097649D01*
X-11526850Y3375790D01*
X-11555787Y3445649D01*
X-11433912Y3445649D01*
X-11424002Y3435739D01*
G36*
X-11008967Y3097649D02*
X-11063572Y3097649D01*
X-11073482Y3107559D01*
X-11073482Y3117647D01*
X-11008967Y3117647D01*
X-11008967Y3097649D01*
X-11008967Y3097649D01*
G37*
X-11008967Y3097649D02*
X-11063572Y3097649D01*
X-11073482Y3107559D01*
X-11073482Y3117647D01*
X-11008967Y3117647D01*
X-11008967Y3097649D01*
G36*
X-11008967Y3425651D02*
X-11073482Y3425651D01*
X-11073482Y3435739D01*
X-11063572Y3445649D01*
X-11008967Y3445649D01*
X-11008967Y3425651D01*
X-11008967Y3425651D01*
G37*
X-11008967Y3425651D02*
X-11073482Y3425651D01*
X-11073482Y3435739D01*
X-11063572Y3445649D01*
X-11008967Y3445649D01*
X-11008967Y3425651D01*
G36*
X2136470Y-5692470D02*
X-144061Y-5692470D01*
X45492Y-4686348D01*
X2136470Y-4427949D01*
X2136470Y-5692470D01*
X2136470Y-5692470D01*
G37*
X2136470Y-5692470D02*
X-144061Y-5692470D01*
X45492Y-4686348D01*
X2136470Y-4427949D01*
X2136470Y-5692470D01*
G36*
X2136471Y3812384D02*
X2752Y5038528D01*
X-96251Y5692470D01*
X2136471Y5692470D01*
X2136471Y3812384D01*
X2136471Y3812384D01*
G37*
X2136471Y3812384D02*
X2752Y5038528D01*
X-96251Y5692470D01*
X2136471Y5692470D01*
X2136471Y3812384D01*
G04 #@! TD*
M02*
