G04 #@! TF.GenerationSoftware,KiCad,Pcbnew,5.0.0-rc3+dfsg1-2*
G04 #@! TF.CreationDate,2018-08-11T13:42:50+09:00*
G04 #@! TF.ProjectId,fst-01,6673742D30312E6B696361645F706362,rev?*
G04 #@! TF.SameCoordinates,PX791ddc0PY5e69114*
G04 #@! TF.FileFunction,Paste,Top*
G04 #@! TF.FilePolarity,Positive*
%FSLAX46Y46*%
G04 Gerber Fmt 4.6, Leading zero omitted, Abs format (unit mm)*
G04 Created by KiCad (PCBNEW 5.0.0-rc3+dfsg1-2) date Sat Aug 11 13:42:50 2018*
%MOMM*%
%LPD*%
G01*
G04 APERTURE LIST*
%ADD10R,0.900000X0.600000*%
%ADD11R,0.400000X0.500000*%
%ADD12R,1.100000X1.000000*%
%ADD13R,0.700000X0.700000*%
%ADD14C,0.150000*%
%ADD15C,1.200000*%
%ADD16R,0.280000X0.750000*%
%ADD17R,0.750000X0.280000*%
%ADD18R,1.200000X1.200000*%
%ADD19R,1.060200X1.060200*%
%ADD20C,0.220000*%
%ADD21C,0.500000*%
%ADD22R,0.698500X0.762000*%
%ADD23R,0.899160X1.000760*%
%ADD24R,0.762000X0.698500*%
%ADD25R,1.000760X0.899160*%
G04 APERTURE END LIST*
D10*
G04 #@! TO.C,U2*
X-780400Y2438400D03*
X-3080400Y1488400D03*
X-3080400Y3388400D03*
G04 #@! TD*
D11*
G04 #@! TO.C,U3*
X-14650000Y3186500D03*
X-14000000Y3186500D03*
X-13350000Y3186500D03*
X-13350000Y1286500D03*
X-14000000Y1286500D03*
X-14650000Y1286500D03*
G04 #@! TD*
D12*
G04 #@! TO.C,X1*
X-3280780Y-2680740D03*
X-3280780Y-4080740D03*
X-1580780Y-4080740D03*
X-1580780Y-2680740D03*
G04 #@! TD*
D13*
G04 #@! TO.C,D1*
X-17250000Y-903500D03*
X-17250000Y-2403500D03*
G04 #@! TD*
D14*
G04 #@! TO.C,J1*
G36*
X1229405Y4098675D02*
X1258527Y4094356D01*
X1287085Y4087202D01*
X1314805Y4077284D01*
X1341419Y4064696D01*
X1366671Y4049561D01*
X1390318Y4032023D01*
X1412132Y4012252D01*
X1431903Y3990438D01*
X1449441Y3966791D01*
X1464576Y3941539D01*
X1477164Y3914925D01*
X1487082Y3887205D01*
X1494236Y3858647D01*
X1498555Y3829525D01*
X1500000Y3800120D01*
X1500000Y3200120D01*
X1498555Y3170715D01*
X1494236Y3141593D01*
X1487082Y3113035D01*
X1477164Y3085315D01*
X1464576Y3058701D01*
X1449441Y3033449D01*
X1431903Y3009802D01*
X1412132Y2987988D01*
X1390318Y2968217D01*
X1366671Y2950679D01*
X1341419Y2935544D01*
X1314805Y2922956D01*
X1287085Y2913038D01*
X1258527Y2905884D01*
X1229405Y2901565D01*
X1200000Y2900120D01*
X300000Y2900120D01*
X270595Y2901565D01*
X241473Y2905884D01*
X212915Y2913038D01*
X185195Y2922956D01*
X158581Y2935544D01*
X133329Y2950679D01*
X109682Y2968217D01*
X87868Y2987988D01*
X68097Y3009802D01*
X50559Y3033449D01*
X35424Y3058701D01*
X22836Y3085315D01*
X12918Y3113035D01*
X5764Y3141593D01*
X1445Y3170715D01*
X0Y3200120D01*
X0Y3800120D01*
X1445Y3829525D01*
X5764Y3858647D01*
X12918Y3887205D01*
X22836Y3914925D01*
X35424Y3941539D01*
X50559Y3966791D01*
X68097Y3990438D01*
X87868Y4012252D01*
X109682Y4032023D01*
X133329Y4049561D01*
X158581Y4064696D01*
X185195Y4077284D01*
X212915Y4087202D01*
X241473Y4094356D01*
X270595Y4098675D01*
X300000Y4100120D01*
X1200000Y4100120D01*
X1229405Y4098675D01*
X1229405Y4098675D01*
G37*
D15*
X750000Y3500120D03*
D14*
G36*
X1229405Y-2901445D02*
X1258527Y-2905764D01*
X1287085Y-2912918D01*
X1314805Y-2922836D01*
X1341419Y-2935424D01*
X1366671Y-2950559D01*
X1390318Y-2968097D01*
X1412132Y-2987868D01*
X1431903Y-3009682D01*
X1449441Y-3033329D01*
X1464576Y-3058581D01*
X1477164Y-3085195D01*
X1487082Y-3112915D01*
X1494236Y-3141473D01*
X1498555Y-3170595D01*
X1500000Y-3200000D01*
X1500000Y-3800000D01*
X1498555Y-3829405D01*
X1494236Y-3858527D01*
X1487082Y-3887085D01*
X1477164Y-3914805D01*
X1464576Y-3941419D01*
X1449441Y-3966671D01*
X1431903Y-3990318D01*
X1412132Y-4012132D01*
X1390318Y-4031903D01*
X1366671Y-4049441D01*
X1341419Y-4064576D01*
X1314805Y-4077164D01*
X1287085Y-4087082D01*
X1258527Y-4094236D01*
X1229405Y-4098555D01*
X1200000Y-4100000D01*
X300000Y-4100000D01*
X270595Y-4098555D01*
X241473Y-4094236D01*
X212915Y-4087082D01*
X185195Y-4077164D01*
X158581Y-4064576D01*
X133329Y-4049441D01*
X109682Y-4031903D01*
X87868Y-4012132D01*
X68097Y-3990318D01*
X50559Y-3966671D01*
X35424Y-3941419D01*
X22836Y-3914805D01*
X12918Y-3887085D01*
X5764Y-3858527D01*
X1445Y-3829405D01*
X0Y-3800000D01*
X0Y-3200000D01*
X1445Y-3170595D01*
X5764Y-3141473D01*
X12918Y-3112915D01*
X22836Y-3085195D01*
X35424Y-3058581D01*
X50559Y-3033329D01*
X68097Y-3009682D01*
X87868Y-2987868D01*
X109682Y-2968097D01*
X133329Y-2950559D01*
X158581Y-2935424D01*
X185195Y-2922836D01*
X212915Y-2912918D01*
X241473Y-2905764D01*
X270595Y-2901445D01*
X300000Y-2900000D01*
X1200000Y-2900000D01*
X1229405Y-2901445D01*
X1229405Y-2901445D01*
G37*
D15*
X750000Y-3500000D03*
D14*
G36*
X1229405Y1598555D02*
X1258527Y1594236D01*
X1287085Y1587082D01*
X1314805Y1577164D01*
X1341419Y1564576D01*
X1366671Y1549441D01*
X1390318Y1531903D01*
X1412132Y1512132D01*
X1431903Y1490318D01*
X1449441Y1466671D01*
X1464576Y1441419D01*
X1477164Y1414805D01*
X1487082Y1387085D01*
X1494236Y1358527D01*
X1498555Y1329405D01*
X1500000Y1300000D01*
X1500000Y700000D01*
X1498555Y670595D01*
X1494236Y641473D01*
X1487082Y612915D01*
X1477164Y585195D01*
X1464576Y558581D01*
X1449441Y533329D01*
X1431903Y509682D01*
X1412132Y487868D01*
X1390318Y468097D01*
X1366671Y450559D01*
X1341419Y435424D01*
X1314805Y422836D01*
X1287085Y412918D01*
X1258527Y405764D01*
X1229405Y401445D01*
X1200000Y400000D01*
X300000Y400000D01*
X270595Y401445D01*
X241473Y405764D01*
X212915Y412918D01*
X185195Y422836D01*
X158581Y435424D01*
X133329Y450559D01*
X109682Y468097D01*
X87868Y487868D01*
X68097Y509682D01*
X50559Y533329D01*
X35424Y558581D01*
X22836Y585195D01*
X12918Y612915D01*
X5764Y641473D01*
X1445Y670595D01*
X0Y700000D01*
X0Y1300000D01*
X1445Y1329405D01*
X5764Y1358527D01*
X12918Y1387085D01*
X22836Y1414805D01*
X35424Y1441419D01*
X50559Y1466671D01*
X68097Y1490318D01*
X87868Y1512132D01*
X109682Y1531903D01*
X133329Y1549441D01*
X158581Y1564576D01*
X185195Y1577164D01*
X212915Y1587082D01*
X241473Y1594236D01*
X270595Y1598555D01*
X300000Y1600000D01*
X1200000Y1600000D01*
X1229405Y1598555D01*
X1229405Y1598555D01*
G37*
D15*
X750000Y1000000D03*
D14*
G36*
X1229405Y-401445D02*
X1258527Y-405764D01*
X1287085Y-412918D01*
X1314805Y-422836D01*
X1341419Y-435424D01*
X1366671Y-450559D01*
X1390318Y-468097D01*
X1412132Y-487868D01*
X1431903Y-509682D01*
X1449441Y-533329D01*
X1464576Y-558581D01*
X1477164Y-585195D01*
X1487082Y-612915D01*
X1494236Y-641473D01*
X1498555Y-670595D01*
X1500000Y-700000D01*
X1500000Y-1300000D01*
X1498555Y-1329405D01*
X1494236Y-1358527D01*
X1487082Y-1387085D01*
X1477164Y-1414805D01*
X1464576Y-1441419D01*
X1449441Y-1466671D01*
X1431903Y-1490318D01*
X1412132Y-1512132D01*
X1390318Y-1531903D01*
X1366671Y-1549441D01*
X1341419Y-1564576D01*
X1314805Y-1577164D01*
X1287085Y-1587082D01*
X1258527Y-1594236D01*
X1229405Y-1598555D01*
X1200000Y-1600000D01*
X300000Y-1600000D01*
X270595Y-1598555D01*
X241473Y-1594236D01*
X212915Y-1587082D01*
X185195Y-1577164D01*
X158581Y-1564576D01*
X133329Y-1549441D01*
X109682Y-1531903D01*
X87868Y-1512132D01*
X68097Y-1490318D01*
X50559Y-1466671D01*
X35424Y-1441419D01*
X22836Y-1414805D01*
X12918Y-1387085D01*
X5764Y-1358527D01*
X1445Y-1329405D01*
X0Y-1300000D01*
X0Y-700000D01*
X1445Y-670595D01*
X5764Y-641473D01*
X12918Y-612915D01*
X22836Y-585195D01*
X35424Y-558581D01*
X50559Y-533329D01*
X68097Y-509682D01*
X87868Y-487868D01*
X109682Y-468097D01*
X133329Y-450559D01*
X158581Y-435424D01*
X185195Y-422836D01*
X212915Y-412918D01*
X241473Y-405764D01*
X270595Y-401445D01*
X300000Y-400000D01*
X1200000Y-400000D01*
X1229405Y-401445D01*
X1229405Y-401445D01*
G37*
D15*
X750000Y-1000000D03*
G04 #@! TD*
D16*
G04 #@! TO.C,U1*
X-6700000Y-2278500D03*
X-7200000Y-2278500D03*
X-7700000Y-2278500D03*
X-8200000Y-2278500D03*
X-8700000Y-2278500D03*
X-9200000Y-2278500D03*
X-9700000Y-2278500D03*
X-10200000Y-2278500D03*
X-10700000Y-2278500D03*
D17*
X-11475000Y-1503500D03*
X-11475000Y-1003500D03*
X-11475000Y-503500D03*
X-11475000Y-3500D03*
X-11475000Y496500D03*
X-11475000Y996500D03*
X-11475000Y1496500D03*
X-11475000Y1996500D03*
X-11475000Y2496500D03*
D16*
X-10700000Y3271500D03*
X-10200000Y3271500D03*
X-9700000Y3271500D03*
X-9200000Y3271500D03*
X-8700000Y3271500D03*
X-8200000Y3271500D03*
X-7700000Y3271500D03*
X-7200000Y3271500D03*
X-6700000Y3271500D03*
D17*
X-5925000Y2496500D03*
X-5925000Y1996500D03*
X-5925000Y1496500D03*
X-5925000Y996500D03*
X-5925000Y496500D03*
X-5925000Y-3500D03*
X-5925000Y-503500D03*
X-5925000Y-1003500D03*
X-5925000Y-1503500D03*
D18*
X-7700000Y-503500D03*
X-9700000Y1496500D03*
X-9700000Y-503500D03*
D19*
X-7700000Y1496500D03*
G04 #@! TD*
D14*
G04 #@! TO.C,U4*
G36*
X-16939609Y566235D02*
X-16934270Y565443D01*
X-16929034Y564132D01*
X-16923952Y562313D01*
X-16919073Y560006D01*
X-16914444Y557231D01*
X-16910108Y554016D01*
X-16906109Y550391D01*
X-16902484Y546392D01*
X-16899269Y542056D01*
X-16896494Y537427D01*
X-16894187Y532548D01*
X-16892368Y527466D01*
X-16891057Y522230D01*
X-16890265Y516891D01*
X-16890000Y511500D01*
X-16890000Y221500D01*
X-16890265Y216109D01*
X-16891057Y210770D01*
X-16892368Y205534D01*
X-16894187Y200452D01*
X-16896494Y195573D01*
X-16899269Y190944D01*
X-16902484Y186608D01*
X-16906109Y182609D01*
X-16910108Y178984D01*
X-16914444Y175769D01*
X-16919073Y172994D01*
X-16923952Y170687D01*
X-16929034Y168868D01*
X-16934270Y167557D01*
X-16939609Y166765D01*
X-16945000Y166500D01*
X-17055000Y166500D01*
X-17060391Y166765D01*
X-17065730Y167557D01*
X-17070966Y168868D01*
X-17076048Y170687D01*
X-17080927Y172994D01*
X-17085556Y175769D01*
X-17089892Y178984D01*
X-17093891Y182609D01*
X-17097516Y186608D01*
X-17100731Y190944D01*
X-17103506Y195573D01*
X-17105813Y200452D01*
X-17107632Y205534D01*
X-17108943Y210770D01*
X-17109735Y216109D01*
X-17110000Y221500D01*
X-17110000Y511500D01*
X-17109735Y516891D01*
X-17108943Y522230D01*
X-17107632Y527466D01*
X-17105813Y532548D01*
X-17103506Y537427D01*
X-17100731Y542056D01*
X-17097516Y546392D01*
X-17093891Y550391D01*
X-17089892Y554016D01*
X-17085556Y557231D01*
X-17080927Y560006D01*
X-17076048Y562313D01*
X-17070966Y564132D01*
X-17065730Y565443D01*
X-17060391Y566235D01*
X-17055000Y566500D01*
X-16945000Y566500D01*
X-16939609Y566235D01*
X-16939609Y566235D01*
G37*
D20*
X-17000000Y366500D03*
D14*
G36*
X-17439609Y566235D02*
X-17434270Y565443D01*
X-17429034Y564132D01*
X-17423952Y562313D01*
X-17419073Y560006D01*
X-17414444Y557231D01*
X-17410108Y554016D01*
X-17406109Y550391D01*
X-17402484Y546392D01*
X-17399269Y542056D01*
X-17396494Y537427D01*
X-17394187Y532548D01*
X-17392368Y527466D01*
X-17391057Y522230D01*
X-17390265Y516891D01*
X-17390000Y511500D01*
X-17390000Y221500D01*
X-17390265Y216109D01*
X-17391057Y210770D01*
X-17392368Y205534D01*
X-17394187Y200452D01*
X-17396494Y195573D01*
X-17399269Y190944D01*
X-17402484Y186608D01*
X-17406109Y182609D01*
X-17410108Y178984D01*
X-17414444Y175769D01*
X-17419073Y172994D01*
X-17423952Y170687D01*
X-17429034Y168868D01*
X-17434270Y167557D01*
X-17439609Y166765D01*
X-17445000Y166500D01*
X-17555000Y166500D01*
X-17560391Y166765D01*
X-17565730Y167557D01*
X-17570966Y168868D01*
X-17576048Y170687D01*
X-17580927Y172994D01*
X-17585556Y175769D01*
X-17589892Y178984D01*
X-17593891Y182609D01*
X-17597516Y186608D01*
X-17600731Y190944D01*
X-17603506Y195573D01*
X-17605813Y200452D01*
X-17607632Y205534D01*
X-17608943Y210770D01*
X-17609735Y216109D01*
X-17610000Y221500D01*
X-17610000Y511500D01*
X-17609735Y516891D01*
X-17608943Y522230D01*
X-17607632Y527466D01*
X-17605813Y532548D01*
X-17603506Y537427D01*
X-17600731Y542056D01*
X-17597516Y546392D01*
X-17593891Y550391D01*
X-17589892Y554016D01*
X-17585556Y557231D01*
X-17580927Y560006D01*
X-17576048Y562313D01*
X-17570966Y564132D01*
X-17565730Y565443D01*
X-17560391Y566235D01*
X-17555000Y566500D01*
X-17445000Y566500D01*
X-17439609Y566235D01*
X-17439609Y566235D01*
G37*
D20*
X-17500000Y366500D03*
D14*
G36*
X-16939609Y1966235D02*
X-16934270Y1965443D01*
X-16929034Y1964132D01*
X-16923952Y1962313D01*
X-16919073Y1960006D01*
X-16914444Y1957231D01*
X-16910108Y1954016D01*
X-16906109Y1950391D01*
X-16902484Y1946392D01*
X-16899269Y1942056D01*
X-16896494Y1937427D01*
X-16894187Y1932548D01*
X-16892368Y1927466D01*
X-16891057Y1922230D01*
X-16890265Y1916891D01*
X-16890000Y1911500D01*
X-16890000Y1621500D01*
X-16890265Y1616109D01*
X-16891057Y1610770D01*
X-16892368Y1605534D01*
X-16894187Y1600452D01*
X-16896494Y1595573D01*
X-16899269Y1590944D01*
X-16902484Y1586608D01*
X-16906109Y1582609D01*
X-16910108Y1578984D01*
X-16914444Y1575769D01*
X-16919073Y1572994D01*
X-16923952Y1570687D01*
X-16929034Y1568868D01*
X-16934270Y1567557D01*
X-16939609Y1566765D01*
X-16945000Y1566500D01*
X-17055000Y1566500D01*
X-17060391Y1566765D01*
X-17065730Y1567557D01*
X-17070966Y1568868D01*
X-17076048Y1570687D01*
X-17080927Y1572994D01*
X-17085556Y1575769D01*
X-17089892Y1578984D01*
X-17093891Y1582609D01*
X-17097516Y1586608D01*
X-17100731Y1590944D01*
X-17103506Y1595573D01*
X-17105813Y1600452D01*
X-17107632Y1605534D01*
X-17108943Y1610770D01*
X-17109735Y1616109D01*
X-17110000Y1621500D01*
X-17110000Y1911500D01*
X-17109735Y1916891D01*
X-17108943Y1922230D01*
X-17107632Y1927466D01*
X-17105813Y1932548D01*
X-17103506Y1937427D01*
X-17100731Y1942056D01*
X-17097516Y1946392D01*
X-17093891Y1950391D01*
X-17089892Y1954016D01*
X-17085556Y1957231D01*
X-17080927Y1960006D01*
X-17076048Y1962313D01*
X-17070966Y1964132D01*
X-17065730Y1965443D01*
X-17060391Y1966235D01*
X-17055000Y1966500D01*
X-16945000Y1966500D01*
X-16939609Y1966235D01*
X-16939609Y1966235D01*
G37*
D20*
X-17000000Y1766500D03*
D14*
G36*
X-17439609Y1966235D02*
X-17434270Y1965443D01*
X-17429034Y1964132D01*
X-17423952Y1962313D01*
X-17419073Y1960006D01*
X-17414444Y1957231D01*
X-17410108Y1954016D01*
X-17406109Y1950391D01*
X-17402484Y1946392D01*
X-17399269Y1942056D01*
X-17396494Y1937427D01*
X-17394187Y1932548D01*
X-17392368Y1927466D01*
X-17391057Y1922230D01*
X-17390265Y1916891D01*
X-17390000Y1911500D01*
X-17390000Y1621500D01*
X-17390265Y1616109D01*
X-17391057Y1610770D01*
X-17392368Y1605534D01*
X-17394187Y1600452D01*
X-17396494Y1595573D01*
X-17399269Y1590944D01*
X-17402484Y1586608D01*
X-17406109Y1582609D01*
X-17410108Y1578984D01*
X-17414444Y1575769D01*
X-17419073Y1572994D01*
X-17423952Y1570687D01*
X-17429034Y1568868D01*
X-17434270Y1567557D01*
X-17439609Y1566765D01*
X-17445000Y1566500D01*
X-17555000Y1566500D01*
X-17560391Y1566765D01*
X-17565730Y1567557D01*
X-17570966Y1568868D01*
X-17576048Y1570687D01*
X-17580927Y1572994D01*
X-17585556Y1575769D01*
X-17589892Y1578984D01*
X-17593891Y1582609D01*
X-17597516Y1586608D01*
X-17600731Y1590944D01*
X-17603506Y1595573D01*
X-17605813Y1600452D01*
X-17607632Y1605534D01*
X-17608943Y1610770D01*
X-17609735Y1616109D01*
X-17610000Y1621500D01*
X-17610000Y1911500D01*
X-17609735Y1916891D01*
X-17608943Y1922230D01*
X-17607632Y1927466D01*
X-17605813Y1932548D01*
X-17603506Y1937427D01*
X-17600731Y1942056D01*
X-17597516Y1946392D01*
X-17593891Y1950391D01*
X-17589892Y1954016D01*
X-17585556Y1957231D01*
X-17580927Y1960006D01*
X-17576048Y1962313D01*
X-17570966Y1964132D01*
X-17565730Y1965443D01*
X-17560391Y1966235D01*
X-17555000Y1966500D01*
X-17445000Y1966500D01*
X-17439609Y1966235D01*
X-17439609Y1966235D01*
G37*
D20*
X-17500000Y1766500D03*
D14*
G36*
X-17012748Y1315898D02*
X-17000614Y1314098D01*
X-16988714Y1311118D01*
X-16977165Y1306985D01*
X-16966075Y1301740D01*
X-16955554Y1295434D01*
X-16945701Y1288126D01*
X-16936612Y1279888D01*
X-16928374Y1270799D01*
X-16921066Y1260946D01*
X-16914760Y1250425D01*
X-16909515Y1239335D01*
X-16905382Y1227786D01*
X-16902402Y1215886D01*
X-16900602Y1203752D01*
X-16900000Y1191500D01*
X-16900000Y941500D01*
X-16900602Y929248D01*
X-16902402Y917114D01*
X-16905382Y905214D01*
X-16909515Y893665D01*
X-16914760Y882575D01*
X-16921066Y872054D01*
X-16928374Y862201D01*
X-16936612Y853112D01*
X-16945701Y844874D01*
X-16955554Y837566D01*
X-16966075Y831260D01*
X-16977165Y826015D01*
X-16988714Y821882D01*
X-17000614Y818902D01*
X-17012748Y817102D01*
X-17025000Y816500D01*
X-17475000Y816500D01*
X-17487252Y817102D01*
X-17499386Y818902D01*
X-17511286Y821882D01*
X-17522835Y826015D01*
X-17533925Y831260D01*
X-17544446Y837566D01*
X-17554299Y844874D01*
X-17563388Y853112D01*
X-17571626Y862201D01*
X-17578934Y872054D01*
X-17585240Y882575D01*
X-17590485Y893665D01*
X-17594618Y905214D01*
X-17597598Y917114D01*
X-17599398Y929248D01*
X-17600000Y941500D01*
X-17600000Y1191500D01*
X-17599398Y1203752D01*
X-17597598Y1215886D01*
X-17594618Y1227786D01*
X-17590485Y1239335D01*
X-17585240Y1250425D01*
X-17578934Y1260946D01*
X-17571626Y1270799D01*
X-17563388Y1279888D01*
X-17554299Y1288126D01*
X-17544446Y1295434D01*
X-17533925Y1301740D01*
X-17522835Y1306985D01*
X-17511286Y1311118D01*
X-17499386Y1314098D01*
X-17487252Y1315898D01*
X-17475000Y1316500D01*
X-17025000Y1316500D01*
X-17012748Y1315898D01*
X-17012748Y1315898D01*
G37*
D21*
X-17250000Y1066500D03*
G04 #@! TD*
D22*
G04 #@! TO.C,R1*
X-15750000Y-2402140D03*
X-15750000Y-1304860D03*
G04 #@! TD*
D23*
G04 #@! TO.C,C7*
X-2851840Y-660400D03*
X-1348160Y-660400D03*
G04 #@! TD*
D22*
G04 #@! TO.C,C1*
X-4400000Y2009140D03*
X-4400000Y911860D03*
G04 #@! TD*
D24*
G04 #@! TO.C,C2*
X-5751360Y-3753500D03*
X-6848640Y-3753500D03*
G04 #@! TD*
G04 #@! TO.C,C5*
X-11548640Y4796500D03*
X-10451360Y4796500D03*
G04 #@! TD*
D22*
G04 #@! TO.C,C4*
X-13000000Y-2326640D03*
X-13000000Y-1229360D03*
G04 #@! TD*
D24*
G04 #@! TO.C,C3*
X-8151360Y-3753500D03*
X-9248640Y-3753500D03*
G04 #@! TD*
D25*
G04 #@! TO.C,C6*
X-4250000Y4828340D03*
X-4250000Y3324660D03*
G04 #@! TD*
M02*
