G04 #@! TF.GenerationSoftware,KiCad,Pcbnew,5.0.0-rc3+dfsg1-2*
G04 #@! TF.CreationDate,2018-08-10T14:32:52+09:00*
G04 #@! TF.ProjectId,fst-01,6673742D30312E6B696361645F706362,rev?*
G04 #@! TF.SameCoordinates,Original*
G04 #@! TF.FileFunction,Copper,L2,Bot,Signal*
G04 #@! TF.FilePolarity,Positive*
%FSLAX46Y46*%
G04 Gerber Fmt 4.6, Leading zero omitted, Abs format (unit mm)*
G04 Created by KiCad (PCBNEW 5.0.0-rc3+dfsg1-2) date Fri Aug 10 14:32:52 2018*
%MOMM*%
%LPD*%
G01*
G04 APERTURE LIST*
G04 #@! TA.AperFunction,ComponentPad*
%ADD10C,0.800000*%
G04 #@! TD*
G04 #@! TA.AperFunction,ComponentPad*
%ADD11R,0.800000X0.800000*%
G04 #@! TD*
G04 #@! TA.AperFunction,ViaPad*
%ADD12C,0.700000*%
G04 #@! TD*
G04 #@! TA.AperFunction,ViaPad*
%ADD13C,0.800000*%
G04 #@! TD*
G04 #@! TA.AperFunction,Conductor*
%ADD14C,0.200660*%
G04 #@! TD*
G04 #@! TA.AperFunction,Conductor*
%ADD15C,0.381000*%
G04 #@! TD*
G04 #@! TA.AperFunction,Conductor*
%ADD16C,0.400000*%
G04 #@! TD*
G04 #@! TA.AperFunction,Conductor*
%ADD17C,0.250000*%
G04 #@! TD*
G04 #@! TA.AperFunction,Conductor*
%ADD18C,0.248920*%
G04 #@! TD*
G04 APERTURE END LIST*
D10*
G04 #@! TO.P,K1,2*
G04 #@! TO.N,/SWDIO*
X112268000Y-103174800D03*
G04 #@! TO.P,K1,1*
G04 #@! TO.N,+3V3*
X110998000Y-103174800D03*
G04 #@! TO.P,K1,3*
G04 #@! TO.N,/SWCLK*
X113538000Y-103174800D03*
G04 #@! TO.P,K1,4*
G04 #@! TO.N,/NRST*
X114808000Y-103174800D03*
D11*
G04 #@! TO.P,K1,5*
G04 #@! TO.N,GND*
X116078000Y-103174800D03*
G04 #@! TD*
D12*
G04 #@! TO.N,GND*
G04 #@! TO.C,J1*
X128200000Y-93746500D03*
X128200000Y-104246500D03*
G04 #@! TD*
D13*
G04 #@! TO.N,/D+_PLUG*
X127396240Y-100200460D03*
X111861340Y-95643440D03*
G04 #@! TO.N,/D-_PLUG*
X128097280Y-97797618D03*
X114211778Y-94973100D03*
G04 #@! TO.N,/NRST*
X122631891Y-99554609D03*
X117177820Y-102494080D03*
G04 #@! TO.N,GND*
X118300500Y-98577400D03*
X113300000Y-100250000D03*
G04 #@! TO.N,+3V3*
X123698000Y-96634240D03*
X115341400Y-95897700D03*
X121386600Y-101201220D03*
X113300000Y-101500000D03*
G04 #@! TO.N,/PA3*
X120243600Y-93941900D03*
X110210600Y-96443800D03*
G04 #@! TD*
D14*
G04 #@! TO.N,/D+_PLUG*
X112389920Y-95646242D02*
X111932720Y-95646242D01*
X127360680Y-100256340D02*
X127210820Y-100406200D01*
X127401320Y-100256340D02*
X127360680Y-100256340D01*
X127210820Y-100406200D02*
X125387100Y-100406200D01*
X125387100Y-100406200D02*
X122687080Y-97706180D01*
X122687080Y-97706180D02*
X114449858Y-97706180D01*
X114449858Y-97706180D02*
X112389920Y-95646242D01*
G04 #@! TO.N,/D-_PLUG*
X128162100Y-97694800D02*
X128143000Y-97726500D01*
X125653800Y-95186500D02*
X128162100Y-97694800D01*
X114274600Y-94932500D02*
X114528600Y-95186500D01*
X114528600Y-95186500D02*
X125653800Y-95186500D01*
G04 #@! TO.N,/NRST*
X122631200Y-99555300D02*
X122631891Y-99554609D01*
X120037860Y-99555300D02*
X122631200Y-99555300D01*
X117172740Y-102494080D02*
X117172740Y-102420420D01*
X117172740Y-102420420D02*
X120037860Y-99555300D01*
G04 #@! TO.N,GND*
X116067840Y-102266792D02*
X116067840Y-103212900D01*
X113601500Y-100393500D02*
X114095369Y-100294321D01*
X114095369Y-100294321D02*
X116067840Y-102266792D01*
D15*
G04 #@! TO.N,+3V3*
X123444060Y-96380300D02*
X123698000Y-96634240D01*
X115468400Y-95808800D02*
X115488720Y-95808800D01*
D16*
X113849547Y-95806260D02*
X115470940Y-95806260D01*
D15*
X112701467Y-94658180D02*
X113849547Y-95806260D01*
D16*
X115824000Y-96380300D02*
X123444060Y-96380300D01*
X115488720Y-95808800D02*
X115488720Y-96045020D01*
X115488720Y-96045020D02*
X115824000Y-96380300D01*
D17*
X127736600Y-102161340D02*
X122321320Y-102161340D01*
X122321320Y-102161340D02*
X121386600Y-101226620D01*
X123698000Y-96634240D02*
X124236420Y-96634240D01*
X121386600Y-101226620D02*
X121386600Y-101201220D01*
X126583440Y-98981260D02*
X127894080Y-98981260D01*
X127894080Y-98981260D02*
X128681480Y-99768660D01*
X128681480Y-99768660D02*
X128681480Y-101216460D01*
X124236420Y-96634240D02*
X126583440Y-98981260D01*
X128681480Y-101216460D02*
X127736600Y-102161340D01*
D16*
X113195100Y-101587300D02*
X113309400Y-101473000D01*
X111010700Y-101587300D02*
X113195100Y-101587300D01*
X111714280Y-94658180D02*
X112701467Y-94658180D01*
X111048800Y-95323660D02*
X111714280Y-94658180D01*
X111053880Y-103187500D02*
X111048800Y-103182420D01*
X111048800Y-103182420D02*
X111048800Y-95323660D01*
D14*
G04 #@! TO.N,/PA3*
X119964200Y-93687900D02*
X120243600Y-93967300D01*
X111785400Y-93687900D02*
X119964200Y-93687900D01*
X110375700Y-95097600D02*
X111785400Y-93687900D01*
X110172500Y-96520000D02*
X110375700Y-96316800D01*
X110375700Y-96316800D02*
X110375700Y-95097600D01*
G04 #@! TD*
D18*
G04 #@! TO.N,GND*
G36*
X129292350Y-104933750D02*
X108832650Y-104933750D01*
X108832650Y-96299565D01*
X109485480Y-96299565D01*
X109485480Y-96588035D01*
X109595873Y-96854548D01*
X109799852Y-97058527D01*
X110066365Y-97168920D01*
X110354835Y-97168920D01*
X110523681Y-97098982D01*
X110523680Y-101370987D01*
X110516048Y-101382409D01*
X110475293Y-101587300D01*
X110516048Y-101792191D01*
X110523680Y-101803613D01*
X110523680Y-102623645D01*
X110383273Y-102764052D01*
X110272880Y-103030565D01*
X110272880Y-103319035D01*
X110383273Y-103585548D01*
X110587252Y-103789527D01*
X110853765Y-103899920D01*
X111142235Y-103899920D01*
X111408748Y-103789527D01*
X111612727Y-103585548D01*
X111633000Y-103536605D01*
X111653273Y-103585548D01*
X111857252Y-103789527D01*
X112123765Y-103899920D01*
X112412235Y-103899920D01*
X112678748Y-103789527D01*
X112882727Y-103585548D01*
X112903000Y-103536605D01*
X112923273Y-103585548D01*
X113127252Y-103789527D01*
X113393765Y-103899920D01*
X113682235Y-103899920D01*
X113948748Y-103789527D01*
X114152727Y-103585548D01*
X114173000Y-103536605D01*
X114193273Y-103585548D01*
X114397252Y-103789527D01*
X114663765Y-103899920D01*
X114952235Y-103899920D01*
X115218748Y-103789527D01*
X115422727Y-103585548D01*
X115533120Y-103319035D01*
X115533120Y-103030565D01*
X115422727Y-102764052D01*
X115218748Y-102560073D01*
X114952235Y-102449680D01*
X114663765Y-102449680D01*
X114397252Y-102560073D01*
X114193273Y-102764052D01*
X114173000Y-102812995D01*
X114152727Y-102764052D01*
X113948748Y-102560073D01*
X113682235Y-102449680D01*
X113393765Y-102449680D01*
X113127252Y-102560073D01*
X112923273Y-102764052D01*
X112903000Y-102812995D01*
X112882727Y-102764052D01*
X112678748Y-102560073D01*
X112412235Y-102449680D01*
X112123765Y-102449680D01*
X111857252Y-102560073D01*
X111653273Y-102764052D01*
X111633000Y-102812995D01*
X111612727Y-102764052D01*
X111573920Y-102725245D01*
X111573920Y-102349845D01*
X116452700Y-102349845D01*
X116452700Y-102638315D01*
X116563093Y-102904828D01*
X116767072Y-103108807D01*
X117033585Y-103219200D01*
X117322055Y-103219200D01*
X117588568Y-103108807D01*
X117792547Y-102904828D01*
X117902940Y-102638315D01*
X117902940Y-102349845D01*
X117885967Y-102308869D01*
X120214087Y-99980750D01*
X122032557Y-99980750D01*
X122221143Y-100169336D01*
X122487656Y-100279729D01*
X122776126Y-100279729D01*
X123042639Y-100169336D01*
X123246618Y-99965357D01*
X123357011Y-99698844D01*
X123357011Y-99410374D01*
X123246618Y-99143861D01*
X123042639Y-98939882D01*
X122776126Y-98829489D01*
X122487656Y-98829489D01*
X122221143Y-98939882D01*
X122031175Y-99129850D01*
X120079759Y-99129850D01*
X120037860Y-99121516D01*
X119995961Y-99129850D01*
X119995957Y-99129850D01*
X119897601Y-99149414D01*
X119871857Y-99154535D01*
X119766651Y-99224832D01*
X119731128Y-99248568D01*
X119707393Y-99284090D01*
X117222524Y-101768960D01*
X117033585Y-101768960D01*
X116767072Y-101879353D01*
X116563093Y-102083332D01*
X116452700Y-102349845D01*
X111573920Y-102349845D01*
X111573920Y-102112420D01*
X112886945Y-102112420D01*
X112889252Y-102114727D01*
X113155765Y-102225120D01*
X113444235Y-102225120D01*
X113710748Y-102114727D01*
X113914727Y-101910748D01*
X114025120Y-101644235D01*
X114025120Y-101355765D01*
X113914727Y-101089252D01*
X113710748Y-100885273D01*
X113444235Y-100774880D01*
X113155765Y-100774880D01*
X112889252Y-100885273D01*
X112712345Y-101062180D01*
X111573920Y-101062180D01*
X111573920Y-96309251D01*
X111717105Y-96368560D01*
X112005575Y-96368560D01*
X112272088Y-96258167D01*
X112336128Y-96194127D01*
X114119391Y-97977390D01*
X114143126Y-98012912D01*
X114283856Y-98106945D01*
X114407955Y-98131630D01*
X114407959Y-98131630D01*
X114449857Y-98139964D01*
X114491755Y-98131630D01*
X122510854Y-98131630D01*
X125056633Y-100677410D01*
X125080368Y-100712932D01*
X125221098Y-100806965D01*
X125345197Y-100831650D01*
X125345202Y-100831650D01*
X125387100Y-100839984D01*
X125428998Y-100831650D01*
X127025237Y-100831650D01*
X127252005Y-100925580D01*
X127540475Y-100925580D01*
X127806988Y-100815187D01*
X128010967Y-100611208D01*
X128121360Y-100344695D01*
X128121360Y-100056225D01*
X128010967Y-99789712D01*
X127806988Y-99585733D01*
X127540475Y-99475340D01*
X127252005Y-99475340D01*
X126985492Y-99585733D01*
X126781513Y-99789712D01*
X126702383Y-99980750D01*
X125563327Y-99980750D01*
X123017549Y-97434973D01*
X122993812Y-97399448D01*
X122853082Y-97305415D01*
X122728983Y-97280730D01*
X122728978Y-97280730D01*
X122687080Y-97272396D01*
X122645182Y-97280730D01*
X114626085Y-97280730D01*
X113646666Y-96301312D01*
X113797830Y-96331380D01*
X113846530Y-96331380D01*
X113849546Y-96331980D01*
X113852562Y-96331380D01*
X114749605Y-96331380D01*
X114930652Y-96512427D01*
X115197165Y-96622820D01*
X115323888Y-96622820D01*
X115416115Y-96715047D01*
X115445410Y-96758890D01*
X115619109Y-96874952D01*
X115772283Y-96905420D01*
X115772284Y-96905420D01*
X115824000Y-96915707D01*
X115875716Y-96905420D01*
X123025462Y-96905420D01*
X123083273Y-97044988D01*
X123287252Y-97248967D01*
X123553765Y-97359360D01*
X123842235Y-97359360D01*
X124108748Y-97248967D01*
X124161665Y-97196050D01*
X126233810Y-99268195D01*
X126258922Y-99305778D01*
X126317109Y-99344657D01*
X126407812Y-99405263D01*
X126583440Y-99440198D01*
X126627770Y-99431380D01*
X127707635Y-99431380D01*
X128231360Y-99955105D01*
X128231361Y-101030013D01*
X127550155Y-101711220D01*
X122507765Y-101711220D01*
X122111720Y-101315175D01*
X122111720Y-101056985D01*
X122001327Y-100790472D01*
X121797348Y-100586493D01*
X121530835Y-100476100D01*
X121242365Y-100476100D01*
X120975852Y-100586493D01*
X120771873Y-100790472D01*
X120661480Y-101056985D01*
X120661480Y-101345455D01*
X120771873Y-101611968D01*
X120975852Y-101815947D01*
X121242365Y-101926340D01*
X121449755Y-101926340D01*
X121971690Y-102448275D01*
X121996802Y-102485858D01*
X122145692Y-102585343D01*
X122276989Y-102611460D01*
X122276993Y-102611460D01*
X122321320Y-102620277D01*
X122365647Y-102611460D01*
X127692273Y-102611460D01*
X127736600Y-102620277D01*
X127780927Y-102611460D01*
X127780931Y-102611460D01*
X127912228Y-102585343D01*
X128061118Y-102485858D01*
X128086230Y-102448275D01*
X128968417Y-101566088D01*
X129005998Y-101540978D01*
X129051420Y-101473000D01*
X129105483Y-101392088D01*
X129114759Y-101345455D01*
X129131600Y-101260791D01*
X129131600Y-101260788D01*
X129140417Y-101216461D01*
X129131600Y-101172134D01*
X129131600Y-99812987D01*
X129140417Y-99768660D01*
X129131600Y-99724333D01*
X129131600Y-99724329D01*
X129105483Y-99593032D01*
X129005998Y-99444142D01*
X128968415Y-99419030D01*
X128243709Y-98694324D01*
X128218598Y-98656742D01*
X128069708Y-98557257D01*
X127938411Y-98531140D01*
X127938407Y-98531140D01*
X127894080Y-98522323D01*
X127849753Y-98531140D01*
X126769885Y-98531140D01*
X124586050Y-96347305D01*
X124560938Y-96309722D01*
X124412048Y-96210237D01*
X124280751Y-96184120D01*
X124280747Y-96184120D01*
X124271520Y-96182285D01*
X124108748Y-96019513D01*
X123842235Y-95909120D01*
X123684079Y-95909120D01*
X123648951Y-95885648D01*
X123495777Y-95855180D01*
X123447081Y-95855180D01*
X123444060Y-95854579D01*
X123441039Y-95855180D01*
X116066520Y-95855180D01*
X116066520Y-95753465D01*
X116007903Y-95611950D01*
X125477574Y-95611950D01*
X127415170Y-97549547D01*
X127372160Y-97653383D01*
X127372160Y-97941853D01*
X127482553Y-98208366D01*
X127686532Y-98412345D01*
X127953045Y-98522738D01*
X128241515Y-98522738D01*
X128508028Y-98412345D01*
X128712007Y-98208366D01*
X128822400Y-97941853D01*
X128822400Y-97653383D01*
X128712007Y-97386870D01*
X128508028Y-97182891D01*
X128241515Y-97072498D01*
X128141475Y-97072498D01*
X125984268Y-94915292D01*
X125960532Y-94879768D01*
X125819802Y-94785735D01*
X125695703Y-94761050D01*
X125695698Y-94761050D01*
X125653800Y-94752716D01*
X125611902Y-94761050D01*
X114908808Y-94761050D01*
X114826505Y-94562352D01*
X114622526Y-94358373D01*
X114356013Y-94247980D01*
X114067543Y-94247980D01*
X113801030Y-94358373D01*
X113597051Y-94562352D01*
X113520250Y-94747767D01*
X113136409Y-94363927D01*
X113080057Y-94279590D01*
X112906358Y-94163528D01*
X112753184Y-94133060D01*
X112704488Y-94133060D01*
X112701467Y-94132459D01*
X112698446Y-94133060D01*
X111941917Y-94133060D01*
X111961627Y-94113350D01*
X119529753Y-94113350D01*
X119628873Y-94352648D01*
X119832852Y-94556627D01*
X120099365Y-94667020D01*
X120387835Y-94667020D01*
X120654348Y-94556627D01*
X120858327Y-94352648D01*
X120968720Y-94086135D01*
X120968720Y-93797665D01*
X120858327Y-93531152D01*
X120654348Y-93327173D01*
X120387835Y-93216780D01*
X120099365Y-93216780D01*
X119994620Y-93260167D01*
X119964200Y-93254116D01*
X119922302Y-93262450D01*
X111827298Y-93262450D01*
X111785400Y-93254116D01*
X111743502Y-93262450D01*
X111743497Y-93262450D01*
X111619398Y-93287135D01*
X111478668Y-93381168D01*
X111454933Y-93416690D01*
X110104491Y-94767133D01*
X110068969Y-94790868D01*
X110045234Y-94826390D01*
X110045232Y-94826392D01*
X110009568Y-94879768D01*
X109974936Y-94931598D01*
X109955619Y-95028713D01*
X109941916Y-95097600D01*
X109950251Y-95139502D01*
X109950250Y-95766776D01*
X109799852Y-95829073D01*
X109595873Y-96033052D01*
X109485480Y-96299565D01*
X108832650Y-96299565D01*
X108832650Y-93059250D01*
X129292351Y-93059250D01*
X129292350Y-104933750D01*
X129292350Y-104933750D01*
G37*
X129292350Y-104933750D02*
X108832650Y-104933750D01*
X108832650Y-96299565D01*
X109485480Y-96299565D01*
X109485480Y-96588035D01*
X109595873Y-96854548D01*
X109799852Y-97058527D01*
X110066365Y-97168920D01*
X110354835Y-97168920D01*
X110523681Y-97098982D01*
X110523680Y-101370987D01*
X110516048Y-101382409D01*
X110475293Y-101587300D01*
X110516048Y-101792191D01*
X110523680Y-101803613D01*
X110523680Y-102623645D01*
X110383273Y-102764052D01*
X110272880Y-103030565D01*
X110272880Y-103319035D01*
X110383273Y-103585548D01*
X110587252Y-103789527D01*
X110853765Y-103899920D01*
X111142235Y-103899920D01*
X111408748Y-103789527D01*
X111612727Y-103585548D01*
X111633000Y-103536605D01*
X111653273Y-103585548D01*
X111857252Y-103789527D01*
X112123765Y-103899920D01*
X112412235Y-103899920D01*
X112678748Y-103789527D01*
X112882727Y-103585548D01*
X112903000Y-103536605D01*
X112923273Y-103585548D01*
X113127252Y-103789527D01*
X113393765Y-103899920D01*
X113682235Y-103899920D01*
X113948748Y-103789527D01*
X114152727Y-103585548D01*
X114173000Y-103536605D01*
X114193273Y-103585548D01*
X114397252Y-103789527D01*
X114663765Y-103899920D01*
X114952235Y-103899920D01*
X115218748Y-103789527D01*
X115422727Y-103585548D01*
X115533120Y-103319035D01*
X115533120Y-103030565D01*
X115422727Y-102764052D01*
X115218748Y-102560073D01*
X114952235Y-102449680D01*
X114663765Y-102449680D01*
X114397252Y-102560073D01*
X114193273Y-102764052D01*
X114173000Y-102812995D01*
X114152727Y-102764052D01*
X113948748Y-102560073D01*
X113682235Y-102449680D01*
X113393765Y-102449680D01*
X113127252Y-102560073D01*
X112923273Y-102764052D01*
X112903000Y-102812995D01*
X112882727Y-102764052D01*
X112678748Y-102560073D01*
X112412235Y-102449680D01*
X112123765Y-102449680D01*
X111857252Y-102560073D01*
X111653273Y-102764052D01*
X111633000Y-102812995D01*
X111612727Y-102764052D01*
X111573920Y-102725245D01*
X111573920Y-102349845D01*
X116452700Y-102349845D01*
X116452700Y-102638315D01*
X116563093Y-102904828D01*
X116767072Y-103108807D01*
X117033585Y-103219200D01*
X117322055Y-103219200D01*
X117588568Y-103108807D01*
X117792547Y-102904828D01*
X117902940Y-102638315D01*
X117902940Y-102349845D01*
X117885967Y-102308869D01*
X120214087Y-99980750D01*
X122032557Y-99980750D01*
X122221143Y-100169336D01*
X122487656Y-100279729D01*
X122776126Y-100279729D01*
X123042639Y-100169336D01*
X123246618Y-99965357D01*
X123357011Y-99698844D01*
X123357011Y-99410374D01*
X123246618Y-99143861D01*
X123042639Y-98939882D01*
X122776126Y-98829489D01*
X122487656Y-98829489D01*
X122221143Y-98939882D01*
X122031175Y-99129850D01*
X120079759Y-99129850D01*
X120037860Y-99121516D01*
X119995961Y-99129850D01*
X119995957Y-99129850D01*
X119897601Y-99149414D01*
X119871857Y-99154535D01*
X119766651Y-99224832D01*
X119731128Y-99248568D01*
X119707393Y-99284090D01*
X117222524Y-101768960D01*
X117033585Y-101768960D01*
X116767072Y-101879353D01*
X116563093Y-102083332D01*
X116452700Y-102349845D01*
X111573920Y-102349845D01*
X111573920Y-102112420D01*
X112886945Y-102112420D01*
X112889252Y-102114727D01*
X113155765Y-102225120D01*
X113444235Y-102225120D01*
X113710748Y-102114727D01*
X113914727Y-101910748D01*
X114025120Y-101644235D01*
X114025120Y-101355765D01*
X113914727Y-101089252D01*
X113710748Y-100885273D01*
X113444235Y-100774880D01*
X113155765Y-100774880D01*
X112889252Y-100885273D01*
X112712345Y-101062180D01*
X111573920Y-101062180D01*
X111573920Y-96309251D01*
X111717105Y-96368560D01*
X112005575Y-96368560D01*
X112272088Y-96258167D01*
X112336128Y-96194127D01*
X114119391Y-97977390D01*
X114143126Y-98012912D01*
X114283856Y-98106945D01*
X114407955Y-98131630D01*
X114407959Y-98131630D01*
X114449857Y-98139964D01*
X114491755Y-98131630D01*
X122510854Y-98131630D01*
X125056633Y-100677410D01*
X125080368Y-100712932D01*
X125221098Y-100806965D01*
X125345197Y-100831650D01*
X125345202Y-100831650D01*
X125387100Y-100839984D01*
X125428998Y-100831650D01*
X127025237Y-100831650D01*
X127252005Y-100925580D01*
X127540475Y-100925580D01*
X127806988Y-100815187D01*
X128010967Y-100611208D01*
X128121360Y-100344695D01*
X128121360Y-100056225D01*
X128010967Y-99789712D01*
X127806988Y-99585733D01*
X127540475Y-99475340D01*
X127252005Y-99475340D01*
X126985492Y-99585733D01*
X126781513Y-99789712D01*
X126702383Y-99980750D01*
X125563327Y-99980750D01*
X123017549Y-97434973D01*
X122993812Y-97399448D01*
X122853082Y-97305415D01*
X122728983Y-97280730D01*
X122728978Y-97280730D01*
X122687080Y-97272396D01*
X122645182Y-97280730D01*
X114626085Y-97280730D01*
X113646666Y-96301312D01*
X113797830Y-96331380D01*
X113846530Y-96331380D01*
X113849546Y-96331980D01*
X113852562Y-96331380D01*
X114749605Y-96331380D01*
X114930652Y-96512427D01*
X115197165Y-96622820D01*
X115323888Y-96622820D01*
X115416115Y-96715047D01*
X115445410Y-96758890D01*
X115619109Y-96874952D01*
X115772283Y-96905420D01*
X115772284Y-96905420D01*
X115824000Y-96915707D01*
X115875716Y-96905420D01*
X123025462Y-96905420D01*
X123083273Y-97044988D01*
X123287252Y-97248967D01*
X123553765Y-97359360D01*
X123842235Y-97359360D01*
X124108748Y-97248967D01*
X124161665Y-97196050D01*
X126233810Y-99268195D01*
X126258922Y-99305778D01*
X126317109Y-99344657D01*
X126407812Y-99405263D01*
X126583440Y-99440198D01*
X126627770Y-99431380D01*
X127707635Y-99431380D01*
X128231360Y-99955105D01*
X128231361Y-101030013D01*
X127550155Y-101711220D01*
X122507765Y-101711220D01*
X122111720Y-101315175D01*
X122111720Y-101056985D01*
X122001327Y-100790472D01*
X121797348Y-100586493D01*
X121530835Y-100476100D01*
X121242365Y-100476100D01*
X120975852Y-100586493D01*
X120771873Y-100790472D01*
X120661480Y-101056985D01*
X120661480Y-101345455D01*
X120771873Y-101611968D01*
X120975852Y-101815947D01*
X121242365Y-101926340D01*
X121449755Y-101926340D01*
X121971690Y-102448275D01*
X121996802Y-102485858D01*
X122145692Y-102585343D01*
X122276989Y-102611460D01*
X122276993Y-102611460D01*
X122321320Y-102620277D01*
X122365647Y-102611460D01*
X127692273Y-102611460D01*
X127736600Y-102620277D01*
X127780927Y-102611460D01*
X127780931Y-102611460D01*
X127912228Y-102585343D01*
X128061118Y-102485858D01*
X128086230Y-102448275D01*
X128968417Y-101566088D01*
X129005998Y-101540978D01*
X129051420Y-101473000D01*
X129105483Y-101392088D01*
X129114759Y-101345455D01*
X129131600Y-101260791D01*
X129131600Y-101260788D01*
X129140417Y-101216461D01*
X129131600Y-101172134D01*
X129131600Y-99812987D01*
X129140417Y-99768660D01*
X129131600Y-99724333D01*
X129131600Y-99724329D01*
X129105483Y-99593032D01*
X129005998Y-99444142D01*
X128968415Y-99419030D01*
X128243709Y-98694324D01*
X128218598Y-98656742D01*
X128069708Y-98557257D01*
X127938411Y-98531140D01*
X127938407Y-98531140D01*
X127894080Y-98522323D01*
X127849753Y-98531140D01*
X126769885Y-98531140D01*
X124586050Y-96347305D01*
X124560938Y-96309722D01*
X124412048Y-96210237D01*
X124280751Y-96184120D01*
X124280747Y-96184120D01*
X124271520Y-96182285D01*
X124108748Y-96019513D01*
X123842235Y-95909120D01*
X123684079Y-95909120D01*
X123648951Y-95885648D01*
X123495777Y-95855180D01*
X123447081Y-95855180D01*
X123444060Y-95854579D01*
X123441039Y-95855180D01*
X116066520Y-95855180D01*
X116066520Y-95753465D01*
X116007903Y-95611950D01*
X125477574Y-95611950D01*
X127415170Y-97549547D01*
X127372160Y-97653383D01*
X127372160Y-97941853D01*
X127482553Y-98208366D01*
X127686532Y-98412345D01*
X127953045Y-98522738D01*
X128241515Y-98522738D01*
X128508028Y-98412345D01*
X128712007Y-98208366D01*
X128822400Y-97941853D01*
X128822400Y-97653383D01*
X128712007Y-97386870D01*
X128508028Y-97182891D01*
X128241515Y-97072498D01*
X128141475Y-97072498D01*
X125984268Y-94915292D01*
X125960532Y-94879768D01*
X125819802Y-94785735D01*
X125695703Y-94761050D01*
X125695698Y-94761050D01*
X125653800Y-94752716D01*
X125611902Y-94761050D01*
X114908808Y-94761050D01*
X114826505Y-94562352D01*
X114622526Y-94358373D01*
X114356013Y-94247980D01*
X114067543Y-94247980D01*
X113801030Y-94358373D01*
X113597051Y-94562352D01*
X113520250Y-94747767D01*
X113136409Y-94363927D01*
X113080057Y-94279590D01*
X112906358Y-94163528D01*
X112753184Y-94133060D01*
X112704488Y-94133060D01*
X112701467Y-94132459D01*
X112698446Y-94133060D01*
X111941917Y-94133060D01*
X111961627Y-94113350D01*
X119529753Y-94113350D01*
X119628873Y-94352648D01*
X119832852Y-94556627D01*
X120099365Y-94667020D01*
X120387835Y-94667020D01*
X120654348Y-94556627D01*
X120858327Y-94352648D01*
X120968720Y-94086135D01*
X120968720Y-93797665D01*
X120858327Y-93531152D01*
X120654348Y-93327173D01*
X120387835Y-93216780D01*
X120099365Y-93216780D01*
X119994620Y-93260167D01*
X119964200Y-93254116D01*
X119922302Y-93262450D01*
X111827298Y-93262450D01*
X111785400Y-93254116D01*
X111743502Y-93262450D01*
X111743497Y-93262450D01*
X111619398Y-93287135D01*
X111478668Y-93381168D01*
X111454933Y-93416690D01*
X110104491Y-94767133D01*
X110068969Y-94790868D01*
X110045234Y-94826390D01*
X110045232Y-94826392D01*
X110009568Y-94879768D01*
X109974936Y-94931598D01*
X109955619Y-95028713D01*
X109941916Y-95097600D01*
X109950251Y-95139502D01*
X109950250Y-95766776D01*
X109799852Y-95829073D01*
X109595873Y-96033052D01*
X109485480Y-96299565D01*
X108832650Y-96299565D01*
X108832650Y-93059250D01*
X129292351Y-93059250D01*
X129292350Y-104933750D01*
G04 #@! TD*
M02*
