G04 #@! TF.GenerationSoftware,KiCad,Pcbnew,5.0.0-rc3+dfsg1-2*
G04 #@! TF.CreationDate,2018-08-09T17:57:03+09:00*
G04 #@! TF.ProjectId,fst-01,6673742D30312E6B696361645F706362,rev?*
G04 #@! TF.SameCoordinates,PX791ddc0PY5e69114*
G04 #@! TF.FileFunction,Legend,Top*
G04 #@! TF.FilePolarity,Positive*
%FSLAX46Y46*%
G04 Gerber Fmt 4.6, Leading zero omitted, Abs format (unit mm)*
G04 Created by KiCad (PCBNEW 5.0.0-rc3+dfsg1-2) date Thu Aug  9 17:57:03 2018*
%MOMM*%
%LPD*%
G01*
G04 APERTURE LIST*
%ADD10C,0.300000*%
%ADD11C,0.149860*%
%ADD12C,0.200000*%
%ADD13C,0.254000*%
%ADD14C,0.150000*%
%ADD15C,0.152400*%
%ADD16C,0.120000*%
G04 APERTURE END LIST*
D10*
G04 #@! TO.C,U1*
X-4920000Y-1503500D02*
G75*
G03X-4920000Y-1503500I-180000J0D01*
G01*
D11*
X-6299700Y-2904560D02*
X-5298940Y-1903800D01*
X-5298940Y-1903800D02*
X-5298940Y3897560D01*
X-12101060Y-2904560D02*
X-12101060Y3897560D01*
X-12101060Y3897560D02*
X-5298940Y3897560D01*
X-6299700Y-2904560D02*
X-12101060Y-2904560D01*
D10*
G04 #@! TO.C,U4*
X-17745000Y1866800D02*
G75*
G03X-17745000Y1866800I-100000J0D01*
G01*
D12*
X-17695000Y1766800D02*
X-16595000Y1766800D01*
X-16595000Y1766800D02*
X-16595000Y366800D01*
X-16595000Y366800D02*
X-17695000Y366800D01*
X-17695000Y366800D02*
X-17695000Y1766800D01*
D13*
G04 #@! TO.C,J1*
X0Y4480000D02*
X0Y5680000D01*
X0Y-4480000D02*
X0Y-5680000D01*
D14*
G04 #@! TO.C,K1*
X-15367000Y-3543300D02*
X-15367000Y-4813300D01*
D15*
X-16637000Y-4813300D02*
X-16637000Y-3543300D01*
X-16637000Y-3543300D02*
X-10287000Y-3543300D01*
X-10274300Y-3543300D02*
X-10274300Y-4813300D01*
X-10287000Y-4813300D02*
X-16637000Y-4813300D01*
D11*
G04 #@! TO.C,R1*
X-15225960Y-3029520D02*
X-16374040Y-3029520D01*
X-16374040Y-3029520D02*
X-16374040Y-677480D01*
X-16374040Y-677480D02*
X-15225960Y-677480D01*
X-15225960Y-677480D02*
X-15225960Y-3029520D01*
G04 #@! TO.C,U3*
X-12742700Y1761520D02*
X-15257300Y1761520D01*
X-15257300Y2711480D02*
X-12742700Y2711480D01*
D10*
X-15168740Y1718340D02*
G75*
G03X-15168740Y1718340I-180000J0D01*
G01*
D11*
X-12740160Y2714020D02*
X-12740160Y1764060D01*
X-15257300Y2701320D02*
X-15257300Y1751360D01*
G04 #@! TO.C,D1*
X-17724840Y-279360D02*
X-17724840Y-3027640D01*
X-16475160Y-279360D02*
X-17724840Y-279360D01*
X-16475160Y-3027640D02*
X-16475160Y-279360D01*
X-17724840Y-3027640D02*
X-16475160Y-3027640D01*
D14*
X-17100000Y-1813500D02*
X-17700000Y-1113500D01*
X-16500000Y-1113500D02*
X-17100000Y-1813500D01*
D11*
G04 #@! TO.C,C9*
X-3499540Y5470400D02*
X-675060Y5470400D01*
X-3499540Y4022600D02*
X-3499540Y5470400D01*
X-675060Y4022600D02*
X-3499540Y4022600D01*
X-675060Y5470400D02*
X-675060Y4022600D01*
D16*
G04 #@! TO.C,U2*
X-1170400Y858400D02*
X-2630400Y858400D01*
X-1170400Y4018400D02*
X-3330400Y4018400D01*
X-1170400Y4018400D02*
X-1170400Y3088400D01*
X-1170400Y858400D02*
X-1170400Y1788400D01*
D11*
G04 #@! TO.C,X1*
X-523600Y-5035500D02*
X-3876400Y-5035500D01*
X-523600Y-971500D02*
X-523600Y-5035500D01*
X-3876400Y-971500D02*
X-523600Y-971500D01*
X-3876400Y-5035500D02*
X-3876400Y-971500D01*
G04 #@! TO.C,C2*
X-1473980Y270540D02*
X-1473980Y-877540D01*
X-3826020Y270540D02*
X-1473980Y270540D01*
X-3826020Y-877540D02*
X-3826020Y270540D01*
X-1473980Y-877540D02*
X-3826020Y-877540D01*
G04 #@! TO.C,C1*
X-4974040Y2636520D02*
X-3825960Y2636520D01*
X-4974040Y284480D02*
X-4974040Y2636520D01*
X-3825960Y284480D02*
X-4974040Y284480D01*
X-3825960Y2636520D02*
X-3825960Y284480D01*
G04 #@! TO.C,C4*
X-5123980Y-3179460D02*
X-5123980Y-4327540D01*
X-7476020Y-3179460D02*
X-5123980Y-3179460D01*
X-7476020Y-4327540D02*
X-7476020Y-3179460D01*
X-5123980Y-4327540D02*
X-7476020Y-4327540D01*
G04 #@! TO.C,C7*
X-12176020Y4222460D02*
X-12176020Y5370540D01*
X-9823980Y4222460D02*
X-12176020Y4222460D01*
X-9823980Y5370540D02*
X-9823980Y4222460D01*
X-12176020Y5370540D02*
X-9823980Y5370540D01*
G04 #@! TO.C,C6*
X-12425960Y-2954020D02*
X-13574040Y-2954020D01*
X-12425960Y-601980D02*
X-12425960Y-2954020D01*
X-13574040Y-601980D02*
X-12425960Y-601980D01*
X-13574040Y-2954020D02*
X-13574040Y-601980D01*
G04 #@! TO.C,C3*
X-3975960Y-4979520D02*
X-5124040Y-4979520D01*
X-3975960Y-2627480D02*
X-3975960Y-4979520D01*
X-5124040Y-2627480D02*
X-3975960Y-2627480D01*
X-5124040Y-4979520D02*
X-5124040Y-2627480D01*
G04 #@! TO.C,C5*
X-7523980Y-3179460D02*
X-7523980Y-4327540D01*
X-9876020Y-3179460D02*
X-7523980Y-3179460D01*
X-9876020Y-4327540D02*
X-9876020Y-3179460D01*
X-7523980Y-4327540D02*
X-9876020Y-4327540D01*
G04 #@! TO.C,C8*
X-3526100Y5476040D02*
X-3526100Y2651560D01*
X-4973900Y5476040D02*
X-3526100Y5476040D01*
X-4973900Y2651560D02*
X-4973900Y5476040D01*
X-3526100Y2651560D02*
X-4973900Y2651560D01*
G04 #@! TO.C,U1*
D15*
X-9504828Y4907081D02*
X-9504828Y4259381D01*
X-9466728Y4183181D01*
X-9428628Y4145081D01*
X-9352428Y4106981D01*
X-9200028Y4106981D01*
X-9123828Y4145081D01*
X-9085728Y4183181D01*
X-9047628Y4259381D01*
X-9047628Y4907081D01*
X-8247528Y4106981D02*
X-8704728Y4106981D01*
X-8476128Y4106981D02*
X-8476128Y4907081D01*
X-8552328Y4792781D01*
X-8628528Y4716581D01*
X-8704728Y4678481D01*
G04 #@! TO.C,U4*
D14*
X-17805343Y4633872D02*
X-17805343Y4148158D01*
X-17776772Y4091015D01*
X-17748200Y4062443D01*
X-17691058Y4033872D01*
X-17576772Y4033872D01*
X-17519629Y4062443D01*
X-17491058Y4091015D01*
X-17462486Y4148158D01*
X-17462486Y4633872D01*
X-16919629Y4433872D02*
X-16919629Y4033872D01*
X-17062486Y4662443D02*
X-17205343Y4233872D01*
X-16833915Y4233872D01*
G04 #@! TO.C,K1*
D11*
X-16584144Y-5668675D02*
X-16584144Y-5069235D01*
X-16241607Y-5668675D02*
X-16498510Y-5326138D01*
X-16241607Y-5069235D02*
X-16584144Y-5411772D01*
X-15670712Y-5668675D02*
X-16013249Y-5668675D01*
X-15841980Y-5668675D02*
X-15841980Y-5069235D01*
X-15899070Y-5154869D01*
X-15956160Y-5211959D01*
X-16013249Y-5240503D01*
G04 #@! TO.C,R1*
D15*
X-14231150Y-2533650D02*
X-14612150Y-2800350D01*
X-14231150Y-2990850D02*
X-15031250Y-2990850D01*
X-15031250Y-2686050D01*
X-14993150Y-2609850D01*
X-14955050Y-2571750D01*
X-14878850Y-2533650D01*
X-14764550Y-2533650D01*
X-14688350Y-2571750D01*
X-14650250Y-2609850D01*
X-14612150Y-2686050D01*
X-14612150Y-2990850D01*
X-14231150Y-1771650D02*
X-14231150Y-2228850D01*
X-14231150Y-2000250D02*
X-15031250Y-2000250D01*
X-14916950Y-2076450D01*
X-14840750Y-2152650D01*
X-14802650Y-2228850D01*
G04 #@! TO.C,U3*
X-16268700Y1250950D02*
X-16268700Y603250D01*
X-16230600Y527050D01*
X-16192500Y488950D01*
X-16116300Y450850D01*
X-15963900Y450850D01*
X-15887700Y488950D01*
X-15849600Y527050D01*
X-15811500Y603250D01*
X-15811500Y1250950D01*
X-15506700Y1250950D02*
X-15011400Y1250950D01*
X-15278100Y946150D01*
X-15163800Y946150D01*
X-15087600Y908050D01*
X-15049500Y869950D01*
X-15011400Y793750D01*
X-15011400Y603250D01*
X-15049500Y527050D01*
X-15087600Y488950D01*
X-15163800Y450850D01*
X-15392400Y450850D01*
X-15468600Y488950D01*
X-15506700Y527050D01*
G04 #@! TO.C,D1*
X-17106350Y-4428450D02*
X-17906450Y-4428450D01*
X-17906450Y-4237950D01*
X-17868350Y-4123650D01*
X-17792150Y-4047450D01*
X-17715950Y-4009350D01*
X-17563550Y-3971250D01*
X-17449250Y-3971250D01*
X-17296850Y-4009350D01*
X-17220650Y-4047450D01*
X-17144450Y-4123650D01*
X-17106350Y-4237950D01*
X-17106350Y-4428450D01*
X-17106350Y-3209250D02*
X-17106350Y-3666450D01*
X-17106350Y-3437850D02*
X-17906450Y-3437850D01*
X-17792150Y-3514050D01*
X-17715950Y-3590250D01*
X-17677850Y-3666450D01*
G04 #@! TO.C,C9*
D11*
X-396315Y3363894D02*
X-367770Y3335349D01*
X-339225Y3249715D01*
X-339225Y3192625D01*
X-367770Y3106991D01*
X-424860Y3049901D01*
X-481949Y3021357D01*
X-596128Y2992812D01*
X-681762Y2992812D01*
X-795941Y3021357D01*
X-853031Y3049901D01*
X-910120Y3106991D01*
X-938665Y3192625D01*
X-938665Y3249715D01*
X-910120Y3335349D01*
X-881576Y3363894D01*
X-339225Y3649341D02*
X-339225Y3763520D01*
X-367770Y3820610D01*
X-396315Y3849155D01*
X-481949Y3906244D01*
X-596128Y3934789D01*
X-824486Y3934789D01*
X-881576Y3906244D01*
X-910120Y3877700D01*
X-938665Y3820610D01*
X-938665Y3706431D01*
X-910120Y3649341D01*
X-881576Y3620797D01*
X-824486Y3592252D01*
X-681762Y3592252D01*
X-624673Y3620797D01*
X-596128Y3649341D01*
X-567583Y3706431D01*
X-567583Y3820610D01*
X-596128Y3877700D01*
X-624673Y3906244D01*
X-681762Y3934789D01*
G04 #@! TO.C,U2*
D14*
X-1635684Y1703016D02*
X-1635684Y1055397D01*
X-1597589Y979206D01*
X-1559494Y941111D01*
X-1483303Y903016D01*
X-1330922Y903016D01*
X-1254732Y941111D01*
X-1216637Y979206D01*
X-1178541Y1055397D01*
X-1178541Y1703016D01*
X-835684Y1626825D02*
X-797589Y1664920D01*
X-721399Y1703016D01*
X-530922Y1703016D01*
X-454732Y1664920D01*
X-416637Y1626825D01*
X-378541Y1550635D01*
X-378541Y1474444D01*
X-416637Y1360159D01*
X-873780Y903016D01*
X-378541Y903016D01*
G04 #@! TO.C,X1*
X-1385715Y-5274928D02*
X-985715Y-5874928D01*
X-985715Y-5274928D02*
X-1385715Y-5874928D01*
X-442858Y-5874928D02*
X-785715Y-5874928D01*
X-614286Y-5874928D02*
X-614286Y-5274928D01*
X-671429Y-5360642D01*
X-728572Y-5417785D01*
X-785715Y-5446357D01*
G04 #@! TO.C,C2*
D11*
X-895707Y-609025D02*
X-924252Y-637570D01*
X-1009886Y-666115D01*
X-1066976Y-666115D01*
X-1152610Y-637570D01*
X-1209700Y-580480D01*
X-1238244Y-523391D01*
X-1266789Y-409212D01*
X-1266789Y-323578D01*
X-1238244Y-209399D01*
X-1209700Y-152309D01*
X-1152610Y-95220D01*
X-1066976Y-66675D01*
X-1009886Y-66675D01*
X-924252Y-95220D01*
X-895707Y-123764D01*
X-667349Y-123764D02*
X-638804Y-95220D01*
X-581715Y-66675D01*
X-438991Y-66675D01*
X-381901Y-95220D01*
X-353357Y-123764D01*
X-324812Y-180854D01*
X-324812Y-237943D01*
X-353357Y-323578D01*
X-695894Y-666115D01*
X-324812Y-666115D01*
G04 #@! TO.C,C1*
X-3287607Y370115D02*
X-3316152Y341570D01*
X-3401786Y313025D01*
X-3458876Y313025D01*
X-3544510Y341570D01*
X-3601600Y398660D01*
X-3630144Y455749D01*
X-3658689Y569928D01*
X-3658689Y655562D01*
X-3630144Y769741D01*
X-3601600Y826831D01*
X-3544510Y883920D01*
X-3458876Y912465D01*
X-3401786Y912465D01*
X-3316152Y883920D01*
X-3287607Y855376D01*
X-2716712Y313025D02*
X-3059249Y313025D01*
X-2887980Y313025D02*
X-2887980Y912465D01*
X-2945070Y826831D01*
X-3002160Y769741D01*
X-3059249Y741197D01*
G04 #@! TO.C,C4*
X-6399907Y-5047085D02*
X-6428452Y-5075630D01*
X-6514086Y-5104175D01*
X-6571176Y-5104175D01*
X-6656810Y-5075630D01*
X-6713900Y-5018540D01*
X-6742444Y-4961451D01*
X-6770989Y-4847272D01*
X-6770989Y-4761638D01*
X-6742444Y-4647459D01*
X-6713900Y-4590369D01*
X-6656810Y-4533280D01*
X-6571176Y-4504735D01*
X-6514086Y-4504735D01*
X-6428452Y-4533280D01*
X-6399907Y-4561824D01*
X-5886101Y-4704548D02*
X-5886101Y-5104175D01*
X-6028825Y-4476190D02*
X-6171549Y-4904361D01*
X-5800467Y-4904361D01*
G04 #@! TO.C,C7*
X-13058247Y5263135D02*
X-13086792Y5234590D01*
X-13172426Y5206045D01*
X-13229516Y5206045D01*
X-13315150Y5234590D01*
X-13372240Y5291680D01*
X-13400784Y5348769D01*
X-13429329Y5462948D01*
X-13429329Y5548582D01*
X-13400784Y5662761D01*
X-13372240Y5719851D01*
X-13315150Y5776940D01*
X-13229516Y5805485D01*
X-13172426Y5805485D01*
X-13086792Y5776940D01*
X-13058247Y5748396D01*
X-12858434Y5805485D02*
X-12458807Y5805485D01*
X-12715710Y5206045D01*
G04 #@! TO.C,C6*
X-13226907Y-315685D02*
X-13255452Y-344230D01*
X-13341086Y-372775D01*
X-13398176Y-372775D01*
X-13483810Y-344230D01*
X-13540900Y-287140D01*
X-13569444Y-230051D01*
X-13597989Y-115872D01*
X-13597989Y-30238D01*
X-13569444Y83941D01*
X-13540900Y141031D01*
X-13483810Y198120D01*
X-13398176Y226665D01*
X-13341086Y226665D01*
X-13255452Y198120D01*
X-13226907Y169576D01*
X-12713101Y226665D02*
X-12827280Y226665D01*
X-12884370Y198120D01*
X-12912915Y169576D01*
X-12970004Y83941D01*
X-12998549Y-30238D01*
X-12998549Y-258596D01*
X-12970004Y-315685D01*
X-12941460Y-344230D01*
X-12884370Y-372775D01*
X-12770191Y-372775D01*
X-12713101Y-344230D01*
X-12684557Y-315685D01*
X-12656012Y-258596D01*
X-12656012Y-115872D01*
X-12684557Y-58782D01*
X-12713101Y-30238D01*
X-12770191Y-1693D01*
X-12884370Y-1693D01*
X-12941460Y-30238D01*
X-12970004Y-58782D01*
X-12998549Y-115872D01*
G04 #@! TO.C,C3*
X-4698167Y-5686365D02*
X-4726712Y-5714910D01*
X-4812346Y-5743455D01*
X-4869436Y-5743455D01*
X-4955070Y-5714910D01*
X-5012160Y-5657820D01*
X-5040704Y-5600731D01*
X-5069249Y-5486552D01*
X-5069249Y-5400918D01*
X-5040704Y-5286739D01*
X-5012160Y-5229649D01*
X-4955070Y-5172560D01*
X-4869436Y-5144015D01*
X-4812346Y-5144015D01*
X-4726712Y-5172560D01*
X-4698167Y-5201104D01*
X-4498354Y-5144015D02*
X-4127272Y-5144015D01*
X-4327085Y-5372373D01*
X-4241451Y-5372373D01*
X-4184361Y-5400918D01*
X-4155817Y-5429462D01*
X-4127272Y-5486552D01*
X-4127272Y-5629276D01*
X-4155817Y-5686365D01*
X-4184361Y-5714910D01*
X-4241451Y-5743455D01*
X-4412720Y-5743455D01*
X-4469809Y-5714910D01*
X-4498354Y-5686365D01*
G04 #@! TO.C,C5*
X-8799907Y-5047085D02*
X-8828452Y-5075630D01*
X-8914086Y-5104175D01*
X-8971176Y-5104175D01*
X-9056810Y-5075630D01*
X-9113900Y-5018540D01*
X-9142444Y-4961451D01*
X-9170989Y-4847272D01*
X-9170989Y-4761638D01*
X-9142444Y-4647459D01*
X-9113900Y-4590369D01*
X-9056810Y-4533280D01*
X-8971176Y-4504735D01*
X-8914086Y-4504735D01*
X-8828452Y-4533280D01*
X-8799907Y-4561824D01*
X-8257557Y-4504735D02*
X-8543004Y-4504735D01*
X-8571549Y-4790182D01*
X-8543004Y-4761638D01*
X-8485915Y-4733093D01*
X-8343191Y-4733093D01*
X-8286101Y-4761638D01*
X-8257557Y-4790182D01*
X-8229012Y-4847272D01*
X-8229012Y-4989996D01*
X-8257557Y-5047085D01*
X-8286101Y-5075630D01*
X-8343191Y-5104175D01*
X-8485915Y-5104175D01*
X-8543004Y-5075630D01*
X-8571549Y-5047085D01*
G04 #@! TO.C,C8*
X-5184215Y4743674D02*
X-5155670Y4715129D01*
X-5127125Y4629495D01*
X-5127125Y4572405D01*
X-5155670Y4486771D01*
X-5212760Y4429681D01*
X-5269849Y4401137D01*
X-5384028Y4372592D01*
X-5469662Y4372592D01*
X-5583841Y4401137D01*
X-5640931Y4429681D01*
X-5698020Y4486771D01*
X-5726565Y4572405D01*
X-5726565Y4629495D01*
X-5698020Y4715129D01*
X-5669476Y4743674D01*
X-5469662Y5086211D02*
X-5498207Y5029121D01*
X-5526752Y5000577D01*
X-5583841Y4972032D01*
X-5612386Y4972032D01*
X-5669476Y5000577D01*
X-5698020Y5029121D01*
X-5726565Y5086211D01*
X-5726565Y5200390D01*
X-5698020Y5257480D01*
X-5669476Y5286024D01*
X-5612386Y5314569D01*
X-5583841Y5314569D01*
X-5526752Y5286024D01*
X-5498207Y5257480D01*
X-5469662Y5200390D01*
X-5469662Y5086211D01*
X-5441118Y5029121D01*
X-5412573Y5000577D01*
X-5355483Y4972032D01*
X-5241304Y4972032D01*
X-5184215Y5000577D01*
X-5155670Y5029121D01*
X-5127125Y5086211D01*
X-5127125Y5200390D01*
X-5155670Y5257480D01*
X-5184215Y5286024D01*
X-5241304Y5314569D01*
X-5355483Y5314569D01*
X-5412573Y5286024D01*
X-5441118Y5257480D01*
X-5469662Y5200390D01*
G04 #@! TD*
M02*
