G04 #@! TF.GenerationSoftware,KiCad,Pcbnew,5.0.0-rc3+dfsg1-2*
G04 #@! TF.CreationDate,2018-08-11T13:42:50+09:00*
G04 #@! TF.ProjectId,fst-01,6673742D30312E6B696361645F706362,rev?*
G04 #@! TF.SameCoordinates,PX791ddc0PY5e69114*
G04 #@! TF.FileFunction,Copper,L2,Bot,Signal*
G04 #@! TF.FilePolarity,Positive*
%FSLAX46Y46*%
G04 Gerber Fmt 4.6, Leading zero omitted, Abs format (unit mm)*
G04 Created by KiCad (PCBNEW 5.0.0-rc3+dfsg1-2) date Sat Aug 11 13:42:50 2018*
%MOMM*%
%LPD*%
G01*
G04 APERTURE LIST*
G04 #@! TA.AperFunction,ComponentPad*
%ADD10C,0.800000*%
G04 #@! TD*
G04 #@! TA.AperFunction,ComponentPad*
%ADD11R,0.800000X0.800000*%
G04 #@! TD*
G04 #@! TA.AperFunction,ViaPad*
%ADD12C,0.700000*%
G04 #@! TD*
G04 #@! TA.AperFunction,ViaPad*
%ADD13C,0.800000*%
G04 #@! TD*
G04 #@! TA.AperFunction,Conductor*
%ADD14C,0.200660*%
G04 #@! TD*
G04 #@! TA.AperFunction,Conductor*
%ADD15C,0.381000*%
G04 #@! TD*
G04 #@! TA.AperFunction,Conductor*
%ADD16C,0.400000*%
G04 #@! TD*
G04 #@! TA.AperFunction,Conductor*
%ADD17C,0.250000*%
G04 #@! TD*
G04 #@! TA.AperFunction,Conductor*
%ADD18C,0.248920*%
G04 #@! TD*
G04 APERTURE END LIST*
D10*
G04 #@! TO.P,K1,2*
G04 #@! TO.N,/SWDIO*
X-14732000Y-4178300D03*
G04 #@! TO.P,K1,1*
G04 #@! TO.N,+3V3*
X-16002000Y-4178300D03*
G04 #@! TO.P,K1,3*
G04 #@! TO.N,/SWCLK*
X-13462000Y-4178300D03*
G04 #@! TO.P,K1,4*
G04 #@! TO.N,/NRST*
X-12192000Y-4178300D03*
D11*
G04 #@! TO.P,K1,5*
G04 #@! TO.N,GND*
X-10922000Y-4178300D03*
G04 #@! TD*
D12*
G04 #@! TO.N,GND*
G04 #@! TO.C,J1*
X1200000Y5250000D03*
X1200000Y-5250000D03*
G04 #@! TD*
D13*
G04 #@! TO.N,/D+_PLUG*
X396240Y-1203960D03*
X-15138660Y3353060D03*
G04 #@! TO.N,/D-_PLUG*
X1097280Y1198882D03*
X-12788222Y4023400D03*
G04 #@! TO.N,/NRST*
X-9822180Y-3497580D03*
X-4360139Y-550139D03*
G04 #@! TO.N,GND*
X-8699500Y419100D03*
X-13700000Y-1253500D03*
G04 #@! TO.N,+3V3*
X-3302000Y2362260D03*
X-11658600Y3098800D03*
X-5613400Y-2204720D03*
X-13700000Y-2503500D03*
G04 #@! TO.N,/PA3*
X-6756400Y5054600D03*
X-16789400Y2552700D03*
G04 #@! TD*
D14*
G04 #@! TO.N,/D+_PLUG*
X-14610080Y3350258D02*
X-15067280Y3350258D01*
X360680Y-1259840D02*
X210820Y-1409700D01*
X401320Y-1259840D02*
X360680Y-1259840D01*
X210820Y-1409700D02*
X-1612900Y-1409700D01*
X-1612900Y-1409700D02*
X-4312920Y1290320D01*
X-4312920Y1290320D02*
X-12550142Y1290320D01*
X-12550142Y1290320D02*
X-14610080Y3350258D01*
G04 #@! TO.N,/D-_PLUG*
X1162100Y1301700D02*
X1143000Y1270000D01*
X-1346200Y3810000D02*
X1162100Y1301700D01*
X-12725400Y4064000D02*
X-12471400Y3810000D01*
X-12471400Y3810000D02*
X-1346200Y3810000D01*
G04 #@! TO.N,/NRST*
X-9827260Y-3497580D02*
X-9827260Y-3423920D01*
X-9827260Y-3423920D02*
X-6953479Y-550139D01*
X-4925824Y-550139D02*
X-4360139Y-550139D01*
X-6953479Y-550139D02*
X-4925824Y-550139D01*
G04 #@! TO.N,GND*
X-10932160Y-3270292D02*
X-10932160Y-4216400D01*
X-13398500Y-1397000D02*
X-12904631Y-1297821D01*
X-12904631Y-1297821D02*
X-10932160Y-3270292D01*
D15*
G04 #@! TO.N,+3V3*
X-3555940Y2616200D02*
X-3302000Y2362260D01*
X-11531600Y3187700D02*
X-11511280Y3187700D01*
D16*
X-13150453Y3190240D02*
X-11529060Y3190240D01*
D15*
X-14298533Y4338320D02*
X-13150453Y3190240D01*
D16*
X-11176000Y2616200D02*
X-3555940Y2616200D01*
X-11511280Y3187700D02*
X-11511280Y2951480D01*
X-11511280Y2951480D02*
X-11176000Y2616200D01*
D17*
X736600Y-3164840D02*
X-4678680Y-3164840D01*
X-4678680Y-3164840D02*
X-5613400Y-2230120D01*
X-3302000Y2362260D02*
X-2763580Y2362260D01*
X-5613400Y-2230120D02*
X-5613400Y-2204720D01*
X-416560Y15240D02*
X894080Y15240D01*
X894080Y15240D02*
X1681480Y-772160D01*
X1681480Y-772160D02*
X1681480Y-2219960D01*
X-2763580Y2362260D02*
X-416560Y15240D01*
X1681480Y-2219960D02*
X736600Y-3164840D01*
D16*
X-13804900Y-2590800D02*
X-13690600Y-2476500D01*
X-15989300Y-2590800D02*
X-13804900Y-2590800D01*
X-15285720Y4338320D02*
X-14298533Y4338320D01*
X-15951200Y3672840D02*
X-15285720Y4338320D01*
X-15946120Y-4191000D02*
X-15951200Y-4185920D01*
X-15951200Y-4185920D02*
X-15951200Y3672840D01*
D14*
G04 #@! TO.N,/PA3*
X-7035800Y5308600D02*
X-6756400Y5029200D01*
X-15214600Y5308600D02*
X-7035800Y5308600D01*
X-16624300Y3898900D02*
X-15214600Y5308600D01*
X-16827500Y2476500D02*
X-16624300Y2679700D01*
X-16624300Y2679700D02*
X-16624300Y3898900D01*
G04 #@! TD*
D18*
G04 #@! TO.N,GND*
G36*
X2292350Y-5937250D02*
X-18167350Y-5937250D01*
X-18167350Y2696935D01*
X-17514520Y2696935D01*
X-17514520Y2408465D01*
X-17404127Y2141952D01*
X-17200148Y1937973D01*
X-16933635Y1827580D01*
X-16645165Y1827580D01*
X-16476319Y1897518D01*
X-16476320Y-2374487D01*
X-16483952Y-2385909D01*
X-16524707Y-2590800D01*
X-16483952Y-2795691D01*
X-16476320Y-2807113D01*
X-16476320Y-3627145D01*
X-16616727Y-3767552D01*
X-16727120Y-4034065D01*
X-16727120Y-4322535D01*
X-16616727Y-4589048D01*
X-16412748Y-4793027D01*
X-16146235Y-4903420D01*
X-15857765Y-4903420D01*
X-15591252Y-4793027D01*
X-15387273Y-4589048D01*
X-15367000Y-4540105D01*
X-15346727Y-4589048D01*
X-15142748Y-4793027D01*
X-14876235Y-4903420D01*
X-14587765Y-4903420D01*
X-14321252Y-4793027D01*
X-14117273Y-4589048D01*
X-14097000Y-4540105D01*
X-14076727Y-4589048D01*
X-13872748Y-4793027D01*
X-13606235Y-4903420D01*
X-13317765Y-4903420D01*
X-13051252Y-4793027D01*
X-12847273Y-4589048D01*
X-12827000Y-4540105D01*
X-12806727Y-4589048D01*
X-12602748Y-4793027D01*
X-12336235Y-4903420D01*
X-12047765Y-4903420D01*
X-11781252Y-4793027D01*
X-11577273Y-4589048D01*
X-11466880Y-4322535D01*
X-11466880Y-4034065D01*
X-11577273Y-3767552D01*
X-11781252Y-3563573D01*
X-12047765Y-3453180D01*
X-12336235Y-3453180D01*
X-12602748Y-3563573D01*
X-12806727Y-3767552D01*
X-12827000Y-3816495D01*
X-12847273Y-3767552D01*
X-13051252Y-3563573D01*
X-13317765Y-3453180D01*
X-13606235Y-3453180D01*
X-13872748Y-3563573D01*
X-14076727Y-3767552D01*
X-14097000Y-3816495D01*
X-14117273Y-3767552D01*
X-14321252Y-3563573D01*
X-14587765Y-3453180D01*
X-14876235Y-3453180D01*
X-15142748Y-3563573D01*
X-15346727Y-3767552D01*
X-15367000Y-3816495D01*
X-15387273Y-3767552D01*
X-15426080Y-3728745D01*
X-15426080Y-3353345D01*
X-10547300Y-3353345D01*
X-10547300Y-3641815D01*
X-10436907Y-3908328D01*
X-10232928Y-4112307D01*
X-9966415Y-4222700D01*
X-9677945Y-4222700D01*
X-9411432Y-4112307D01*
X-9207453Y-3908328D01*
X-9097060Y-3641815D01*
X-9097060Y-3353345D01*
X-9114033Y-3312369D01*
X-6777252Y-975589D01*
X-4960164Y-975589D01*
X-4770887Y-1164866D01*
X-4504374Y-1275259D01*
X-4215904Y-1275259D01*
X-3949391Y-1164866D01*
X-3745412Y-960887D01*
X-3635019Y-694374D01*
X-3635019Y-405904D01*
X-3745412Y-139391D01*
X-3949391Y64588D01*
X-4215904Y174981D01*
X-4504374Y174981D01*
X-4770887Y64588D01*
X-4960164Y-124689D01*
X-6911582Y-124689D01*
X-6953480Y-116355D01*
X-6995378Y-124689D01*
X-6995382Y-124689D01*
X-7119481Y-149374D01*
X-7260211Y-243407D01*
X-7283946Y-278929D01*
X-9777476Y-2772460D01*
X-9966415Y-2772460D01*
X-10232928Y-2882853D01*
X-10436907Y-3086832D01*
X-10547300Y-3353345D01*
X-15426080Y-3353345D01*
X-15426080Y-3115920D01*
X-14113055Y-3115920D01*
X-14110748Y-3118227D01*
X-13844235Y-3228620D01*
X-13555765Y-3228620D01*
X-13289252Y-3118227D01*
X-13085273Y-2914248D01*
X-12974880Y-2647735D01*
X-12974880Y-2359265D01*
X-13085273Y-2092752D01*
X-13289252Y-1888773D01*
X-13555765Y-1778380D01*
X-13844235Y-1778380D01*
X-14110748Y-1888773D01*
X-14287655Y-2065680D01*
X-15426080Y-2065680D01*
X-15426080Y2687249D01*
X-15282895Y2627940D01*
X-14994425Y2627940D01*
X-14727912Y2738333D01*
X-14663872Y2802373D01*
X-12880609Y1019110D01*
X-12856874Y983588D01*
X-12716144Y889555D01*
X-12592045Y864870D01*
X-12592041Y864870D01*
X-12550143Y856536D01*
X-12508245Y864870D01*
X-4489146Y864870D01*
X-1943367Y-1680910D01*
X-1919632Y-1716432D01*
X-1778902Y-1810465D01*
X-1654803Y-1835150D01*
X-1654798Y-1835150D01*
X-1612900Y-1843484D01*
X-1571002Y-1835150D01*
X25237Y-1835150D01*
X252005Y-1929080D01*
X540475Y-1929080D01*
X806988Y-1818687D01*
X1010967Y-1614708D01*
X1121360Y-1348195D01*
X1121360Y-1059725D01*
X1010967Y-793212D01*
X806988Y-589233D01*
X540475Y-478840D01*
X252005Y-478840D01*
X-14508Y-589233D01*
X-218487Y-793212D01*
X-297617Y-984250D01*
X-1436673Y-984250D01*
X-3982451Y1561527D01*
X-4006188Y1597052D01*
X-4146918Y1691085D01*
X-4271017Y1715770D01*
X-4271022Y1715770D01*
X-4312920Y1724104D01*
X-4354818Y1715770D01*
X-12373915Y1715770D01*
X-13353334Y2695188D01*
X-13202170Y2665120D01*
X-13153470Y2665120D01*
X-13150454Y2664520D01*
X-13147438Y2665120D01*
X-12250395Y2665120D01*
X-12069348Y2484073D01*
X-11802835Y2373680D01*
X-11676112Y2373680D01*
X-11583885Y2281453D01*
X-11554590Y2237610D01*
X-11380891Y2121548D01*
X-11227717Y2091080D01*
X-11227716Y2091080D01*
X-11176000Y2080793D01*
X-11124284Y2091080D01*
X-3974538Y2091080D01*
X-3916727Y1951512D01*
X-3712748Y1747533D01*
X-3446235Y1637140D01*
X-3157765Y1637140D01*
X-2891252Y1747533D01*
X-2838335Y1800450D01*
X-766190Y-271695D01*
X-741078Y-309278D01*
X-682891Y-348157D01*
X-592188Y-408763D01*
X-416560Y-443698D01*
X-372230Y-434880D01*
X707635Y-434880D01*
X1231360Y-958605D01*
X1231361Y-2033513D01*
X550155Y-2714720D01*
X-4492235Y-2714720D01*
X-4888280Y-2318675D01*
X-4888280Y-2060485D01*
X-4998673Y-1793972D01*
X-5202652Y-1589993D01*
X-5469165Y-1479600D01*
X-5757635Y-1479600D01*
X-6024148Y-1589993D01*
X-6228127Y-1793972D01*
X-6338520Y-2060485D01*
X-6338520Y-2348955D01*
X-6228127Y-2615468D01*
X-6024148Y-2819447D01*
X-5757635Y-2929840D01*
X-5550245Y-2929840D01*
X-5028310Y-3451775D01*
X-5003198Y-3489358D01*
X-4854308Y-3588843D01*
X-4723011Y-3614960D01*
X-4723007Y-3614960D01*
X-4678680Y-3623777D01*
X-4634353Y-3614960D01*
X692273Y-3614960D01*
X736600Y-3623777D01*
X780927Y-3614960D01*
X780931Y-3614960D01*
X912228Y-3588843D01*
X1061118Y-3489358D01*
X1086230Y-3451775D01*
X1968417Y-2569588D01*
X2005998Y-2544478D01*
X2051420Y-2476500D01*
X2105483Y-2395588D01*
X2114759Y-2348955D01*
X2131600Y-2264291D01*
X2131600Y-2264288D01*
X2140417Y-2219961D01*
X2131600Y-2175634D01*
X2131600Y-816487D01*
X2140417Y-772160D01*
X2131600Y-727833D01*
X2131600Y-727829D01*
X2105483Y-596532D01*
X2005998Y-447642D01*
X1968415Y-422530D01*
X1243709Y302176D01*
X1218598Y339758D01*
X1069708Y439243D01*
X938411Y465360D01*
X938407Y465360D01*
X894080Y474177D01*
X849753Y465360D01*
X-230115Y465360D01*
X-2413950Y2649195D01*
X-2439062Y2686778D01*
X-2587952Y2786263D01*
X-2719249Y2812380D01*
X-2719253Y2812380D01*
X-2728480Y2814215D01*
X-2891252Y2976987D01*
X-3157765Y3087380D01*
X-3315921Y3087380D01*
X-3351049Y3110852D01*
X-3504223Y3141320D01*
X-3552919Y3141320D01*
X-3555940Y3141921D01*
X-3558961Y3141320D01*
X-10933480Y3141320D01*
X-10933480Y3243035D01*
X-10992097Y3384550D01*
X-1522426Y3384550D01*
X415170Y1446953D01*
X372160Y1343117D01*
X372160Y1054647D01*
X482553Y788134D01*
X686532Y584155D01*
X953045Y473762D01*
X1241515Y473762D01*
X1508028Y584155D01*
X1712007Y788134D01*
X1822400Y1054647D01*
X1822400Y1343117D01*
X1712007Y1609630D01*
X1508028Y1813609D01*
X1241515Y1924002D01*
X1141475Y1924002D01*
X-1015732Y4081208D01*
X-1039468Y4116732D01*
X-1180198Y4210765D01*
X-1304297Y4235450D01*
X-1304302Y4235450D01*
X-1346200Y4243784D01*
X-1388098Y4235450D01*
X-12091192Y4235450D01*
X-12173495Y4434148D01*
X-12377474Y4638127D01*
X-12643987Y4748520D01*
X-12932457Y4748520D01*
X-13198970Y4638127D01*
X-13402949Y4434148D01*
X-13479750Y4248733D01*
X-13863591Y4632573D01*
X-13919943Y4716910D01*
X-14093642Y4832972D01*
X-14246816Y4863440D01*
X-14295512Y4863440D01*
X-14298533Y4864041D01*
X-14301554Y4863440D01*
X-15058083Y4863440D01*
X-15038373Y4883150D01*
X-7470247Y4883150D01*
X-7371127Y4643852D01*
X-7167148Y4439873D01*
X-6900635Y4329480D01*
X-6612165Y4329480D01*
X-6345652Y4439873D01*
X-6141673Y4643852D01*
X-6031280Y4910365D01*
X-6031280Y5198835D01*
X-6141673Y5465348D01*
X-6345652Y5669327D01*
X-6612165Y5779720D01*
X-6900635Y5779720D01*
X-7005380Y5736333D01*
X-7035800Y5742384D01*
X-7077698Y5734050D01*
X-15172702Y5734050D01*
X-15214600Y5742384D01*
X-15256498Y5734050D01*
X-15256503Y5734050D01*
X-15380602Y5709365D01*
X-15521332Y5615332D01*
X-15545067Y5579810D01*
X-16895509Y4229367D01*
X-16931031Y4205632D01*
X-16954766Y4170110D01*
X-16954768Y4170108D01*
X-16990432Y4116732D01*
X-17025064Y4064902D01*
X-17044381Y3967787D01*
X-17058084Y3898900D01*
X-17049749Y3856998D01*
X-17049750Y3229724D01*
X-17200148Y3167427D01*
X-17404127Y2963448D01*
X-17514520Y2696935D01*
X-18167350Y2696935D01*
X-18167350Y5937250D01*
X2292351Y5937250D01*
X2292350Y-5937250D01*
X2292350Y-5937250D01*
G37*
X2292350Y-5937250D02*
X-18167350Y-5937250D01*
X-18167350Y2696935D01*
X-17514520Y2696935D01*
X-17514520Y2408465D01*
X-17404127Y2141952D01*
X-17200148Y1937973D01*
X-16933635Y1827580D01*
X-16645165Y1827580D01*
X-16476319Y1897518D01*
X-16476320Y-2374487D01*
X-16483952Y-2385909D01*
X-16524707Y-2590800D01*
X-16483952Y-2795691D01*
X-16476320Y-2807113D01*
X-16476320Y-3627145D01*
X-16616727Y-3767552D01*
X-16727120Y-4034065D01*
X-16727120Y-4322535D01*
X-16616727Y-4589048D01*
X-16412748Y-4793027D01*
X-16146235Y-4903420D01*
X-15857765Y-4903420D01*
X-15591252Y-4793027D01*
X-15387273Y-4589048D01*
X-15367000Y-4540105D01*
X-15346727Y-4589048D01*
X-15142748Y-4793027D01*
X-14876235Y-4903420D01*
X-14587765Y-4903420D01*
X-14321252Y-4793027D01*
X-14117273Y-4589048D01*
X-14097000Y-4540105D01*
X-14076727Y-4589048D01*
X-13872748Y-4793027D01*
X-13606235Y-4903420D01*
X-13317765Y-4903420D01*
X-13051252Y-4793027D01*
X-12847273Y-4589048D01*
X-12827000Y-4540105D01*
X-12806727Y-4589048D01*
X-12602748Y-4793027D01*
X-12336235Y-4903420D01*
X-12047765Y-4903420D01*
X-11781252Y-4793027D01*
X-11577273Y-4589048D01*
X-11466880Y-4322535D01*
X-11466880Y-4034065D01*
X-11577273Y-3767552D01*
X-11781252Y-3563573D01*
X-12047765Y-3453180D01*
X-12336235Y-3453180D01*
X-12602748Y-3563573D01*
X-12806727Y-3767552D01*
X-12827000Y-3816495D01*
X-12847273Y-3767552D01*
X-13051252Y-3563573D01*
X-13317765Y-3453180D01*
X-13606235Y-3453180D01*
X-13872748Y-3563573D01*
X-14076727Y-3767552D01*
X-14097000Y-3816495D01*
X-14117273Y-3767552D01*
X-14321252Y-3563573D01*
X-14587765Y-3453180D01*
X-14876235Y-3453180D01*
X-15142748Y-3563573D01*
X-15346727Y-3767552D01*
X-15367000Y-3816495D01*
X-15387273Y-3767552D01*
X-15426080Y-3728745D01*
X-15426080Y-3353345D01*
X-10547300Y-3353345D01*
X-10547300Y-3641815D01*
X-10436907Y-3908328D01*
X-10232928Y-4112307D01*
X-9966415Y-4222700D01*
X-9677945Y-4222700D01*
X-9411432Y-4112307D01*
X-9207453Y-3908328D01*
X-9097060Y-3641815D01*
X-9097060Y-3353345D01*
X-9114033Y-3312369D01*
X-6777252Y-975589D01*
X-4960164Y-975589D01*
X-4770887Y-1164866D01*
X-4504374Y-1275259D01*
X-4215904Y-1275259D01*
X-3949391Y-1164866D01*
X-3745412Y-960887D01*
X-3635019Y-694374D01*
X-3635019Y-405904D01*
X-3745412Y-139391D01*
X-3949391Y64588D01*
X-4215904Y174981D01*
X-4504374Y174981D01*
X-4770887Y64588D01*
X-4960164Y-124689D01*
X-6911582Y-124689D01*
X-6953480Y-116355D01*
X-6995378Y-124689D01*
X-6995382Y-124689D01*
X-7119481Y-149374D01*
X-7260211Y-243407D01*
X-7283946Y-278929D01*
X-9777476Y-2772460D01*
X-9966415Y-2772460D01*
X-10232928Y-2882853D01*
X-10436907Y-3086832D01*
X-10547300Y-3353345D01*
X-15426080Y-3353345D01*
X-15426080Y-3115920D01*
X-14113055Y-3115920D01*
X-14110748Y-3118227D01*
X-13844235Y-3228620D01*
X-13555765Y-3228620D01*
X-13289252Y-3118227D01*
X-13085273Y-2914248D01*
X-12974880Y-2647735D01*
X-12974880Y-2359265D01*
X-13085273Y-2092752D01*
X-13289252Y-1888773D01*
X-13555765Y-1778380D01*
X-13844235Y-1778380D01*
X-14110748Y-1888773D01*
X-14287655Y-2065680D01*
X-15426080Y-2065680D01*
X-15426080Y2687249D01*
X-15282895Y2627940D01*
X-14994425Y2627940D01*
X-14727912Y2738333D01*
X-14663872Y2802373D01*
X-12880609Y1019110D01*
X-12856874Y983588D01*
X-12716144Y889555D01*
X-12592045Y864870D01*
X-12592041Y864870D01*
X-12550143Y856536D01*
X-12508245Y864870D01*
X-4489146Y864870D01*
X-1943367Y-1680910D01*
X-1919632Y-1716432D01*
X-1778902Y-1810465D01*
X-1654803Y-1835150D01*
X-1654798Y-1835150D01*
X-1612900Y-1843484D01*
X-1571002Y-1835150D01*
X25237Y-1835150D01*
X252005Y-1929080D01*
X540475Y-1929080D01*
X806988Y-1818687D01*
X1010967Y-1614708D01*
X1121360Y-1348195D01*
X1121360Y-1059725D01*
X1010967Y-793212D01*
X806988Y-589233D01*
X540475Y-478840D01*
X252005Y-478840D01*
X-14508Y-589233D01*
X-218487Y-793212D01*
X-297617Y-984250D01*
X-1436673Y-984250D01*
X-3982451Y1561527D01*
X-4006188Y1597052D01*
X-4146918Y1691085D01*
X-4271017Y1715770D01*
X-4271022Y1715770D01*
X-4312920Y1724104D01*
X-4354818Y1715770D01*
X-12373915Y1715770D01*
X-13353334Y2695188D01*
X-13202170Y2665120D01*
X-13153470Y2665120D01*
X-13150454Y2664520D01*
X-13147438Y2665120D01*
X-12250395Y2665120D01*
X-12069348Y2484073D01*
X-11802835Y2373680D01*
X-11676112Y2373680D01*
X-11583885Y2281453D01*
X-11554590Y2237610D01*
X-11380891Y2121548D01*
X-11227717Y2091080D01*
X-11227716Y2091080D01*
X-11176000Y2080793D01*
X-11124284Y2091080D01*
X-3974538Y2091080D01*
X-3916727Y1951512D01*
X-3712748Y1747533D01*
X-3446235Y1637140D01*
X-3157765Y1637140D01*
X-2891252Y1747533D01*
X-2838335Y1800450D01*
X-766190Y-271695D01*
X-741078Y-309278D01*
X-682891Y-348157D01*
X-592188Y-408763D01*
X-416560Y-443698D01*
X-372230Y-434880D01*
X707635Y-434880D01*
X1231360Y-958605D01*
X1231361Y-2033513D01*
X550155Y-2714720D01*
X-4492235Y-2714720D01*
X-4888280Y-2318675D01*
X-4888280Y-2060485D01*
X-4998673Y-1793972D01*
X-5202652Y-1589993D01*
X-5469165Y-1479600D01*
X-5757635Y-1479600D01*
X-6024148Y-1589993D01*
X-6228127Y-1793972D01*
X-6338520Y-2060485D01*
X-6338520Y-2348955D01*
X-6228127Y-2615468D01*
X-6024148Y-2819447D01*
X-5757635Y-2929840D01*
X-5550245Y-2929840D01*
X-5028310Y-3451775D01*
X-5003198Y-3489358D01*
X-4854308Y-3588843D01*
X-4723011Y-3614960D01*
X-4723007Y-3614960D01*
X-4678680Y-3623777D01*
X-4634353Y-3614960D01*
X692273Y-3614960D01*
X736600Y-3623777D01*
X780927Y-3614960D01*
X780931Y-3614960D01*
X912228Y-3588843D01*
X1061118Y-3489358D01*
X1086230Y-3451775D01*
X1968417Y-2569588D01*
X2005998Y-2544478D01*
X2051420Y-2476500D01*
X2105483Y-2395588D01*
X2114759Y-2348955D01*
X2131600Y-2264291D01*
X2131600Y-2264288D01*
X2140417Y-2219961D01*
X2131600Y-2175634D01*
X2131600Y-816487D01*
X2140417Y-772160D01*
X2131600Y-727833D01*
X2131600Y-727829D01*
X2105483Y-596532D01*
X2005998Y-447642D01*
X1968415Y-422530D01*
X1243709Y302176D01*
X1218598Y339758D01*
X1069708Y439243D01*
X938411Y465360D01*
X938407Y465360D01*
X894080Y474177D01*
X849753Y465360D01*
X-230115Y465360D01*
X-2413950Y2649195D01*
X-2439062Y2686778D01*
X-2587952Y2786263D01*
X-2719249Y2812380D01*
X-2719253Y2812380D01*
X-2728480Y2814215D01*
X-2891252Y2976987D01*
X-3157765Y3087380D01*
X-3315921Y3087380D01*
X-3351049Y3110852D01*
X-3504223Y3141320D01*
X-3552919Y3141320D01*
X-3555940Y3141921D01*
X-3558961Y3141320D01*
X-10933480Y3141320D01*
X-10933480Y3243035D01*
X-10992097Y3384550D01*
X-1522426Y3384550D01*
X415170Y1446953D01*
X372160Y1343117D01*
X372160Y1054647D01*
X482553Y788134D01*
X686532Y584155D01*
X953045Y473762D01*
X1241515Y473762D01*
X1508028Y584155D01*
X1712007Y788134D01*
X1822400Y1054647D01*
X1822400Y1343117D01*
X1712007Y1609630D01*
X1508028Y1813609D01*
X1241515Y1924002D01*
X1141475Y1924002D01*
X-1015732Y4081208D01*
X-1039468Y4116732D01*
X-1180198Y4210765D01*
X-1304297Y4235450D01*
X-1304302Y4235450D01*
X-1346200Y4243784D01*
X-1388098Y4235450D01*
X-12091192Y4235450D01*
X-12173495Y4434148D01*
X-12377474Y4638127D01*
X-12643987Y4748520D01*
X-12932457Y4748520D01*
X-13198970Y4638127D01*
X-13402949Y4434148D01*
X-13479750Y4248733D01*
X-13863591Y4632573D01*
X-13919943Y4716910D01*
X-14093642Y4832972D01*
X-14246816Y4863440D01*
X-14295512Y4863440D01*
X-14298533Y4864041D01*
X-14301554Y4863440D01*
X-15058083Y4863440D01*
X-15038373Y4883150D01*
X-7470247Y4883150D01*
X-7371127Y4643852D01*
X-7167148Y4439873D01*
X-6900635Y4329480D01*
X-6612165Y4329480D01*
X-6345652Y4439873D01*
X-6141673Y4643852D01*
X-6031280Y4910365D01*
X-6031280Y5198835D01*
X-6141673Y5465348D01*
X-6345652Y5669327D01*
X-6612165Y5779720D01*
X-6900635Y5779720D01*
X-7005380Y5736333D01*
X-7035800Y5742384D01*
X-7077698Y5734050D01*
X-15172702Y5734050D01*
X-15214600Y5742384D01*
X-15256498Y5734050D01*
X-15256503Y5734050D01*
X-15380602Y5709365D01*
X-15521332Y5615332D01*
X-15545067Y5579810D01*
X-16895509Y4229367D01*
X-16931031Y4205632D01*
X-16954766Y4170110D01*
X-16954768Y4170108D01*
X-16990432Y4116732D01*
X-17025064Y4064902D01*
X-17044381Y3967787D01*
X-17058084Y3898900D01*
X-17049749Y3856998D01*
X-17049750Y3229724D01*
X-17200148Y3167427D01*
X-17404127Y2963448D01*
X-17514520Y2696935D01*
X-18167350Y2696935D01*
X-18167350Y5937250D01*
X2292351Y5937250D01*
X2292350Y-5937250D01*
G04 #@! TD*
M02*
