M48
;DRILL file {KiCad 5.0.0-rc3+dfsg1-2} date Fri Aug 10 14:32:37 2018
;FORMAT={3:3/ absolute / metric / suppress leading zeros}
FMAT,2
METRIC,TZ
T1C0.500
%
G90
G05
M71
T1
X110211Y-96444
X111861Y-95643
X113300Y-100250
X113300Y-101500
X114212Y-94973
X115341Y-95898
X117178Y-102494
X118301Y-98577
X120244Y-93942
X121387Y-101201
X122632Y-99555
X123698Y-96634
X127396Y-100200
X128097Y-97798
X110998Y-103175
X112268Y-103175
X113538Y-103175
X114808Y-103175
X116078Y-103175
X128200Y-93747
X128200Y-104247
T0
M30
