G04 #@! TF.GenerationSoftware,KiCad,Pcbnew,5.0.1+dfsg1-3*
G04 #@! TF.CreationDate,2018-12-05T12:11:20+09:00*
G04 #@! TF.ProjectId,fst-01,6673742D30312E6B696361645F706362,rev?*
G04 #@! TF.SameCoordinates,Original*
G04 #@! TF.FileFunction,Soldermask,Top*
G04 #@! TF.FilePolarity,Negative*
%FSLAX46Y46*%
G04 Gerber Fmt 4.6, Leading zero omitted, Abs format (unit mm)*
G04 Created by KiCad (PCBNEW 5.0.1+dfsg1-3) date Wed Dec  5 12:11:20 2018*
%MOMM*%
%LPD*%
G01*
G04 APERTURE LIST*
%ADD10C,0.150000*%
G04 APERTURE END LIST*
D10*
G36*
X128323969Y-103787832D02*
X128401313Y-103819870D01*
X128470923Y-103866381D01*
X128530119Y-103925577D01*
X128576630Y-103995187D01*
X128608668Y-104072531D01*
X128625000Y-104154641D01*
X128625000Y-104238359D01*
X128608668Y-104320469D01*
X128576630Y-104397813D01*
X128530119Y-104467423D01*
X128470923Y-104526619D01*
X128401313Y-104573130D01*
X128323969Y-104605168D01*
X128241859Y-104621500D01*
X128158141Y-104621500D01*
X128076031Y-104605168D01*
X127998687Y-104573130D01*
X127929077Y-104526619D01*
X127869881Y-104467423D01*
X127823370Y-104397813D01*
X127791332Y-104320469D01*
X127775000Y-104238359D01*
X127775000Y-104154641D01*
X127791332Y-104072531D01*
X127823370Y-103995187D01*
X127869881Y-103925577D01*
X127929077Y-103866381D01*
X127998687Y-103819870D01*
X128076031Y-103787832D01*
X128158141Y-103771500D01*
X128241859Y-103771500D01*
X128323969Y-103787832D01*
X128323969Y-103787832D01*
G37*
G36*
X116528000Y-103624800D02*
X115628000Y-103624800D01*
X115628000Y-102724800D01*
X116528000Y-102724800D01*
X116528000Y-103624800D01*
X116528000Y-103624800D01*
G37*
G36*
X112399262Y-102742093D02*
X112481155Y-102776015D01*
X112554859Y-102825262D01*
X112617538Y-102887941D01*
X112666785Y-102961645D01*
X112700707Y-103043538D01*
X112718000Y-103130479D01*
X112718000Y-103219121D01*
X112700707Y-103306062D01*
X112666785Y-103387955D01*
X112617538Y-103461659D01*
X112554859Y-103524338D01*
X112481155Y-103573585D01*
X112399262Y-103607507D01*
X112312321Y-103624800D01*
X112223679Y-103624800D01*
X112136738Y-103607507D01*
X112054845Y-103573585D01*
X111981141Y-103524338D01*
X111918462Y-103461659D01*
X111869215Y-103387955D01*
X111835293Y-103306062D01*
X111818000Y-103219121D01*
X111818000Y-103130479D01*
X111835293Y-103043538D01*
X111869215Y-102961645D01*
X111918462Y-102887941D01*
X111981141Y-102825262D01*
X112054845Y-102776015D01*
X112136738Y-102742093D01*
X112223679Y-102724800D01*
X112312321Y-102724800D01*
X112399262Y-102742093D01*
X112399262Y-102742093D01*
G37*
G36*
X111129262Y-102742093D02*
X111211155Y-102776015D01*
X111284859Y-102825262D01*
X111347538Y-102887941D01*
X111396785Y-102961645D01*
X111430707Y-103043538D01*
X111448000Y-103130479D01*
X111448000Y-103219121D01*
X111430707Y-103306062D01*
X111396785Y-103387955D01*
X111347538Y-103461659D01*
X111284859Y-103524338D01*
X111211155Y-103573585D01*
X111129262Y-103607507D01*
X111042321Y-103624800D01*
X110953679Y-103624800D01*
X110866738Y-103607507D01*
X110784845Y-103573585D01*
X110711141Y-103524338D01*
X110648462Y-103461659D01*
X110599215Y-103387955D01*
X110565293Y-103306062D01*
X110548000Y-103219121D01*
X110548000Y-103130479D01*
X110565293Y-103043538D01*
X110599215Y-102961645D01*
X110648462Y-102887941D01*
X110711141Y-102825262D01*
X110784845Y-102776015D01*
X110866738Y-102742093D01*
X110953679Y-102724800D01*
X111042321Y-102724800D01*
X111129262Y-102742093D01*
X111129262Y-102742093D01*
G37*
G36*
X114939262Y-102742093D02*
X115021155Y-102776015D01*
X115094859Y-102825262D01*
X115157538Y-102887941D01*
X115206785Y-102961645D01*
X115240707Y-103043538D01*
X115258000Y-103130479D01*
X115258000Y-103219121D01*
X115240707Y-103306062D01*
X115206785Y-103387955D01*
X115157538Y-103461659D01*
X115094859Y-103524338D01*
X115021155Y-103573585D01*
X114939262Y-103607507D01*
X114852321Y-103624800D01*
X114763679Y-103624800D01*
X114676738Y-103607507D01*
X114594845Y-103573585D01*
X114521141Y-103524338D01*
X114458462Y-103461659D01*
X114409215Y-103387955D01*
X114375293Y-103306062D01*
X114358000Y-103219121D01*
X114358000Y-103130479D01*
X114375293Y-103043538D01*
X114409215Y-102961645D01*
X114458462Y-102887941D01*
X114521141Y-102825262D01*
X114594845Y-102776015D01*
X114676738Y-102742093D01*
X114763679Y-102724800D01*
X114852321Y-102724800D01*
X114939262Y-102742093D01*
X114939262Y-102742093D01*
G37*
G36*
X113669262Y-102742093D02*
X113751155Y-102776015D01*
X113824859Y-102825262D01*
X113887538Y-102887941D01*
X113936785Y-102961645D01*
X113970707Y-103043538D01*
X113988000Y-103130479D01*
X113988000Y-103219121D01*
X113970707Y-103306062D01*
X113936785Y-103387955D01*
X113887538Y-103461659D01*
X113824859Y-103524338D01*
X113751155Y-103573585D01*
X113669262Y-103607507D01*
X113582321Y-103624800D01*
X113493679Y-103624800D01*
X113406738Y-103607507D01*
X113324845Y-103573585D01*
X113251141Y-103524338D01*
X113188462Y-103461659D01*
X113139215Y-103387955D01*
X113105293Y-103306062D01*
X113088000Y-103219121D01*
X113088000Y-103130479D01*
X113105293Y-103043538D01*
X113139215Y-102961645D01*
X113188462Y-102887941D01*
X113251141Y-102825262D01*
X113324845Y-102776015D01*
X113406738Y-102742093D01*
X113493679Y-102724800D01*
X113582321Y-102724800D01*
X113669262Y-102742093D01*
X113669262Y-102742093D01*
G37*
G36*
X125851200Y-103447700D02*
X124598800Y-103447700D01*
X124598800Y-102295300D01*
X125851200Y-102295300D01*
X125851200Y-103447700D01*
X125851200Y-103447700D01*
G37*
G36*
X124151200Y-103447700D02*
X122898800Y-103447700D01*
X122898800Y-102295300D01*
X124151200Y-102295300D01*
X124151200Y-103447700D01*
X124151200Y-103447700D01*
G37*
G36*
X120608560Y-103181950D02*
X119694160Y-103181950D01*
X119694160Y-102331050D01*
X120608560Y-102331050D01*
X120608560Y-103181950D01*
X120608560Y-103181950D01*
G37*
G36*
X121705840Y-103181950D02*
X120791440Y-103181950D01*
X120791440Y-102331050D01*
X121705840Y-102331050D01*
X121705840Y-103181950D01*
X121705840Y-103181950D01*
G37*
G36*
X119305840Y-103181950D02*
X118391440Y-103181950D01*
X118391440Y-102331050D01*
X119305840Y-102331050D01*
X119305840Y-103181950D01*
X119305840Y-103181950D01*
G37*
G36*
X118208560Y-103181950D02*
X117294160Y-103181950D01*
X117294160Y-102331050D01*
X118208560Y-102331050D01*
X118208560Y-103181950D01*
X118208560Y-103181950D01*
G37*
G36*
X127729553Y-101826488D02*
X127786968Y-101843904D01*
X127839877Y-101872184D01*
X127886254Y-101910246D01*
X127924316Y-101956623D01*
X127952596Y-102009532D01*
X127970012Y-102066947D01*
X127976200Y-102129767D01*
X127976200Y-102863233D01*
X127970012Y-102926053D01*
X127952596Y-102983468D01*
X127924316Y-103036377D01*
X127886254Y-103082754D01*
X127839877Y-103120816D01*
X127786968Y-103149096D01*
X127729553Y-103166512D01*
X127666733Y-103172700D01*
X126633267Y-103172700D01*
X126570447Y-103166512D01*
X126513032Y-103149096D01*
X126460123Y-103120816D01*
X126413746Y-103082754D01*
X126375684Y-103036377D01*
X126347404Y-102983468D01*
X126329988Y-102926053D01*
X126323800Y-102863233D01*
X126323800Y-102129767D01*
X126329988Y-102066947D01*
X126347404Y-102009532D01*
X126375684Y-101956623D01*
X126413746Y-101910246D01*
X126460123Y-101872184D01*
X126513032Y-101843904D01*
X126570447Y-101826488D01*
X126633267Y-101820300D01*
X127666733Y-101820300D01*
X127729553Y-101826488D01*
X127729553Y-101826488D01*
G37*
G36*
X125851200Y-102047700D02*
X124598800Y-102047700D01*
X124598800Y-100895300D01*
X125851200Y-100895300D01*
X125851200Y-102047700D01*
X125851200Y-102047700D01*
G37*
G36*
X124151200Y-102047700D02*
X122898800Y-102047700D01*
X122898800Y-100895300D01*
X124151200Y-100895300D01*
X124151200Y-102047700D01*
X124151200Y-102047700D01*
G37*
G36*
X111675450Y-101862340D02*
X110824550Y-101862340D01*
X110824550Y-100947940D01*
X111675450Y-100947940D01*
X111675450Y-101862340D01*
X111675450Y-101862340D01*
G37*
G36*
X110176200Y-101832700D02*
X109323800Y-101832700D01*
X109323800Y-100980300D01*
X110176200Y-100980300D01*
X110176200Y-101832700D01*
X110176200Y-101832700D01*
G37*
G36*
X114425450Y-101782340D02*
X113574550Y-101782340D01*
X113574550Y-100867940D01*
X114425450Y-100867940D01*
X114425450Y-101782340D01*
X114425450Y-101782340D01*
G37*
G36*
X120490000Y-101706500D02*
X116110000Y-101706500D01*
X116110000Y-100856500D01*
X120490000Y-100856500D01*
X120490000Y-101706500D01*
X120490000Y-101706500D01*
G37*
G36*
X111675450Y-100765060D02*
X110824550Y-100765060D01*
X110824550Y-99850660D01*
X111675450Y-99850660D01*
X111675450Y-100765060D01*
X111675450Y-100765060D01*
G37*
G36*
X115950000Y-100696500D02*
X115100000Y-100696500D01*
X115100000Y-96316500D01*
X115950000Y-96316500D01*
X115950000Y-100696500D01*
X115950000Y-100696500D01*
G37*
G36*
X121500000Y-100696500D02*
X120650000Y-100696500D01*
X120650000Y-96316500D01*
X121500000Y-96316500D01*
X121500000Y-100696500D01*
X121500000Y-100696500D01*
G37*
G36*
X114425450Y-100685060D02*
X113574550Y-100685060D01*
X113574550Y-99770660D01*
X114425450Y-99770660D01*
X114425450Y-100685060D01*
X114425450Y-100685060D01*
G37*
G36*
X127729553Y-99326488D02*
X127786968Y-99343904D01*
X127839877Y-99372184D01*
X127886254Y-99410246D01*
X127924316Y-99456623D01*
X127952596Y-99509532D01*
X127970012Y-99566947D01*
X127976200Y-99629767D01*
X127976200Y-100363233D01*
X127970012Y-100426053D01*
X127952596Y-100483468D01*
X127924316Y-100536377D01*
X127886254Y-100582754D01*
X127839877Y-100620816D01*
X127786968Y-100649096D01*
X127729553Y-100666512D01*
X127666733Y-100672700D01*
X126633267Y-100672700D01*
X126570447Y-100666512D01*
X126513032Y-100649096D01*
X126460123Y-100620816D01*
X126413746Y-100582754D01*
X126375684Y-100536377D01*
X126347404Y-100483468D01*
X126329988Y-100426053D01*
X126323800Y-100363233D01*
X126323800Y-99629767D01*
X126329988Y-99566947D01*
X126347404Y-99509532D01*
X126375684Y-99456623D01*
X126413746Y-99410246D01*
X126460123Y-99372184D01*
X126513032Y-99343904D01*
X126570447Y-99326488D01*
X126633267Y-99320300D01*
X127666733Y-99320300D01*
X127729553Y-99326488D01*
X127729553Y-99326488D01*
G37*
G36*
X120350000Y-100556500D02*
X116250000Y-100556500D01*
X116250000Y-96456500D01*
X120350000Y-96456500D01*
X120350000Y-100556500D01*
X120350000Y-100556500D01*
G37*
G36*
X110176200Y-100332700D02*
X109323800Y-100332700D01*
X109323800Y-99480300D01*
X110176200Y-99480300D01*
X110176200Y-100332700D01*
X110176200Y-100332700D01*
G37*
G36*
X125751580Y-100199120D02*
X124598420Y-100199120D01*
X124598420Y-99147560D01*
X125751580Y-99147560D01*
X125751580Y-100199120D01*
X125751580Y-100199120D01*
G37*
G36*
X109621102Y-97047728D02*
X109630096Y-97050456D01*
X109638386Y-97054887D01*
X109645651Y-97060849D01*
X109651613Y-97068114D01*
X109656044Y-97076404D01*
X109658772Y-97085398D01*
X109660000Y-97097866D01*
X109660000Y-97495134D01*
X109658772Y-97507602D01*
X109656044Y-97516596D01*
X109651613Y-97524886D01*
X109645651Y-97532151D01*
X109643501Y-97533915D01*
X109634699Y-97542717D01*
X109627783Y-97553067D01*
X109623020Y-97564568D01*
X109620592Y-97576777D01*
X109620592Y-97589225D01*
X109623021Y-97601434D01*
X109627785Y-97612935D01*
X109634701Y-97623285D01*
X109643503Y-97632087D01*
X109653853Y-97639003D01*
X109665354Y-97643766D01*
X109683786Y-97646500D01*
X109816214Y-97646500D01*
X109828602Y-97645280D01*
X109840514Y-97641666D01*
X109851493Y-97635798D01*
X109861115Y-97627901D01*
X109869012Y-97618279D01*
X109874880Y-97607300D01*
X109878494Y-97595388D01*
X109879714Y-97583000D01*
X109878494Y-97570612D01*
X109874880Y-97558700D01*
X109869012Y-97547721D01*
X109856499Y-97533915D01*
X109854349Y-97532151D01*
X109848387Y-97524886D01*
X109843956Y-97516596D01*
X109841228Y-97507602D01*
X109840000Y-97495134D01*
X109840000Y-97097866D01*
X109841228Y-97085398D01*
X109843956Y-97076404D01*
X109848387Y-97068114D01*
X109854349Y-97060849D01*
X109861614Y-97054887D01*
X109869904Y-97050456D01*
X109878898Y-97047728D01*
X109891366Y-97046500D01*
X110108634Y-97046500D01*
X110121102Y-97047728D01*
X110130096Y-97050456D01*
X110138386Y-97054887D01*
X110145651Y-97060849D01*
X110151613Y-97068114D01*
X110156044Y-97076404D01*
X110158772Y-97085398D01*
X110160000Y-97097866D01*
X110160000Y-97495134D01*
X110158772Y-97507602D01*
X110156044Y-97516596D01*
X110151613Y-97524886D01*
X110145651Y-97532151D01*
X110138386Y-97538113D01*
X110130098Y-97542543D01*
X110127480Y-97543337D01*
X110115979Y-97548100D01*
X110105628Y-97555015D01*
X110096825Y-97563817D01*
X110089909Y-97574167D01*
X110085144Y-97585667D01*
X110082715Y-97597876D01*
X110082714Y-97610324D01*
X110085142Y-97622533D01*
X110089905Y-97634034D01*
X110096820Y-97644385D01*
X110105622Y-97653188D01*
X110115975Y-97660106D01*
X110136165Y-97670898D01*
X110157826Y-97688674D01*
X110175602Y-97710335D01*
X110188811Y-97735048D01*
X110196946Y-97761865D01*
X110200000Y-97792868D01*
X110200000Y-98200132D01*
X110196946Y-98231135D01*
X110188811Y-98257952D01*
X110175602Y-98282665D01*
X110157826Y-98304326D01*
X110136165Y-98322102D01*
X110115975Y-98332894D01*
X110105624Y-98339810D01*
X110096822Y-98348613D01*
X110089907Y-98358963D01*
X110085143Y-98370464D01*
X110082715Y-98382673D01*
X110082715Y-98395121D01*
X110085144Y-98407330D01*
X110089907Y-98418830D01*
X110096823Y-98429181D01*
X110105626Y-98437983D01*
X110115976Y-98444898D01*
X110127480Y-98449663D01*
X110130098Y-98450457D01*
X110138386Y-98454887D01*
X110145651Y-98460849D01*
X110151613Y-98468114D01*
X110156044Y-98476404D01*
X110158772Y-98485398D01*
X110160000Y-98497866D01*
X110160000Y-98895134D01*
X110158772Y-98907602D01*
X110156044Y-98916596D01*
X110151613Y-98924886D01*
X110145651Y-98932151D01*
X110138386Y-98938113D01*
X110130096Y-98942544D01*
X110121102Y-98945272D01*
X110108634Y-98946500D01*
X109891366Y-98946500D01*
X109878898Y-98945272D01*
X109869904Y-98942544D01*
X109861614Y-98938113D01*
X109854349Y-98932151D01*
X109848387Y-98924886D01*
X109843956Y-98916596D01*
X109841228Y-98907602D01*
X109840000Y-98895134D01*
X109840000Y-98497866D01*
X109841228Y-98485398D01*
X109843956Y-98476404D01*
X109848387Y-98468114D01*
X109854349Y-98460849D01*
X109856499Y-98459085D01*
X109865301Y-98450283D01*
X109872217Y-98439933D01*
X109876980Y-98428432D01*
X109879408Y-98416223D01*
X109879408Y-98403775D01*
X109876979Y-98391566D01*
X109872215Y-98380065D01*
X109865299Y-98369715D01*
X109856497Y-98360913D01*
X109846147Y-98353997D01*
X109834646Y-98349234D01*
X109816214Y-98346500D01*
X109683786Y-98346500D01*
X109671398Y-98347720D01*
X109659486Y-98351334D01*
X109648507Y-98357202D01*
X109638885Y-98365099D01*
X109630988Y-98374721D01*
X109625120Y-98385700D01*
X109621506Y-98397612D01*
X109620286Y-98410000D01*
X109621506Y-98422388D01*
X109625120Y-98434300D01*
X109630988Y-98445279D01*
X109643501Y-98459085D01*
X109645651Y-98460849D01*
X109651613Y-98468114D01*
X109656044Y-98476404D01*
X109658772Y-98485398D01*
X109660000Y-98497866D01*
X109660000Y-98895134D01*
X109658772Y-98907602D01*
X109656044Y-98916596D01*
X109651613Y-98924886D01*
X109645651Y-98932151D01*
X109638386Y-98938113D01*
X109630096Y-98942544D01*
X109621102Y-98945272D01*
X109608634Y-98946500D01*
X109391366Y-98946500D01*
X109378898Y-98945272D01*
X109369904Y-98942544D01*
X109361614Y-98938113D01*
X109354349Y-98932151D01*
X109348387Y-98924886D01*
X109343956Y-98916596D01*
X109341228Y-98907602D01*
X109340000Y-98895134D01*
X109340000Y-98497866D01*
X109341228Y-98485398D01*
X109343956Y-98476404D01*
X109348387Y-98468114D01*
X109354349Y-98460849D01*
X109361614Y-98454887D01*
X109369902Y-98450457D01*
X109372520Y-98449663D01*
X109384021Y-98444900D01*
X109394372Y-98437985D01*
X109403175Y-98429183D01*
X109410091Y-98418833D01*
X109414856Y-98407333D01*
X109417285Y-98395124D01*
X109417286Y-98382676D01*
X109414858Y-98370467D01*
X109410095Y-98358966D01*
X109403180Y-98348615D01*
X109394378Y-98339812D01*
X109384025Y-98332894D01*
X109363835Y-98322102D01*
X109342174Y-98304326D01*
X109324398Y-98282665D01*
X109311189Y-98257952D01*
X109303054Y-98231135D01*
X109300000Y-98200132D01*
X109300000Y-97792868D01*
X109303054Y-97761865D01*
X109311189Y-97735048D01*
X109324398Y-97710335D01*
X109342174Y-97688674D01*
X109363835Y-97670898D01*
X109384025Y-97660106D01*
X109394376Y-97653190D01*
X109403178Y-97644387D01*
X109410093Y-97634037D01*
X109414857Y-97622536D01*
X109417285Y-97610327D01*
X109417285Y-97597879D01*
X109414856Y-97585670D01*
X109410093Y-97574170D01*
X109403177Y-97563819D01*
X109394374Y-97555017D01*
X109384024Y-97548102D01*
X109372520Y-97543337D01*
X109369902Y-97542543D01*
X109361614Y-97538113D01*
X109354349Y-97532151D01*
X109348387Y-97524886D01*
X109343956Y-97516596D01*
X109341228Y-97507602D01*
X109340000Y-97495134D01*
X109340000Y-97097866D01*
X109341228Y-97085398D01*
X109343956Y-97076404D01*
X109348387Y-97068114D01*
X109354349Y-97060849D01*
X109361614Y-97054887D01*
X109369904Y-97050456D01*
X109378898Y-97047728D01*
X109391366Y-97046500D01*
X109608634Y-97046500D01*
X109621102Y-97047728D01*
X109621102Y-97047728D01*
G37*
G36*
X125751580Y-98695440D02*
X124598420Y-98695440D01*
X124598420Y-97643880D01*
X125751580Y-97643880D01*
X125751580Y-98695440D01*
X125751580Y-98695440D01*
G37*
G36*
X127729553Y-97326488D02*
X127786968Y-97343904D01*
X127839877Y-97372184D01*
X127886254Y-97410246D01*
X127924316Y-97456623D01*
X127952596Y-97509532D01*
X127970012Y-97566947D01*
X127976200Y-97629767D01*
X127976200Y-98363233D01*
X127970012Y-98426053D01*
X127952596Y-98483468D01*
X127924316Y-98536377D01*
X127886254Y-98582754D01*
X127839877Y-98620816D01*
X127786968Y-98649096D01*
X127729553Y-98666512D01*
X127666733Y-98672700D01*
X126633267Y-98672700D01*
X126570447Y-98666512D01*
X126513032Y-98649096D01*
X126460123Y-98620816D01*
X126413746Y-98582754D01*
X126375684Y-98536377D01*
X126347404Y-98483468D01*
X126329988Y-98426053D01*
X126323800Y-98363233D01*
X126323800Y-97629767D01*
X126329988Y-97566947D01*
X126347404Y-97509532D01*
X126375684Y-97456623D01*
X126413746Y-97410246D01*
X126460123Y-97372184D01*
X126513032Y-97343904D01*
X126570447Y-97326488D01*
X126633267Y-97320300D01*
X127666733Y-97320300D01*
X127729553Y-97326488D01*
X127729553Y-97326488D01*
G37*
G36*
X123025450Y-98542340D02*
X122174550Y-98542340D01*
X122174550Y-97627940D01*
X123025450Y-97627940D01*
X123025450Y-98542340D01*
X123025450Y-98542340D01*
G37*
G36*
X112600000Y-98006500D02*
X112100000Y-98006500D01*
X112100000Y-97406500D01*
X112600000Y-97406500D01*
X112600000Y-98006500D01*
X112600000Y-98006500D01*
G37*
G36*
X113250000Y-98006500D02*
X112750000Y-98006500D01*
X112750000Y-97406500D01*
X113250000Y-97406500D01*
X113250000Y-98006500D01*
X113250000Y-98006500D01*
G37*
G36*
X113900000Y-98006500D02*
X113400000Y-98006500D01*
X113400000Y-97406500D01*
X113900000Y-97406500D01*
X113900000Y-98006500D01*
X113900000Y-98006500D01*
G37*
G36*
X123025450Y-97445060D02*
X122174550Y-97445060D01*
X122174550Y-96530660D01*
X123025450Y-96530660D01*
X123025450Y-97445060D01*
X123025450Y-97445060D01*
G37*
G36*
X123326580Y-95756800D02*
X123327800Y-95769188D01*
X123331414Y-95781100D01*
X123337282Y-95792079D01*
X123345179Y-95801701D01*
X123354801Y-95809598D01*
X123365780Y-95815466D01*
X123377692Y-95819080D01*
X123390080Y-95820300D01*
X124451200Y-95820300D01*
X124451200Y-96572700D01*
X123398800Y-96572700D01*
X123398800Y-96237620D01*
X123397580Y-96225232D01*
X123393966Y-96213320D01*
X123388098Y-96202341D01*
X123380201Y-96192719D01*
X123370579Y-96184822D01*
X123359600Y-96178954D01*
X123347688Y-96175340D01*
X123335300Y-96174120D01*
X122173420Y-96174120D01*
X122173420Y-95122560D01*
X123326580Y-95122560D01*
X123326580Y-95756800D01*
X123326580Y-95756800D01*
G37*
G36*
X127729553Y-94826488D02*
X127786968Y-94843904D01*
X127839877Y-94872184D01*
X127886254Y-94910246D01*
X127924316Y-94956623D01*
X127952596Y-95009532D01*
X127970012Y-95066947D01*
X127976200Y-95129767D01*
X127976200Y-95863233D01*
X127970012Y-95926053D01*
X127952596Y-95983468D01*
X127924316Y-96036377D01*
X127886254Y-96082754D01*
X127839877Y-96120816D01*
X127786968Y-96149096D01*
X127729553Y-96166512D01*
X127666733Y-96172700D01*
X126633267Y-96172700D01*
X126570447Y-96166512D01*
X126513032Y-96149096D01*
X126460123Y-96120816D01*
X126413746Y-96082754D01*
X126375684Y-96036377D01*
X126347404Y-95983468D01*
X126329988Y-95926053D01*
X126323800Y-95863233D01*
X126323800Y-95686200D01*
X126322580Y-95673812D01*
X126318966Y-95661900D01*
X126313098Y-95650921D01*
X126305201Y-95641299D01*
X126295579Y-95633402D01*
X126284600Y-95627534D01*
X126272688Y-95623920D01*
X126260300Y-95622700D01*
X125698800Y-95622700D01*
X125698800Y-94870300D01*
X126447742Y-94870300D01*
X126460130Y-94869080D01*
X126477676Y-94862802D01*
X126513032Y-94843904D01*
X126570447Y-94826488D01*
X126633267Y-94820300D01*
X127666733Y-94820300D01*
X127729553Y-94826488D01*
X127729553Y-94826488D01*
G37*
G36*
X120490000Y-96156500D02*
X116110000Y-96156500D01*
X116110000Y-95306500D01*
X120490000Y-95306500D01*
X120490000Y-96156500D01*
X120490000Y-96156500D01*
G37*
G36*
X113250000Y-96106500D02*
X112750000Y-96106500D01*
X112750000Y-95506500D01*
X113250000Y-95506500D01*
X113250000Y-96106500D01*
X113250000Y-96106500D01*
G37*
G36*
X112600000Y-96106500D02*
X112100000Y-96106500D01*
X112100000Y-95506500D01*
X112600000Y-95506500D01*
X112600000Y-96106500D01*
X112600000Y-96106500D01*
G37*
G36*
X113900000Y-96106500D02*
X113400000Y-96106500D01*
X113400000Y-95506500D01*
X113900000Y-95506500D01*
X113900000Y-96106500D01*
X113900000Y-96106500D01*
G37*
G36*
X123326580Y-93856800D02*
X123327800Y-93869188D01*
X123331414Y-93881100D01*
X123337282Y-93892079D01*
X123345179Y-93901701D01*
X123354801Y-93909598D01*
X123365780Y-93915466D01*
X123377692Y-93919080D01*
X123390080Y-93920300D01*
X124451200Y-93920300D01*
X124451200Y-94672700D01*
X123351116Y-94672700D01*
X123347688Y-94671660D01*
X123335300Y-94670440D01*
X122173420Y-94670440D01*
X122173420Y-93618880D01*
X123326580Y-93618880D01*
X123326580Y-93856800D01*
X123326580Y-93856800D01*
G37*
G36*
X115908560Y-94631950D02*
X114994160Y-94631950D01*
X114994160Y-93781050D01*
X115908560Y-93781050D01*
X115908560Y-94631950D01*
X115908560Y-94631950D01*
G37*
G36*
X117005840Y-94631950D02*
X116091440Y-94631950D01*
X116091440Y-93781050D01*
X117005840Y-93781050D01*
X117005840Y-94631950D01*
X117005840Y-94631950D01*
G37*
G36*
X128323969Y-93387832D02*
X128401313Y-93419870D01*
X128470923Y-93466381D01*
X128530119Y-93525577D01*
X128576630Y-93595187D01*
X128608668Y-93672531D01*
X128625000Y-93754641D01*
X128625000Y-93838359D01*
X128608668Y-93920469D01*
X128576630Y-93997813D01*
X128530119Y-94067423D01*
X128470923Y-94126619D01*
X128401313Y-94173130D01*
X128323969Y-94205168D01*
X128241859Y-94221500D01*
X128158141Y-94221500D01*
X128076031Y-94205168D01*
X127998687Y-94173130D01*
X127929077Y-94126619D01*
X127869881Y-94067423D01*
X127823370Y-93997813D01*
X127791332Y-93920469D01*
X127775000Y-93838359D01*
X127775000Y-93754641D01*
X127791332Y-93672531D01*
X127823370Y-93595187D01*
X127869881Y-93525577D01*
X127929077Y-93466381D01*
X127998687Y-93419870D01*
X128076031Y-93387832D01*
X128158141Y-93371500D01*
X128241859Y-93371500D01*
X128323969Y-93387832D01*
X128323969Y-93387832D01*
G37*
M02*
