G04 #@! TF.GenerationSoftware,KiCad,Pcbnew,5.0.0-rc3+dfsg1-2*
G04 #@! TF.CreationDate,2018-08-10T14:47:19+09:00*
G04 #@! TF.ProjectId,fst-01,6673742D30312E6B696361645F706362,rev?*
G04 #@! TF.SameCoordinates,PX791ddc0PY5e69114*
G04 #@! TF.FileFunction,Legend,Top*
G04 #@! TF.FilePolarity,Positive*
%FSLAX46Y46*%
G04 Gerber Fmt 4.6, Leading zero omitted, Abs format (unit mm)*
G04 Created by KiCad (PCBNEW 5.0.0-rc3+dfsg1-2) date Fri Aug 10 14:47:19 2018*
%MOMM*%
%LPD*%
G01*
G04 APERTURE LIST*
%ADD10C,0.150000*%
%ADD11C,0.152400*%
%ADD12C,0.254000*%
%ADD13C,0.120000*%
%ADD14C,0.200000*%
%ADD15C,0.300000*%
%ADD16C,0.149860*%
G04 APERTURE END LIST*
D10*
G04 #@! TO.C,D1*
X-17874840Y-279360D02*
X-17874840Y-3027640D01*
X-16625160Y-279360D02*
X-17874840Y-279360D01*
X-16625160Y-3027640D02*
X-16625160Y-279360D01*
X-17874840Y-3027640D02*
X-16625160Y-3027640D01*
X-17250000Y-1813500D02*
X-17850000Y-1113500D01*
X-16650000Y-1113500D02*
X-17250000Y-1813500D01*
G04 #@! TO.C,X1*
X-3870000Y-5003500D02*
X-3870000Y-1003500D01*
X-3870000Y-1003500D02*
X-530000Y-1003500D01*
X-530000Y-1003500D02*
X-530000Y-5003500D01*
X-530000Y-5003500D02*
X-3870000Y-5003500D01*
G04 #@! TO.C,K1*
X-15367000Y-3543300D02*
X-15367000Y-4813300D01*
D11*
X-16637000Y-4813300D02*
X-16637000Y-3543300D01*
X-16637000Y-3543300D02*
X-10287000Y-3543300D01*
X-10274300Y-3543300D02*
X-10274300Y-4813300D01*
X-10287000Y-4813300D02*
X-16637000Y-4813300D01*
D12*
G04 #@! TO.C,J1*
X0Y-1700000D02*
X0Y-2900000D01*
X0Y1600000D02*
X0Y2800000D01*
D13*
G04 #@! TO.C,U2*
X-730400Y938400D02*
X-730400Y1788400D01*
X-730400Y3938400D02*
X-730400Y3088400D01*
D14*
X-2030400Y3438400D02*
G75*
G03X-2030400Y3438400I-200000J0D01*
G01*
D10*
G04 #@! TO.C,U1*
X-6300000Y-2903500D02*
X-12100000Y-2903500D01*
X-12100000Y3896500D02*
X-5300000Y3896500D01*
X-12100000Y-2903500D02*
X-12100000Y3896500D01*
X-5300000Y-1903500D02*
X-5300000Y3896500D01*
X-6300000Y-2903500D02*
X-5300000Y-1903500D01*
D15*
X-4920000Y-1503500D02*
G75*
G03X-4920000Y-1503500I-180000J0D01*
G01*
D10*
G04 #@! TO.C,U3*
X-15100000Y3336500D02*
X-15100000Y1136500D01*
X-12900000Y3336500D02*
X-12900000Y1136500D01*
D15*
X-15170000Y1736500D02*
G75*
G03X-15170000Y1736500I-180000J0D01*
G01*
D10*
X-15100000Y3336500D02*
X-12900000Y3336500D01*
X-12900000Y1136500D02*
X-15100000Y1136500D01*
G04 #@! TO.C,U4*
X-17950000Y66500D02*
X-17950000Y2066500D01*
X-16550000Y66500D02*
X-17950000Y66500D01*
X-16550000Y2066500D02*
X-16550000Y66500D01*
X-17950000Y2066500D02*
X-16550000Y2066500D01*
D15*
X-17850000Y1866500D02*
G75*
G03X-17850000Y1866500I-100000J0D01*
G01*
D16*
G04 #@! TO.C,R1*
X-15175960Y-3029520D02*
X-16324040Y-3029520D01*
X-16324040Y-3029520D02*
X-16324040Y-677480D01*
X-16324040Y-677480D02*
X-15175960Y-677480D01*
X-15175960Y-677480D02*
X-15175960Y-3029520D01*
G04 #@! TO.C,C9*
X-3499540Y5620400D02*
X-675060Y5620400D01*
X-3499540Y4172600D02*
X-3499540Y5620400D01*
X-675060Y4172600D02*
X-3499540Y4172600D01*
X-675060Y5620400D02*
X-675060Y4172600D01*
G04 #@! TO.C,C2*
X-1473980Y270540D02*
X-1473980Y-877540D01*
X-3826020Y270540D02*
X-1473980Y270540D01*
X-3826020Y-877540D02*
X-3826020Y270540D01*
X-1473980Y-877540D02*
X-3826020Y-877540D01*
G04 #@! TO.C,C1*
X-4974040Y2636520D02*
X-3825960Y2636520D01*
X-4974040Y284480D02*
X-4974040Y2636520D01*
X-3825960Y284480D02*
X-4974040Y284480D01*
X-3825960Y2636520D02*
X-3825960Y284480D01*
G04 #@! TO.C,C4*
X-5123980Y-3179460D02*
X-5123980Y-4327540D01*
X-7476020Y-3179460D02*
X-5123980Y-3179460D01*
X-7476020Y-4327540D02*
X-7476020Y-3179460D01*
X-5123980Y-4327540D02*
X-7476020Y-4327540D01*
G04 #@! TO.C,C7*
X-12176020Y4222460D02*
X-12176020Y5370540D01*
X-9823980Y4222460D02*
X-12176020Y4222460D01*
X-9823980Y5370540D02*
X-9823980Y4222460D01*
X-12176020Y5370540D02*
X-9823980Y5370540D01*
G04 #@! TO.C,C6*
X-12425960Y-2954020D02*
X-13574040Y-2954020D01*
X-12425960Y-601980D02*
X-12425960Y-2954020D01*
X-13574040Y-601980D02*
X-12425960Y-601980D01*
X-13574040Y-2954020D02*
X-13574040Y-601980D01*
G04 #@! TO.C,C3*
X-3975960Y-4979520D02*
X-5124040Y-4979520D01*
X-3975960Y-2627480D02*
X-3975960Y-4979520D01*
X-5124040Y-2627480D02*
X-3975960Y-2627480D01*
X-5124040Y-4979520D02*
X-5124040Y-2627480D01*
G04 #@! TO.C,C5*
X-7523980Y-3179460D02*
X-7523980Y-4327540D01*
X-9876020Y-3179460D02*
X-7523980Y-3179460D01*
X-9876020Y-4327540D02*
X-9876020Y-3179460D01*
X-7523980Y-4327540D02*
X-9876020Y-4327540D01*
G04 #@! TO.C,C8*
X-3526100Y5476040D02*
X-3526100Y2651560D01*
X-4973900Y5476040D02*
X-3526100Y5476040D01*
X-4973900Y2651560D02*
X-4973900Y5476040D01*
X-3526100Y2651560D02*
X-4973900Y2651560D01*
G04 #@! TO.C,D1*
D10*
X-18042658Y-3916328D02*
X-18042658Y-3316328D01*
X-17899800Y-3316328D01*
X-17814086Y-3344900D01*
X-17756943Y-3402042D01*
X-17728372Y-3459185D01*
X-17699800Y-3573471D01*
X-17699800Y-3659185D01*
X-17728372Y-3773471D01*
X-17756943Y-3830614D01*
X-17814086Y-3887757D01*
X-17899800Y-3916328D01*
X-18042658Y-3916328D01*
X-17128372Y-3916328D02*
X-17471229Y-3916328D01*
X-17299800Y-3916328D02*
X-17299800Y-3316328D01*
X-17356943Y-3402042D01*
X-17414086Y-3459185D01*
X-17471229Y-3487757D01*
G04 #@! TO.C,X1*
X-1385715Y-5274928D02*
X-985715Y-5874928D01*
X-985715Y-5274928D02*
X-1385715Y-5874928D01*
X-442858Y-5874928D02*
X-785715Y-5874928D01*
X-614286Y-5874928D02*
X-614286Y-5274928D01*
X-671429Y-5360642D01*
X-728572Y-5417785D01*
X-785715Y-5446357D01*
G04 #@! TO.C,K1*
D16*
X-16584144Y-5668675D02*
X-16584144Y-5069235D01*
X-16241607Y-5668675D02*
X-16498510Y-5326138D01*
X-16241607Y-5069235D02*
X-16584144Y-5411772D01*
X-15670712Y-5668675D02*
X-16013249Y-5668675D01*
X-15841980Y-5668675D02*
X-15841980Y-5069235D01*
X-15899070Y-5154869D01*
X-15956160Y-5211959D01*
X-16013249Y-5240503D01*
G04 #@! TO.C,U2*
D10*
X825576Y2685996D02*
X825576Y2038377D01*
X863671Y1962186D01*
X901766Y1924091D01*
X977957Y1885996D01*
X1130338Y1885996D01*
X1206528Y1924091D01*
X1244623Y1962186D01*
X1282719Y2038377D01*
X1282719Y2685996D01*
X1625576Y2609805D02*
X1663671Y2647900D01*
X1739861Y2685996D01*
X1930338Y2685996D01*
X2006528Y2647900D01*
X2044623Y2609805D01*
X2082719Y2533615D01*
X2082719Y2457424D01*
X2044623Y2343139D01*
X1587480Y1885996D01*
X2082719Y1885996D01*
G04 #@! TO.C,U1*
D11*
X-9504828Y4907081D02*
X-9504828Y4259381D01*
X-9466728Y4183181D01*
X-9428628Y4145081D01*
X-9352428Y4106981D01*
X-9200028Y4106981D01*
X-9123828Y4145081D01*
X-9085728Y4183181D01*
X-9047628Y4259381D01*
X-9047628Y4907081D01*
X-8247528Y4106981D02*
X-8704728Y4106981D01*
X-8476128Y4106981D02*
X-8476128Y4907081D01*
X-8552328Y4792781D01*
X-8628528Y4716581D01*
X-8704728Y4678481D01*
G04 #@! TO.C,U3*
X-14605000Y4552950D02*
X-14605000Y3905250D01*
X-14566900Y3829050D01*
X-14528800Y3790950D01*
X-14452600Y3752850D01*
X-14300200Y3752850D01*
X-14224000Y3790950D01*
X-14185900Y3829050D01*
X-14147800Y3905250D01*
X-14147800Y4552950D01*
X-13843000Y4552950D02*
X-13347700Y4552950D01*
X-13614400Y4248150D01*
X-13500100Y4248150D01*
X-13423900Y4210050D01*
X-13385800Y4171950D01*
X-13347700Y4095750D01*
X-13347700Y3905250D01*
X-13385800Y3829050D01*
X-13423900Y3790950D01*
X-13500100Y3752850D01*
X-13728700Y3752850D01*
X-13804900Y3790950D01*
X-13843000Y3829050D01*
G04 #@! TO.C,U4*
D10*
X-16348224Y856896D02*
X-16348224Y209277D01*
X-16310129Y133086D01*
X-16272034Y94991D01*
X-16195843Y56896D01*
X-16043462Y56896D01*
X-15967272Y94991D01*
X-15929177Y133086D01*
X-15891081Y209277D01*
X-15891081Y856896D01*
X-15167272Y590229D02*
X-15167272Y56896D01*
X-15357748Y894991D02*
X-15548224Y323562D01*
X-15052986Y323562D01*
G04 #@! TO.C,R1*
X-14591500Y-3001928D02*
X-14791500Y-2716214D01*
X-14934358Y-3001928D02*
X-14934358Y-2401928D01*
X-14705786Y-2401928D01*
X-14648643Y-2430500D01*
X-14620072Y-2459071D01*
X-14591500Y-2516214D01*
X-14591500Y-2601928D01*
X-14620072Y-2659071D01*
X-14648643Y-2687642D01*
X-14705786Y-2716214D01*
X-14934358Y-2716214D01*
X-14020072Y-3001928D02*
X-14362929Y-3001928D01*
X-14191500Y-3001928D02*
X-14191500Y-2401928D01*
X-14248643Y-2487642D01*
X-14305786Y-2544785D01*
X-14362929Y-2573357D01*
G04 #@! TO.C,C9*
D16*
X-23707Y4800015D02*
X-52252Y4771470D01*
X-137886Y4742925D01*
X-194976Y4742925D01*
X-280610Y4771470D01*
X-337700Y4828560D01*
X-366244Y4885649D01*
X-394789Y4999828D01*
X-394789Y5085462D01*
X-366244Y5199641D01*
X-337700Y5256731D01*
X-280610Y5313820D01*
X-194976Y5342365D01*
X-137886Y5342365D01*
X-52252Y5313820D01*
X-23707Y5285276D01*
X261740Y4742925D02*
X375920Y4742925D01*
X433009Y4771470D01*
X461554Y4800015D01*
X518643Y4885649D01*
X547188Y4999828D01*
X547188Y5228186D01*
X518643Y5285276D01*
X490099Y5313820D01*
X433009Y5342365D01*
X318830Y5342365D01*
X261740Y5313820D01*
X233196Y5285276D01*
X204651Y5228186D01*
X204651Y5085462D01*
X233196Y5028373D01*
X261740Y4999828D01*
X318830Y4971283D01*
X433009Y4971283D01*
X490099Y4999828D01*
X518643Y5028373D01*
X547188Y5085462D01*
G04 #@! TO.C,C2*
X-950807Y-734785D02*
X-979352Y-763330D01*
X-1064986Y-791875D01*
X-1122076Y-791875D01*
X-1207710Y-763330D01*
X-1264800Y-706240D01*
X-1293344Y-649151D01*
X-1321889Y-534972D01*
X-1321889Y-449338D01*
X-1293344Y-335159D01*
X-1264800Y-278069D01*
X-1207710Y-220980D01*
X-1122076Y-192435D01*
X-1064986Y-192435D01*
X-979352Y-220980D01*
X-950807Y-249524D01*
X-722449Y-249524D02*
X-693904Y-220980D01*
X-636815Y-192435D01*
X-494091Y-192435D01*
X-437001Y-220980D01*
X-408457Y-249524D01*
X-379912Y-306614D01*
X-379912Y-363703D01*
X-408457Y-449338D01*
X-750994Y-791875D01*
X-379912Y-791875D01*
G04 #@! TO.C,C1*
X-3287607Y471715D02*
X-3316152Y443170D01*
X-3401786Y414625D01*
X-3458876Y414625D01*
X-3544510Y443170D01*
X-3601600Y500260D01*
X-3630144Y557349D01*
X-3658689Y671528D01*
X-3658689Y757162D01*
X-3630144Y871341D01*
X-3601600Y928431D01*
X-3544510Y985520D01*
X-3458876Y1014065D01*
X-3401786Y1014065D01*
X-3316152Y985520D01*
X-3287607Y956976D01*
X-2716712Y414625D02*
X-3059249Y414625D01*
X-2887980Y414625D02*
X-2887980Y1014065D01*
X-2945070Y928431D01*
X-3002160Y871341D01*
X-3059249Y842797D01*
G04 #@! TO.C,C4*
X-6399907Y-5047085D02*
X-6428452Y-5075630D01*
X-6514086Y-5104175D01*
X-6571176Y-5104175D01*
X-6656810Y-5075630D01*
X-6713900Y-5018540D01*
X-6742444Y-4961451D01*
X-6770989Y-4847272D01*
X-6770989Y-4761638D01*
X-6742444Y-4647459D01*
X-6713900Y-4590369D01*
X-6656810Y-4533280D01*
X-6571176Y-4504735D01*
X-6514086Y-4504735D01*
X-6428452Y-4533280D01*
X-6399907Y-4561824D01*
X-5886101Y-4704548D02*
X-5886101Y-5104175D01*
X-6028825Y-4476190D02*
X-6171549Y-4904361D01*
X-5800467Y-4904361D01*
G04 #@! TO.C,C7*
X-13058247Y5263135D02*
X-13086792Y5234590D01*
X-13172426Y5206045D01*
X-13229516Y5206045D01*
X-13315150Y5234590D01*
X-13372240Y5291680D01*
X-13400784Y5348769D01*
X-13429329Y5462948D01*
X-13429329Y5548582D01*
X-13400784Y5662761D01*
X-13372240Y5719851D01*
X-13315150Y5776940D01*
X-13229516Y5805485D01*
X-13172426Y5805485D01*
X-13086792Y5776940D01*
X-13058247Y5748396D01*
X-12858434Y5805485D02*
X-12458807Y5805485D01*
X-12715710Y5206045D01*
G04 #@! TO.C,C6*
X-13104707Y-315685D02*
X-13133252Y-344230D01*
X-13218886Y-372775D01*
X-13275976Y-372775D01*
X-13361610Y-344230D01*
X-13418700Y-287140D01*
X-13447244Y-230051D01*
X-13475789Y-115872D01*
X-13475789Y-30238D01*
X-13447244Y83941D01*
X-13418700Y141031D01*
X-13361610Y198120D01*
X-13275976Y226665D01*
X-13218886Y226665D01*
X-13133252Y198120D01*
X-13104707Y169576D01*
X-12590901Y226665D02*
X-12705080Y226665D01*
X-12762170Y198120D01*
X-12790715Y169576D01*
X-12847804Y83941D01*
X-12876349Y-30238D01*
X-12876349Y-258596D01*
X-12847804Y-315685D01*
X-12819260Y-344230D01*
X-12762170Y-372775D01*
X-12647991Y-372775D01*
X-12590901Y-344230D01*
X-12562357Y-315685D01*
X-12533812Y-258596D01*
X-12533812Y-115872D01*
X-12562357Y-58782D01*
X-12590901Y-30238D01*
X-12647991Y-1693D01*
X-12762170Y-1693D01*
X-12819260Y-30238D01*
X-12847804Y-58782D01*
X-12876349Y-115872D01*
G04 #@! TO.C,C3*
X-4698167Y-5686365D02*
X-4726712Y-5714910D01*
X-4812346Y-5743455D01*
X-4869436Y-5743455D01*
X-4955070Y-5714910D01*
X-5012160Y-5657820D01*
X-5040704Y-5600731D01*
X-5069249Y-5486552D01*
X-5069249Y-5400918D01*
X-5040704Y-5286739D01*
X-5012160Y-5229649D01*
X-4955070Y-5172560D01*
X-4869436Y-5144015D01*
X-4812346Y-5144015D01*
X-4726712Y-5172560D01*
X-4698167Y-5201104D01*
X-4498354Y-5144015D02*
X-4127272Y-5144015D01*
X-4327085Y-5372373D01*
X-4241451Y-5372373D01*
X-4184361Y-5400918D01*
X-4155817Y-5429462D01*
X-4127272Y-5486552D01*
X-4127272Y-5629276D01*
X-4155817Y-5686365D01*
X-4184361Y-5714910D01*
X-4241451Y-5743455D01*
X-4412720Y-5743455D01*
X-4469809Y-5714910D01*
X-4498354Y-5686365D01*
G04 #@! TO.C,C5*
X-8799907Y-5047085D02*
X-8828452Y-5075630D01*
X-8914086Y-5104175D01*
X-8971176Y-5104175D01*
X-9056810Y-5075630D01*
X-9113900Y-5018540D01*
X-9142444Y-4961451D01*
X-9170989Y-4847272D01*
X-9170989Y-4761638D01*
X-9142444Y-4647459D01*
X-9113900Y-4590369D01*
X-9056810Y-4533280D01*
X-8971176Y-4504735D01*
X-8914086Y-4504735D01*
X-8828452Y-4533280D01*
X-8799907Y-4561824D01*
X-8257557Y-4504735D02*
X-8543004Y-4504735D01*
X-8571549Y-4790182D01*
X-8543004Y-4761638D01*
X-8485915Y-4733093D01*
X-8343191Y-4733093D01*
X-8286101Y-4761638D01*
X-8257557Y-4790182D01*
X-8229012Y-4847272D01*
X-8229012Y-4989996D01*
X-8257557Y-5047085D01*
X-8286101Y-5075630D01*
X-8343191Y-5104175D01*
X-8485915Y-5104175D01*
X-8543004Y-5075630D01*
X-8571549Y-5047085D01*
G04 #@! TO.C,C8*
X-5726007Y4218215D02*
X-5754552Y4189670D01*
X-5840186Y4161125D01*
X-5897276Y4161125D01*
X-5982910Y4189670D01*
X-6040000Y4246760D01*
X-6068544Y4303849D01*
X-6097089Y4418028D01*
X-6097089Y4503662D01*
X-6068544Y4617841D01*
X-6040000Y4674931D01*
X-5982910Y4732020D01*
X-5897276Y4760565D01*
X-5840186Y4760565D01*
X-5754552Y4732020D01*
X-5726007Y4703476D01*
X-5383470Y4503662D02*
X-5440560Y4532207D01*
X-5469104Y4560752D01*
X-5497649Y4617841D01*
X-5497649Y4646386D01*
X-5469104Y4703476D01*
X-5440560Y4732020D01*
X-5383470Y4760565D01*
X-5269291Y4760565D01*
X-5212201Y4732020D01*
X-5183657Y4703476D01*
X-5155112Y4646386D01*
X-5155112Y4617841D01*
X-5183657Y4560752D01*
X-5212201Y4532207D01*
X-5269291Y4503662D01*
X-5383470Y4503662D01*
X-5440560Y4475118D01*
X-5469104Y4446573D01*
X-5497649Y4389483D01*
X-5497649Y4275304D01*
X-5469104Y4218215D01*
X-5440560Y4189670D01*
X-5383470Y4161125D01*
X-5269291Y4161125D01*
X-5212201Y4189670D01*
X-5183657Y4218215D01*
X-5155112Y4275304D01*
X-5155112Y4389483D01*
X-5183657Y4446573D01*
X-5212201Y4475118D01*
X-5269291Y4503662D01*
G04 #@! TD*
M02*
