G04 #@! TF.GenerationSoftware,KiCad,Pcbnew,5.0.0-rc3+dfsg1-2*
G04 #@! TF.CreationDate,2018-08-10T14:32:52+09:00*
G04 #@! TF.ProjectId,fst-01,6673742D30312E6B696361645F706362,rev?*
G04 #@! TF.SameCoordinates,Original*
G04 #@! TF.FileFunction,Soldermask,Top*
G04 #@! TF.FilePolarity,Negative*
%FSLAX46Y46*%
G04 Gerber Fmt 4.6, Leading zero omitted, Abs format (unit mm)*
G04 Created by KiCad (PCBNEW 5.0.0-rc3+dfsg1-2) date Fri Aug 10 14:32:52 2018*
%MOMM*%
%LPD*%
G01*
G04 APERTURE LIST*
%ADD10C,0.150000*%
G04 APERTURE END LIST*
D10*
G36*
X124626200Y-103876200D02*
X123273800Y-103876200D01*
X123273800Y-102323800D01*
X124626200Y-102323800D01*
X124626200Y-103876200D01*
X124626200Y-103876200D01*
G37*
G36*
X126326200Y-103876200D02*
X124973800Y-103876200D01*
X124973800Y-102323800D01*
X126326200Y-102323800D01*
X126326200Y-103876200D01*
X126326200Y-103876200D01*
G37*
G36*
X122875450Y-103805840D02*
X122024550Y-103805840D01*
X122024550Y-102891440D01*
X122875450Y-102891440D01*
X122875450Y-103805840D01*
X122875450Y-103805840D01*
G37*
G36*
X114946902Y-102716900D02*
X114978917Y-102730161D01*
X115033564Y-102752796D01*
X115033565Y-102752797D01*
X115111560Y-102804911D01*
X115177889Y-102871240D01*
X115214513Y-102926053D01*
X115230004Y-102949236D01*
X115236113Y-102963985D01*
X115265900Y-103035898D01*
X115284200Y-103127898D01*
X115284200Y-103221702D01*
X115265900Y-103313702D01*
X115265898Y-103313706D01*
X115230004Y-103400364D01*
X115230003Y-103400365D01*
X115177889Y-103478360D01*
X115111560Y-103544689D01*
X115052997Y-103583819D01*
X115033564Y-103596804D01*
X114978917Y-103619439D01*
X114946902Y-103632700D01*
X114854902Y-103651000D01*
X114761098Y-103651000D01*
X114669098Y-103632700D01*
X114637083Y-103619439D01*
X114582436Y-103596804D01*
X114563003Y-103583819D01*
X114504440Y-103544689D01*
X114438111Y-103478360D01*
X114385997Y-103400365D01*
X114385996Y-103400364D01*
X114350102Y-103313706D01*
X114350100Y-103313702D01*
X114331800Y-103221702D01*
X114331800Y-103127898D01*
X114350100Y-103035898D01*
X114379887Y-102963985D01*
X114385996Y-102949236D01*
X114401487Y-102926053D01*
X114438111Y-102871240D01*
X114504440Y-102804911D01*
X114582435Y-102752797D01*
X114582436Y-102752796D01*
X114637083Y-102730161D01*
X114669098Y-102716900D01*
X114761098Y-102698600D01*
X114854902Y-102698600D01*
X114946902Y-102716900D01*
X114946902Y-102716900D01*
G37*
G36*
X116554200Y-103651000D02*
X115601800Y-103651000D01*
X115601800Y-102698600D01*
X116554200Y-102698600D01*
X116554200Y-103651000D01*
X116554200Y-103651000D01*
G37*
G36*
X113676902Y-102716900D02*
X113708917Y-102730161D01*
X113763564Y-102752796D01*
X113763565Y-102752797D01*
X113841560Y-102804911D01*
X113907889Y-102871240D01*
X113944513Y-102926053D01*
X113960004Y-102949236D01*
X113966113Y-102963985D01*
X113995900Y-103035898D01*
X114014200Y-103127898D01*
X114014200Y-103221702D01*
X113995900Y-103313702D01*
X113995898Y-103313706D01*
X113960004Y-103400364D01*
X113960003Y-103400365D01*
X113907889Y-103478360D01*
X113841560Y-103544689D01*
X113782997Y-103583819D01*
X113763564Y-103596804D01*
X113708917Y-103619439D01*
X113676902Y-103632700D01*
X113584902Y-103651000D01*
X113491098Y-103651000D01*
X113399098Y-103632700D01*
X113367083Y-103619439D01*
X113312436Y-103596804D01*
X113293003Y-103583819D01*
X113234440Y-103544689D01*
X113168111Y-103478360D01*
X113115997Y-103400365D01*
X113115996Y-103400364D01*
X113080102Y-103313706D01*
X113080100Y-103313702D01*
X113061800Y-103221702D01*
X113061800Y-103127898D01*
X113080100Y-103035898D01*
X113109887Y-102963985D01*
X113115996Y-102949236D01*
X113131487Y-102926053D01*
X113168111Y-102871240D01*
X113234440Y-102804911D01*
X113312435Y-102752797D01*
X113312436Y-102752796D01*
X113367083Y-102730161D01*
X113399098Y-102716900D01*
X113491098Y-102698600D01*
X113584902Y-102698600D01*
X113676902Y-102716900D01*
X113676902Y-102716900D01*
G37*
G36*
X111136902Y-102716900D02*
X111168917Y-102730161D01*
X111223564Y-102752796D01*
X111223565Y-102752797D01*
X111301560Y-102804911D01*
X111367889Y-102871240D01*
X111404513Y-102926053D01*
X111420004Y-102949236D01*
X111426113Y-102963985D01*
X111455900Y-103035898D01*
X111474200Y-103127898D01*
X111474200Y-103221702D01*
X111455900Y-103313702D01*
X111455898Y-103313706D01*
X111420004Y-103400364D01*
X111420003Y-103400365D01*
X111367889Y-103478360D01*
X111301560Y-103544689D01*
X111242997Y-103583819D01*
X111223564Y-103596804D01*
X111168917Y-103619439D01*
X111136902Y-103632700D01*
X111044902Y-103651000D01*
X110951098Y-103651000D01*
X110859098Y-103632700D01*
X110827083Y-103619439D01*
X110772436Y-103596804D01*
X110753003Y-103583819D01*
X110694440Y-103544689D01*
X110628111Y-103478360D01*
X110575997Y-103400365D01*
X110575996Y-103400364D01*
X110540102Y-103313706D01*
X110540100Y-103313702D01*
X110521800Y-103221702D01*
X110521800Y-103127898D01*
X110540100Y-103035898D01*
X110569887Y-102963985D01*
X110575996Y-102949236D01*
X110591487Y-102926053D01*
X110628111Y-102871240D01*
X110694440Y-102804911D01*
X110772435Y-102752797D01*
X110772436Y-102752796D01*
X110827083Y-102730161D01*
X110859098Y-102716900D01*
X110951098Y-102698600D01*
X111044902Y-102698600D01*
X111136902Y-102716900D01*
X111136902Y-102716900D01*
G37*
G36*
X112406902Y-102716900D02*
X112438917Y-102730161D01*
X112493564Y-102752796D01*
X112493565Y-102752797D01*
X112571560Y-102804911D01*
X112637889Y-102871240D01*
X112674513Y-102926053D01*
X112690004Y-102949236D01*
X112696113Y-102963985D01*
X112725900Y-103035898D01*
X112744200Y-103127898D01*
X112744200Y-103221702D01*
X112725900Y-103313702D01*
X112725898Y-103313706D01*
X112690004Y-103400364D01*
X112690003Y-103400365D01*
X112637889Y-103478360D01*
X112571560Y-103544689D01*
X112512997Y-103583819D01*
X112493564Y-103596804D01*
X112438917Y-103619439D01*
X112406902Y-103632700D01*
X112314902Y-103651000D01*
X112221098Y-103651000D01*
X112129098Y-103632700D01*
X112097083Y-103619439D01*
X112042436Y-103596804D01*
X112023003Y-103583819D01*
X111964440Y-103544689D01*
X111898111Y-103478360D01*
X111845997Y-103400365D01*
X111845996Y-103400364D01*
X111810102Y-103313706D01*
X111810100Y-103313702D01*
X111791800Y-103221702D01*
X111791800Y-103127898D01*
X111810100Y-103035898D01*
X111839887Y-102963985D01*
X111845996Y-102949236D01*
X111861487Y-102926053D01*
X111898111Y-102871240D01*
X111964440Y-102804911D01*
X112042435Y-102752797D01*
X112042436Y-102752796D01*
X112097083Y-102730161D01*
X112129098Y-102716900D01*
X112221098Y-102698600D01*
X112314902Y-102698600D01*
X112406902Y-102716900D01*
X112406902Y-102716900D01*
G37*
G36*
X120608560Y-103175450D02*
X119694160Y-103175450D01*
X119694160Y-102324550D01*
X120608560Y-102324550D01*
X120608560Y-103175450D01*
X120608560Y-103175450D01*
G37*
G36*
X121705840Y-103175450D02*
X120791440Y-103175450D01*
X120791440Y-102324550D01*
X121705840Y-102324550D01*
X121705840Y-103175450D01*
X121705840Y-103175450D01*
G37*
G36*
X119305840Y-103175450D02*
X118391440Y-103175450D01*
X118391440Y-102324550D01*
X119305840Y-102324550D01*
X119305840Y-103175450D01*
X119305840Y-103175450D01*
G37*
G36*
X118208560Y-103175450D02*
X117294160Y-103175450D01*
X117294160Y-102324550D01*
X118208560Y-102324550D01*
X118208560Y-103175450D01*
X118208560Y-103175450D01*
G37*
G36*
X128329553Y-101826488D02*
X128386968Y-101843904D01*
X128439877Y-101872184D01*
X128486254Y-101910246D01*
X128524316Y-101956623D01*
X128552596Y-102009532D01*
X128570012Y-102066947D01*
X128576200Y-102129767D01*
X128576200Y-102863233D01*
X128570012Y-102926053D01*
X128552596Y-102983468D01*
X128524316Y-103036377D01*
X128486254Y-103082754D01*
X128439877Y-103120816D01*
X128386968Y-103149096D01*
X128329553Y-103166512D01*
X128266733Y-103172700D01*
X127233267Y-103172700D01*
X127170447Y-103166512D01*
X127113032Y-103149096D01*
X127060123Y-103120816D01*
X127013746Y-103082754D01*
X126975684Y-103036377D01*
X126947404Y-102983468D01*
X126929988Y-102926053D01*
X126923800Y-102863233D01*
X126923800Y-102129767D01*
X126929988Y-102066947D01*
X126947404Y-102009532D01*
X126975684Y-101956623D01*
X127013746Y-101910246D01*
X127060123Y-101872184D01*
X127113032Y-101843904D01*
X127170447Y-101826488D01*
X127233267Y-101820300D01*
X128266733Y-101820300D01*
X128329553Y-101826488D01*
X128329553Y-101826488D01*
G37*
G36*
X122875450Y-102708560D02*
X122024550Y-102708560D01*
X122024550Y-101794160D01*
X122875450Y-101794160D01*
X122875450Y-102708560D01*
X122875450Y-102708560D01*
G37*
G36*
X111675450Y-101855840D02*
X110824550Y-101855840D01*
X110824550Y-100941440D01*
X111675450Y-100941440D01*
X111675450Y-101855840D01*
X111675450Y-101855840D01*
G37*
G36*
X110176200Y-101825500D02*
X109323800Y-101825500D01*
X109323800Y-100973100D01*
X110176200Y-100973100D01*
X110176200Y-101825500D01*
X110176200Y-101825500D01*
G37*
G36*
X114425450Y-101780340D02*
X113574550Y-101780340D01*
X113574550Y-100865940D01*
X114425450Y-100865940D01*
X114425450Y-101780340D01*
X114425450Y-101780340D01*
G37*
G36*
X120490000Y-101700000D02*
X116110000Y-101700000D01*
X116110000Y-100850000D01*
X120490000Y-100850000D01*
X120490000Y-101700000D01*
X120490000Y-101700000D01*
G37*
G36*
X126326200Y-101676200D02*
X124973800Y-101676200D01*
X124973800Y-100123800D01*
X126326200Y-100123800D01*
X126326200Y-101676200D01*
X126326200Y-101676200D01*
G37*
G36*
X124626200Y-101676200D02*
X123273800Y-101676200D01*
X123273800Y-100123800D01*
X124626200Y-100123800D01*
X124626200Y-101676200D01*
X124626200Y-101676200D01*
G37*
G36*
X111675450Y-100758560D02*
X110824550Y-100758560D01*
X110824550Y-99844160D01*
X111675450Y-99844160D01*
X111675450Y-100758560D01*
X111675450Y-100758560D01*
G37*
G36*
X115950000Y-100690000D02*
X115100000Y-100690000D01*
X115100000Y-96310000D01*
X115950000Y-96310000D01*
X115950000Y-100690000D01*
X115950000Y-100690000D01*
G37*
G36*
X121500000Y-100690000D02*
X120650000Y-100690000D01*
X120650000Y-96310000D01*
X121500000Y-96310000D01*
X121500000Y-100690000D01*
X121500000Y-100690000D01*
G37*
G36*
X114425450Y-100683060D02*
X113574550Y-100683060D01*
X113574550Y-99768660D01*
X114425450Y-99768660D01*
X114425450Y-100683060D01*
X114425450Y-100683060D01*
G37*
G36*
X128329553Y-99326488D02*
X128386968Y-99343904D01*
X128439877Y-99372184D01*
X128486254Y-99410246D01*
X128524316Y-99456623D01*
X128552596Y-99509532D01*
X128570012Y-99566947D01*
X128576200Y-99629767D01*
X128576200Y-100363233D01*
X128570012Y-100426053D01*
X128552596Y-100483468D01*
X128524316Y-100536377D01*
X128486254Y-100582754D01*
X128439877Y-100620816D01*
X128386968Y-100649096D01*
X128329553Y-100666512D01*
X128266733Y-100672700D01*
X127233267Y-100672700D01*
X127170447Y-100666512D01*
X127113032Y-100649096D01*
X127060123Y-100620816D01*
X127013746Y-100582754D01*
X126975684Y-100536377D01*
X126947404Y-100483468D01*
X126929988Y-100426053D01*
X126923800Y-100363233D01*
X126923800Y-99629767D01*
X126929988Y-99566947D01*
X126947404Y-99509532D01*
X126975684Y-99456623D01*
X127013746Y-99410246D01*
X127060123Y-99372184D01*
X127113032Y-99343904D01*
X127170447Y-99326488D01*
X127233267Y-99320300D01*
X128266733Y-99320300D01*
X128329553Y-99326488D01*
X128329553Y-99326488D01*
G37*
G36*
X120350000Y-100550000D02*
X116250000Y-100550000D01*
X116250000Y-96450000D01*
X120350000Y-96450000D01*
X120350000Y-100550000D01*
X120350000Y-100550000D01*
G37*
G36*
X110176200Y-100326900D02*
X109323800Y-100326900D01*
X109323800Y-99474500D01*
X110176200Y-99474500D01*
X110176200Y-100326900D01*
X110176200Y-100326900D01*
G37*
G36*
X124258560Y-99725450D02*
X123344160Y-99725450D01*
X123344160Y-98874550D01*
X124258560Y-98874550D01*
X124258560Y-99725450D01*
X124258560Y-99725450D01*
G37*
G36*
X125355840Y-99725450D02*
X124441440Y-99725450D01*
X124441440Y-98874550D01*
X125355840Y-98874550D01*
X125355840Y-99725450D01*
X125355840Y-99725450D01*
G37*
G36*
X109621102Y-96981228D02*
X109630096Y-96983956D01*
X109638386Y-96988387D01*
X109645651Y-96994349D01*
X109651613Y-97001614D01*
X109656044Y-97009904D01*
X109658772Y-97018898D01*
X109660000Y-97031366D01*
X109660000Y-97428634D01*
X109658772Y-97441102D01*
X109656044Y-97450096D01*
X109651613Y-97458386D01*
X109645651Y-97465651D01*
X109643501Y-97467415D01*
X109634699Y-97476217D01*
X109627783Y-97486567D01*
X109623020Y-97498068D01*
X109620592Y-97510277D01*
X109620592Y-97522725D01*
X109623021Y-97534934D01*
X109627785Y-97546435D01*
X109634701Y-97556785D01*
X109643503Y-97565587D01*
X109653853Y-97572503D01*
X109665354Y-97577266D01*
X109683786Y-97580000D01*
X109816214Y-97580000D01*
X109828602Y-97578780D01*
X109840514Y-97575166D01*
X109851493Y-97569298D01*
X109861115Y-97561401D01*
X109869012Y-97551779D01*
X109874880Y-97540800D01*
X109878494Y-97528888D01*
X109879714Y-97516500D01*
X109878494Y-97504112D01*
X109874880Y-97492200D01*
X109869012Y-97481221D01*
X109856499Y-97467415D01*
X109854349Y-97465651D01*
X109848387Y-97458386D01*
X109843956Y-97450096D01*
X109841228Y-97441102D01*
X109840000Y-97428634D01*
X109840000Y-97031366D01*
X109841228Y-97018898D01*
X109843956Y-97009904D01*
X109848387Y-97001614D01*
X109854349Y-96994349D01*
X109861614Y-96988387D01*
X109869904Y-96983956D01*
X109878898Y-96981228D01*
X109891366Y-96980000D01*
X110108634Y-96980000D01*
X110121102Y-96981228D01*
X110130096Y-96983956D01*
X110138386Y-96988387D01*
X110145651Y-96994349D01*
X110151613Y-97001614D01*
X110156044Y-97009904D01*
X110158772Y-97018898D01*
X110160000Y-97031366D01*
X110160000Y-97428634D01*
X110158772Y-97441102D01*
X110156044Y-97450096D01*
X110151613Y-97458386D01*
X110145651Y-97465651D01*
X110138386Y-97471613D01*
X110130098Y-97476043D01*
X110127480Y-97476837D01*
X110115979Y-97481600D01*
X110105628Y-97488515D01*
X110096825Y-97497317D01*
X110089909Y-97507667D01*
X110085144Y-97519167D01*
X110082715Y-97531376D01*
X110082714Y-97543824D01*
X110085142Y-97556033D01*
X110089905Y-97567534D01*
X110096820Y-97577885D01*
X110105622Y-97586688D01*
X110115975Y-97593606D01*
X110136165Y-97604398D01*
X110157826Y-97622174D01*
X110175602Y-97643835D01*
X110188811Y-97668548D01*
X110196946Y-97695365D01*
X110200000Y-97726368D01*
X110200000Y-98133632D01*
X110196946Y-98164635D01*
X110188811Y-98191452D01*
X110175602Y-98216165D01*
X110157826Y-98237826D01*
X110136165Y-98255602D01*
X110115975Y-98266394D01*
X110105624Y-98273310D01*
X110096822Y-98282113D01*
X110089907Y-98292463D01*
X110085143Y-98303964D01*
X110082715Y-98316173D01*
X110082715Y-98328621D01*
X110085144Y-98340830D01*
X110089907Y-98352330D01*
X110096823Y-98362681D01*
X110105626Y-98371483D01*
X110115976Y-98378398D01*
X110127480Y-98383163D01*
X110130098Y-98383957D01*
X110138386Y-98388387D01*
X110145651Y-98394349D01*
X110151613Y-98401614D01*
X110156044Y-98409904D01*
X110158772Y-98418898D01*
X110160000Y-98431366D01*
X110160000Y-98828634D01*
X110158772Y-98841102D01*
X110156044Y-98850096D01*
X110151613Y-98858386D01*
X110145651Y-98865651D01*
X110138386Y-98871613D01*
X110130096Y-98876044D01*
X110121102Y-98878772D01*
X110108634Y-98880000D01*
X109891366Y-98880000D01*
X109878898Y-98878772D01*
X109869904Y-98876044D01*
X109861614Y-98871613D01*
X109854349Y-98865651D01*
X109848387Y-98858386D01*
X109843956Y-98850096D01*
X109841228Y-98841102D01*
X109840000Y-98828634D01*
X109840000Y-98431366D01*
X109841228Y-98418898D01*
X109843956Y-98409904D01*
X109848387Y-98401614D01*
X109854349Y-98394349D01*
X109856499Y-98392585D01*
X109865301Y-98383783D01*
X109872217Y-98373433D01*
X109876980Y-98361932D01*
X109879408Y-98349723D01*
X109879408Y-98337275D01*
X109876979Y-98325066D01*
X109872215Y-98313565D01*
X109865299Y-98303215D01*
X109856497Y-98294413D01*
X109846147Y-98287497D01*
X109834646Y-98282734D01*
X109816214Y-98280000D01*
X109683786Y-98280000D01*
X109671398Y-98281220D01*
X109659486Y-98284834D01*
X109648507Y-98290702D01*
X109638885Y-98298599D01*
X109630988Y-98308221D01*
X109625120Y-98319200D01*
X109621506Y-98331112D01*
X109620286Y-98343500D01*
X109621506Y-98355888D01*
X109625120Y-98367800D01*
X109630988Y-98378779D01*
X109643501Y-98392585D01*
X109645651Y-98394349D01*
X109651613Y-98401614D01*
X109656044Y-98409904D01*
X109658772Y-98418898D01*
X109660000Y-98431366D01*
X109660000Y-98828634D01*
X109658772Y-98841102D01*
X109656044Y-98850096D01*
X109651613Y-98858386D01*
X109645651Y-98865651D01*
X109638386Y-98871613D01*
X109630096Y-98876044D01*
X109621102Y-98878772D01*
X109608634Y-98880000D01*
X109391366Y-98880000D01*
X109378898Y-98878772D01*
X109369904Y-98876044D01*
X109361614Y-98871613D01*
X109354349Y-98865651D01*
X109348387Y-98858386D01*
X109343956Y-98850096D01*
X109341228Y-98841102D01*
X109340000Y-98828634D01*
X109340000Y-98431366D01*
X109341228Y-98418898D01*
X109343956Y-98409904D01*
X109348387Y-98401614D01*
X109354349Y-98394349D01*
X109361614Y-98388387D01*
X109369902Y-98383957D01*
X109372520Y-98383163D01*
X109384021Y-98378400D01*
X109394372Y-98371485D01*
X109403175Y-98362683D01*
X109410091Y-98352333D01*
X109414856Y-98340833D01*
X109417285Y-98328624D01*
X109417286Y-98316176D01*
X109414858Y-98303967D01*
X109410095Y-98292466D01*
X109403180Y-98282115D01*
X109394378Y-98273312D01*
X109384025Y-98266394D01*
X109363835Y-98255602D01*
X109342174Y-98237826D01*
X109324398Y-98216165D01*
X109311189Y-98191452D01*
X109303054Y-98164635D01*
X109300000Y-98133632D01*
X109300000Y-97726368D01*
X109303054Y-97695365D01*
X109311189Y-97668548D01*
X109324398Y-97643835D01*
X109342174Y-97622174D01*
X109363835Y-97604398D01*
X109384025Y-97593606D01*
X109394376Y-97586690D01*
X109403178Y-97577887D01*
X109410093Y-97567537D01*
X109414857Y-97556036D01*
X109417285Y-97543827D01*
X109417285Y-97531379D01*
X109414856Y-97519170D01*
X109410093Y-97507670D01*
X109403177Y-97497319D01*
X109394374Y-97488517D01*
X109384024Y-97481602D01*
X109372520Y-97476837D01*
X109369902Y-97476043D01*
X109361614Y-97471613D01*
X109354349Y-97465651D01*
X109348387Y-97458386D01*
X109343956Y-97450096D01*
X109341228Y-97441102D01*
X109340000Y-97428634D01*
X109340000Y-97031366D01*
X109341228Y-97018898D01*
X109343956Y-97009904D01*
X109348387Y-97001614D01*
X109354349Y-96994349D01*
X109361614Y-96988387D01*
X109369904Y-96983956D01*
X109378898Y-96981228D01*
X109391366Y-96980000D01*
X109608634Y-96980000D01*
X109621102Y-96981228D01*
X109621102Y-96981228D01*
G37*
G36*
X128329553Y-97326488D02*
X128386968Y-97343904D01*
X128439877Y-97372184D01*
X128486254Y-97410246D01*
X128524316Y-97456623D01*
X128552596Y-97509532D01*
X128570012Y-97566947D01*
X128576200Y-97629767D01*
X128576200Y-98363233D01*
X128570012Y-98426053D01*
X128552596Y-98483468D01*
X128524316Y-98536377D01*
X128486254Y-98582754D01*
X128439877Y-98620816D01*
X128386968Y-98649096D01*
X128329553Y-98666512D01*
X128266733Y-98672700D01*
X127233267Y-98672700D01*
X127170447Y-98666512D01*
X127113032Y-98649096D01*
X127060123Y-98620816D01*
X127013746Y-98582754D01*
X126975684Y-98536377D01*
X126947404Y-98483468D01*
X126929988Y-98426053D01*
X126923800Y-98363233D01*
X126923800Y-97629767D01*
X126929988Y-97566947D01*
X126947404Y-97509532D01*
X126975684Y-97456623D01*
X127013746Y-97410246D01*
X127060123Y-97372184D01*
X127113032Y-97343904D01*
X127170447Y-97326488D01*
X127233267Y-97320300D01*
X128266733Y-97320300D01*
X128329553Y-97326488D01*
X128329553Y-97326488D01*
G37*
G36*
X123025450Y-98541840D02*
X122174550Y-98541840D01*
X122174550Y-97627440D01*
X123025450Y-97627440D01*
X123025450Y-98541840D01*
X123025450Y-98541840D01*
G37*
G36*
X113250000Y-98010000D02*
X112750000Y-98010000D01*
X112750000Y-97410000D01*
X113250000Y-97410000D01*
X113250000Y-98010000D01*
X113250000Y-98010000D01*
G37*
G36*
X112600000Y-98010000D02*
X112100000Y-98010000D01*
X112100000Y-97410000D01*
X112600000Y-97410000D01*
X112600000Y-98010000D01*
X112600000Y-98010000D01*
G37*
G36*
X113900000Y-98010000D02*
X113400000Y-98010000D01*
X113400000Y-97410000D01*
X113900000Y-97410000D01*
X113900000Y-98010000D01*
X113900000Y-98010000D01*
G37*
G36*
X124445800Y-97884300D02*
X123393400Y-97884300D01*
X123393400Y-97131900D01*
X124445800Y-97131900D01*
X124445800Y-97884300D01*
X124445800Y-97884300D01*
G37*
G36*
X123025450Y-97444560D02*
X122174550Y-97444560D01*
X122174550Y-96530160D01*
X123025450Y-96530160D01*
X123025450Y-97444560D01*
X123025450Y-97444560D01*
G37*
G36*
X126745800Y-96934300D02*
X125693400Y-96934300D01*
X125693400Y-96181900D01*
X126745800Y-96181900D01*
X126745800Y-96934300D01*
X126745800Y-96934300D01*
G37*
G36*
X123326580Y-95168400D02*
X123327800Y-95180788D01*
X123331414Y-95192700D01*
X123337282Y-95203679D01*
X123345179Y-95213301D01*
X123354801Y-95221198D01*
X123365780Y-95227066D01*
X123377692Y-95230680D01*
X123390080Y-95231900D01*
X124445800Y-95231900D01*
X124445800Y-95984300D01*
X123390080Y-95984300D01*
X123377692Y-95985520D01*
X123365780Y-95989134D01*
X123354801Y-95995002D01*
X123345179Y-96002899D01*
X123337282Y-96012521D01*
X123331414Y-96023500D01*
X123327800Y-96035412D01*
X123326580Y-96047800D01*
X123326580Y-96197620D01*
X122173420Y-96197620D01*
X122173420Y-95146060D01*
X123326580Y-95146060D01*
X123326580Y-95168400D01*
X123326580Y-95168400D01*
G37*
G36*
X128329553Y-94826368D02*
X128386968Y-94843784D01*
X128439877Y-94872064D01*
X128486254Y-94910126D01*
X128524316Y-94956503D01*
X128552596Y-95009412D01*
X128570012Y-95066827D01*
X128576200Y-95129647D01*
X128576200Y-95863113D01*
X128570012Y-95925933D01*
X128552596Y-95983348D01*
X128524316Y-96036257D01*
X128486254Y-96082634D01*
X128439877Y-96120696D01*
X128386968Y-96148976D01*
X128329553Y-96166392D01*
X128266733Y-96172580D01*
X127233267Y-96172580D01*
X127170447Y-96166392D01*
X127113032Y-96148976D01*
X127060123Y-96120696D01*
X127013746Y-96082634D01*
X126975684Y-96036257D01*
X126947404Y-95983348D01*
X126929988Y-95925933D01*
X126923800Y-95863113D01*
X126923800Y-95129647D01*
X126929988Y-95066827D01*
X126947404Y-95009412D01*
X126975684Y-94956503D01*
X127013746Y-94910126D01*
X127060123Y-94872064D01*
X127113032Y-94843784D01*
X127170447Y-94826368D01*
X127233267Y-94820180D01*
X128266733Y-94820180D01*
X128329553Y-94826368D01*
X128329553Y-94826368D01*
G37*
G36*
X120490000Y-96150000D02*
X116110000Y-96150000D01*
X116110000Y-95300000D01*
X120490000Y-95300000D01*
X120490000Y-96150000D01*
X120490000Y-96150000D01*
G37*
G36*
X113250000Y-96110000D02*
X112750000Y-96110000D01*
X112750000Y-95510000D01*
X113250000Y-95510000D01*
X113250000Y-96110000D01*
X113250000Y-96110000D01*
G37*
G36*
X112600000Y-96110000D02*
X112100000Y-96110000D01*
X112100000Y-95510000D01*
X112600000Y-95510000D01*
X112600000Y-96110000D01*
X112600000Y-96110000D01*
G37*
G36*
X113900000Y-96110000D02*
X113400000Y-96110000D01*
X113400000Y-95510000D01*
X113900000Y-95510000D01*
X113900000Y-96110000D01*
X113900000Y-96110000D01*
G37*
G36*
X123326580Y-94693940D02*
X122173420Y-94693940D01*
X122173420Y-93642380D01*
X123326580Y-93642380D01*
X123326580Y-94693940D01*
X123326580Y-94693940D01*
G37*
G36*
X126177620Y-94676580D02*
X125126060Y-94676580D01*
X125126060Y-93523420D01*
X126177620Y-93523420D01*
X126177620Y-94676580D01*
X126177620Y-94676580D01*
G37*
G36*
X124673940Y-94676580D02*
X123622380Y-94676580D01*
X123622380Y-93523420D01*
X124673940Y-93523420D01*
X124673940Y-94676580D01*
X124673940Y-94676580D01*
G37*
G36*
X115908560Y-94625450D02*
X114994160Y-94625450D01*
X114994160Y-93774550D01*
X115908560Y-93774550D01*
X115908560Y-94625450D01*
X115908560Y-94625450D01*
G37*
G36*
X117005840Y-94625450D02*
X116091440Y-94625450D01*
X116091440Y-93774550D01*
X117005840Y-93774550D01*
X117005840Y-94625450D01*
X117005840Y-94625450D01*
G37*
M02*
