G04 #@! TF.GenerationSoftware,KiCad,Pcbnew,5.0.1+dfsg1-3*
G04 #@! TF.CreationDate,2018-12-05T12:11:20+09:00*
G04 #@! TF.ProjectId,fst-01,6673742D30312E6B696361645F706362,rev?*
G04 #@! TF.SameCoordinates,Original*
G04 #@! TF.FileFunction,Legend,Bot*
G04 #@! TF.FilePolarity,Positive*
%FSLAX46Y46*%
G04 Gerber Fmt 4.6, Leading zero omitted, Abs format (unit mm)*
G04 Created by KiCad (PCBNEW 5.0.1+dfsg1-3) date Wed Dec  5 12:11:20 2018*
%MOMM*%
%LPD*%
G01*
G04 APERTURE LIST*
%ADD10C,0.250000*%
%ADD11C,0.150000*%
%ADD12C,0.200660*%
%ADD13C,0.762000*%
%ADD14C,0.457200*%
%ADD15C,0.152400*%
G04 APERTURE END LIST*
D10*
X127192857Y-94721500D02*
X127526190Y-94721500D01*
X127526190Y-95454833D02*
X127526190Y-94054833D01*
X127050000Y-94054833D01*
X126526190Y-95454833D02*
X126621428Y-95388166D01*
X126669047Y-95254833D01*
X126669047Y-94054833D01*
X126240476Y-94521500D02*
X126002380Y-95454833D01*
X125764285Y-94521500D02*
X126002380Y-95454833D01*
X126097619Y-95788166D01*
X126145238Y-95854833D01*
X126240476Y-95921500D01*
X125383333Y-95454833D02*
X125383333Y-94521500D01*
X125383333Y-94054833D02*
X125430952Y-94121500D01*
X125383333Y-94188166D01*
X125335714Y-94121500D01*
X125383333Y-94054833D01*
X125383333Y-94188166D01*
X124907142Y-94521500D02*
X124907142Y-95454833D01*
X124907142Y-94654833D02*
X124859523Y-94588166D01*
X124764285Y-94521500D01*
X124621428Y-94521500D01*
X124526190Y-94588166D01*
X124478571Y-94721500D01*
X124478571Y-95454833D01*
X123573809Y-94521500D02*
X123573809Y-95654833D01*
X123621428Y-95788166D01*
X123669047Y-95854833D01*
X123764285Y-95921500D01*
X123907142Y-95921500D01*
X124002380Y-95854833D01*
X123573809Y-95388166D02*
X123669047Y-95454833D01*
X123859523Y-95454833D01*
X123954761Y-95388166D01*
X124002380Y-95321500D01*
X124050000Y-95188166D01*
X124050000Y-94788166D01*
X124002380Y-94654833D01*
X123954761Y-94588166D01*
X123859523Y-94521500D01*
X123669047Y-94521500D01*
X123573809Y-94588166D01*
X122383333Y-95388166D02*
X122240476Y-95454833D01*
X122002380Y-95454833D01*
X121907142Y-95388166D01*
X121859523Y-95321500D01*
X121811904Y-95188166D01*
X121811904Y-95054833D01*
X121859523Y-94921500D01*
X121907142Y-94854833D01*
X122002380Y-94788166D01*
X122192857Y-94721500D01*
X122288095Y-94654833D01*
X122335714Y-94588166D01*
X122383333Y-94454833D01*
X122383333Y-94321500D01*
X122335714Y-94188166D01*
X122288095Y-94121500D01*
X122192857Y-94054833D01*
X121954761Y-94054833D01*
X121811904Y-94121500D01*
X121526190Y-94521500D02*
X121145238Y-94521500D01*
X121383333Y-94054833D02*
X121383333Y-95254833D01*
X121335714Y-95388166D01*
X121240476Y-95454833D01*
X121145238Y-95454833D01*
X120669047Y-95454833D02*
X120764285Y-95388166D01*
X120811904Y-95321500D01*
X120859523Y-95188166D01*
X120859523Y-94788166D01*
X120811904Y-94654833D01*
X120764285Y-94588166D01*
X120669047Y-94521500D01*
X120526190Y-94521500D01*
X120430952Y-94588166D01*
X120383333Y-94654833D01*
X120335714Y-94788166D01*
X120335714Y-95188166D01*
X120383333Y-95321500D01*
X120430952Y-95388166D01*
X120526190Y-95454833D01*
X120669047Y-95454833D01*
X119907142Y-94521500D02*
X119907142Y-95454833D01*
X119907142Y-94654833D02*
X119859523Y-94588166D01*
X119764285Y-94521500D01*
X119621428Y-94521500D01*
X119526190Y-94588166D01*
X119478571Y-94721500D01*
X119478571Y-95454833D01*
X118621428Y-95388166D02*
X118716666Y-95454833D01*
X118907142Y-95454833D01*
X119002380Y-95388166D01*
X119050000Y-95254833D01*
X119050000Y-94721500D01*
X119002380Y-94588166D01*
X118907142Y-94521500D01*
X118716666Y-94521500D01*
X118621428Y-94588166D01*
X118573809Y-94721500D01*
X118573809Y-94854833D01*
X119050000Y-94988166D01*
X117526190Y-94054833D02*
X116954761Y-94054833D01*
X117240476Y-95454833D02*
X117240476Y-94054833D01*
X116240476Y-95388166D02*
X116335714Y-95454833D01*
X116526190Y-95454833D01*
X116621428Y-95388166D01*
X116669047Y-95254833D01*
X116669047Y-94721500D01*
X116621428Y-94588166D01*
X116526190Y-94521500D01*
X116335714Y-94521500D01*
X116240476Y-94588166D01*
X116192857Y-94721500D01*
X116192857Y-94854833D01*
X116669047Y-94988166D01*
X115335714Y-95388166D02*
X115430952Y-95454833D01*
X115621428Y-95454833D01*
X115716666Y-95388166D01*
X115764285Y-95321500D01*
X115811904Y-95188166D01*
X115811904Y-94788166D01*
X115764285Y-94654833D01*
X115716666Y-94588166D01*
X115621428Y-94521500D01*
X115430952Y-94521500D01*
X115335714Y-94588166D01*
X114907142Y-95454833D02*
X114907142Y-94054833D01*
X114478571Y-95454833D02*
X114478571Y-94721500D01*
X114526190Y-94588166D01*
X114621428Y-94521500D01*
X114764285Y-94521500D01*
X114859523Y-94588166D01*
X114907142Y-94654833D01*
X114002380Y-94521500D02*
X114002380Y-95454833D01*
X114002380Y-94654833D02*
X113954761Y-94588166D01*
X113859523Y-94521500D01*
X113716666Y-94521500D01*
X113621428Y-94588166D01*
X113573809Y-94721500D01*
X113573809Y-95454833D01*
X112954761Y-95454833D02*
X113050000Y-95388166D01*
X113097619Y-95321500D01*
X113145238Y-95188166D01*
X113145238Y-94788166D01*
X113097619Y-94654833D01*
X113050000Y-94588166D01*
X112954761Y-94521500D01*
X112811904Y-94521500D01*
X112716666Y-94588166D01*
X112669047Y-94654833D01*
X112621428Y-94788166D01*
X112621428Y-95188166D01*
X112669047Y-95321500D01*
X112716666Y-95388166D01*
X112811904Y-95454833D01*
X112954761Y-95454833D01*
X112050000Y-95454833D02*
X112145238Y-95388166D01*
X112192857Y-95254833D01*
X112192857Y-94054833D01*
X111526190Y-95454833D02*
X111621428Y-95388166D01*
X111669047Y-95321500D01*
X111716666Y-95188166D01*
X111716666Y-94788166D01*
X111669047Y-94654833D01*
X111621428Y-94588166D01*
X111526190Y-94521500D01*
X111383333Y-94521500D01*
X111288095Y-94588166D01*
X111240476Y-94654833D01*
X111192857Y-94788166D01*
X111192857Y-95188166D01*
X111240476Y-95321500D01*
X111288095Y-95388166D01*
X111383333Y-95454833D01*
X111526190Y-95454833D01*
X110335714Y-94521500D02*
X110335714Y-95654833D01*
X110383333Y-95788166D01*
X110430952Y-95854833D01*
X110526190Y-95921500D01*
X110669047Y-95921500D01*
X110764285Y-95854833D01*
X110335714Y-95388166D02*
X110430952Y-95454833D01*
X110621428Y-95454833D01*
X110716666Y-95388166D01*
X110764285Y-95321500D01*
X110811904Y-95188166D01*
X110811904Y-94788166D01*
X110764285Y-94654833D01*
X110716666Y-94588166D01*
X110621428Y-94521500D01*
X110430952Y-94521500D01*
X110335714Y-94588166D01*
X109954761Y-94521500D02*
X109716666Y-95454833D01*
X109478571Y-94521500D02*
X109716666Y-95454833D01*
X109811904Y-95788166D01*
X109859523Y-95854833D01*
X109954761Y-95921500D01*
D11*
X111767857Y-103892928D02*
X111396428Y-103892928D01*
X111596428Y-104121500D01*
X111510714Y-104121500D01*
X111453571Y-104150071D01*
X111425000Y-104178642D01*
X111396428Y-104235785D01*
X111396428Y-104378642D01*
X111425000Y-104435785D01*
X111453571Y-104464357D01*
X111510714Y-104492928D01*
X111682142Y-104492928D01*
X111739285Y-104464357D01*
X111767857Y-104435785D01*
X111225000Y-103892928D02*
X111025000Y-104492928D01*
X110825000Y-103892928D01*
X110682142Y-103892928D02*
X110310714Y-103892928D01*
X110510714Y-104121500D01*
X110425000Y-104121500D01*
X110367857Y-104150071D01*
X110339285Y-104178642D01*
X110310714Y-104235785D01*
X110310714Y-104378642D01*
X110339285Y-104435785D01*
X110367857Y-104464357D01*
X110425000Y-104492928D01*
X110596428Y-104492928D01*
X110653571Y-104464357D01*
X110682142Y-104435785D01*
X112864285Y-102517928D02*
X112864285Y-101917928D01*
X112721428Y-101917928D01*
X112635714Y-101946500D01*
X112578571Y-102003642D01*
X112550000Y-102060785D01*
X112521428Y-102175071D01*
X112521428Y-102260785D01*
X112550000Y-102375071D01*
X112578571Y-102432214D01*
X112635714Y-102489357D01*
X112721428Y-102517928D01*
X112864285Y-102517928D01*
X112264285Y-102517928D02*
X112264285Y-101917928D01*
X111864285Y-101917928D02*
X111750000Y-101917928D01*
X111692857Y-101946500D01*
X111635714Y-102003642D01*
X111607142Y-102117928D01*
X111607142Y-102317928D01*
X111635714Y-102432214D01*
X111692857Y-102489357D01*
X111750000Y-102517928D01*
X111864285Y-102517928D01*
X111921428Y-102489357D01*
X111978571Y-102432214D01*
X112007142Y-102317928D01*
X112007142Y-102117928D01*
X111978571Y-102003642D01*
X111921428Y-101946500D01*
X111864285Y-101917928D01*
X113932142Y-104435785D02*
X113960714Y-104464357D01*
X114046428Y-104492928D01*
X114103571Y-104492928D01*
X114189285Y-104464357D01*
X114246428Y-104407214D01*
X114275000Y-104350071D01*
X114303571Y-104235785D01*
X114303571Y-104150071D01*
X114275000Y-104035785D01*
X114246428Y-103978642D01*
X114189285Y-103921500D01*
X114103571Y-103892928D01*
X114046428Y-103892928D01*
X113960714Y-103921500D01*
X113932142Y-103950071D01*
X113389285Y-104492928D02*
X113675000Y-104492928D01*
X113675000Y-103892928D01*
X113189285Y-104492928D02*
X113189285Y-103892928D01*
X112846428Y-104492928D02*
X113103571Y-104150071D01*
X112846428Y-103892928D02*
X113189285Y-104235785D01*
X115128571Y-102517928D02*
X115328571Y-102232214D01*
X115471428Y-102517928D02*
X115471428Y-101917928D01*
X115242857Y-101917928D01*
X115185714Y-101946500D01*
X115157142Y-101975071D01*
X115128571Y-102032214D01*
X115128571Y-102117928D01*
X115157142Y-102175071D01*
X115185714Y-102203642D01*
X115242857Y-102232214D01*
X115471428Y-102232214D01*
X114900000Y-102489357D02*
X114814285Y-102517928D01*
X114671428Y-102517928D01*
X114614285Y-102489357D01*
X114585714Y-102460785D01*
X114557142Y-102403642D01*
X114557142Y-102346500D01*
X114585714Y-102289357D01*
X114614285Y-102260785D01*
X114671428Y-102232214D01*
X114785714Y-102203642D01*
X114842857Y-102175071D01*
X114871428Y-102146500D01*
X114900000Y-102089357D01*
X114900000Y-102032214D01*
X114871428Y-101975071D01*
X114842857Y-101946500D01*
X114785714Y-101917928D01*
X114642857Y-101917928D01*
X114557142Y-101946500D01*
X114385714Y-101917928D02*
X114042857Y-101917928D01*
X114214285Y-102517928D02*
X114214285Y-101917928D01*
X116682142Y-103921500D02*
X116739285Y-103892928D01*
X116825000Y-103892928D01*
X116910714Y-103921500D01*
X116967857Y-103978642D01*
X116996428Y-104035785D01*
X117025000Y-104150071D01*
X117025000Y-104235785D01*
X116996428Y-104350071D01*
X116967857Y-104407214D01*
X116910714Y-104464357D01*
X116825000Y-104492928D01*
X116767857Y-104492928D01*
X116682142Y-104464357D01*
X116653571Y-104435785D01*
X116653571Y-104235785D01*
X116767857Y-104235785D01*
X116396428Y-104492928D02*
X116396428Y-103892928D01*
X116053571Y-104492928D01*
X116053571Y-103892928D01*
X115767857Y-104492928D02*
X115767857Y-103892928D01*
X115625000Y-103892928D01*
X115539285Y-103921500D01*
X115482142Y-103978642D01*
X115453571Y-104035785D01*
X115425000Y-104150071D01*
X115425000Y-104235785D01*
X115453571Y-104350071D01*
X115482142Y-104407214D01*
X115539285Y-104464357D01*
X115625000Y-104492928D01*
X115767857Y-104492928D01*
D10*
X127113095Y-103996500D02*
X127446428Y-103996500D01*
X127446428Y-104729833D02*
X127446428Y-103329833D01*
X126970238Y-103329833D01*
X126636904Y-104663166D02*
X126494047Y-104729833D01*
X126255952Y-104729833D01*
X126160714Y-104663166D01*
X126113095Y-104596500D01*
X126065476Y-104463166D01*
X126065476Y-104329833D01*
X126113095Y-104196500D01*
X126160714Y-104129833D01*
X126255952Y-104063166D01*
X126446428Y-103996500D01*
X126541666Y-103929833D01*
X126589285Y-103863166D01*
X126636904Y-103729833D01*
X126636904Y-103596500D01*
X126589285Y-103463166D01*
X126541666Y-103396500D01*
X126446428Y-103329833D01*
X126208333Y-103329833D01*
X126065476Y-103396500D01*
X125779761Y-103329833D02*
X125208333Y-103329833D01*
X125494047Y-104729833D02*
X125494047Y-103329833D01*
X124875000Y-104196500D02*
X124113095Y-104196500D01*
X123446428Y-103329833D02*
X123351190Y-103329833D01*
X123255952Y-103396500D01*
X123208333Y-103463166D01*
X123160714Y-103596500D01*
X123113095Y-103863166D01*
X123113095Y-104196500D01*
X123160714Y-104463166D01*
X123208333Y-104596500D01*
X123255952Y-104663166D01*
X123351190Y-104729833D01*
X123446428Y-104729833D01*
X123541666Y-104663166D01*
X123589285Y-104596500D01*
X123636904Y-104463166D01*
X123684523Y-104196500D01*
X123684523Y-103863166D01*
X123636904Y-103596500D01*
X123589285Y-103463166D01*
X123541666Y-103396500D01*
X123446428Y-103329833D01*
X122160714Y-104729833D02*
X122732142Y-104729833D01*
X122446428Y-104729833D02*
X122446428Y-103329833D01*
X122541666Y-103529833D01*
X122636904Y-103663166D01*
X122732142Y-103729833D01*
X121779761Y-104663166D02*
X121636904Y-104729833D01*
X121398809Y-104729833D01*
X121303571Y-104663166D01*
X121255952Y-104596500D01*
X121208333Y-104463166D01*
X121208333Y-104329833D01*
X121255952Y-104196500D01*
X121303571Y-104129833D01*
X121398809Y-104063166D01*
X121589285Y-103996500D01*
X121684523Y-103929833D01*
X121732142Y-103863166D01*
X121779761Y-103729833D01*
X121779761Y-103596500D01*
X121732142Y-103463166D01*
X121684523Y-103396500D01*
X121589285Y-103329833D01*
X121351190Y-103329833D01*
X121208333Y-103396500D01*
X120875000Y-103329833D02*
X120208333Y-103329833D01*
X120875000Y-104729833D01*
X120208333Y-104729833D01*
D12*
X128101964Y-98462913D02*
X128816793Y-98462913D01*
X128959759Y-98415258D01*
X129055069Y-98319947D01*
X129102724Y-98176981D01*
X129102724Y-98081671D01*
X129102724Y-99463673D02*
X129102724Y-98891810D01*
X129102724Y-99177741D02*
X128101964Y-99177741D01*
X128244930Y-99082431D01*
X128340240Y-98987120D01*
X128387896Y-98891810D01*
D13*
G04 #@! TO.C,FST-LOGO*
X118821200Y-97421700D02*
X119583200Y-98183700D01*
X117043200Y-99072700D02*
X117805200Y-99834700D01*
X119583200Y-99834700D02*
X119583200Y-97421700D01*
X117043200Y-99834700D02*
X119583200Y-99834700D01*
X117043200Y-97421700D02*
X117043200Y-99834700D01*
X119583200Y-97421700D02*
X117043200Y-97421700D01*
D14*
X116154200Y-99326700D02*
X115138200Y-99326700D01*
X115646200Y-97548700D02*
X113360200Y-97548700D01*
X115900200Y-98437700D02*
X114122200Y-98437700D01*
D15*
X114521342Y-99163414D02*
X114085914Y-99163414D01*
X114303628Y-99925414D02*
X114303628Y-99163414D01*
X113831914Y-99925414D02*
X113831914Y-99163414D01*
X113577914Y-99707700D01*
X113323914Y-99163414D01*
X113323914Y-99925414D01*
G04 #@! TD*
M02*
