G04 #@! TF.GenerationSoftware,KiCad,Pcbnew,5.0.0-rc3+dfsg1-2*
G04 #@! TF.CreationDate,2018-08-08T10:48:40+09:00*
G04 #@! TF.ProjectId,fst-01,6673742D30312E6B696361645F706362,rev?*
G04 #@! TF.SameCoordinates,PX791ddc0PY5e69114*
G04 #@! TF.FileFunction,Soldermask,Top*
G04 #@! TF.FilePolarity,Negative*
%FSLAX46Y46*%
G04 Gerber Fmt 4.6, Leading zero omitted, Abs format (unit mm)*
G04 Created by KiCad (PCBNEW 5.0.0-rc3+dfsg1-2) date Wed Aug  8 10:48:40 2018*
%MOMM*%
%LPD*%
G01*
G04 APERTURE LIST*
%ADD10C,0.150000*%
G04 APERTURE END LIST*
D10*
G36*
X-4781550Y-4765040D02*
X-5632450Y-4765040D01*
X-5632450Y-3850640D01*
X-4781550Y-3850640D01*
X-4781550Y-4765040D01*
X-4781550Y-4765040D01*
G37*
G36*
X-1436863Y-4763114D02*
X-2783063Y-4763114D01*
X-2783063Y-3213714D01*
X-1436863Y-3213714D01*
X-1436863Y-4763114D01*
X-1436863Y-4763114D01*
G37*
G36*
X-3138663Y-4763114D02*
X-4484863Y-4763114D01*
X-4484863Y-3213714D01*
X-3138663Y-3213714D01*
X-3138663Y-4763114D01*
X-3138663Y-4763114D01*
G37*
G36*
X-14085098Y-3720400D02*
X-14053083Y-3733661D01*
X-13998436Y-3756296D01*
X-13998435Y-3756297D01*
X-13920440Y-3808411D01*
X-13854111Y-3874740D01*
X-13817487Y-3929553D01*
X-13801996Y-3952736D01*
X-13795887Y-3967485D01*
X-13766100Y-4039398D01*
X-13747800Y-4131398D01*
X-13747800Y-4225202D01*
X-13766100Y-4317202D01*
X-13766102Y-4317206D01*
X-13801996Y-4403864D01*
X-13801997Y-4403865D01*
X-13854111Y-4481860D01*
X-13920440Y-4548189D01*
X-13979003Y-4587319D01*
X-13998436Y-4600304D01*
X-14053083Y-4622939D01*
X-14085098Y-4636200D01*
X-14177098Y-4654500D01*
X-14270902Y-4654500D01*
X-14362902Y-4636200D01*
X-14394917Y-4622939D01*
X-14449564Y-4600304D01*
X-14468997Y-4587319D01*
X-14527560Y-4548189D01*
X-14593889Y-4481860D01*
X-14646003Y-4403865D01*
X-14646004Y-4403864D01*
X-14681898Y-4317206D01*
X-14681900Y-4317202D01*
X-14700200Y-4225202D01*
X-14700200Y-4131398D01*
X-14681900Y-4039398D01*
X-14652113Y-3967485D01*
X-14646004Y-3952736D01*
X-14630513Y-3929553D01*
X-14593889Y-3874740D01*
X-14527560Y-3808411D01*
X-14449565Y-3756297D01*
X-14449564Y-3756296D01*
X-14394917Y-3733661D01*
X-14362902Y-3720400D01*
X-14270902Y-3702100D01*
X-14177098Y-3702100D01*
X-14085098Y-3720400D01*
X-14085098Y-3720400D01*
G37*
G36*
X-15355098Y-3720400D02*
X-15323083Y-3733661D01*
X-15268436Y-3756296D01*
X-15268435Y-3756297D01*
X-15190440Y-3808411D01*
X-15124111Y-3874740D01*
X-15087487Y-3929553D01*
X-15071996Y-3952736D01*
X-15065887Y-3967485D01*
X-15036100Y-4039398D01*
X-15017800Y-4131398D01*
X-15017800Y-4225202D01*
X-15036100Y-4317202D01*
X-15036102Y-4317206D01*
X-15071996Y-4403864D01*
X-15071997Y-4403865D01*
X-15124111Y-4481860D01*
X-15190440Y-4548189D01*
X-15249003Y-4587319D01*
X-15268436Y-4600304D01*
X-15323083Y-4622939D01*
X-15355098Y-4636200D01*
X-15447098Y-4654500D01*
X-15540902Y-4654500D01*
X-15632902Y-4636200D01*
X-15664917Y-4622939D01*
X-15719564Y-4600304D01*
X-15738997Y-4587319D01*
X-15797560Y-4548189D01*
X-15863889Y-4481860D01*
X-15916003Y-4403865D01*
X-15916004Y-4403864D01*
X-15951898Y-4317206D01*
X-15951900Y-4317202D01*
X-15970200Y-4225202D01*
X-15970200Y-4131398D01*
X-15951900Y-4039398D01*
X-15922113Y-3967485D01*
X-15916004Y-3952736D01*
X-15900513Y-3929553D01*
X-15863889Y-3874740D01*
X-15797560Y-3808411D01*
X-15719565Y-3756297D01*
X-15719564Y-3756296D01*
X-15664917Y-3733661D01*
X-15632902Y-3720400D01*
X-15540902Y-3702100D01*
X-15447098Y-3702100D01*
X-15355098Y-3720400D01*
X-15355098Y-3720400D01*
G37*
G36*
X-16287800Y-4654500D02*
X-17240200Y-4654500D01*
X-17240200Y-3702100D01*
X-16287800Y-3702100D01*
X-16287800Y-4654500D01*
X-16287800Y-4654500D01*
G37*
G36*
X-12815098Y-3720400D02*
X-12783083Y-3733661D01*
X-12728436Y-3756296D01*
X-12728435Y-3756297D01*
X-12650440Y-3808411D01*
X-12584111Y-3874740D01*
X-12547487Y-3929553D01*
X-12531996Y-3952736D01*
X-12525887Y-3967485D01*
X-12496100Y-4039398D01*
X-12477800Y-4131398D01*
X-12477800Y-4225202D01*
X-12496100Y-4317202D01*
X-12496102Y-4317206D01*
X-12531996Y-4403864D01*
X-12531997Y-4403865D01*
X-12584111Y-4481860D01*
X-12650440Y-4548189D01*
X-12709003Y-4587319D01*
X-12728436Y-4600304D01*
X-12783083Y-4622939D01*
X-12815098Y-4636200D01*
X-12907098Y-4654500D01*
X-13000902Y-4654500D01*
X-13092902Y-4636200D01*
X-13124917Y-4622939D01*
X-13179564Y-4600304D01*
X-13198997Y-4587319D01*
X-13257560Y-4548189D01*
X-13323889Y-4481860D01*
X-13376003Y-4403865D01*
X-13376004Y-4403864D01*
X-13411898Y-4317206D01*
X-13411900Y-4317202D01*
X-13430200Y-4225202D01*
X-13430200Y-4131398D01*
X-13411900Y-4039398D01*
X-13382113Y-3967485D01*
X-13376004Y-3952736D01*
X-13360513Y-3929553D01*
X-13323889Y-3874740D01*
X-13257560Y-3808411D01*
X-13179565Y-3756297D01*
X-13179564Y-3756296D01*
X-13124917Y-3733661D01*
X-13092902Y-3720400D01*
X-13000902Y-3702100D01*
X-12907098Y-3702100D01*
X-12815098Y-3720400D01*
X-12815098Y-3720400D01*
G37*
G36*
X-11207800Y-4654500D02*
X-12160200Y-4654500D01*
X-12160200Y-3702100D01*
X-11207800Y-3702100D01*
X-11207800Y-4654500D01*
X-11207800Y-4654500D01*
G37*
G36*
X579553Y-2829988D02*
X636968Y-2847404D01*
X689877Y-2875684D01*
X736254Y-2913746D01*
X774316Y-2960123D01*
X802596Y-3013032D01*
X820012Y-3070447D01*
X826200Y-3133267D01*
X826200Y-3866733D01*
X820012Y-3929553D01*
X802596Y-3986968D01*
X774316Y-4039877D01*
X736254Y-4086254D01*
X689877Y-4124316D01*
X636968Y-4152596D01*
X579553Y-4170012D01*
X516733Y-4176200D01*
X-516733Y-4176200D01*
X-579553Y-4170012D01*
X-636968Y-4152596D01*
X-689877Y-4124316D01*
X-736254Y-4086254D01*
X-774316Y-4039877D01*
X-802596Y-3986968D01*
X-820012Y-3929553D01*
X-826200Y-3866733D01*
X-826200Y-3133267D01*
X-820012Y-3070447D01*
X-802596Y-3013032D01*
X-774316Y-2960123D01*
X-736254Y-2913746D01*
X-689877Y-2875684D01*
X-636968Y-2847404D01*
X-579553Y-2829988D01*
X-516733Y-2823800D01*
X516733Y-2823800D01*
X579553Y-2829988D01*
X579553Y-2829988D01*
G37*
G36*
X-5979160Y-3917950D02*
X-6893560Y-3917950D01*
X-6893560Y-3067050D01*
X-5979160Y-3067050D01*
X-5979160Y-3917950D01*
X-5979160Y-3917950D01*
G37*
G36*
X-9425940Y-3917950D02*
X-10340340Y-3917950D01*
X-10340340Y-3067050D01*
X-9425940Y-3067050D01*
X-9425940Y-3917950D01*
X-9425940Y-3917950D01*
G37*
G36*
X-8328660Y-3917950D02*
X-9243060Y-3917950D01*
X-9243060Y-3067050D01*
X-8328660Y-3067050D01*
X-8328660Y-3917950D01*
X-8328660Y-3917950D01*
G37*
G36*
X-7076440Y-3917950D02*
X-7990840Y-3917950D01*
X-7990840Y-3067050D01*
X-7076440Y-3067050D01*
X-7076440Y-3917950D01*
X-7076440Y-3917950D01*
G37*
G36*
X-4781550Y-3667760D02*
X-5632450Y-3667760D01*
X-5632450Y-2753360D01*
X-4781550Y-2753360D01*
X-4781550Y-3667760D01*
X-4781550Y-3667760D01*
G37*
G36*
X-16423640Y-2965450D02*
X-17338040Y-2965450D01*
X-17338040Y-2114550D01*
X-16423640Y-2114550D01*
X-16423640Y-2965450D01*
X-16423640Y-2965450D01*
G37*
G36*
X-15326360Y-2965450D02*
X-16240760Y-2965450D01*
X-16240760Y-2114550D01*
X-15326360Y-2114550D01*
X-15326360Y-2965450D01*
X-15326360Y-2965450D01*
G37*
G36*
X-13049250Y-2783840D02*
X-13900150Y-2783840D01*
X-13900150Y-1869440D01*
X-13049250Y-1869440D01*
X-13049250Y-2783840D01*
X-13049250Y-2783840D01*
G37*
G36*
X-7236032Y2820309D02*
X-7234812Y2807921D01*
X-7231198Y2796009D01*
X-7225330Y2785030D01*
X-7217433Y2775408D01*
X-7207811Y2767511D01*
X-7196832Y2761643D01*
X-7184920Y2758029D01*
X-7172532Y2756809D01*
X-6236542Y2756809D01*
X-6236542Y-1765951D01*
X-7172532Y-1765951D01*
X-7184920Y-1767171D01*
X-7196832Y-1770785D01*
X-7207811Y-1776653D01*
X-7217433Y-1784550D01*
X-7225330Y-1794172D01*
X-7231198Y-1805151D01*
X-7234812Y-1817063D01*
X-7236032Y-1829451D01*
X-7236032Y-2765441D01*
X-11758792Y-2765441D01*
X-11758792Y-1829451D01*
X-11760012Y-1817063D01*
X-11763626Y-1805151D01*
X-11769494Y-1794172D01*
X-11777391Y-1784550D01*
X-11787013Y-1776653D01*
X-11797992Y-1770785D01*
X-11809904Y-1767171D01*
X-11822292Y-1765951D01*
X-12758282Y-1765951D01*
X-12758282Y2723499D01*
X-11788982Y2723499D01*
X-11788982Y-1732641D01*
X-11787762Y-1745029D01*
X-11784148Y-1756941D01*
X-11778280Y-1767920D01*
X-11770383Y-1777542D01*
X-11760761Y-1785439D01*
X-11749782Y-1791307D01*
X-11737870Y-1794921D01*
X-11725482Y-1796141D01*
X-7269342Y-1796141D01*
X-7256954Y-1794921D01*
X-7245042Y-1791307D01*
X-7234063Y-1785439D01*
X-7224441Y-1777542D01*
X-7216544Y-1767920D01*
X-7210676Y-1756941D01*
X-7207062Y-1745029D01*
X-7205842Y-1732641D01*
X-7205842Y2723499D01*
X-7207062Y2735887D01*
X-7210676Y2747799D01*
X-7216544Y2758778D01*
X-7224441Y2768400D01*
X-7234063Y2776297D01*
X-7245042Y2782165D01*
X-7256954Y2785779D01*
X-7269342Y2786999D01*
X-11725482Y2786999D01*
X-11737870Y2785779D01*
X-11749782Y2782165D01*
X-11760761Y2776297D01*
X-11770383Y2768400D01*
X-11778280Y2758778D01*
X-11784148Y2747799D01*
X-11787762Y2735887D01*
X-11788982Y2723499D01*
X-12758282Y2723499D01*
X-12758282Y2756809D01*
X-11822292Y2756809D01*
X-11809904Y2758029D01*
X-11797992Y2761643D01*
X-11787013Y2767511D01*
X-11777391Y2775408D01*
X-11769494Y2785030D01*
X-11763626Y2796009D01*
X-11760012Y2807921D01*
X-11758792Y2820309D01*
X-11758792Y3756299D01*
X-7236032Y3756299D01*
X-7236032Y2820309D01*
X-7236032Y2820309D01*
G37*
G36*
X-9628812Y-1455971D02*
X-11448812Y-1455971D01*
X-11448812Y364029D01*
X-9628812Y364029D01*
X-9628812Y-1455971D01*
X-9628812Y-1455971D01*
G37*
G36*
X-7546012Y-1455971D02*
X-9366012Y-1455971D01*
X-9366012Y364029D01*
X-7546012Y364029D01*
X-7546012Y-1455971D01*
X-7546012Y-1455971D01*
G37*
G36*
X-7546012Y626829D02*
X-9366012Y626829D01*
X-9366012Y2446829D01*
X-7546012Y2446829D01*
X-7546012Y626829D01*
X-7546012Y626829D01*
G37*
G36*
X-9628812Y626829D02*
X-11448812Y626829D01*
X-11448812Y2446829D01*
X-9628812Y2446829D01*
X-9628812Y626829D01*
X-9628812Y626829D01*
G37*
G36*
X-3138663Y-2563474D02*
X-4484863Y-2563474D01*
X-4484863Y-1014074D01*
X-3138663Y-1014074D01*
X-3138663Y-2563474D01*
X-3138663Y-2563474D01*
G37*
G36*
X-1436863Y-2563474D02*
X-2783063Y-2563474D01*
X-2783063Y-1014074D01*
X-1436863Y-1014074D01*
X-1436863Y-2563474D01*
X-1436863Y-2563474D01*
G37*
G36*
X-13049250Y-1686560D02*
X-13900150Y-1686560D01*
X-13900150Y-772160D01*
X-13049250Y-772160D01*
X-13049250Y-1686560D01*
X-13049250Y-1686560D01*
G37*
G36*
X579553Y-329988D02*
X636968Y-347404D01*
X689877Y-375684D01*
X736254Y-413746D01*
X774316Y-460123D01*
X802596Y-513032D01*
X820012Y-570447D01*
X826200Y-633267D01*
X826200Y-1366733D01*
X820012Y-1429553D01*
X802596Y-1486968D01*
X774316Y-1539877D01*
X736254Y-1586254D01*
X689877Y-1624316D01*
X636968Y-1652596D01*
X579553Y-1670012D01*
X516733Y-1676200D01*
X-516733Y-1676200D01*
X-579553Y-1670012D01*
X-636968Y-1652596D01*
X-689877Y-1624316D01*
X-736254Y-1586254D01*
X-774316Y-1539877D01*
X-802596Y-1486968D01*
X-820012Y-1429553D01*
X-826200Y-1366733D01*
X-826200Y-633267D01*
X-820012Y-570447D01*
X-802596Y-513032D01*
X-774316Y-460123D01*
X-736254Y-413746D01*
X-689877Y-375684D01*
X-636968Y-347404D01*
X-579553Y-329988D01*
X-516733Y-323800D01*
X516733Y-323800D01*
X579553Y-329988D01*
X579553Y-329988D01*
G37*
G36*
X-16502900Y-1175500D02*
X-17355300Y-1175500D01*
X-17355300Y-323100D01*
X-16502900Y-323100D01*
X-16502900Y-1175500D01*
X-16502900Y-1175500D01*
G37*
G36*
X-2448560Y-704850D02*
X-3362960Y-704850D01*
X-3362960Y146050D01*
X-2448560Y146050D01*
X-2448560Y-704850D01*
X-2448560Y-704850D01*
G37*
G36*
X-3545840Y-704850D02*
X-4460240Y-704850D01*
X-4460240Y146050D01*
X-3545840Y146050D01*
X-3545840Y-704850D01*
X-3545840Y-704850D01*
G37*
G36*
X-16502900Y323100D02*
X-17355300Y323100D01*
X-17355300Y1175500D01*
X-16502900Y1175500D01*
X-16502900Y323100D01*
X-16502900Y323100D01*
G37*
G36*
X579553Y1670012D02*
X636968Y1652596D01*
X689877Y1624316D01*
X736254Y1586254D01*
X774316Y1539877D01*
X802596Y1486968D01*
X820012Y1429553D01*
X826200Y1366733D01*
X826200Y633267D01*
X820012Y570447D01*
X802596Y513032D01*
X774316Y460123D01*
X736254Y413746D01*
X689877Y375684D01*
X636968Y347404D01*
X579553Y329988D01*
X516733Y323800D01*
X-516733Y323800D01*
X-579553Y329988D01*
X-636968Y347404D01*
X-689877Y375684D01*
X-736254Y413746D01*
X-774316Y460123D01*
X-802596Y513032D01*
X-820012Y570447D01*
X-826200Y633267D01*
X-826200Y1366733D01*
X-820012Y1429553D01*
X-802596Y1486968D01*
X-774316Y1539877D01*
X-736254Y1586254D01*
X-689877Y1624316D01*
X-636968Y1652596D01*
X-579553Y1670012D01*
X-516733Y1676200D01*
X516733Y1676200D01*
X579553Y1670012D01*
X579553Y1670012D01*
G37*
G36*
X-4794250Y454660D02*
X-5645150Y454660D01*
X-5645150Y1369060D01*
X-4794250Y1369060D01*
X-4794250Y454660D01*
X-4794250Y454660D01*
G37*
G36*
X-14573250Y996950D02*
X-15048230Y996950D01*
X-15048230Y1573530D01*
X-14573250Y1573530D01*
X-14573250Y996950D01*
X-14573250Y996950D01*
G37*
G36*
X-13923010Y996950D02*
X-14397990Y996950D01*
X-14397990Y1573530D01*
X-13923010Y1573530D01*
X-13923010Y996950D01*
X-13923010Y996950D01*
G37*
G36*
X-13272770Y996950D02*
X-13747750Y996950D01*
X-13747750Y1573530D01*
X-13272770Y1573530D01*
X-13272770Y996950D01*
X-13272770Y996950D01*
G37*
G36*
X-3166200Y1012200D02*
X-4218600Y1012200D01*
X-4218600Y1964600D01*
X-3166200Y1964600D01*
X-3166200Y1012200D01*
X-3166200Y1012200D01*
G37*
G36*
X-4794250Y1551940D02*
X-5645150Y1551940D01*
X-5645150Y2466340D01*
X-4794250Y2466340D01*
X-4794250Y1551940D01*
X-4794250Y1551940D01*
G37*
G36*
X-1166200Y1962200D02*
X-2218600Y1962200D01*
X-2218600Y2914600D01*
X-1166200Y2914600D01*
X-1166200Y1962200D01*
X-1166200Y1962200D01*
G37*
G36*
X-4795520Y2794000D02*
X-5948680Y2794000D01*
X-5948680Y3845560D01*
X-4795520Y3845560D01*
X-4795520Y2794000D01*
X-4795520Y2794000D01*
G37*
G36*
X579553Y4170132D02*
X636968Y4152716D01*
X689877Y4124436D01*
X736254Y4086374D01*
X774316Y4039997D01*
X802596Y3987088D01*
X820012Y3929673D01*
X826200Y3866853D01*
X826200Y3133387D01*
X820012Y3070567D01*
X802596Y3013152D01*
X774316Y2960243D01*
X736254Y2913866D01*
X689877Y2875804D01*
X636968Y2847524D01*
X579553Y2830108D01*
X516733Y2823920D01*
X-516733Y2823920D01*
X-579553Y2830108D01*
X-636968Y2847524D01*
X-689877Y2875804D01*
X-736254Y2913866D01*
X-774316Y2960243D01*
X-802596Y3013152D01*
X-820012Y3070567D01*
X-826200Y3133387D01*
X-826200Y3866853D01*
X-820012Y3929673D01*
X-802596Y3987088D01*
X-774316Y4039997D01*
X-736254Y4086374D01*
X-689877Y4124436D01*
X-636968Y4152716D01*
X-579553Y4170132D01*
X-516733Y4176320D01*
X516733Y4176320D01*
X579553Y4170132D01*
X579553Y4170132D01*
G37*
G36*
X-13272770Y2896870D02*
X-13747750Y2896870D01*
X-13747750Y3473450D01*
X-13272770Y3473450D01*
X-13272770Y2896870D01*
X-13272770Y2896870D01*
G37*
G36*
X-13923010Y2896870D02*
X-14397990Y2896870D01*
X-14397990Y3473450D01*
X-13923010Y3473450D01*
X-13923010Y2896870D01*
X-13923010Y2896870D01*
G37*
G36*
X-14573250Y2896870D02*
X-15048230Y2896870D01*
X-15048230Y3473450D01*
X-14573250Y3473450D01*
X-14573250Y2896870D01*
X-14573250Y2896870D01*
G37*
G36*
X-3166200Y2912200D02*
X-4218600Y2912200D01*
X-4218600Y3864600D01*
X-3166200Y3864600D01*
X-3166200Y2912200D01*
X-3166200Y2912200D01*
G37*
G36*
X-10716260Y4044950D02*
X-11630660Y4044950D01*
X-11630660Y4895850D01*
X-10716260Y4895850D01*
X-10716260Y4044950D01*
X-10716260Y4044950D01*
G37*
G36*
X-11813540Y4044950D02*
X-12727940Y4044950D01*
X-12727940Y4895850D01*
X-11813540Y4895850D01*
X-11813540Y4044950D01*
X-11813540Y4044950D01*
G37*
G36*
X-1897380Y4185920D02*
X-2948940Y4185920D01*
X-2948940Y5339080D01*
X-1897380Y5339080D01*
X-1897380Y4185920D01*
X-1897380Y4185920D01*
G37*
G36*
X-3401060Y4185920D02*
X-4452620Y4185920D01*
X-4452620Y5339080D01*
X-3401060Y5339080D01*
X-3401060Y4185920D01*
X-3401060Y4185920D01*
G37*
G36*
X-8005649Y5336877D02*
X-7900787Y5293442D01*
X-7806414Y5230384D01*
X-7726156Y5150126D01*
X-7663098Y5055753D01*
X-7619663Y4950891D01*
X-7597520Y4839571D01*
X-7597520Y4726069D01*
X-7619663Y4614749D01*
X-7663098Y4509887D01*
X-7726156Y4415514D01*
X-7806414Y4335256D01*
X-7900787Y4272198D01*
X-8005649Y4228763D01*
X-8116969Y4206620D01*
X-8230471Y4206620D01*
X-8341791Y4228763D01*
X-8446653Y4272198D01*
X-8541026Y4335256D01*
X-8621284Y4415514D01*
X-8684342Y4509887D01*
X-8727777Y4614749D01*
X-8749920Y4726069D01*
X-8749920Y4839571D01*
X-8727777Y4950891D01*
X-8684342Y5055753D01*
X-8621284Y5150126D01*
X-8541026Y5230384D01*
X-8446653Y5293442D01*
X-8341791Y5336877D01*
X-8230471Y5359020D01*
X-8116969Y5359020D01*
X-8005649Y5336877D01*
X-8005649Y5336877D01*
G37*
G36*
X-4795520Y4297680D02*
X-5948680Y4297680D01*
X-5948680Y5349240D01*
X-4795520Y5349240D01*
X-4795520Y4297680D01*
X-4795520Y4297680D01*
G37*
G36*
X-16092220Y4916220D02*
X-17044620Y4916220D01*
X-17044620Y5868620D01*
X-16092220Y5868620D01*
X-16092220Y4916220D01*
X-16092220Y4916220D01*
G37*
M02*
