G04 #@! TF.GenerationSoftware,KiCad,Pcbnew,5.0.0-rc3+dfsg1-2*
G04 #@! TF.CreationDate,2018-08-08T10:48:40+09:00*
G04 #@! TF.ProjectId,fst-01,6673742D30312E6B696361645F706362,rev?*
G04 #@! TF.SameCoordinates,PX791ddc0PY5e69114*
G04 #@! TF.FileFunction,Legend,Top*
G04 #@! TF.FilePolarity,Positive*
%FSLAX46Y46*%
G04 Gerber Fmt 4.6, Leading zero omitted, Abs format (unit mm)*
G04 Created by KiCad (PCBNEW 5.0.0-rc3+dfsg1-2) date Wed Aug  8 10:48:40 2018*
%MOMM*%
%LPD*%
G01*
G04 APERTURE LIST*
%ADD10C,0.200660*%
%ADD11C,0.254000*%
%ADD12C,0.149860*%
%ADD13C,0.300000*%
%ADD14C,0.150000*%
%ADD15C,0.152400*%
%ADD16C,0.120000*%
G04 APERTURE END LIST*
D10*
X1105504Y-333586D02*
X1820333Y-333586D01*
X1963299Y-381241D01*
X2058609Y-476552D01*
X2106264Y-619518D01*
X2106264Y-714828D01*
X2106264Y667174D02*
X2106264Y95311D01*
X2106264Y381242D02*
X1105504Y381242D01*
X1248470Y285932D01*
X1343780Y190621D01*
X1391436Y95311D01*
D11*
G04 #@! TO.C,J1*
X0Y-4480000D02*
X0Y-5680000D01*
X0Y4480000D02*
X0Y5680000D01*
D12*
G04 #@! TO.C,R1*
X-17508220Y-3114040D02*
X-17508220Y-1965960D01*
X-17508220Y-1965960D02*
X-15156180Y-1965960D01*
X-15156180Y-1965960D02*
X-15156180Y-3114040D01*
X-15156180Y-3114040D02*
X-17508220Y-3114040D01*
G04 #@! TO.C,U3*
X-12903200Y1760220D02*
X-15417800Y1760220D01*
X-15417800Y2710180D02*
X-12903200Y2710180D01*
D13*
X-15329240Y1717040D02*
G75*
G03X-15329240Y1717040I-180000J0D01*
G01*
D12*
X-12900660Y2712720D02*
X-12900660Y1762760D01*
X-15417800Y2700020D02*
X-15417800Y1750060D01*
D13*
G04 #@! TO.C,U1*
X-6307412Y-2134571D02*
G75*
G03X-6307412Y-2134571I-180000J0D01*
G01*
D12*
X-7097112Y-2905631D02*
X-6096352Y-1904871D01*
X-6096352Y-1904871D02*
X-6096352Y3896489D01*
X-12898472Y-2905631D02*
X-12898472Y3896489D01*
X-12898472Y3896489D02*
X-6096352Y3896489D01*
X-7097112Y-2905631D02*
X-12898472Y-2905631D01*
G04 #@! TO.C,D1*
X-17553940Y1374140D02*
X-17553940Y-1374140D01*
X-16304260Y1374140D02*
X-17553940Y1374140D01*
X-16304260Y-1374140D02*
X-16304260Y1374140D01*
X-17553940Y-1374140D02*
X-16304260Y-1374140D01*
D14*
X-16929100Y-160000D02*
X-17529100Y540000D01*
X-16329100Y540000D02*
X-16929100Y-160000D01*
D15*
G04 #@! TO.C,K1*
X-11049000Y-4813300D02*
X-17399000Y-4813300D01*
X-11036300Y-3543300D02*
X-11036300Y-4813300D01*
X-17399000Y-3543300D02*
X-11049000Y-3543300D01*
X-17399000Y-4813300D02*
X-17399000Y-3543300D01*
D14*
X-16129000Y-3543300D02*
X-16129000Y-4813300D01*
D12*
G04 #@! TO.C,C9*
X-4574540Y5486400D02*
X-1750060Y5486400D01*
X-4574540Y4038600D02*
X-4574540Y5486400D01*
X-1750060Y4038600D02*
X-4574540Y4038600D01*
X-1750060Y5486400D02*
X-1750060Y4038600D01*
D16*
G04 #@! TO.C,U2*
X-1932400Y858400D02*
X-3392400Y858400D01*
X-1932400Y4018400D02*
X-4092400Y4018400D01*
X-1932400Y4018400D02*
X-1932400Y3088400D01*
X-1932400Y858400D02*
X-1932400Y1788400D01*
D12*
G04 #@! TO.C,X1*
X-1284463Y-4920594D02*
X-4637263Y-4920594D01*
X-1284463Y-856594D02*
X-1284463Y-4920594D01*
X-4637263Y-856594D02*
X-1284463Y-856594D01*
X-4637263Y-4920594D02*
X-4637263Y-856594D01*
G04 #@! TO.C,C2*
X-2278380Y294640D02*
X-2278380Y-853440D01*
X-4630420Y294640D02*
X-2278380Y294640D01*
X-4630420Y-853440D02*
X-4630420Y294640D01*
X-2278380Y-853440D02*
X-4630420Y-853440D01*
G04 #@! TO.C,C4*
X-5793740Y2636520D02*
X-4645660Y2636520D01*
X-5793740Y284480D02*
X-5793740Y2636520D01*
X-4645660Y284480D02*
X-5793740Y284480D01*
X-4645660Y2636520D02*
X-4645660Y284480D01*
G04 #@! TO.C,C5*
X-5808980Y-2918460D02*
X-5808980Y-4066540D01*
X-8161020Y-2918460D02*
X-5808980Y-2918460D01*
X-8161020Y-4066540D02*
X-8161020Y-2918460D01*
X-5808980Y-4066540D02*
X-8161020Y-4066540D01*
G04 #@! TO.C,C6*
X-12898120Y3896360D02*
X-12898120Y5044440D01*
X-10546080Y3896360D02*
X-12898120Y3896360D01*
X-10546080Y5044440D02*
X-10546080Y3896360D01*
X-12898120Y5044440D02*
X-10546080Y5044440D01*
G04 #@! TO.C,C7*
X-12900660Y-2954020D02*
X-14048740Y-2954020D01*
X-12900660Y-601980D02*
X-12900660Y-2954020D01*
X-14048740Y-601980D02*
X-12900660Y-601980D01*
X-14048740Y-2954020D02*
X-14048740Y-601980D01*
G04 #@! TO.C,C1*
X-4632960Y-4935220D02*
X-5781040Y-4935220D01*
X-4632960Y-2583180D02*
X-4632960Y-4935220D01*
X-5781040Y-2583180D02*
X-4632960Y-2583180D01*
X-5781040Y-4935220D02*
X-5781040Y-2583180D01*
G04 #@! TO.C,C3*
X-8158480Y-2918460D02*
X-8158480Y-4066540D01*
X-10510520Y-2918460D02*
X-8158480Y-2918460D01*
X-10510520Y-4066540D02*
X-10510520Y-2918460D01*
X-8158480Y-4066540D02*
X-10510520Y-4066540D01*
G04 #@! TO.C,C8*
X-4648200Y5471160D02*
X-4648200Y2646680D01*
X-6096000Y5471160D02*
X-4648200Y5471160D01*
X-6096000Y2646680D02*
X-6096000Y5471160D01*
X-4648200Y2646680D02*
X-6096000Y2646680D01*
G04 #@! TO.C,R1*
D15*
X-15579090Y-1764030D02*
X-15845790Y-1383030D01*
X-16036290Y-1764030D02*
X-16036290Y-963930D01*
X-15731490Y-963930D01*
X-15655290Y-1002030D01*
X-15617190Y-1040130D01*
X-15579090Y-1116330D01*
X-15579090Y-1230630D01*
X-15617190Y-1306830D01*
X-15655290Y-1344930D01*
X-15731490Y-1383030D01*
X-16036290Y-1383030D01*
X-14817090Y-1764030D02*
X-15274290Y-1764030D01*
X-15045690Y-1764030D02*
X-15045690Y-963930D01*
X-15121890Y-1078230D01*
X-15198090Y-1154430D01*
X-15274290Y-1192530D01*
G04 #@! TO.C,U3*
X-15974060Y552450D02*
X-15974060Y-95250D01*
X-15935960Y-171450D01*
X-15897860Y-209550D01*
X-15821660Y-247650D01*
X-15669260Y-247650D01*
X-15593060Y-209550D01*
X-15554960Y-171450D01*
X-15516860Y-95250D01*
X-15516860Y552450D01*
X-15212060Y552450D02*
X-14716760Y552450D01*
X-14983460Y247650D01*
X-14869160Y247650D01*
X-14792960Y209550D01*
X-14754860Y171450D01*
X-14716760Y95250D01*
X-14716760Y-95250D01*
X-14754860Y-171450D01*
X-14792960Y-209550D01*
X-14869160Y-247650D01*
X-15097760Y-247650D01*
X-15173960Y-209550D01*
X-15212060Y-171450D01*
G04 #@! TO.C,U1*
X-10302240Y4906010D02*
X-10302240Y4258310D01*
X-10264140Y4182110D01*
X-10226040Y4144010D01*
X-10149840Y4105910D01*
X-9997440Y4105910D01*
X-9921240Y4144010D01*
X-9883140Y4182110D01*
X-9845040Y4258310D01*
X-9845040Y4906010D01*
X-9044940Y4105910D02*
X-9502140Y4105910D01*
X-9273540Y4105910D02*
X-9273540Y4906010D01*
X-9349740Y4791710D01*
X-9425940Y4715510D01*
X-9502140Y4677410D01*
G04 #@! TO.C,D1*
X-17557750Y1695450D02*
X-17557750Y2495550D01*
X-17367250Y2495550D01*
X-17252950Y2457450D01*
X-17176750Y2381250D01*
X-17138650Y2305050D01*
X-17100550Y2152650D01*
X-17100550Y2038350D01*
X-17138650Y1885950D01*
X-17176750Y1809750D01*
X-17252950Y1733550D01*
X-17367250Y1695450D01*
X-17557750Y1695450D01*
X-16338550Y1695450D02*
X-16795750Y1695450D01*
X-16567150Y1695450D02*
X-16567150Y2495550D01*
X-16643350Y2381250D01*
X-16719550Y2305050D01*
X-16795750Y2266950D01*
G04 #@! TO.C,K1*
D12*
X-17346144Y-5668675D02*
X-17346144Y-5069235D01*
X-17003607Y-5668675D02*
X-17260510Y-5326138D01*
X-17003607Y-5069235D02*
X-17346144Y-5411772D01*
X-16432712Y-5668675D02*
X-16775249Y-5668675D01*
X-16603980Y-5668675D02*
X-16603980Y-5069235D01*
X-16661070Y-5154869D01*
X-16718160Y-5211959D01*
X-16775249Y-5240503D01*
G04 #@! TO.C,C9*
X-1141307Y4904015D02*
X-1169852Y4875470D01*
X-1255486Y4846925D01*
X-1312576Y4846925D01*
X-1398210Y4875470D01*
X-1455300Y4932560D01*
X-1483844Y4989649D01*
X-1512389Y5103828D01*
X-1512389Y5189462D01*
X-1483844Y5303641D01*
X-1455300Y5360731D01*
X-1398210Y5417820D01*
X-1312576Y5446365D01*
X-1255486Y5446365D01*
X-1169852Y5417820D01*
X-1141307Y5389276D01*
X-855860Y4846925D02*
X-741680Y4846925D01*
X-684591Y4875470D01*
X-656046Y4904015D01*
X-598957Y4989649D01*
X-570412Y5103828D01*
X-570412Y5332186D01*
X-598957Y5389276D01*
X-627501Y5417820D01*
X-684591Y5446365D01*
X-798770Y5446365D01*
X-855860Y5417820D01*
X-884404Y5389276D01*
X-912949Y5332186D01*
X-912949Y5189462D01*
X-884404Y5132373D01*
X-855860Y5103828D01*
X-798770Y5075283D01*
X-684591Y5075283D01*
X-627501Y5103828D01*
X-598957Y5132373D01*
X-570412Y5189462D01*
G04 #@! TO.C,U2*
D14*
X-2397684Y1703016D02*
X-2397684Y1055397D01*
X-2359589Y979206D01*
X-2321494Y941111D01*
X-2245303Y903016D01*
X-2092922Y903016D01*
X-2016732Y941111D01*
X-1978637Y979206D01*
X-1940541Y1055397D01*
X-1940541Y1703016D01*
X-1597684Y1626825D02*
X-1559589Y1664920D01*
X-1483399Y1703016D01*
X-1292922Y1703016D01*
X-1216732Y1664920D01*
X-1178637Y1626825D01*
X-1140541Y1550635D01*
X-1140541Y1474444D01*
X-1178637Y1360159D01*
X-1635780Y903016D01*
X-1140541Y903016D01*
G04 #@! TO.C,X1*
D15*
X-1811020Y-4913630D02*
X-1277620Y-5713730D01*
X-1277620Y-4913630D02*
X-1811020Y-5713730D01*
X-553720Y-5713730D02*
X-1010920Y-5713730D01*
X-782320Y-5713730D02*
X-782320Y-4913630D01*
X-858520Y-5027930D01*
X-934720Y-5104130D01*
X-1010920Y-5142230D01*
G04 #@! TO.C,C2*
D12*
X-5454227Y-1966685D02*
X-5482772Y-1995230D01*
X-5568406Y-2023775D01*
X-5625496Y-2023775D01*
X-5711130Y-1995230D01*
X-5768220Y-1938140D01*
X-5796764Y-1881051D01*
X-5825309Y-1766872D01*
X-5825309Y-1681238D01*
X-5796764Y-1567059D01*
X-5768220Y-1509969D01*
X-5711130Y-1452880D01*
X-5625496Y-1424335D01*
X-5568406Y-1424335D01*
X-5482772Y-1452880D01*
X-5454227Y-1481424D01*
X-5225869Y-1481424D02*
X-5197324Y-1452880D01*
X-5140235Y-1424335D01*
X-4997511Y-1424335D01*
X-4940421Y-1452880D01*
X-4911877Y-1481424D01*
X-4883332Y-1538514D01*
X-4883332Y-1595603D01*
X-4911877Y-1681238D01*
X-5254414Y-2023775D01*
X-4883332Y-2023775D01*
G04 #@! TO.C,C4*
X-6874087Y4218215D02*
X-6902632Y4189670D01*
X-6988266Y4161125D01*
X-7045356Y4161125D01*
X-7130990Y4189670D01*
X-7188080Y4246760D01*
X-7216624Y4303849D01*
X-7245169Y4418028D01*
X-7245169Y4503662D01*
X-7216624Y4617841D01*
X-7188080Y4674931D01*
X-7130990Y4732020D01*
X-7045356Y4760565D01*
X-6988266Y4760565D01*
X-6902632Y4732020D01*
X-6874087Y4703476D01*
X-6360281Y4560752D02*
X-6360281Y4161125D01*
X-6503005Y4789110D02*
X-6645729Y4360939D01*
X-6274647Y4360939D01*
G04 #@! TO.C,C5*
X-7084907Y-4786085D02*
X-7113452Y-4814630D01*
X-7199086Y-4843175D01*
X-7256176Y-4843175D01*
X-7341810Y-4814630D01*
X-7398900Y-4757540D01*
X-7427444Y-4700451D01*
X-7455989Y-4586272D01*
X-7455989Y-4500638D01*
X-7427444Y-4386459D01*
X-7398900Y-4329369D01*
X-7341810Y-4272280D01*
X-7256176Y-4243735D01*
X-7199086Y-4243735D01*
X-7113452Y-4272280D01*
X-7084907Y-4300824D01*
X-6542557Y-4243735D02*
X-6828004Y-4243735D01*
X-6856549Y-4529182D01*
X-6828004Y-4500638D01*
X-6770915Y-4472093D01*
X-6628191Y-4472093D01*
X-6571101Y-4500638D01*
X-6542557Y-4529182D01*
X-6514012Y-4586272D01*
X-6514012Y-4728996D01*
X-6542557Y-4786085D01*
X-6571101Y-4814630D01*
X-6628191Y-4843175D01*
X-6770915Y-4843175D01*
X-6828004Y-4814630D01*
X-6856549Y-4786085D01*
G04 #@! TO.C,C6*
X-13780347Y4937035D02*
X-13808892Y4908490D01*
X-13894526Y4879945D01*
X-13951616Y4879945D01*
X-14037250Y4908490D01*
X-14094340Y4965580D01*
X-14122884Y5022669D01*
X-14151429Y5136848D01*
X-14151429Y5222482D01*
X-14122884Y5336661D01*
X-14094340Y5393751D01*
X-14037250Y5450840D01*
X-13951616Y5479385D01*
X-13894526Y5479385D01*
X-13808892Y5450840D01*
X-13780347Y5422296D01*
X-13266541Y5479385D02*
X-13380720Y5479385D01*
X-13437810Y5450840D01*
X-13466355Y5422296D01*
X-13523444Y5336661D01*
X-13551989Y5222482D01*
X-13551989Y4994124D01*
X-13523444Y4937035D01*
X-13494900Y4908490D01*
X-13437810Y4879945D01*
X-13323631Y4879945D01*
X-13266541Y4908490D01*
X-13237997Y4937035D01*
X-13209452Y4994124D01*
X-13209452Y5136848D01*
X-13237997Y5193938D01*
X-13266541Y5222482D01*
X-13323631Y5251027D01*
X-13437810Y5251027D01*
X-13494900Y5222482D01*
X-13523444Y5193938D01*
X-13551989Y5136848D01*
G04 #@! TO.C,C7*
X-13701607Y-315685D02*
X-13730152Y-344230D01*
X-13815786Y-372775D01*
X-13872876Y-372775D01*
X-13958510Y-344230D01*
X-14015600Y-287140D01*
X-14044144Y-230051D01*
X-14072689Y-115872D01*
X-14072689Y-30238D01*
X-14044144Y83941D01*
X-14015600Y141031D01*
X-13958510Y198120D01*
X-13872876Y226665D01*
X-13815786Y226665D01*
X-13730152Y198120D01*
X-13701607Y169576D01*
X-13501794Y226665D02*
X-13102167Y226665D01*
X-13359070Y-372775D01*
G04 #@! TO.C,C1*
X-5355167Y-5642065D02*
X-5383712Y-5670610D01*
X-5469346Y-5699155D01*
X-5526436Y-5699155D01*
X-5612070Y-5670610D01*
X-5669160Y-5613520D01*
X-5697704Y-5556431D01*
X-5726249Y-5442252D01*
X-5726249Y-5356618D01*
X-5697704Y-5242439D01*
X-5669160Y-5185349D01*
X-5612070Y-5128260D01*
X-5526436Y-5099715D01*
X-5469346Y-5099715D01*
X-5383712Y-5128260D01*
X-5355167Y-5156804D01*
X-4784272Y-5699155D02*
X-5126809Y-5699155D01*
X-4955540Y-5699155D02*
X-4955540Y-5099715D01*
X-5012630Y-5185349D01*
X-5069720Y-5242439D01*
X-5126809Y-5270983D01*
G04 #@! TO.C,C3*
X-9434407Y-4786085D02*
X-9462952Y-4814630D01*
X-9548586Y-4843175D01*
X-9605676Y-4843175D01*
X-9691310Y-4814630D01*
X-9748400Y-4757540D01*
X-9776944Y-4700451D01*
X-9805489Y-4586272D01*
X-9805489Y-4500638D01*
X-9776944Y-4386459D01*
X-9748400Y-4329369D01*
X-9691310Y-4272280D01*
X-9605676Y-4243735D01*
X-9548586Y-4243735D01*
X-9462952Y-4272280D01*
X-9434407Y-4300824D01*
X-9234594Y-4243735D02*
X-8863512Y-4243735D01*
X-9063325Y-4472093D01*
X-8977691Y-4472093D01*
X-8920601Y-4500638D01*
X-8892057Y-4529182D01*
X-8863512Y-4586272D01*
X-8863512Y-4728996D01*
X-8892057Y-4786085D01*
X-8920601Y-4814630D01*
X-8977691Y-4843175D01*
X-9148960Y-4843175D01*
X-9206049Y-4814630D01*
X-9234594Y-4786085D01*
G04 #@! TO.C,C8*
X-6874087Y5099595D02*
X-6902632Y5071050D01*
X-6988266Y5042505D01*
X-7045356Y5042505D01*
X-7130990Y5071050D01*
X-7188080Y5128140D01*
X-7216624Y5185229D01*
X-7245169Y5299408D01*
X-7245169Y5385042D01*
X-7216624Y5499221D01*
X-7188080Y5556311D01*
X-7130990Y5613400D01*
X-7045356Y5641945D01*
X-6988266Y5641945D01*
X-6902632Y5613400D01*
X-6874087Y5584856D01*
X-6531550Y5385042D02*
X-6588640Y5413587D01*
X-6617184Y5442132D01*
X-6645729Y5499221D01*
X-6645729Y5527766D01*
X-6617184Y5584856D01*
X-6588640Y5613400D01*
X-6531550Y5641945D01*
X-6417371Y5641945D01*
X-6360281Y5613400D01*
X-6331737Y5584856D01*
X-6303192Y5527766D01*
X-6303192Y5499221D01*
X-6331737Y5442132D01*
X-6360281Y5413587D01*
X-6417371Y5385042D01*
X-6531550Y5385042D01*
X-6588640Y5356498D01*
X-6617184Y5327953D01*
X-6645729Y5270863D01*
X-6645729Y5156684D01*
X-6617184Y5099595D01*
X-6588640Y5071050D01*
X-6531550Y5042505D01*
X-6417371Y5042505D01*
X-6360281Y5071050D01*
X-6331737Y5099595D01*
X-6303192Y5156684D01*
X-6303192Y5270863D01*
X-6331737Y5327953D01*
X-6360281Y5356498D01*
X-6417371Y5385042D01*
G04 #@! TD*
M02*
