G04 #@! TF.GenerationSoftware,KiCad,Pcbnew,5.0.0-rc3+dfsg1-2*
G04 #@! TF.CreationDate,2018-08-10T14:47:19+09:00*
G04 #@! TF.ProjectId,fst-01,6673742D30312E6B696361645F706362,rev?*
G04 #@! TF.SameCoordinates,PX791ddc0PY5e69114*
G04 #@! TF.FileFunction,Drawing*
%FSLAX46Y46*%
G04 Gerber Fmt 4.6, Leading zero omitted, Abs format (unit mm)*
G04 Created by KiCad (PCBNEW 5.0.0-rc3+dfsg1-2) date Fri Aug 10 14:47:19 2018*
%MOMM*%
%LPD*%
G01*
G04 APERTURE LIST*
%ADD10C,0.100000*%
%ADD11C,0.070000*%
%ADD12C,0.150000*%
%ADD13C,0.050000*%
%ADD14C,0.127000*%
G04 APERTURE END LIST*
D10*
G04 #@! TO.C,D1*
X-17648780Y-1203920D02*
X-17250000Y-2004020D01*
X-16851220Y-1203920D02*
X-17250000Y-2004020D01*
D11*
X-16800420Y-2253500D02*
X-17050000Y-2501860D01*
D10*
X-17648780Y-2103080D02*
X-17648780Y-1203920D01*
X-16851220Y-2103080D02*
X-16851220Y-1203920D01*
D11*
X-16800420Y-805140D02*
X-16800420Y-1203920D01*
X-16800420Y-1203920D02*
X-17699580Y-1203920D01*
X-17699580Y-805140D02*
X-17699580Y-1203920D01*
X-16800420Y-805140D02*
X-17699580Y-805140D01*
X-16800420Y-2103080D02*
X-16800420Y-2501860D01*
X-16800420Y-2501860D02*
X-17699580Y-2501860D01*
X-17699580Y-2103080D02*
X-17699580Y-2501860D01*
X-16800420Y-2103080D02*
X-17699580Y-2103080D01*
D10*
X-16874080Y-2004020D02*
X-17625920Y-2004020D01*
D12*
G04 #@! TO.C,X1*
X-1450000Y-4603500D02*
X-950000Y-4103500D01*
X-3450000Y-4603500D02*
X-3450000Y-1403500D01*
X-3450000Y-1403500D02*
X-950000Y-1403500D01*
X-950000Y-1403500D02*
X-950000Y-4603500D01*
X-950000Y-4603500D02*
X-3450000Y-4603500D01*
D13*
X-2900000Y-3603500D02*
X-1600000Y-3603500D01*
X-2900000Y-2403500D02*
X-1600000Y-2403500D01*
X-1600000Y-2703500D02*
X-1600000Y-3303500D01*
X-1600000Y-3303500D02*
X-2900000Y-3303500D01*
X-2900000Y-3303500D02*
X-2900000Y-2703500D01*
X-2900000Y-2703500D02*
X-1600000Y-2703500D01*
X-1400000Y-4103500D02*
X-2200000Y-4103500D01*
X-2200000Y-4103500D02*
X-2200000Y-3603500D01*
X-2200000Y-2403500D02*
X-2200000Y-1803500D01*
X-2200000Y-1803500D02*
X-3100000Y-1803500D01*
D10*
G04 #@! TO.C,J1*
X2350000Y4480000D02*
X2350000Y-4480000D01*
X749300Y4480000D02*
X2350000Y4480000D01*
X750000Y-4480000D02*
X2350000Y-4480000D01*
X750000Y-4480000D02*
X750000Y-5680000D01*
X750000Y5680000D02*
X750000Y4480000D01*
X2800000Y5680000D02*
X2800000Y-5680000D01*
X12800000Y5680000D02*
X750000Y5680000D01*
X12800000Y-5680000D02*
X12800000Y5680000D01*
X750000Y-5680000D02*
X12800000Y-5680000D01*
X4200000Y-5680000D02*
X4200000Y5680000D01*
D12*
G04 #@! TO.C,U2*
X-2630400Y3938400D02*
X-2630400Y938400D01*
X-2630400Y3938400D02*
X-1230400Y3938400D01*
X-2630400Y3388400D02*
X-2080400Y3938400D01*
X-1230400Y3938400D02*
X-1230400Y938400D01*
X-2630400Y938400D02*
X-1230400Y938400D01*
G04 #@! TO.C,U1*
X-6700000Y-2503500D02*
X-5700000Y-1503500D01*
X-5700000Y-2503500D02*
X-11700000Y-2503500D01*
X-5700000Y3496500D02*
X-5700000Y-2503500D01*
X-11700000Y3496500D02*
X-5700000Y3496500D01*
X-11700000Y-2503500D02*
X-11700000Y3496500D01*
G04 #@! TO.C,U3*
X-15000000Y2861500D02*
X-13000000Y2861500D01*
X-15000000Y1611500D02*
X-13000000Y1611500D01*
X-15000000Y2861500D02*
X-15000000Y1611500D01*
X-13000000Y2861500D02*
X-13000000Y1611500D01*
X-15000000Y2136500D02*
X-14525000Y1611500D01*
G04 #@! TO.C,U4*
X-16700000Y1766500D02*
X-16700000Y366500D01*
X-17800000Y1766500D02*
X-17800000Y366500D01*
X-17800000Y366500D02*
X-16700000Y366500D01*
X-17800000Y1766500D02*
X-16700000Y1766500D01*
X-17800000Y1316500D02*
X-17350000Y1766500D01*
D14*
G04 #@! TO.C,R1*
X-15470600Y-2183700D02*
X-16029400Y-2183700D01*
X-15470600Y-1523300D02*
X-16029400Y-1523300D01*
X-15470600Y-1320100D02*
X-16029400Y-1320100D01*
X-16029400Y-1320100D02*
X-16029400Y-2386900D01*
X-16029400Y-2386900D02*
X-15470600Y-2386900D01*
X-15470600Y-2386900D02*
X-15470600Y-1320100D01*
G04 #@! TO.C,C9*
X-2912800Y4490100D02*
X-2912800Y5302900D01*
X-1287200Y4490100D02*
X-2912800Y4490100D01*
X-1287200Y5302900D02*
X-1287200Y4490100D01*
X-2912800Y5302900D02*
X-1287200Y5302900D01*
X-2658800Y5277500D02*
X-2658800Y4490100D01*
X-1541200Y4490100D02*
X-1541200Y5302900D01*
G04 #@! TO.C,C2*
X-3183400Y-582900D02*
X-2116600Y-582900D01*
X-3183400Y-24100D02*
X-3183400Y-582900D01*
X-2116600Y-24100D02*
X-3183400Y-24100D01*
X-2116600Y-582900D02*
X-2116600Y-24100D01*
X-2319800Y-582900D02*
X-2319800Y-24100D01*
X-2980200Y-582900D02*
X-2980200Y-24100D01*
G04 #@! TO.C,C1*
X-4120600Y927100D02*
X-4120600Y1993900D01*
X-4679400Y927100D02*
X-4120600Y927100D01*
X-4679400Y1993900D02*
X-4679400Y927100D01*
X-4120600Y1993900D02*
X-4679400Y1993900D01*
X-4120600Y1790700D02*
X-4679400Y1790700D01*
X-4120600Y1130300D02*
X-4679400Y1130300D01*
G04 #@! TO.C,C4*
X-6833400Y-4032900D02*
X-5766600Y-4032900D01*
X-6833400Y-3474100D02*
X-6833400Y-4032900D01*
X-5766600Y-3474100D02*
X-6833400Y-3474100D01*
X-5766600Y-4032900D02*
X-5766600Y-3474100D01*
X-5969800Y-4032900D02*
X-5969800Y-3474100D01*
X-6630200Y-4032900D02*
X-6630200Y-3474100D01*
G04 #@! TO.C,C7*
X-10466600Y5075900D02*
X-11533400Y5075900D01*
X-10466600Y4517100D02*
X-10466600Y5075900D01*
X-11533400Y4517100D02*
X-10466600Y4517100D01*
X-11533400Y5075900D02*
X-11533400Y4517100D01*
X-11330200Y5075900D02*
X-11330200Y4517100D01*
X-10669800Y5075900D02*
X-10669800Y4517100D01*
G04 #@! TO.C,C6*
X-13279400Y-1244600D02*
X-13279400Y-2311400D01*
X-12720600Y-1244600D02*
X-13279400Y-1244600D01*
X-12720600Y-2311400D02*
X-12720600Y-1244600D01*
X-13279400Y-2311400D02*
X-12720600Y-2311400D01*
X-13279400Y-2108200D02*
X-12720600Y-2108200D01*
X-13279400Y-1447800D02*
X-12720600Y-1447800D01*
G04 #@! TO.C,C3*
X-4829400Y-3270100D02*
X-4829400Y-4336900D01*
X-4270600Y-3270100D02*
X-4829400Y-3270100D01*
X-4270600Y-4336900D02*
X-4270600Y-3270100D01*
X-4829400Y-4336900D02*
X-4270600Y-4336900D01*
X-4829400Y-4133700D02*
X-4270600Y-4133700D01*
X-4829400Y-3473300D02*
X-4270600Y-3473300D01*
G04 #@! TO.C,C5*
X-9233400Y-4032900D02*
X-8166600Y-4032900D01*
X-9233400Y-3474100D02*
X-9233400Y-4032900D01*
X-8166600Y-3474100D02*
X-9233400Y-3474100D01*
X-8166600Y-4032900D02*
X-8166600Y-3474100D01*
X-8369800Y-4032900D02*
X-8369800Y-3474100D01*
X-9030200Y-4032900D02*
X-9030200Y-3474100D01*
G04 #@! TO.C,C8*
X-4656400Y4889300D02*
X-3843600Y4889300D01*
X-4656400Y3263700D02*
X-4656400Y4889300D01*
X-3843600Y3263700D02*
X-4656400Y3263700D01*
X-3843600Y4889300D02*
X-3843600Y3263700D01*
X-3869000Y4635300D02*
X-4656400Y4635300D01*
X-4656400Y3517700D02*
X-3843600Y3517700D01*
G04 #@! TD*
M02*
