G04 #@! TF.GenerationSoftware,KiCad,Pcbnew,(5.1.10-1-10_14)*
G04 #@! TF.CreationDate,2021-07-01T15:51:22+08:00*
G04 #@! TF.ProjectId,fst-01,6673742d-3031-42e6-9b69-6361645f7063,1.3*
G04 #@! TF.SameCoordinates,PX791ddc0PY5e69114*
G04 #@! TF.FileFunction,Soldermask,Top*
G04 #@! TF.FilePolarity,Negative*
%FSLAX45Y45*%
G04 Gerber Fmt 4.5, Leading zero omitted, Abs format (unit mm)*
G04 Created by KiCad (PCBNEW (5.1.10-1-10_14)) date 2021-07-01 15:51:22*
%MOMM*%
%LPD*%
G01*
G04 APERTURE LIST*
%ADD10R,0.800100X0.698500*%
%ADD11R,1.524000X1.524000*%
%ADD12C,1.524000*%
%ADD13R,0.500380X0.398780*%
%ADD14R,1.905000X1.905000*%
%ADD15R,0.749300X0.299720*%
%ADD16R,0.299720X0.749300*%
%ADD17R,0.749300X0.500380*%
%ADD18R,1.198880X0.548640*%
%ADD19R,0.797560X0.797560*%
%ADD20R,1.397000X1.193800*%
%ADD21R,0.698500X0.800100*%
%ADD22R,0.899160X1.000760*%
%ADD23O,3.500120X1.501140*%
%ADD24C,1.399540*%
%ADD25C,1.518920*%
%ADD26C,1.099820*%
G04 APERTURE END LIST*
D10*
G04 #@! TO.C,R3*
X-112535Y507875D03*
X-2807Y507875D03*
G04 #@! TD*
D11*
G04 #@! TO.C,K1*
X177953Y507811D03*
D12*
X431953Y507811D03*
X685953Y507811D03*
G04 #@! TD*
D10*
G04 #@! TO.C,R2*
X-456887Y145004D03*
X-566615Y145004D03*
G04 #@! TD*
D12*
G04 #@! TO.C,K3*
X-840220Y-1121D03*
X-1094220Y-1121D03*
G04 #@! TD*
D13*
G04 #@! TO.C,U3*
X555244Y146304D03*
X555244Y81280D03*
X555244Y16256D03*
X745236Y16256D03*
X745236Y81280D03*
X745236Y146304D03*
G04 #@! TD*
D14*
G04 #@! TO.C,U1*
X-93980Y-66040D03*
X114300Y-66040D03*
X114300Y142240D03*
D15*
X-267462Y238252D03*
X-267462Y188214D03*
X-267462Y138176D03*
X-267462Y88138D03*
X-267462Y38100D03*
X-267462Y-11938D03*
X-267462Y-61976D03*
X-267462Y-112014D03*
X-267462Y-162052D03*
D16*
X-189992Y-239522D03*
X-139954Y-239522D03*
X-89916Y-239522D03*
X-39878Y-239522D03*
X10160Y-239522D03*
X60198Y-239522D03*
X110236Y-239522D03*
X160274Y-239522D03*
X210312Y-239522D03*
D15*
X287782Y-162052D03*
X287782Y-112014D03*
X287782Y-61976D03*
X287782Y-11938D03*
X287782Y38100D03*
X287782Y88138D03*
X287782Y138176D03*
X287782Y188214D03*
X287782Y238252D03*
D16*
X210312Y315722D03*
X160274Y315722D03*
X110236Y315722D03*
X60198Y315722D03*
X10160Y315722D03*
X-39878Y315722D03*
X-89916Y315722D03*
X-139954Y315722D03*
X-189992Y315722D03*
D14*
X-93980Y142240D03*
G04 #@! TD*
D17*
G04 #@! TO.C,U4*
X-486918Y-317500D03*
X-486918Y-190500D03*
X-486918Y-444500D03*
X-1011682Y-190500D03*
X-1011682Y-317500D03*
X-1011682Y-444500D03*
X-1011682Y-571500D03*
X-486918Y-571500D03*
G04 #@! TD*
D18*
G04 #@! TO.C,U2*
X703834Y-412496D03*
X703834Y-317500D03*
X703834Y-222504D03*
X444246Y-222504D03*
X444040Y-412500D03*
G04 #@! TD*
D19*
G04 #@! TO.C,D1*
X77470Y-568960D03*
X227330Y-568960D03*
G04 #@! TD*
D20*
G04 #@! TO.C,X1*
X-732282Y372110D03*
X-732282Y542290D03*
X-512318Y542290D03*
X-512318Y372110D03*
G04 #@! TD*
D21*
G04 #@! TO.C,C11*
X-1143000Y-567944D03*
X-1143000Y-458216D03*
G04 #@! TD*
D10*
G04 #@! TO.C,C9*
X453136Y-116840D03*
X562864Y-116840D03*
G04 #@! TD*
D21*
G04 #@! TO.C,C2*
X-873760Y402336D03*
X-873760Y512064D03*
G04 #@! TD*
D10*
G04 #@! TO.C,C4*
X-567944Y0D03*
X-458216Y0D03*
G04 #@! TD*
G04 #@! TO.C,C5*
X-232485Y444890D03*
X-342213Y444890D03*
G04 #@! TD*
G04 #@! TO.C,C6*
X186436Y-355600D03*
X296164Y-355600D03*
G04 #@! TD*
D21*
G04 #@! TO.C,C7*
X408940Y209296D03*
X408940Y319024D03*
G04 #@! TD*
D10*
G04 #@! TO.C,C1*
X-342213Y575329D03*
X-232485Y575329D03*
G04 #@! TD*
G04 #@! TO.C,R1*
X-49276Y-574040D03*
X-159004Y-574040D03*
G04 #@! TD*
D22*
G04 #@! TO.C,C8*
X356616Y-558800D03*
X506984Y-558800D03*
G04 #@! TD*
G04 #@! TO.C,C10*
X786384Y-558800D03*
X636016Y-558800D03*
G04 #@! TD*
D23*
G04 #@! TO.C,J1*
X1099058Y569976D03*
X1099058Y-569976D03*
D24*
X889000Y-100076D03*
X889000Y100076D03*
D25*
X889000Y-350012D03*
X889000Y350012D03*
D26*
X1099058Y-225044D03*
X1099058Y225044D03*
G04 #@! TD*
D11*
G04 #@! TO.C,K2*
X-1092979Y254000D03*
X-1092979Y508000D03*
G04 #@! TD*
M02*
