G04 #@! TF.GenerationSoftware,KiCad,Pcbnew,5.0.0-rc3+dfsg1-2*
G04 #@! TF.CreationDate,2018-07-25T10:31:46+09:00*
G04 #@! TF.ProjectId,fst-01,6673742D30312E6B696361645F706362,rev?*
G04 #@! TF.SameCoordinates,Original*
G04 #@! TF.FileFunction,Legend,Top*
G04 #@! TF.FilePolarity,Positive*
%FSLAX46Y46*%
G04 Gerber Fmt 4.6, Leading zero omitted, Abs format (unit mm)*
G04 Created by KiCad (PCBNEW 5.0.0-rc3+dfsg1-2) date Wed Jul 25 10:31:46 2018*
%MOMM*%
%LPD*%
G01*
G04 APERTURE LIST*
%ADD10C,0.200660*%
%ADD11C,0.254000*%
%ADD12C,0.149860*%
%ADD13C,0.300000*%
%ADD14C,0.150000*%
%ADD15C,0.152400*%
%ADD16C,0.120000*%
G04 APERTURE END LIST*
D10*
X128105504Y-99330086D02*
X128820333Y-99330086D01*
X128963299Y-99377741D01*
X129058609Y-99473052D01*
X129106264Y-99616018D01*
X129106264Y-99711328D01*
X129106264Y-98329326D02*
X129106264Y-98901189D01*
X129106264Y-98615258D02*
X128105504Y-98615258D01*
X128248470Y-98710568D01*
X128343780Y-98805879D01*
X128391436Y-98901189D01*
D11*
G04 #@! TO.C,J1*
X127000000Y-103476500D02*
X127000000Y-104676500D01*
X127000000Y-94516500D02*
X127000000Y-93316500D01*
D12*
G04 #@! TO.C,R1*
X109491780Y-102110540D02*
X109491780Y-100962460D01*
X109491780Y-100962460D02*
X111843820Y-100962460D01*
X111843820Y-100962460D02*
X111843820Y-102110540D01*
X111843820Y-102110540D02*
X109491780Y-102110540D01*
G04 #@! TO.C,U3*
X114096800Y-97236280D02*
X111582200Y-97236280D01*
X111582200Y-96286320D02*
X114096800Y-96286320D01*
D13*
X111670760Y-97279460D02*
G75*
G03X111670760Y-97279460I-180000J0D01*
G01*
D12*
X114099340Y-96283780D02*
X114099340Y-97233740D01*
X111582200Y-96296480D02*
X111582200Y-97246440D01*
D13*
G04 #@! TO.C,U1*
X120692588Y-101131071D02*
G75*
G03X120692588Y-101131071I-180000J0D01*
G01*
D12*
X119902888Y-101902131D02*
X120903648Y-100901371D01*
X120903648Y-100901371D02*
X120903648Y-95100011D01*
X114101528Y-101902131D02*
X114101528Y-95100011D01*
X114101528Y-95100011D02*
X120903648Y-95100011D01*
X119902888Y-101902131D02*
X114101528Y-101902131D01*
G04 #@! TO.C,D1*
X109446060Y-97622360D02*
X109446060Y-100370640D01*
X110695740Y-97622360D02*
X109446060Y-97622360D01*
X110695740Y-100370640D02*
X110695740Y-97622360D01*
X109446060Y-100370640D02*
X110695740Y-100370640D01*
D14*
X110070900Y-99156500D02*
X109470900Y-98456500D01*
X110670900Y-98456500D02*
X110070900Y-99156500D01*
D15*
G04 #@! TO.C,K1*
X115951000Y-103809800D02*
X109601000Y-103809800D01*
X115963700Y-102539800D02*
X115963700Y-103809800D01*
X109601000Y-102539800D02*
X115951000Y-102539800D01*
X109601000Y-103809800D02*
X109601000Y-102539800D01*
D14*
X110871000Y-102539800D02*
X110871000Y-103809800D01*
D12*
G04 #@! TO.C,C9*
X122425460Y-93510100D02*
X125249940Y-93510100D01*
X122425460Y-94957900D02*
X122425460Y-93510100D01*
X125249940Y-94957900D02*
X122425460Y-94957900D01*
X125249940Y-93510100D02*
X125249940Y-94957900D01*
D16*
G04 #@! TO.C,U2*
X125067600Y-98138100D02*
X123607600Y-98138100D01*
X125067600Y-94978100D02*
X122907600Y-94978100D01*
X125067600Y-94978100D02*
X125067600Y-95908100D01*
X125067600Y-98138100D02*
X125067600Y-97208100D01*
D12*
G04 #@! TO.C,X1*
X125715537Y-103917094D02*
X122362737Y-103917094D01*
X125715537Y-99853094D02*
X125715537Y-103917094D01*
X122362737Y-99853094D02*
X125715537Y-99853094D01*
X122362737Y-103917094D02*
X122362737Y-99853094D01*
G04 #@! TO.C,C2*
X124721620Y-98701860D02*
X124721620Y-99849940D01*
X122369580Y-98701860D02*
X124721620Y-98701860D01*
X122369580Y-99849940D02*
X122369580Y-98701860D01*
X124721620Y-99849940D02*
X122369580Y-99849940D01*
G04 #@! TO.C,C4*
X121206260Y-96359980D02*
X122354340Y-96359980D01*
X121206260Y-98712020D02*
X121206260Y-96359980D01*
X122354340Y-98712020D02*
X121206260Y-98712020D01*
X122354340Y-96359980D02*
X122354340Y-98712020D01*
G04 #@! TO.C,C5*
X121191020Y-101914960D02*
X121191020Y-103063040D01*
X118838980Y-101914960D02*
X121191020Y-101914960D01*
X118838980Y-103063040D02*
X118838980Y-101914960D01*
X121191020Y-103063040D02*
X118838980Y-103063040D01*
G04 #@! TO.C,C6*
X114101880Y-95100140D02*
X114101880Y-93952060D01*
X116453920Y-95100140D02*
X114101880Y-95100140D01*
X116453920Y-93952060D02*
X116453920Y-95100140D01*
X114101880Y-93952060D02*
X116453920Y-93952060D01*
G04 #@! TO.C,C7*
X114099340Y-101950520D02*
X112951260Y-101950520D01*
X114099340Y-99598480D02*
X114099340Y-101950520D01*
X112951260Y-99598480D02*
X114099340Y-99598480D01*
X112951260Y-101950520D02*
X112951260Y-99598480D01*
G04 #@! TO.C,C1*
X122367040Y-103931720D02*
X121218960Y-103931720D01*
X122367040Y-101579680D02*
X122367040Y-103931720D01*
X121218960Y-101579680D02*
X122367040Y-101579680D01*
X121218960Y-103931720D02*
X121218960Y-101579680D01*
G04 #@! TO.C,C3*
X118841520Y-101914960D02*
X118841520Y-103063040D01*
X116489480Y-101914960D02*
X118841520Y-101914960D01*
X116489480Y-103063040D02*
X116489480Y-101914960D01*
X118841520Y-103063040D02*
X116489480Y-103063040D01*
G04 #@! TO.C,C8*
X122351800Y-93525340D02*
X122351800Y-96349820D01*
X120904000Y-93525340D02*
X122351800Y-93525340D01*
X120904000Y-96349820D02*
X120904000Y-93525340D01*
X122351800Y-96349820D02*
X120904000Y-96349820D01*
G04 #@! TO.C,R1*
D15*
X111420910Y-100760530D02*
X111154210Y-100379530D01*
X110963710Y-100760530D02*
X110963710Y-99960430D01*
X111268510Y-99960430D01*
X111344710Y-99998530D01*
X111382810Y-100036630D01*
X111420910Y-100112830D01*
X111420910Y-100227130D01*
X111382810Y-100303330D01*
X111344710Y-100341430D01*
X111268510Y-100379530D01*
X110963710Y-100379530D01*
X112182910Y-100760530D02*
X111725710Y-100760530D01*
X111954310Y-100760530D02*
X111954310Y-99960430D01*
X111878110Y-100074730D01*
X111801910Y-100150930D01*
X111725710Y-100189030D01*
G04 #@! TO.C,U3*
X111025940Y-98444050D02*
X111025940Y-99091750D01*
X111064040Y-99167950D01*
X111102140Y-99206050D01*
X111178340Y-99244150D01*
X111330740Y-99244150D01*
X111406940Y-99206050D01*
X111445040Y-99167950D01*
X111483140Y-99091750D01*
X111483140Y-98444050D01*
X111787940Y-98444050D02*
X112283240Y-98444050D01*
X112016540Y-98748850D01*
X112130840Y-98748850D01*
X112207040Y-98786950D01*
X112245140Y-98825050D01*
X112283240Y-98901250D01*
X112283240Y-99091750D01*
X112245140Y-99167950D01*
X112207040Y-99206050D01*
X112130840Y-99244150D01*
X111902240Y-99244150D01*
X111826040Y-99206050D01*
X111787940Y-99167950D01*
G04 #@! TO.C,U1*
X116697760Y-94090490D02*
X116697760Y-94738190D01*
X116735860Y-94814390D01*
X116773960Y-94852490D01*
X116850160Y-94890590D01*
X117002560Y-94890590D01*
X117078760Y-94852490D01*
X117116860Y-94814390D01*
X117154960Y-94738190D01*
X117154960Y-94090490D01*
X117955060Y-94890590D02*
X117497860Y-94890590D01*
X117726460Y-94890590D02*
X117726460Y-94090490D01*
X117650260Y-94204790D01*
X117574060Y-94280990D01*
X117497860Y-94319090D01*
G04 #@! TO.C,D1*
X109442250Y-97301050D02*
X109442250Y-96500950D01*
X109632750Y-96500950D01*
X109747050Y-96539050D01*
X109823250Y-96615250D01*
X109861350Y-96691450D01*
X109899450Y-96843850D01*
X109899450Y-96958150D01*
X109861350Y-97110550D01*
X109823250Y-97186750D01*
X109747050Y-97262950D01*
X109632750Y-97301050D01*
X109442250Y-97301050D01*
X110661450Y-97301050D02*
X110204250Y-97301050D01*
X110432850Y-97301050D02*
X110432850Y-96500950D01*
X110356650Y-96615250D01*
X110280450Y-96691450D01*
X110204250Y-96729550D01*
G04 #@! TO.C,K1*
D12*
X109653856Y-104665175D02*
X109653856Y-104065735D01*
X109996393Y-104665175D02*
X109739490Y-104322638D01*
X109996393Y-104065735D02*
X109653856Y-104408272D01*
X110567288Y-104665175D02*
X110224751Y-104665175D01*
X110396020Y-104665175D02*
X110396020Y-104065735D01*
X110338930Y-104151369D01*
X110281840Y-104208459D01*
X110224751Y-104237003D01*
G04 #@! TO.C,C9*
X125858693Y-94092485D02*
X125830148Y-94121030D01*
X125744514Y-94149575D01*
X125687424Y-94149575D01*
X125601790Y-94121030D01*
X125544700Y-94063940D01*
X125516156Y-94006851D01*
X125487611Y-93892672D01*
X125487611Y-93807038D01*
X125516156Y-93692859D01*
X125544700Y-93635769D01*
X125601790Y-93578680D01*
X125687424Y-93550135D01*
X125744514Y-93550135D01*
X125830148Y-93578680D01*
X125858693Y-93607224D01*
X126144140Y-94149575D02*
X126258320Y-94149575D01*
X126315409Y-94121030D01*
X126343954Y-94092485D01*
X126401043Y-94006851D01*
X126429588Y-93892672D01*
X126429588Y-93664314D01*
X126401043Y-93607224D01*
X126372499Y-93578680D01*
X126315409Y-93550135D01*
X126201230Y-93550135D01*
X126144140Y-93578680D01*
X126115596Y-93607224D01*
X126087051Y-93664314D01*
X126087051Y-93807038D01*
X126115596Y-93864127D01*
X126144140Y-93892672D01*
X126201230Y-93921217D01*
X126315409Y-93921217D01*
X126372499Y-93892672D01*
X126401043Y-93864127D01*
X126429588Y-93807038D01*
G04 #@! TO.C,U2*
D14*
X124602316Y-97293484D02*
X124602316Y-97941103D01*
X124640411Y-98017294D01*
X124678506Y-98055389D01*
X124754697Y-98093484D01*
X124907078Y-98093484D01*
X124983268Y-98055389D01*
X125021363Y-98017294D01*
X125059459Y-97941103D01*
X125059459Y-97293484D01*
X125402316Y-97369675D02*
X125440411Y-97331580D01*
X125516601Y-97293484D01*
X125707078Y-97293484D01*
X125783268Y-97331580D01*
X125821363Y-97369675D01*
X125859459Y-97445865D01*
X125859459Y-97522056D01*
X125821363Y-97636341D01*
X125364220Y-98093484D01*
X125859459Y-98093484D01*
G04 #@! TO.C,X1*
D15*
X125188980Y-103910130D02*
X125722380Y-104710230D01*
X125722380Y-103910130D02*
X125188980Y-104710230D01*
X126446280Y-104710230D02*
X125989080Y-104710230D01*
X126217680Y-104710230D02*
X126217680Y-103910130D01*
X126141480Y-104024430D01*
X126065280Y-104100630D01*
X125989080Y-104138730D01*
G04 #@! TO.C,C2*
D12*
X121545773Y-100963185D02*
X121517228Y-100991730D01*
X121431594Y-101020275D01*
X121374504Y-101020275D01*
X121288870Y-100991730D01*
X121231780Y-100934640D01*
X121203236Y-100877551D01*
X121174691Y-100763372D01*
X121174691Y-100677738D01*
X121203236Y-100563559D01*
X121231780Y-100506469D01*
X121288870Y-100449380D01*
X121374504Y-100420835D01*
X121431594Y-100420835D01*
X121517228Y-100449380D01*
X121545773Y-100477924D01*
X121774131Y-100477924D02*
X121802676Y-100449380D01*
X121859765Y-100420835D01*
X122002489Y-100420835D01*
X122059579Y-100449380D01*
X122088123Y-100477924D01*
X122116668Y-100535014D01*
X122116668Y-100592103D01*
X122088123Y-100677738D01*
X121745586Y-101020275D01*
X122116668Y-101020275D01*
G04 #@! TO.C,C4*
X120125913Y-94778285D02*
X120097368Y-94806830D01*
X120011734Y-94835375D01*
X119954644Y-94835375D01*
X119869010Y-94806830D01*
X119811920Y-94749740D01*
X119783376Y-94692651D01*
X119754831Y-94578472D01*
X119754831Y-94492838D01*
X119783376Y-94378659D01*
X119811920Y-94321569D01*
X119869010Y-94264480D01*
X119954644Y-94235935D01*
X120011734Y-94235935D01*
X120097368Y-94264480D01*
X120125913Y-94293024D01*
X120639719Y-94435748D02*
X120639719Y-94835375D01*
X120496995Y-94207390D02*
X120354271Y-94635561D01*
X120725353Y-94635561D01*
G04 #@! TO.C,C5*
X119915093Y-103782585D02*
X119886548Y-103811130D01*
X119800914Y-103839675D01*
X119743824Y-103839675D01*
X119658190Y-103811130D01*
X119601100Y-103754040D01*
X119572556Y-103696951D01*
X119544011Y-103582772D01*
X119544011Y-103497138D01*
X119572556Y-103382959D01*
X119601100Y-103325869D01*
X119658190Y-103268780D01*
X119743824Y-103240235D01*
X119800914Y-103240235D01*
X119886548Y-103268780D01*
X119915093Y-103297324D01*
X120457443Y-103240235D02*
X120171996Y-103240235D01*
X120143451Y-103525682D01*
X120171996Y-103497138D01*
X120229085Y-103468593D01*
X120371809Y-103468593D01*
X120428899Y-103497138D01*
X120457443Y-103525682D01*
X120485988Y-103582772D01*
X120485988Y-103725496D01*
X120457443Y-103782585D01*
X120428899Y-103811130D01*
X120371809Y-103839675D01*
X120229085Y-103839675D01*
X120171996Y-103811130D01*
X120143451Y-103782585D01*
G04 #@! TO.C,C6*
X113219653Y-94059465D02*
X113191108Y-94088010D01*
X113105474Y-94116555D01*
X113048384Y-94116555D01*
X112962750Y-94088010D01*
X112905660Y-94030920D01*
X112877116Y-93973831D01*
X112848571Y-93859652D01*
X112848571Y-93774018D01*
X112877116Y-93659839D01*
X112905660Y-93602749D01*
X112962750Y-93545660D01*
X113048384Y-93517115D01*
X113105474Y-93517115D01*
X113191108Y-93545660D01*
X113219653Y-93574204D01*
X113733459Y-93517115D02*
X113619280Y-93517115D01*
X113562190Y-93545660D01*
X113533645Y-93574204D01*
X113476556Y-93659839D01*
X113448011Y-93774018D01*
X113448011Y-94002376D01*
X113476556Y-94059465D01*
X113505100Y-94088010D01*
X113562190Y-94116555D01*
X113676369Y-94116555D01*
X113733459Y-94088010D01*
X113762003Y-94059465D01*
X113790548Y-94002376D01*
X113790548Y-93859652D01*
X113762003Y-93802562D01*
X113733459Y-93774018D01*
X113676369Y-93745473D01*
X113562190Y-93745473D01*
X113505100Y-93774018D01*
X113476556Y-93802562D01*
X113448011Y-93859652D01*
G04 #@! TO.C,C7*
X113298393Y-99312185D02*
X113269848Y-99340730D01*
X113184214Y-99369275D01*
X113127124Y-99369275D01*
X113041490Y-99340730D01*
X112984400Y-99283640D01*
X112955856Y-99226551D01*
X112927311Y-99112372D01*
X112927311Y-99026738D01*
X112955856Y-98912559D01*
X112984400Y-98855469D01*
X113041490Y-98798380D01*
X113127124Y-98769835D01*
X113184214Y-98769835D01*
X113269848Y-98798380D01*
X113298393Y-98826924D01*
X113498206Y-98769835D02*
X113897833Y-98769835D01*
X113640930Y-99369275D01*
G04 #@! TO.C,C1*
X121644833Y-104638565D02*
X121616288Y-104667110D01*
X121530654Y-104695655D01*
X121473564Y-104695655D01*
X121387930Y-104667110D01*
X121330840Y-104610020D01*
X121302296Y-104552931D01*
X121273751Y-104438752D01*
X121273751Y-104353118D01*
X121302296Y-104238939D01*
X121330840Y-104181849D01*
X121387930Y-104124760D01*
X121473564Y-104096215D01*
X121530654Y-104096215D01*
X121616288Y-104124760D01*
X121644833Y-104153304D01*
X122215728Y-104695655D02*
X121873191Y-104695655D01*
X122044460Y-104695655D02*
X122044460Y-104096215D01*
X121987370Y-104181849D01*
X121930280Y-104238939D01*
X121873191Y-104267483D01*
G04 #@! TO.C,C3*
X117565593Y-103782585D02*
X117537048Y-103811130D01*
X117451414Y-103839675D01*
X117394324Y-103839675D01*
X117308690Y-103811130D01*
X117251600Y-103754040D01*
X117223056Y-103696951D01*
X117194511Y-103582772D01*
X117194511Y-103497138D01*
X117223056Y-103382959D01*
X117251600Y-103325869D01*
X117308690Y-103268780D01*
X117394324Y-103240235D01*
X117451414Y-103240235D01*
X117537048Y-103268780D01*
X117565593Y-103297324D01*
X117765406Y-103240235D02*
X118136488Y-103240235D01*
X117936675Y-103468593D01*
X118022309Y-103468593D01*
X118079399Y-103497138D01*
X118107943Y-103525682D01*
X118136488Y-103582772D01*
X118136488Y-103725496D01*
X118107943Y-103782585D01*
X118079399Y-103811130D01*
X118022309Y-103839675D01*
X117851040Y-103839675D01*
X117793951Y-103811130D01*
X117765406Y-103782585D01*
G04 #@! TO.C,C8*
X120125913Y-93896905D02*
X120097368Y-93925450D01*
X120011734Y-93953995D01*
X119954644Y-93953995D01*
X119869010Y-93925450D01*
X119811920Y-93868360D01*
X119783376Y-93811271D01*
X119754831Y-93697092D01*
X119754831Y-93611458D01*
X119783376Y-93497279D01*
X119811920Y-93440189D01*
X119869010Y-93383100D01*
X119954644Y-93354555D01*
X120011734Y-93354555D01*
X120097368Y-93383100D01*
X120125913Y-93411644D01*
X120468450Y-93611458D02*
X120411360Y-93582913D01*
X120382816Y-93554368D01*
X120354271Y-93497279D01*
X120354271Y-93468734D01*
X120382816Y-93411644D01*
X120411360Y-93383100D01*
X120468450Y-93354555D01*
X120582629Y-93354555D01*
X120639719Y-93383100D01*
X120668263Y-93411644D01*
X120696808Y-93468734D01*
X120696808Y-93497279D01*
X120668263Y-93554368D01*
X120639719Y-93582913D01*
X120582629Y-93611458D01*
X120468450Y-93611458D01*
X120411360Y-93640002D01*
X120382816Y-93668547D01*
X120354271Y-93725637D01*
X120354271Y-93839816D01*
X120382816Y-93896905D01*
X120411360Y-93925450D01*
X120468450Y-93953995D01*
X120582629Y-93953995D01*
X120639719Y-93925450D01*
X120668263Y-93896905D01*
X120696808Y-93839816D01*
X120696808Y-93725637D01*
X120668263Y-93668547D01*
X120639719Y-93640002D01*
X120582629Y-93611458D01*
G04 #@! TD*
M02*
