G04 #@! TF.GenerationSoftware,KiCad,Pcbnew,5.0.0-rc3+dfsg1-2*
G04 #@! TF.CreationDate,2018-07-25T10:31:46+09:00*
G04 #@! TF.ProjectId,fst-01,6673742D30312E6B696361645F706362,rev?*
G04 #@! TF.SameCoordinates,Original*
G04 #@! TF.FileFunction,Legend,Bot*
G04 #@! TF.FilePolarity,Positive*
%FSLAX46Y46*%
G04 Gerber Fmt 4.6, Leading zero omitted, Abs format (unit mm)*
G04 Created by KiCad (PCBNEW 5.0.0-rc3+dfsg1-2) date Wed Jul 25 10:31:46 2018*
%MOMM*%
%LPD*%
G01*
G04 APERTURE LIST*
%ADD10C,0.304800*%
%ADD11C,0.762000*%
%ADD12C,0.457200*%
%ADD13C,0.152400*%
G04 APERTURE END LIST*
D10*
X127723537Y-102082237D02*
X128231537Y-102082237D01*
X128231537Y-103146618D02*
X128231537Y-101114618D01*
X127505822Y-101114618D01*
X126997822Y-103049856D02*
X126780108Y-103146618D01*
X126417251Y-103146618D01*
X126272108Y-103049856D01*
X126199537Y-102953094D01*
X126126965Y-102759570D01*
X126126965Y-102566046D01*
X126199537Y-102372522D01*
X126272108Y-102275760D01*
X126417251Y-102178999D01*
X126707537Y-102082237D01*
X126852680Y-101985475D01*
X126925251Y-101888713D01*
X126997822Y-101695189D01*
X126997822Y-101501665D01*
X126925251Y-101308141D01*
X126852680Y-101211380D01*
X126707537Y-101114618D01*
X126344680Y-101114618D01*
X126126965Y-101211380D01*
X125691537Y-101114618D02*
X124820680Y-101114618D01*
X125256108Y-103146618D02*
X125256108Y-101114618D01*
X124312680Y-102372522D02*
X123151537Y-102372522D01*
X122135537Y-101114618D02*
X121990394Y-101114618D01*
X121845251Y-101211380D01*
X121772680Y-101308141D01*
X121700108Y-101501665D01*
X121627537Y-101888713D01*
X121627537Y-102372522D01*
X121700108Y-102759570D01*
X121772680Y-102953094D01*
X121845251Y-103049856D01*
X121990394Y-103146618D01*
X122135537Y-103146618D01*
X122280680Y-103049856D01*
X122353251Y-102953094D01*
X122425822Y-102759570D01*
X122498394Y-102372522D01*
X122498394Y-101888713D01*
X122425822Y-101501665D01*
X122353251Y-101308141D01*
X122280680Y-101211380D01*
X122135537Y-101114618D01*
X120176108Y-103146618D02*
X121046965Y-103146618D01*
X120611537Y-103146618D02*
X120611537Y-101114618D01*
X120756680Y-101404903D01*
X120901822Y-101598427D01*
X121046965Y-101695189D01*
X119595537Y-103049856D02*
X119377822Y-103146618D01*
X119014965Y-103146618D01*
X118869822Y-103049856D01*
X118797251Y-102953094D01*
X118724680Y-102759570D01*
X118724680Y-102566046D01*
X118797251Y-102372522D01*
X118869822Y-102275760D01*
X119014965Y-102178999D01*
X119305251Y-102082237D01*
X119450394Y-101985475D01*
X119522965Y-101888713D01*
X119595537Y-101695189D01*
X119595537Y-101501665D01*
X119522965Y-101308141D01*
X119450394Y-101211380D01*
X119305251Y-101114618D01*
X118942394Y-101114618D01*
X118724680Y-101211380D01*
X118216680Y-101114618D02*
X117200680Y-101114618D01*
X118216680Y-103146618D01*
X117200680Y-103146618D01*
D11*
G04 #@! TO.C,FST-LOGO*
X118087140Y-97297240D02*
X118849140Y-98059240D01*
X116309140Y-98948240D02*
X117071140Y-99710240D01*
X118849140Y-99710240D02*
X118849140Y-97297240D01*
X116309140Y-99710240D02*
X118849140Y-99710240D01*
X116309140Y-97297240D02*
X116309140Y-99710240D01*
X118849140Y-97297240D02*
X116309140Y-97297240D01*
D12*
X115420140Y-99202240D02*
X114404140Y-99202240D01*
X114912140Y-97424240D02*
X112626140Y-97424240D01*
X115166140Y-98313240D02*
X113388140Y-98313240D01*
D13*
X113787282Y-99038954D02*
X113351854Y-99038954D01*
X113569568Y-99800954D02*
X113569568Y-99038954D01*
X113097854Y-99800954D02*
X113097854Y-99038954D01*
X112843854Y-99583240D01*
X112589854Y-99038954D01*
X112589854Y-99800954D01*
G04 #@! TD*
M02*
