G04 #@! TF.GenerationSoftware,KiCad,Pcbnew,5.0.0-rc3+dfsg1-2*
G04 #@! TF.CreationDate,2018-07-25T10:31:46+09:00*
G04 #@! TF.ProjectId,fst-01,6673742D30312E6B696361645F706362,rev?*
G04 #@! TF.SameCoordinates,Original*
G04 #@! TF.FileFunction,Paste,Top*
G04 #@! TF.FilePolarity,Positive*
%FSLAX46Y46*%
G04 Gerber Fmt 4.6, Leading zero omitted, Abs format (unit mm)*
G04 Created by KiCad (PCBNEW 5.0.0-rc3+dfsg1-2) date Wed Jul 25 10:31:46 2018*
%MOMM*%
%LPD*%
G01*
G04 APERTURE LIST*
%ADD10R,0.800000X0.800000*%
%ADD11C,0.150000*%
%ADD12C,1.200000*%
%ADD13R,0.762000X0.698500*%
%ADD14R,0.398780X0.500380*%
%ADD15R,0.870360X0.870360*%
%ADD16R,0.749300X0.299720*%
%ADD17R,0.299720X0.749300*%
%ADD18R,0.700000X0.700000*%
%ADD19C,0.800000*%
%ADD20R,0.899160X1.000760*%
%ADD21R,0.900000X0.800000*%
%ADD22R,1.193800X1.397000*%
%ADD23R,0.698500X0.762000*%
%ADD24R,1.000760X0.899160*%
%ADD25C,1.000000*%
G04 APERTURE END LIST*
D10*
G04 #@! TO.C,REF\002A\002A*
X110431580Y-93604080D03*
G04 #@! TD*
D11*
G04 #@! TO.C,J1*
G36*
X127479405Y-94897825D02*
X127508527Y-94902144D01*
X127537085Y-94909298D01*
X127564805Y-94919216D01*
X127591419Y-94931804D01*
X127616671Y-94946939D01*
X127640318Y-94964477D01*
X127662132Y-94984248D01*
X127681903Y-95006062D01*
X127699441Y-95029709D01*
X127714576Y-95054961D01*
X127727164Y-95081575D01*
X127737082Y-95109295D01*
X127744236Y-95137853D01*
X127748555Y-95166975D01*
X127750000Y-95196380D01*
X127750000Y-95796380D01*
X127748555Y-95825785D01*
X127744236Y-95854907D01*
X127737082Y-95883465D01*
X127727164Y-95911185D01*
X127714576Y-95937799D01*
X127699441Y-95963051D01*
X127681903Y-95986698D01*
X127662132Y-96008512D01*
X127640318Y-96028283D01*
X127616671Y-96045821D01*
X127591419Y-96060956D01*
X127564805Y-96073544D01*
X127537085Y-96083462D01*
X127508527Y-96090616D01*
X127479405Y-96094935D01*
X127450000Y-96096380D01*
X126550000Y-96096380D01*
X126520595Y-96094935D01*
X126491473Y-96090616D01*
X126462915Y-96083462D01*
X126435195Y-96073544D01*
X126408581Y-96060956D01*
X126383329Y-96045821D01*
X126359682Y-96028283D01*
X126337868Y-96008512D01*
X126318097Y-95986698D01*
X126300559Y-95963051D01*
X126285424Y-95937799D01*
X126272836Y-95911185D01*
X126262918Y-95883465D01*
X126255764Y-95854907D01*
X126251445Y-95825785D01*
X126250000Y-95796380D01*
X126250000Y-95196380D01*
X126251445Y-95166975D01*
X126255764Y-95137853D01*
X126262918Y-95109295D01*
X126272836Y-95081575D01*
X126285424Y-95054961D01*
X126300559Y-95029709D01*
X126318097Y-95006062D01*
X126337868Y-94984248D01*
X126359682Y-94964477D01*
X126383329Y-94946939D01*
X126408581Y-94931804D01*
X126435195Y-94919216D01*
X126462915Y-94909298D01*
X126491473Y-94902144D01*
X126520595Y-94897825D01*
X126550000Y-94896380D01*
X127450000Y-94896380D01*
X127479405Y-94897825D01*
X127479405Y-94897825D01*
G37*
D12*
X127000000Y-95496380D03*
D11*
G36*
X127479405Y-101897945D02*
X127508527Y-101902264D01*
X127537085Y-101909418D01*
X127564805Y-101919336D01*
X127591419Y-101931924D01*
X127616671Y-101947059D01*
X127640318Y-101964597D01*
X127662132Y-101984368D01*
X127681903Y-102006182D01*
X127699441Y-102029829D01*
X127714576Y-102055081D01*
X127727164Y-102081695D01*
X127737082Y-102109415D01*
X127744236Y-102137973D01*
X127748555Y-102167095D01*
X127750000Y-102196500D01*
X127750000Y-102796500D01*
X127748555Y-102825905D01*
X127744236Y-102855027D01*
X127737082Y-102883585D01*
X127727164Y-102911305D01*
X127714576Y-102937919D01*
X127699441Y-102963171D01*
X127681903Y-102986818D01*
X127662132Y-103008632D01*
X127640318Y-103028403D01*
X127616671Y-103045941D01*
X127591419Y-103061076D01*
X127564805Y-103073664D01*
X127537085Y-103083582D01*
X127508527Y-103090736D01*
X127479405Y-103095055D01*
X127450000Y-103096500D01*
X126550000Y-103096500D01*
X126520595Y-103095055D01*
X126491473Y-103090736D01*
X126462915Y-103083582D01*
X126435195Y-103073664D01*
X126408581Y-103061076D01*
X126383329Y-103045941D01*
X126359682Y-103028403D01*
X126337868Y-103008632D01*
X126318097Y-102986818D01*
X126300559Y-102963171D01*
X126285424Y-102937919D01*
X126272836Y-102911305D01*
X126262918Y-102883585D01*
X126255764Y-102855027D01*
X126251445Y-102825905D01*
X126250000Y-102796500D01*
X126250000Y-102196500D01*
X126251445Y-102167095D01*
X126255764Y-102137973D01*
X126262918Y-102109415D01*
X126272836Y-102081695D01*
X126285424Y-102055081D01*
X126300559Y-102029829D01*
X126318097Y-102006182D01*
X126337868Y-101984368D01*
X126359682Y-101964597D01*
X126383329Y-101947059D01*
X126408581Y-101931924D01*
X126435195Y-101919336D01*
X126462915Y-101909418D01*
X126491473Y-101902264D01*
X126520595Y-101897945D01*
X126550000Y-101896500D01*
X127450000Y-101896500D01*
X127479405Y-101897945D01*
X127479405Y-101897945D01*
G37*
D12*
X127000000Y-102496500D03*
D11*
G36*
X127479405Y-97397945D02*
X127508527Y-97402264D01*
X127537085Y-97409418D01*
X127564805Y-97419336D01*
X127591419Y-97431924D01*
X127616671Y-97447059D01*
X127640318Y-97464597D01*
X127662132Y-97484368D01*
X127681903Y-97506182D01*
X127699441Y-97529829D01*
X127714576Y-97555081D01*
X127727164Y-97581695D01*
X127737082Y-97609415D01*
X127744236Y-97637973D01*
X127748555Y-97667095D01*
X127750000Y-97696500D01*
X127750000Y-98296500D01*
X127748555Y-98325905D01*
X127744236Y-98355027D01*
X127737082Y-98383585D01*
X127727164Y-98411305D01*
X127714576Y-98437919D01*
X127699441Y-98463171D01*
X127681903Y-98486818D01*
X127662132Y-98508632D01*
X127640318Y-98528403D01*
X127616671Y-98545941D01*
X127591419Y-98561076D01*
X127564805Y-98573664D01*
X127537085Y-98583582D01*
X127508527Y-98590736D01*
X127479405Y-98595055D01*
X127450000Y-98596500D01*
X126550000Y-98596500D01*
X126520595Y-98595055D01*
X126491473Y-98590736D01*
X126462915Y-98583582D01*
X126435195Y-98573664D01*
X126408581Y-98561076D01*
X126383329Y-98545941D01*
X126359682Y-98528403D01*
X126337868Y-98508632D01*
X126318097Y-98486818D01*
X126300559Y-98463171D01*
X126285424Y-98437919D01*
X126272836Y-98411305D01*
X126262918Y-98383585D01*
X126255764Y-98355027D01*
X126251445Y-98325905D01*
X126250000Y-98296500D01*
X126250000Y-97696500D01*
X126251445Y-97667095D01*
X126255764Y-97637973D01*
X126262918Y-97609415D01*
X126272836Y-97581695D01*
X126285424Y-97555081D01*
X126300559Y-97529829D01*
X126318097Y-97506182D01*
X126337868Y-97484368D01*
X126359682Y-97464597D01*
X126383329Y-97447059D01*
X126408581Y-97431924D01*
X126435195Y-97419336D01*
X126462915Y-97409418D01*
X126491473Y-97402264D01*
X126520595Y-97397945D01*
X126550000Y-97396500D01*
X127450000Y-97396500D01*
X127479405Y-97397945D01*
X127479405Y-97397945D01*
G37*
D12*
X127000000Y-97996500D03*
D11*
G36*
X127479405Y-99397945D02*
X127508527Y-99402264D01*
X127537085Y-99409418D01*
X127564805Y-99419336D01*
X127591419Y-99431924D01*
X127616671Y-99447059D01*
X127640318Y-99464597D01*
X127662132Y-99484368D01*
X127681903Y-99506182D01*
X127699441Y-99529829D01*
X127714576Y-99555081D01*
X127727164Y-99581695D01*
X127737082Y-99609415D01*
X127744236Y-99637973D01*
X127748555Y-99667095D01*
X127750000Y-99696500D01*
X127750000Y-100296500D01*
X127748555Y-100325905D01*
X127744236Y-100355027D01*
X127737082Y-100383585D01*
X127727164Y-100411305D01*
X127714576Y-100437919D01*
X127699441Y-100463171D01*
X127681903Y-100486818D01*
X127662132Y-100508632D01*
X127640318Y-100528403D01*
X127616671Y-100545941D01*
X127591419Y-100561076D01*
X127564805Y-100573664D01*
X127537085Y-100583582D01*
X127508527Y-100590736D01*
X127479405Y-100595055D01*
X127450000Y-100596500D01*
X126550000Y-100596500D01*
X126520595Y-100595055D01*
X126491473Y-100590736D01*
X126462915Y-100583582D01*
X126435195Y-100573664D01*
X126408581Y-100561076D01*
X126383329Y-100545941D01*
X126359682Y-100528403D01*
X126337868Y-100508632D01*
X126318097Y-100486818D01*
X126300559Y-100463171D01*
X126285424Y-100437919D01*
X126272836Y-100411305D01*
X126262918Y-100383585D01*
X126255764Y-100355027D01*
X126251445Y-100325905D01*
X126250000Y-100296500D01*
X126250000Y-99696500D01*
X126251445Y-99667095D01*
X126255764Y-99637973D01*
X126262918Y-99609415D01*
X126272836Y-99581695D01*
X126285424Y-99555081D01*
X126300559Y-99529829D01*
X126318097Y-99506182D01*
X126337868Y-99484368D01*
X126359682Y-99464597D01*
X126383329Y-99447059D01*
X126408581Y-99431924D01*
X126435195Y-99419336D01*
X126462915Y-99409418D01*
X126491473Y-99402264D01*
X126520595Y-99397945D01*
X126550000Y-99396500D01*
X127450000Y-99396500D01*
X127479405Y-99397945D01*
X127479405Y-99397945D01*
G37*
D12*
X127000000Y-99996500D03*
G04 #@! TD*
D13*
G04 #@! TO.C,R1*
X110119160Y-101536500D03*
X111216440Y-101536500D03*
G04 #@! TD*
D14*
G04 #@! TO.C,U3*
X112189260Y-95811340D03*
X112839500Y-95811340D03*
X113489740Y-95811340D03*
X113489740Y-97711260D03*
X112839500Y-97711260D03*
X112189260Y-97711260D03*
G04 #@! TD*
D15*
G04 #@! TO.C,U1*
X118543988Y-97459671D03*
X116461188Y-97459671D03*
X116461188Y-99542471D03*
D16*
X120278808Y-100502591D03*
X120278808Y-100002211D03*
X120278808Y-99501831D03*
X120278808Y-99001451D03*
X120278808Y-98501071D03*
X120278808Y-98000691D03*
X120278808Y-97500311D03*
X120278808Y-96999931D03*
X120278808Y-96499551D03*
D17*
X119504108Y-95724851D03*
X119003728Y-95724851D03*
X118503348Y-95724851D03*
X118002968Y-95724851D03*
X117502588Y-95724851D03*
X117002208Y-95724851D03*
X116501828Y-95724851D03*
X116001448Y-95724851D03*
X115501068Y-95724851D03*
D16*
X114726368Y-96499551D03*
X114726368Y-96999931D03*
X114726368Y-97500311D03*
X114726368Y-98000691D03*
X114726368Y-98501071D03*
X114726368Y-99001451D03*
X114726368Y-99501831D03*
X114726368Y-100002211D03*
X114726368Y-100502591D03*
D17*
X115501068Y-101277291D03*
X116001448Y-101277291D03*
X116501828Y-101277291D03*
X117002208Y-101277291D03*
X117502588Y-101277291D03*
X118002968Y-101277291D03*
X118503348Y-101277291D03*
X119003728Y-101277291D03*
X119504108Y-101277291D03*
D15*
X118543988Y-99542471D03*
G04 #@! TD*
D18*
G04 #@! TO.C,D1*
X110070900Y-99745800D03*
X110070900Y-98247200D03*
G04 #@! TD*
D19*
G04 #@! TO.C,K1*
X114046000Y-103174800D03*
X112776000Y-103174800D03*
X111506000Y-103174800D03*
G04 #@! TD*
D20*
G04 #@! TO.C,C9*
X123073160Y-94234000D03*
X124576840Y-94234000D03*
G04 #@! TD*
D21*
G04 #@! TO.C,U2*
X125307600Y-96558100D03*
X123307600Y-97508100D03*
X123307600Y-95608100D03*
G04 #@! TD*
D22*
G04 #@! TO.C,X1*
X123188237Y-102984914D03*
X124890037Y-102984914D03*
X124890037Y-100785274D03*
X123188237Y-100785274D03*
G04 #@! TD*
D13*
G04 #@! TO.C,C2*
X124094240Y-99275900D03*
X122996960Y-99275900D03*
G04 #@! TD*
D23*
G04 #@! TO.C,C4*
X121780300Y-96987360D03*
X121780300Y-98084640D03*
G04 #@! TD*
D13*
G04 #@! TO.C,C5*
X120563640Y-102489000D03*
X119466360Y-102489000D03*
G04 #@! TD*
G04 #@! TO.C,C6*
X114729260Y-94526100D03*
X115826540Y-94526100D03*
G04 #@! TD*
D23*
G04 #@! TO.C,C7*
X113525300Y-101323140D03*
X113525300Y-100225860D03*
G04 #@! TD*
G04 #@! TO.C,C1*
X121793000Y-103304340D03*
X121793000Y-102207060D03*
G04 #@! TD*
D13*
G04 #@! TO.C,C3*
X118214140Y-102489000D03*
X117116860Y-102489000D03*
G04 #@! TD*
D24*
G04 #@! TO.C,C8*
X121627900Y-94173040D03*
X121627900Y-95676720D03*
G04 #@! TD*
D25*
G04 #@! TO.C,REF\002A\002A*
X118826280Y-94213680D03*
G04 #@! TD*
M02*
