G04 #@! TF.GenerationSoftware,KiCad,Pcbnew,5.0.0-rc3+dfsg1-1*
G04 #@! TF.CreationDate,2018-07-17T13:15:56+09:00*
G04 #@! TF.ProjectId,fst-01,6673742D30312E6B696361645F706362,rev?*
G04 #@! TF.SameCoordinates,PX791ddc0PY5e69114*
G04 #@! TF.FileFunction,Copper,L2,Bot,Signal*
G04 #@! TF.FilePolarity,Positive*
%FSLAX46Y46*%
G04 Gerber Fmt 4.6, Leading zero omitted, Abs format (unit mm)*
G04 Created by KiCad (PCBNEW 5.0.0-rc3+dfsg1-1) date Tue Jul 17 13:15:56 2018*
%MOMM*%
%LPD*%
G01*
G04 APERTURE LIST*
G04 #@! TA.AperFunction,ComponentPad*
%ADD10R,0.800100X0.800100*%
G04 #@! TD*
G04 #@! TA.AperFunction,ComponentPad*
%ADD11R,0.800100X0.800000*%
G04 #@! TD*
G04 #@! TA.AperFunction,ComponentPad*
%ADD12C,0.500000*%
G04 #@! TD*
G04 #@! TA.AperFunction,ViaPad*
%ADD13C,0.800100*%
G04 #@! TD*
G04 #@! TA.AperFunction,Conductor*
%ADD14C,0.200660*%
G04 #@! TD*
G04 #@! TA.AperFunction,Conductor*
%ADD15C,0.381000*%
G04 #@! TD*
G04 #@! TA.AperFunction,Conductor*
%ADD16C,0.248920*%
G04 #@! TD*
G04 APERTURE END LIST*
D10*
G04 #@! TO.P,K1,1*
G04 #@! TO.N,+3V3*
X-16243300Y-4178300D03*
D11*
G04 #@! TO.P,K1,5*
G04 #@! TO.N,GND*
X-11163300Y-4178300D03*
G04 #@! TD*
D12*
G04 #@! TO.P,J1,5*
G04 #@! TO.N,GND*
X1200000Y-5250000D03*
X1200000Y5250000D03*
G04 #@! TD*
D13*
G04 #@! TO.N,/D+_PLUG*
X-1397000Y25400D03*
X-15412720Y3149600D03*
G04 #@! TO.N,/D-_PLUG*
X1016000Y1524000D03*
X-13550222Y4026578D03*
G04 #@! TO.N,/NRST*
X-5130109Y-558109D03*
X-10441940Y-3261360D03*
G04 #@! TO.N,GND*
X-9461500Y419100D03*
X-14160500Y-1206500D03*
G04 #@! TO.N,+3V3*
X-4064000Y2362260D03*
X-12395200Y3175000D03*
X-13474700Y-2959100D03*
G04 #@! TD*
D14*
G04 #@! TO.N,/D+_PLUG*
X-5026660Y1290320D02*
X-12710160Y1290320D01*
X-14569440Y3149600D02*
X-15412720Y3149600D01*
X-12710160Y1290320D02*
X-14569440Y3149600D01*
X-1066802Y0D02*
X-3736340Y0D01*
X-3736340Y0D02*
X-5026660Y1290320D01*
G04 #@! TO.N,/D-_PLUG*
X-13550900Y4000500D02*
X-13550900Y3835400D01*
X-13462000Y4089400D02*
X-13550900Y4000500D01*
X-13411200Y4038600D02*
X-13462000Y4089400D01*
X1016000Y1524000D02*
X-1498600Y4038600D01*
X-1498600Y4038600D02*
X-13411200Y4038600D01*
G04 #@! TO.N,/NRST*
X-5695865Y-558109D02*
X-5130109Y-558109D01*
X-7723449Y-558109D02*
X-5695865Y-558109D01*
X-10319506Y-3154166D02*
X-7723449Y-558109D01*
G04 #@! TO.N,GND*
X-13666631Y-1297821D02*
X-11176000Y-3788452D01*
X-14160500Y-1397000D02*
X-13666631Y-1297821D01*
X-11176000Y-3788452D02*
X-11176000Y-4699000D01*
D15*
G04 #@! TO.N,+3V3*
X-13573760Y-2969260D02*
X-13462000Y-2857500D01*
X-16222980Y-2862580D02*
X-16116300Y-2969260D01*
X-16116300Y-2969260D02*
X-13573760Y-2969260D01*
X-12960956Y3175000D02*
X-12395200Y3175000D01*
X-14663024Y3940811D02*
X-13897213Y3175000D01*
X-13897213Y3175000D02*
X-12960956Y3175000D01*
X-15792502Y3940811D02*
X-14663024Y3940811D01*
X-16222980Y3510333D02*
X-15792502Y3940811D01*
X-16222980Y-4130040D02*
X-16222980Y3510333D01*
X-16230600Y-4137660D02*
X-16222980Y-4130040D01*
X-12395200Y3101341D02*
X-11910059Y2616200D01*
X-4317940Y2616200D02*
X-4064000Y2362260D01*
X-11910059Y2616200D02*
X-4317940Y2616200D01*
G04 #@! TD*
D16*
G04 #@! TO.N,GND*
G36*
X1936750Y-5880430D02*
X1237010Y-5880430D01*
X1421774Y-5851168D01*
X1468273Y-5831909D01*
X1487552Y-5714329D01*
X1200000Y-5426777D01*
X912448Y-5714329D01*
X931727Y-5831909D01*
X1133821Y-5880430D01*
X-17913350Y-5880430D01*
X-17913350Y-5224835D01*
X559723Y-5224835D01*
X598832Y-5471774D01*
X618091Y-5518273D01*
X735671Y-5537552D01*
X1023223Y-5250000D01*
X1376777Y-5250000D01*
X1664329Y-5537552D01*
X1781909Y-5518273D01*
X1840277Y-5275165D01*
X1801168Y-5028226D01*
X1781909Y-4981727D01*
X1664329Y-4962448D01*
X1376777Y-5250000D01*
X1023223Y-5250000D01*
X735671Y-4962448D01*
X618091Y-4981727D01*
X559723Y-5224835D01*
X-17913350Y-5224835D01*
X-17913350Y-3778250D01*
X-16974839Y-3778250D01*
X-16974839Y-4578350D01*
X-16949606Y-4705205D01*
X-16877748Y-4812748D01*
X-16770205Y-4884606D01*
X-16643350Y-4909839D01*
X-15843250Y-4909839D01*
X-15716395Y-4884606D01*
X-15608852Y-4812748D01*
X-15536994Y-4705205D01*
X-15511761Y-4578350D01*
X-15511761Y-4511124D01*
X-15503013Y-4532243D01*
X-15327243Y-4708013D01*
X-15097588Y-4803140D01*
X-14849012Y-4803140D01*
X-14619357Y-4708013D01*
X-14443587Y-4532243D01*
X-14348460Y-4302588D01*
X-14348460Y-4054012D01*
X-14443587Y-3824357D01*
X-14619357Y-3648587D01*
X-14849012Y-3553460D01*
X-15097588Y-3553460D01*
X-15327243Y-3648587D01*
X-15503013Y-3824357D01*
X-15511761Y-3845476D01*
X-15511761Y-3778250D01*
X-15536994Y-3651395D01*
X-15608852Y-3543852D01*
X-15697110Y-3484880D01*
X-13974466Y-3484880D01*
X-13885476Y-3573870D01*
X-13881169Y-3575654D01*
X-14057243Y-3648587D01*
X-14233013Y-3824357D01*
X-14328140Y-4054012D01*
X-14328140Y-4302588D01*
X-14233013Y-4532243D01*
X-14057243Y-4708013D01*
X-13827588Y-4803140D01*
X-13579012Y-4803140D01*
X-13349357Y-4708013D01*
X-13173587Y-4532243D01*
X-13078460Y-4302588D01*
X-13078460Y-4054012D01*
X-13058140Y-4054012D01*
X-13058140Y-4302588D01*
X-12963013Y-4532243D01*
X-12787243Y-4708013D01*
X-12557588Y-4803140D01*
X-12309012Y-4803140D01*
X-12079357Y-4708013D01*
X-11941810Y-4570466D01*
X-11941810Y-4653581D01*
X-11884193Y-4792681D01*
X-11777730Y-4899143D01*
X-11638630Y-4956760D01*
X-11387455Y-4956760D01*
X-11292840Y-4862145D01*
X-11292840Y-4307840D01*
X-11033760Y-4307840D01*
X-11033760Y-4862145D01*
X-10939145Y-4956760D01*
X-10687970Y-4956760D01*
X-10548870Y-4899143D01*
X-10442407Y-4792681D01*
X-10439504Y-4785671D01*
X912448Y-4785671D01*
X1200000Y-5073223D01*
X1487552Y-4785671D01*
X1468273Y-4668091D01*
X1225165Y-4609723D01*
X978226Y-4648832D01*
X931727Y-4668091D01*
X912448Y-4785671D01*
X-10439504Y-4785671D01*
X-10384790Y-4653581D01*
X-10384790Y-4402455D01*
X-10479405Y-4307840D01*
X-11033760Y-4307840D01*
X-11292840Y-4307840D01*
X-11312840Y-4307840D01*
X-11312840Y-4048760D01*
X-11292840Y-4048760D01*
X-11292840Y-4028760D01*
X-11033760Y-4028760D01*
X-11033760Y-4048760D01*
X-10479405Y-4048760D01*
X-10417175Y-3986530D01*
X-10297695Y-3986530D01*
X-10031164Y-3876130D01*
X-9827170Y-3672136D01*
X-9716770Y-3405605D01*
X-9716770Y-3153106D01*
X-7547222Y-983559D01*
X-5730205Y-983559D01*
X-5540885Y-1172879D01*
X-5274354Y-1283279D01*
X-4985864Y-1283279D01*
X-4719333Y-1172879D01*
X-4515339Y-968885D01*
X-4404939Y-702354D01*
X-4404939Y-413864D01*
X-4515339Y-147333D01*
X-4719333Y56661D01*
X-4985864Y167061D01*
X-5274354Y167061D01*
X-5540885Y56661D01*
X-5730205Y-132659D01*
X-7681552Y-132659D01*
X-7723450Y-124325D01*
X-7765348Y-132659D01*
X-7765352Y-132659D01*
X-7889451Y-157344D01*
X-8030181Y-251377D01*
X-8053916Y-286899D01*
X-10303206Y-2536190D01*
X-10586185Y-2536190D01*
X-10852716Y-2646590D01*
X-11056710Y-2850584D01*
X-11167110Y-3117115D01*
X-11167110Y-3399840D01*
X-11292842Y-3399840D01*
X-11292842Y-3494453D01*
X-11387455Y-3399840D01*
X-11638630Y-3399840D01*
X-11777730Y-3457457D01*
X-11884193Y-3563919D01*
X-11941810Y-3703019D01*
X-11941810Y-3786134D01*
X-12079357Y-3648587D01*
X-12309012Y-3553460D01*
X-12557588Y-3553460D01*
X-12787243Y-3648587D01*
X-12963013Y-3824357D01*
X-13058140Y-4054012D01*
X-13078460Y-4054012D01*
X-13173587Y-3824357D01*
X-13318589Y-3679355D01*
X-13063924Y-3573870D01*
X-12859930Y-3369876D01*
X-12749530Y-3103345D01*
X-12749530Y-2814855D01*
X-12859930Y-2548324D01*
X-13063924Y-2344330D01*
X-13330455Y-2233930D01*
X-13618945Y-2233930D01*
X-13885476Y-2344330D01*
X-13994786Y-2453640D01*
X-15707360Y-2453640D01*
X-15707360Y2486725D01*
X-15556965Y2424430D01*
X-15268475Y2424430D01*
X-15001944Y2534830D01*
X-14812624Y2724150D01*
X-14745666Y2724150D01*
X-13040627Y1019110D01*
X-13016892Y983588D01*
X-12876162Y889555D01*
X-12752063Y864870D01*
X-12752058Y864870D01*
X-12710160Y856536D01*
X-12668262Y864870D01*
X-5202886Y864870D01*
X-4066807Y-271210D01*
X-4043072Y-306732D01*
X-3902342Y-400765D01*
X-3778243Y-425450D01*
X-3778239Y-425450D01*
X-3736341Y-433784D01*
X-3694443Y-425450D01*
X-1971696Y-425450D01*
X-1807776Y-589370D01*
X-1541245Y-699770D01*
X-1252755Y-699770D01*
X-986224Y-589370D01*
X-782230Y-385376D01*
X-732668Y-265722D01*
X-666037Y-166002D01*
X-633017Y0D01*
X-666037Y166002D01*
X-677308Y182870D01*
X-782230Y436176D01*
X-986224Y640170D01*
X-1252755Y750570D01*
X-1541245Y750570D01*
X-1807776Y640170D01*
X-2011770Y436176D01*
X-2016213Y425450D01*
X-3560113Y425450D01*
X-4696191Y1561527D01*
X-4719928Y1597052D01*
X-4860658Y1691085D01*
X-4984757Y1715770D01*
X-4984762Y1715770D01*
X-5026660Y1724104D01*
X-5068558Y1715770D01*
X-12533933Y1715770D01*
X-13477544Y2659380D01*
X-12905126Y2659380D01*
X-12805976Y2560230D01*
X-12539445Y2449830D01*
X-12472885Y2449830D01*
X-12310566Y2287510D01*
X-12281800Y2244459D01*
X-12238750Y2215694D01*
X-12111244Y2130497D01*
X-11910059Y2090479D01*
X-11859278Y2100580D01*
X-4740527Y2100580D01*
X-4678770Y1951484D01*
X-4474776Y1747490D01*
X-4208245Y1637090D01*
X-3919755Y1637090D01*
X-3653224Y1747490D01*
X-3449230Y1951484D01*
X-3338830Y2218015D01*
X-3338830Y2506505D01*
X-3449230Y2773036D01*
X-3653224Y2977030D01*
X-3919755Y3087430D01*
X-4095095Y3087430D01*
X-4116755Y3101903D01*
X-4267159Y3131820D01*
X-4317940Y3141921D01*
X-4368721Y3131820D01*
X-11670030Y3131820D01*
X-11670030Y3319245D01*
X-11780430Y3585776D01*
X-11807804Y3613150D01*
X-1674826Y3613150D01*
X290830Y1647493D01*
X290830Y1379755D01*
X401230Y1113224D01*
X605224Y909230D01*
X871755Y798830D01*
X1160245Y798830D01*
X1426776Y909230D01*
X1630770Y1113224D01*
X1741170Y1379755D01*
X1741170Y1668245D01*
X1630770Y1934776D01*
X1426776Y2138770D01*
X1160245Y2249170D01*
X892507Y2249170D01*
X-1168132Y4309808D01*
X-1191868Y4345332D01*
X-1332598Y4439365D01*
X-1456697Y4464050D01*
X-1456702Y4464050D01*
X-1498600Y4472384D01*
X-1540498Y4464050D01*
X-12962148Y4464050D01*
X-13139446Y4641348D01*
X-13405977Y4751748D01*
X-13694467Y4751748D01*
X-13960998Y4641348D01*
X-14164992Y4437354D01*
X-14242720Y4249702D01*
X-14262514Y4269496D01*
X-14291283Y4312552D01*
X-14461839Y4426514D01*
X-14612243Y4456431D01*
X-14663024Y4466532D01*
X-14713805Y4456431D01*
X-15741721Y4456431D01*
X-15792502Y4466532D01*
X-15843283Y4456431D01*
X-15993687Y4426514D01*
X-16164243Y4312552D01*
X-16193009Y4269501D01*
X-16551667Y3910841D01*
X-16594720Y3882074D01*
X-16671348Y3767392D01*
X-16708683Y3711517D01*
X-16748701Y3510333D01*
X-16738599Y3459547D01*
X-16738600Y-2811798D01*
X-16748701Y-2862580D01*
X-16738600Y-2913362D01*
X-16738600Y-3465707D01*
X-16770205Y-3471994D01*
X-16877748Y-3543852D01*
X-16949606Y-3651395D01*
X-16974839Y-3778250D01*
X-17913350Y-3778250D01*
X-17913350Y4785671D01*
X912448Y4785671D01*
X931727Y4668091D01*
X1174835Y4609723D01*
X1421774Y4648832D01*
X1468273Y4668091D01*
X1487552Y4785671D01*
X1200000Y5073223D01*
X912448Y4785671D01*
X-17913350Y4785671D01*
X-17913350Y5275165D01*
X559723Y5275165D01*
X598832Y5028226D01*
X618091Y4981727D01*
X735671Y4962448D01*
X1023223Y5250000D01*
X1376777Y5250000D01*
X1664329Y4962448D01*
X1781909Y4981727D01*
X1840277Y5224835D01*
X1801168Y5471774D01*
X1781909Y5518273D01*
X1664329Y5537552D01*
X1376777Y5250000D01*
X1023223Y5250000D01*
X735671Y5537552D01*
X618091Y5518273D01*
X559723Y5275165D01*
X-17913350Y5275165D01*
X-17913350Y5714329D01*
X912448Y5714329D01*
X1200000Y5426777D01*
X1487552Y5714329D01*
X1468273Y5831909D01*
X1225165Y5890277D01*
X978226Y5851168D01*
X931727Y5831909D01*
X912448Y5714329D01*
X-17913350Y5714329D01*
X-17913350Y5970270D01*
X1936751Y5970270D01*
X1936750Y-5880430D01*
X1936750Y-5880430D01*
G37*
X1936750Y-5880430D02*
X1237010Y-5880430D01*
X1421774Y-5851168D01*
X1468273Y-5831909D01*
X1487552Y-5714329D01*
X1200000Y-5426777D01*
X912448Y-5714329D01*
X931727Y-5831909D01*
X1133821Y-5880430D01*
X-17913350Y-5880430D01*
X-17913350Y-5224835D01*
X559723Y-5224835D01*
X598832Y-5471774D01*
X618091Y-5518273D01*
X735671Y-5537552D01*
X1023223Y-5250000D01*
X1376777Y-5250000D01*
X1664329Y-5537552D01*
X1781909Y-5518273D01*
X1840277Y-5275165D01*
X1801168Y-5028226D01*
X1781909Y-4981727D01*
X1664329Y-4962448D01*
X1376777Y-5250000D01*
X1023223Y-5250000D01*
X735671Y-4962448D01*
X618091Y-4981727D01*
X559723Y-5224835D01*
X-17913350Y-5224835D01*
X-17913350Y-3778250D01*
X-16974839Y-3778250D01*
X-16974839Y-4578350D01*
X-16949606Y-4705205D01*
X-16877748Y-4812748D01*
X-16770205Y-4884606D01*
X-16643350Y-4909839D01*
X-15843250Y-4909839D01*
X-15716395Y-4884606D01*
X-15608852Y-4812748D01*
X-15536994Y-4705205D01*
X-15511761Y-4578350D01*
X-15511761Y-4511124D01*
X-15503013Y-4532243D01*
X-15327243Y-4708013D01*
X-15097588Y-4803140D01*
X-14849012Y-4803140D01*
X-14619357Y-4708013D01*
X-14443587Y-4532243D01*
X-14348460Y-4302588D01*
X-14348460Y-4054012D01*
X-14443587Y-3824357D01*
X-14619357Y-3648587D01*
X-14849012Y-3553460D01*
X-15097588Y-3553460D01*
X-15327243Y-3648587D01*
X-15503013Y-3824357D01*
X-15511761Y-3845476D01*
X-15511761Y-3778250D01*
X-15536994Y-3651395D01*
X-15608852Y-3543852D01*
X-15697110Y-3484880D01*
X-13974466Y-3484880D01*
X-13885476Y-3573870D01*
X-13881169Y-3575654D01*
X-14057243Y-3648587D01*
X-14233013Y-3824357D01*
X-14328140Y-4054012D01*
X-14328140Y-4302588D01*
X-14233013Y-4532243D01*
X-14057243Y-4708013D01*
X-13827588Y-4803140D01*
X-13579012Y-4803140D01*
X-13349357Y-4708013D01*
X-13173587Y-4532243D01*
X-13078460Y-4302588D01*
X-13078460Y-4054012D01*
X-13058140Y-4054012D01*
X-13058140Y-4302588D01*
X-12963013Y-4532243D01*
X-12787243Y-4708013D01*
X-12557588Y-4803140D01*
X-12309012Y-4803140D01*
X-12079357Y-4708013D01*
X-11941810Y-4570466D01*
X-11941810Y-4653581D01*
X-11884193Y-4792681D01*
X-11777730Y-4899143D01*
X-11638630Y-4956760D01*
X-11387455Y-4956760D01*
X-11292840Y-4862145D01*
X-11292840Y-4307840D01*
X-11033760Y-4307840D01*
X-11033760Y-4862145D01*
X-10939145Y-4956760D01*
X-10687970Y-4956760D01*
X-10548870Y-4899143D01*
X-10442407Y-4792681D01*
X-10439504Y-4785671D01*
X912448Y-4785671D01*
X1200000Y-5073223D01*
X1487552Y-4785671D01*
X1468273Y-4668091D01*
X1225165Y-4609723D01*
X978226Y-4648832D01*
X931727Y-4668091D01*
X912448Y-4785671D01*
X-10439504Y-4785671D01*
X-10384790Y-4653581D01*
X-10384790Y-4402455D01*
X-10479405Y-4307840D01*
X-11033760Y-4307840D01*
X-11292840Y-4307840D01*
X-11312840Y-4307840D01*
X-11312840Y-4048760D01*
X-11292840Y-4048760D01*
X-11292840Y-4028760D01*
X-11033760Y-4028760D01*
X-11033760Y-4048760D01*
X-10479405Y-4048760D01*
X-10417175Y-3986530D01*
X-10297695Y-3986530D01*
X-10031164Y-3876130D01*
X-9827170Y-3672136D01*
X-9716770Y-3405605D01*
X-9716770Y-3153106D01*
X-7547222Y-983559D01*
X-5730205Y-983559D01*
X-5540885Y-1172879D01*
X-5274354Y-1283279D01*
X-4985864Y-1283279D01*
X-4719333Y-1172879D01*
X-4515339Y-968885D01*
X-4404939Y-702354D01*
X-4404939Y-413864D01*
X-4515339Y-147333D01*
X-4719333Y56661D01*
X-4985864Y167061D01*
X-5274354Y167061D01*
X-5540885Y56661D01*
X-5730205Y-132659D01*
X-7681552Y-132659D01*
X-7723450Y-124325D01*
X-7765348Y-132659D01*
X-7765352Y-132659D01*
X-7889451Y-157344D01*
X-8030181Y-251377D01*
X-8053916Y-286899D01*
X-10303206Y-2536190D01*
X-10586185Y-2536190D01*
X-10852716Y-2646590D01*
X-11056710Y-2850584D01*
X-11167110Y-3117115D01*
X-11167110Y-3399840D01*
X-11292842Y-3399840D01*
X-11292842Y-3494453D01*
X-11387455Y-3399840D01*
X-11638630Y-3399840D01*
X-11777730Y-3457457D01*
X-11884193Y-3563919D01*
X-11941810Y-3703019D01*
X-11941810Y-3786134D01*
X-12079357Y-3648587D01*
X-12309012Y-3553460D01*
X-12557588Y-3553460D01*
X-12787243Y-3648587D01*
X-12963013Y-3824357D01*
X-13058140Y-4054012D01*
X-13078460Y-4054012D01*
X-13173587Y-3824357D01*
X-13318589Y-3679355D01*
X-13063924Y-3573870D01*
X-12859930Y-3369876D01*
X-12749530Y-3103345D01*
X-12749530Y-2814855D01*
X-12859930Y-2548324D01*
X-13063924Y-2344330D01*
X-13330455Y-2233930D01*
X-13618945Y-2233930D01*
X-13885476Y-2344330D01*
X-13994786Y-2453640D01*
X-15707360Y-2453640D01*
X-15707360Y2486725D01*
X-15556965Y2424430D01*
X-15268475Y2424430D01*
X-15001944Y2534830D01*
X-14812624Y2724150D01*
X-14745666Y2724150D01*
X-13040627Y1019110D01*
X-13016892Y983588D01*
X-12876162Y889555D01*
X-12752063Y864870D01*
X-12752058Y864870D01*
X-12710160Y856536D01*
X-12668262Y864870D01*
X-5202886Y864870D01*
X-4066807Y-271210D01*
X-4043072Y-306732D01*
X-3902342Y-400765D01*
X-3778243Y-425450D01*
X-3778239Y-425450D01*
X-3736341Y-433784D01*
X-3694443Y-425450D01*
X-1971696Y-425450D01*
X-1807776Y-589370D01*
X-1541245Y-699770D01*
X-1252755Y-699770D01*
X-986224Y-589370D01*
X-782230Y-385376D01*
X-732668Y-265722D01*
X-666037Y-166002D01*
X-633017Y0D01*
X-666037Y166002D01*
X-677308Y182870D01*
X-782230Y436176D01*
X-986224Y640170D01*
X-1252755Y750570D01*
X-1541245Y750570D01*
X-1807776Y640170D01*
X-2011770Y436176D01*
X-2016213Y425450D01*
X-3560113Y425450D01*
X-4696191Y1561527D01*
X-4719928Y1597052D01*
X-4860658Y1691085D01*
X-4984757Y1715770D01*
X-4984762Y1715770D01*
X-5026660Y1724104D01*
X-5068558Y1715770D01*
X-12533933Y1715770D01*
X-13477544Y2659380D01*
X-12905126Y2659380D01*
X-12805976Y2560230D01*
X-12539445Y2449830D01*
X-12472885Y2449830D01*
X-12310566Y2287510D01*
X-12281800Y2244459D01*
X-12238750Y2215694D01*
X-12111244Y2130497D01*
X-11910059Y2090479D01*
X-11859278Y2100580D01*
X-4740527Y2100580D01*
X-4678770Y1951484D01*
X-4474776Y1747490D01*
X-4208245Y1637090D01*
X-3919755Y1637090D01*
X-3653224Y1747490D01*
X-3449230Y1951484D01*
X-3338830Y2218015D01*
X-3338830Y2506505D01*
X-3449230Y2773036D01*
X-3653224Y2977030D01*
X-3919755Y3087430D01*
X-4095095Y3087430D01*
X-4116755Y3101903D01*
X-4267159Y3131820D01*
X-4317940Y3141921D01*
X-4368721Y3131820D01*
X-11670030Y3131820D01*
X-11670030Y3319245D01*
X-11780430Y3585776D01*
X-11807804Y3613150D01*
X-1674826Y3613150D01*
X290830Y1647493D01*
X290830Y1379755D01*
X401230Y1113224D01*
X605224Y909230D01*
X871755Y798830D01*
X1160245Y798830D01*
X1426776Y909230D01*
X1630770Y1113224D01*
X1741170Y1379755D01*
X1741170Y1668245D01*
X1630770Y1934776D01*
X1426776Y2138770D01*
X1160245Y2249170D01*
X892507Y2249170D01*
X-1168132Y4309808D01*
X-1191868Y4345332D01*
X-1332598Y4439365D01*
X-1456697Y4464050D01*
X-1456702Y4464050D01*
X-1498600Y4472384D01*
X-1540498Y4464050D01*
X-12962148Y4464050D01*
X-13139446Y4641348D01*
X-13405977Y4751748D01*
X-13694467Y4751748D01*
X-13960998Y4641348D01*
X-14164992Y4437354D01*
X-14242720Y4249702D01*
X-14262514Y4269496D01*
X-14291283Y4312552D01*
X-14461839Y4426514D01*
X-14612243Y4456431D01*
X-14663024Y4466532D01*
X-14713805Y4456431D01*
X-15741721Y4456431D01*
X-15792502Y4466532D01*
X-15843283Y4456431D01*
X-15993687Y4426514D01*
X-16164243Y4312552D01*
X-16193009Y4269501D01*
X-16551667Y3910841D01*
X-16594720Y3882074D01*
X-16671348Y3767392D01*
X-16708683Y3711517D01*
X-16748701Y3510333D01*
X-16738599Y3459547D01*
X-16738600Y-2811798D01*
X-16748701Y-2862580D01*
X-16738600Y-2913362D01*
X-16738600Y-3465707D01*
X-16770205Y-3471994D01*
X-16877748Y-3543852D01*
X-16949606Y-3651395D01*
X-16974839Y-3778250D01*
X-17913350Y-3778250D01*
X-17913350Y4785671D01*
X912448Y4785671D01*
X931727Y4668091D01*
X1174835Y4609723D01*
X1421774Y4648832D01*
X1468273Y4668091D01*
X1487552Y4785671D01*
X1200000Y5073223D01*
X912448Y4785671D01*
X-17913350Y4785671D01*
X-17913350Y5275165D01*
X559723Y5275165D01*
X598832Y5028226D01*
X618091Y4981727D01*
X735671Y4962448D01*
X1023223Y5250000D01*
X1376777Y5250000D01*
X1664329Y4962448D01*
X1781909Y4981727D01*
X1840277Y5224835D01*
X1801168Y5471774D01*
X1781909Y5518273D01*
X1664329Y5537552D01*
X1376777Y5250000D01*
X1023223Y5250000D01*
X735671Y5537552D01*
X618091Y5518273D01*
X559723Y5275165D01*
X-17913350Y5275165D01*
X-17913350Y5714329D01*
X912448Y5714329D01*
X1200000Y5426777D01*
X1487552Y5714329D01*
X1468273Y5831909D01*
X1225165Y5890277D01*
X978226Y5851168D01*
X931727Y5831909D01*
X912448Y5714329D01*
X-17913350Y5714329D01*
X-17913350Y5970270D01*
X1936751Y5970270D01*
X1936750Y-5880430D01*
G04 #@! TD*
M02*
