G04 #@! TF.GenerationSoftware,KiCad,Pcbnew,5.0.0-rc3+dfsg1-1*
G04 #@! TF.CreationDate,2018-07-17T14:07:16+09:00*
G04 #@! TF.ProjectId,fst-01,6673742D30312E6B696361645F706362,rev?*
G04 #@! TF.SameCoordinates,PX791ddc0PY5e69114*
G04 #@! TF.FileFunction,Soldermask,Top*
G04 #@! TF.FilePolarity,Negative*
%FSLAX46Y46*%
G04 Gerber Fmt 4.6, Leading zero omitted, Abs format (unit mm)*
G04 Created by KiCad (PCBNEW 5.0.0-rc3+dfsg1-1) date Tue Jul 17 14:07:16 2018*
%MOMM*%
%LPD*%
G01*
G04 APERTURE LIST*
%ADD10C,1.104900*%
%ADD11R,1.104900X1.104900*%
%ADD12C,1.104800*%
%ADD13R,1.104900X1.104800*%
%ADD14C,0.150000*%
%ADD15C,1.504800*%
%ADD16C,0.804800*%
%ADD17R,0.703580X0.805180*%
%ADD18R,2.209800X2.209800*%
%ADD19R,0.604520X1.054100*%
%ADD20R,1.054100X0.604520*%
%ADD21R,1.102360X1.102360*%
%ADD22R,1.203960X1.305560*%
%ADD23R,1.204800X1.104800*%
%ADD24R,1.498600X1.701800*%
%ADD25R,1.104900X1.003300*%
%ADD26R,1.003300X1.104900*%
%ADD27R,1.305560X1.203960*%
G04 APERTURE END LIST*
D10*
G04 #@! TO.C,K1*
X-14973300Y-4178300D03*
D11*
X-16243300Y-4178300D03*
D12*
X-13703300Y-4178300D03*
D10*
X-12433300Y-4178300D03*
D13*
X-11163300Y-4178300D03*
G04 #@! TD*
D14*
G04 #@! TO.C,J1*
G36*
X563074Y-249412D02*
X599593Y-254829D01*
X635405Y-263799D01*
X670166Y-276237D01*
X703539Y-292021D01*
X735206Y-311001D01*
X764859Y-332993D01*
X792214Y-357786D01*
X817007Y-385141D01*
X838999Y-414794D01*
X857979Y-446461D01*
X873763Y-479834D01*
X886201Y-514595D01*
X895171Y-550407D01*
X900588Y-586926D01*
X902400Y-623800D01*
X902400Y-1376200D01*
X900588Y-1413074D01*
X895171Y-1449593D01*
X886201Y-1485405D01*
X873763Y-1520166D01*
X857979Y-1553539D01*
X838999Y-1585206D01*
X817007Y-1614859D01*
X792214Y-1642214D01*
X764859Y-1667007D01*
X735206Y-1688999D01*
X703539Y-1707979D01*
X670166Y-1723763D01*
X635405Y-1736201D01*
X599593Y-1745171D01*
X563074Y-1750588D01*
X526200Y-1752400D01*
X-526200Y-1752400D01*
X-563074Y-1750588D01*
X-599593Y-1745171D01*
X-635405Y-1736201D01*
X-670166Y-1723763D01*
X-703539Y-1707979D01*
X-735206Y-1688999D01*
X-764859Y-1667007D01*
X-792214Y-1642214D01*
X-817007Y-1614859D01*
X-838999Y-1585206D01*
X-857979Y-1553539D01*
X-873763Y-1520166D01*
X-886201Y-1485405D01*
X-895171Y-1449593D01*
X-900588Y-1413074D01*
X-902400Y-1376200D01*
X-902400Y-623800D01*
X-900588Y-586926D01*
X-895171Y-550407D01*
X-886201Y-514595D01*
X-873763Y-479834D01*
X-857979Y-446461D01*
X-838999Y-414794D01*
X-817007Y-385141D01*
X-792214Y-357786D01*
X-764859Y-332993D01*
X-735206Y-311001D01*
X-703539Y-292021D01*
X-670166Y-276237D01*
X-635405Y-263799D01*
X-599593Y-254829D01*
X-563074Y-249412D01*
X-526200Y-247600D01*
X526200Y-247600D01*
X563074Y-249412D01*
X563074Y-249412D01*
G37*
D15*
X0Y-1000000D03*
D14*
G36*
X563074Y1750588D02*
X599593Y1745171D01*
X635405Y1736201D01*
X670166Y1723763D01*
X703539Y1707979D01*
X735206Y1688999D01*
X764859Y1667007D01*
X792214Y1642214D01*
X817007Y1614859D01*
X838999Y1585206D01*
X857979Y1553539D01*
X873763Y1520166D01*
X886201Y1485405D01*
X895171Y1449593D01*
X900588Y1413074D01*
X902400Y1376200D01*
X902400Y623800D01*
X900588Y586926D01*
X895171Y550407D01*
X886201Y514595D01*
X873763Y479834D01*
X857979Y446461D01*
X838999Y414794D01*
X817007Y385141D01*
X792214Y357786D01*
X764859Y332993D01*
X735206Y311001D01*
X703539Y292021D01*
X670166Y276237D01*
X635405Y263799D01*
X599593Y254829D01*
X563074Y249412D01*
X526200Y247600D01*
X-526200Y247600D01*
X-563074Y249412D01*
X-599593Y254829D01*
X-635405Y263799D01*
X-670166Y276237D01*
X-703539Y292021D01*
X-735206Y311001D01*
X-764859Y332993D01*
X-792214Y357786D01*
X-817007Y385141D01*
X-838999Y414794D01*
X-857979Y446461D01*
X-873763Y479834D01*
X-886201Y514595D01*
X-895171Y550407D01*
X-900588Y586926D01*
X-902400Y623800D01*
X-902400Y1376200D01*
X-900588Y1413074D01*
X-895171Y1449593D01*
X-886201Y1485405D01*
X-873763Y1520166D01*
X-857979Y1553539D01*
X-838999Y1585206D01*
X-817007Y1614859D01*
X-792214Y1642214D01*
X-764859Y1667007D01*
X-735206Y1688999D01*
X-703539Y1707979D01*
X-670166Y1723763D01*
X-635405Y1736201D01*
X-599593Y1745171D01*
X-563074Y1750588D01*
X-526200Y1752400D01*
X526200Y1752400D01*
X563074Y1750588D01*
X563074Y1750588D01*
G37*
D15*
X0Y1000000D03*
D14*
G36*
X563074Y-2749412D02*
X599593Y-2754829D01*
X635405Y-2763799D01*
X670166Y-2776237D01*
X703539Y-2792021D01*
X735206Y-2811001D01*
X764859Y-2832993D01*
X792214Y-2857786D01*
X817007Y-2885141D01*
X838999Y-2914794D01*
X857979Y-2946461D01*
X873763Y-2979834D01*
X886201Y-3014595D01*
X895171Y-3050407D01*
X900588Y-3086926D01*
X902400Y-3123800D01*
X902400Y-3876200D01*
X900588Y-3913074D01*
X895171Y-3949593D01*
X886201Y-3985405D01*
X873763Y-4020166D01*
X857979Y-4053539D01*
X838999Y-4085206D01*
X817007Y-4114859D01*
X792214Y-4142214D01*
X764859Y-4167007D01*
X735206Y-4188999D01*
X703539Y-4207979D01*
X670166Y-4223763D01*
X635405Y-4236201D01*
X599593Y-4245171D01*
X563074Y-4250588D01*
X526200Y-4252400D01*
X-526200Y-4252400D01*
X-563074Y-4250588D01*
X-599593Y-4245171D01*
X-635405Y-4236201D01*
X-670166Y-4223763D01*
X-703539Y-4207979D01*
X-735206Y-4188999D01*
X-764859Y-4167007D01*
X-792214Y-4142214D01*
X-817007Y-4114859D01*
X-838999Y-4085206D01*
X-857979Y-4053539D01*
X-873763Y-4020166D01*
X-886201Y-3985405D01*
X-895171Y-3949593D01*
X-900588Y-3913074D01*
X-902400Y-3876200D01*
X-902400Y-3123800D01*
X-900588Y-3086926D01*
X-895171Y-3050407D01*
X-886201Y-3014595D01*
X-873763Y-2979834D01*
X-857979Y-2946461D01*
X-838999Y-2914794D01*
X-817007Y-2885141D01*
X-792214Y-2857786D01*
X-764859Y-2832993D01*
X-735206Y-2811001D01*
X-703539Y-2792021D01*
X-670166Y-2776237D01*
X-635405Y-2763799D01*
X-599593Y-2754829D01*
X-563074Y-2749412D01*
X-526200Y-2747600D01*
X526200Y-2747600D01*
X563074Y-2749412D01*
X563074Y-2749412D01*
G37*
D15*
X0Y-3500000D03*
D14*
G36*
X563074Y4250708D02*
X599593Y4245291D01*
X635405Y4236321D01*
X670166Y4223883D01*
X703539Y4208099D01*
X735206Y4189119D01*
X764859Y4167127D01*
X792214Y4142334D01*
X817007Y4114979D01*
X838999Y4085326D01*
X857979Y4053659D01*
X873763Y4020286D01*
X886201Y3985525D01*
X895171Y3949713D01*
X900588Y3913194D01*
X902400Y3876320D01*
X902400Y3123920D01*
X900588Y3087046D01*
X895171Y3050527D01*
X886201Y3014715D01*
X873763Y2979954D01*
X857979Y2946581D01*
X838999Y2914914D01*
X817007Y2885261D01*
X792214Y2857906D01*
X764859Y2833113D01*
X735206Y2811121D01*
X703539Y2792141D01*
X670166Y2776357D01*
X635405Y2763919D01*
X599593Y2754949D01*
X563074Y2749532D01*
X526200Y2747720D01*
X-526200Y2747720D01*
X-563074Y2749532D01*
X-599593Y2754949D01*
X-635405Y2763919D01*
X-670166Y2776357D01*
X-703539Y2792141D01*
X-735206Y2811121D01*
X-764859Y2833113D01*
X-792214Y2857906D01*
X-817007Y2885261D01*
X-838999Y2914914D01*
X-857979Y2946581D01*
X-873763Y2979954D01*
X-886201Y3014715D01*
X-895171Y3050527D01*
X-900588Y3087046D01*
X-902400Y3123920D01*
X-902400Y3876320D01*
X-900588Y3913194D01*
X-895171Y3949713D01*
X-886201Y3985525D01*
X-873763Y4020286D01*
X-857979Y4053659D01*
X-838999Y4085326D01*
X-817007Y4114979D01*
X-792214Y4142334D01*
X-764859Y4167127D01*
X-735206Y4189119D01*
X-703539Y4208099D01*
X-670166Y4223883D01*
X-635405Y4236321D01*
X-599593Y4245291D01*
X-563074Y4250708D01*
X-526200Y4252520D01*
X526200Y4252520D01*
X563074Y4250708D01*
X563074Y4250708D01*
G37*
D15*
X0Y3500120D03*
D16*
X1200000Y-5250000D03*
X1200000Y5250000D03*
G04 #@! TD*
D17*
G04 #@! TO.C,U3*
X-14810740Y3185160D03*
X-14160500Y3185160D03*
X-13510260Y3185160D03*
X-13510260Y1285240D03*
X-14160500Y1285240D03*
X-14810740Y1285240D03*
G04 #@! TD*
D18*
G04 #@! TO.C,U1*
X-8456012Y-545971D03*
D19*
X-7495892Y-2280791D03*
X-7996272Y-2280791D03*
X-8496652Y-2280791D03*
X-8997032Y-2280791D03*
X-9497412Y-2280791D03*
X-9997792Y-2280791D03*
X-10498172Y-2280791D03*
X-10998552Y-2280791D03*
X-11498932Y-2280791D03*
D20*
X-12273632Y-1506091D03*
X-12273632Y-1005711D03*
X-12273632Y-505331D03*
X-12273632Y-4951D03*
X-12273632Y495429D03*
X-12273632Y995809D03*
X-12273632Y1496189D03*
X-12273632Y1996569D03*
X-12273632Y2496949D03*
D19*
X-11498932Y3271649D03*
X-10998552Y3271649D03*
X-10498172Y3271649D03*
X-9997792Y3271649D03*
X-9497412Y3271649D03*
X-8997032Y3271649D03*
X-8496652Y3271649D03*
X-7996272Y3271649D03*
X-7495892Y3271649D03*
D20*
X-6721192Y2496949D03*
X-6721192Y1996569D03*
X-6721192Y1496189D03*
X-6721192Y995809D03*
X-6721192Y495429D03*
X-6721192Y-4951D03*
X-6721192Y-505331D03*
X-6721192Y-1005711D03*
X-6721192Y-1506091D03*
D18*
X-10538812Y-545971D03*
X-10538812Y1536829D03*
X-8456012Y1536829D03*
G04 #@! TD*
D21*
G04 #@! TO.C,D1*
X-16929100Y749300D03*
X-16929100Y-749300D03*
G04 #@! TD*
D22*
G04 #@! TO.C,C9*
X-4003040Y4749800D03*
X-2499360Y4749800D03*
G04 #@! TD*
D23*
G04 #@! TO.C,U2*
X-1578100Y2438400D03*
X-3578100Y1488400D03*
X-3578100Y3388400D03*
G04 #@! TD*
D24*
G04 #@! TO.C,X1*
X-3811763Y-1788774D03*
X-2109963Y-1788774D03*
X-2109963Y-3988414D03*
X-3811763Y-3988414D03*
G04 #@! TD*
D25*
G04 #@! TO.C,C2*
X-4003040Y-279400D03*
X-2905760Y-279400D03*
G04 #@! TD*
D26*
G04 #@! TO.C,C4*
X-5219700Y911860D03*
X-5219700Y2009140D03*
G04 #@! TD*
D25*
G04 #@! TO.C,C5*
X-7533640Y-3492500D03*
X-6436360Y-3492500D03*
G04 #@! TD*
G04 #@! TO.C,C6*
X-11173460Y4470400D03*
X-12270740Y4470400D03*
G04 #@! TD*
D26*
G04 #@! TO.C,C7*
X-13474700Y-1229360D03*
X-13474700Y-2326640D03*
G04 #@! TD*
G04 #@! TO.C,C1*
X-5207000Y-3210560D03*
X-5207000Y-4307840D03*
G04 #@! TD*
D25*
G04 #@! TO.C,C3*
X-9883140Y-3492500D03*
X-8785860Y-3492500D03*
G04 #@! TD*
G04 #@! TO.C,R1*
X-16880840Y-2540000D03*
X-15783560Y-2540000D03*
G04 #@! TD*
D27*
G04 #@! TO.C,C8*
X-5372100Y3319780D03*
X-5372100Y4823460D03*
G04 #@! TD*
M02*
