G04 #@! TF.GenerationSoftware,KiCad,Pcbnew,5.0.0-rc3+dfsg1-1*
G04 #@! TF.CreationDate,2018-07-17T13:15:56+09:00*
G04 #@! TF.ProjectId,fst-01,6673742D30312E6B696361645F706362,rev?*
G04 #@! TF.SameCoordinates,PX791ddc0PY5e69114*
G04 #@! TF.FileFunction,Legend,Bot*
G04 #@! TF.FilePolarity,Positive*
%FSLAX46Y46*%
G04 Gerber Fmt 4.6, Leading zero omitted, Abs format (unit mm)*
G04 Created by KiCad (PCBNEW 5.0.0-rc3+dfsg1-1) date Tue Jul 17 13:15:56 2018*
%MOMM*%
%LPD*%
G01*
G04 APERTURE LIST*
%ADD10C,0.304800*%
%ADD11C,0.200660*%
%ADD12C,0.457200*%
%ADD13C,0.762000*%
%ADD14C,0.152400*%
G04 APERTURE END LIST*
D10*
X723537Y-3085737D02*
X1231537Y-3085737D01*
X1231537Y-4150118D02*
X1231537Y-2118118D01*
X505822Y-2118118D01*
X-2178Y-4053356D02*
X-219892Y-4150118D01*
X-582749Y-4150118D01*
X-727892Y-4053356D01*
X-800463Y-3956594D01*
X-873035Y-3763070D01*
X-873035Y-3569546D01*
X-800463Y-3376022D01*
X-727892Y-3279260D01*
X-582749Y-3182499D01*
X-292463Y-3085737D01*
X-147320Y-2988975D01*
X-74749Y-2892213D01*
X-2178Y-2698689D01*
X-2178Y-2505165D01*
X-74749Y-2311641D01*
X-147320Y-2214880D01*
X-292463Y-2118118D01*
X-655320Y-2118118D01*
X-873035Y-2214880D01*
X-1308463Y-2118118D02*
X-2179320Y-2118118D01*
X-1743892Y-4150118D02*
X-1743892Y-2118118D01*
X-2687320Y-3376022D02*
X-3848463Y-3376022D01*
X-4864463Y-2118118D02*
X-5009606Y-2118118D01*
X-5154749Y-2214880D01*
X-5227320Y-2311641D01*
X-5299892Y-2505165D01*
X-5372463Y-2892213D01*
X-5372463Y-3376022D01*
X-5299892Y-3763070D01*
X-5227320Y-3956594D01*
X-5154749Y-4053356D01*
X-5009606Y-4150118D01*
X-4864463Y-4150118D01*
X-4719320Y-4053356D01*
X-4646749Y-3956594D01*
X-4574178Y-3763070D01*
X-4501606Y-3376022D01*
X-4501606Y-2892213D01*
X-4574178Y-2505165D01*
X-4646749Y-2311641D01*
X-4719320Y-2214880D01*
X-4864463Y-2118118D01*
X-6823892Y-4150118D02*
X-5953035Y-4150118D01*
X-6388463Y-4150118D02*
X-6388463Y-2118118D01*
X-6243320Y-2408403D01*
X-6098178Y-2601927D01*
X-5953035Y-2698689D01*
X-7404463Y-4053356D02*
X-7622178Y-4150118D01*
X-7985035Y-4150118D01*
X-8130178Y-4053356D01*
X-8202749Y-3956594D01*
X-8275320Y-3763070D01*
X-8275320Y-3569546D01*
X-8202749Y-3376022D01*
X-8130178Y-3279260D01*
X-7985035Y-3182499D01*
X-7694749Y-3085737D01*
X-7549606Y-2988975D01*
X-7477035Y-2892213D01*
X-7404463Y-2698689D01*
X-7404463Y-2505165D01*
X-7477035Y-2311641D01*
X-7549606Y-2214880D01*
X-7694749Y-2118118D01*
X-8057606Y-2118118D01*
X-8275320Y-2214880D01*
X-8783320Y-2118118D02*
X-9799320Y-2118118D01*
X-8783320Y-4150118D01*
X-9799320Y-4150118D01*
D11*
X671164Y331047D02*
X1385993Y331047D01*
X1528959Y378702D01*
X1624269Y474013D01*
X1671924Y616979D01*
X1671924Y712289D01*
X1671924Y-669713D02*
X1671924Y-97850D01*
X1671924Y-383781D02*
X671164Y-383781D01*
X814130Y-288471D01*
X909440Y-193160D01*
X957096Y-97850D01*
D12*
G04 #@! TO.C,FST-LOGO*
X-11833860Y683260D02*
X-13611860Y683260D01*
X-12087860Y1572260D02*
X-14373860Y1572260D01*
X-11579860Y-205740D02*
X-12595860Y-205740D01*
D13*
X-8150860Y1699260D02*
X-10690860Y1699260D01*
X-10690860Y1699260D02*
X-10690860Y-713740D01*
X-10690860Y-713740D02*
X-8150860Y-713740D01*
X-8150860Y-713740D02*
X-8150860Y1699260D01*
X-10690860Y48260D02*
X-9928860Y-713740D01*
X-8912860Y1699260D02*
X-8150860Y937260D01*
D14*
X-13212718Y-42454D02*
X-13648146Y-42454D01*
X-13430432Y-804454D02*
X-13430432Y-42454D01*
X-13902146Y-804454D02*
X-13902146Y-42454D01*
X-14156146Y-586740D01*
X-14410146Y-42454D01*
X-14410146Y-804454D01*
G04 #@! TD*
M02*
