M48
METRIC,TZ
T1C0.599
T2C0.889
T3C0.919
T4C1.001
T5C1.016
T6C1.100
%
G90
G05
T1
X-018047Y-005728
X-015037Y-002032
X-012543Y-000325
X-011582Y003200
X-009804Y001397
X-009804Y-000635
X-007772Y001397
X-007772Y-000635
X-006833Y-004915
X-005918Y003200
X-005690Y-004521
X-004521Y-003150
T2
X000000Y001001
X000000Y-001001
T3
X000000Y003500
X000000Y-003500
T5
X-019812Y005080
X-019812Y002540
X-019812Y000000
X-017272Y000000
X-007112Y005080
X-004572Y005080
X-002032Y005080
T6
X002101Y002250
X002101Y-002250
T4
X002850Y005700G85X001351Y005700
G05
X002850Y-005700G85X001351Y-005700
G05
T0
M30
