G04 #@! TF.FileFunction,Copper,L1,Top,Signal*
%FSLAX46Y46*%
G04 Gerber Fmt 4.6, Leading zero omitted, Abs format (unit mm)*
G04 Created by KiCad (PCBNEW 4.0.2+dfsg1-stable) date Thu 01 Sep 2016 08:28:52 AM JST*
%MOMM*%
G01*
G04 APERTURE LIST*
%ADD10C,0.150000*%
%ADD11R,1.524000X1.524000*%
%ADD12C,1.524000*%
%ADD13R,0.500380X0.398780*%
%ADD14R,0.749300X0.500380*%
%ADD15R,1.198880X0.548640*%
%ADD16R,0.797560X0.797560*%
%ADD17O,3.500120X1.501140*%
%ADD18C,1.399540*%
%ADD19C,1.518920*%
%ADD20C,1.099820*%
%ADD21R,1.905000X1.905000*%
%ADD22R,0.749300X0.299720*%
%ADD23R,0.299720X0.749300*%
%ADD24R,1.397000X1.193800*%
%ADD25R,0.698500X0.800100*%
%ADD26R,0.800100X0.698500*%
%ADD27R,0.899160X1.000760*%
%ADD28C,0.800100*%
%ADD29C,0.200660*%
%ADD30C,0.599440*%
%ADD31C,0.294640*%
%ADD32C,0.248920*%
%ADD33C,0.254000*%
G04 APERTURE END LIST*
D10*
D11*
X-7112000Y5080000D03*
D12*
X-4572000Y5080000D03*
X-2032000Y5080000D03*
D13*
X-3337560Y1463040D03*
X-3337560Y812800D03*
X-3337560Y162560D03*
X-1437640Y162560D03*
X-1437640Y812800D03*
X-1437640Y1463040D03*
D14*
X-13759180Y-3175000D03*
X-13759180Y-1905000D03*
X-13759180Y-4445000D03*
X-19006820Y-1905000D03*
X-19006820Y-3175000D03*
X-19006820Y-4445000D03*
X-19006820Y-5715000D03*
X-13759180Y-5715000D03*
D12*
X-19812000Y0D03*
X-17272000Y0D03*
D11*
X-19812000Y5080000D03*
X-19812000Y2540000D03*
D15*
X-1851660Y-4124960D03*
X-1851660Y-3175000D03*
X-1851660Y-2225040D03*
X-4447540Y-2225040D03*
X-4449600Y-4125000D03*
D16*
X-8115300Y-5689600D03*
X-6616700Y-5689600D03*
D17*
X2100580Y5699760D03*
X2100580Y-5699760D03*
D18*
X0Y-1000760D03*
X0Y1000760D03*
D19*
X0Y-3500120D03*
X0Y3500120D03*
D20*
X2100580Y-2250440D03*
X2100580Y2250440D03*
D21*
X-9829800Y-660400D03*
X-7747000Y-660400D03*
X-7747000Y1422400D03*
D22*
X-11564620Y2382520D03*
X-11564620Y1882140D03*
X-11564620Y1381760D03*
X-11564620Y881380D03*
X-11564620Y381000D03*
X-11564620Y-119380D03*
X-11564620Y-619760D03*
X-11564620Y-1120140D03*
X-11564620Y-1620520D03*
D23*
X-10789920Y-2395220D03*
X-10289540Y-2395220D03*
X-9789160Y-2395220D03*
X-9288780Y-2395220D03*
X-8788400Y-2395220D03*
X-8288020Y-2395220D03*
X-7787640Y-2395220D03*
X-7287260Y-2395220D03*
X-6786880Y-2395220D03*
D22*
X-6012180Y-1620520D03*
X-6012180Y-1120140D03*
X-6012180Y-619760D03*
X-6012180Y-119380D03*
X-6012180Y381000D03*
X-6012180Y881380D03*
X-6012180Y1381760D03*
X-6012180Y1882140D03*
X-6012180Y2382520D03*
D23*
X-6786880Y3157220D03*
X-7287260Y3157220D03*
X-7787640Y3157220D03*
X-8288020Y3157220D03*
X-8788400Y3157220D03*
X-9288780Y3157220D03*
X-9789160Y3157220D03*
X-10289540Y3157220D03*
X-10789920Y3157220D03*
D21*
X-9829800Y1422400D03*
D24*
X-16212820Y3721100D03*
X-16212820Y5422900D03*
X-14013180Y5422900D03*
X-14013180Y3721100D03*
D25*
X-20320000Y-5679440D03*
X-20320000Y-4582160D03*
D26*
X-4358640Y-1168400D03*
X-3261360Y-1168400D03*
D25*
X-17627600Y4023360D03*
X-17627600Y5120640D03*
D26*
X-14569440Y0D03*
X-13472160Y0D03*
X-10525760Y4368800D03*
X-11623040Y4368800D03*
X-7025640Y-3556000D03*
X-5928360Y-3556000D03*
D25*
X-4800600Y2092960D03*
X-4800600Y3190240D03*
D26*
X-11623040Y5588000D03*
X-10525760Y5588000D03*
X-13472160Y1524000D03*
X-14569440Y1524000D03*
X-9382760Y-5740400D03*
X-10480040Y-5740400D03*
D27*
X-5323840Y-5588000D03*
X-3820160Y-5588000D03*
X-1026160Y-5588000D03*
X-2529840Y-5588000D03*
D28*
X-18046700Y-5727700D03*
X-7772400Y1397000D03*
X-7772400Y-635000D03*
X-9804400Y-635000D03*
X-9804400Y1397000D03*
X-6832600Y-4914900D03*
X-5918200Y3200400D03*
X-4521200Y-3149600D03*
X-15036800Y-2032000D03*
X-5689600Y-4521200D03*
X-11582400Y3200400D03*
X-12542520Y-325120D03*
D29*
X-9789160Y-3583940D02*
X-10058400Y-3853180D01*
X-10058400Y-3853180D02*
X-11219180Y-3853180D01*
X-11219180Y-3853180D02*
X-11811000Y-4445000D01*
X-11811000Y-4445000D02*
X-13759180Y-4445000D01*
X-9789160Y-2395220D02*
X-9789160Y-3583940D01*
X-3566160Y1463040D02*
X-4147820Y881380D01*
X-4147820Y881380D02*
X-6012180Y881380D01*
X-3337560Y1463040D02*
X-3566160Y1463040D01*
X-1076960Y1463040D02*
X-482600Y2057400D01*
X-482600Y2057400D02*
X457200Y2057400D01*
X457200Y2057400D02*
X1041400Y1473200D01*
X1041400Y1473200D02*
X1041400Y40640D01*
X1041400Y40640D02*
X0Y-1000760D01*
X-1437640Y1463040D02*
X-1076960Y1463040D01*
X-4038600Y381000D02*
X-3820160Y162560D01*
X-3820160Y162560D02*
X-3337560Y162560D01*
X-6012180Y381000D02*
X-4038600Y381000D01*
X-838200Y162560D02*
X0Y1000760D01*
X-1437640Y162560D02*
X-838200Y162560D01*
X-8288020Y-4478020D02*
X-8890000Y-5080000D01*
X-8890000Y-5080000D02*
X-10287000Y-5080000D01*
X-10287000Y-5080000D02*
X-10480040Y-5273040D01*
X-10480040Y-5273040D02*
X-10480040Y-5740400D01*
X-8288020Y-2395220D02*
X-8288020Y-4478020D01*
X-9288780Y-4203700D02*
X-9347200Y-4262120D01*
X-9347200Y-4262120D02*
X-11018520Y-4262120D01*
X-11018520Y-4262120D02*
X-11836400Y-5080000D01*
X-11836400Y-5080000D02*
X-14427200Y-5080000D01*
X-14427200Y-5080000D02*
X-16332200Y-3175000D01*
X-16332200Y-3175000D02*
X-19006820Y-3175000D01*
X-9288780Y-2395220D02*
X-9288780Y-4203700D01*
X-8788400Y-4343400D02*
X-9116060Y-4671060D01*
X-9116060Y-4671060D02*
X-10716260Y-4671060D01*
X-10716260Y-4671060D02*
X-11760200Y-5715000D01*
X-11760200Y-5715000D02*
X-13759180Y-5715000D01*
X-8788400Y-2395220D02*
X-8788400Y-4343400D01*
X-12412980Y881380D02*
X-12954000Y1422400D01*
X-12954000Y1422400D02*
X-13370560Y1422400D01*
X-13370560Y1422400D02*
X-13472160Y1524000D01*
X-11564620Y881380D02*
X-12412980Y881380D01*
X-10289540Y-3065780D02*
X-10627360Y-3403600D01*
X-10627360Y-3403600D02*
X-12547600Y-3403600D01*
X-12547600Y-3403600D02*
X-12954000Y-3810000D01*
X-12954000Y-3810000D02*
X-15087600Y-3810000D01*
X-15087600Y-3810000D02*
X-16992600Y-1905000D01*
X-16992600Y-1905000D02*
X-19006820Y-1905000D01*
X-10289540Y-2395220D02*
X-10289540Y-3065780D01*
X-13804900Y5422900D02*
X-12341860Y3959860D01*
X-12341860Y3959860D02*
X-12341860Y2080260D01*
X-12341860Y2080260D02*
X-12143740Y1882140D01*
X-12143740Y1882140D02*
X-11564620Y1882140D01*
X-14013180Y5422900D02*
X-13804900Y5422900D01*
X-11788140Y5422900D02*
X-11623040Y5588000D01*
X-14013180Y5422900D02*
X-11788140Y5422900D01*
X-16040100Y3721100D02*
X-16179800Y3860800D01*
X-16179800Y3860800D02*
X-16179800Y3657600D01*
X-16179800Y3657600D02*
X-14859000Y2336800D01*
X-14859000Y2336800D02*
X-12750800Y2336800D01*
X-12750800Y2336800D02*
X-12750800Y2336800D01*
X-12750800Y2336800D02*
X-12750800Y1828800D01*
X-12750800Y1828800D02*
X-12303760Y1381760D01*
X-12303760Y1381760D02*
X-11564620Y1381760D01*
X-16212820Y3721100D02*
X-16040100Y3721100D01*
X-16489680Y4023360D02*
X-16212820Y3721100D01*
X-17627600Y4023360D02*
X-16489680Y4023360D01*
X-12247880Y-1620520D02*
X-13007340Y-861060D01*
X-13007340Y-861060D02*
X-15674340Y-861060D01*
X-15674340Y-861060D02*
X-16141700Y-393700D01*
X-16141700Y-393700D02*
X-16141700Y469900D01*
X-16141700Y469900D02*
X-16802100Y1130300D01*
X-16802100Y1130300D02*
X-18681700Y1130300D01*
X-18681700Y1130300D02*
X-19812000Y0D01*
X-11564620Y-1620520D02*
X-12247880Y-1620520D01*
X-12844780Y-2395220D02*
X-13004800Y-2235200D01*
X-13004800Y-2235200D02*
X-13004800Y-1473200D01*
X-13004800Y-1473200D02*
X-13208000Y-1270000D01*
X-13208000Y-1270000D02*
X-16002000Y-1270000D01*
X-16002000Y-1270000D02*
X-17272000Y0D01*
X-10789920Y-2395220D02*
X-12844780Y-2395220D01*
X-6786880Y3881120D02*
X-6731000Y3937000D01*
X-6731000Y3937000D02*
X-5715000Y3937000D01*
X-5715000Y3937000D02*
X-4572000Y5080000D01*
X-6786880Y3157220D02*
X-6786880Y3881120D01*
X-4282440Y1381760D02*
X-4127500Y1536700D01*
X-4127500Y1536700D02*
X-4127500Y3848100D01*
X-4127500Y3848100D02*
X-2895600Y5080000D01*
X-2895600Y5080000D02*
X-2032000Y5080000D01*
X-6012180Y1381760D02*
X-4282440Y1381760D01*
D30*
X-1209040Y-4124960D02*
X-558800Y-4775200D01*
X-558800Y-4775200D02*
X152400Y-4775200D01*
X-1831340Y-4124960D02*
X-1209040Y-4124960D01*
X-965200Y-5588000D02*
X-609600Y-5232400D01*
X-609600Y-5232400D02*
X-101600Y-5232400D01*
X-1026160Y-5588000D02*
X-965200Y-5588000D01*
X-1209040Y-4124960D02*
X-1831340Y-4124960D01*
X-1026160Y-4307840D02*
X-1209040Y-4124960D01*
X-1026160Y-5588000D02*
X-1026160Y-4307840D01*
D29*
X-1209040Y-4124960D02*
X-1831340Y-4124960D01*
X535940Y-2225040D02*
X1295400Y-2984500D01*
X1295400Y-2984500D02*
X1295400Y-4292600D01*
X1295400Y-4292600D02*
X965200Y-4622800D01*
X965200Y-4622800D02*
X-711200Y-4622800D01*
X-711200Y-4622800D02*
X-1209040Y-4124960D01*
X-1831340Y-2225040D02*
X535940Y-2225040D01*
X-11564620Y381000D02*
X-10971200Y381000D01*
X-10971200Y381000D02*
X-9929800Y-660400D01*
D30*
X-3237700Y-3137700D02*
X-3237700Y-4562300D01*
X-3237700Y-4562300D02*
X-2529840Y-5270160D01*
X-2529840Y-5270160D02*
X-2529840Y-5588000D01*
D29*
X-19042380Y-5679440D02*
X-19006820Y-5643880D01*
X-19006820Y-5643880D02*
X-19006820Y-4445000D01*
X-20320000Y-5679440D02*
X-19042380Y-5679440D01*
X-12522200Y381000D02*
X-12852400Y711200D01*
X-12852400Y711200D02*
X-14579600Y711200D01*
X-14579600Y711200D02*
X-14569440Y721360D01*
X-14569440Y721360D02*
X-14569440Y1524000D01*
X-11564620Y381000D02*
X-12522200Y381000D01*
X-14569440Y0D02*
X-14569440Y721360D01*
X-7287260Y-3294380D02*
X-7025640Y-3556000D01*
X-7287260Y-2395220D02*
X-7287260Y-3294380D01*
X-6786880Y-3317240D02*
X-7025640Y-3556000D01*
X-6786880Y-2395220D02*
X-6786880Y-3317240D01*
X-10789920Y4104640D02*
X-10525760Y4368800D01*
X-10789920Y3157220D02*
X-10789920Y4104640D01*
X-10289540Y4132580D02*
X-10525760Y4368800D01*
X-10289540Y3157220D02*
X-10289540Y4132580D01*
X-7025640Y-4378960D02*
X-6616700Y-4787900D01*
X-7025640Y-3556000D02*
X-7025640Y-4378960D01*
X-16489680Y5120640D02*
X-16212820Y5422900D01*
X-17627600Y5120640D02*
X-16489680Y5120640D01*
X-16090900Y5422900D02*
X-15240000Y4572000D01*
X-15240000Y4572000D02*
X-14986000Y4572000D01*
X-14986000Y4572000D02*
X-14135100Y3721100D01*
X-14135100Y3721100D02*
X-14013180Y3721100D01*
X-16212820Y5422900D02*
X-15963900Y5422900D01*
D30*
X-325120Y-3175000D02*
X0Y-3500120D01*
X-1831340Y-3175000D02*
X-325120Y-3175000D01*
X-18046700Y-5727700D02*
X-18059400Y-5715000D01*
X-18059400Y-5715000D02*
X-19006820Y-5715000D01*
X-3261360Y-3114040D02*
X-3237700Y-3137700D01*
X-3237700Y-3137700D02*
X-3200400Y-3175000D01*
X-3200400Y-3175000D02*
X-1831340Y-3175000D01*
X-3261360Y-1168400D02*
X-3261360Y-3114040D01*
D31*
X-5011420Y1882140D02*
X-4800600Y2092960D01*
X-6012180Y1882140D02*
X-5011420Y1882140D01*
X-6012180Y1882140D02*
X-7287260Y1882140D01*
X-9575800Y2108200D02*
X-9150000Y2100000D01*
X-10795000Y2108200D02*
X-9575800Y2108200D01*
X-10789920Y3157220D02*
X-10795000Y2108200D01*
X-10289540Y1882140D02*
X-10300000Y700000D01*
X-10289540Y3157220D02*
X-10289540Y1882140D01*
X-7287260Y-2395220D02*
X-7287260Y-1120140D01*
X-6790000Y-1300000D02*
X-8350000Y-1300000D01*
X-6786880Y-1620520D02*
X-6790000Y-1300000D01*
X-6786880Y-2395220D02*
X-6786880Y-1620520D01*
X-7112000Y6197600D02*
X-7010400Y6197600D01*
X-7010400Y6197600D02*
X-1473200Y6197600D01*
X-1473200Y6197600D02*
X-914400Y5638800D01*
X-914400Y5638800D02*
X-914400Y4368800D01*
X-914400Y4368800D02*
X-2692400Y2590800D01*
X-2692400Y2590800D02*
X-2692400Y863600D01*
X-2692400Y863600D02*
X-2743200Y812800D01*
X-2743200Y812800D02*
X-3337560Y812800D01*
X-7112000Y5080000D02*
X-7112000Y6197600D01*
X-8737600Y5588000D02*
X-8534400Y5791200D01*
X-8534400Y5791200D02*
X-8534400Y6146800D01*
X-8534400Y6146800D02*
X-8483600Y6197600D01*
X-8483600Y6197600D02*
X-7112000Y6197600D01*
X-10525760Y5588000D02*
X-8737600Y5588000D01*
X-10525760Y5588000D02*
X-10525760Y4368800D01*
D29*
X-6616700Y-4787900D02*
X-6616700Y-5689600D01*
D30*
X-6616700Y-5130800D02*
X-6832600Y-4914900D01*
X-6616700Y-5689600D02*
X-6616700Y-5130800D01*
D29*
X-1437640Y812800D02*
X-2087200Y812800D01*
X-5120520Y-1620520D02*
X-6012180Y-1620520D01*
X-5100000Y-1600000D02*
X-5120520Y-1620520D01*
X-5100000Y-600000D02*
X-5100000Y-1600000D01*
X-4900000Y-400000D02*
X-5100000Y-600000D01*
X-2500000Y-400000D02*
X-4900000Y-400000D01*
X-2400000Y-300000D02*
X-2500000Y-400000D01*
X-2400000Y500000D02*
X-2400000Y-300000D01*
X-2087200Y812800D02*
X-2400000Y500000D01*
D31*
X-20116800Y-1524000D02*
X-20116800Y-4267200D01*
X-20116800Y-4267200D02*
X-20320000Y-4582160D01*
X-19812000Y-1219200D02*
X-20116800Y-1524000D01*
X-16764000Y-1219200D02*
X-19812000Y-1219200D01*
X-16078200Y-1905000D02*
X-16764000Y-1219200D01*
X-13759180Y-1905000D02*
X-16078200Y-1905000D01*
X-13759180Y-3175000D02*
X-13759180Y-1905000D01*
D30*
X-11582400Y3200400D02*
X-11623040Y3368040D01*
X-11623040Y3368040D02*
X-11623040Y4368800D01*
D31*
X-6177280Y-3307080D02*
X-5928360Y-3556000D01*
X-6177280Y-1633220D02*
X-6177280Y-3307080D01*
X-5567680Y-1620520D02*
X-5435600Y-1752600D01*
X-5435600Y-1752600D02*
X-5435600Y-2768600D01*
X-5435600Y-2768600D02*
X-5130800Y-3073400D01*
X-5130800Y-3073400D02*
X-4732020Y-3073400D01*
X-4732020Y-3073400D02*
X-4467860Y-3345180D01*
X-4467860Y-3345180D02*
X-4467860Y-4124960D01*
X-6012180Y-1620520D02*
X-5567680Y-1620520D01*
X-11328400Y3035300D02*
X-11582400Y3200400D01*
X-11328400Y2387600D02*
X-11328400Y3035300D01*
X-11549380Y2382520D02*
X-11328400Y2387600D01*
X-11564620Y2382520D02*
X-11549380Y2382520D01*
X-11772900Y2387600D02*
X-11772900Y4076700D01*
X-11772900Y4076700D02*
X-11623040Y4368800D01*
X-11564620Y2382520D02*
X-11772900Y2387600D01*
D30*
X-5857240Y-4124960D02*
X-5928360Y-4053840D01*
X-5928360Y-4053840D02*
X-5928360Y-3556000D01*
X-4467860Y-4124960D02*
X-5857240Y-4124960D01*
X-5323840Y-4160520D02*
X-5288280Y-4124960D01*
X-5288280Y-4124960D02*
X-4467860Y-4124960D01*
X-5323840Y-5588000D02*
X-5323840Y-4160520D01*
X-6088380Y3195320D02*
X-4800600Y3190240D01*
X-4467860Y-3558540D02*
X-4521200Y-3149600D01*
X-4467860Y-4124960D02*
X-4467860Y-3558540D01*
X-15036800Y-2032000D02*
X-14909800Y-1905000D01*
X-5323840Y-4485640D02*
X-5689600Y-4521200D01*
X-14909800Y-1905000D02*
X-13759180Y-1905000D01*
X-5323840Y-5588000D02*
X-5323840Y-4485640D01*
D31*
X-5615940Y2382520D02*
X-5593080Y2402840D01*
X-5593080Y2402840D02*
X-5593080Y3088640D01*
X-5593080Y3088640D02*
X-5491480Y3190240D01*
X-5491480Y3190240D02*
X-4800600Y3190240D01*
X-6012180Y2382520D02*
X-5615940Y2382520D01*
X-6024880Y2382520D02*
X-6240780Y2382520D01*
X-6240780Y2382520D02*
X-6240780Y3220720D01*
X-6240780Y3220720D02*
X-6210300Y3225800D01*
X-6210300Y3225800D02*
X-5918200Y3200400D01*
X-6012180Y2382520D02*
X-6024880Y2382520D01*
X-5323840Y-4485640D02*
X-5323840Y-5588000D01*
D30*
X-12537440Y-325120D02*
X-12542520Y-325120D01*
D29*
X-12331700Y-119380D02*
X-12537440Y-325120D01*
X-11564620Y-119380D02*
X-12331700Y-119380D01*
D31*
X-13352780Y-119380D02*
X-13472160Y0D01*
X-11564620Y-119380D02*
X-13352780Y-119380D01*
D29*
X-4358640Y-2115820D02*
X-4467860Y-2225040D01*
X-4358640Y-1168400D02*
X-4358640Y-2115820D01*
X-8166100Y-5740400D02*
X-8115300Y-5689600D01*
X-9382760Y-5740400D02*
X-8166100Y-5740400D01*
D32*
G36*
X-17543780Y6145604D02*
X-17543780Y5710555D01*
X-17498060Y5664835D01*
X-17498060Y5250180D01*
X-17478060Y5250180D01*
X-17478060Y5200965D01*
X-17543780Y5135245D01*
X-17543780Y4971100D01*
X-17757140Y4971100D01*
X-17757140Y4991100D01*
X-18451195Y4991100D01*
X-18609310Y4832985D01*
X-18609310Y4594786D01*
X-18513024Y4362330D01*
X-18335110Y4184416D01*
X-18308339Y4173327D01*
X-18308339Y3623310D01*
X-18285669Y3502828D01*
X-18214464Y3392172D01*
X-18105818Y3317938D01*
X-17976850Y3291821D01*
X-17278350Y3291821D01*
X-17242809Y3298508D01*
X-17242809Y3124200D01*
X-17220139Y3003718D01*
X-17148934Y2893062D01*
X-17040288Y2818828D01*
X-16911320Y2792711D01*
X-15916589Y2792711D01*
X-15430526Y2306648D01*
X-15505664Y2231510D01*
X-15601950Y1999054D01*
X-15601950Y1811655D01*
X-15443835Y1653540D01*
X-14698980Y1653540D01*
X-14698980Y1673540D01*
X-14439900Y1673540D01*
X-14439900Y1653540D01*
X-14419900Y1653540D01*
X-14419900Y1394460D01*
X-14439900Y1394460D01*
X-14439900Y129540D01*
X-14419900Y129540D01*
X-14419900Y-129540D01*
X-14439900Y-129540D01*
X-14439900Y-149540D01*
X-14698980Y-149540D01*
X-14698980Y-129540D01*
X-15443835Y-129540D01*
X-15601950Y-287655D01*
X-15601950Y-331773D01*
X-15716250Y-217472D01*
X-15716250Y469895D01*
X-15716249Y469900D01*
X-15744324Y611038D01*
X-15748635Y632713D01*
X-15840861Y770739D01*
X-15840864Y770741D01*
X-16306467Y1236345D01*
X-15601950Y1236345D01*
X-15601950Y1048946D01*
X-15505664Y816490D01*
X-15451174Y762000D01*
X-15505664Y707510D01*
X-15601950Y475054D01*
X-15601950Y287655D01*
X-15443835Y129540D01*
X-14698980Y129540D01*
X-14698980Y1394460D01*
X-15443835Y1394460D01*
X-15601950Y1236345D01*
X-16306467Y1236345D01*
X-16501261Y1431139D01*
X-16639287Y1523365D01*
X-16802100Y1555751D01*
X-16802105Y1555750D01*
X-18457489Y1555750D01*
X-18417540Y1652196D01*
X-18417540Y2252345D01*
X-18575655Y2410460D01*
X-19682460Y2410460D01*
X-19682460Y1303655D01*
X-19524345Y1145540D01*
X-19268137Y1145540D01*
X-19405397Y1008280D01*
X-19594810Y1086931D01*
X-20027293Y1087308D01*
X-20427000Y922153D01*
X-20733078Y616608D01*
X-20898931Y217190D01*
X-20899308Y-215293D01*
X-20734153Y-615000D01*
X-20428608Y-921078D01*
X-20254362Y-993431D01*
X-20450866Y-1189934D01*
X-20553278Y-1343205D01*
X-20589241Y-1524000D01*
X-20589240Y-1524005D01*
X-20589240Y-3850621D01*
X-20669250Y-3850621D01*
X-20789732Y-3873291D01*
X-20900388Y-3944496D01*
X-20974622Y-4053142D01*
X-21000739Y-4182110D01*
X-21000739Y-4732127D01*
X-21027510Y-4743216D01*
X-21205424Y-4921130D01*
X-21301710Y-5153586D01*
X-21301710Y-5391785D01*
X-21143595Y-5549900D01*
X-20449540Y-5549900D01*
X-20449540Y-5529900D01*
X-20190460Y-5529900D01*
X-20190460Y-5549900D01*
X-19895820Y-5549900D01*
X-19855815Y-5589905D01*
X-19136360Y-5589905D01*
X-19136360Y-4570095D01*
X-18877280Y-4570095D01*
X-18877280Y-5589905D01*
X-18157825Y-5589905D01*
X-17999710Y-5431790D01*
X-17999710Y-5339006D01*
X-18095996Y-5106550D01*
X-18122546Y-5080000D01*
X-18095996Y-5053450D01*
X-17999710Y-4820994D01*
X-17999710Y-4728210D01*
X-18157825Y-4570095D01*
X-18877280Y-4570095D01*
X-19136360Y-4570095D01*
X-19156360Y-4570095D01*
X-19156360Y-4319905D01*
X-19136360Y-4319905D01*
X-19136360Y-4295460D01*
X-18877280Y-4295460D01*
X-18877280Y-4319905D01*
X-18157825Y-4319905D01*
X-17999710Y-4161790D01*
X-17999710Y-4069006D01*
X-18095996Y-3836550D01*
X-18273910Y-3658636D01*
X-18370771Y-3618515D01*
X-18358428Y-3600450D01*
X-16508428Y-3600450D01*
X-14728041Y-5380836D01*
X-14728039Y-5380839D01*
X-14640155Y-5439561D01*
X-14590013Y-5473065D01*
X-14465319Y-5497869D01*
X-14465319Y-5965190D01*
X-14442649Y-6085672D01*
X-14371444Y-6196328D01*
X-14360289Y-6203950D01*
X-18046498Y-6203950D01*
X-17999710Y-6090994D01*
X-17999710Y-5998210D01*
X-18157825Y-5840095D01*
X-18877280Y-5840095D01*
X-18877280Y-5864540D01*
X-19136360Y-5864540D01*
X-19136360Y-5840095D01*
X-19465290Y-5840095D01*
X-19496405Y-5808980D01*
X-20190460Y-5808980D01*
X-20190460Y-5828980D01*
X-20449540Y-5828980D01*
X-20449540Y-5808980D01*
X-21143595Y-5808980D01*
X-21301710Y-5967095D01*
X-21301710Y-6203950D01*
X-21309330Y-6203950D01*
X-21309330Y2252345D01*
X-21206460Y2252345D01*
X-21206460Y1652196D01*
X-21110174Y1419740D01*
X-20932260Y1241826D01*
X-20699804Y1145540D01*
X-20099655Y1145540D01*
X-19941540Y1303655D01*
X-19941540Y2410460D01*
X-21048345Y2410460D01*
X-21206460Y2252345D01*
X-21309330Y2252345D01*
X-21309330Y3427804D01*
X-21206460Y3427804D01*
X-21206460Y2827655D01*
X-21048345Y2669540D01*
X-19941540Y2669540D01*
X-19941540Y3776345D01*
X-19682460Y3776345D01*
X-19682460Y2669540D01*
X-18575655Y2669540D01*
X-18417540Y2827655D01*
X-18417540Y3427804D01*
X-18513826Y3660260D01*
X-18691740Y3838174D01*
X-18924196Y3934460D01*
X-19524345Y3934460D01*
X-19682460Y3776345D01*
X-19941540Y3776345D01*
X-20099655Y3934460D01*
X-20699804Y3934460D01*
X-20932260Y3838174D01*
X-21110174Y3660260D01*
X-21206460Y3427804D01*
X-21309330Y3427804D01*
X-21309330Y5842000D01*
X-20905489Y5842000D01*
X-20905489Y4318000D01*
X-20882819Y4197518D01*
X-20811614Y4086862D01*
X-20702968Y4012628D01*
X-20574000Y3986511D01*
X-19050000Y3986511D01*
X-18929518Y4009181D01*
X-18818862Y4080386D01*
X-18744628Y4189032D01*
X-18718511Y4318000D01*
X-18718511Y5646494D01*
X-18609310Y5646494D01*
X-18609310Y5408295D01*
X-18451195Y5250180D01*
X-17757140Y5250180D01*
X-17757140Y5995035D01*
X-17915255Y6153150D01*
X-18102654Y6153150D01*
X-18335110Y6056864D01*
X-18513024Y5878950D01*
X-18609310Y5646494D01*
X-18718511Y5646494D01*
X-18718511Y5842000D01*
X-18741181Y5962482D01*
X-18812386Y6073138D01*
X-18921032Y6147372D01*
X-19050000Y6173489D01*
X-20574000Y6173489D01*
X-20694482Y6150819D01*
X-20805138Y6079614D01*
X-20879372Y5970968D01*
X-20905489Y5842000D01*
X-21309330Y5842000D01*
X-21309330Y6196330D01*
X-17522769Y6196330D01*
X-17543780Y6145604D01*
X-17543780Y6145604D01*
G37*
X-17543780Y6145604D02*
X-17543780Y5710555D01*
X-17498060Y5664835D01*
X-17498060Y5250180D01*
X-17478060Y5250180D01*
X-17478060Y5200965D01*
X-17543780Y5135245D01*
X-17543780Y4971100D01*
X-17757140Y4971100D01*
X-17757140Y4991100D01*
X-18451195Y4991100D01*
X-18609310Y4832985D01*
X-18609310Y4594786D01*
X-18513024Y4362330D01*
X-18335110Y4184416D01*
X-18308339Y4173327D01*
X-18308339Y3623310D01*
X-18285669Y3502828D01*
X-18214464Y3392172D01*
X-18105818Y3317938D01*
X-17976850Y3291821D01*
X-17278350Y3291821D01*
X-17242809Y3298508D01*
X-17242809Y3124200D01*
X-17220139Y3003718D01*
X-17148934Y2893062D01*
X-17040288Y2818828D01*
X-16911320Y2792711D01*
X-15916589Y2792711D01*
X-15430526Y2306648D01*
X-15505664Y2231510D01*
X-15601950Y1999054D01*
X-15601950Y1811655D01*
X-15443835Y1653540D01*
X-14698980Y1653540D01*
X-14698980Y1673540D01*
X-14439900Y1673540D01*
X-14439900Y1653540D01*
X-14419900Y1653540D01*
X-14419900Y1394460D01*
X-14439900Y1394460D01*
X-14439900Y129540D01*
X-14419900Y129540D01*
X-14419900Y-129540D01*
X-14439900Y-129540D01*
X-14439900Y-149540D01*
X-14698980Y-149540D01*
X-14698980Y-129540D01*
X-15443835Y-129540D01*
X-15601950Y-287655D01*
X-15601950Y-331773D01*
X-15716250Y-217472D01*
X-15716250Y469895D01*
X-15716249Y469900D01*
X-15744324Y611038D01*
X-15748635Y632713D01*
X-15840861Y770739D01*
X-15840864Y770741D01*
X-16306467Y1236345D01*
X-15601950Y1236345D01*
X-15601950Y1048946D01*
X-15505664Y816490D01*
X-15451174Y762000D01*
X-15505664Y707510D01*
X-15601950Y475054D01*
X-15601950Y287655D01*
X-15443835Y129540D01*
X-14698980Y129540D01*
X-14698980Y1394460D01*
X-15443835Y1394460D01*
X-15601950Y1236345D01*
X-16306467Y1236345D01*
X-16501261Y1431139D01*
X-16639287Y1523365D01*
X-16802100Y1555751D01*
X-16802105Y1555750D01*
X-18457489Y1555750D01*
X-18417540Y1652196D01*
X-18417540Y2252345D01*
X-18575655Y2410460D01*
X-19682460Y2410460D01*
X-19682460Y1303655D01*
X-19524345Y1145540D01*
X-19268137Y1145540D01*
X-19405397Y1008280D01*
X-19594810Y1086931D01*
X-20027293Y1087308D01*
X-20427000Y922153D01*
X-20733078Y616608D01*
X-20898931Y217190D01*
X-20899308Y-215293D01*
X-20734153Y-615000D01*
X-20428608Y-921078D01*
X-20254362Y-993431D01*
X-20450866Y-1189934D01*
X-20553278Y-1343205D01*
X-20589241Y-1524000D01*
X-20589240Y-1524005D01*
X-20589240Y-3850621D01*
X-20669250Y-3850621D01*
X-20789732Y-3873291D01*
X-20900388Y-3944496D01*
X-20974622Y-4053142D01*
X-21000739Y-4182110D01*
X-21000739Y-4732127D01*
X-21027510Y-4743216D01*
X-21205424Y-4921130D01*
X-21301710Y-5153586D01*
X-21301710Y-5391785D01*
X-21143595Y-5549900D01*
X-20449540Y-5549900D01*
X-20449540Y-5529900D01*
X-20190460Y-5529900D01*
X-20190460Y-5549900D01*
X-19895820Y-5549900D01*
X-19855815Y-5589905D01*
X-19136360Y-5589905D01*
X-19136360Y-4570095D01*
X-18877280Y-4570095D01*
X-18877280Y-5589905D01*
X-18157825Y-5589905D01*
X-17999710Y-5431790D01*
X-17999710Y-5339006D01*
X-18095996Y-5106550D01*
X-18122546Y-5080000D01*
X-18095996Y-5053450D01*
X-17999710Y-4820994D01*
X-17999710Y-4728210D01*
X-18157825Y-4570095D01*
X-18877280Y-4570095D01*
X-19136360Y-4570095D01*
X-19156360Y-4570095D01*
X-19156360Y-4319905D01*
X-19136360Y-4319905D01*
X-19136360Y-4295460D01*
X-18877280Y-4295460D01*
X-18877280Y-4319905D01*
X-18157825Y-4319905D01*
X-17999710Y-4161790D01*
X-17999710Y-4069006D01*
X-18095996Y-3836550D01*
X-18273910Y-3658636D01*
X-18370771Y-3618515D01*
X-18358428Y-3600450D01*
X-16508428Y-3600450D01*
X-14728041Y-5380836D01*
X-14728039Y-5380839D01*
X-14640155Y-5439561D01*
X-14590013Y-5473065D01*
X-14465319Y-5497869D01*
X-14465319Y-5965190D01*
X-14442649Y-6085672D01*
X-14371444Y-6196328D01*
X-14360289Y-6203950D01*
X-18046498Y-6203950D01*
X-17999710Y-6090994D01*
X-17999710Y-5998210D01*
X-18157825Y-5840095D01*
X-18877280Y-5840095D01*
X-18877280Y-5864540D01*
X-19136360Y-5864540D01*
X-19136360Y-5840095D01*
X-19465290Y-5840095D01*
X-19496405Y-5808980D01*
X-20190460Y-5808980D01*
X-20190460Y-5828980D01*
X-20449540Y-5828980D01*
X-20449540Y-5808980D01*
X-21143595Y-5808980D01*
X-21301710Y-5967095D01*
X-21301710Y-6203950D01*
X-21309330Y-6203950D01*
X-21309330Y2252345D01*
X-21206460Y2252345D01*
X-21206460Y1652196D01*
X-21110174Y1419740D01*
X-20932260Y1241826D01*
X-20699804Y1145540D01*
X-20099655Y1145540D01*
X-19941540Y1303655D01*
X-19941540Y2410460D01*
X-21048345Y2410460D01*
X-21206460Y2252345D01*
X-21309330Y2252345D01*
X-21309330Y3427804D01*
X-21206460Y3427804D01*
X-21206460Y2827655D01*
X-21048345Y2669540D01*
X-19941540Y2669540D01*
X-19941540Y3776345D01*
X-19682460Y3776345D01*
X-19682460Y2669540D01*
X-18575655Y2669540D01*
X-18417540Y2827655D01*
X-18417540Y3427804D01*
X-18513826Y3660260D01*
X-18691740Y3838174D01*
X-18924196Y3934460D01*
X-19524345Y3934460D01*
X-19682460Y3776345D01*
X-19941540Y3776345D01*
X-20099655Y3934460D01*
X-20699804Y3934460D01*
X-20932260Y3838174D01*
X-21110174Y3660260D01*
X-21206460Y3427804D01*
X-21309330Y3427804D01*
X-21309330Y5842000D01*
X-20905489Y5842000D01*
X-20905489Y4318000D01*
X-20882819Y4197518D01*
X-20811614Y4086862D01*
X-20702968Y4012628D01*
X-20574000Y3986511D01*
X-19050000Y3986511D01*
X-18929518Y4009181D01*
X-18818862Y4080386D01*
X-18744628Y4189032D01*
X-18718511Y4318000D01*
X-18718511Y5646494D01*
X-18609310Y5646494D01*
X-18609310Y5408295D01*
X-18451195Y5250180D01*
X-17757140Y5250180D01*
X-17757140Y5995035D01*
X-17915255Y6153150D01*
X-18102654Y6153150D01*
X-18335110Y6056864D01*
X-18513024Y5878950D01*
X-18609310Y5646494D01*
X-18718511Y5646494D01*
X-18718511Y5842000D01*
X-18741181Y5962482D01*
X-18812386Y6073138D01*
X-18921032Y6147372D01*
X-19050000Y6173489D01*
X-20574000Y6173489D01*
X-20694482Y6150819D01*
X-20805138Y6079614D01*
X-20879372Y5970968D01*
X-20905489Y5842000D01*
X-21309330Y5842000D01*
X-21309330Y6196330D01*
X-17522769Y6196330D01*
X-17543780Y6145604D01*
G36*
X-6896100Y-3426460D02*
X-6876100Y-3426460D01*
X-6876100Y-3685540D01*
X-6896100Y-3685540D01*
X-6896100Y-4379595D01*
X-6737985Y-4537710D01*
X-6499786Y-4537710D01*
X-6414754Y-4502489D01*
X-6414896Y-4664812D01*
X-6391681Y-4720996D01*
X-6487160Y-4816475D01*
X-6487160Y-5560060D01*
X-6467160Y-5560060D01*
X-6467160Y-5819140D01*
X-6487160Y-5819140D01*
X-6487160Y-5839140D01*
X-6746240Y-5839140D01*
X-6746240Y-5819140D01*
X-6766240Y-5819140D01*
X-6766240Y-5560060D01*
X-6746240Y-5560060D01*
X-6746240Y-4816475D01*
X-6904355Y-4658360D01*
X-7141284Y-4658360D01*
X-7373740Y-4754646D01*
X-7551654Y-4932560D01*
X-7576647Y-4992899D01*
X-7587552Y-4985448D01*
X-7716520Y-4959331D01*
X-8167654Y-4959331D01*
X-7987184Y-4778861D01*
X-7987181Y-4778859D01*
X-7894955Y-4640833D01*
X-7862570Y-4478020D01*
X-7862570Y-4362804D01*
X-7783950Y-4441424D01*
X-7551494Y-4537710D01*
X-7313295Y-4537710D01*
X-7155180Y-4379595D01*
X-7155180Y-3685540D01*
X-7175180Y-3685540D01*
X-7175180Y-3426460D01*
X-7155180Y-3426460D01*
X-7155180Y-3406460D01*
X-6896100Y-3406460D01*
X-6896100Y-3426460D01*
X-6896100Y-3426460D01*
G37*
X-6896100Y-3426460D02*
X-6876100Y-3426460D01*
X-6876100Y-3685540D01*
X-6896100Y-3685540D01*
X-6896100Y-4379595D01*
X-6737985Y-4537710D01*
X-6499786Y-4537710D01*
X-6414754Y-4502489D01*
X-6414896Y-4664812D01*
X-6391681Y-4720996D01*
X-6487160Y-4816475D01*
X-6487160Y-5560060D01*
X-6467160Y-5560060D01*
X-6467160Y-5819140D01*
X-6487160Y-5819140D01*
X-6487160Y-5839140D01*
X-6746240Y-5839140D01*
X-6746240Y-5819140D01*
X-6766240Y-5819140D01*
X-6766240Y-5560060D01*
X-6746240Y-5560060D01*
X-6746240Y-4816475D01*
X-6904355Y-4658360D01*
X-7141284Y-4658360D01*
X-7373740Y-4754646D01*
X-7551654Y-4932560D01*
X-7576647Y-4992899D01*
X-7587552Y-4985448D01*
X-7716520Y-4959331D01*
X-8167654Y-4959331D01*
X-7987184Y-4778861D01*
X-7987181Y-4778859D01*
X-7894955Y-4640833D01*
X-7862570Y-4478020D01*
X-7862570Y-4362804D01*
X-7783950Y-4441424D01*
X-7551494Y-4537710D01*
X-7313295Y-4537710D01*
X-7155180Y-4379595D01*
X-7155180Y-3685540D01*
X-7175180Y-3685540D01*
X-7175180Y-3426460D01*
X-7155180Y-3426460D01*
X-7155180Y-3406460D01*
X-6896100Y-3406460D01*
X-6896100Y-3426460D01*
G36*
X-3690620Y-5458460D02*
X-2659380Y-5458460D01*
X-2659380Y-5438460D01*
X-2400300Y-5438460D01*
X-2400300Y-5458460D01*
X-2380300Y-5458460D01*
X-2380300Y-5717540D01*
X-2400300Y-5717540D01*
X-2400300Y-5737540D01*
X-2659380Y-5737540D01*
X-2659380Y-5717540D01*
X-3690620Y-5717540D01*
X-3690620Y-5737540D01*
X-3949700Y-5737540D01*
X-3949700Y-5717540D01*
X-3969700Y-5717540D01*
X-3969700Y-5458460D01*
X-3949700Y-5458460D01*
X-3949700Y-5438460D01*
X-3690620Y-5438460D01*
X-3690620Y-5458460D01*
X-3690620Y-5458460D01*
G37*
X-3690620Y-5458460D02*
X-2659380Y-5458460D01*
X-2659380Y-5438460D01*
X-2400300Y-5438460D01*
X-2400300Y-5458460D01*
X-2380300Y-5458460D01*
X-2380300Y-5717540D01*
X-2400300Y-5717540D01*
X-2400300Y-5737540D01*
X-2659380Y-5737540D01*
X-2659380Y-5717540D01*
X-3690620Y-5717540D01*
X-3690620Y-5737540D01*
X-3949700Y-5737540D01*
X-3949700Y-5717540D01*
X-3969700Y-5717540D01*
X-3969700Y-5458460D01*
X-3949700Y-5458460D01*
X-3949700Y-5438460D01*
X-3690620Y-5438460D01*
X-3690620Y-5458460D01*
G36*
X-1925444Y-267968D02*
X-1816798Y-342202D01*
X-1687830Y-368319D01*
X-1187450Y-368319D01*
X-1089660Y-349919D01*
X-1089660Y-1450340D01*
X-1981200Y-1450340D01*
X-2029622Y-1460146D01*
X-2070414Y-1488018D01*
X-2097148Y-1529564D01*
X-2105660Y-1574738D01*
X-2105682Y-1619231D01*
X-2228850Y-1619231D01*
X-2228850Y-1456055D01*
X-2386965Y-1297940D01*
X-3131820Y-1297940D01*
X-3131820Y-1991995D01*
X-2973705Y-2150110D01*
X-2782589Y-2150110D01*
X-2782589Y-2353417D01*
X-2809360Y-2364506D01*
X-2987274Y-2542420D01*
X-3083560Y-2774876D01*
X-3083560Y-2887345D01*
X-2925445Y-3045460D01*
X-2106392Y-3045460D01*
X-2106521Y-3304540D01*
X-2925445Y-3304540D01*
X-3083560Y-3462655D01*
X-3083560Y-3575124D01*
X-2987274Y-3807580D01*
X-2809360Y-3985494D01*
X-2782589Y-3996583D01*
X-2782589Y-4399280D01*
X-2761547Y-4511108D01*
X-2817495Y-4455160D01*
X-3105224Y-4455160D01*
X-3175000Y-4484062D01*
X-3244776Y-4455160D01*
X-3529979Y-4455160D01*
X-3518671Y-4399320D01*
X-3518671Y-3850680D01*
X-3541341Y-3730198D01*
X-3612546Y-3619542D01*
X-3721192Y-3545308D01*
X-3850160Y-3519191D01*
X-3850847Y-3519191D01*
X-3850988Y-3518480D01*
X-3848268Y-3477724D01*
X-3854000Y-3433781D01*
X-3796156Y-3294478D01*
X-3795904Y-3005988D01*
X-3868270Y-2830849D01*
X-3848100Y-2830849D01*
X-3727618Y-2808179D01*
X-3616962Y-2736974D01*
X-3542728Y-2628328D01*
X-3516611Y-2499360D01*
X-3516611Y-2117706D01*
X-3390900Y-1991995D01*
X-3390900Y-1297940D01*
X-3410900Y-1297940D01*
X-3410900Y-1038860D01*
X-3390900Y-1038860D01*
X-3390900Y-1018860D01*
X-3131820Y-1018860D01*
X-3131820Y-1038860D01*
X-2386965Y-1038860D01*
X-2228850Y-880745D01*
X-2228850Y-720677D01*
X-2199161Y-700839D01*
X-2099164Y-600841D01*
X-2099161Y-600839D01*
X-2006935Y-462813D01*
X-1974550Y-300000D01*
X-1974550Y-191655D01*
X-1925444Y-267968D01*
X-1925444Y-267968D01*
G37*
X-1925444Y-267968D02*
X-1816798Y-342202D01*
X-1687830Y-368319D01*
X-1187450Y-368319D01*
X-1089660Y-349919D01*
X-1089660Y-1450340D01*
X-1981200Y-1450340D01*
X-2029622Y-1460146D01*
X-2070414Y-1488018D01*
X-2097148Y-1529564D01*
X-2105660Y-1574738D01*
X-2105682Y-1619231D01*
X-2228850Y-1619231D01*
X-2228850Y-1456055D01*
X-2386965Y-1297940D01*
X-3131820Y-1297940D01*
X-3131820Y-1991995D01*
X-2973705Y-2150110D01*
X-2782589Y-2150110D01*
X-2782589Y-2353417D01*
X-2809360Y-2364506D01*
X-2987274Y-2542420D01*
X-3083560Y-2774876D01*
X-3083560Y-2887345D01*
X-2925445Y-3045460D01*
X-2106392Y-3045460D01*
X-2106521Y-3304540D01*
X-2925445Y-3304540D01*
X-3083560Y-3462655D01*
X-3083560Y-3575124D01*
X-2987274Y-3807580D01*
X-2809360Y-3985494D01*
X-2782589Y-3996583D01*
X-2782589Y-4399280D01*
X-2761547Y-4511108D01*
X-2817495Y-4455160D01*
X-3105224Y-4455160D01*
X-3175000Y-4484062D01*
X-3244776Y-4455160D01*
X-3529979Y-4455160D01*
X-3518671Y-4399320D01*
X-3518671Y-3850680D01*
X-3541341Y-3730198D01*
X-3612546Y-3619542D01*
X-3721192Y-3545308D01*
X-3850160Y-3519191D01*
X-3850847Y-3519191D01*
X-3850988Y-3518480D01*
X-3848268Y-3477724D01*
X-3854000Y-3433781D01*
X-3796156Y-3294478D01*
X-3795904Y-3005988D01*
X-3868270Y-2830849D01*
X-3848100Y-2830849D01*
X-3727618Y-2808179D01*
X-3616962Y-2736974D01*
X-3542728Y-2628328D01*
X-3516611Y-2499360D01*
X-3516611Y-2117706D01*
X-3390900Y-1991995D01*
X-3390900Y-1297940D01*
X-3410900Y-1297940D01*
X-3410900Y-1038860D01*
X-3390900Y-1038860D01*
X-3390900Y-1018860D01*
X-3131820Y-1018860D01*
X-3131820Y-1038860D01*
X-2386965Y-1038860D01*
X-2228850Y-880745D01*
X-2228850Y-720677D01*
X-2199161Y-700839D01*
X-2099164Y-600841D01*
X-2099161Y-600839D01*
X-2006935Y-462813D01*
X-1974550Y-300000D01*
X-1974550Y-191655D01*
X-1925444Y-267968D01*
G36*
X-11415080Y361969D02*
X-11714160Y361969D01*
X-11714160Y400031D01*
X-11415080Y400031D01*
X-11415080Y361969D01*
X-11415080Y361969D01*
G37*
X-11415080Y361969D02*
X-11714160Y361969D01*
X-11714160Y400031D01*
X-11415080Y400031D01*
X-11415080Y361969D01*
G36*
X-12713821Y580544D02*
X-12713819Y580541D01*
X-12582697Y492928D01*
X-12575793Y488315D01*
X-12571730Y487507D01*
X-12571730Y400076D01*
X-12686132Y400176D01*
X-12745581Y375612D01*
X-12763291Y469732D01*
X-12834496Y580388D01*
X-12943142Y654622D01*
X-13072110Y680739D01*
X-13622127Y680739D01*
X-13633216Y707510D01*
X-13687706Y762000D01*
X-13633216Y816490D01*
X-13622127Y843261D01*
X-13072110Y843261D01*
X-12991674Y858396D01*
X-12713821Y580544D01*
X-12713821Y580544D01*
G37*
X-12713821Y580544D02*
X-12713819Y580541D01*
X-12582697Y492928D01*
X-12575793Y488315D01*
X-12571730Y487507D01*
X-12571730Y400076D01*
X-12686132Y400176D01*
X-12745581Y375612D01*
X-12763291Y469732D01*
X-12834496Y580388D01*
X-12943142Y654622D01*
X-13072110Y680739D01*
X-13622127Y680739D01*
X-13633216Y707510D01*
X-13687706Y762000D01*
X-13633216Y816490D01*
X-13622127Y843261D01*
X-13072110Y843261D01*
X-12991674Y858396D01*
X-12713821Y580544D01*
G36*
X-3212465Y912495D02*
X-3188020Y912495D01*
X-3188020Y713105D01*
X-3212465Y713105D01*
X-3212465Y693439D01*
X-3462655Y693439D01*
X-3462655Y713105D01*
X-3487100Y713105D01*
X-3487100Y912495D01*
X-3462655Y912495D01*
X-3462655Y932161D01*
X-3212465Y932161D01*
X-3212465Y912495D01*
X-3212465Y912495D01*
G37*
X-3212465Y912495D02*
X-3188020Y912495D01*
X-3188020Y713105D01*
X-3212465Y713105D01*
X-3212465Y693439D01*
X-3462655Y693439D01*
X-3462655Y713105D01*
X-3487100Y713105D01*
X-3487100Y912495D01*
X-3462655Y912495D01*
X-3462655Y932161D01*
X-3212465Y932161D01*
X-3212465Y912495D01*
G36*
X-8506460Y5967804D02*
X-8506460Y5367655D01*
X-8348345Y5209540D01*
X-7241540Y5209540D01*
X-7241540Y5229540D01*
X-6982460Y5229540D01*
X-6982460Y5209540D01*
X-5875655Y5209540D01*
X-5717540Y5367655D01*
X-5717540Y5967804D01*
X-5812198Y6196330D01*
X-784860Y6196330D01*
X-784860Y4249119D01*
X-918926Y4115287D01*
X-1084391Y3716803D01*
X-1084597Y3481308D01*
X-1089660Y3454400D01*
X-1089660Y2052018D01*
X-1154443Y1987235D01*
X-1187450Y1993919D01*
X-1687830Y1993919D01*
X-1808312Y1971249D01*
X-1918968Y1900044D01*
X-1993202Y1791398D01*
X-2019319Y1662430D01*
X-2019319Y1263650D01*
X-2014540Y1238250D01*
X-2087195Y1238250D01*
X-2087200Y1238251D01*
X-2250013Y1205865D01*
X-2388039Y1113639D01*
X-2559336Y942342D01*
X-2583178Y942342D01*
X-2454910Y1070610D01*
X-2454910Y1137994D01*
X-2551196Y1370450D01*
X-2729110Y1548364D01*
X-2755881Y1559453D01*
X-2755881Y1662430D01*
X-2778551Y1782912D01*
X-2849756Y1893568D01*
X-2958402Y1967802D01*
X-3087370Y1993919D01*
X-3587750Y1993919D01*
X-3702050Y1972412D01*
X-3702050Y3671872D01*
X-2931558Y4442365D01*
X-2648608Y4158922D01*
X-2249190Y3993069D01*
X-1816707Y3992692D01*
X-1417000Y4157847D01*
X-1110922Y4463392D01*
X-945069Y4862810D01*
X-944692Y5295293D01*
X-1109847Y5695000D01*
X-1415392Y6001078D01*
X-1814810Y6166931D01*
X-2247293Y6167308D01*
X-2647000Y6002153D01*
X-2953078Y5696608D01*
X-3044775Y5475778D01*
X-3058413Y5473065D01*
X-3196439Y5380839D01*
X-3196441Y5380836D01*
X-3484869Y5092408D01*
X-3484692Y5295293D01*
X-3649847Y5695000D01*
X-3955392Y6001078D01*
X-4354810Y6166931D01*
X-4787293Y6167308D01*
X-5187000Y6002153D01*
X-5493078Y5696608D01*
X-5658931Y5297190D01*
X-5659308Y4864707D01*
X-5580267Y4673411D01*
X-5717540Y4536138D01*
X-5717540Y4792345D01*
X-5875655Y4950460D01*
X-6982460Y4950460D01*
X-6982460Y4930460D01*
X-7241540Y4930460D01*
X-7241540Y4950460D01*
X-8348345Y4950460D01*
X-8506460Y4792345D01*
X-8506460Y4192196D01*
X-8410174Y3959740D01*
X-8313793Y3863359D01*
X-8437880Y3863359D01*
X-8541894Y3843788D01*
X-8638540Y3863359D01*
X-8938260Y3863359D01*
X-9042274Y3843788D01*
X-9138920Y3863359D01*
X-9438640Y3863359D01*
X-9511517Y3849646D01*
X-9493250Y3893746D01*
X-9493250Y4081145D01*
X-9651365Y4239260D01*
X-10396220Y4239260D01*
X-10396220Y4219260D01*
X-10655300Y4219260D01*
X-10655300Y4239260D01*
X-10675300Y4239260D01*
X-10675300Y4498340D01*
X-10655300Y4498340D01*
X-10655300Y5458460D01*
X-10396220Y5458460D01*
X-10396220Y4498340D01*
X-9651365Y4498340D01*
X-9493250Y4656455D01*
X-9493250Y4843854D01*
X-9548981Y4978400D01*
X-9493250Y5112946D01*
X-9493250Y5300345D01*
X-9651365Y5458460D01*
X-10396220Y5458460D01*
X-10655300Y5458460D01*
X-10675300Y5458460D01*
X-10675300Y5717540D01*
X-10655300Y5717540D01*
X-10655300Y5737540D01*
X-10396220Y5737540D01*
X-10396220Y5717540D01*
X-9651365Y5717540D01*
X-9493250Y5875655D01*
X-9493250Y6063054D01*
X-9548454Y6196330D01*
X-8411802Y6196330D01*
X-8506460Y5967804D01*
X-8506460Y5967804D01*
G37*
X-8506460Y5967804D02*
X-8506460Y5367655D01*
X-8348345Y5209540D01*
X-7241540Y5209540D01*
X-7241540Y5229540D01*
X-6982460Y5229540D01*
X-6982460Y5209540D01*
X-5875655Y5209540D01*
X-5717540Y5367655D01*
X-5717540Y5967804D01*
X-5812198Y6196330D01*
X-784860Y6196330D01*
X-784860Y4249119D01*
X-918926Y4115287D01*
X-1084391Y3716803D01*
X-1084597Y3481308D01*
X-1089660Y3454400D01*
X-1089660Y2052018D01*
X-1154443Y1987235D01*
X-1187450Y1993919D01*
X-1687830Y1993919D01*
X-1808312Y1971249D01*
X-1918968Y1900044D01*
X-1993202Y1791398D01*
X-2019319Y1662430D01*
X-2019319Y1263650D01*
X-2014540Y1238250D01*
X-2087195Y1238250D01*
X-2087200Y1238251D01*
X-2250013Y1205865D01*
X-2388039Y1113639D01*
X-2559336Y942342D01*
X-2583178Y942342D01*
X-2454910Y1070610D01*
X-2454910Y1137994D01*
X-2551196Y1370450D01*
X-2729110Y1548364D01*
X-2755881Y1559453D01*
X-2755881Y1662430D01*
X-2778551Y1782912D01*
X-2849756Y1893568D01*
X-2958402Y1967802D01*
X-3087370Y1993919D01*
X-3587750Y1993919D01*
X-3702050Y1972412D01*
X-3702050Y3671872D01*
X-2931558Y4442365D01*
X-2648608Y4158922D01*
X-2249190Y3993069D01*
X-1816707Y3992692D01*
X-1417000Y4157847D01*
X-1110922Y4463392D01*
X-945069Y4862810D01*
X-944692Y5295293D01*
X-1109847Y5695000D01*
X-1415392Y6001078D01*
X-1814810Y6166931D01*
X-2247293Y6167308D01*
X-2647000Y6002153D01*
X-2953078Y5696608D01*
X-3044775Y5475778D01*
X-3058413Y5473065D01*
X-3196439Y5380839D01*
X-3196441Y5380836D01*
X-3484869Y5092408D01*
X-3484692Y5295293D01*
X-3649847Y5695000D01*
X-3955392Y6001078D01*
X-4354810Y6166931D01*
X-4787293Y6167308D01*
X-5187000Y6002153D01*
X-5493078Y5696608D01*
X-5658931Y5297190D01*
X-5659308Y4864707D01*
X-5580267Y4673411D01*
X-5717540Y4536138D01*
X-5717540Y4792345D01*
X-5875655Y4950460D01*
X-6982460Y4950460D01*
X-6982460Y4930460D01*
X-7241540Y4930460D01*
X-7241540Y4950460D01*
X-8348345Y4950460D01*
X-8506460Y4792345D01*
X-8506460Y4192196D01*
X-8410174Y3959740D01*
X-8313793Y3863359D01*
X-8437880Y3863359D01*
X-8541894Y3843788D01*
X-8638540Y3863359D01*
X-8938260Y3863359D01*
X-9042274Y3843788D01*
X-9138920Y3863359D01*
X-9438640Y3863359D01*
X-9511517Y3849646D01*
X-9493250Y3893746D01*
X-9493250Y4081145D01*
X-9651365Y4239260D01*
X-10396220Y4239260D01*
X-10396220Y4219260D01*
X-10655300Y4219260D01*
X-10655300Y4239260D01*
X-10675300Y4239260D01*
X-10675300Y4498340D01*
X-10655300Y4498340D01*
X-10655300Y5458460D01*
X-10396220Y5458460D01*
X-10396220Y4498340D01*
X-9651365Y4498340D01*
X-9493250Y4656455D01*
X-9493250Y4843854D01*
X-9548981Y4978400D01*
X-9493250Y5112946D01*
X-9493250Y5300345D01*
X-9651365Y5458460D01*
X-10396220Y5458460D01*
X-10655300Y5458460D01*
X-10675300Y5458460D01*
X-10675300Y5717540D01*
X-10655300Y5717540D01*
X-10655300Y5737540D01*
X-10396220Y5737540D01*
X-10396220Y5717540D01*
X-9651365Y5717540D01*
X-9493250Y5875655D01*
X-9493250Y6063054D01*
X-9548454Y6196330D01*
X-8411802Y6196330D01*
X-8506460Y5967804D01*
G36*
X-5862640Y1863109D02*
X-6161720Y1863109D01*
X-6161720Y1901171D01*
X-5862640Y1901171D01*
X-5862640Y1863109D01*
X-5862640Y1863109D01*
G37*
X-5862640Y1863109D02*
X-6161720Y1863109D01*
X-6161720Y1901171D01*
X-5862640Y1901171D01*
X-5862640Y1863109D01*
G36*
X-4671060Y2222500D02*
X-4651060Y2222500D01*
X-4651060Y1963420D01*
X-4671060Y1963420D01*
X-4671060Y1943420D01*
X-4930140Y1943420D01*
X-4930140Y1963420D01*
X-4950140Y1963420D01*
X-4950140Y2222500D01*
X-4930140Y2222500D01*
X-4930140Y2242500D01*
X-4671060Y2242500D01*
X-4671060Y2222500D01*
X-4671060Y2222500D01*
G37*
X-4671060Y2222500D02*
X-4651060Y2222500D01*
X-4651060Y1963420D01*
X-4671060Y1963420D01*
X-4671060Y1943420D01*
X-4930140Y1943420D01*
X-4930140Y1963420D01*
X-4950140Y1963420D01*
X-4950140Y2222500D01*
X-4930140Y2222500D01*
X-4930140Y2242500D01*
X-4671060Y2242500D01*
X-4671060Y2222500D01*
G36*
X-13883640Y3850640D02*
X-13863640Y3850640D01*
X-13863640Y3591560D01*
X-13883640Y3591560D01*
X-13883640Y3571560D01*
X-14142720Y3571560D01*
X-14142720Y3591560D01*
X-14162720Y3591560D01*
X-14162720Y3850640D01*
X-14142720Y3850640D01*
X-14142720Y3870640D01*
X-13883640Y3870640D01*
X-13883640Y3850640D01*
X-13883640Y3850640D01*
G37*
X-13883640Y3850640D02*
X-13863640Y3850640D01*
X-13863640Y3591560D01*
X-13883640Y3591560D01*
X-13883640Y3571560D01*
X-14142720Y3571560D01*
X-14142720Y3591560D01*
X-14162720Y3591560D01*
X-14162720Y3850640D01*
X-14142720Y3850640D01*
X-14142720Y3870640D01*
X-13883640Y3870640D01*
X-13883640Y3850640D01*
G36*
X-16083280Y5552440D02*
X-16063280Y5552440D01*
X-16063280Y5293360D01*
X-16083280Y5293360D01*
X-16083280Y5273360D01*
X-16342360Y5273360D01*
X-16342360Y5293360D01*
X-16760825Y5293360D01*
X-16645890Y5408295D01*
X-16645890Y5552440D01*
X-16342360Y5552440D01*
X-16342360Y5572440D01*
X-16083280Y5572440D01*
X-16083280Y5552440D01*
X-16083280Y5552440D01*
G37*
X-16083280Y5552440D02*
X-16063280Y5552440D01*
X-16063280Y5293360D01*
X-16083280Y5293360D01*
X-16083280Y5273360D01*
X-16342360Y5273360D01*
X-16342360Y5293360D01*
X-16760825Y5293360D01*
X-16645890Y5408295D01*
X-16645890Y5552440D01*
X-16342360Y5552440D01*
X-16342360Y5572440D01*
X-16083280Y5572440D01*
X-16083280Y5552440D01*
D33*
G36*
X4423410Y-6201410D02*
X4077443Y-6201410D01*
X4136930Y-6112381D01*
X4219005Y-5699760D01*
X4136930Y-5287139D01*
X3903199Y-4937336D01*
X3553396Y-4703605D01*
X3140775Y-4621530D01*
X1060385Y-4621530D01*
X647764Y-4703605D01*
X297961Y-4937336D01*
X64230Y-5287139D01*
X29647Y-5460998D01*
X-100328Y-5460998D01*
X58420Y-5302250D01*
X58420Y-4961310D01*
X-38253Y-4727921D01*
X-179091Y-4587084D01*
X215293Y-4587428D01*
X615000Y-4422273D01*
X921078Y-4116728D01*
X1086931Y-3717310D01*
X1087308Y-3284827D01*
X922153Y-2885120D01*
X616608Y-2579042D01*
X243790Y-2424234D01*
X1222858Y-2424234D01*
X1356178Y-2746894D01*
X1602827Y-2993974D01*
X1925255Y-3127858D01*
X2274374Y-3128162D01*
X2597034Y-2994842D01*
X2844114Y-2748193D01*
X2977998Y-2425765D01*
X2978302Y-2076646D01*
X2844982Y-1753986D01*
X2598333Y-1506906D01*
X2275905Y-1373022D01*
X1926786Y-1372718D01*
X1604126Y-1506038D01*
X1357046Y-1752687D01*
X1223162Y-2075115D01*
X1222858Y-2424234D01*
X243790Y-2424234D01*
X217190Y-2413189D01*
X-215293Y-2412812D01*
X-541554Y-2547620D01*
X-617220Y-2547620D01*
X-617220Y-2510790D01*
X-775970Y-2352040D01*
X-1447800Y-2352040D01*
X-1447800Y-2098040D01*
X-775970Y-2098040D01*
X-626958Y-1949028D01*
X-610990Y-1945794D01*
X-569365Y-1917353D01*
X-548784Y-1885370D01*
X-205265Y-2028012D01*
X203472Y-2028368D01*
X581232Y-1872281D01*
X870505Y-1583512D01*
X1027252Y-1206025D01*
X1027608Y-797288D01*
X963616Y-642414D01*
X1344035Y-261995D01*
X1363508Y-232851D01*
X1436811Y-123145D01*
X1442216Y-95970D01*
X1469391Y40640D01*
X1469390Y40645D01*
X1469390Y1473195D01*
X1469391Y1473200D01*
X1436812Y1636984D01*
X1406026Y1683058D01*
X1363605Y1746546D01*
X1602827Y1506906D01*
X1925255Y1373022D01*
X2274374Y1372718D01*
X2597034Y1506038D01*
X2844114Y1752687D01*
X2977998Y2075115D01*
X2978302Y2424234D01*
X2844982Y2746894D01*
X2598333Y2993974D01*
X2275905Y3127858D01*
X1926786Y3128162D01*
X1604126Y2994842D01*
X1357046Y2748193D01*
X1223162Y2425765D01*
X1222858Y2076646D01*
X1352198Y1763618D01*
X1344035Y1775835D01*
X1344032Y1775837D01*
X759835Y2360035D01*
X753712Y2364126D01*
X798768Y2521747D01*
X0Y3320515D01*
X-14142Y3306372D01*
X-193747Y3485977D01*
X-179605Y3500120D01*
X179605Y3500120D01*
X978373Y2701352D01*
X1220294Y2770505D01*
X1406617Y3293030D01*
X1378795Y3847083D01*
X1220294Y4229735D01*
X978373Y4298888D01*
X179605Y3500120D01*
X-179605Y3500120D01*
X-193747Y3514262D01*
X-14142Y3693867D01*
X0Y3679725D01*
X798768Y4478493D01*
X739644Y4685329D01*
X1060385Y4621530D01*
X3140775Y4621530D01*
X3553396Y4703605D01*
X3903199Y4937336D01*
X4136930Y5287139D01*
X4219005Y5699760D01*
X4136930Y6112381D01*
X4082534Y6193790D01*
X4423410Y6193790D01*
X4423410Y-6201410D01*
X4423410Y-6201410D01*
G37*
X4423410Y-6201410D02*
X4077443Y-6201410D01*
X4136930Y-6112381D01*
X4219005Y-5699760D01*
X4136930Y-5287139D01*
X3903199Y-4937336D01*
X3553396Y-4703605D01*
X3140775Y-4621530D01*
X1060385Y-4621530D01*
X647764Y-4703605D01*
X297961Y-4937336D01*
X64230Y-5287139D01*
X29647Y-5460998D01*
X-100328Y-5460998D01*
X58420Y-5302250D01*
X58420Y-4961310D01*
X-38253Y-4727921D01*
X-179091Y-4587084D01*
X215293Y-4587428D01*
X615000Y-4422273D01*
X921078Y-4116728D01*
X1086931Y-3717310D01*
X1087308Y-3284827D01*
X922153Y-2885120D01*
X616608Y-2579042D01*
X243790Y-2424234D01*
X1222858Y-2424234D01*
X1356178Y-2746894D01*
X1602827Y-2993974D01*
X1925255Y-3127858D01*
X2274374Y-3128162D01*
X2597034Y-2994842D01*
X2844114Y-2748193D01*
X2977998Y-2425765D01*
X2978302Y-2076646D01*
X2844982Y-1753986D01*
X2598333Y-1506906D01*
X2275905Y-1373022D01*
X1926786Y-1372718D01*
X1604126Y-1506038D01*
X1357046Y-1752687D01*
X1223162Y-2075115D01*
X1222858Y-2424234D01*
X243790Y-2424234D01*
X217190Y-2413189D01*
X-215293Y-2412812D01*
X-541554Y-2547620D01*
X-617220Y-2547620D01*
X-617220Y-2510790D01*
X-775970Y-2352040D01*
X-1447800Y-2352040D01*
X-1447800Y-2098040D01*
X-775970Y-2098040D01*
X-626958Y-1949028D01*
X-610990Y-1945794D01*
X-569365Y-1917353D01*
X-548784Y-1885370D01*
X-205265Y-2028012D01*
X203472Y-2028368D01*
X581232Y-1872281D01*
X870505Y-1583512D01*
X1027252Y-1206025D01*
X1027608Y-797288D01*
X963616Y-642414D01*
X1344035Y-261995D01*
X1363508Y-232851D01*
X1436811Y-123145D01*
X1442216Y-95970D01*
X1469391Y40640D01*
X1469390Y40645D01*
X1469390Y1473195D01*
X1469391Y1473200D01*
X1436812Y1636984D01*
X1406026Y1683058D01*
X1363605Y1746546D01*
X1602827Y1506906D01*
X1925255Y1373022D01*
X2274374Y1372718D01*
X2597034Y1506038D01*
X2844114Y1752687D01*
X2977998Y2075115D01*
X2978302Y2424234D01*
X2844982Y2746894D01*
X2598333Y2993974D01*
X2275905Y3127858D01*
X1926786Y3128162D01*
X1604126Y2994842D01*
X1357046Y2748193D01*
X1223162Y2425765D01*
X1222858Y2076646D01*
X1352198Y1763618D01*
X1344035Y1775835D01*
X1344032Y1775837D01*
X759835Y2360035D01*
X753712Y2364126D01*
X798768Y2521747D01*
X0Y3320515D01*
X-14142Y3306372D01*
X-193747Y3485977D01*
X-179605Y3500120D01*
X179605Y3500120D01*
X978373Y2701352D01*
X1220294Y2770505D01*
X1406617Y3293030D01*
X1378795Y3847083D01*
X1220294Y4229735D01*
X978373Y4298888D01*
X179605Y3500120D01*
X-179605Y3500120D01*
X-193747Y3514262D01*
X-14142Y3693867D01*
X0Y3679725D01*
X798768Y4478493D01*
X739644Y4685329D01*
X1060385Y4621530D01*
X3140775Y4621530D01*
X3553396Y4703605D01*
X3903199Y4937336D01*
X4136930Y5287139D01*
X4219005Y5699760D01*
X4136930Y6112381D01*
X4082534Y6193790D01*
X4423410Y6193790D01*
X4423410Y-6201410D01*
G36*
X-899160Y-5461000D02*
X-879160Y-5461000D01*
X-879160Y-5715000D01*
X-899160Y-5715000D01*
X-899160Y-5735000D01*
X-1153160Y-5735000D01*
X-1153160Y-5715000D01*
X-1173160Y-5715000D01*
X-1173160Y-5461000D01*
X-1153160Y-5461000D01*
X-1153160Y-5441000D01*
X-899160Y-5441000D01*
X-899160Y-5461000D01*
X-899160Y-5461000D01*
G37*
X-899160Y-5461000D02*
X-879160Y-5461000D01*
X-879160Y-5715000D01*
X-899160Y-5715000D01*
X-899160Y-5735000D01*
X-1153160Y-5735000D01*
X-1153160Y-5715000D01*
X-1173160Y-5715000D01*
X-1173160Y-5461000D01*
X-1153160Y-5461000D01*
X-1153160Y-5441000D01*
X-899160Y-5441000D01*
X-899160Y-5461000D01*
M02*
