G04 #@! TF.GenerationSoftware,KiCad,Pcbnew,5.0.0+dfsg1-2*
G04 #@! TF.CreationDate,2018-09-26T11:41:40+09:00*
G04 #@! TF.ProjectId,fst-01,6673742D30312E6B696361645F706362,rev?*
G04 #@! TF.SameCoordinates,Original*
G04 #@! TF.FileFunction,Copper,L1,Top,Signal*
G04 #@! TF.FilePolarity,Positive*
%FSLAX46Y46*%
G04 Gerber Fmt 4.6, Leading zero omitted, Abs format (unit mm)*
G04 Created by KiCad (PCBNEW 5.0.0+dfsg1-2) date Wed Sep 26 11:41:40 2018*
%MOMM*%
%LPD*%
G01*
G04 APERTURE LIST*
G04 #@! TA.AperFunction,ComponentPad*
%ADD10C,0.800000*%
G04 #@! TD*
G04 #@! TA.AperFunction,ComponentPad*
%ADD11R,0.800000X0.800000*%
G04 #@! TD*
G04 #@! TA.AperFunction,SMDPad,CuDef*
%ADD12R,0.900000X0.600000*%
G04 #@! TD*
G04 #@! TA.AperFunction,Conductor*
%ADD13C,0.150000*%
G04 #@! TD*
G04 #@! TA.AperFunction,SMDPad,CuDef*
%ADD14C,0.600000*%
G04 #@! TD*
G04 #@! TA.AperFunction,SMDPad,CuDef*
%ADD15C,0.220000*%
G04 #@! TD*
G04 #@! TA.AperFunction,SMDPad,CuDef*
%ADD16R,2.000000X2.000000*%
G04 #@! TD*
G04 #@! TA.AperFunction,SMDPad,CuDef*
%ADD17R,0.750000X0.280000*%
G04 #@! TD*
G04 #@! TA.AperFunction,SMDPad,CuDef*
%ADD18R,0.280000X0.750000*%
G04 #@! TD*
G04 #@! TA.AperFunction,SMDPad,CuDef*
%ADD19C,1.200000*%
G04 #@! TD*
G04 #@! TA.AperFunction,ComponentPad*
%ADD20C,0.750000*%
G04 #@! TD*
G04 #@! TA.AperFunction,SMDPad,CuDef*
%ADD21R,0.400000X0.500000*%
G04 #@! TD*
G04 #@! TA.AperFunction,SMDPad,CuDef*
%ADD22R,1.100000X1.000000*%
G04 #@! TD*
G04 #@! TA.AperFunction,SMDPad,CuDef*
%ADD23R,0.700000X0.700000*%
G04 #@! TD*
G04 #@! TA.AperFunction,SMDPad,CuDef*
%ADD24R,0.698500X0.762000*%
G04 #@! TD*
G04 #@! TA.AperFunction,SMDPad,CuDef*
%ADD25R,1.000760X0.899160*%
G04 #@! TD*
G04 #@! TA.AperFunction,SMDPad,CuDef*
%ADD26R,0.762000X0.698500*%
G04 #@! TD*
G04 #@! TA.AperFunction,ViaPad*
%ADD27C,0.800000*%
G04 #@! TD*
G04 #@! TA.AperFunction,Conductor*
%ADD28C,0.200660*%
G04 #@! TD*
G04 #@! TA.AperFunction,Conductor*
%ADD29C,0.500000*%
G04 #@! TD*
G04 #@! TA.AperFunction,Conductor*
%ADD30C,0.599440*%
G04 #@! TD*
G04 #@! TA.AperFunction,Conductor*
%ADD31C,0.254000*%
G04 #@! TD*
G04 #@! TA.AperFunction,Conductor*
%ADD32C,0.279400*%
G04 #@! TD*
G04 #@! TA.AperFunction,Conductor*
%ADD33C,0.300000*%
G04 #@! TD*
G04 #@! TA.AperFunction,Conductor*
%ADD34C,0.380000*%
G04 #@! TD*
G04 #@! TA.AperFunction,Conductor*
%ADD35C,0.202000*%
G04 #@! TD*
G04 #@! TA.AperFunction,Conductor*
%ADD36C,0.250000*%
G04 #@! TD*
G04 #@! TA.AperFunction,Conductor*
%ADD37C,0.508000*%
G04 #@! TD*
G04 #@! TA.AperFunction,Conductor*
%ADD38C,0.400000*%
G04 #@! TD*
G04 #@! TA.AperFunction,Conductor*
%ADD39C,0.381000*%
G04 #@! TD*
G04 #@! TA.AperFunction,Conductor*
%ADD40C,0.200000*%
G04 #@! TD*
G04 APERTURE END LIST*
D10*
G04 #@! TO.P,K1,2*
G04 #@! TO.N,/SWDIO*
X112268000Y-103174800D03*
G04 #@! TO.P,K1,1*
G04 #@! TO.N,+3V3*
X110998000Y-103174800D03*
G04 #@! TO.P,K1,3*
G04 #@! TO.N,/SWCLK*
X113538000Y-103174800D03*
G04 #@! TO.P,K1,4*
G04 #@! TO.N,/NRST*
X114808000Y-103174800D03*
D11*
G04 #@! TO.P,K1,5*
G04 #@! TO.N,GND*
X116078000Y-103174800D03*
G04 #@! TD*
D12*
G04 #@! TO.P,U2,1*
G04 #@! TO.N,GND*
X123925000Y-94296500D03*
G04 #@! TO.P,U2,2*
G04 #@! TO.N,+3V3*
X123925000Y-96196500D03*
G04 #@! TO.P,U2,3*
G04 #@! TO.N,/VBUS*
X126225000Y-95246500D03*
G04 #@! TD*
D13*
G04 #@! TO.N,N/C*
G04 #@! TO.C,U4*
G36*
X110014703Y-97697222D02*
X110029264Y-97699382D01*
X110043543Y-97702959D01*
X110057403Y-97707918D01*
X110070710Y-97714212D01*
X110083336Y-97721780D01*
X110095159Y-97730548D01*
X110106066Y-97740434D01*
X110115952Y-97751341D01*
X110124720Y-97763164D01*
X110132288Y-97775790D01*
X110138582Y-97789097D01*
X110143541Y-97802957D01*
X110147118Y-97817236D01*
X110149278Y-97831797D01*
X110150000Y-97846500D01*
X110150000Y-98146500D01*
X110149278Y-98161203D01*
X110147118Y-98175764D01*
X110143541Y-98190043D01*
X110138582Y-98203903D01*
X110132288Y-98217210D01*
X110124720Y-98229836D01*
X110115952Y-98241659D01*
X110106066Y-98252566D01*
X110095159Y-98262452D01*
X110083336Y-98271220D01*
X110070710Y-98278788D01*
X110057403Y-98285082D01*
X110043543Y-98290041D01*
X110029264Y-98293618D01*
X110014703Y-98295778D01*
X110000000Y-98296500D01*
X109500000Y-98296500D01*
X109485297Y-98295778D01*
X109470736Y-98293618D01*
X109456457Y-98290041D01*
X109442597Y-98285082D01*
X109429290Y-98278788D01*
X109416664Y-98271220D01*
X109404841Y-98262452D01*
X109393934Y-98252566D01*
X109384048Y-98241659D01*
X109375280Y-98229836D01*
X109367712Y-98217210D01*
X109361418Y-98203903D01*
X109356459Y-98190043D01*
X109352882Y-98175764D01*
X109350722Y-98161203D01*
X109350000Y-98146500D01*
X109350000Y-97846500D01*
X109350722Y-97831797D01*
X109352882Y-97817236D01*
X109356459Y-97802957D01*
X109361418Y-97789097D01*
X109367712Y-97775790D01*
X109375280Y-97763164D01*
X109384048Y-97751341D01*
X109393934Y-97740434D01*
X109404841Y-97730548D01*
X109416664Y-97721780D01*
X109429290Y-97714212D01*
X109442597Y-97707918D01*
X109456457Y-97702959D01*
X109470736Y-97699382D01*
X109485297Y-97697222D01*
X109500000Y-97696500D01*
X110000000Y-97696500D01*
X110014703Y-97697222D01*
X110014703Y-97697222D01*
G37*
D14*
G04 #@! TD*
G04 #@! TO.P,U4,5*
G04 #@! TO.N,N/C*
X109750000Y-97996500D03*
D13*
G04 #@! TO.N,+3V3*
G04 #@! TO.C,U4*
G36*
X109560391Y-97096765D02*
X109565730Y-97097557D01*
X109570966Y-97098868D01*
X109576048Y-97100687D01*
X109580927Y-97102994D01*
X109585556Y-97105769D01*
X109589892Y-97108984D01*
X109593891Y-97112609D01*
X109597516Y-97116608D01*
X109600731Y-97120944D01*
X109603506Y-97125573D01*
X109605813Y-97130452D01*
X109607632Y-97135534D01*
X109608943Y-97140770D01*
X109609735Y-97146109D01*
X109610000Y-97151500D01*
X109610000Y-97441500D01*
X109609735Y-97446891D01*
X109608943Y-97452230D01*
X109607632Y-97457466D01*
X109605813Y-97462548D01*
X109603506Y-97467427D01*
X109600731Y-97472056D01*
X109597516Y-97476392D01*
X109593891Y-97480391D01*
X109589892Y-97484016D01*
X109585556Y-97487231D01*
X109580927Y-97490006D01*
X109576048Y-97492313D01*
X109570966Y-97494132D01*
X109565730Y-97495443D01*
X109560391Y-97496235D01*
X109555000Y-97496500D01*
X109445000Y-97496500D01*
X109439609Y-97496235D01*
X109434270Y-97495443D01*
X109429034Y-97494132D01*
X109423952Y-97492313D01*
X109419073Y-97490006D01*
X109414444Y-97487231D01*
X109410108Y-97484016D01*
X109406109Y-97480391D01*
X109402484Y-97476392D01*
X109399269Y-97472056D01*
X109396494Y-97467427D01*
X109394187Y-97462548D01*
X109392368Y-97457466D01*
X109391057Y-97452230D01*
X109390265Y-97446891D01*
X109390000Y-97441500D01*
X109390000Y-97151500D01*
X109390265Y-97146109D01*
X109391057Y-97140770D01*
X109392368Y-97135534D01*
X109394187Y-97130452D01*
X109396494Y-97125573D01*
X109399269Y-97120944D01*
X109402484Y-97116608D01*
X109406109Y-97112609D01*
X109410108Y-97108984D01*
X109414444Y-97105769D01*
X109419073Y-97102994D01*
X109423952Y-97100687D01*
X109429034Y-97098868D01*
X109434270Y-97097557D01*
X109439609Y-97096765D01*
X109445000Y-97096500D01*
X109555000Y-97096500D01*
X109560391Y-97096765D01*
X109560391Y-97096765D01*
G37*
D15*
G04 #@! TD*
G04 #@! TO.P,U4,1*
G04 #@! TO.N,+3V3*
X109500000Y-97296500D03*
D13*
G04 #@! TO.N,/PA3*
G04 #@! TO.C,U4*
G36*
X110060391Y-97096765D02*
X110065730Y-97097557D01*
X110070966Y-97098868D01*
X110076048Y-97100687D01*
X110080927Y-97102994D01*
X110085556Y-97105769D01*
X110089892Y-97108984D01*
X110093891Y-97112609D01*
X110097516Y-97116608D01*
X110100731Y-97120944D01*
X110103506Y-97125573D01*
X110105813Y-97130452D01*
X110107632Y-97135534D01*
X110108943Y-97140770D01*
X110109735Y-97146109D01*
X110110000Y-97151500D01*
X110110000Y-97441500D01*
X110109735Y-97446891D01*
X110108943Y-97452230D01*
X110107632Y-97457466D01*
X110105813Y-97462548D01*
X110103506Y-97467427D01*
X110100731Y-97472056D01*
X110097516Y-97476392D01*
X110093891Y-97480391D01*
X110089892Y-97484016D01*
X110085556Y-97487231D01*
X110080927Y-97490006D01*
X110076048Y-97492313D01*
X110070966Y-97494132D01*
X110065730Y-97495443D01*
X110060391Y-97496235D01*
X110055000Y-97496500D01*
X109945000Y-97496500D01*
X109939609Y-97496235D01*
X109934270Y-97495443D01*
X109929034Y-97494132D01*
X109923952Y-97492313D01*
X109919073Y-97490006D01*
X109914444Y-97487231D01*
X109910108Y-97484016D01*
X109906109Y-97480391D01*
X109902484Y-97476392D01*
X109899269Y-97472056D01*
X109896494Y-97467427D01*
X109894187Y-97462548D01*
X109892368Y-97457466D01*
X109891057Y-97452230D01*
X109890265Y-97446891D01*
X109890000Y-97441500D01*
X109890000Y-97151500D01*
X109890265Y-97146109D01*
X109891057Y-97140770D01*
X109892368Y-97135534D01*
X109894187Y-97130452D01*
X109896494Y-97125573D01*
X109899269Y-97120944D01*
X109902484Y-97116608D01*
X109906109Y-97112609D01*
X109910108Y-97108984D01*
X109914444Y-97105769D01*
X109919073Y-97102994D01*
X109923952Y-97100687D01*
X109929034Y-97098868D01*
X109934270Y-97097557D01*
X109939609Y-97096765D01*
X109945000Y-97096500D01*
X110055000Y-97096500D01*
X110060391Y-97096765D01*
X110060391Y-97096765D01*
G37*
D15*
G04 #@! TD*
G04 #@! TO.P,U4,4*
G04 #@! TO.N,/PA3*
X110000000Y-97296500D03*
D13*
G04 #@! TO.N,GND*
G04 #@! TO.C,U4*
G36*
X109560391Y-98496765D02*
X109565730Y-98497557D01*
X109570966Y-98498868D01*
X109576048Y-98500687D01*
X109580927Y-98502994D01*
X109585556Y-98505769D01*
X109589892Y-98508984D01*
X109593891Y-98512609D01*
X109597516Y-98516608D01*
X109600731Y-98520944D01*
X109603506Y-98525573D01*
X109605813Y-98530452D01*
X109607632Y-98535534D01*
X109608943Y-98540770D01*
X109609735Y-98546109D01*
X109610000Y-98551500D01*
X109610000Y-98841500D01*
X109609735Y-98846891D01*
X109608943Y-98852230D01*
X109607632Y-98857466D01*
X109605813Y-98862548D01*
X109603506Y-98867427D01*
X109600731Y-98872056D01*
X109597516Y-98876392D01*
X109593891Y-98880391D01*
X109589892Y-98884016D01*
X109585556Y-98887231D01*
X109580927Y-98890006D01*
X109576048Y-98892313D01*
X109570966Y-98894132D01*
X109565730Y-98895443D01*
X109560391Y-98896235D01*
X109555000Y-98896500D01*
X109445000Y-98896500D01*
X109439609Y-98896235D01*
X109434270Y-98895443D01*
X109429034Y-98894132D01*
X109423952Y-98892313D01*
X109419073Y-98890006D01*
X109414444Y-98887231D01*
X109410108Y-98884016D01*
X109406109Y-98880391D01*
X109402484Y-98876392D01*
X109399269Y-98872056D01*
X109396494Y-98867427D01*
X109394187Y-98862548D01*
X109392368Y-98857466D01*
X109391057Y-98852230D01*
X109390265Y-98846891D01*
X109390000Y-98841500D01*
X109390000Y-98551500D01*
X109390265Y-98546109D01*
X109391057Y-98540770D01*
X109392368Y-98535534D01*
X109394187Y-98530452D01*
X109396494Y-98525573D01*
X109399269Y-98520944D01*
X109402484Y-98516608D01*
X109406109Y-98512609D01*
X109410108Y-98508984D01*
X109414444Y-98505769D01*
X109419073Y-98502994D01*
X109423952Y-98500687D01*
X109429034Y-98498868D01*
X109434270Y-98497557D01*
X109439609Y-98496765D01*
X109445000Y-98496500D01*
X109555000Y-98496500D01*
X109560391Y-98496765D01*
X109560391Y-98496765D01*
G37*
D15*
G04 #@! TD*
G04 #@! TO.P,U4,2*
G04 #@! TO.N,GND*
X109500000Y-98696500D03*
D13*
G04 #@! TO.N,Net-(U4-Pad3)*
G04 #@! TO.C,U4*
G36*
X110060391Y-98496765D02*
X110065730Y-98497557D01*
X110070966Y-98498868D01*
X110076048Y-98500687D01*
X110080927Y-98502994D01*
X110085556Y-98505769D01*
X110089892Y-98508984D01*
X110093891Y-98512609D01*
X110097516Y-98516608D01*
X110100731Y-98520944D01*
X110103506Y-98525573D01*
X110105813Y-98530452D01*
X110107632Y-98535534D01*
X110108943Y-98540770D01*
X110109735Y-98546109D01*
X110110000Y-98551500D01*
X110110000Y-98841500D01*
X110109735Y-98846891D01*
X110108943Y-98852230D01*
X110107632Y-98857466D01*
X110105813Y-98862548D01*
X110103506Y-98867427D01*
X110100731Y-98872056D01*
X110097516Y-98876392D01*
X110093891Y-98880391D01*
X110089892Y-98884016D01*
X110085556Y-98887231D01*
X110080927Y-98890006D01*
X110076048Y-98892313D01*
X110070966Y-98894132D01*
X110065730Y-98895443D01*
X110060391Y-98896235D01*
X110055000Y-98896500D01*
X109945000Y-98896500D01*
X109939609Y-98896235D01*
X109934270Y-98895443D01*
X109929034Y-98894132D01*
X109923952Y-98892313D01*
X109919073Y-98890006D01*
X109914444Y-98887231D01*
X109910108Y-98884016D01*
X109906109Y-98880391D01*
X109902484Y-98876392D01*
X109899269Y-98872056D01*
X109896494Y-98867427D01*
X109894187Y-98862548D01*
X109892368Y-98857466D01*
X109891057Y-98852230D01*
X109890265Y-98846891D01*
X109890000Y-98841500D01*
X109890000Y-98551500D01*
X109890265Y-98546109D01*
X109891057Y-98540770D01*
X109892368Y-98535534D01*
X109894187Y-98530452D01*
X109896494Y-98525573D01*
X109899269Y-98520944D01*
X109902484Y-98516608D01*
X109906109Y-98512609D01*
X109910108Y-98508984D01*
X109914444Y-98505769D01*
X109919073Y-98502994D01*
X109923952Y-98500687D01*
X109929034Y-98498868D01*
X109934270Y-98497557D01*
X109939609Y-98496765D01*
X109945000Y-98496500D01*
X110055000Y-98496500D01*
X110060391Y-98496765D01*
X110060391Y-98496765D01*
G37*
D15*
G04 #@! TD*
G04 #@! TO.P,U4,3*
G04 #@! TO.N,Net-(U4-Pad3)*
X110000000Y-98696500D03*
D16*
G04 #@! TO.P,U1,37*
G04 #@! TO.N,GND*
X119300000Y-97506500D03*
X117300000Y-99506500D03*
X117300000Y-97506500D03*
X119300000Y-99506500D03*
D17*
G04 #@! TO.P,U1,1*
G04 #@! TO.N,+3V3*
X121075000Y-100506500D03*
G04 #@! TO.P,U1,2*
G04 #@! TO.N,/OSC_IN*
X121075000Y-100006500D03*
G04 #@! TO.P,U1,3*
G04 #@! TO.N,/OSC_OUT*
X121075000Y-99506500D03*
G04 #@! TO.P,U1,4*
G04 #@! TO.N,/NRST*
X121075000Y-99006500D03*
G04 #@! TO.P,U1,5*
G04 #@! TO.N,GND*
X121075000Y-98506500D03*
G04 #@! TO.P,U1,6*
G04 #@! TO.N,+3V3*
X121075000Y-98006500D03*
G04 #@! TO.P,U1,7*
G04 #@! TO.N,Net-(U1-Pad7)*
X121075000Y-97506500D03*
G04 #@! TO.P,U1,8*
G04 #@! TO.N,Net-(U1-Pad8)*
X121075000Y-97006500D03*
G04 #@! TO.P,U1,9*
G04 #@! TO.N,Net-(U1-Pad9)*
X121075000Y-96506500D03*
D18*
G04 #@! TO.P,U1,10*
G04 #@! TO.N,/PA3*
X120300000Y-95731500D03*
G04 #@! TO.P,U1,11*
G04 #@! TO.N,Net-(U1-Pad11)*
X119800000Y-95731500D03*
G04 #@! TO.P,U1,12*
G04 #@! TO.N,Net-(U1-Pad12)*
X119300000Y-95731500D03*
G04 #@! TO.P,U1,13*
G04 #@! TO.N,Net-(U1-Pad13)*
X118800000Y-95731500D03*
G04 #@! TO.P,U1,14*
G04 #@! TO.N,Net-(U1-Pad14)*
X118300000Y-95731500D03*
G04 #@! TO.P,U1,15*
G04 #@! TO.N,Net-(U1-Pad15)*
X117800000Y-95731500D03*
G04 #@! TO.P,U1,16*
G04 #@! TO.N,Net-(U1-Pad16)*
X117300000Y-95731500D03*
G04 #@! TO.P,U1,17*
G04 #@! TO.N,GND*
X116800000Y-95731500D03*
G04 #@! TO.P,U1,18*
X116300000Y-95731500D03*
D17*
G04 #@! TO.P,U1,19*
G04 #@! TO.N,+3V3*
X115525000Y-96506500D03*
G04 #@! TO.P,U1,20*
G04 #@! TO.N,/LED*
X115525000Y-97006500D03*
G04 #@! TO.P,U1,21*
G04 #@! TO.N,Net-(U1-Pad21)*
X115525000Y-97506500D03*
G04 #@! TO.P,U1,22*
G04 #@! TO.N,Net-(U1-Pad22)*
X115525000Y-98006500D03*
G04 #@! TO.P,U1,23*
G04 #@! TO.N,/D-*
X115525000Y-98506500D03*
G04 #@! TO.P,U1,24*
G04 #@! TO.N,/D+*
X115525000Y-99006500D03*
G04 #@! TO.P,U1,25*
G04 #@! TO.N,/SWDIO*
X115525000Y-99506500D03*
G04 #@! TO.P,U1,26*
G04 #@! TO.N,GND*
X115525000Y-100006500D03*
G04 #@! TO.P,U1,27*
G04 #@! TO.N,+3V3*
X115525000Y-100506500D03*
D18*
G04 #@! TO.P,U1,28*
G04 #@! TO.N,/SWCLK*
X116300000Y-101281500D03*
G04 #@! TO.P,U1,29*
G04 #@! TO.N,Net-(U1-Pad29)*
X116800000Y-101281500D03*
G04 #@! TO.P,U1,30*
G04 #@! TO.N,Net-(U1-Pad30)*
X117300000Y-101281500D03*
G04 #@! TO.P,U1,31*
G04 #@! TO.N,Net-(U1-Pad31)*
X117800000Y-101281500D03*
G04 #@! TO.P,U1,32*
G04 #@! TO.N,Net-(U1-Pad32)*
X118300000Y-101281500D03*
G04 #@! TO.P,U1,33*
G04 #@! TO.N,Net-(U1-Pad33)*
X118800000Y-101281500D03*
G04 #@! TO.P,U1,34*
G04 #@! TO.N,Net-(U1-Pad34)*
X119300000Y-101281500D03*
G04 #@! TO.P,U1,35*
G04 #@! TO.N,GND*
X119800000Y-101281500D03*
G04 #@! TO.P,U1,36*
X120300000Y-101281500D03*
G04 #@! TD*
D13*
G04 #@! TO.N,/D+_PLUG*
G04 #@! TO.C,J1*
G36*
X127629405Y-99397945D02*
X127658527Y-99402264D01*
X127687085Y-99409418D01*
X127714805Y-99419336D01*
X127741419Y-99431924D01*
X127766671Y-99447059D01*
X127790318Y-99464597D01*
X127812132Y-99484368D01*
X127831903Y-99506182D01*
X127849441Y-99529829D01*
X127864576Y-99555081D01*
X127877164Y-99581695D01*
X127887082Y-99609415D01*
X127894236Y-99637973D01*
X127898555Y-99667095D01*
X127900000Y-99696500D01*
X127900000Y-100296500D01*
X127898555Y-100325905D01*
X127894236Y-100355027D01*
X127887082Y-100383585D01*
X127877164Y-100411305D01*
X127864576Y-100437919D01*
X127849441Y-100463171D01*
X127831903Y-100486818D01*
X127812132Y-100508632D01*
X127790318Y-100528403D01*
X127766671Y-100545941D01*
X127741419Y-100561076D01*
X127714805Y-100573664D01*
X127687085Y-100583582D01*
X127658527Y-100590736D01*
X127629405Y-100595055D01*
X127600000Y-100596500D01*
X126700000Y-100596500D01*
X126670595Y-100595055D01*
X126641473Y-100590736D01*
X126612915Y-100583582D01*
X126585195Y-100573664D01*
X126558581Y-100561076D01*
X126533329Y-100545941D01*
X126509682Y-100528403D01*
X126487868Y-100508632D01*
X126468097Y-100486818D01*
X126450559Y-100463171D01*
X126435424Y-100437919D01*
X126422836Y-100411305D01*
X126412918Y-100383585D01*
X126405764Y-100355027D01*
X126401445Y-100325905D01*
X126400000Y-100296500D01*
X126400000Y-99696500D01*
X126401445Y-99667095D01*
X126405764Y-99637973D01*
X126412918Y-99609415D01*
X126422836Y-99581695D01*
X126435424Y-99555081D01*
X126450559Y-99529829D01*
X126468097Y-99506182D01*
X126487868Y-99484368D01*
X126509682Y-99464597D01*
X126533329Y-99447059D01*
X126558581Y-99431924D01*
X126585195Y-99419336D01*
X126612915Y-99409418D01*
X126641473Y-99402264D01*
X126670595Y-99397945D01*
X126700000Y-99396500D01*
X127600000Y-99396500D01*
X127629405Y-99397945D01*
X127629405Y-99397945D01*
G37*
D19*
G04 #@! TD*
G04 #@! TO.P,J1,3*
G04 #@! TO.N,/D+_PLUG*
X127150000Y-99996500D03*
D13*
G04 #@! TO.N,/D-_PLUG*
G04 #@! TO.C,J1*
G36*
X127629405Y-97397945D02*
X127658527Y-97402264D01*
X127687085Y-97409418D01*
X127714805Y-97419336D01*
X127741419Y-97431924D01*
X127766671Y-97447059D01*
X127790318Y-97464597D01*
X127812132Y-97484368D01*
X127831903Y-97506182D01*
X127849441Y-97529829D01*
X127864576Y-97555081D01*
X127877164Y-97581695D01*
X127887082Y-97609415D01*
X127894236Y-97637973D01*
X127898555Y-97667095D01*
X127900000Y-97696500D01*
X127900000Y-98296500D01*
X127898555Y-98325905D01*
X127894236Y-98355027D01*
X127887082Y-98383585D01*
X127877164Y-98411305D01*
X127864576Y-98437919D01*
X127849441Y-98463171D01*
X127831903Y-98486818D01*
X127812132Y-98508632D01*
X127790318Y-98528403D01*
X127766671Y-98545941D01*
X127741419Y-98561076D01*
X127714805Y-98573664D01*
X127687085Y-98583582D01*
X127658527Y-98590736D01*
X127629405Y-98595055D01*
X127600000Y-98596500D01*
X126700000Y-98596500D01*
X126670595Y-98595055D01*
X126641473Y-98590736D01*
X126612915Y-98583582D01*
X126585195Y-98573664D01*
X126558581Y-98561076D01*
X126533329Y-98545941D01*
X126509682Y-98528403D01*
X126487868Y-98508632D01*
X126468097Y-98486818D01*
X126450559Y-98463171D01*
X126435424Y-98437919D01*
X126422836Y-98411305D01*
X126412918Y-98383585D01*
X126405764Y-98355027D01*
X126401445Y-98325905D01*
X126400000Y-98296500D01*
X126400000Y-97696500D01*
X126401445Y-97667095D01*
X126405764Y-97637973D01*
X126412918Y-97609415D01*
X126422836Y-97581695D01*
X126435424Y-97555081D01*
X126450559Y-97529829D01*
X126468097Y-97506182D01*
X126487868Y-97484368D01*
X126509682Y-97464597D01*
X126533329Y-97447059D01*
X126558581Y-97431924D01*
X126585195Y-97419336D01*
X126612915Y-97409418D01*
X126641473Y-97402264D01*
X126670595Y-97397945D01*
X126700000Y-97396500D01*
X127600000Y-97396500D01*
X127629405Y-97397945D01*
X127629405Y-97397945D01*
G37*
D19*
G04 #@! TD*
G04 #@! TO.P,J1,2*
G04 #@! TO.N,/D-_PLUG*
X127150000Y-97996500D03*
D13*
G04 #@! TO.N,GND*
G04 #@! TO.C,J1*
G36*
X127629405Y-101897945D02*
X127658527Y-101902264D01*
X127687085Y-101909418D01*
X127714805Y-101919336D01*
X127741419Y-101931924D01*
X127766671Y-101947059D01*
X127790318Y-101964597D01*
X127812132Y-101984368D01*
X127831903Y-102006182D01*
X127849441Y-102029829D01*
X127864576Y-102055081D01*
X127877164Y-102081695D01*
X127887082Y-102109415D01*
X127894236Y-102137973D01*
X127898555Y-102167095D01*
X127900000Y-102196500D01*
X127900000Y-102796500D01*
X127898555Y-102825905D01*
X127894236Y-102855027D01*
X127887082Y-102883585D01*
X127877164Y-102911305D01*
X127864576Y-102937919D01*
X127849441Y-102963171D01*
X127831903Y-102986818D01*
X127812132Y-103008632D01*
X127790318Y-103028403D01*
X127766671Y-103045941D01*
X127741419Y-103061076D01*
X127714805Y-103073664D01*
X127687085Y-103083582D01*
X127658527Y-103090736D01*
X127629405Y-103095055D01*
X127600000Y-103096500D01*
X126700000Y-103096500D01*
X126670595Y-103095055D01*
X126641473Y-103090736D01*
X126612915Y-103083582D01*
X126585195Y-103073664D01*
X126558581Y-103061076D01*
X126533329Y-103045941D01*
X126509682Y-103028403D01*
X126487868Y-103008632D01*
X126468097Y-102986818D01*
X126450559Y-102963171D01*
X126435424Y-102937919D01*
X126422836Y-102911305D01*
X126412918Y-102883585D01*
X126405764Y-102855027D01*
X126401445Y-102825905D01*
X126400000Y-102796500D01*
X126400000Y-102196500D01*
X126401445Y-102167095D01*
X126405764Y-102137973D01*
X126412918Y-102109415D01*
X126422836Y-102081695D01*
X126435424Y-102055081D01*
X126450559Y-102029829D01*
X126468097Y-102006182D01*
X126487868Y-101984368D01*
X126509682Y-101964597D01*
X126533329Y-101947059D01*
X126558581Y-101931924D01*
X126585195Y-101919336D01*
X126612915Y-101909418D01*
X126641473Y-101902264D01*
X126670595Y-101897945D01*
X126700000Y-101896500D01*
X127600000Y-101896500D01*
X127629405Y-101897945D01*
X127629405Y-101897945D01*
G37*
D19*
G04 #@! TD*
G04 #@! TO.P,J1,4*
G04 #@! TO.N,GND*
X127150000Y-102496500D03*
D13*
G04 #@! TO.N,/VBUS*
G04 #@! TO.C,J1*
G36*
X127629405Y-94897945D02*
X127658527Y-94902264D01*
X127687085Y-94909418D01*
X127714805Y-94919336D01*
X127741419Y-94931924D01*
X127766671Y-94947059D01*
X127790318Y-94964597D01*
X127812132Y-94984368D01*
X127831903Y-95006182D01*
X127849441Y-95029829D01*
X127864576Y-95055081D01*
X127877164Y-95081695D01*
X127887082Y-95109415D01*
X127894236Y-95137973D01*
X127898555Y-95167095D01*
X127900000Y-95196500D01*
X127900000Y-95796500D01*
X127898555Y-95825905D01*
X127894236Y-95855027D01*
X127887082Y-95883585D01*
X127877164Y-95911305D01*
X127864576Y-95937919D01*
X127849441Y-95963171D01*
X127831903Y-95986818D01*
X127812132Y-96008632D01*
X127790318Y-96028403D01*
X127766671Y-96045941D01*
X127741419Y-96061076D01*
X127714805Y-96073664D01*
X127687085Y-96083582D01*
X127658527Y-96090736D01*
X127629405Y-96095055D01*
X127600000Y-96096500D01*
X126700000Y-96096500D01*
X126670595Y-96095055D01*
X126641473Y-96090736D01*
X126612915Y-96083582D01*
X126585195Y-96073664D01*
X126558581Y-96061076D01*
X126533329Y-96045941D01*
X126509682Y-96028403D01*
X126487868Y-96008632D01*
X126468097Y-95986818D01*
X126450559Y-95963171D01*
X126435424Y-95937919D01*
X126422836Y-95911305D01*
X126412918Y-95883585D01*
X126405764Y-95855027D01*
X126401445Y-95825905D01*
X126400000Y-95796500D01*
X126400000Y-95196500D01*
X126401445Y-95167095D01*
X126405764Y-95137973D01*
X126412918Y-95109415D01*
X126422836Y-95081695D01*
X126435424Y-95055081D01*
X126450559Y-95029829D01*
X126468097Y-95006182D01*
X126487868Y-94984368D01*
X126509682Y-94964597D01*
X126533329Y-94947059D01*
X126558581Y-94931924D01*
X126585195Y-94919336D01*
X126612915Y-94909418D01*
X126641473Y-94902264D01*
X126670595Y-94897945D01*
X126700000Y-94896500D01*
X127600000Y-94896500D01*
X127629405Y-94897945D01*
X127629405Y-94897945D01*
G37*
D19*
G04 #@! TD*
G04 #@! TO.P,J1,1*
G04 #@! TO.N,/VBUS*
X127150000Y-95496500D03*
D20*
G04 #@! TO.P,J1,5*
G04 #@! TO.N,GND*
X128200000Y-104246500D03*
X128200000Y-93746500D03*
G04 #@! TD*
D21*
G04 #@! TO.P,U3,6*
G04 #@! TO.N,/D+_PLUG*
X112350000Y-95806500D03*
G04 #@! TO.P,U3,5*
G04 #@! TO.N,+3V3*
X113000000Y-95806500D03*
G04 #@! TO.P,U3,4*
G04 #@! TO.N,/D-_PLUG*
X113650000Y-95806500D03*
G04 #@! TO.P,U3,3*
G04 #@! TO.N,/D-*
X113650000Y-97706500D03*
G04 #@! TO.P,U3,2*
G04 #@! TO.N,GND*
X113000000Y-97706500D03*
G04 #@! TO.P,U3,1*
G04 #@! TO.N,/D+*
X112350000Y-97706500D03*
G04 #@! TD*
D22*
G04 #@! TO.P,X1,3*
G04 #@! TO.N,GND*
X123525000Y-101471500D03*
G04 #@! TO.P,X1,1*
G04 #@! TO.N,/OSC_IN*
X123525000Y-102871500D03*
G04 #@! TO.P,X1,3*
G04 #@! TO.N,GND*
X125225000Y-102871500D03*
G04 #@! TO.P,X1,2*
G04 #@! TO.N,/OSC_OUT*
X125225000Y-101471500D03*
G04 #@! TD*
D23*
G04 #@! TO.P,D1,2*
G04 #@! TO.N,/LED*
X109750000Y-99906500D03*
G04 #@! TO.P,D1,1*
G04 #@! TO.N,Net-(D1-Pad1)*
X109750000Y-101406500D03*
G04 #@! TD*
D24*
G04 #@! TO.P,R1,1*
G04 #@! TO.N,Net-(D1-Pad1)*
X111250000Y-101405140D03*
G04 #@! TO.P,R1,2*
G04 #@! TO.N,GND*
X111250000Y-100307860D03*
G04 #@! TD*
D25*
G04 #@! TO.P,C7,2*
G04 #@! TO.N,GND*
X125175000Y-99673340D03*
G04 #@! TO.P,C7,1*
G04 #@! TO.N,/VBUS*
X125175000Y-98169660D03*
G04 #@! TD*
D24*
G04 #@! TO.P,C1,2*
G04 #@! TO.N,+3V3*
X122600000Y-96987860D03*
G04 #@! TO.P,C1,1*
G04 #@! TO.N,GND*
X122600000Y-98085140D03*
G04 #@! TD*
D26*
G04 #@! TO.P,C2,2*
G04 #@! TO.N,+3V3*
X121248640Y-102756500D03*
G04 #@! TO.P,C2,1*
G04 #@! TO.N,GND*
X120151360Y-102756500D03*
G04 #@! TD*
G04 #@! TO.P,C5,2*
G04 #@! TO.N,+3V3*
X115451360Y-94206500D03*
G04 #@! TO.P,C5,1*
G04 #@! TO.N,GND*
X116548640Y-94206500D03*
G04 #@! TD*
D24*
G04 #@! TO.P,C4,2*
G04 #@! TO.N,+3V3*
X114000000Y-101325140D03*
G04 #@! TO.P,C4,1*
G04 #@! TO.N,GND*
X114000000Y-100227860D03*
G04 #@! TD*
D26*
G04 #@! TO.P,C3,2*
G04 #@! TO.N,GND*
X118848640Y-102756500D03*
G04 #@! TO.P,C3,1*
G04 #@! TO.N,/NRST*
X117751360Y-102756500D03*
G04 #@! TD*
D25*
G04 #@! TO.P,C6,2*
G04 #@! TO.N,GND*
X122750000Y-94144660D03*
G04 #@! TO.P,C6,1*
G04 #@! TO.N,+3V3*
X122750000Y-95648340D03*
G04 #@! TD*
D27*
G04 #@! TO.N,/D+_PLUG*
X111861340Y-95643440D03*
X126825000Y-100171500D03*
G04 #@! TO.N,/D-_PLUG*
X127525000Y-97796500D03*
X114425000Y-94996500D03*
G04 #@! TO.N,/NRST*
X117177820Y-102494080D03*
X122639861Y-99546639D03*
G04 #@! TO.N,GND*
X118300500Y-98577400D03*
X113300000Y-100250000D03*
X123449998Y-101396500D03*
G04 #@! TO.N,+3V3*
X115341400Y-95897700D03*
X121386600Y-101201220D03*
X123750000Y-96946500D03*
X113300000Y-101500000D03*
G04 #@! TO.N,/PA3*
X120243600Y-93941900D03*
X110210600Y-96443800D03*
G04 #@! TD*
D28*
G04 #@! TO.N,/D+*
X112389920Y-98140520D02*
X112389920Y-97665540D01*
X113365280Y-99021900D02*
X113271300Y-99021900D01*
X113271300Y-99021900D02*
X112389920Y-98140520D01*
X115488368Y-99001451D02*
X115290600Y-99021900D01*
X115290600Y-99021900D02*
X113360200Y-99021900D01*
G04 #@! TO.N,/D+_PLUG*
X112049558Y-95818958D02*
X111887000Y-95656400D01*
X112420400Y-95821500D02*
X112049558Y-95821500D01*
G04 #@! TO.N,/D-*
X113652300Y-97764600D02*
X113677700Y-97739200D01*
X113652300Y-97878900D02*
X113652300Y-97764600D01*
X115488368Y-98501071D02*
X114274471Y-98501071D01*
X114274471Y-98501071D02*
X113652300Y-97878900D01*
G04 #@! TO.N,/D-_PLUG*
X127523582Y-97795082D02*
X127525000Y-97796500D01*
X127201418Y-97795082D02*
X127523582Y-97795082D01*
X114375000Y-94996500D02*
X114450000Y-94996500D01*
X113725000Y-95646500D02*
X114375000Y-94996500D01*
G04 #@! TO.N,/LED*
X109982000Y-99949000D02*
X109855000Y-99822000D01*
X110464600Y-98996500D02*
X110464600Y-98882200D01*
X109994700Y-99466400D02*
X110464600Y-98996500D01*
X109816900Y-99872800D02*
X109994700Y-99695000D01*
X109994700Y-99695000D02*
X109994700Y-99466400D01*
X113217831Y-96999931D02*
X115488368Y-96999931D01*
X112739400Y-96521500D02*
X113217831Y-96999931D01*
X110464600Y-98868300D02*
X110464600Y-97358200D01*
X111301300Y-96521500D02*
X112739400Y-96521500D01*
X110464600Y-97358200D02*
X111301300Y-96521500D01*
G04 #@! TO.N,/NRST*
X121040808Y-99001451D02*
X121090337Y-99050980D01*
X121040808Y-99001451D02*
X122079891Y-99001451D01*
X116956840Y-102257860D02*
X117210840Y-102511860D01*
X117210840Y-102511860D02*
X117901720Y-102511860D01*
X115493800Y-102257860D02*
X116956840Y-102257860D01*
X114790220Y-103233220D02*
X114790220Y-102961440D01*
X114790220Y-102961440D02*
X115493800Y-102257860D01*
X122123200Y-99047300D02*
X122643900Y-99568000D01*
X122072400Y-98996500D02*
X122123200Y-99047300D01*
G04 #@! TO.N,/OSC_IN*
X123934220Y-103113840D02*
X123934220Y-103108760D01*
X121520490Y-100002211D02*
X121040808Y-100002211D01*
X122375000Y-100856721D02*
X121520490Y-100002211D01*
X122375000Y-102321500D02*
X122375000Y-100856721D01*
X123177040Y-102646500D02*
X122700000Y-102646500D01*
X122700000Y-102646500D02*
X122375000Y-102321500D01*
G04 #@! TO.N,/OSC_OUT*
X124875000Y-101271500D02*
X124975000Y-101371500D01*
X124875000Y-100871500D02*
X124875000Y-101271500D01*
X124575000Y-100571500D02*
X124875000Y-100871500D01*
X121081800Y-99517200D02*
X121619058Y-99517200D01*
X122673358Y-100571500D02*
X124575000Y-100571500D01*
X121619058Y-99517200D02*
X122673358Y-100571500D01*
G04 #@! TO.N,/SWCLK*
X116263068Y-101502081D02*
X116263068Y-101277291D01*
X114721640Y-102268020D02*
X115516660Y-101473000D01*
X114251740Y-102268020D02*
X114721640Y-102268020D01*
X113548160Y-103162100D02*
X113548160Y-102971600D01*
X116205000Y-101473000D02*
X116268500Y-101536500D01*
X115516660Y-101473000D02*
X116205000Y-101473000D01*
X113548160Y-102971600D02*
X114251740Y-102268020D01*
G04 #@! TO.N,/SWDIO*
X112947700Y-99501831D02*
X112483900Y-99965631D01*
X115488368Y-99501831D02*
X112947700Y-99501831D01*
X112483900Y-99965631D02*
X112483900Y-102938580D01*
X112268000Y-103162100D02*
X112483900Y-102946200D01*
X112268000Y-103174800D02*
X112268000Y-103162100D01*
D29*
G04 #@! TO.N,/VBUS*
X125150000Y-97396500D02*
X125150000Y-98096500D01*
X126025000Y-95496500D02*
X126025000Y-96521500D01*
X126025000Y-96521500D02*
X125150000Y-97396500D01*
D28*
G04 #@! TO.N,GND*
X128200000Y-93996500D02*
X128200000Y-93973500D01*
X128200000Y-93973500D02*
X128016000Y-93789500D01*
D30*
X119305988Y-97459671D02*
X119305988Y-97495712D01*
X117223188Y-97459671D02*
X117223188Y-97500088D01*
X117223188Y-97500088D02*
X119227600Y-99504500D01*
X119305988Y-97459671D02*
X119305988Y-97521112D01*
X118300500Y-98526600D02*
X118300500Y-98577400D01*
X118300500Y-98577400D02*
X119214900Y-99491800D01*
D28*
X118262400Y-98539300D02*
X118300500Y-98577400D01*
D30*
X119305988Y-97495712D02*
X118262400Y-98539300D01*
D31*
X121040808Y-98501071D02*
X122453529Y-98501071D01*
D28*
X122555000Y-98404680D02*
X122555000Y-98107500D01*
D31*
X122455940Y-98503740D02*
X122555000Y-98404680D01*
D32*
X115488368Y-100002211D02*
X115013718Y-100002211D01*
D28*
X111978440Y-102086410D02*
X111718090Y-102346760D01*
X128200000Y-103996500D02*
X128079340Y-103875840D01*
X128079340Y-103875840D02*
X127391160Y-103875840D01*
D30*
X119280588Y-97485071D02*
X119280588Y-97881088D01*
X119280588Y-97881088D02*
X119231976Y-97929700D01*
X119231976Y-97929700D02*
X117627400Y-97929700D01*
X117221000Y-97523300D02*
X117221000Y-97548700D01*
X117221000Y-97548700D02*
X117627400Y-97955100D01*
X117627400Y-97955100D02*
X118897400Y-97955100D01*
X119280588Y-99517071D02*
X119138571Y-99517071D01*
X117248588Y-97485071D02*
X117309771Y-97485071D01*
X117309771Y-97586671D02*
X117703600Y-97980500D01*
X117309771Y-97485071D02*
X117309771Y-97586671D01*
X117309771Y-97485071D02*
X117729000Y-97904300D01*
X119280588Y-99517071D02*
X119214771Y-99517071D01*
X119214771Y-99491671D02*
X118770400Y-99047300D01*
X119214771Y-99517071D02*
X119214771Y-99491671D01*
D33*
X119832120Y-101277420D02*
X120154700Y-101277420D01*
D34*
X116586000Y-94488000D02*
X116586000Y-95585280D01*
X116370100Y-95605600D02*
X116690140Y-95605600D01*
D32*
X114841429Y-100012370D02*
X114742368Y-100111431D01*
X114742368Y-100111431D02*
X114327588Y-100111431D01*
X115023900Y-100002340D02*
X115013870Y-100012370D01*
X115013870Y-100012370D02*
X114841429Y-100012370D01*
D28*
X108902500Y-98653600D02*
X108915200Y-98640900D01*
X108902500Y-102031800D02*
X108902500Y-98653600D01*
X111734600Y-102349300D02*
X109220000Y-102349300D01*
X109220000Y-102349300D02*
X108902500Y-102031800D01*
D35*
X112499140Y-97152460D02*
X112595660Y-97152460D01*
X111381540Y-97152460D02*
X112499140Y-97152460D01*
X111340900Y-97193100D02*
X111381540Y-97152460D01*
X111340900Y-97523300D02*
X111340900Y-97193100D01*
D28*
X113836983Y-100253800D02*
X113271298Y-100253800D01*
X114327588Y-100111431D02*
X114185219Y-100253800D01*
X114185219Y-100253800D02*
X113836983Y-100253800D01*
X116586000Y-94576900D02*
X116586000Y-94043500D01*
D35*
X113045240Y-97513140D02*
X113045240Y-97711260D01*
X112588040Y-97152460D02*
X112684560Y-97152460D01*
X112684560Y-97152460D02*
X113045240Y-97513140D01*
X111340900Y-98003549D02*
X111340900Y-97536000D01*
X111836200Y-98498849D02*
X111340900Y-98003549D01*
X111836200Y-100050600D02*
X111836200Y-98498849D01*
X111975900Y-100190300D02*
X111836200Y-100050600D01*
X111988600Y-102095300D02*
X111975900Y-102082600D01*
X111975900Y-102082600D02*
X111975900Y-100190300D01*
D28*
X111935260Y-100276660D02*
X111950500Y-100291900D01*
X111302800Y-100276660D02*
X111935260Y-100276660D01*
D36*
X120307100Y-102577900D02*
X120269000Y-102616000D01*
X120243600Y-101257100D02*
X120307100Y-101320600D01*
X120307100Y-101320600D02*
X120307100Y-102577900D01*
D28*
X119888000Y-103505000D02*
X120211850Y-103181150D01*
X120211850Y-102539800D02*
X119957850Y-102793800D01*
X116801900Y-103505000D02*
X119888000Y-103505000D01*
X120211850Y-103181150D02*
X120211850Y-102539800D01*
X116123720Y-103159560D02*
X116456460Y-103159560D01*
X116456460Y-103159560D02*
X116801900Y-103505000D01*
D35*
X114820420Y-93357700D02*
X110741460Y-93357700D01*
X114829031Y-93349089D02*
X114820420Y-93357700D01*
X116598700Y-93992700D02*
X116598700Y-93687900D01*
X116259889Y-93349089D02*
X114829031Y-93349089D01*
X116598700Y-93687900D02*
X116259889Y-93349089D01*
D28*
X118872000Y-102755700D02*
X119957850Y-102755700D01*
X118846600Y-102730300D02*
X118872000Y-102755700D01*
X108915200Y-98590100D02*
X108915200Y-98640900D01*
X109550200Y-98628200D02*
X108953300Y-98628200D01*
X108953300Y-98628200D02*
X108915200Y-98590100D01*
X108915200Y-95181300D02*
X110725000Y-93371500D01*
X108915200Y-98640900D02*
X108915200Y-95181300D01*
X127403860Y-103875840D02*
X127150000Y-103621980D01*
X127150000Y-103429220D02*
X127150000Y-102821500D01*
X127150000Y-103621980D02*
X127150000Y-103429220D01*
D30*
X123500000Y-101346498D02*
X123449998Y-101396500D01*
D37*
X122950000Y-94321500D02*
X123750000Y-94321500D01*
X122775000Y-94146500D02*
X122950000Y-94321500D01*
D28*
X124275000Y-93196500D02*
X127423000Y-93196500D01*
X127423000Y-93196500D02*
X128143000Y-93916500D01*
X123925000Y-94371500D02*
X123925000Y-93546500D01*
X123925000Y-93546500D02*
X124275000Y-93196500D01*
D29*
X123386400Y-98132900D02*
X122529600Y-98132900D01*
X123475000Y-98921500D02*
X123475000Y-98221500D01*
X123475000Y-98221500D02*
X123386400Y-98132900D01*
X124975000Y-99671500D02*
X124225000Y-99671500D01*
X124225000Y-99671500D02*
X123475000Y-98921500D01*
D38*
X125450000Y-102571500D02*
X127150000Y-102571500D01*
X125225000Y-102796500D02*
X125450000Y-102571500D01*
D32*
G04 #@! TO.N,+3V3*
X115488368Y-96499551D02*
X114038251Y-96499551D01*
D34*
X121348500Y-100545900D02*
X121361200Y-100558600D01*
D32*
X121810909Y-98000691D02*
X121820940Y-97990660D01*
X121040808Y-98000691D02*
X121810909Y-98000691D01*
D39*
X122529600Y-95897700D02*
X122529600Y-96812100D01*
X122529600Y-96812100D02*
X122692160Y-96974660D01*
X114735129Y-101351080D02*
X115519200Y-100567009D01*
X114414300Y-101351080D02*
X114735129Y-101351080D01*
X113471960Y-101533960D02*
X114231420Y-101533960D01*
X114231420Y-101533960D02*
X114414300Y-101351080D01*
D32*
X113055400Y-96192340D02*
X113055400Y-95885000D01*
X114096800Y-96507300D02*
X113362611Y-96499551D01*
X113362611Y-96499551D02*
X113055400Y-96192340D01*
D34*
X121856500Y-97904300D02*
X121856500Y-97066100D01*
X121805700Y-97955100D02*
X121856500Y-97904300D01*
D38*
X121945400Y-96989900D02*
X122422156Y-96989900D01*
X121856500Y-97078800D02*
X121945400Y-96989900D01*
X121386600Y-103466900D02*
X121386600Y-100596700D01*
X120751600Y-104101900D02*
X121386600Y-103466900D01*
X110998000Y-103187500D02*
X110998000Y-103568500D01*
X111531400Y-104101900D02*
X120751600Y-104101900D01*
X110998000Y-103568500D02*
X111531400Y-104101900D01*
X122862960Y-96971500D02*
X123650000Y-96971500D01*
X122692160Y-96974660D02*
X122859800Y-96974660D01*
X122859800Y-96974660D02*
X122862960Y-96971500D01*
D39*
X123800000Y-96821500D02*
X123800000Y-96221500D01*
X123675000Y-96946500D02*
X123800000Y-96821500D01*
D38*
X123525000Y-95896500D02*
X123825000Y-96196500D01*
X122862960Y-95896500D02*
X123525000Y-95896500D01*
D28*
X109499400Y-96151700D02*
X109499400Y-97218500D01*
X110020100Y-95631000D02*
X109499400Y-96151700D01*
X115265200Y-94234000D02*
X115252500Y-94246700D01*
X111544100Y-94919800D02*
X110832900Y-95631000D01*
X114149800Y-94246700D02*
X113476700Y-94919800D01*
X113476700Y-94919800D02*
X111544100Y-94919800D01*
X115252500Y-94246700D02*
X114149800Y-94246700D01*
X110832900Y-95631000D02*
X110020100Y-95631000D01*
D32*
X115600000Y-96413800D02*
X115519200Y-96494600D01*
D39*
X115550000Y-94321500D02*
X115550000Y-96421500D01*
X115475000Y-94246500D02*
X115550000Y-94321500D01*
X115350000Y-95914500D02*
X115450620Y-95813880D01*
X115350000Y-95921500D02*
X115350000Y-95914500D01*
D28*
G04 #@! TO.N,Net-(D1-Pad1)*
X111213900Y-101384100D02*
X111264700Y-101333300D01*
X109905800Y-101384100D02*
X111213900Y-101384100D01*
G04 #@! TO.N,/PA3*
X120266108Y-95724851D02*
X120269000Y-95721959D01*
X120269000Y-94018100D02*
X120243600Y-93992700D01*
X120269000Y-95758000D02*
X120269000Y-94018100D01*
X110007400Y-96685100D02*
X110172500Y-96520000D01*
X110007400Y-97129600D02*
X110007400Y-96685100D01*
G04 #@! TD*
D40*
G04 #@! TO.N,GND*
G36*
X127220093Y-94168676D02*
X127228947Y-94206677D01*
X127251669Y-94238396D01*
X127298814Y-94263141D01*
X127770763Y-94365652D01*
X127784701Y-94379590D01*
X127793664Y-94370627D01*
X127886131Y-94390711D01*
X127897179Y-94425298D01*
X128179995Y-94489512D01*
X128270061Y-94474104D01*
X129263001Y-94689780D01*
X129263000Y-103616648D01*
X128512597Y-103598306D01*
X128502821Y-103567702D01*
X128220005Y-103503488D01*
X127934144Y-103552391D01*
X127897179Y-103567702D01*
X127880013Y-103621439D01*
X127800821Y-103629530D01*
X127784701Y-103613410D01*
X127764912Y-103633199D01*
X127358136Y-103674758D01*
X127320840Y-103686220D01*
X127290769Y-103711082D01*
X127270572Y-103753046D01*
X127020881Y-104904400D01*
X108862000Y-104904400D01*
X108862000Y-101056500D01*
X109039065Y-101056500D01*
X109039065Y-101756500D01*
X109066540Y-101894624D01*
X109144780Y-102011720D01*
X109261876Y-102089960D01*
X109400000Y-102117435D01*
X110100000Y-102117435D01*
X110238124Y-102089960D01*
X110355220Y-102011720D01*
X110433460Y-101894624D01*
X110444638Y-101838430D01*
X110550216Y-101838430D01*
X110567290Y-101924264D01*
X110645530Y-102041360D01*
X110762626Y-102119600D01*
X110900750Y-102147075D01*
X111599250Y-102147075D01*
X111737374Y-102119600D01*
X111854470Y-102041360D01*
X111932710Y-101924264D01*
X111960185Y-101786140D01*
X111960185Y-101024140D01*
X111932710Y-100886016D01*
X111912982Y-100856491D01*
X111953250Y-100759275D01*
X111953250Y-100550360D01*
X111864750Y-100461860D01*
X111404000Y-100461860D01*
X111404000Y-100481860D01*
X111096000Y-100481860D01*
X111096000Y-100461860D01*
X110635250Y-100461860D01*
X110546750Y-100550360D01*
X110546750Y-100759275D01*
X110587018Y-100856491D01*
X110567290Y-100886016D01*
X110558587Y-100929770D01*
X110435726Y-100929770D01*
X110433460Y-100918376D01*
X110355220Y-100801280D01*
X110238124Y-100723040D01*
X110100000Y-100695565D01*
X109400000Y-100695565D01*
X109261876Y-100723040D01*
X109144780Y-100801280D01*
X109066540Y-100918376D01*
X109039065Y-101056500D01*
X108862000Y-101056500D01*
X108862000Y-97846500D01*
X108989065Y-97846500D01*
X108989065Y-98146500D01*
X109027958Y-98342026D01*
X109054416Y-98381624D01*
X109036000Y-98426085D01*
X109036000Y-98508000D01*
X109124500Y-98596500D01*
X109271485Y-98596500D01*
X109304474Y-98618542D01*
X109500000Y-98657435D01*
X109529065Y-98657435D01*
X109529065Y-98841500D01*
X109534833Y-98870500D01*
X109445000Y-98870500D01*
X109445000Y-98796500D01*
X109124500Y-98796500D01*
X109036000Y-98885000D01*
X109036000Y-98966915D01*
X109089893Y-99097025D01*
X109189475Y-99196607D01*
X109258590Y-99225235D01*
X109144780Y-99301280D01*
X109066540Y-99418376D01*
X109039065Y-99556500D01*
X109039065Y-100256500D01*
X109066540Y-100394624D01*
X109144780Y-100511720D01*
X109261876Y-100589960D01*
X109400000Y-100617435D01*
X110100000Y-100617435D01*
X110238124Y-100589960D01*
X110355220Y-100511720D01*
X110433460Y-100394624D01*
X110460935Y-100256500D01*
X110460935Y-99856445D01*
X110546750Y-99856445D01*
X110546750Y-100065360D01*
X110635250Y-100153860D01*
X111096000Y-100153860D01*
X111096000Y-99661360D01*
X111404000Y-99661360D01*
X111404000Y-100153860D01*
X111864750Y-100153860D01*
X111953250Y-100065360D01*
X111953250Y-99856445D01*
X111899357Y-99726335D01*
X111799775Y-99626753D01*
X111669665Y-99572860D01*
X111492500Y-99572860D01*
X111404000Y-99661360D01*
X111096000Y-99661360D01*
X111007500Y-99572860D01*
X110830335Y-99572860D01*
X110700225Y-99626753D01*
X110600643Y-99726335D01*
X110546750Y-99856445D01*
X110460935Y-99856445D01*
X110460935Y-99642684D01*
X110754223Y-99349397D01*
X110792153Y-99324053D01*
X110817499Y-99286121D01*
X110859648Y-99223040D01*
X110892569Y-99173770D01*
X110918930Y-99041244D01*
X110918930Y-99041239D01*
X110927829Y-98996500D01*
X110918930Y-98951761D01*
X110918930Y-97546389D01*
X111489490Y-96975830D01*
X112551211Y-96975830D01*
X112693025Y-97117644D01*
X112682633Y-97121948D01*
X112550000Y-97095565D01*
X112150000Y-97095565D01*
X112011876Y-97123040D01*
X111894780Y-97201280D01*
X111816540Y-97318376D01*
X111789065Y-97456500D01*
X111789065Y-97956500D01*
X111816540Y-98094624D01*
X111894780Y-98211720D01*
X111947915Y-98247223D01*
X111961951Y-98317789D01*
X112062367Y-98468073D01*
X112100300Y-98493419D01*
X112716666Y-99109785D01*
X112658078Y-99148933D01*
X112620147Y-99174278D01*
X112594803Y-99212208D01*
X112194280Y-99612732D01*
X112156347Y-99638078D01*
X112055931Y-99788362D01*
X112029570Y-99920888D01*
X112029570Y-99920892D01*
X112020671Y-99965631D01*
X112029570Y-100010370D01*
X112029571Y-102457437D01*
X111840893Y-102535589D01*
X111633000Y-102743482D01*
X111425107Y-102535589D01*
X111147980Y-102420800D01*
X110848020Y-102420800D01*
X110570893Y-102535589D01*
X110358789Y-102747693D01*
X110244000Y-103024820D01*
X110244000Y-103324780D01*
X110358789Y-103601907D01*
X110459906Y-103703024D01*
X110476144Y-103784659D01*
X110567682Y-103921655D01*
X110567684Y-103921657D01*
X110598590Y-103967911D01*
X110644844Y-103998817D01*
X111101082Y-104455056D01*
X111131989Y-104501311D01*
X111178243Y-104532217D01*
X111178244Y-104532218D01*
X111261157Y-104587619D01*
X111315240Y-104623756D01*
X111476838Y-104655900D01*
X111476842Y-104655900D01*
X111531400Y-104666752D01*
X111585958Y-104655900D01*
X120697042Y-104655900D01*
X120751600Y-104666752D01*
X120806158Y-104655900D01*
X120806162Y-104655900D01*
X120967760Y-104623756D01*
X121151011Y-104501311D01*
X121181919Y-104455054D01*
X121739757Y-103897217D01*
X121786011Y-103866311D01*
X121840570Y-103784659D01*
X121908456Y-103683060D01*
X121917618Y-103637000D01*
X121940600Y-103521462D01*
X121940600Y-103521458D01*
X121951452Y-103466900D01*
X121940600Y-103412342D01*
X121940600Y-103277548D01*
X121963100Y-103243874D01*
X121990575Y-103105750D01*
X121990575Y-102563938D01*
X122047447Y-102649053D01*
X122085380Y-102674399D01*
X122347103Y-102936122D01*
X122372447Y-102974053D01*
X122410377Y-102999397D01*
X122410378Y-102999398D01*
X122522728Y-103074468D01*
X122522729Y-103074468D01*
X122522730Y-103074469D01*
X122614065Y-103092637D01*
X122614065Y-103371500D01*
X122641540Y-103509624D01*
X122719780Y-103626720D01*
X122836876Y-103704960D01*
X122975000Y-103732435D01*
X124075000Y-103732435D01*
X124213124Y-103704960D01*
X124330220Y-103626720D01*
X124371783Y-103564516D01*
X124374893Y-103572025D01*
X124474475Y-103671607D01*
X124604585Y-103725500D01*
X124982500Y-103725500D01*
X125071000Y-103637000D01*
X125071000Y-103025500D01*
X125051000Y-103025500D01*
X125051000Y-102717500D01*
X125071000Y-102717500D01*
X125071000Y-102697500D01*
X125379000Y-102697500D01*
X125379000Y-102717500D01*
X125399000Y-102717500D01*
X125399000Y-103025500D01*
X125379000Y-103025500D01*
X125379000Y-103637000D01*
X125467500Y-103725500D01*
X125845415Y-103725500D01*
X125975525Y-103671607D01*
X126075107Y-103572025D01*
X126129000Y-103441915D01*
X126129000Y-103326132D01*
X126199475Y-103396607D01*
X126329585Y-103450500D01*
X126907500Y-103450500D01*
X126996000Y-103362000D01*
X126996000Y-102650500D01*
X127304000Y-102650500D01*
X127304000Y-103362000D01*
X127392500Y-103450500D01*
X127970415Y-103450500D01*
X128100525Y-103396607D01*
X128200107Y-103297025D01*
X128254000Y-103166915D01*
X128254000Y-102739000D01*
X128165500Y-102650500D01*
X127304000Y-102650500D01*
X126996000Y-102650500D01*
X126976000Y-102650500D01*
X126976000Y-102342500D01*
X126996000Y-102342500D01*
X126996000Y-101631000D01*
X127304000Y-101631000D01*
X127304000Y-102342500D01*
X128165500Y-102342500D01*
X128254000Y-102254000D01*
X128254000Y-101826085D01*
X128200107Y-101695975D01*
X128100525Y-101596393D01*
X127970415Y-101542500D01*
X127392500Y-101542500D01*
X127304000Y-101631000D01*
X126996000Y-101631000D01*
X126907500Y-101542500D01*
X126329585Y-101542500D01*
X126199475Y-101596393D01*
X126135935Y-101659933D01*
X126135935Y-100971500D01*
X126108460Y-100833376D01*
X126030220Y-100716280D01*
X125913124Y-100638040D01*
X125775000Y-100610565D01*
X125247066Y-100610565D01*
X125227898Y-100581878D01*
X125227897Y-100581877D01*
X125202553Y-100543947D01*
X125164623Y-100518603D01*
X125021000Y-100374981D01*
X125021000Y-99827340D01*
X125329000Y-99827340D01*
X125329000Y-100388420D01*
X125417500Y-100476920D01*
X125745795Y-100476920D01*
X125875905Y-100423027D01*
X125975487Y-100323445D01*
X126029380Y-100193335D01*
X126029380Y-99915840D01*
X125940880Y-99827340D01*
X125329000Y-99827340D01*
X125021000Y-99827340D01*
X124409120Y-99827340D01*
X124320620Y-99915840D01*
X124320620Y-100117170D01*
X123135648Y-100117170D01*
X123279072Y-99973746D01*
X123393861Y-99696619D01*
X123393861Y-99696500D01*
X126039065Y-99696500D01*
X126039065Y-100296500D01*
X126089376Y-100549429D01*
X126232648Y-100763852D01*
X126447071Y-100907124D01*
X126700000Y-100957435D01*
X127600000Y-100957435D01*
X127852929Y-100907124D01*
X128067352Y-100763852D01*
X128210624Y-100549429D01*
X128260935Y-100296500D01*
X128260935Y-99696500D01*
X128210624Y-99443571D01*
X128067352Y-99229148D01*
X127852929Y-99085876D01*
X127600000Y-99035565D01*
X126700000Y-99035565D01*
X126447071Y-99085876D01*
X126232648Y-99229148D01*
X126089376Y-99443571D01*
X126039065Y-99696500D01*
X123393861Y-99696500D01*
X123393861Y-99396659D01*
X123279072Y-99119532D01*
X123066968Y-98907428D01*
X122856235Y-98820140D01*
X123019665Y-98820140D01*
X123149775Y-98766247D01*
X123249357Y-98666665D01*
X123303250Y-98536555D01*
X123303250Y-98327640D01*
X123214750Y-98239140D01*
X122754000Y-98239140D01*
X122754000Y-98259140D01*
X122446000Y-98259140D01*
X122446000Y-98239140D01*
X122426000Y-98239140D01*
X122426000Y-97931140D01*
X122446000Y-97931140D01*
X122446000Y-97911140D01*
X122754000Y-97911140D01*
X122754000Y-97931140D01*
X123214750Y-97931140D01*
X123303250Y-97842640D01*
X123303250Y-97720080D01*
X124313685Y-97720080D01*
X124313685Y-98619240D01*
X124341160Y-98757364D01*
X124419400Y-98874460D01*
X124485780Y-98918813D01*
X124474095Y-98923653D01*
X124374513Y-99023235D01*
X124320620Y-99153345D01*
X124320620Y-99430840D01*
X124409120Y-99519340D01*
X125021000Y-99519340D01*
X125021000Y-99499340D01*
X125329000Y-99499340D01*
X125329000Y-99519340D01*
X125940880Y-99519340D01*
X126029380Y-99430840D01*
X126029380Y-99153345D01*
X125975487Y-99023235D01*
X125875905Y-98923653D01*
X125864220Y-98918813D01*
X125930600Y-98874460D01*
X126008840Y-98757364D01*
X126036315Y-98619240D01*
X126036315Y-97720080D01*
X126031625Y-97696500D01*
X126039065Y-97696500D01*
X126039065Y-98296500D01*
X126089376Y-98549429D01*
X126232648Y-98763852D01*
X126447071Y-98907124D01*
X126700000Y-98957435D01*
X127600000Y-98957435D01*
X127852929Y-98907124D01*
X128067352Y-98763852D01*
X128210624Y-98549429D01*
X128260935Y-98296500D01*
X128260935Y-97990093D01*
X128279000Y-97946480D01*
X128279000Y-97646520D01*
X128225118Y-97516436D01*
X128210624Y-97443571D01*
X128169350Y-97381800D01*
X128164211Y-97369393D01*
X128154715Y-97359897D01*
X128067352Y-97229148D01*
X127852929Y-97085876D01*
X127712043Y-97057852D01*
X127674980Y-97042500D01*
X127634864Y-97042500D01*
X127600000Y-97035565D01*
X126700000Y-97035565D01*
X126447071Y-97085876D01*
X126232648Y-97229148D01*
X126089376Y-97443571D01*
X126039065Y-97696500D01*
X126031625Y-97696500D01*
X126008840Y-97581956D01*
X125932693Y-97467992D01*
X126410026Y-96990659D01*
X126460460Y-96956960D01*
X126593956Y-96757169D01*
X126629000Y-96580989D01*
X126629000Y-96580988D01*
X126640833Y-96521500D01*
X126629000Y-96462012D01*
X126629000Y-96443312D01*
X126700000Y-96457435D01*
X127600000Y-96457435D01*
X127852929Y-96407124D01*
X128067352Y-96263852D01*
X128210624Y-96049429D01*
X128260935Y-95796500D01*
X128260935Y-95196500D01*
X128210624Y-94943571D01*
X128067352Y-94729148D01*
X127852929Y-94585876D01*
X127600000Y-94535565D01*
X126700000Y-94535565D01*
X126448634Y-94585565D01*
X125775000Y-94585565D01*
X125636876Y-94613040D01*
X125519780Y-94691280D01*
X125441540Y-94808376D01*
X125414065Y-94946500D01*
X125414065Y-95546500D01*
X125421000Y-95581365D01*
X125421001Y-96271314D01*
X124764976Y-96927339D01*
X124714540Y-96961040D01*
X124581044Y-97160832D01*
X124560523Y-97264000D01*
X124536077Y-97386900D01*
X124419400Y-97464860D01*
X124341160Y-97581956D01*
X124313685Y-97720080D01*
X123303250Y-97720080D01*
X123303250Y-97633725D01*
X123262982Y-97536509D01*
X123267272Y-97530090D01*
X123322893Y-97585711D01*
X123600020Y-97700500D01*
X123899980Y-97700500D01*
X124177107Y-97585711D01*
X124389211Y-97373607D01*
X124504000Y-97096480D01*
X124504000Y-96831775D01*
X124513124Y-96829960D01*
X124630220Y-96751720D01*
X124708460Y-96634624D01*
X124735935Y-96496500D01*
X124735935Y-95896500D01*
X124708460Y-95758376D01*
X124630220Y-95641280D01*
X124513124Y-95563040D01*
X124375000Y-95535565D01*
X123950120Y-95535565D01*
X123924411Y-95497089D01*
X123741160Y-95374644D01*
X123611315Y-95348816D01*
X123611315Y-95198760D01*
X123583840Y-95060636D01*
X123510250Y-94950500D01*
X123682500Y-94950500D01*
X123771000Y-94862000D01*
X123771000Y-94446500D01*
X124079000Y-94446500D01*
X124079000Y-94862000D01*
X124167500Y-94950500D01*
X124445415Y-94950500D01*
X124575525Y-94896607D01*
X124675107Y-94797025D01*
X124729000Y-94666915D01*
X124729000Y-94535000D01*
X124640500Y-94446500D01*
X124079000Y-94446500D01*
X123771000Y-94446500D01*
X123604380Y-94446500D01*
X123604380Y-94387160D01*
X123515882Y-94298662D01*
X123604380Y-94298662D01*
X123604380Y-94146500D01*
X123771000Y-94146500D01*
X123771000Y-93731000D01*
X124079000Y-93731000D01*
X124079000Y-94146500D01*
X124640500Y-94146500D01*
X124729000Y-94058000D01*
X124729000Y-93926085D01*
X124675107Y-93795975D01*
X124575525Y-93696393D01*
X124445415Y-93642500D01*
X124167500Y-93642500D01*
X124079000Y-93731000D01*
X123771000Y-93731000D01*
X123682500Y-93642500D01*
X123604380Y-93642500D01*
X123604380Y-93624665D01*
X123550487Y-93494555D01*
X123450905Y-93394973D01*
X123320795Y-93341080D01*
X122992500Y-93341080D01*
X122904000Y-93429580D01*
X122904000Y-93990660D01*
X122924000Y-93990660D01*
X122924000Y-94298660D01*
X122904000Y-94298660D01*
X122904000Y-94318660D01*
X122596000Y-94318660D01*
X122596000Y-94298660D01*
X121984120Y-94298660D01*
X121895620Y-94387160D01*
X121895620Y-94664655D01*
X121949513Y-94794765D01*
X122049095Y-94894347D01*
X122060780Y-94899187D01*
X121994400Y-94943540D01*
X121916160Y-95060636D01*
X121888685Y-95198760D01*
X121888685Y-96097920D01*
X121916160Y-96236044D01*
X121985100Y-96339222D01*
X121985101Y-96367249D01*
X121946354Y-96425238D01*
X121945400Y-96425048D01*
X121890842Y-96435900D01*
X121890838Y-96435900D01*
X121810935Y-96451794D01*
X121810935Y-96366500D01*
X121783460Y-96228376D01*
X121705220Y-96111280D01*
X121588124Y-96033040D01*
X121450000Y-96005565D01*
X120800935Y-96005565D01*
X120800935Y-95356500D01*
X120773460Y-95218376D01*
X120723330Y-95143350D01*
X120723330Y-94528488D01*
X120882811Y-94369007D01*
X120997600Y-94091880D01*
X120997600Y-93791920D01*
X120928322Y-93624665D01*
X121895620Y-93624665D01*
X121895620Y-93902160D01*
X121984120Y-93990660D01*
X122596000Y-93990660D01*
X122596000Y-93429580D01*
X122507500Y-93341080D01*
X122179205Y-93341080D01*
X122049095Y-93394973D01*
X121949513Y-93494555D01*
X121895620Y-93624665D01*
X120928322Y-93624665D01*
X120882811Y-93514793D01*
X120670707Y-93302689D01*
X120393580Y-93187900D01*
X120093620Y-93187900D01*
X119816493Y-93302689D01*
X119604389Y-93514793D01*
X119489600Y-93791920D01*
X119489600Y-94091880D01*
X119604389Y-94369007D01*
X119814671Y-94579289D01*
X119814670Y-94995565D01*
X119660000Y-94995565D01*
X119550000Y-95017446D01*
X119440000Y-94995565D01*
X119160000Y-94995565D01*
X119050000Y-95017446D01*
X118940000Y-94995565D01*
X118660000Y-94995565D01*
X118550000Y-95017446D01*
X118440000Y-94995565D01*
X118160000Y-94995565D01*
X118050000Y-95017446D01*
X117940000Y-94995565D01*
X117660000Y-94995565D01*
X117550000Y-95017446D01*
X117440000Y-94995565D01*
X117160000Y-94995565D01*
X117127650Y-95002000D01*
X117100000Y-94996500D01*
X116804644Y-94996500D01*
X116671182Y-94909750D01*
X116702642Y-94909750D01*
X116702642Y-94821252D01*
X116791140Y-94909750D01*
X117000055Y-94909750D01*
X117130165Y-94855857D01*
X117229747Y-94756275D01*
X117283640Y-94626165D01*
X117283640Y-94449000D01*
X117195140Y-94360500D01*
X116702640Y-94360500D01*
X116702640Y-94380500D01*
X116394640Y-94380500D01*
X116394640Y-94360500D01*
X116374640Y-94360500D01*
X116374640Y-94052500D01*
X116394640Y-94052500D01*
X116394640Y-93591750D01*
X116702640Y-93591750D01*
X116702640Y-94052500D01*
X117195140Y-94052500D01*
X117283640Y-93964000D01*
X117283640Y-93786835D01*
X117229747Y-93656725D01*
X117130165Y-93557143D01*
X117000055Y-93503250D01*
X116791140Y-93503250D01*
X116702640Y-93591750D01*
X116394640Y-93591750D01*
X116306140Y-93503250D01*
X116097225Y-93503250D01*
X116000009Y-93543518D01*
X115970484Y-93523790D01*
X115832360Y-93496315D01*
X115070360Y-93496315D01*
X114932236Y-93523790D01*
X114815140Y-93602030D01*
X114736900Y-93719126D01*
X114722331Y-93792370D01*
X114194538Y-93792370D01*
X114149799Y-93783471D01*
X114105060Y-93792370D01*
X114105056Y-93792370D01*
X113972530Y-93818731D01*
X113972529Y-93818732D01*
X113972528Y-93818732D01*
X113860178Y-93893802D01*
X113822247Y-93919147D01*
X113796903Y-93957077D01*
X113288511Y-94465470D01*
X111588843Y-94465470D01*
X111544100Y-94456570D01*
X111499357Y-94465470D01*
X111499356Y-94465470D01*
X111366830Y-94491831D01*
X111216547Y-94592247D01*
X111191202Y-94630179D01*
X110644711Y-95176670D01*
X110064838Y-95176670D01*
X110020099Y-95167771D01*
X109975360Y-95176670D01*
X109975356Y-95176670D01*
X109842830Y-95203031D01*
X109804815Y-95228432D01*
X109759471Y-95258730D01*
X109692547Y-95303447D01*
X109667203Y-95341377D01*
X109209780Y-95798801D01*
X109171847Y-95824147D01*
X109071431Y-95974431D01*
X109045070Y-96106957D01*
X109045070Y-96106961D01*
X109036171Y-96151700D01*
X109045070Y-96196439D01*
X109045071Y-97071033D01*
X109029065Y-97151500D01*
X109029065Y-97441500D01*
X109060726Y-97600671D01*
X109061148Y-97601302D01*
X109027958Y-97650974D01*
X108989065Y-97846500D01*
X108862000Y-97846500D01*
X108862000Y-93088600D01*
X127184902Y-93088600D01*
X127220093Y-94168676D01*
X127220093Y-94168676D01*
G37*
X127220093Y-94168676D02*
X127228947Y-94206677D01*
X127251669Y-94238396D01*
X127298814Y-94263141D01*
X127770763Y-94365652D01*
X127784701Y-94379590D01*
X127793664Y-94370627D01*
X127886131Y-94390711D01*
X127897179Y-94425298D01*
X128179995Y-94489512D01*
X128270061Y-94474104D01*
X129263001Y-94689780D01*
X129263000Y-103616648D01*
X128512597Y-103598306D01*
X128502821Y-103567702D01*
X128220005Y-103503488D01*
X127934144Y-103552391D01*
X127897179Y-103567702D01*
X127880013Y-103621439D01*
X127800821Y-103629530D01*
X127784701Y-103613410D01*
X127764912Y-103633199D01*
X127358136Y-103674758D01*
X127320840Y-103686220D01*
X127290769Y-103711082D01*
X127270572Y-103753046D01*
X127020881Y-104904400D01*
X108862000Y-104904400D01*
X108862000Y-101056500D01*
X109039065Y-101056500D01*
X109039065Y-101756500D01*
X109066540Y-101894624D01*
X109144780Y-102011720D01*
X109261876Y-102089960D01*
X109400000Y-102117435D01*
X110100000Y-102117435D01*
X110238124Y-102089960D01*
X110355220Y-102011720D01*
X110433460Y-101894624D01*
X110444638Y-101838430D01*
X110550216Y-101838430D01*
X110567290Y-101924264D01*
X110645530Y-102041360D01*
X110762626Y-102119600D01*
X110900750Y-102147075D01*
X111599250Y-102147075D01*
X111737374Y-102119600D01*
X111854470Y-102041360D01*
X111932710Y-101924264D01*
X111960185Y-101786140D01*
X111960185Y-101024140D01*
X111932710Y-100886016D01*
X111912982Y-100856491D01*
X111953250Y-100759275D01*
X111953250Y-100550360D01*
X111864750Y-100461860D01*
X111404000Y-100461860D01*
X111404000Y-100481860D01*
X111096000Y-100481860D01*
X111096000Y-100461860D01*
X110635250Y-100461860D01*
X110546750Y-100550360D01*
X110546750Y-100759275D01*
X110587018Y-100856491D01*
X110567290Y-100886016D01*
X110558587Y-100929770D01*
X110435726Y-100929770D01*
X110433460Y-100918376D01*
X110355220Y-100801280D01*
X110238124Y-100723040D01*
X110100000Y-100695565D01*
X109400000Y-100695565D01*
X109261876Y-100723040D01*
X109144780Y-100801280D01*
X109066540Y-100918376D01*
X109039065Y-101056500D01*
X108862000Y-101056500D01*
X108862000Y-97846500D01*
X108989065Y-97846500D01*
X108989065Y-98146500D01*
X109027958Y-98342026D01*
X109054416Y-98381624D01*
X109036000Y-98426085D01*
X109036000Y-98508000D01*
X109124500Y-98596500D01*
X109271485Y-98596500D01*
X109304474Y-98618542D01*
X109500000Y-98657435D01*
X109529065Y-98657435D01*
X109529065Y-98841500D01*
X109534833Y-98870500D01*
X109445000Y-98870500D01*
X109445000Y-98796500D01*
X109124500Y-98796500D01*
X109036000Y-98885000D01*
X109036000Y-98966915D01*
X109089893Y-99097025D01*
X109189475Y-99196607D01*
X109258590Y-99225235D01*
X109144780Y-99301280D01*
X109066540Y-99418376D01*
X109039065Y-99556500D01*
X109039065Y-100256500D01*
X109066540Y-100394624D01*
X109144780Y-100511720D01*
X109261876Y-100589960D01*
X109400000Y-100617435D01*
X110100000Y-100617435D01*
X110238124Y-100589960D01*
X110355220Y-100511720D01*
X110433460Y-100394624D01*
X110460935Y-100256500D01*
X110460935Y-99856445D01*
X110546750Y-99856445D01*
X110546750Y-100065360D01*
X110635250Y-100153860D01*
X111096000Y-100153860D01*
X111096000Y-99661360D01*
X111404000Y-99661360D01*
X111404000Y-100153860D01*
X111864750Y-100153860D01*
X111953250Y-100065360D01*
X111953250Y-99856445D01*
X111899357Y-99726335D01*
X111799775Y-99626753D01*
X111669665Y-99572860D01*
X111492500Y-99572860D01*
X111404000Y-99661360D01*
X111096000Y-99661360D01*
X111007500Y-99572860D01*
X110830335Y-99572860D01*
X110700225Y-99626753D01*
X110600643Y-99726335D01*
X110546750Y-99856445D01*
X110460935Y-99856445D01*
X110460935Y-99642684D01*
X110754223Y-99349397D01*
X110792153Y-99324053D01*
X110817499Y-99286121D01*
X110859648Y-99223040D01*
X110892569Y-99173770D01*
X110918930Y-99041244D01*
X110918930Y-99041239D01*
X110927829Y-98996500D01*
X110918930Y-98951761D01*
X110918930Y-97546389D01*
X111489490Y-96975830D01*
X112551211Y-96975830D01*
X112693025Y-97117644D01*
X112682633Y-97121948D01*
X112550000Y-97095565D01*
X112150000Y-97095565D01*
X112011876Y-97123040D01*
X111894780Y-97201280D01*
X111816540Y-97318376D01*
X111789065Y-97456500D01*
X111789065Y-97956500D01*
X111816540Y-98094624D01*
X111894780Y-98211720D01*
X111947915Y-98247223D01*
X111961951Y-98317789D01*
X112062367Y-98468073D01*
X112100300Y-98493419D01*
X112716666Y-99109785D01*
X112658078Y-99148933D01*
X112620147Y-99174278D01*
X112594803Y-99212208D01*
X112194280Y-99612732D01*
X112156347Y-99638078D01*
X112055931Y-99788362D01*
X112029570Y-99920888D01*
X112029570Y-99920892D01*
X112020671Y-99965631D01*
X112029570Y-100010370D01*
X112029571Y-102457437D01*
X111840893Y-102535589D01*
X111633000Y-102743482D01*
X111425107Y-102535589D01*
X111147980Y-102420800D01*
X110848020Y-102420800D01*
X110570893Y-102535589D01*
X110358789Y-102747693D01*
X110244000Y-103024820D01*
X110244000Y-103324780D01*
X110358789Y-103601907D01*
X110459906Y-103703024D01*
X110476144Y-103784659D01*
X110567682Y-103921655D01*
X110567684Y-103921657D01*
X110598590Y-103967911D01*
X110644844Y-103998817D01*
X111101082Y-104455056D01*
X111131989Y-104501311D01*
X111178243Y-104532217D01*
X111178244Y-104532218D01*
X111261157Y-104587619D01*
X111315240Y-104623756D01*
X111476838Y-104655900D01*
X111476842Y-104655900D01*
X111531400Y-104666752D01*
X111585958Y-104655900D01*
X120697042Y-104655900D01*
X120751600Y-104666752D01*
X120806158Y-104655900D01*
X120806162Y-104655900D01*
X120967760Y-104623756D01*
X121151011Y-104501311D01*
X121181919Y-104455054D01*
X121739757Y-103897217D01*
X121786011Y-103866311D01*
X121840570Y-103784659D01*
X121908456Y-103683060D01*
X121917618Y-103637000D01*
X121940600Y-103521462D01*
X121940600Y-103521458D01*
X121951452Y-103466900D01*
X121940600Y-103412342D01*
X121940600Y-103277548D01*
X121963100Y-103243874D01*
X121990575Y-103105750D01*
X121990575Y-102563938D01*
X122047447Y-102649053D01*
X122085380Y-102674399D01*
X122347103Y-102936122D01*
X122372447Y-102974053D01*
X122410377Y-102999397D01*
X122410378Y-102999398D01*
X122522728Y-103074468D01*
X122522729Y-103074468D01*
X122522730Y-103074469D01*
X122614065Y-103092637D01*
X122614065Y-103371500D01*
X122641540Y-103509624D01*
X122719780Y-103626720D01*
X122836876Y-103704960D01*
X122975000Y-103732435D01*
X124075000Y-103732435D01*
X124213124Y-103704960D01*
X124330220Y-103626720D01*
X124371783Y-103564516D01*
X124374893Y-103572025D01*
X124474475Y-103671607D01*
X124604585Y-103725500D01*
X124982500Y-103725500D01*
X125071000Y-103637000D01*
X125071000Y-103025500D01*
X125051000Y-103025500D01*
X125051000Y-102717500D01*
X125071000Y-102717500D01*
X125071000Y-102697500D01*
X125379000Y-102697500D01*
X125379000Y-102717500D01*
X125399000Y-102717500D01*
X125399000Y-103025500D01*
X125379000Y-103025500D01*
X125379000Y-103637000D01*
X125467500Y-103725500D01*
X125845415Y-103725500D01*
X125975525Y-103671607D01*
X126075107Y-103572025D01*
X126129000Y-103441915D01*
X126129000Y-103326132D01*
X126199475Y-103396607D01*
X126329585Y-103450500D01*
X126907500Y-103450500D01*
X126996000Y-103362000D01*
X126996000Y-102650500D01*
X127304000Y-102650500D01*
X127304000Y-103362000D01*
X127392500Y-103450500D01*
X127970415Y-103450500D01*
X128100525Y-103396607D01*
X128200107Y-103297025D01*
X128254000Y-103166915D01*
X128254000Y-102739000D01*
X128165500Y-102650500D01*
X127304000Y-102650500D01*
X126996000Y-102650500D01*
X126976000Y-102650500D01*
X126976000Y-102342500D01*
X126996000Y-102342500D01*
X126996000Y-101631000D01*
X127304000Y-101631000D01*
X127304000Y-102342500D01*
X128165500Y-102342500D01*
X128254000Y-102254000D01*
X128254000Y-101826085D01*
X128200107Y-101695975D01*
X128100525Y-101596393D01*
X127970415Y-101542500D01*
X127392500Y-101542500D01*
X127304000Y-101631000D01*
X126996000Y-101631000D01*
X126907500Y-101542500D01*
X126329585Y-101542500D01*
X126199475Y-101596393D01*
X126135935Y-101659933D01*
X126135935Y-100971500D01*
X126108460Y-100833376D01*
X126030220Y-100716280D01*
X125913124Y-100638040D01*
X125775000Y-100610565D01*
X125247066Y-100610565D01*
X125227898Y-100581878D01*
X125227897Y-100581877D01*
X125202553Y-100543947D01*
X125164623Y-100518603D01*
X125021000Y-100374981D01*
X125021000Y-99827340D01*
X125329000Y-99827340D01*
X125329000Y-100388420D01*
X125417500Y-100476920D01*
X125745795Y-100476920D01*
X125875905Y-100423027D01*
X125975487Y-100323445D01*
X126029380Y-100193335D01*
X126029380Y-99915840D01*
X125940880Y-99827340D01*
X125329000Y-99827340D01*
X125021000Y-99827340D01*
X124409120Y-99827340D01*
X124320620Y-99915840D01*
X124320620Y-100117170D01*
X123135648Y-100117170D01*
X123279072Y-99973746D01*
X123393861Y-99696619D01*
X123393861Y-99696500D01*
X126039065Y-99696500D01*
X126039065Y-100296500D01*
X126089376Y-100549429D01*
X126232648Y-100763852D01*
X126447071Y-100907124D01*
X126700000Y-100957435D01*
X127600000Y-100957435D01*
X127852929Y-100907124D01*
X128067352Y-100763852D01*
X128210624Y-100549429D01*
X128260935Y-100296500D01*
X128260935Y-99696500D01*
X128210624Y-99443571D01*
X128067352Y-99229148D01*
X127852929Y-99085876D01*
X127600000Y-99035565D01*
X126700000Y-99035565D01*
X126447071Y-99085876D01*
X126232648Y-99229148D01*
X126089376Y-99443571D01*
X126039065Y-99696500D01*
X123393861Y-99696500D01*
X123393861Y-99396659D01*
X123279072Y-99119532D01*
X123066968Y-98907428D01*
X122856235Y-98820140D01*
X123019665Y-98820140D01*
X123149775Y-98766247D01*
X123249357Y-98666665D01*
X123303250Y-98536555D01*
X123303250Y-98327640D01*
X123214750Y-98239140D01*
X122754000Y-98239140D01*
X122754000Y-98259140D01*
X122446000Y-98259140D01*
X122446000Y-98239140D01*
X122426000Y-98239140D01*
X122426000Y-97931140D01*
X122446000Y-97931140D01*
X122446000Y-97911140D01*
X122754000Y-97911140D01*
X122754000Y-97931140D01*
X123214750Y-97931140D01*
X123303250Y-97842640D01*
X123303250Y-97720080D01*
X124313685Y-97720080D01*
X124313685Y-98619240D01*
X124341160Y-98757364D01*
X124419400Y-98874460D01*
X124485780Y-98918813D01*
X124474095Y-98923653D01*
X124374513Y-99023235D01*
X124320620Y-99153345D01*
X124320620Y-99430840D01*
X124409120Y-99519340D01*
X125021000Y-99519340D01*
X125021000Y-99499340D01*
X125329000Y-99499340D01*
X125329000Y-99519340D01*
X125940880Y-99519340D01*
X126029380Y-99430840D01*
X126029380Y-99153345D01*
X125975487Y-99023235D01*
X125875905Y-98923653D01*
X125864220Y-98918813D01*
X125930600Y-98874460D01*
X126008840Y-98757364D01*
X126036315Y-98619240D01*
X126036315Y-97720080D01*
X126031625Y-97696500D01*
X126039065Y-97696500D01*
X126039065Y-98296500D01*
X126089376Y-98549429D01*
X126232648Y-98763852D01*
X126447071Y-98907124D01*
X126700000Y-98957435D01*
X127600000Y-98957435D01*
X127852929Y-98907124D01*
X128067352Y-98763852D01*
X128210624Y-98549429D01*
X128260935Y-98296500D01*
X128260935Y-97990093D01*
X128279000Y-97946480D01*
X128279000Y-97646520D01*
X128225118Y-97516436D01*
X128210624Y-97443571D01*
X128169350Y-97381800D01*
X128164211Y-97369393D01*
X128154715Y-97359897D01*
X128067352Y-97229148D01*
X127852929Y-97085876D01*
X127712043Y-97057852D01*
X127674980Y-97042500D01*
X127634864Y-97042500D01*
X127600000Y-97035565D01*
X126700000Y-97035565D01*
X126447071Y-97085876D01*
X126232648Y-97229148D01*
X126089376Y-97443571D01*
X126039065Y-97696500D01*
X126031625Y-97696500D01*
X126008840Y-97581956D01*
X125932693Y-97467992D01*
X126410026Y-96990659D01*
X126460460Y-96956960D01*
X126593956Y-96757169D01*
X126629000Y-96580989D01*
X126629000Y-96580988D01*
X126640833Y-96521500D01*
X126629000Y-96462012D01*
X126629000Y-96443312D01*
X126700000Y-96457435D01*
X127600000Y-96457435D01*
X127852929Y-96407124D01*
X128067352Y-96263852D01*
X128210624Y-96049429D01*
X128260935Y-95796500D01*
X128260935Y-95196500D01*
X128210624Y-94943571D01*
X128067352Y-94729148D01*
X127852929Y-94585876D01*
X127600000Y-94535565D01*
X126700000Y-94535565D01*
X126448634Y-94585565D01*
X125775000Y-94585565D01*
X125636876Y-94613040D01*
X125519780Y-94691280D01*
X125441540Y-94808376D01*
X125414065Y-94946500D01*
X125414065Y-95546500D01*
X125421000Y-95581365D01*
X125421001Y-96271314D01*
X124764976Y-96927339D01*
X124714540Y-96961040D01*
X124581044Y-97160832D01*
X124560523Y-97264000D01*
X124536077Y-97386900D01*
X124419400Y-97464860D01*
X124341160Y-97581956D01*
X124313685Y-97720080D01*
X123303250Y-97720080D01*
X123303250Y-97633725D01*
X123262982Y-97536509D01*
X123267272Y-97530090D01*
X123322893Y-97585711D01*
X123600020Y-97700500D01*
X123899980Y-97700500D01*
X124177107Y-97585711D01*
X124389211Y-97373607D01*
X124504000Y-97096480D01*
X124504000Y-96831775D01*
X124513124Y-96829960D01*
X124630220Y-96751720D01*
X124708460Y-96634624D01*
X124735935Y-96496500D01*
X124735935Y-95896500D01*
X124708460Y-95758376D01*
X124630220Y-95641280D01*
X124513124Y-95563040D01*
X124375000Y-95535565D01*
X123950120Y-95535565D01*
X123924411Y-95497089D01*
X123741160Y-95374644D01*
X123611315Y-95348816D01*
X123611315Y-95198760D01*
X123583840Y-95060636D01*
X123510250Y-94950500D01*
X123682500Y-94950500D01*
X123771000Y-94862000D01*
X123771000Y-94446500D01*
X124079000Y-94446500D01*
X124079000Y-94862000D01*
X124167500Y-94950500D01*
X124445415Y-94950500D01*
X124575525Y-94896607D01*
X124675107Y-94797025D01*
X124729000Y-94666915D01*
X124729000Y-94535000D01*
X124640500Y-94446500D01*
X124079000Y-94446500D01*
X123771000Y-94446500D01*
X123604380Y-94446500D01*
X123604380Y-94387160D01*
X123515882Y-94298662D01*
X123604380Y-94298662D01*
X123604380Y-94146500D01*
X123771000Y-94146500D01*
X123771000Y-93731000D01*
X124079000Y-93731000D01*
X124079000Y-94146500D01*
X124640500Y-94146500D01*
X124729000Y-94058000D01*
X124729000Y-93926085D01*
X124675107Y-93795975D01*
X124575525Y-93696393D01*
X124445415Y-93642500D01*
X124167500Y-93642500D01*
X124079000Y-93731000D01*
X123771000Y-93731000D01*
X123682500Y-93642500D01*
X123604380Y-93642500D01*
X123604380Y-93624665D01*
X123550487Y-93494555D01*
X123450905Y-93394973D01*
X123320795Y-93341080D01*
X122992500Y-93341080D01*
X122904000Y-93429580D01*
X122904000Y-93990660D01*
X122924000Y-93990660D01*
X122924000Y-94298660D01*
X122904000Y-94298660D01*
X122904000Y-94318660D01*
X122596000Y-94318660D01*
X122596000Y-94298660D01*
X121984120Y-94298660D01*
X121895620Y-94387160D01*
X121895620Y-94664655D01*
X121949513Y-94794765D01*
X122049095Y-94894347D01*
X122060780Y-94899187D01*
X121994400Y-94943540D01*
X121916160Y-95060636D01*
X121888685Y-95198760D01*
X121888685Y-96097920D01*
X121916160Y-96236044D01*
X121985100Y-96339222D01*
X121985101Y-96367249D01*
X121946354Y-96425238D01*
X121945400Y-96425048D01*
X121890842Y-96435900D01*
X121890838Y-96435900D01*
X121810935Y-96451794D01*
X121810935Y-96366500D01*
X121783460Y-96228376D01*
X121705220Y-96111280D01*
X121588124Y-96033040D01*
X121450000Y-96005565D01*
X120800935Y-96005565D01*
X120800935Y-95356500D01*
X120773460Y-95218376D01*
X120723330Y-95143350D01*
X120723330Y-94528488D01*
X120882811Y-94369007D01*
X120997600Y-94091880D01*
X120997600Y-93791920D01*
X120928322Y-93624665D01*
X121895620Y-93624665D01*
X121895620Y-93902160D01*
X121984120Y-93990660D01*
X122596000Y-93990660D01*
X122596000Y-93429580D01*
X122507500Y-93341080D01*
X122179205Y-93341080D01*
X122049095Y-93394973D01*
X121949513Y-93494555D01*
X121895620Y-93624665D01*
X120928322Y-93624665D01*
X120882811Y-93514793D01*
X120670707Y-93302689D01*
X120393580Y-93187900D01*
X120093620Y-93187900D01*
X119816493Y-93302689D01*
X119604389Y-93514793D01*
X119489600Y-93791920D01*
X119489600Y-94091880D01*
X119604389Y-94369007D01*
X119814671Y-94579289D01*
X119814670Y-94995565D01*
X119660000Y-94995565D01*
X119550000Y-95017446D01*
X119440000Y-94995565D01*
X119160000Y-94995565D01*
X119050000Y-95017446D01*
X118940000Y-94995565D01*
X118660000Y-94995565D01*
X118550000Y-95017446D01*
X118440000Y-94995565D01*
X118160000Y-94995565D01*
X118050000Y-95017446D01*
X117940000Y-94995565D01*
X117660000Y-94995565D01*
X117550000Y-95017446D01*
X117440000Y-94995565D01*
X117160000Y-94995565D01*
X117127650Y-95002000D01*
X117100000Y-94996500D01*
X116804644Y-94996500D01*
X116671182Y-94909750D01*
X116702642Y-94909750D01*
X116702642Y-94821252D01*
X116791140Y-94909750D01*
X117000055Y-94909750D01*
X117130165Y-94855857D01*
X117229747Y-94756275D01*
X117283640Y-94626165D01*
X117283640Y-94449000D01*
X117195140Y-94360500D01*
X116702640Y-94360500D01*
X116702640Y-94380500D01*
X116394640Y-94380500D01*
X116394640Y-94360500D01*
X116374640Y-94360500D01*
X116374640Y-94052500D01*
X116394640Y-94052500D01*
X116394640Y-93591750D01*
X116702640Y-93591750D01*
X116702640Y-94052500D01*
X117195140Y-94052500D01*
X117283640Y-93964000D01*
X117283640Y-93786835D01*
X117229747Y-93656725D01*
X117130165Y-93557143D01*
X117000055Y-93503250D01*
X116791140Y-93503250D01*
X116702640Y-93591750D01*
X116394640Y-93591750D01*
X116306140Y-93503250D01*
X116097225Y-93503250D01*
X116000009Y-93543518D01*
X115970484Y-93523790D01*
X115832360Y-93496315D01*
X115070360Y-93496315D01*
X114932236Y-93523790D01*
X114815140Y-93602030D01*
X114736900Y-93719126D01*
X114722331Y-93792370D01*
X114194538Y-93792370D01*
X114149799Y-93783471D01*
X114105060Y-93792370D01*
X114105056Y-93792370D01*
X113972530Y-93818731D01*
X113972529Y-93818732D01*
X113972528Y-93818732D01*
X113860178Y-93893802D01*
X113822247Y-93919147D01*
X113796903Y-93957077D01*
X113288511Y-94465470D01*
X111588843Y-94465470D01*
X111544100Y-94456570D01*
X111499357Y-94465470D01*
X111499356Y-94465470D01*
X111366830Y-94491831D01*
X111216547Y-94592247D01*
X111191202Y-94630179D01*
X110644711Y-95176670D01*
X110064838Y-95176670D01*
X110020099Y-95167771D01*
X109975360Y-95176670D01*
X109975356Y-95176670D01*
X109842830Y-95203031D01*
X109804815Y-95228432D01*
X109759471Y-95258730D01*
X109692547Y-95303447D01*
X109667203Y-95341377D01*
X109209780Y-95798801D01*
X109171847Y-95824147D01*
X109071431Y-95974431D01*
X109045070Y-96106957D01*
X109045070Y-96106961D01*
X109036171Y-96151700D01*
X109045070Y-96196439D01*
X109045071Y-97071033D01*
X109029065Y-97151500D01*
X109029065Y-97441500D01*
X109060726Y-97600671D01*
X109061148Y-97601302D01*
X109027958Y-97650974D01*
X108989065Y-97846500D01*
X108862000Y-97846500D01*
X108862000Y-93088600D01*
X127184902Y-93088600D01*
X127220093Y-94168676D01*
G36*
X120832601Y-101713539D02*
X120832600Y-102053285D01*
X120729516Y-102073790D01*
X120699991Y-102093518D01*
X120602775Y-102053250D01*
X120393860Y-102053250D01*
X120305360Y-102141750D01*
X120305360Y-102602500D01*
X120325360Y-102602500D01*
X120325360Y-102910500D01*
X120305360Y-102910500D01*
X120305360Y-103371250D01*
X120393860Y-103459750D01*
X120602775Y-103459750D01*
X120615581Y-103454446D01*
X120522127Y-103547900D01*
X116832000Y-103547900D01*
X116832000Y-103417300D01*
X116743500Y-103328800D01*
X116232000Y-103328800D01*
X116232000Y-103348800D01*
X115924000Y-103348800D01*
X115924000Y-103328800D01*
X115904000Y-103328800D01*
X115904000Y-103020800D01*
X115924000Y-103020800D01*
X115924000Y-103000800D01*
X116232000Y-103000800D01*
X116232000Y-103020800D01*
X116638222Y-103020800D01*
X116750713Y-103133291D01*
X117027840Y-103248080D01*
X117039710Y-103248080D01*
X117115140Y-103360970D01*
X117232236Y-103439210D01*
X117370360Y-103466685D01*
X118132360Y-103466685D01*
X118270484Y-103439210D01*
X118300009Y-103419482D01*
X118397225Y-103459750D01*
X118606140Y-103459750D01*
X118694640Y-103371250D01*
X118694640Y-102910500D01*
X119002640Y-102910500D01*
X119002640Y-103371250D01*
X119091140Y-103459750D01*
X119300055Y-103459750D01*
X119430165Y-103405857D01*
X119500000Y-103336022D01*
X119569835Y-103405857D01*
X119699945Y-103459750D01*
X119908860Y-103459750D01*
X119997360Y-103371250D01*
X119997360Y-102910500D01*
X119504860Y-102910500D01*
X119500000Y-102915360D01*
X119495140Y-102910500D01*
X119002640Y-102910500D01*
X118694640Y-102910500D01*
X118674640Y-102910500D01*
X118674640Y-102602500D01*
X118694640Y-102602500D01*
X118694640Y-102141750D01*
X119002640Y-102141750D01*
X119002640Y-102602500D01*
X119495140Y-102602500D01*
X119500000Y-102597640D01*
X119504860Y-102602500D01*
X119997360Y-102602500D01*
X119997360Y-102141750D01*
X119908860Y-102053250D01*
X119699945Y-102053250D01*
X119569835Y-102107143D01*
X119500000Y-102176978D01*
X119430165Y-102107143D01*
X119300055Y-102053250D01*
X119091140Y-102053250D01*
X119002640Y-102141750D01*
X118694640Y-102141750D01*
X118606140Y-102053250D01*
X118397225Y-102053250D01*
X118300009Y-102093518D01*
X118270484Y-102073790D01*
X118132360Y-102046315D01*
X117796373Y-102046315D01*
X117767493Y-102017435D01*
X117940000Y-102017435D01*
X118050000Y-101995554D01*
X118160000Y-102017435D01*
X118440000Y-102017435D01*
X118550000Y-101995554D01*
X118660000Y-102017435D01*
X118940000Y-102017435D01*
X119050000Y-101995554D01*
X119160000Y-102017435D01*
X119440000Y-102017435D01*
X119440410Y-102017354D01*
X119473393Y-102037084D01*
X119511994Y-102042775D01*
X120444166Y-101996166D01*
X120458500Y-102010500D01*
X120510415Y-102010500D01*
X120640525Y-101956607D01*
X120740107Y-101857025D01*
X120794000Y-101726915D01*
X120794000Y-101674938D01*
X120832601Y-101713539D01*
X120832601Y-101713539D01*
G37*
X120832601Y-101713539D02*
X120832600Y-102053285D01*
X120729516Y-102073790D01*
X120699991Y-102093518D01*
X120602775Y-102053250D01*
X120393860Y-102053250D01*
X120305360Y-102141750D01*
X120305360Y-102602500D01*
X120325360Y-102602500D01*
X120325360Y-102910500D01*
X120305360Y-102910500D01*
X120305360Y-103371250D01*
X120393860Y-103459750D01*
X120602775Y-103459750D01*
X120615581Y-103454446D01*
X120522127Y-103547900D01*
X116832000Y-103547900D01*
X116832000Y-103417300D01*
X116743500Y-103328800D01*
X116232000Y-103328800D01*
X116232000Y-103348800D01*
X115924000Y-103348800D01*
X115924000Y-103328800D01*
X115904000Y-103328800D01*
X115904000Y-103020800D01*
X115924000Y-103020800D01*
X115924000Y-103000800D01*
X116232000Y-103000800D01*
X116232000Y-103020800D01*
X116638222Y-103020800D01*
X116750713Y-103133291D01*
X117027840Y-103248080D01*
X117039710Y-103248080D01*
X117115140Y-103360970D01*
X117232236Y-103439210D01*
X117370360Y-103466685D01*
X118132360Y-103466685D01*
X118270484Y-103439210D01*
X118300009Y-103419482D01*
X118397225Y-103459750D01*
X118606140Y-103459750D01*
X118694640Y-103371250D01*
X118694640Y-102910500D01*
X119002640Y-102910500D01*
X119002640Y-103371250D01*
X119091140Y-103459750D01*
X119300055Y-103459750D01*
X119430165Y-103405857D01*
X119500000Y-103336022D01*
X119569835Y-103405857D01*
X119699945Y-103459750D01*
X119908860Y-103459750D01*
X119997360Y-103371250D01*
X119997360Y-102910500D01*
X119504860Y-102910500D01*
X119500000Y-102915360D01*
X119495140Y-102910500D01*
X119002640Y-102910500D01*
X118694640Y-102910500D01*
X118674640Y-102910500D01*
X118674640Y-102602500D01*
X118694640Y-102602500D01*
X118694640Y-102141750D01*
X119002640Y-102141750D01*
X119002640Y-102602500D01*
X119495140Y-102602500D01*
X119500000Y-102597640D01*
X119504860Y-102602500D01*
X119997360Y-102602500D01*
X119997360Y-102141750D01*
X119908860Y-102053250D01*
X119699945Y-102053250D01*
X119569835Y-102107143D01*
X119500000Y-102176978D01*
X119430165Y-102107143D01*
X119300055Y-102053250D01*
X119091140Y-102053250D01*
X119002640Y-102141750D01*
X118694640Y-102141750D01*
X118606140Y-102053250D01*
X118397225Y-102053250D01*
X118300009Y-102093518D01*
X118270484Y-102073790D01*
X118132360Y-102046315D01*
X117796373Y-102046315D01*
X117767493Y-102017435D01*
X117940000Y-102017435D01*
X118050000Y-101995554D01*
X118160000Y-102017435D01*
X118440000Y-102017435D01*
X118550000Y-101995554D01*
X118660000Y-102017435D01*
X118940000Y-102017435D01*
X119050000Y-101995554D01*
X119160000Y-102017435D01*
X119440000Y-102017435D01*
X119440410Y-102017354D01*
X119473393Y-102037084D01*
X119511994Y-102042775D01*
X120444166Y-101996166D01*
X120458500Y-102010500D01*
X120510415Y-102010500D01*
X120640525Y-101956607D01*
X120740107Y-101857025D01*
X120794000Y-101726915D01*
X120794000Y-101674938D01*
X120832601Y-101713539D01*
G36*
X123679000Y-101317500D02*
X123699000Y-101317500D01*
X123699000Y-101625500D01*
X123679000Y-101625500D01*
X123679000Y-101645500D01*
X123371000Y-101645500D01*
X123371000Y-101625500D01*
X123351000Y-101625500D01*
X123351000Y-101317500D01*
X123371000Y-101317500D01*
X123371000Y-101297500D01*
X123679000Y-101297500D01*
X123679000Y-101317500D01*
X123679000Y-101317500D01*
G37*
X123679000Y-101317500D02*
X123699000Y-101317500D01*
X123699000Y-101625500D01*
X123679000Y-101625500D01*
X123679000Y-101645500D01*
X123371000Y-101645500D01*
X123371000Y-101625500D01*
X123351000Y-101625500D01*
X123351000Y-101317500D01*
X123371000Y-101317500D01*
X123371000Y-101297500D01*
X123679000Y-101297500D01*
X123679000Y-101317500D01*
G36*
X113296750Y-99985360D02*
X113385250Y-100073860D01*
X113846000Y-100073860D01*
X113846000Y-100053860D01*
X114154000Y-100053860D01*
X114154000Y-100073860D01*
X114614750Y-100073860D01*
X114703250Y-99985360D01*
X114703250Y-99956161D01*
X114976258Y-99956161D01*
X115011876Y-99979960D01*
X115145300Y-100006500D01*
X115011876Y-100033040D01*
X114946833Y-100076500D01*
X114884500Y-100076500D01*
X114796000Y-100165000D01*
X114796000Y-100216915D01*
X114811416Y-100254134D01*
X114789065Y-100366500D01*
X114789065Y-100527105D01*
X114703250Y-100612920D01*
X114703250Y-100470360D01*
X114614750Y-100381860D01*
X114154000Y-100381860D01*
X114154000Y-100401860D01*
X113846000Y-100401860D01*
X113846000Y-100381860D01*
X113385250Y-100381860D01*
X113296750Y-100470360D01*
X113296750Y-100679275D01*
X113324388Y-100746000D01*
X113150020Y-100746000D01*
X112938230Y-100833726D01*
X112938230Y-100153820D01*
X113135890Y-99956161D01*
X113296750Y-99956161D01*
X113296750Y-99985360D01*
X113296750Y-99985360D01*
G37*
X113296750Y-99985360D02*
X113385250Y-100073860D01*
X113846000Y-100073860D01*
X113846000Y-100053860D01*
X114154000Y-100053860D01*
X114154000Y-100073860D01*
X114614750Y-100073860D01*
X114703250Y-99985360D01*
X114703250Y-99956161D01*
X114976258Y-99956161D01*
X115011876Y-99979960D01*
X115145300Y-100006500D01*
X115011876Y-100033040D01*
X114946833Y-100076500D01*
X114884500Y-100076500D01*
X114796000Y-100165000D01*
X114796000Y-100216915D01*
X114811416Y-100254134D01*
X114789065Y-100366500D01*
X114789065Y-100527105D01*
X114703250Y-100612920D01*
X114703250Y-100470360D01*
X114614750Y-100381860D01*
X114154000Y-100381860D01*
X114154000Y-100401860D01*
X113846000Y-100401860D01*
X113846000Y-100381860D01*
X113385250Y-100381860D01*
X113296750Y-100470360D01*
X113296750Y-100679275D01*
X113324388Y-100746000D01*
X113150020Y-100746000D01*
X112938230Y-100833726D01*
X112938230Y-100153820D01*
X113135890Y-99956161D01*
X113296750Y-99956161D01*
X113296750Y-99985360D01*
G36*
X113089065Y-97880500D02*
X112910935Y-97880500D01*
X112910935Y-97532500D01*
X113089065Y-97532500D01*
X113089065Y-97880500D01*
X113089065Y-97880500D01*
G37*
X113089065Y-97880500D02*
X112910935Y-97880500D01*
X112910935Y-97532500D01*
X113089065Y-97532500D01*
X113089065Y-97880500D01*
G36*
X129263000Y-103941058D02*
X128299659Y-104904400D01*
X126815352Y-104904400D01*
X127045492Y-103682848D01*
X129263000Y-103408813D01*
X129263000Y-103941058D01*
X129263000Y-103941058D01*
G37*
X129263000Y-103941058D02*
X128299659Y-104904400D01*
X126815352Y-104904400D01*
X127045492Y-103682848D01*
X129263000Y-103408813D01*
X129263000Y-103941058D01*
G36*
X129263001Y-94051943D02*
X129263001Y-95256826D01*
X127002752Y-93957972D01*
X126871134Y-93088600D01*
X128299659Y-93088600D01*
X129263001Y-94051943D01*
X129263001Y-94051943D01*
G37*
X129263001Y-94051943D02*
X129263001Y-95256826D01*
X127002752Y-93957972D01*
X126871134Y-93088600D01*
X128299659Y-93088600D01*
X129263001Y-94051943D01*
G04 #@! TD*
M02*
